<svg xmlns:dc="http://purl.org/dc/elements/1.1/" xmlns:cc="http://creativecommons.org/ns#" xmlns:rdf="http://www.w3.org/1999/02/22-rdf-syntax-ns#" xmlns:svg="http://www.w3.org/2000/svg" xmlns="http://www.w3.org/2000/svg" version="1.1" width="1057.0039" height="160.29921" viewBox="0 0 29831 4524" id="svg14989" xml:space="preserve" style="fill-rule:evenodd"><metadata id="metadata15373"><rdf:rdf><cc:work rdf:about=""><dc:format>image/svg+xml</dc:format><dc:type rdf:resource="http://purl.org/dc/dcmitype/StillImage"></dc:type><dc:title></dc:title></cc:work></rdf:rdf></metadata><defs id="defs15371">
 </defs>
 <path d="m 5580,5073 0,1295 -2085,0 0,-1295 z" transform="translate(-347,-4869.0001)" id="polygon14993" style="fill:#f2f4f5"></path><path d="m 26883,5073 0,1159 -2118,0 0,-1159 z" transform="translate(-347,-4869.0001)" id="polygon14995" style="fill:#f2f4f5"></path><path d="m 1523,5073 27479,0 c 44,0 79,36 79,79 l 0,3958 c 0,44 -36,79 -79,79 l -27479,0 c -44,0 -79,-36 -79,-79 l 0,-3958 c 0,-44 36,-79 79,-79 z m 0,-204 27479,0 c 156,0 283,128 283,283 l 0,3958 c 0,156 -128,283 -283,283 l -27479,0 c -156,0 -283,-128 -283,-283 l 0,-3958 c 0,-156 128,-283 283,-283 z" transform="translate(-347,-4869.0001)" id="path14997" style="fill:#0275d8"></path><path d="m 29285,5591 379,0 0,73 159,0 0,-282 95,0 0,772 -95,0 0,-282 -159,0 0,73 -379,0 0,-353 z m 102,681 53,-30 53,30 53,-30 53,30 53,-30 53,30 53,-30 53,30 0,27 70,0 0,271 -68,0 70,143 295,0 0,878 -295,0 -51,104 49,0 0,271 -70,0 0,26 -53,30 -53,-30 -53,30 -53,-30 -53,30 -28,-16 -50,0 -28,16 -28,-16 -127,0 0,-40 0,-66 0,-49 0,-156 0,-1124 0,-117 0,-40 0,-106 0,-8 102,0 0,-27 z m -102,2015 379,0 0,73 159,0 0,-282 95,0 0,772 -95,0 0,-282 -159,0 0,73 -379,0 0,-353 z" transform="translate(-347,-4869.0001)" id="path14999" style="fill:#9d9e9e"></path><path d="m 1240,5591 -379,0 0,73 -159,0 0,-282 -95,0 0,772 95,0 0,-282 159,0 0,73 379,0 0,-353 z m -102,681 -53,-30 -53,30 -53,-30 -53,30 -53,-30 -53,30 -53,-30 -53,30 0,27 -70,0 0,271 68,0 -70,143 -295,0 0,878 295,0 51,104 -49,0 0,271 70,0 0,26 53,30 53,-30 53,30 53,-30 53,30 28,-16 50,0 28,16 28,-16 127,0 0,-40 0,-66 0,-49 0,-156 0,-1124 0,-117 0,-40 0,-106 0,-8 -102,0 0,-27 z m 102,2015 -379,0 0,73 -159,0 0,-282 -95,0 0,772 95,0 0,-282 159,0 0,73 379,0 0,-353 z" transform="translate(-347,-4869.0001)" id="path15001" style="fill:#9d9e9e"></path><path d="m 26883,8084 93,0 0,1105 -93,0 0,-1105 z m -23481,-277 93,0 0,1382 -93,0 0,-1382 z m 0,-2734 93,0 0,1382 -93,0 0,-1382 z m 2178,2734 93,0 0,1382 -93,0 0,-1382 z m 0,-2734 93,0 0,1382 -93,0 0,-1382 z m 14202,3408 93,0 0,709 -93,0 0,-709 z m 0,-3408 93,0 0,2247 -93,0 0,-2247 z m 4891,3011 93,0 0,1105 -93,0 0,-1105 z m 0,-3011 93,0 0,1850 -93,0 0,-1850 z m 2211,0 93,0 0,1159 -93,0 0,-1159 z" transform="translate(-347,-4869.0001)" id="path15003" style="fill:#0275d8"></path><path d="m 7990,6434 c -144,0 -288,0 -432,0 -106,185 -94,370 0,556 168,0 265,0 432,0 121,-180 131,-364 0,-556 z" transform="translate(-347,-4869.0001)" id="s5" style="fill:#dedfe0" number="5" type="seat"></path><path d="m 9213,6434 c -144,0 -288,0 -432,0 -106,185 -94,370 0,556 168,0 265,0 432,0 121,-180 131,-364 0,-556 z" transform="translate(-347,-4869.0001)" id="s10" style="fill:#dedfe0" number="10" type="seat"></path><path d="m 10403,6434 c -144,0 -288,0 -432,0 -106,185 -94,370 0,556 168,0 265,0 432,0 121,-180 131,-364 0,-556 z" transform="translate(-347,-4869.0001)" id="s15" style="fill:#dedfe0" number="15" type="seat"></path><path d="m 11594,6434 c -144,0 -288,0 -432,0 -106,185 -94,370 0,556 168,0 265,0 432,0 121,-180 131,-364 0,-556 z" transform="translate(-347,-4869.0001)" id="s20" style="fill:#dedfe0" number="20" type="seat"></path><path d="m 12768,6434 c -144,0 -288,0 -432,0 -106,185 -94,370 0,556 168,0 265,0 432,0 121,-180 131,-364 0,-556 z" transform="translate(-347,-4869.0001)" id="s25" style="fill:#dedfe0" number="25" type="seat"></path><path d="m 13984,6434 c -144,0 -288,0 -432,0 -106,185 -94,370 0,556 168,0 265,0 432,0 121,-180 131,-364 0,-556 z" transform="translate(-347,-4869.0001)" id="s30" style="fill:#dedfe0" number="30" type="seat"></path><path d="m 15192,6434 c -144,0 -288,0 -432,0 -106,185 -94,370 0,556 168,0 265,0 432,0 121,-180 131,-364 0,-556 z" transform="translate(-347,-4869.0001)" id="s35" style="fill:#dedfe0" number="35" type="seat"></path><path d="m 16400,6434 c -144,0 -288,0 -432,0 -106,185 -94,370 0,556 168,0 265,0 432,0 121,-180 131,-364 0,-556 z" transform="translate(-347,-4869.0001)" id="s40" style="fill:#dedfe0" number="40" type="seat"></path><path d="m 17592,6434 c -144,0 -288,0 -432,0 -106,185 -94,370 0,556 168,0 265,0 432,0 121,-180 131,-364 0,-556 z" transform="translate(-347,-4869.0001)" id="s45" style="fill:#dedfe0" number="45" type="seat"></path><path d="m 18348,5689 c 144,0 288,0 432,0 106,-185 94,-370 0,-556 -168,0 -265,0 -432,0 -121,180 -131,364 0,556 z" transform="translate(-347,-4869.0001)" id="s51" style="fill:#dedfe0" number="51" type="seat"></path><path d="m 7990,5790 c -144,0 -288,0 -432,0 -106,185 -94,370 0,556 168,0 265,0 432,0 121,-180 131,-364 0,-556 z" transform="translate(-347,-4869.0001)" id="s6" style="fill:#dedfe0" number="6" type="seat"></path><path d="m 9213,5790 c -144,0 -288,0 -432,0 -106,185 -94,370 0,556 168,0 265,0 432,0 121,-180 131,-364 0,-556 z" transform="translate(-347,-4869.0001)" id="s11" style="fill:#dedfe0" number="11" type="seat"></path><path d="m 10403,5790 c -144,0 -288,0 -432,0 -106,185 -94,370 0,556 168,0 265,0 432,0 121,-180 131,-364 0,-556 z" transform="translate(-347,-4869.0001)" id="s16" style="fill:#dedfe0" number="16" type="seat"></path><path d="m 11594,5790 c -144,0 -288,0 -432,0 -106,185 -94,370 0,556 168,0 265,0 432,0 121,-180 131,-364 0,-556 z" transform="translate(-347,-4869.0001)" id="s21" style="fill:#dedfe0" number="21" type="seat"></path><path d="m 12768,5790 c -144,0 -288,0 -432,0 -106,185 -94,370 0,556 168,0 265,0 432,0 121,-180 131,-364 0,-556 z" transform="translate(-347,-4869.0001)" id="s26" style="fill:#dedfe0" number="26" type="seat"></path><path d="m 13984,5790 c -144,0 -288,0 -432,0 -106,185 -94,370 0,556 168,0 265,0 432,0 121,-180 131,-364 0,-556 z" transform="translate(-347,-4869.0001)" id="s31" style="fill:#dedfe0" number="31" type="seat"></path><path d="m 15192,5790 c -144,0 -288,0 -432,0 -106,185 -94,370 0,556 168,0 265,0 432,0 121,-180 131,-364 0,-556 z" transform="translate(-347,-4869.0001)" id="s36" style="fill:#dedfe0" number="36" type="seat"></path><path d="m 16400,5790 c -144,0 -288,0 -432,0 -106,185 -94,370 0,556 168,0 265,0 432,0 121,-180 131,-364 0,-556 z" transform="translate(-347,-4869.0001)" id="s41" style="fill:#dedfe0" number="41" type="seat"></path><path d="m 17592,5790 c -144,0 -288,0 -432,0 -106,185 -94,370 0,556 168,0 265,0 432,0 121,-180 131,-364 0,-556 z" transform="translate(-347,-4869.0001)" id="s46" style="fill:#dedfe0" number="46" type="seat"></path><path d="m 18348,6334 c 144,0 288,0 432,0 106,-185 94,-370 0,-556 -168,0 -265,0 -432,0 -121,180 -131,364 0,556 z" transform="translate(-347,-4869.0001)" id="s50" style="fill:#dedfe0" number="50" type="seat"></path><path d="m 7990,5145 c -144,0 -288,0 -432,0 -106,185 -94,370 0,556 168,0 265,0 432,0 121,-180 131,-364 0,-556 z" transform="translate(-347,-4869.0001)" id="s7" style="fill:#dedfe0" number="7" type="seat"></path><path d="m 9213,5145 c -144,0 -288,0 -432,0 -106,185 -94,370 0,556 168,0 265,0 432,0 121,-180 131,-364 0,-556 z" transform="translate(-347,-4869.0001)" id="s12" style="fill:#dedfe0" number="12" type="seat" hover=""></path><path d="m 10403,5145 c -144,0 -288,0 -432,0 -106,185 -94,370 0,556 168,0 265,0 432,0 121,-180 131,-364 0,-556 z" transform="translate(-347,-4869.0001)" id="s17" style="fill:#dedfe0" number="17" type="seat"></path><path d="m 11594,5145 c -144,0 -288,0 -432,0 -106,185 -94,370 0,556 168,0 265,0 432,0 121,-180 131,-364 0,-556 z" transform="translate(-347,-4869.0001)" id="s22" style="fill:#dedfe0" number="22" type="seat"></path><path d="m 12768,5145 c -144,0 -288,0 -432,0 -106,185 -94,370 0,556 168,0 265,0 432,0 121,-180 131,-364 0,-556 z" transform="translate(-347,-4869.0001)" id="s27" style="fill:#dedfe0" number="27" type="seat"></path><path d="m 13984,5145 c -144,0 -288,0 -432,0 -106,185 -94,370 0,556 168,0 265,0 432,0 121,-180 131,-364 0,-556 z" transform="translate(-347,-4869.0001)" id="s32" style="fill:#dedfe0" number="32" type="seat"></path><path d="m 15192,5145 c -144,0 -288,0 -432,0 -106,185 -94,370 0,556 168,0 265,0 432,0 121,-180 131,-364 0,-556 z" transform="translate(-347,-4869.0001)" id="s37" style="fill:#dedfe0" number="37" type="seat"></path><path d="m 16400,5145 c -144,0 -288,0 -432,0 -106,185 -94,370 0,556 168,0 265,0 432,0 121,-180 131,-364 0,-556 z" transform="translate(-347,-4869.0001)" id="s42" style="fill:#dedfe0" number="42" type="seat"></path><path d="m 17592,5145 c -144,0 -288,0 -432,0 -106,185 -94,370 0,556 168,0 265,0 432,0 121,-180 131,-364 0,-556 z" transform="translate(-347,-4869.0001)" id="s47" style="fill:#dedfe0" number="47" type="seat"></path><path d="m 18348,6978 c 144,0 288,0 432,0 106,-185 94,-370 0,-556 -168,0 -265,0 -432,0 -121,180 -131,364 0,556 z" transform="translate(-347,-4869.0001)" id="s49" style="fill:#dedfe0" number="49" type="seat"></path><path d="m 7311,6372 0,30 0,7 c -168,60 -146,553 0,602 l 0,35 659,0 0,-57 -412,0 c -94,-185 -106,-370 0,-556 l 412,0 0,-32 0,-30 0,-27 -412,0 c -94,-185 -106,-370 0,-556 l 412,0 0,-32 0,-30 0,-27 -412,0 c -94,-185 -106,-370 0,-556 l 412,0 0,-62 -659,0 0,37 c -168,60 -146,553 0,602 l 0,5 0,30 0,7 c -168,60 -146,553 0,602 l 0,5 z" transform="translate(-347,-4869.0001)" id="path15065" style="fill:#9d9e9e"></path><path d="m 8534,6372 0,30 0,7 c -168,60 -146,553 0,602 l 0,35 659,0 0,-57 -412,0 c -94,-185 -106,-370 0,-556 l 412,0 0,-32 0,-30 0,-27 -412,0 c -94,-185 -106,-370 0,-556 l 412,0 0,-32 0,-30 0,-27 -412,0 c -94,-185 -106,-370 0,-556 l 412,0 0,-62 -659,0 0,37 c -168,60 -146,553 0,602 l 0,5 0,30 0,7 c -168,60 -146,553 0,602 l 0,5 z" transform="translate(-347,-4869.0001)" id="path15067" style="fill:#9d9e9e"></path><path d="m 9724,6372 0,30 0,7 c -168,60 -146,553 0,602 l 0,35 659,0 0,-57 -412,0 c -94,-185 -106,-370 0,-556 l 412,0 0,-32 0,-30 0,-27 -412,0 c -94,-185 -106,-370 0,-556 l 412,0 0,-32 0,-30 0,-27 -412,0 c -94,-185 -106,-370 0,-556 l 412,0 0,-62 -659,0 0,37 c -168,60 -146,553 0,602 l 0,5 0,30 0,7 c -168,60 -146,553 0,602 l 0,5 z" transform="translate(-347,-4869.0001)" id="path15069" style="fill:#9d9e9e"></path><path d="m 10915,6372 0,30 0,7 c -168,60 -146,553 0,602 l 0,35 659,0 0,-57 -412,0 c -94,-185 -106,-370 0,-556 l 412,0 0,-32 0,-30 0,-27 -412,0 c -94,-185 -106,-370 0,-556 l 412,0 0,-32 0,-30 0,-27 -412,0 c -94,-185 -106,-370 0,-556 l 412,0 0,-62 -659,0 0,37 c -168,60 -146,553 0,602 l 0,5 0,30 0,7 c -168,60 -146,553 0,602 l 0,5 z" transform="translate(-347,-4869.0001)" id="path15071" style="fill:#9d9e9e"></path><path d="m 12089,6372 0,30 0,7 c -168,60 -146,553 0,602 l 0,35 659,0 0,-57 -412,0 c -94,-185 -106,-370 0,-556 l 412,0 0,-32 0,-30 0,-27 -412,0 c -94,-185 -106,-370 0,-556 l 412,0 0,-32 0,-30 0,-27 -412,0 c -94,-185 -106,-370 0,-556 l 412,0 0,-62 -659,0 0,37 c -168,60 -146,553 0,602 l 0,5 0,30 0,7 c -168,60 -146,553 0,602 l 0,5 z" transform="translate(-347,-4869.0001)" id="path15073" style="fill:#9d9e9e"></path><path d="m 13305,6372 0,30 0,7 c -168,60 -146,553 0,602 l 0,35 659,0 0,-57 -412,0 c -94,-185 -106,-370 0,-556 l 412,0 0,-32 0,-30 0,-27 -412,0 c -94,-185 -106,-370 0,-556 l 412,0 0,-32 0,-30 0,-27 -412,0 c -94,-185 -106,-370 0,-556 l 412,0 0,-62 -659,0 0,37 c -168,60 -146,553 0,602 l 0,5 0,30 0,7 c -168,60 -146,553 0,602 l 0,5 z" transform="translate(-347,-4869.0001)" id="path15075" style="fill:#9d9e9e"></path><path d="m 14513,6372 0,30 0,7 c -168,60 -146,553 0,602 l 0,35 659,0 0,-57 -412,0 c -94,-185 -106,-370 0,-556 l 412,0 0,-32 0,-30 0,-27 -412,0 c -94,-185 -106,-370 0,-556 l 412,0 0,-32 0,-30 0,-27 -412,0 c -94,-185 -106,-370 0,-556 l 412,0 0,-62 -659,0 0,37 c -168,60 -146,553 0,602 l 0,5 0,30 0,7 c -168,60 -146,553 0,602 l 0,5 z" transform="translate(-347,-4869.0001)" id="path15077" style="fill:#9d9e9e"></path><path d="m 15721,6372 0,30 0,7 c -168,60 -146,553 0,602 l 0,35 659,0 0,-57 -412,0 c -94,-185 -106,-370 0,-556 l 412,0 0,-32 0,-30 0,-27 -412,0 c -94,-185 -106,-370 0,-556 l 412,0 0,-32 0,-30 0,-27 -412,0 c -94,-185 -106,-370 0,-556 l 412,0 0,-62 -659,0 0,37 c -168,60 -146,553 0,602 l 0,5 0,30 0,7 c -168,60 -146,553 0,602 l 0,5 z" transform="translate(-347,-4869.0001)" id="path15079" style="fill:#9d9e9e"></path><path d="m 16913,6372 0,30 0,7 c -168,60 -146,553 0,602 l 0,35 659,0 0,-57 -412,0 c -94,-185 -106,-370 0,-556 l 412,0 0,-32 0,-30 0,-27 -412,0 c -94,-185 -106,-370 0,-556 l 412,0 0,-32 0,-30 0,-27 -412,0 c -94,-185 -106,-370 0,-556 l 412,0 0,-62 -659,0 0,37 c -168,60 -146,553 0,602 l 0,5 0,30 0,7 c -168,60 -146,553 0,602 l 0,5 z" transform="translate(-347,-4869.0001)" id="path15081" style="fill:#9d9e9e"></path><path d="m 19028,5751 0,-30 0,-7 c 168,-60 146,-553 0,-602 l 0,-35 -659,0 0,57 412,0 c 94,185 106,370 0,556 l -412,0 0,32 0,30 0,27 412,0 c 94,185 106,370 0,556 l -412,0 0,32 0,30 0,27 412,0 c 94,185 106,370 0,556 l -412,0 0,62 659,0 0,-37 c 168,-60 146,-553 0,-602 l 0,-5 0,-30 0,-7 c 168,-60 146,-553 0,-602 l 0,-5 z" transform="translate(-347,-4869.0001)" id="path15083" style="fill:#9d9e9e"></path><path d="m 7311,6410 c -168,60 -146,553 0,602 50,-3 91,-49 55,-88 -132,-144 -117,-273 0,-412 48,-57 18,-91 -55,-101 z" transform="translate(-347,-4869.0001)" id="path15085" style="fill:#dedfe0"></path><path d="m 8534,6410 c -168,60 -146,553 0,602 50,-3 91,-49 55,-88 -132,-144 -117,-273 0,-412 48,-57 18,-91 -55,-101 z" transform="translate(-347,-4869.0001)" id="path15087" style="fill:#dedfe0"></path><path d="m 9724,6410 c -168,60 -146,553 0,602 50,-3 91,-49 55,-88 -132,-144 -117,-273 0,-412 48,-57 18,-91 -55,-101 z" transform="translate(-347,-4869.0001)" id="path15089" style="fill:#dedfe0"></path><path d="m 10915,6410 c -168,60 -146,553 0,602 50,-3 91,-49 55,-88 -132,-144 -117,-273 0,-412 48,-57 18,-91 -55,-101 z" transform="translate(-347,-4869.0001)" id="path15091" style="fill:#dedfe0"></path><path d="m 12089,6410 c -168,60 -146,553 0,602 50,-3 91,-49 55,-88 -132,-144 -117,-273 0,-412 48,-57 18,-91 -55,-101 z" transform="translate(-347,-4869.0001)" id="path15093" style="fill:#dedfe0"></path><path d="m 13305,6410 c -168,60 -146,553 0,602 50,-3 91,-49 55,-88 -132,-144 -117,-273 0,-412 48,-57 18,-91 -55,-101 z" transform="translate(-347,-4869.0001)" id="path15095" style="fill:#dedfe0"></path><path d="m 14513,6410 c -168,60 -146,553 0,602 50,-3 91,-49 55,-88 -132,-144 -117,-273 0,-412 48,-57 18,-91 -55,-101 z" transform="translate(-347,-4869.0001)" id="path15097" style="fill:#dedfe0"></path><path d="m 15721,6410 c -168,60 -146,553 0,602 50,-3 91,-49 55,-88 -132,-144 -117,-273 0,-412 48,-57 18,-91 -55,-101 z" transform="translate(-347,-4869.0001)" id="path15099" style="fill:#dedfe0"></path><path d="m 16913,6410 c -168,60 -146,553 0,602 50,-3 91,-49 55,-88 -132,-144 -117,-273 0,-412 48,-57 18,-91 -55,-101 z" transform="translate(-347,-4869.0001)" id="path15101" style="fill:#dedfe0"></path><path d="m 19028,5713 c 168,-60 146,-553 0,-602 -50,3 -91,49 -55,88 132,144 117,273 0,412 -48,57 -18,91 55,101 z" transform="translate(-347,-4869.0001)" id="path15103" style="fill:#dedfe0"></path><path d="m 7311,5765 c -168,60 -146,553 0,602 50,-3 91,-49 55,-88 -132,-144 -117,-273 0,-412 48,-57 18,-91 -55,-101 z" transform="translate(-347,-4869.0001)" id="path15105" style="fill:#dedfe0"></path><path d="m 8534,5765 c -168,60 -146,553 0,602 50,-3 91,-49 55,-88 -132,-144 -117,-273 0,-412 48,-57 18,-91 -55,-101 z" transform="translate(-347,-4869.0001)" id="path15107" style="fill:#dedfe0"></path><path d="m 9724,5765 c -168,60 -146,553 0,602 50,-3 91,-49 55,-88 -132,-144 -117,-273 0,-412 48,-57 18,-91 -55,-101 z" transform="translate(-347,-4869.0001)" id="path15109" style="fill:#dedfe0"></path><path d="m 10915,5765 c -168,60 -146,553 0,602 50,-3 91,-49 55,-88 -132,-144 -117,-273 0,-412 48,-57 18,-91 -55,-101 z" transform="translate(-347,-4869.0001)" id="path15111" style="fill:#dedfe0"></path><path d="m 12089,5765 c -168,60 -146,553 0,602 50,-3 91,-49 55,-88 -132,-144 -117,-273 0,-412 48,-57 18,-91 -55,-101 z" transform="translate(-347,-4869.0001)" id="path15113" style="fill:#dedfe0"></path><path d="m 13305,5765 c -168,60 -146,553 0,602 50,-3 91,-49 55,-88 -132,-144 -117,-273 0,-412 48,-57 18,-91 -55,-101 z" transform="translate(-347,-4869.0001)" id="path15115" style="fill:#dedfe0"></path><path d="m 14513,5765 c -168,60 -146,553 0,602 50,-3 91,-49 55,-88 -132,-144 -117,-273 0,-412 48,-57 18,-91 -55,-101 z" transform="translate(-347,-4869.0001)" id="path15117" style="fill:#dedfe0"></path><path d="m 15721,5765 c -168,60 -146,553 0,602 50,-3 91,-49 55,-88 -132,-144 -117,-273 0,-412 48,-57 18,-91 -55,-101 z" transform="translate(-347,-4869.0001)" id="path15119" style="fill:#dedfe0"></path><path d="m 16913,5765 c -168,60 -146,553 0,602 50,-3 91,-49 55,-88 -132,-144 -117,-273 0,-412 48,-57 18,-91 -55,-101 z" transform="translate(-347,-4869.0001)" id="path15121" style="fill:#dedfe0"></path><path d="m 19028,6358 c 168,-60 146,-553 0,-602 -50,3 -91,49 -55,88 132,144 117,273 0,412 -48,57 -18,91 55,101 z" transform="translate(-347,-4869.0001)" id="path15123" style="fill:#dedfe0"></path><path d="m 7311,5121 c -168,60 -146,553 0,602 50,-3 91,-49 55,-88 -132,-144 -117,-273 0,-412 48,-57 18,-91 -55,-101 z" transform="translate(-347,-4869.0001)" id="path15125" style="fill:#dedfe0"></path><path d="m 8534,5121 c -168,60 -146,553 0,602 50,-3 91,-49 55,-88 -132,-144 -117,-273 0,-412 48,-57 18,-91 -55,-101 z" transform="translate(-347,-4869.0001)" id="path15127" style="fill:#dedfe0"></path><path d="m 9724,5121 c -168,60 -146,553 0,602 50,-3 91,-49 55,-88 -132,-144 -117,-273 0,-412 48,-57 18,-91 -55,-101 z" transform="translate(-347,-4869.0001)" id="path15129" style="fill:#dedfe0"></path><path d="m 10915,5121 c -168,60 -146,553 0,602 50,-3 91,-49 55,-88 -132,-144 -117,-273 0,-412 48,-57 18,-91 -55,-101 z" transform="translate(-347,-4869.0001)" id="path15131" style="fill:#dedfe0"></path><path d="m 12089,5121 c -168,60 -146,553 0,602 50,-3 91,-49 55,-88 -132,-144 -117,-273 0,-412 48,-57 18,-91 -55,-101 z" transform="translate(-347,-4869.0001)" id="path15133" style="fill:#dedfe0"></path><path d="m 13305,5121 c -168,60 -146,553 0,602 50,-3 91,-49 55,-88 -132,-144 -117,-273 0,-412 48,-57 18,-91 -55,-101 z" transform="translate(-347,-4869.0001)" id="path15135" style="fill:#dedfe0"></path><path d="m 14513,5121 c -168,60 -146,553 0,602 50,-3 91,-49 55,-88 -132,-144 -117,-273 0,-412 48,-57 18,-91 -55,-101 z" transform="translate(-347,-4869.0001)" id="path15137" style="fill:#dedfe0"></path><path d="m 15721,5121 c -168,60 -146,553 0,602 50,-3 91,-49 55,-88 -132,-144 -117,-273 0,-412 48,-57 18,-91 -55,-101 z" transform="translate(-347,-4869.0001)" id="path15139" style="fill:#dedfe0"></path><path d="m 16913,5121 c -168,60 -146,553 0,602 50,-3 91,-49 55,-88 -132,-144 -117,-273 0,-412 48,-57 18,-91 -55,-101 z" transform="translate(-347,-4869.0001)" id="path15141" style="fill:#dedfe0"></path><path d="m 19028,7003 c 168,-60 146,-553 0,-602 -50,3 -91,49 -55,88 132,144 117,273 0,412 -48,57 -18,91 55,101 z" transform="translate(-347,-4869.0001)" id="path15143" style="fill:#dedfe0"></path><path d="m 17834,7047 0,-1974 335,0 0,1974 z" transform="translate(-347,-4869.0001)" id="polygon15145" style="fill:#9d9e9e"></path><path d="m 7881,6551 -177,0 -21,168 c 13,-2 25,-3 43,-3 64,0 90,20 90,53 0,34 -33,49 -64,49 -29,0 -58,-9 -72,-16 l -14,56 c 18,9 50,18 89,18 86,0 138,-53 138,-113 0,-38 -15,-64 -39,-81 -22,-16 -54,-23 -84,-23 -8,0 -14,0 -21,1 l 7,-49 124,0 0,-62 z" transform="translate(-347,-4869.0001)" id="n5" style="fill:#fefefe;fill-rule:nonzero" number="5" type="number"></path><path d="m 7873,5902 c -7,0 -16,-1 -30,1 -50,2 -92,18 -123,47 -35,33 -57,83 -57,143 0,77 42,140 128,140 69,0 118,-52 118,-116 0,-67 -45,-105 -99,-105 -30,0 -52,9 -68,25 l -1,0 c 8,-37 38,-71 105,-77 12,-1 21,-1 29,-1 l 0,-58 z m -84,276 c -35,0 -51,-31 -52,-65 0,-9 1,-15 3,-19 7,-16 24,-28 44,-28 32,0 48,26 48,55 0,33 -17,57 -43,57 z" transform="translate(-347,-4869.0001)" id="n6" style="fill:#fefefe;fill-rule:nonzero" number="6" type="number"></path><path d="m 7766,5583 133,-273 0,-48 -227,0 0,62 147,0 0,1 -132,258 z" transform="translate(-347,-4869.0001)" id="n7" style="fill:#fefefe;fill-rule:nonzero" number="7" type="number"></path><path d="m 8841,6875 73,0 0,-321 -62,0 -85,40 12,56 61,-29 1,0 0,254 z m 296,-326 c -83,0 -122,73 -122,166 0,91 37,165 120,165 81,0 122,-69 122,-167 0,-88 -34,-164 -120,-164 z m -1,57 c 30,0 45,38 45,109 0,73 -16,110 -45,110 -29,0 -46,-35 -46,-109 0,-75 19,-110 46,-110 z" transform="translate(-347,-4869.0001)" id="n10" style="fill:#fefefe;fill-rule:nonzero" number="10" type="number"></path><path d="m 8842,6228 73,0 0,-321 -62,0 -85,40 12,56 61,-29 1,0 0,254 z m 274,0 73,0 0,-321 -62,0 -85,40 12,56 61,-29 1,0 0,254 z" transform="translate(-347,-4869.0001)" id="n11" style="fill:#fefefe;fill-rule:nonzero" number="11" type="number"></path><path d="m 8834,5583 73,0 0,-321 -62,0 -85,40 12,56 61,-29 1,0 0,254 z m 406,0 0,-62 -122,0 0,-1 30,-25 c 47,-41 85,-84 85,-139 0,-58 -40,-100 -113,-100 -43,0 -81,15 -105,33 l 21,53 c 17,-12 41,-26 69,-26 37,0 52,21 52,47 -1,38 -35,74 -105,137 l -41,37 0,45 228,0 z" transform="translate(-347,-4869.0001)" id="n12" style="fill:#fefefe;fill-rule:nonzero" number="12" type="number" hover=""></path><path d="m 10030,6875 73,0 0,-321 -62,0 -85,40 12,56 61,-29 1,0 0,254 z m 393,-321 -177,0 -21,168 c 13,-2 25,-3 43,-3 64,0 90,20 90,53 0,34 -33,49 -64,49 -29,0 -58,-9 -72,-16 l -14,56 c 18,9 50,18 89,18 86,0 138,-53 138,-113 0,-38 -15,-64 -39,-81 -22,-16 -54,-23 -84,-23 -8,0 -14,0 -21,1 l 7,-49 124,0 0,-62 z" transform="translate(-347,-4869.0001)" id="n15" style="fill:#fefefe;fill-rule:nonzero" number="15" type="number"></path><path d="m 10026,6228 73,0 0,-321 -62,0 -85,40 12,56 61,-29 1,0 0,254 z m 383,-325 c -7,0 -16,-1 -30,1 -50,2 -92,18 -123,47 -35,33 -57,83 -57,143 0,77 42,140 128,140 69,0 118,-52 118,-116 0,-67 -45,-105 -99,-105 -30,0 -52,9 -68,25 l -1,0 c 8,-37 38,-71 105,-77 12,-1 21,-1 29,-1 l 0,-58 z m -84,276 c -35,0 -51,-31 -52,-65 0,-9 1,-15 3,-19 7,-16 24,-28 44,-28 32,0 48,26 48,55 0,33 -17,57 -43,57 z" transform="translate(-347,-4869.0001)" id="n16" style="fill:#fefefe;fill-rule:nonzero" number="16" type="number"></path><path d="m 10027,5583 73,0 0,-321 -62,0 -85,40 12,56 61,-29 1,0 0,254 z m 182,-321 0,62 147,0 0,1 -132,258 80,0 132,-274 0,-47 -227,0 z" transform="translate(-347,-4869.0001)" id="n17" style="fill:#fefefe;fill-rule:nonzero" number="17" type="number"></path><path d="m 11365,6875 0,-62 -122,0 0,-1 30,-25 c 47,-41 85,-84 85,-139 0,-58 -40,-100 -113,-100 -43,0 -81,15 -105,33 l 21,53 c 17,-12 41,-26 69,-26 37,0 52,21 52,47 -1,38 -35,74 -105,137 l -41,37 0,45 228,0 z m 163,-326 c -83,0 -122,73 -122,166 0,91 37,165 120,165 81,0 122,-69 122,-167 0,-88 -34,-164 -120,-164 z m -1,57 c 30,0 45,38 45,109 0,73 -16,110 -45,110 -29,0 -46,-35 -46,-109 0,-75 19,-110 46,-110 z" transform="translate(-347,-4869.0001)" id="n20" style="fill:#fefefe;fill-rule:nonzero" number="20" type="number"></path><path d="m 11366,6228 0,-62 -122,0 0,-1 30,-25 c 47,-41 85,-84 85,-139 0,-58 -40,-100 -113,-100 -43,0 -81,15 -105,33 l 21,53 c 17,-12 41,-26 69,-26 37,0 52,21 52,47 -1,38 -35,74 -105,137 l -41,37 0,45 228,0 z m 142,0 73,0 0,-321 -62,0 -85,40 12,56 61,-29 1,0 0,254 z" transform="translate(-347,-4869.0001)" id="n21" style="fill:#fefefe;fill-rule:nonzero" number="21" type="number"></path><path d="m 11358,5583 0,-62 -122,0 0,-1 30,-25 c 47,-41 85,-84 85,-139 0,-58 -40,-100 -113,-100 -43,0 -81,15 -105,33 l 21,53 c 17,-12 41,-26 69,-26 37,0 52,21 52,47 -1,38 -35,74 -105,137 l -41,37 0,45 228,0 z m 274,0 0,-62 -122,0 0,-1 30,-25 c 47,-41 85,-84 85,-139 0,-58 -40,-100 -113,-100 -43,0 -81,15 -105,33 l 21,53 c 17,-12 41,-26 69,-26 37,0 52,21 52,47 -1,38 -35,74 -105,137 l -41,37 0,45 228,0 z" transform="translate(-347,-4869.0001)" id="n22" style="fill:#fefefe;fill-rule:nonzero" number="22" type="number"></path><path d="m 12538,6875 0,-62 -122,0 0,-1 30,-25 c 47,-41 85,-84 85,-139 0,-58 -40,-100 -113,-100 -43,0 -81,15 -105,33 l 21,53 c 17,-12 41,-26 69,-26 37,0 52,21 52,47 -1,38 -35,74 -105,137 l -41,37 0,45 228,0 z m 260,-321 -177,0 -21,168 c 13,-2 25,-3 43,-3 64,0 90,20 90,53 0,34 -33,49 -64,49 -29,0 -58,-9 -72,-16 l -14,56 c 18,9 50,18 89,18 86,0 138,-53 138,-113 0,-38 -15,-64 -39,-81 -22,-16 -54,-23 -84,-23 -8,0 -14,0 -21,1 l 7,-49 124,0 0,-62 z" transform="translate(-347,-4869.0001)" id="n25" style="fill:#fefefe;fill-rule:nonzero" number="25" type="number"></path><path d="m 12534,6228 0,-62 -122,0 0,-1 30,-25 c 47,-41 85,-84 85,-139 0,-58 -40,-100 -113,-100 -43,0 -81,15 -105,33 l 21,53 c 17,-12 41,-26 69,-26 37,0 52,21 52,47 -1,38 -35,74 -105,137 l -41,37 0,45 228,0 z m 251,-325 c -7,0 -16,-1 -30,1 -50,2 -92,18 -123,47 -35,33 -57,83 -57,143 0,77 42,140 128,140 69,0 118,-52 118,-116 0,-67 -45,-105 -99,-105 -30,0 -52,9 -68,25 l -1,0 c 8,-37 38,-71 105,-77 12,-1 21,-1 29,-1 l 0,-58 z m -84,276 c -35,0 -51,-31 -52,-65 0,-9 1,-15 3,-19 7,-16 24,-28 44,-28 32,0 48,26 48,55 0,33 -17,57 -43,57 z" transform="translate(-347,-4869.0001)" id="n26" style="fill:#fefefe;fill-rule:nonzero" number="26" type="number"></path><path d="m 12534,5583 0,-62 -122,0 0,-1 30,-25 c 47,-41 85,-84 85,-139 0,-58 -40,-100 -113,-100 -43,0 -81,15 -105,33 l 21,53 c 17,-12 41,-26 69,-26 37,0 52,21 52,47 -1,38 -35,74 -105,137 l -41,37 0,45 228,0 z m 49,-321 0,62 147,0 0,1 -132,258 80,0 132,-274 0,-47 -227,0 z" transform="translate(-347,-4869.0001)" id="n27" style="fill:#fefefe;fill-rule:nonzero" number="27" type="number"></path><path d="m 13526,6858 c 19,11 54,22 95,22 81,0 131,-41 131,-98 0,-42 -31,-72 -70,-79 l 0,-1 c 40,-13 59,-41 59,-75 0,-44 -38,-80 -106,-80 -42,0 -80,12 -99,24 l 15,54 c 13,-8 41,-19 67,-19 32,0 47,14 47,34 0,27 -32,37 -57,37 l -30,0 0,54 31,0 c 33,0 65,14 65,46 0,24 -20,42 -59,42 -31,0 -61,-12 -75,-20 l -15,57 z m 394,-310 c -83,0 -122,73 -122,166 0,91 37,165 120,165 81,0 122,-69 122,-167 0,-88 -34,-164 -120,-164 z m -1,57 c 30,0 45,38 45,109 0,73 -16,110 -45,110 -29,0 -46,-35 -46,-109 0,-75 19,-110 46,-110 z" transform="translate(-347,-4869.0001)" id="n30" style="fill:#fefefe;fill-rule:nonzero" number="30" type="number"></path><path d="m 13527,6211 c 19,11 54,22 95,22 81,0 131,-41 131,-98 0,-42 -31,-72 -70,-79 l 0,-1 c 40,-13 59,-41 59,-75 0,-44 -38,-80 -106,-80 -42,0 -80,12 -99,24 l 15,54 c 13,-8 41,-19 67,-19 32,0 47,14 47,34 0,27 -32,37 -57,37 l -30,0 0,54 31,0 c 33,0 65,14 65,46 0,24 -20,42 -59,42 -31,0 -61,-12 -75,-20 l -15,57 z m 372,17 73,0 0,-321 -62,0 -85,40 12,56 61,-29 1,0 0,254 z" transform="translate(-347,-4869.0001)" id="n31" style="fill:#fefefe;fill-rule:nonzero" number="31" type="number"></path><path d="m 13519,5567 c 19,11 54,22 95,22 81,0 131,-41 131,-98 0,-42 -31,-72 -70,-79 l 0,-1 c 40,-13 59,-41 59,-75 0,-44 -38,-80 -106,-80 -42,0 -80,12 -99,24 l 15,54 c 13,-8 41,-19 67,-19 32,0 47,14 47,34 0,27 -32,37 -57,37 l -30,0 0,54 31,0 c 33,0 65,14 65,46 0,24 -20,42 -59,42 -31,0 -61,-12 -75,-20 l -15,57 z m 504,17 0,-62 -122,0 0,-1 30,-25 c 47,-41 85,-84 85,-139 0,-58 -40,-100 -113,-100 -43,0 -81,15 -105,33 l 21,53 c 17,-12 41,-26 69,-26 37,0 52,21 52,47 -1,38 -35,74 -105,137 l -41,37 0,45 228,0 z" transform="translate(-347,-4869.0001)" id="n32" style="fill:#fefefe;fill-rule:nonzero" number="32" type="number"></path><path d="m 14733,6858 c 19,11 54,22 95,22 81,0 131,-41 131,-98 0,-42 -31,-72 -70,-79 l 0,-1 c 40,-13 59,-41 59,-75 0,-44 -38,-80 -106,-80 -42,0 -80,12 -99,24 l 15,54 c 13,-8 41,-19 67,-19 32,0 47,14 47,34 0,27 -32,37 -57,37 l -30,0 0,54 31,0 c 33,0 65,14 65,46 0,24 -20,42 -59,42 -31,0 -61,-12 -75,-20 l -15,57 z m 490,-304 -177,0 -21,168 c 13,-2 25,-3 43,-3 64,0 90,20 90,53 0,34 -33,49 -64,49 -29,0 -58,-9 -72,-16 l -14,56 c 18,9 50,18 89,18 86,0 138,-53 138,-113 0,-38 -15,-64 -39,-81 -22,-16 -54,-23 -84,-23 -8,0 -14,0 -21,1 l 7,-49 124,0 0,-62 z" transform="translate(-347,-4869.0001)" id="n35" style="fill:#fefefe;fill-rule:nonzero" number="35" type="number"></path><path d="m 14729,6211 c 19,11 54,22 95,22 81,0 131,-41 131,-98 0,-42 -31,-72 -70,-79 l 0,-1 c 40,-13 59,-41 59,-75 0,-44 -38,-80 -106,-80 -42,0 -80,12 -99,24 l 15,54 c 13,-8 41,-19 67,-19 32,0 47,14 47,34 0,27 -32,37 -57,37 l -30,0 0,54 31,0 c 33,0 65,14 65,46 0,24 -20,42 -59,42 -31,0 -61,-12 -75,-20 l -15,57 z m 481,-309 c -7,0 -16,-1 -30,1 -50,2 -92,18 -123,47 -35,33 -57,83 -57,143 0,77 42,140 128,140 69,0 118,-52 118,-116 0,-67 -45,-105 -99,-105 -30,0 -52,9 -68,25 l -1,0 c 8,-37 38,-71 105,-77 12,-1 21,-1 29,-1 l 0,-58 z m -84,276 c -35,0 -51,-31 -52,-65 0,-9 1,-15 3,-19 7,-16 24,-28 44,-28 32,0 48,26 48,55 0,33 -17,57 -43,57 z" transform="translate(-347,-4869.0001)" id="n36" style="fill:#fefefe;fill-rule:nonzero" number="36" type="number"></path><path d="m 14730,5567 c 19,11 54,22 95,22 81,0 131,-41 131,-98 0,-42 -31,-72 -70,-79 l 0,-1 c 40,-13 59,-41 59,-75 0,-44 -38,-80 -106,-80 -42,0 -80,12 -99,24 l 15,54 c 13,-8 41,-19 67,-19 32,0 47,14 47,34 0,27 -32,37 -57,37 l -30,0 0,54 31,0 c 33,0 65,14 65,46 0,24 -20,42 -59,42 -31,0 -61,-12 -75,-20 l -15,57 z m 280,-304 0,62 147,0 0,1 -132,258 80,0 132,-274 0,-47 -227,0 z" transform="translate(-347,-4869.0001)" id="n37" style="fill:#fefefe;fill-rule:nonzero" number="37" type="number"></path><path d="m 16152,6875 0,-77 38,0 0,-56 -38,0 0,-188 -92,0 -121,196 0,49 142,0 0,77 71,0 z m -144,-133 0,-1 42,-70 c 11,-20 20,-39 30,-60 l 1,0 c -1,21 -2,41 -2,60 l 0,71 -73,0 z m 442,133 0,-62 -122,0 0,-1 30,-25 c 47,-41 85,-84 85,-139 0,-58 -40,-100 -113,-100 -43,0 -81,15 -105,33 l 21,53 c 17,-12 41,-26 69,-26 37,0 52,21 52,47 -1,38 -35,74 -105,137 l -41,37 0,45 228,0 z" transform="translate(-347,-6150.7254)" id="n42" style="fill:#fefefe;fill-rule:nonzero" number="42" type="number"></path><path d="m 17343,6875 0,-77 38,0 0,-56 -38,0 0,-188 -92,0 -121,196 0,49 142,0 0,77 71,0 z m -144,-133 0,-1 42,-70 c 11,-20 20,-39 30,-60 l 1,0 c -1,21 -2,41 -2,60 l 0,71 -73,0 z m 428,-188 -177,0 -21,168 c 13,-2 25,-3 43,-3 64,0 90,20 90,53 0,34 -33,49 -64,49 -29,0 -58,-9 -72,-16 l -14,56 c 18,9 50,18 89,18 86,0 138,-53 138,-113 0,-38 -15,-64 -39,-81 -22,-16 -54,-23 -84,-23 -8,0 -14,0 -21,1 l 7,-49 124,0 0,-62 z" transform="translate(-347,-4869.0001)" id="n45" style="fill:#fefefe;fill-rule:nonzero" number="45" type="number"></path><path d="m 17339,6228 0,-77 38,0 0,-56 -38,0 0,-188 -92,0 -121,196 0,49 142,0 0,77 71,0 z m -144,-133 0,-1 42,-70 c 11,-20 20,-39 30,-60 l 1,0 c -1,21 -2,41 -2,60 l 0,71 -73,0 z m 419,-193 c -7,0 -16,-1 -30,1 -50,2 -92,18 -123,47 -35,33 -57,83 -57,143 0,77 42,140 128,140 69,0 118,-52 118,-116 0,-67 -45,-105 -99,-105 -30,0 -52,9 -68,25 l -1,0 c 8,-37 38,-71 105,-77 12,-1 21,-1 29,-1 l 0,-58 z m -84,276 c -35,0 -51,-31 -52,-65 0,-9 1,-15 3,-19 7,-16 24,-28 44,-28 32,0 48,26 48,55 0,33 -17,57 -43,57 z" transform="translate(-347,-4869.0001)" id="n46" style="fill:#fefefe;fill-rule:nonzero" number="46" type="number"></path><path d="m 17339,5583 0,-77 38,0 0,-56 -38,0 0,-188 -92,0 -121,196 0,49 142,0 0,77 71,0 z m -144,-133 0,-1 42,-70 c 11,-20 20,-39 30,-60 l 1,0 c -1,21 -2,41 -2,60 l 0,71 -73,0 z m 217,-188 0,62 147,0 0,1 -132,258 80,0 132,-274 0,-47 -227,0 z" transform="translate(-347,-4869.0001)" id="n47" style="fill:#fefefe;fill-rule:nonzero" number="47" type="number"></path><path d="m 18518,5258 -177,0 -21,168 c 13,-2 25,-3 43,-3 64,0 90,20 90,53 0,34 -33,49 -64,49 -29,0 -58,-9 -72,-16 l -14,56 c 18,9 50,18 89,18 86,0 138,-53 138,-113 0,-38 -15,-64 -39,-81 -22,-16 -54,-23 -84,-23 -8,0 -14,0 -21,1 l 7,-49 124,0 0,-62 z m 156,321 73,0 0,-321 -62,0 -85,40 12,56 61,-29 1,0 0,254 z" transform="translate(-347,-4869.0001)" id="n51" style="fill:#fefefe;fill-rule:nonzero" number="51" type="number"></path><path d="m 18520,5905 -177,0 -21,168 c 13,-2 25,-3 43,-3 64,0 90,20 90,53 0,34 -33,49 -64,49 -29,0 -58,-9 -72,-16 l -14,56 c 18,9 50,18 89,18 86,0 138,-53 138,-113 0,-38 -15,-64 -39,-81 -22,-16 -54,-23 -84,-23 -8,0 -14,0 -21,1 l 7,-49 124,0 0,-62 z m 177,-5 c -83,0 -122,73 -122,166 0,91 37,165 120,165 81,0 122,-69 122,-167 0,-88 -34,-164 -120,-164 z m -1,57 c 30,0 45,38 45,109 0,73 -16,110 -45,110 -29,0 -46,-35 -46,-109 0,-75 19,-110 46,-110 z" transform="translate(-347,-4869.0001)" id="n50" style="fill:#fefefe;fill-rule:nonzero" number="50" type="number"></path><path d="m 18501,6866 0,-77 38,0 0,-56 -38,0 0,-188 -92,0 -121,196 0,49 142,0 0,77 71,0 z m -144,-133 0,-1 42,-70 c 11,-20 20,-39 30,-60 l 1,0 c -1,21 -2,41 -2,60 l 0,71 -73,0 z m 237,137 c 8,1 22,1 34,0 50,-2 92,-17 123,-44 35,-33 56,-81 56,-148 0,-75 -39,-138 -121,-138 -71,0 -121,53 -121,116 0,63 45,100 100,100 29,0 50,-8 65,-23 l 1,0 c -5,24 -19,45 -41,60 -17,12 -40,18 -63,20 -15,0 -23,1 -33,0 l 0,58 z m 89,-276 c 35,0 48,34 47,68 0,9 -1,14 -3,19 -7,11 -21,21 -42,21 -30,0 -45,-24 -45,-51 0,-34 18,-56 43,-56 z" transform="translate(-347,-4869.0001)" id="n49" style="fill:#fefefe;fill-rule:nonzero" number="49" type="number"></path><path d="m 6817,5158 c -144,0 -288,0 -432,0 -106,185 -94,370 0,556 168,0 265,0 432,0 121,-180 131,-364 0,-556 z" transform="translate(-347,-4869.0001)" id="s2" style="fill:#dedfe0" number="2" type="seat" hover=""></path><path d="m 6817,6349 c -144,0 -288,0 -432,0 -106,-185 -94,-370 0,-556 168,0 265,0 432,0 121,180 131,364 0,556 z" transform="translate(-347,-4869.0001)" id="s1" style="fill:#dedfe0" number="1" type="seat"></path><path d="m 6797,6431 -659,0 0,-57 c -168,-60 -146,-553 0,-602 l 0,-36 c -146,-49 -168,-542 0,-602 l 0,-57 659,0 0,82 -412,0 c -106,185 -94,370 0,556 l 412,0 c 0,27 0,54 0,80 l -412,0 c -94,185 -106,370 0,556 l 412,0 0,82 z" transform="translate(-347,-4869.0001)" id="path15211" style="fill:#9d9e9e"></path><path d="m 6138,6374 c -168,-60 -146,-553 0,-602 50,3 91,49 55,88 -132,144 -117,273 0,412 48,57 18,91 -55,101 z" transform="translate(-347,-4869.0001)" id="path15213" style="fill:#dedfe0"></path><path d="m 6550,6007 61,-29 1,0 0,254 73,0 0,-321 -62,0 -86,40 z" transform="translate(-347,-4869.0001)" id="n1" style="fill:#fefefe;fill-rule:nonzero" number="1" type="number"></path><path d="m 6725,5593 0,-62 -122,0 0,-1 30,-25 c 47,-41 85,-84 85,-139 0,-58 -40,-100 -113,-100 -43,0 -81,15 -105,33 l 21,53 c 17,-12 41,-26 69,-26 37,0 52,21 52,47 -1,38 -35,74 -105,137 l -41,37 0,45 228,0 z" transform="translate(-347,-4869.0001)" id="n2" style="fill:#fefefe;fill-rule:nonzero" number="2" type="number" hover=""></path><path d="m 24672,5073 -4798,0 0,2080 1169,449 1984,0 1645,-749 z" transform="translate(-347,-4869.0001)" id="polygon15219" style="fill:#f2f4f5"></path><path d="m 5577,7998 0,1192 -2082,0 0,-1192 z" transform="translate(-347,-4869.0001)" id="polygon15221" style="fill:#f2f4f5"></path><path d="m 26890,8084 0,1106 -2125,0 0,-1106 z" transform="translate(-347,-4869.0001)" id="polygon15223" style="fill:#f2f4f5"></path><path d="m 26746,8342 0,628 -311,0 0,-628 311,0 z m -390,0 0,628 -361,0 c -165,0 -300,-135 -300,-300 l 0,-28 c 0,-165 135,-300 300,-300 l 361,0 z m -154,154 -207,0 c -80,0 -146,66 -146,146 l 0,28 c 0,80 66,146 146,146 l 207,0 0,-320 z" transform="translate(-347,-4869.0001)" id="path15225" style="fill:#c2c7cc"></path><path d="m 3495,8343 0,628 311,0 0,-628 -311,0 z m 390,0 0,628 361,0 c 165,0 300,-135 300,-300 l 0,-28 c 0,-165 -135,-300 -300,-300 l -361,0 z m 154,154 207,0 c 80,0 146,66 146,146 l 0,28 c 0,80 -66,146 -146,146 l -207,0 0,-320 z" transform="translate(-347,-4869.0001)" id="path15227" style="fill:#c2c7cc"></path><path d="m 11557,7912 c 144,0 288,0 432,0 106,185 94,370 0,556 -168,0 -265,0 -432,0 -121,-180 -131,-364 0,-556 z" transform="translate(-347,-4869.0001)" id="s19" style="fill:#dedfe0" number="19" type="seat"></path><path d="m 15149,7912 c 144,0 288,0 432,0 106,185 94,370 0,556 -168,0 -265,0 -432,0 -121,-180 -131,-364 0,-556 z" transform="translate(-347,-4869.0001)" id="s34" style="fill:#dedfe0" number="34" type="seat"></path><path d="m 9154,7912 c 144,0 288,0 432,0 106,185 94,370 0,556 -168,0 -265,0 -432,0 -121,-180 -131,-364 0,-556 z" transform="translate(-347,-4869.0001)" id="s9" style="fill:#dedfe0" number="9" type="seat"></path><path d="m 8444,7912 c -144,0 -288,0 -432,0 -106,185 -94,370 0,556 168,0 265,0 432,0 121,-180 131,-364 0,-556 z" transform="translate(-347,-4869.0001)" id="s4" style="fill:#dedfe0" number="4" type="seat"></path><path d="m 12757,7912 c 144,0 288,0 432,0 106,185 94,370 0,556 -168,0 -265,0 -432,0 -121,-180 -131,-364 0,-556 z" transform="translate(-347,-4869.0001)" id="s24" style="fill:#dedfe0"></path><path d="m 16349,7912 c 144,0 288,0 432,0 106,185 94,370 0,556 -168,0 -265,0 -432,0 -121,-180 -131,-364 0,-556 z" transform="translate(-347,-4869.0001)" id="s39" style="fill:#dedfe0" number="39" type="seat"></path><path d="m 10353,7912 c 144,0 288,0 432,0 106,185 94,370 0,556 -168,0 -265,0 -432,0 -121,-180 -131,-364 0,-556 z" transform="translate(-347,-4869.0001)" id="s14" style="fill:#dedfe0" number="14" type="seat"></path><path d="m 13947,7912 c 144,0 288,0 432,0 106,185 94,370 0,556 -168,0 -265,0 -432,0 -121,-180 -131,-364 0,-556 z" transform="translate(-347,-4869.0001)" id="s29" style="fill:#dedfe0" number="29" type="seat"></path><path d="m 17538,7912 c 144,0 288,0 432,0 106,185 94,370 0,556 -168,0 -265,0 -432,0 -121,-180 -131,-364 0,-556 z" transform="translate(-347,-4869.0001)" id="s44" style="fill:#dedfe0" number="44" type="seat"></path><path d="m 11557,9103 c 144,0 288,0 432,0 106,-185 94,-370 0,-556 -168,0 -265,0 -432,0 -121,180 -131,364 0,556 z" transform="translate(-347,-4869.0001)" id="s18" style="fill:#dedfe0" number="18" type="seat"></path><path d="m 15149,9103 c 144,0 288,0 432,0 106,-185 94,-370 0,-556 -168,0 -265,0 -432,0 -121,180 -131,364 0,556 z" transform="translate(-347,-4869.0001)" id="s33" style="fill:#dedfe0" number="33" type="seat"></path><path d="m 9154,9103 c 144,0 288,0 432,0 106,-185 94,-370 0,-556 -168,0 -265,0 -432,0 -121,180 -131,364 0,556 z" transform="translate(-347,-4869.0001)" id="s8" style="fill:#dedfe0" number="8" type="seat"></path><path d="m 8444,9103 c -144,0 -288,0 -432,0 -106,-185 -94,-370 0,-556 168,0 265,0 432,0 121,180 131,364 0,556 z" transform="translate(-347,-4869.0001)" id="s3" style="fill:#dedfe0" number="3" type="seat"></path><path d="m 12757,9103 c 144,0 288,0 432,0 106,-185 94,-370 0,-556 -168,0 -265,0 -432,0 -121,180 -131,364 0,556 z" transform="translate(-347,-4869.0001)" id="s23" style="fill:#dedfe0"></path><path d="m 16349,9103 c 144,0 288,0 432,0 106,-185 94,-370 0,-556 -168,0 -265,0 -432,0 -121,180 -131,364 0,556 z" transform="translate(-347,-4869.0001)" id="s38" style="fill:#dedfe0" number="38" type="seat"></path><path d="m 10353,9103 c 144,0 288,0 432,0 106,-185 94,-370 0,-556 -168,0 -265,0 -432,0 -121,180 -131,364 0,556 z" transform="translate(-347,-4869.0001)" id="s13" style="fill:#dedfe0" number="13" type="seat"></path><path d="m 13947,9103 c 144,0 288,0 432,0 106,-185 94,-370 0,-556 -168,0 -265,0 -432,0 -121,180 -131,364 0,556 z" transform="translate(-347,-4869.0001)" id="s28" style="fill:#dedfe0" number="28" type="seat"></path><path d="m 17538,9103 c 144,0 288,0 432,0 106,-185 94,-370 0,-556 -168,0 -265,0 -432,0 -121,180 -131,364 0,556 z" transform="translate(-347,-4869.0001)" id="s43" style="fill:#dedfe0" number="43" type="seat"></path><path d="m 11577,9185 659,0 0,-57 c 168,-60 146,-553 0,-602 l 0,-36 c 146,-49 168,-542 0,-602 l 0,-57 -659,0 0,82 412,0 c 106,185 94,370 0,556 l -412,0 c 0,27 0,54 0,80 l 412,0 c 94,185 106,370 0,556 l -412,0 0,82 z" transform="translate(-347,-4869.0001)" id="path15265" style="fill:#9d9e9e"></path><path d="m 15169,9185 659,0 0,-57 c 168,-60 146,-553 0,-602 l 0,-36 c 146,-49 168,-542 0,-602 l 0,-57 -659,0 0,82 412,0 c 106,185 94,370 0,556 l -412,0 c 0,27 0,54 0,80 l 412,0 c 94,185 106,370 0,556 l -412,0 0,82 z" transform="translate(-347,-4869.0001)" id="path15267" style="fill:#9d9e9e"></path><path d="m 9173,9185 659,0 0,-57 c 168,-60 146,-553 0,-602 l 0,-36 c 146,-49 168,-542 0,-602 l 0,-57 -659,0 0,82 412,0 c 106,185 94,370 0,556 l -412,0 c 0,27 0,54 0,80 l 412,0 c 94,185 106,370 0,556 l -412,0 0,82 z" transform="translate(-347,-4869.0001)" id="path15269" style="fill:#9d9e9e"></path><path d="m 8424,9185 -659,0 0,-57 c -168,-60 -146,-553 0,-602 l 0,-36 c -146,-49 -168,-542 0,-602 l 0,-57 659,0 0,82 -412,0 c -106,185 -94,370 0,556 l 412,0 c 0,27 0,54 0,80 l -412,0 c -94,185 -106,370 0,556 l 412,0 0,82 z" transform="translate(-347,-4869.0001)" id="path15271" style="fill:#9d9e9e"></path><path d="m 12777,9185 659,0 0,-57 c 168,-60 146,-553 0,-602 l 0,-36 c 146,-49 168,-542 0,-602 l 0,-57 -659,0 0,82 412,0 c 106,185 94,370 0,556 l -412,0 c 0,27 0,54 0,80 l 412,0 c 94,185 106,370 0,556 l -412,0 0,82 z" transform="translate(-347,-4869.0001)" id="path15273" style="fill:#9d9e9e"></path><path d="m 16369,9185 659,0 0,-57 c 168,-60 146,-553 0,-602 l 0,-36 c 146,-49 168,-542 0,-602 l 0,-57 -659,0 0,82 412,0 c 106,185 94,370 0,556 l -412,0 c 0,27 0,54 0,80 l 412,0 c 94,185 106,370 0,556 l -412,0 0,82 z" transform="translate(-347,-4869.0001)" id="path15275" style="fill:#9d9e9e"></path><path d="m 10373,9185 659,0 0,-57 c 168,-60 146,-553 0,-602 l 0,-36 c 146,-49 168,-542 0,-602 l 0,-57 -659,0 0,82 412,0 c 106,185 94,370 0,556 l -412,0 c 0,27 0,54 0,80 l 412,0 c 94,185 106,370 0,556 l -412,0 0,82 z" transform="translate(-347,-4869.0001)" id="path15277" style="fill:#9d9e9e"></path><path d="m 13967,9185 659,0 0,-57 c 168,-60 146,-553 0,-602 l 0,-36 c 146,-49 168,-542 0,-602 l 0,-57 -659,0 0,82 412,0 c 106,185 94,370 0,556 l -412,0 c 0,27 0,54 0,80 l 412,0 c 94,185 106,370 0,556 l -412,0 0,82 z" transform="translate(-347,-4869.0001)" id="path15279" style="fill:#9d9e9e"></path><path d="m 17558,9185 659,0 0,-57 c 168,-60 146,-553 0,-602 l 0,-36 c 146,-49 168,-542 0,-602 l 0,-57 -659,0 0,82 412,0 c 106,185 94,370 0,556 l -412,0 c 0,27 0,54 0,80 l 412,0 c 94,185 106,370 0,556 l -412,0 0,82 z" transform="translate(-347,-4869.0001)" id="path15281" style="fill:#9d9e9e"></path><path d="m 12236,9128 c 168,-60 146,-553 0,-602 -50,3 -91,49 -55,88 132,144 117,273 0,412 -48,57 -18,91 55,101 z" transform="translate(-347,-4869.0001)" id="path15283" style="fill:#dedfe0"></path><path d="m 15828,9128 c 168,-60 146,-553 0,-602 -50,3 -91,49 -55,88 132,144 117,273 0,412 -48,57 -18,91 55,101 z" transform="translate(-347,-4869.0001)" id="path15285" style="fill:#dedfe0"></path><path d="m 13436,9128 c 168,-60 146,-553 0,-602 -50,3 -91,49 -55,88 132,144 117,273 0,412 -48,57 -18,91 55,101 z" transform="translate(-347,-4869.0001)" id="path15287" style="fill:#dedfe0"></path><path d="m 17028,9128 c 168,-60 146,-553 0,-602 -50,3 -91,49 -55,88 132,144 117,273 0,412 -48,57 -18,91 55,101 z" transform="translate(-347,-4869.0001)" id="path15289" style="fill:#dedfe0"></path><path d="m 11032,9128 c 168,-60 146,-553 0,-602 -50,3 -91,49 -55,88 132,144 117,273 0,412 -48,57 -18,91 55,101 z" transform="translate(-347,-4869.0001)" id="path15291" style="fill:#dedfe0"></path><path d="m 14626,9128 c 168,-60 146,-553 0,-602 -50,3 -91,49 -55,88 132,144 117,273 0,412 -48,57 -18,91 55,101 z" transform="translate(-347,-4869.0001)" id="path15293" style="fill:#dedfe0"></path><path d="m 18218,9128 c 168,-60 146,-553 0,-602 -50,3 -91,49 -55,88 132,144 117,273 0,412 -48,57 -18,91 55,101 z" transform="translate(-347,-4869.0001)" id="path15295" style="fill:#dedfe0"></path><path d="m 8124,8969 c 19,11 54,22 95,22 81,0 131,-41 131,-98 0,-42 -31,-72 -70,-79 l 0,-1 c 40,-13 59,-41 59,-75 0,-44 -38,-80 -106,-80 -42,0 -80,12 -99,24 l 15,54 c 13,-8 41,-19 67,-19 32,0 47,14 47,34 0,27 -32,37 -57,37 l -30,0 0,54 31,0 c 33,0 65,14 65,46 0,24 -20,42 -59,42 -31,0 -61,-12 -75,-20 l -15,57 z" transform="translate(-347,-4869.0001)" id="n3" style="fill:#fefefe;fill-rule:nonzero" number="3" type="number"></path><path d="m 8325,8353 0,-77 38,0 0,-56 -38,0 0,-188 -92,0 -121,196 0,49 142,0 0,77 71,0 z m -144,-133 0,-1 42,-70 c 11,-20 20,-39 30,-60 l 1,0 c -1,21 -2,41 -2,60 l 0,71 -73,0 z" transform="translate(-347,-4869.0001)" id="n4" style="fill:#fefefe;fill-rule:nonzero" number="4" type="number"></path><path d="m 8938,7817 0,1383 -335,0 0,-1383 z" transform="translate(-347,-4869.0001)" id="polygon15301" style="fill:#9d9e9e;fill-opacity:1"></path><path d="m 9296,8822 c -35,15 -57,42 -57,81 0,43 38,89 119,89 75,0 123,-40 123,-98 0,-41 -28,-68 -59,-80 l 0,-1 c 32,-16 47,-43 47,-71 0,-39 -31,-82 -106,-82 -64,0 -113,36 -113,90 0,28 15,54 46,71 l 0,1 z m 65,118 c -28,0 -46,-22 -45,-45 0,-23 14,-41 39,-48 29,8 50,25 50,53 0,23 -18,40 -44,40 z m -1,-229 c 28,0 39,20 39,40 0,20 -15,36 -33,41 -26,-8 -45,-22 -45,-43 0,-20 13,-37 39,-37 z" transform="translate(-347,-4869.0001)" id="n8" style="fill:#fefefe;fill-rule:nonzero" number="8" type="number"></path><path d="m 9268,8355 c 8,1 22,1 34,0 50,-2 92,-17 123,-44 35,-33 56,-81 56,-148 0,-75 -39,-138 -121,-138 -71,0 -121,53 -121,116 0,63 45,100 100,100 29,0 50,-8 65,-23 l 1,0 c -5,24 -19,45 -41,60 -17,12 -40,18 -63,20 -15,0 -23,1 -33,0 l 0,58 z m 89,-276 c 35,0 48,34 47,68 0,9 -1,14 -3,19 -7,11 -21,21 -42,21 -30,0 -45,-24 -45,-51 0,-34 18,-56 43,-56 z" transform="translate(-347,-4869.0001)" id="n9" style="fill:#fefefe;fill-rule:nonzero" number="9" type="number"></path><path d="m 10395,8983 73,0 0,-321 -62,0 -85,40 12,56 61,-29 1,0 0,254 z m 176,-17 c 19,11 54,22 95,22 81,0 131,-41 131,-98 0,-42 -31,-72 -70,-79 l 0,-1 c 40,-13 59,-41 59,-75 0,-44 -38,-80 -106,-80 -42,0 -80,12 -99,24 l 15,54 c 13,-8 41,-19 67,-19 32,0 47,14 47,34 0,27 -32,37 -57,37 l -30,0 0,54 31,0 c 33,0 65,14 65,46 0,24 -20,42 -59,42 -31,0 -61,-12 -75,-20 l -15,57 z" transform="translate(-347,-4869.0001)" id="n13" style="fill:#fefefe;fill-rule:nonzero" number="13" type="number"></path><path d="m 10387,8350 73,0 0,-321 -62,0 -85,40 12,56 61,-29 1,0 0,254 z m 382,0 0,-77 38,0 0,-56 -38,0 0,-188 -92,0 -121,196 0,49 142,0 0,77 71,0 z m -144,-133 0,-1 42,-70 c 11,-20 20,-39 30,-60 l 1,0 c -1,21 -2,41 -2,60 l 0,71 -73,0 z" transform="translate(-347,-4869.0001)" id="n14" style="fill:#fefefe;fill-rule:nonzero" number="14" type="number"></path><path d="m 11593,8986 73,0 0,-321 -62,0 -85,40 12,56 61,-29 1,0 0,254 z m 231,-164 c -35,15 -57,42 -57,81 0,43 38,89 119,89 75,0 123,-40 123,-98 0,-41 -28,-68 -59,-80 l 0,-1 c 32,-16 47,-43 47,-71 0,-39 -31,-82 -106,-82 -64,0 -113,36 -113,90 0,28 15,54 46,71 l 0,1 z m 65,118 c -28,0 -46,-22 -45,-45 0,-23 14,-41 39,-48 29,8 50,25 50,53 0,23 -18,40 -44,40 z m -1,-229 c 28,0 39,20 39,40 0,20 -15,36 -33,41 -26,-8 -45,-22 -45,-43 0,-20 13,-37 39,-37 z" transform="translate(-347,-4869.0001)" id="n18" style="fill:#fefefe;fill-rule:nonzero" number="18" type="number"></path><path d="m 11593,8350 73,0 0,-321 -62,0 -85,40 12,56 61,-29 1,0 0,254 z m 202,4 c 8,1 22,1 34,0 50,-2 92,-17 123,-44 35,-33 56,-81 56,-148 0,-75 -39,-138 -121,-138 -71,0 -121,53 -121,116 0,63 45,100 100,100 29,0 50,-8 65,-23 l 1,0 c -5,24 -19,45 -41,60 -17,12 -40,18 -63,20 -15,0 -23,1 -33,0 l 0,58 z m 89,-276 c 35,0 48,34 47,68 0,9 -1,14 -3,19 -7,11 -21,21 -42,21 -30,0 -45,-24 -45,-51 0,-34 18,-56 43,-56 z" transform="translate(-347,-4869.0001)" id="n19" style="fill:#fefefe;fill-rule:nonzero" number="19" type="number"></path><path d="m 12942,8983 0,-62 -122,0 0,-1 30,-25 c 47,-41 85,-84 85,-139 0,-58 -40,-100 -113,-100 -43,0 -81,15 -105,33 l 21,53 c 17,-12 41,-26 69,-26 37,0 52,21 52,47 -1,38 -35,74 -105,137 l -41,37 0,45 228,0 z m 44,-17 c 19,11 54,22 95,22 81,0 131,-41 131,-98 0,-42 -31,-72 -70,-79 l 0,-1 c 40,-13 59,-41 59,-75 0,-44 -38,-80 -106,-80 -42,0 -80,12 -99,24 l 15,54 c 13,-8 41,-19 67,-19 32,0 47,14 47,34 0,27 -32,37 -57,37 l -30,0 0,54 31,0 c 33,0 65,14 65,46 0,24 -20,42 -59,42 -31,0 -61,-12 -75,-20 l -15,57 z" transform="translate(-347,-4869.0001)" id="n23" style="fill:#fefefe;fill-rule:nonzero"></path><path d="m 12933,8350 0,-62 -122,0 0,-1 30,-25 c 47,-41 85,-84 85,-139 0,-58 -40,-100 -113,-100 -43,0 -81,15 -105,33 l 21,53 c 17,-12 41,-26 69,-26 37,0 52,21 52,47 -1,38 -35,74 -105,137 l -41,37 0,45 228,0 z m 250,0 0,-77 38,0 0,-56 -38,0 0,-188 -92,0 -121,196 0,49 142,0 0,77 71,0 z m -144,-133 0,-1 42,-70 c 11,-20 20,-39 30,-60 l 1,0 c -1,21 -2,41 -2,60 l 0,71 -73,0 z" transform="translate(-347,-4869.0001)" id="n24" style="fill:#fefefe;fill-rule:nonzero"></path><path d="m 14125,8986 0,-62 -122,0 0,-1 30,-25 c 47,-41 85,-84 85,-139 0,-58 -40,-100 -113,-100 -43,0 -81,15 -105,33 l 21,53 c 17,-12 41,-26 69,-26 37,0 52,21 52,47 -1,38 -35,74 -105,137 l -41,37 0,45 228,0 z m 98,-164 c -35,15 -57,42 -57,81 0,43 38,89 119,89 75,0 123,-40 123,-98 0,-41 -28,-68 -59,-80 l 0,-1 c 32,-16 47,-43 47,-71 0,-39 -31,-82 -106,-82 -64,0 -113,36 -113,90 0,28 15,54 46,71 l 0,1 z m 65,118 c -28,0 -46,-22 -45,-45 0,-23 14,-41 39,-48 29,8 50,25 50,53 0,23 -18,40 -44,40 z m -1,-229 c 28,0 39,20 39,40 0,20 -15,36 -33,41 -26,-8 -45,-22 -45,-43 0,-20 13,-37 39,-37 z" transform="translate(-347,-4869.0001)" id="n28" style="fill:#fefefe;fill-rule:nonzero" number="28" type="number"></path><path d="m 14126,8353 0,-62 -122,0 0,-1 30,-25 c 47,-41 85,-84 85,-139 0,-58 -40,-100 -113,-100 -43,0 -81,15 -105,33 l 21,53 c 17,-12 41,-26 69,-26 37,0 52,21 52,47 -1,38 -35,74 -105,137 l -41,37 0,45 228,0 z m 69,4 c 8,1 22,1 34,0 50,-2 92,-17 123,-44 35,-33 56,-81 56,-148 0,-75 -39,-138 -121,-138 -71,0 -121,53 -121,116 0,63 45,100 100,100 29,0 50,-8 65,-23 l 1,0 c -5,24 -19,45 -41,60 -17,12 -40,18 -63,20 -15,0 -23,1 -33,0 l 0,58 z m 89,-276 c 35,0 48,34 47,68 0,9 -1,14 -3,19 -7,11 -21,21 -42,21 -30,0 -45,-24 -45,-51 0,-34 18,-56 43,-56 z" transform="translate(-347,-4869.0001)" id="n29" style="fill:#fefefe;fill-rule:nonzero" number="29" type="number"></path><path d="m 15105,8969 c 19,11 54,22 95,22 81,0 131,-41 131,-98 0,-42 -31,-72 -70,-79 l 0,-1 c 40,-13 59,-41 59,-75 0,-44 -38,-80 -106,-80 -42,0 -80,12 -99,24 l 15,54 c 13,-8 41,-19 67,-19 32,0 47,14 47,34 0,27 -32,37 -57,37 l -30,0 0,54 31,0 c 33,0 65,14 65,46 0,24 -20,42 -59,42 -31,0 -61,-12 -75,-20 l -15,57 z m 274,0 c 19,11 54,22 95,22 81,0 131,-41 131,-98 0,-42 -31,-72 -70,-79 l 0,-1 c 40,-13 59,-41 59,-75 0,-44 -38,-80 -106,-80 -42,0 -80,12 -99,24 l 15,54 c 13,-8 41,-19 67,-19 32,0 47,14 47,34 0,27 -32,37 -57,37 l -30,0 0,54 31,0 c 33,0 65,14 65,46 0,24 -20,42 -59,42 -31,0 -61,-12 -75,-20 l -15,57 z" transform="translate(-347,-4869.0001)" id="n33" style="fill:#fefefe;fill-rule:nonzero" number="33" type="number"></path><path d="m 15096,8333 c 19,11 54,22 95,22 81,0 131,-41 131,-98 0,-42 -31,-72 -70,-79 l 0,-1 c 40,-13 59,-41 59,-75 0,-44 -38,-80 -106,-80 -42,0 -80,12 -99,24 l 15,54 c 13,-8 41,-19 67,-19 32,0 47,14 47,34 0,27 -32,37 -57,37 l -30,0 0,54 31,0 c 33,0 65,14 65,46 0,24 -20,42 -59,42 -31,0 -61,-12 -75,-20 l -15,57 z m 480,17 0,-77 38,0 0,-56 -38,0 0,-188 -92,0 -121,196 0,49 142,0 0,77 71,0 z m -144,-133 0,-1 42,-70 c 11,-20 20,-39 30,-60 l 1,0 c -1,21 -2,41 -2,60 l 0,71 -73,0 z" transform="translate(-347,-4869.0001)" id="n34" style="fill:#fefefe;fill-rule:nonzero" number="34" type="number"></path><path d="m 16298,8969 c 19,11 54,22 95,22 81,0 131,-41 131,-98 0,-42 -31,-72 -70,-79 l 0,-1 c 40,-13 59,-41 59,-75 0,-44 -38,-80 -106,-80 -42,0 -80,12 -99,24 l 15,54 c 13,-8 41,-19 67,-19 32,0 47,14 47,34 0,27 -32,37 -57,37 l -30,0 0,54 31,0 c 33,0 65,14 65,46 0,24 -20,42 -59,42 -31,0 -61,-12 -75,-20 l -15,57 z m 328,-148 c -35,15 -57,42 -57,81 0,43 38,89 119,89 75,0 123,-40 123,-98 0,-41 -28,-68 -59,-80 l 0,-1 c 32,-16 47,-43 47,-71 0,-39 -31,-82 -106,-82 -64,0 -113,36 -113,90 0,28 15,54 46,71 l 0,1 z m 65,118 c -28,0 -46,-22 -45,-45 0,-23 14,-41 39,-48 29,8 50,25 50,53 0,23 -18,40 -44,40 z m -1,-229 c 28,0 39,20 39,40 0,20 -15,36 -33,41 -26,-8 -45,-22 -45,-43 0,-20 13,-37 39,-37 z" transform="translate(-347,-4869.0001)" id="n38" style="fill:#fefefe;fill-rule:nonzero" number="38" type="number"></path><path d="m 16299,8333 c 19,11 54,22 95,22 81,0 131,-41 131,-98 0,-42 -31,-72 -70,-79 l 0,-1 c 40,-13 59,-41 59,-75 0,-44 -38,-80 -106,-80 -42,0 -80,12 -99,24 l 15,54 c 13,-8 41,-19 67,-19 32,0 47,14 47,34 0,27 -32,37 -57,37 l -30,0 0,54 31,0 c 33,0 65,14 65,46 0,24 -20,42 -59,42 -31,0 -61,-12 -75,-20 l -15,57 z m 299,21 c 8,1 22,1 34,0 50,-2 92,-17 123,-44 35,-33 56,-81 56,-148 0,-75 -39,-138 -121,-138 -71,0 -121,53 -121,116 0,63 45,100 100,100 29,0 50,-8 65,-23 l 1,0 c -5,24 -19,45 -41,60 -17,12 -40,18 -63,20 -15,0 -23,1 -33,0 l 0,58 z m 89,-276 c 35,0 48,34 47,68 0,9 -1,14 -3,19 -7,11 -21,21 -42,21 -30,0 -45,-24 -45,-51 0,-34 18,-56 43,-56 z" transform="translate(-347,-4869.0001)" id="n39" style="fill:#fefefe;fill-rule:nonzero" number="39" type="number"></path><path d="m 17699,8986 0,-77 38,0 0,-56 -38,0 0,-188 -92,0 -121,196 0,49 142,0 0,77 71,0 z m -144,-133 0,-1 42,-70 c 11,-20 20,-39 30,-60 l 1,0 c -1,21 -2,41 -2,60 l 0,71 -73,0 z m 212,116 c 19,11 54,22 95,22 81,0 131,-41 131,-98 0,-42 -31,-72 -70,-79 l 0,-1 c 40,-13 59,-41 59,-75 0,-44 -38,-80 -106,-80 -42,0 -80,12 -99,24 l 15,54 c 13,-8 41,-19 67,-19 32,0 47,14 47,34 0,27 -32,37 -57,37 l -30,0 0,54 31,0 c 33,0 65,14 65,46 0,24 -20,42 -59,42 -31,0 -61,-12 -75,-20 l -15,57 z" transform="translate(-347,-4869.0001)" id="n43" style="fill:#fefefe;fill-rule:nonzero" number="43" type="number"></path><path d="m 17693,8350 0,-77 38,0 0,-56 -38,0 0,-188 -92,0 -121,196 0,49 142,0 0,77 71,0 z m -144,-133 0,-1 42,-70 c 11,-20 20,-39 30,-60 l 1,0 c -1,21 -2,41 -2,60 l 0,71 -73,0 z m 418,133 0,-77 38,0 0,-56 -38,0 0,-188 -92,0 -121,196 0,49 142,0 0,77 71,0 z m -144,-133 0,-1 42,-70 c 11,-20 20,-39 30,-60 l 1,0 c -1,21 -2,41 -2,60 l 0,71 -73,0 z" transform="translate(-347,-4869.0001)" id="n44" style="fill:#fefefe;fill-rule:nonzero" number="44" type="number"></path><path d="m 18792,8568 c 144,0 288,0 432,0 106,185 94,370 0,556 -168,0 -265,0 -432,0 -121,-180 -131,-364 0,-556 z" transform="translate(-347,-4869.0001)" id="s48" style="fill:#dedfe0"></path><path d="m 18811,8486 659,0 0,57 c 168,60 146,553 0,602 l 0,35 -659,0 0,-57 412,0 c 94,-185 106,-370 0,-556 l -412,0 0,-82 z" transform="translate(-347,-4869.0001)" id="path15337" style="fill:#9d9e9e"></path><path d="m 19471,8544 c 168,60 146,553 0,602 -50,-3 -91,-49 -55,-88 132,-144 117,-273 0,-412 -48,-57 -18,-91 55,-101 z" transform="translate(-347,-4869.0001)" id="path15339" style="fill:#dedfe0"></path><path d="m 18951,8986 0,-77 38,0 0,-56 -38,0 0,-188 -92,0 -121,196 0,49 142,0 0,77 71,0 z m -144,-133 0,-1 42,-70 c 11,-20 20,-39 30,-60 l 1,0 c -1,21 -2,41 -2,60 l 0,71 -73,0 z m 266,-32 c -35,15 -57,42 -57,81 0,43 38,89 119,89 75,0 123,-40 123,-98 0,-41 -28,-68 -59,-80 l 0,-1 c 32,-16 47,-43 47,-71 0,-39 -31,-82 -106,-82 -64,0 -113,36 -113,90 0,28 15,54 46,71 l 0,1 z m 65,118 c -28,0 -46,-22 -45,-45 0,-23 14,-41 39,-48 29,8 50,25 50,53 0,23 -18,40 -44,40 z m -1,-229 c 28,0 39,20 39,40 0,20 -15,36 -33,41 -26,-8 -45,-22 -45,-43 0,-20 13,-37 39,-37 z" transform="translate(-347,-4869.0001)" id="n48" style="fill:#fefefe;fill-rule:nonzero"></path><path d="m 7765,7888 c -168,60 -146,553 0,602 50,-3 91,-49 55,-88 -132,-144 -117,-273 0,-412 48,-57 18,-91 -55,-101 z" transform="translate(-347,-4869.0001)" id="path15343" style="fill:#dedfe0"></path><path d="m 7765,9128 c -168,-60 -146,-553 0,-602 50,3 91,49 55,88 -132,144 -117,273 0,412 48,57 18,91 -55,101 z" transform="translate(-347,-4869.0001)" id="path15345" style="fill:#dedfe0"></path><path d="m 9833,7888 c 168,60 146,553 0,602 -50,-3 -91,-49 -55,-88 132,-144 117,-273 0,-412 -48,-57 -18,-91 55,-101 z" transform="translate(-347,-4869.0001)" id="path15347" style="fill:#dedfe0"></path><path d="m 9833,9128 c 168,-60 146,-553 0,-602 -50,3 -91,49 -55,88 132,144 117,273 0,412 -48,57 -18,91 55,101 z" transform="translate(-347,-4869.0001)" id="path15349" style="fill:#dedfe0"></path><path d="m 13436,7888 c 168,60 146,553 0,602 -50,-3 -91,-49 -55,-88 132,-144 117,-273 0,-412 -48,-57 -18,-91 55,-101 z" transform="translate(-347,-4869.0001)" id="path15351" style="fill:#dedfe0"></path><path d="m 14626,7888 c 168,60 146,553 0,602 -50,-3 -91,-49 -55,-88 132,-144 117,-273 0,-412 -48,-57 -18,-91 55,-101 z" transform="translate(-347,-4869.0001)" id="path15353" style="fill:#dedfe0"></path><path d="m 15828,7888 c 168,60 146,553 0,602 -50,-3 -91,-49 -55,-88 132,-144 117,-273 0,-412 -48,-57 -18,-91 55,-101 z" transform="translate(-347,-4869.0001)" id="path15355" style="fill:#dedfe0"></path><path d="m 17028,7888 c 168,60 146,553 0,602 -50,-3 -91,-49 -55,-88 132,-144 117,-273 0,-412 -48,-57 -18,-91 55,-101 z" transform="translate(-347,-4869.0001)" id="path15357" style="fill:#dedfe0"></path><path d="m 18218,7888 c 168,60 146,553 0,602 -50,-3 -91,-49 -55,-88 132,-144 117,-273 0,-412 -48,-57 -18,-91 55,-101 z" transform="translate(-347,-4869.0001)" id="path15359" style="fill:#dedfe0"></path><path d="m 12236,7888 c 168,60 146,553 0,602 -50,-3 -91,-49 -55,-88 132,-144 117,-273 0,-412 -48,-57 -18,-91 55,-101 z" transform="translate(-347,-4869.0001)" id="path15361" style="fill:#dedfe0"></path><path d="m 11032,7888 c 168,60 146,553 0,602 -50,-3 -91,-49 -55,-88 132,-144 117,-273 0,-412 -48,-57 -18,-91 55,-101 z" transform="translate(-347,-4869.0001)" id="path15363" style="fill:#dedfe0"></path><path d="m 21665,6728 c 55,77 104,102 250,102 l 718,0 c 145,0 194,-25 250,-102 l -1217,0 z m 456,-857 c 38,-68 48,-156 -10,-234 68,50 147,116 81,248 -53,106 -45,152 -22,222 -68,-74 -108,-129 -49,-236 z m 209,0 c 38,-68 48,-156 -10,-234 68,50 147,116 81,248 -53,106 -45,152 -22,222 -68,-74 -108,-129 -49,-236 z m -443,615 -1,-329 c 239,0 479,0 718,0 l 0,56 c 42,-7 84,-14 127,-20 5,-1 9,-1 14,-1 29,1 55,17 71,41 18,27 19,61 6,90 l -60,137 c -21,47 -69,91 -123,91 l -48,0 c -30,80 -114,130 -198,130 -99,0 -198,0 -297,0 -104,0 -209,-77 -209,-194 z m 716,-195 -1,181 36,0 c 21,0 44,-27 51,-44 l 60,-137 c 2,-5 4,-12 0,-17 -1,-2 -5,-5 -7,-5 0,0 0,0 0,0 -46,7 -92,15 -139,22 z" transform="translate(-347,-4869.0001)" id="path15365" style="fill:#9d9e9e"></path><path d="m 6138,5134 c -168,60 -146,553 0,602 50,-3 91,-49 55,-88 -132,-144 -117,-273 0,-412 48,-57 18,-91 -55,-101 z" transform="translate(-347,-4869.0001)" id="path15367" style="fill:#dedfe0"></path>
<path d="m 15989.895,1387.248 c 30,0 45,38 45,109 0,73 -16,110 -45,110 -29,0 -46,-35 -46,-109 0,-75 19,-110 46,-110 z m 1,-57 c -83,0 -122,73 -122,166 0,91 37,165 120,165 81,0 122,-69 122,-167 0,-88 -34,-164 -120,-164 z m -336.895,189.7448 0,-1 42,-70 c 11,-20 20,-39 30,-60 l 1,0 c -1,21 -2,41 -2,60 l 0,71 -73,0 z m 144,133 0,-77 38,0 0,-56 -38,0 0,-188 -92,0 -121,196 0,49 142,0 0,77 71,0 z" transform="translate(8.69276e-8,361.51227)" id="n40" style="fill:#fefefe;fill-rule:nonzero" number="40" type="number"></path><path d="m 15985.115,983.868 73,0 0,-321 -62,0 -85,40 12,56 61,-29 1,0 0,254 z m -293.945,-128.7703 0,-1 42,-70 c 11,-20 20,-39 30,-60 l 1,0 c -1,21 -2,41 -2,60 l 0,71 -73,0 z m 144,133 0,-77 38,0 0,-56 -38,0 0,-188 -92,0 -121,196 0,49 142,0 0,77 71,0 z" transform="translate(-28.169787,370.9022)" id="n41" style="fill:#fefefe;fill-rule:nonzero" number="41" type="number"></path>
   </svg>