<svg xmlns:dc="http://purl.org/dc/elements/1.1/" xmlns:cc="http://creativecommons.org/ns#" xmlns:rdf="http://www.w3.org/1999/02/22-rdf-syntax-ns#" xmlns:svg="http://www.w3.org/2000/svg" xmlns="http://www.w3.org/2000/svg" version="1.1" width="1132.9465" height="160.3125" viewBox="0 0 906.35726 128.24999" id="svg4360" style="fill-rule:evenodd">
  <metadata id="metadata4644">
    <rdf:rdf>
      <cc:work rdf:about="">
        <dc:format>image/svg+xml</dc:format>
        <dc:type rdf:resource="http://purl.org/dc/dcmitype/StillImage"></dc:type>
        <dc:title></dc:title>
      </cc:work>
    </rdf:rdf>
  </metadata>
  <defs id="defs4642"></defs>
  <path d="m 48.7672,579.668 839.5348,0 c 1.237,0 2.25,1.013 2.25,2.25 l 0,112.184 c 0,1.237 -1.013,2.25 -2.25,2.25 l -839.5348,0 c -1.2373,0 -2.2501,-1.013 -2.2501,-2.25 l 0,-112.184 c 0,-1.237 1.0125,-2.25 2.2501,-2.25 z m 0,-5.783 839.5348,0 c 4.418,0 8.033,3.615 8.033,8.033 l 0,112.184 c 0,4.418 -3.615,8.033 -8.033,8.033 l -839.5348,0 c -4.4178,0 -8.0328,-3.615 -8.0328,-8.033 l 0,-112.184 c 0,-4.418 3.6148,-8.033 8.0328,-8.033 z" transform="translate(-15.2887,-573.88501)" id="path4366" style="fill:#0275d8;stroke:none"></path>
  <path d="m 95.7336,584.184 17.8124,0 0,8.812 -17.8124,0 0,-8.812 z m 0,11.062 17.8124,0 0,10.246 c 0,4.677 -3.827,8.504 -8.504,8.504 l -0.804,0 c -4.6776,0 -8.5044,-3.827 -8.5044,-8.504 l 0,-10.246 z m 4.3654,4.365 0,5.881 c 0,2.268 1.871,4.139 4.139,4.139 l 0.804,0 c 2.268,0 4.139,-1.871 4.139,-4.139 l 0,-5.881 -9.082,0 z" transform="translate(-15.2887,-573.88501)" id="path4368" style="fill:none;stroke:#2c2c2b;stroke-width:0.56692898"></path>
  <path d="m 85.5179,696.352 0,-34.706 51.9371,16.232 0,18.474 z m 724.7361,-116.684 41.25,0 0,63.993 -41.25,0 z m -727.3613,0 0,51.897 39.7503,16.092 26.94146,0.55423 0.29486,-68.54323 z" transform="translate(-15.2887,-573.88501)" id="path4372" style="fill:#f0f4f5;stroke:none"></path>
  <path d="m 109.9793,5.78296 0,67.989 -2.625,0 0,-67.989 2.625,0 z" transform="translate(0,3.5214499e-5)" id="path16175" style="fill:#0275d8;stroke:none"></path>
  <path d="m 163.7903,85.13596 20.709,0 0,2.625 -23.334,0 0,-81.978 2.625,0 0,79.353 z" transform="translate(-27.200001,3.5214499e-5)" id="path16173" style="fill:#0275d8;stroke:none"></path>
  <path d="m 208.4993,85.13596 18.666,0 0,-79.353 2.625,0 0,79.353 20.521,0 0,2.625 c -13.937,0 -27.875,0 -41.812,0 l 0,-2.625 z" transform="translate(-27.200001,3.5214499e-5)" id="path16171" style="fill:#0275d8;stroke:none"></path>
  <path d="m 274.3113,85.13596 18.479,0 0,-79.353 2.625,0 0,79.353 21.084,0 0,2.625 c -14.062,0 -28.125,0 -42.188,0 l 0,-2.625 z" transform="translate(-27.200001,3.5214499e-5)" id="path16169" style="fill:#0275d8;stroke:none"></path>
  <path d="m 340.4993,85.13596 18.853,0 0,-79.353 2.625,0 0,79.353 20.71,0 0,2.625 c -14.063,0 -28.125,0 -42.188,0 l 0,-2.625 z" transform="translate(-27.200001,3.5214499e-5)" id="path16167" style="fill:#0275d8;stroke:none"></path>
  <path d="m 406.6873,85.13596 18.478,0 0,-79.353 2.625,0 0,79.353 20.522,0 0,2.625 c -13.875,0 -27.75,0 -41.625,0 l 0,-2.625 z" transform="translate(-27.200001,3.5214499e-5)" id="path16165" style="fill:#0275d8;stroke:none"></path>
  <path d="m 472.3123,85.13596 19.04,0 0,-79.353 2.625,0 0,79.353 20.71,0 0,2.625 c -14.125,0 -28.25,0 -42.375,0 l 0,-2.625 z" transform="translate(-27.200001,3.5214499e-5)" id="path16163" style="fill:#0275d8;stroke:none"></path>
  <path d="m 538.6873,85.13596 18.29,0 0,-79.353 2.626,0 0,79.353 20.812,0 0,2.625 c -13.909,0 -27.818,0 -41.728,0 l 0,-2.625 z" transform="translate(-27.200001,3.5214499e-5)" id="path16161" style="fill:#0275d8;stroke:none"></path>
  <path d="m 604.4153,85.13596 18.75,0 0,-79.353 2.625,0 0,79.353 21.093,0 0,2.625 c -14.156,0 -28.312,0 -42.468,0 l 0,-2.625 z" transform="translate(-27.200001,3.5214499e-5)" id="path16159" style="fill:#0275d8;stroke:none"></path>
  <path d="m 670.8833,85.13596 18.47,0 0,-79.353 2.625,0 0,79.353 19.781,0 0,2.625 c -13.625,0 -27.251,0 -40.876,0 l 0,-2.625 z" transform="translate(-27.200001,3.5214499e-5)" id="path16157" style="fill:#0275d8;stroke:none"></path>
  <path d="m 735.7593,85.13596 19.781,0 0,-79.353 2.625,0 0,81.978 -22.406,0 0,-2.625 z" transform="translate(38.400002,3.5214499e-5)" id="path16155" style="fill:#0275d8;stroke:none"></path>
  <path d="m 802.0403,104.46096 0,18.006 -2.625,0 0,-18.006 2.625,0 z m 0,-98.678 0,65.678 -2.625,0 0,-65.678 2.625,0 z" transform="translate(36.800003,3.5214499e-5)" id="path16151" style="fill:#0275d8;stroke:none"></path>
  <path d="m 122.1663,104.08496 2.626,0 0,18.382 -2.626,0 0,-18.382 z" transform="translate(0,3.5214499e-5)" id="path16149" style="fill:#0275d8;stroke:none"></path>
  <path d="m 67.604,87.76096 2.6252,0 0,34.706 -2.6252,0 0,-34.706 z" transform="translate(0,3.5214499e-5)" id="path16147" style="fill:#0275d8;stroke:none"></path>
  <path d="m 70.2292,5.78296 0,51.989 -2.6252,0 0,-51.989 2.6252,0 z" transform="translate(0,3.5214499e-5)" id="path4374" style="fill:#0275d8;stroke:none"></path>
  <path d="m 185.451,621.045 22.407,0 c 0.928,0 1.687,0.759 1.687,1.687 l 0,29.907 c 0,0.928 -0.759,1.687 -1.687,1.687 l -22.407,0 c -0.928,0 -1.687,-0.759 -1.687,-1.687 l 0,-29.907 c 0,-0.928 0.759,-1.687 1.687,-1.687 z" transform="translate(-42.4887,-573.88501)" id="s1" style="fill:#dedfdf;stroke:none"></path>
  <path d="m 214.233,621.045 22.406,0 c 0.928,0 1.688,0.759 1.688,1.687 l 0,29.907 c 0,0.928 -0.76,1.687 -1.688,1.687 l -22.406,0 c -0.928,0 -1.688,-0.759 -1.688,-1.687 l 0,-29.907 c 0,-0.928 0.759,-1.687 1.688,-1.687 z" transform="translate(-42.4887,-573.88501)" id="s3" style="fill:#dedfdf;stroke:none"></path>
  <path d="m 185.451,584.516 22.407,0 c 0.928,0 1.687,0.76 1.687,1.688 l 0,29.312 c 0,0.928 -0.759,1.688 -1.687,1.688 l -22.407,0 c -0.928,0 -1.687,-0.759 -1.687,-1.688 l 0,-29.312 c 0,-0.929 0.759,-1.688 1.687,-1.688 z" transform="translate(-42.4887,-573.88501)" id="s2" style="fill:#dedfdf;stroke:none"></path>
  <path d="m 214.233,584.516 22.406,0 c 0.928,0 1.688,0.76 1.688,1.688 l 0,29.312 c 0,0.928 -0.76,1.688 -1.688,1.688 l -22.406,0 c -0.928,0 -1.688,-0.759 -1.688,-1.688 l 0,-29.312 c 0,-0.929 0.759,-1.688 1.688,-1.688 z" transform="translate(-42.4887,-573.88501)" id="s4" style="fill:#dedfdf;stroke:none"></path>
  <path d="m 251.076,621.045 22.407,0 c 0.928,0 1.687,0.759 1.687,1.687 l 0,29.907 c 0,0.928 -0.759,1.687 -1.687,1.687 l -22.407,0 c -0.928,0 -1.687,-0.759 -1.687,-1.687 l 0,-29.907 c 0,-0.928 0.759,-1.687 1.687,-1.687 z" transform="translate(-42.4887,-573.88501)" id="s5" style="fill:#dedfdf;stroke:none"></path>
  <path d="m 279.858,621.045 22.406,0 c 0.929,0 1.688,0.759 1.688,1.687 l 0,29.907 c 0,0.928 -0.76,1.687 -1.688,1.687 l -22.406,0 c -0.928,0 -1.688,-0.759 -1.688,-1.687 l 0,-29.907 c 0,-0.928 0.759,-1.687 1.688,-1.687 z" transform="translate(-42.4887,-573.88501)" id="s7" style="fill:#dedfdf;stroke:none"></path>
  <path d="m 251.076,584.516 22.407,0 c 0.928,0 1.687,0.76 1.687,1.688 l 0,29.312 c 0,0.928 -0.759,1.688 -1.687,1.688 l -22.407,0 c -0.928,0 -1.687,-0.759 -1.687,-1.688 l 0,-29.312 c 0,-0.929 0.759,-1.688 1.687,-1.688 z" transform="translate(-42.4887,-573.88501)" id="s6" style="fill:#dedfdf;stroke:none"></path>
  <path d="m 279.858,584.516 22.406,0 c 0.929,0 1.688,0.76 1.688,1.688 l 0,29.312 c 0,0.928 -0.76,1.688 -1.688,1.688 l -22.406,0 c -0.928,0 -1.688,-0.759 -1.688,-1.688 l 0,-29.312 c 0,-0.929 0.759,-1.688 1.688,-1.688 z" transform="translate(-42.4887,-573.88501)" id="s8" style="fill:#dedfdf;stroke:none"></path>
  <path d="m 316.843,621.045 22.407,0 c 0.928,0 1.687,0.759 1.687,1.687 l 0,29.907 c 0,0.928 -0.759,1.687 -1.687,1.687 l -22.407,0 c -0.928,0 -1.687,-0.759 -1.687,-1.687 l 0,-29.907 c 0,-0.928 0.759,-1.687 1.687,-1.687 z" transform="translate(-42.4887,-573.88501)" id="s9" style="fill:#dedfdf;stroke:none"></path>
  <path d="m 345.624,621.045 22.407,0 c 0.928,0 1.687,0.759 1.687,1.687 l 0,29.907 c 0,0.928 -0.759,1.687 -1.687,1.687 l -22.407,0 c -0.928,0 -1.687,-0.759 -1.687,-1.687 l 0,-29.907 c 0,-0.928 0.759,-1.687 1.687,-1.687 z" transform="translate(-42.4887,-573.88501)" id="s11" style="fill:#dedfdf;stroke:none"></path>
  <path d="m 316.843,584.516 22.407,0 c 0.928,0 1.687,0.76 1.687,1.688 l 0,29.312 c 0,0.928 -0.759,1.688 -1.687,1.688 l -22.407,0 c -0.928,0 -1.687,-0.759 -1.687,-1.688 l 0,-29.312 c 0,-0.929 0.759,-1.688 1.687,-1.688 z" transform="translate(-42.4887,-573.88501)" id="s10" style="fill:#dedfdf;stroke:none"></path>
  <path d="m 345.624,584.516 22.407,0 c 0.928,0 1.687,0.76 1.687,1.688 l 0,29.312 c 0,0.928 -0.759,1.688 -1.687,1.688 l -22.407,0 c -0.928,0 -1.687,-0.759 -1.687,-1.688 l 0,-29.312 c 0,-0.929 0.759,-1.688 1.687,-1.688 z" transform="translate(-42.4887,-573.88501)" id="s12" style="fill:#dedfdf;stroke:none"></path>
  <path d="m 383.593,621.045 22.406,0 c 0.929,0 1.688,0.759 1.688,1.687 l 0,29.907 c 0,0.928 -0.759,1.687 -1.688,1.687 l -22.406,0 c -0.928,0 -1.687,-0.759 -1.687,-1.687 l 0,-29.907 c 0,-0.928 0.759,-1.687 1.687,-1.687 z" transform="translate(-42.4887,-573.88501)" id="s13" style="fill:#dedfdf;stroke:none"></path>
  <path d="m 412.374,621.045 22.407,0 c 0.928,0 1.687,0.759 1.687,1.687 l 0,29.907 c 0,0.928 -0.759,1.687 -1.687,1.687 l -22.407,0 c -0.928,0 -1.687,-0.759 -1.687,-1.687 l 0,-29.907 c 0,-0.928 0.759,-1.687 1.687,-1.687 z" transform="translate(-42.4887,-573.88501)" id="s15" style="fill:#dedfdf;stroke:none"></path>
  <path d="m 383.593,584.516 22.406,0 c 0.929,0 1.688,0.76 1.688,1.688 l 0,29.312 c 0,0.928 -0.759,1.688 -1.688,1.688 l -22.406,0 c -0.928,0 -1.687,-0.759 -1.687,-1.688 l 0,-29.312 c 0,-0.929 0.759,-1.688 1.687,-1.688 z" transform="translate(-42.4887,-573.88501)" id="s14" style="fill:#dedfdf;stroke:none"></path>
  <path d="m 412.374,584.516 22.407,0 c 0.928,0 1.687,0.76 1.687,1.688 l 0,29.596 c 0,0.928 -0.759,1.687 -1.687,1.687 l -22.407,0 c -0.927,0 -1.687,-0.759 -1.687,-1.687 l 0,-29.596 c 0,-0.929 0.759,-1.688 1.687,-1.688 z" transform="translate(-42.4887,-573.88501)" id="s16" style="fill:#dedfdf;stroke:none"></path>
  <path d="m 449.218,621.045 22.407,0 c 0.928,0 1.687,0.759 1.687,1.687 l 0,29.907 c 0,0.928 -0.759,1.687 -1.687,1.687 l -22.407,0 c -0.928,0 -1.687,-0.759 -1.687,-1.687 l 0,-29.907 c 0,-0.928 0.759,-1.687 1.687,-1.687 z" transform="translate(-42.4887,-573.88501)" id="s17" style="fill:#dedfdf;stroke:none"></path>
  <path d="m 477.999,621.045 22.407,0 c 0.928,0 1.687,0.759 1.687,1.687 l 0,29.907 c 0,0.928 -0.759,1.687 -1.687,1.687 l -22.407,0 c -0.928,0 -1.687,-0.759 -1.687,-1.687 l 0,-29.907 c 0,-0.928 0.759,-1.687 1.687,-1.687 z" transform="translate(-42.4887,-573.88501)" id="s19" style="fill:#dedfdf;stroke:none"></path>
  <path d="m 449.218,584.516 22.407,0 c 0.928,0 1.687,0.76 1.687,1.688 l 0,29.312 c 0,0.928 -0.759,1.688 -1.687,1.688 l -22.407,0 c -0.928,0 -1.687,-0.759 -1.687,-1.688 l 0,-29.312 c 0,-0.929 0.759,-1.688 1.687,-1.688 z" transform="translate(-42.4887,-573.88501)" id="s18" style="fill:#dedfdf;stroke:none"></path>
  <path d="m 477.999,584.516 22.407,0 c 0.928,0 1.687,0.76 1.687,1.688 l 0,29.312 c 0,0.928 -0.759,1.688 -1.687,1.688 l -22.407,0 c -0.928,0 -1.687,-0.759 -1.687,-1.688 l 0,-29.312 c 0,-0.929 0.759,-1.688 1.687,-1.688 z" transform="translate(-42.4887,-573.88501)" id="s20" style="fill:#dedfdf;stroke:none"></path>
  <path d="m 515.218,621.045 22.407,0 c 0.928,0 1.687,0.759 1.687,1.687 l 0,29.907 c 0,0.928 -0.759,1.687 -1.687,1.687 l -22.407,0 c -0.928,0 -1.687,-0.759 -1.687,-1.687 l 0,-29.907 c 0,-0.928 0.759,-1.687 1.687,-1.687 z" transform="translate(-42.4887,-573.88501)" id="s21" style="fill:#dedfdf;stroke:none"></path>
  <path d="m 543.999,621.045 22.407,0 c 0.928,0 1.687,0.759 1.687,1.687 l 0,29.907 c 0,0.928 -0.759,1.687 -1.687,1.687 l -22.407,0 c -0.928,0 -1.687,-0.759 -1.687,-1.687 l 0,-29.907 c 0,-0.928 0.759,-1.687 1.687,-1.687 z" transform="translate(-42.4887,-573.88501)" id="s23" style="fill:#dedfdf;stroke:none"></path>
  <path d="m 515.218,584.516 22.407,0 c 0.928,0 1.687,0.76 1.687,1.688 l 0,29.312 c 0,0.928 -0.759,1.688 -1.687,1.688 l -22.407,0 c -0.928,0 -1.687,-0.759 -1.687,-1.688 l 0,-29.312 c 0,-0.929 0.759,-1.688 1.687,-1.688 z" transform="translate(-42.4887,-573.88501)" id="s22" style="fill:#dedfdf;stroke:none"></path>
  <path d="m 543.999,584.516 22.407,0 c 0.928,0 1.687,0.76 1.687,1.688 l 0,29.312 c 0,0.928 -0.759,1.688 -1.687,1.688 l -22.407,0 c -0.928,0 -1.687,-0.759 -1.687,-1.688 l 0,-29.312 c 0,-0.929 0.759,-1.688 1.687,-1.688 z" transform="translate(-42.4887,-573.88501)" id="s24" style="fill:#dedfdf;stroke:none" number="24" type="seat"></path>
  <path d="m 581.218,621.045 22.406,0 c 0.929,0 1.688,0.759 1.688,1.687 l 0,29.907 c 0,0.928 -0.759,1.687 -1.688,1.687 l -22.406,0 c -0.928,0 -1.687,-0.759 -1.687,-1.687 l 0,-29.907 c 0,-0.928 0.759,-1.687 1.687,-1.687 z" transform="translate(-42.4887,-573.88501)" id="s25" style="fill:#dedfdf;stroke:none"></path>
  <path d="m 609.999,621.045 22.407,0 c 0.928,0 1.687,0.759 1.687,1.687 l 0,29.907 c 0,0.928 -0.759,1.687 -1.687,1.687 l -22.407,0 c -0.928,0 -1.687,-0.759 -1.687,-1.687 l 0,-29.907 c 0,-0.928 0.759,-1.687 1.687,-1.687 z" transform="translate(-42.4887,-573.88501)" id="s27" style="fill:#dedfdf;stroke:none"></path>
  <path d="m 581.218,584.516 22.406,0 c 0.929,0 1.688,0.76 1.688,1.688 l 0,29.312 c 0,0.928 -0.759,1.688 -1.688,1.688 l -22.406,0 c -0.928,0 -1.687,-0.759 -1.687,-1.688 l 0,-29.312 c 0,-0.929 0.759,-1.688 1.687,-1.688 z" transform="translate(-42.4887,-573.88501)" id="s26" style="fill:#dedfdf;stroke:none"></path>
  <path d="m 609.999,584.516 22.407,0 c 0.928,0 1.687,0.76 1.687,1.688 l 0,29.312 c 0,0.928 -0.759,1.688 -1.687,1.688 l -22.407,0 c -0.928,0 -1.687,-0.759 -1.687,-1.688 l 0,-29.312 c 0,-0.929 0.759,-1.688 1.687,-1.688 z" transform="translate(-42.4887,-573.88501)" id="s28" style="fill:#dedfdf;stroke:none"></path>
  <path d="m 647.218,621.045 22.406,0 c 0.929,0 1.688,0.759 1.688,1.687 l 0,29.907 c 0,0.928 -0.76,1.687 -1.688,1.687 l -22.406,0 c -0.928,0 -1.688,-0.759 -1.688,-1.687 l 0,-29.907 c 0,-0.928 0.76,-1.687 1.688,-1.687 z" transform="translate(-42.4887,-573.88501)" id="s29" style="fill:#dedfdf;stroke:none"></path>
  <path d="m 675.999,621.045 22.407,0 c 0.928,0 1.687,0.759 1.687,1.687 l 0,29.907 c 0,0.928 -0.759,1.687 -1.687,1.687 l -22.407,0 c -0.928,0 -1.687,-0.759 -1.687,-1.687 l 0,-29.907 c 0,-0.928 0.759,-1.687 1.687,-1.687 z" transform="translate(-42.4887,-573.88501)" id="s31" style="fill:#dedfdf;stroke:none"></path>
  <path d="m 647.218,584.516 22.406,0 c 0.929,0 1.688,0.76 1.688,1.688 l 0,29.312 c 0,0.928 -0.76,1.688 -1.688,1.688 l -22.406,0 c -0.928,0 -1.688,-0.759 -1.688,-1.688 l 0,-29.312 c 0,-0.929 0.76,-1.688 1.688,-1.688 z" transform="translate(-42.4887,-573.88501)" id="s30" style="fill:#dedfdf;stroke:none" number="30" type="seat"></path>
  <path d="m 675.999,584.516 22.407,0 c 0.928,0 1.687,0.76 1.687,1.688 l 0,29.312 c 0,0.928 -0.759,1.688 -1.687,1.688 l -22.407,0 c -0.928,0 -1.687,-0.759 -1.687,-1.688 l 0,-29.312 c 0,-0.929 0.759,-1.688 1.687,-1.688 z" transform="translate(-42.4887,-573.88501)" id="s32" style="fill:#dedfdf;stroke:none"></path>
  <path d="m 713.218,621.045 22.406,0 c 0.929,0 1.688,0.759 1.688,1.687 l 0,29.907 c 0,0.928 -0.76,1.687 -1.688,1.687 l -22.406,0 c -0.928,0 -1.688,-0.759 -1.688,-1.687 l 0,-29.907 c 0,-0.928 0.759,-1.687 1.688,-1.687 z" transform="translate(-42.4887,-573.88501)" id="s33" style="fill:#dedfdf;stroke:none"></path>
  <path d="m 741.999,621.045 22.407,0 c 0.928,0 1.687,0.759 1.687,1.687 l 0,29.907 c 0,0.928 -0.759,1.687 -1.687,1.687 l -22.407,0 c -0.928,0 -1.687,-0.759 -1.687,-1.687 l 0,-29.907 c 0,-0.928 0.759,-1.687 1.687,-1.687 z" transform="translate(-42.4887,-573.88501)" id="s35" style="fill:#dedfdf;stroke:none"></path>
  <path d="m 713.218,584.516 22.406,0 c 0.929,0 1.688,0.76 1.688,1.688 l 0,29.312 c 0,0.928 -0.76,1.688 -1.688,1.688 l -22.406,0 c -0.928,0 -1.688,-0.759 -1.688,-1.688 l 0,-29.312 c 0,-0.929 0.759,-1.688 1.688,-1.688 z" transform="translate(-42.4887,-573.88501)" id="s34" style="fill:#dedfdf;stroke:none" number="34" type="seat"></path>
  <path d="m 741.999,584.516 22.407,0 c 0.928,0 1.687,0.76 1.687,1.688 l 0,29.312 c 0,0.928 -0.759,1.688 -1.687,1.688 l -22.407,0 c -0.928,0 -1.687,-0.759 -1.687,-1.688 l 0,-29.312 c 0,-0.929 0.759,-1.688 1.687,-1.688 z" transform="translate(-42.4887,-573.88501)" id="s36" style="fill:#dedfdf;stroke:none" number="36" type="seat"></path>
  <path d="m 188.546,588.078 16.031,0 0,1.688 -16.031,0 0,-1.688 z" transform="translate(-42.4887,-573.88501)" id="p2" style="fill:#9e9fa0;stroke:none"></path>
  <path d="m 217.467,588.078 16.032,0 0,1.688 -16.032,0 0,-1.688 z" transform="translate(-42.4887,-573.88501)" id="p4" style="fill:#9e9fa0;stroke:none"></path>
  <path d="m 188.546,647.626 16.031,0 0,1.688 -16.031,0 0,-1.688 z" transform="translate(-42.4887,-573.88501)" id="p1" style="fill:#9e9fa0;stroke:none"></path>
  <path d="m 217.467,647.626 16.032,0 0,1.688 -16.032,0 0,-1.688 z" transform="translate(-42.4887,-573.88501)" id="p3" style="fill:#9e9fa0;stroke:none"></path>
  <path d="m 254.546,588.078 16.031,0 0,1.688 -16.031,0 0,-1.688 z" transform="translate(-42.4887,-573.88501)" id="p6" style="fill:#9e9fa0;stroke:none"></path>
  <path d="m 283.468,588.078 16.031,0 0,1.688 -16.031,0 0,-1.688 z" transform="translate(-42.4887,-573.88501)" id="p8" style="fill:#9e9fa0;stroke:none"></path>
  <path d="m 254.546,647.626 16.031,0 0,1.688 -16.031,0 0,-1.688 z" transform="translate(-42.4887,-573.88501)" id="p5" style="fill:#9e9fa0;stroke:none"></path>
  <path d="m 283.468,647.626 16.031,0 0,1.688 -16.031,0 0,-1.688 z" transform="translate(-42.4887,-573.88501)" id="p7" style="fill:#9e9fa0;stroke:none"></path>
  <path d="m 319.887,588.078 16.032,0 0,1.688 -16.032,0 0,-1.688 z" transform="translate(-42.4887,-573.88501)" id="p10" style="fill:#9e9fa0;stroke:none"></path>
  <path d="m 348.809,588.078 16.031,0 0,1.688 -16.031,0 0,-1.688 z" transform="translate(-42.4887,-573.88501)" id="p12" style="fill:#9e9fa0;stroke:none"></path>
  <path d="m 319.887,647.626 16.032,0 0,1.688 -16.032,0 0,-1.688 z" transform="translate(-42.4887,-573.88501)" id="p9" style="fill:#9e9fa0;stroke:none"></path>
  <path d="m 348.809,647.626 16.031,0 0,1.688 -16.031,0 0,-1.688 z" transform="translate(-42.4887,-573.88501)" id="p11" style="fill:#9e9fa0;stroke:none"></path>
  <path d="m 386.785,588.078 16.031,0 0,1.688 -16.031,0 0,-1.688 z" transform="translate(-42.4887,-573.88501)" id="p14" style="fill:#9e9fa0;stroke:none"></path>
  <path d="m 415.707,588.078 16.031,0 0,1.688 -16.031,0 0,-1.688 z" transform="translate(-42.4887,-573.88501)" id="p16" style="fill:#9e9fa0;stroke:none"></path>
  <path d="m 386.785,647.626 16.031,0 0,1.688 -16.031,0 0,-1.688 z" transform="translate(-42.4887,-573.88501)" id="p13" style="fill:#9e9fa0;stroke:none"></path>
  <path d="m 415.707,647.626 16.031,0 0,1.688 -16.031,0 0,-1.688 z" transform="translate(-42.4887,-573.88501)" id="p15" style="fill:#9e9fa0;stroke:none"></path>
  <path d="m 452.265,588.078 16.032,0 0,1.688 -16.032,0 0,-1.688 z" transform="translate(-42.4887,-573.88501)" id="p18" style="fill:#9e9fa0;stroke:none"></path>
  <path d="m 481.187,588.078 16.031,0 0,1.688 -16.031,0 0,-1.688 z" transform="translate(-42.4887,-573.88501)" id="p20" style="fill:#9e9fa0;stroke:none"></path>
  <path d="m 452.265,647.626 16.032,0 0,1.688 -16.032,0 0,-1.688 z" transform="translate(-42.4887,-573.88501)" id="p17" style="fill:#9e9fa0;stroke:none"></path>
  <path d="m 481.187,647.626 16.031,0 0,1.688 -16.031,0 0,-1.688 z" transform="translate(-42.4887,-573.88501)" id="p19" style="fill:#9e9fa0;stroke:none"></path>
  <path d="m 518.029,588.078 16.031,0 0,1.688 -16.031,0 0,-1.688 z" transform="translate(-42.4887,-573.88501)" id="p22" style="fill:#9e9fa0;stroke:none"></path>
  <path d="m 546.951,588.078 16.031,0 0,1.688 -16.031,0 0,-1.688 z" transform="translate(-42.4887,-573.88501)" id="p24" style="fill:#9e9fa0;stroke:none" number="24" type="shelve"></path>
  <path d="m 518.029,647.626 16.031,0 0,1.688 -16.031,0 0,-1.688 z" transform="translate(-42.4887,-573.88501)" id="p21" style="fill:#9e9fa0;stroke:none"></path>
  <path d="m 546.951,647.626 16.031,0 0,1.688 -16.031,0 0,-1.688 z" transform="translate(-42.4887,-573.88501)" id="p23" style="fill:#9e9fa0;stroke:none"></path>
  <path d="m 584.36,588.078 16.031,0 0,1.688 -16.031,0 0,-1.688 z" transform="translate(-42.4887,-573.88501)" id="p26" style="fill:#9e9fa0;stroke:none"></path>
  <path d="m 613.282,588.078 16.031,0 0,1.688 -16.031,0 0,-1.688 z" transform="translate(-42.4887,-573.88501)" id="p28" style="fill:#9e9fa0;stroke:none"></path>
  <path d="m 584.36,647.626 16.031,0 0,1.688 -16.031,0 0,-1.688 z" transform="translate(-42.4887,-573.88501)" id="p25" style="fill:#9e9fa0;stroke:none"></path>
  <path d="m 613.282,647.626 16.031,0 0,1.688 -16.031,0 0,-1.688 z" transform="translate(-42.4887,-573.88501)" id="p27" style="fill:#9e9fa0;stroke:none"></path>
  <path d="m 650.407,588.078 16.031,0 0,1.688 -16.031,0 0,-1.688 z" transform="translate(-42.4887,-573.88501)" id="p30" style="fill:#9e9fa0;stroke:none" number="30" type="shelve"></path>
  <path d="m 679.329,588.078 16.031,0 0,1.688 -16.031,0 0,-1.688 z" transform="translate(-42.4887,-573.88501)" id="p32" style="fill:#9e9fa0;stroke:none"></path>
  <path d="m 650.407,647.626 16.031,0 0,1.688 -16.031,0 0,-1.688 z" transform="translate(-42.4887,-573.88501)" id="p29" style="fill:#9e9fa0;stroke:none"></path>
  <path d="m 679.329,647.626 16.031,0 0,1.688 -16.031,0 0,-1.688 z" transform="translate(-42.4887,-573.88501)" id="p31" style="fill:#9e9fa0;stroke:none"></path>
  <path d="m 716.454,588.078 16.031,0 0,1.688 -16.031,0 0,-1.688 z" transform="translate(-42.4887,-573.88501)" id="p34" style="fill:#9e9fa0;stroke:none" number="34" type="shelve"></path>
  <path d="m 745.376,588.078 16.031,0 0,1.688 -16.031,0 0,-1.688 z" transform="translate(-42.4887,-573.88501)" id="p36" style="fill:#9e9fa0;stroke:none" number="36" type="shelve"></path>
  <path d="m 716.454,647.626 16.031,0 0,1.688 -16.031,0 0,-1.688 z" transform="translate(-42.4887,-573.88501)" id="p33" style="fill:#9e9fa0;stroke:none"></path>
  <path d="m 745.376,647.626 16.031,0 0,1.688 -16.031,0 0,-1.688 z" transform="translate(-42.4887,-573.88501)" id="p35" style="fill:#9e9fa0;stroke:none"></path>
  <path d="m 716.309,642.04 c 0.608,0.368 1.744,0.72 3.088,0.72 2.64,0 4.256,-1.344 4.256,-3.168 0,-1.376 -1.008,-2.32 -2.256,-2.544 l 0,-0.032 c 1.28,-0.432 1.904,-1.312 1.904,-2.416 0,-1.424 -1.232,-2.592 -3.44,-2.592 -1.36,0 -2.592,0.384 -3.216,0.784 l 0.496,1.76 c 0.416,-0.256 1.312,-0.624 2.16,-0.624 1.04,0 1.536,0.464 1.536,1.088 0,0.88 -1.024,1.2 -1.84,1.2 l -0.96,0 0,1.744 0.992,0 c 1.072,0 2.096,0.464 2.096,1.504 0,0.768 -0.64,1.376 -1.904,1.376 -0.992,0 -1.984,-0.4 -2.416,-0.64 l -0.496,1.84 z m 8.88,0 c 0.608,0.368 1.744,0.72 3.088,0.72 2.64,0 4.256,-1.344 4.256,-3.168 0,-1.376 -1.008,-2.32 -2.256,-2.544 l 0,-0.032 c 1.28,-0.432 1.904,-1.312 1.904,-2.416 0,-1.424 -1.232,-2.592 -3.44,-2.592 -1.36,0 -2.592,0.384 -3.216,0.784 l 0.496,1.76 c 0.416,-0.256 1.312,-0.624 2.16,-0.624 1.04,0 1.536,0.464 1.536,1.088 0,0.88 -1.024,1.2 -1.84,1.2 l -0.96,0 0,1.744 0.992,0 c 1.072,0 2.096,0.464 2.096,1.504 0,0.768 -0.64,1.376 -1.904,1.376 -0.992,0 -1.984,-0.4 -2.416,-0.64 l -0.496,1.84 z" transform="translate(-42.4887,-573.88501)" id="n33" style="fill:#ffffff;stroke:none"></path>
  <path d="m 745.05,642.04 c 0.608,0.368 1.744,0.72 3.088,0.72 2.64,0 4.256,-1.344 4.256,-3.168 0,-1.376 -1.008,-2.32 -2.256,-2.544 l 0,-0.032 c 1.28,-0.432 1.904,-1.312 1.904,-2.416 0,-1.424 -1.232,-2.592 -3.44,-2.592 -1.36,0 -2.592,0.384 -3.216,0.784 l 0.496,1.76 c 0.416,-0.256 1.312,-0.624 2.16,-0.624 1.04,0 1.536,0.464 1.536,1.088 0,0.88 -1.024,1.2 -1.84,1.2 l -0.96,0 0,1.744 0.992,0 c 1.072,0 2.096,0.464 2.096,1.504 0,0.768 -0.64,1.376 -1.904,1.376 -0.992,0 -1.984,-0.4 -2.416,-0.64 l -0.496,1.84 z m 15.888,-9.856 -5.728,0 -0.672,5.456 c 0.416,-0.064 0.816,-0.096 1.392,-0.096 2.08,0 2.928,0.656 2.928,1.728 0,1.104 -1.072,1.584 -2.08,1.584 -0.944,0 -1.888,-0.288 -2.336,-0.512 l -0.448,1.824 c 0.576,0.304 1.632,0.592 2.896,0.592 2.8,0 4.464,-1.712 4.464,-3.648 0,-1.216 -0.48,-2.08 -1.264,-2.608 -0.72,-0.528 -1.744,-0.752 -2.736,-0.752 -0.256,0 -0.448,0 -0.672,0.032 l 0.224,-1.6 4.032,0 0,-2 z" transform="translate(-42.4887,-573.88501)" id="n35" style="fill:#ffffff;stroke:none"></path>
  <path d="m 716.029,606.078 c 0.608,0.368 1.744,0.72 3.088,0.72 2.64,0 4.256,-1.344 4.256,-3.168 0,-1.376 -1.008,-2.32 -2.256,-2.544 l 0,-0.032 c 1.28,-0.432 1.904,-1.312 1.904,-2.416 0,-1.424 -1.232,-2.592 -3.44,-2.592 -1.36,0 -2.592,0.384 -3.216,0.784 l 0.496,1.76 c 0.416,-0.256 1.312,-0.624 2.16,-0.624 1.04,0 1.536,0.464 1.536,1.088 0,0.88 -1.024,1.2 -1.84,1.2 l -0.96,0 0,1.744 0.992,0 c 1.072,0 2.096,0.464 2.096,1.504 0,0.768 -0.64,1.376 -1.904,1.376 -0.992,0 -1.984,-0.4 -2.416,-0.64 l -0.496,1.84 z m 15.552,0.544 0,-2.48 1.232,0 0,-1.824 -1.232,0 0,-6.096 -2.992,0 -3.92,6.336 0,1.584 4.608,0 0,2.48 2.304,0 z m -4.656,-4.304 0.016,-0.032 1.376,-2.272 c 0.352,-0.656 0.64,-1.264 0.976,-1.936 l 0.048,0 c -0.032,0.672 -0.064,1.312 -0.064,1.936 l 0,2.304 -2.352,0 z" transform="translate(-42.4887,-573.88501)" id="n34" style="fill:#ffffff;stroke:none" number="34" type="number"></path>
  <path d="m 744.843,606.078 c 0.608,0.368 1.743,0.72 3.088,0.72 2.639,0 4.256,-1.344 4.256,-3.168 0,-1.376 -1.008,-2.32 -2.257,-2.544 l 0,-0.032 c 1.281,-0.432 1.904,-1.312 1.904,-2.416 0,-1.424 -1.231,-2.592 -3.44,-2.592 -1.359,0 -2.591,0.384 -3.216,0.784 l 0.496,1.76 c 0.417,-0.256 1.312,-0.624 2.161,-0.624 1.04,0 1.536,0.464 1.536,1.088 0,0.88 -1.025,1.2 -1.841,1.2 l -0.959,0 0,1.744 0.991,0 c 1.072,0 2.097,0.464 2.097,1.504 0,0.768 -0.64,1.376 -1.904,1.376 -0.993,0 -1.984,-0.4 -2.416,-0.64 l -0.496,1.84 z m 15.583,-10 c -0.224,-0.016 -0.528,-0.032 -0.976,0.016 -1.616,0.08 -2.976,0.576 -4,1.52 -1.136,1.056 -1.856,2.688 -1.856,4.64 0,2.48 1.36,4.544 4.144,4.544 2.24,0 3.824,-1.696 3.824,-3.76 0,-2.16 -1.472,-3.392 -3.216,-3.392 -0.96,0 -1.696,0.304 -2.208,0.816 l -0.048,0 c 0.272,-1.2 1.232,-2.304 3.392,-2.48 0.384,-0.032 0.672,-0.048 0.944,-0.032 l 0,-1.872 z m -2.72,8.928 c -1.12,0 -1.648,-0.992 -1.696,-2.096 0,-0.288 0.032,-0.48 0.112,-0.624 0.224,-0.512 0.768,-0.912 1.424,-0.912 1.04,0 1.552,0.832 1.552,1.792 0,1.056 -0.544,1.84 -1.392,1.84 z" transform="translate(-42.4887,-573.88501)" id="n36" style="fill:#ffffff;stroke:none" number="36" type="number"></path>
  <path d="m 657.533,642.584 0,-2 -3.936,0 0,-0.032 0.96,-0.8 c 1.52,-1.344 2.768,-2.736 2.768,-4.496 0,-1.872 -1.28,-3.248 -3.648,-3.248 -1.392,0 -2.624,0.48 -3.392,1.072 l 0.688,1.728 c 0.544,-0.4 1.328,-0.848 2.224,-0.848 1.2,0 1.696,0.672 1.696,1.52 -0.016,1.216 -1.12,2.384 -3.408,4.432 l -1.328,1.2 0,1.472 7.376,0 z m 2.24,0.144 c 0.272,0.016 0.704,0.032 1.104,0 1.616,-0.064 2.992,-0.544 3.984,-1.44 1.136,-1.056 1.824,-2.624 1.824,-4.8 0,-2.432 -1.264,-4.48 -3.936,-4.48 -2.288,0 -3.92,1.712 -3.92,3.744 0,2.032 1.472,3.248 3.232,3.248 0.944,0 1.632,-0.272 2.096,-0.752 l 0.032,0.016 c -0.176,0.784 -0.624,1.472 -1.312,1.936 -0.544,0.384 -1.296,0.592 -2.048,0.64 -0.48,0.016 -0.736,0.032 -1.056,0 l 0,1.888 z m 2.88,-8.944 c 1.136,0 1.552,1.088 1.536,2.192 0,0.304 -0.032,0.464 -0.112,0.624 -0.224,0.368 -0.688,0.672 -1.36,0.672 -0.976,0 -1.472,-0.768 -1.472,-1.664 0,-1.088 0.592,-1.824 1.408,-1.824 z" transform="translate(-42.4887,-573.88501)" id="n29" style="fill:#ffffff;stroke:none"></path>
  <path d="m 680.003,642.04 c 0.608,0.368 1.743,0.72 3.088,0.72 2.64,0 4.256,-1.344 4.256,-3.168 0,-1.376 -1.008,-2.32 -2.256,-2.544 l 0,-0.032 c 1.28,-0.432 1.904,-1.312 1.904,-2.416 0,-1.424 -1.232,-2.592 -3.441,-2.592 -1.359,0 -2.591,0.384 -3.215,0.784 l 0.496,1.76 c 0.416,-0.256 1.311,-0.624 2.16,-0.624 1.04,0 1.536,0.464 1.536,1.088 0,0.88 -1.025,1.2 -1.841,1.2 l -0.959,0 0,1.744 0.991,0 c 1.072,0 2.097,0.464 2.097,1.504 0,0.768 -0.64,1.376 -1.904,1.376 -0.993,0 -1.984,-0.4 -2.416,-0.64 l -0.496,1.84 z m 12.047,0.544 2.352,0 0,-10.4 -2,0 -2.768,1.28 0.4,1.824 1.984,-0.944 0.032,0 0,8.24 z" transform="translate(-42.4887,-573.88501)" id="n31" style="fill:#ffffff;stroke:none"></path>
  <path d="m 650.109,606.078 c 0.608,0.368 1.744,0.72 3.088,0.72 2.64,0 4.256,-1.344 4.256,-3.168 0,-1.376 -1.008,-2.32 -2.256,-2.544 l 0,-0.032 c 1.28,-0.432 1.904,-1.312 1.904,-2.416 0,-1.424 -1.232,-2.592 -3.44,-2.592 -1.36,0 -2.592,0.384 -3.216,0.784 l 0.496,1.76 c 0.416,-0.256 1.312,-0.624 2.16,-0.624 1.04,0 1.536,0.464 1.536,1.088 0,0.88 -1.024,1.2 -1.84,1.2 l -0.96,0 0,1.744 0.992,0 c 1.072,0 2.096,0.464 2.096,1.504 0,0.768 -0.64,1.376 -1.904,1.376 -0.992,0 -1.984,-0.4 -2.416,-0.64 l -0.496,1.84 z m 12.752,-10.032 c -2.688,0 -3.952,2.368 -3.952,5.392 0.016,2.944 1.2,5.36 3.888,5.36 2.64,0 3.936,-2.224 3.936,-5.424 0,-2.848 -1.104,-5.328 -3.872,-5.328 z m -0.032,1.84 c 0.976,0 1.472,1.216 1.472,3.52 0,2.368 -0.512,3.552 -1.456,3.552 -0.928,0 -1.504,-1.136 -1.504,-3.52 0,-2.432 0.608,-3.552 1.488,-3.552 z" transform="translate(-42.4887,-573.88501)" id="n30" style="fill:#ffffff;stroke:none" number="30" type="number"></path>
  <path d="m 679.035,606.078 c 0.608,0.368 1.743,0.72 3.088,0.72 2.64,0 4.256,-1.344 4.256,-3.168 0,-1.376 -1.008,-2.32 -2.257,-2.544 l 0,-0.032 c 1.281,-0.432 1.904,-1.312 1.904,-2.416 0,-1.424 -1.231,-2.592 -3.44,-2.592 -1.359,0 -2.591,0.384 -3.216,0.784 l 0.497,1.76 c 0.416,-0.256 1.311,-0.624 2.159,-0.624 1.041,0 1.537,0.464 1.537,1.088 0,0.88 -1.025,1.2 -1.841,1.2 l -0.959,0 0,1.744 0.991,0 c 1.072,0 2.097,0.464 2.097,1.504 0,0.768 -0.64,1.376 -1.904,1.376 -0.993,0 -1.984,-0.4 -2.416,-0.64 l -0.496,1.84 z m 16.335,0.544 0,-2 -3.936,0 0,-0.032 0.96,-0.8 c 1.52,-1.344 2.768,-2.736 2.768,-4.496 0,-1.872 -1.28,-3.248 -3.648,-3.248 -1.392,0 -2.624,0.48 -3.392,1.072 l 0.688,1.728 c 0.544,-0.4 1.328,-0.848 2.224,-0.848 1.2,0 1.696,0.672 1.696,1.52 -0.016,1.216 -1.12,2.384 -3.408,4.432 l -1.328,1.2 0,1.472 7.376,0 z" transform="translate(-42.4887,-573.88501)" id="n32" style="fill:#ffffff;stroke:none"></path>
  <path d="m 591.685,642.584 0,-2 -3.936,0 0,-0.032 0.96,-0.8 c 1.52,-1.344 2.768,-2.736 2.768,-4.496 0,-1.872 -1.28,-3.248 -3.648,-3.248 -1.392,0 -2.624,0.48 -3.392,1.072 l 0.688,1.728 c 0.544,-0.4 1.328,-0.848 2.224,-0.848 1.2,0 1.696,0.672 1.696,1.52 -0.016,1.216 -1.12,2.384 -3.408,4.432 l -1.328,1.2 0,1.472 7.376,0 z m 8.432,-10.4 -5.728,0 -0.672,5.456 c 0.416,-0.064 0.816,-0.096 1.392,-0.096 2.08,0 2.928,0.656 2.928,1.728 0,1.104 -1.072,1.584 -2.08,1.584 -0.944,0 -1.888,-0.288 -2.336,-0.512 l -0.448,1.824 c 0.576,0.304 1.632,0.592 2.896,0.592 2.8,0 4.464,-1.712 4.464,-3.648 0,-1.216 -0.48,-2.08 -1.264,-2.608 -0.72,-0.528 -1.744,-0.752 -2.736,-0.752 -0.256,0 -0.448,0 -0.672,0.032 l 0.224,-1.6 4.032,0 0,-2 z" transform="translate(-42.4887,-573.88501)" id="n25" style="fill:#ffffff;stroke:none"></path>
  <path d="m 620.419,642.672 0,-2 -3.936,0 0,-0.032 0.96,-0.8 c 1.519,-1.344 2.768,-2.736 2.768,-4.496 0,-1.872 -1.281,-3.248 -3.648,-3.248 -1.392,0 -2.624,0.48 -3.392,1.072 l 0.688,1.728 c 0.544,-0.4 1.328,-0.848 2.223,-0.848 1.201,0 1.697,0.672 1.697,1.52 -0.016,1.216 -1.121,2.384 -3.408,4.432 l -1.328,1.2 0,1.472 7.376,0 z m 1.599,-10.4 0,2 4.768,0 0,0.032 -4.288,8.368 2.577,0 4.287,-8.864 0,-1.536 -7.344,0 z" transform="translate(-42.4887,-573.88501)" id="n27" style="fill:#ffffff;stroke:none"></path>
  <path d="m 591.477,606.622 0,-2 -3.935,0 0,-0.032 0.959,-0.8 c 1.52,-1.344 2.768,-2.736 2.768,-4.496 0,-1.872 -1.28,-3.248 -3.648,-3.248 -1.392,0 -2.624,0.48 -3.391,1.072 l 0.688,1.728 c 0.543,-0.4 1.328,-0.848 2.223,-0.848 1.2,0 1.697,0.672 1.697,1.52 -0.017,1.216 -1.121,2.384 -3.409,4.432 l -1.328,1.2 0,1.472 7.376,0 z m 8.128,-10.544 c -0.224,-0.016 -0.528,-0.032 -0.976,0.016 -1.616,0.08 -2.976,0.576 -4,1.52 -1.136,1.056 -1.856,2.688 -1.856,4.64 0,2.48 1.36,4.544 4.144,4.544 2.24,0 3.824,-1.696 3.824,-3.76 0,-2.16 -1.472,-3.392 -3.216,-3.392 -0.96,0 -1.696,0.304 -2.208,0.816 l -0.048,0 c 0.272,-1.2 1.232,-2.304 3.392,-2.48 0.384,-0.032 0.672,-0.048 0.944,-0.032 l 0,-1.872 z m -2.72,8.928 c -1.12,0 -1.648,-0.992 -1.696,-2.096 0,-0.288 0.032,-0.48 0.112,-0.624 0.224,-0.512 0.768,-0.912 1.424,-0.912 1.04,0 1.552,0.832 1.552,1.792 0,1.056 -0.544,1.84 -1.392,1.84 z" transform="translate(-42.4887,-573.88501)" id="n26" style="fill:#ffffff;stroke:none"></path>
  <path d="m 620.299,606.622 0,-2 -3.936,0 0,-0.032 0.96,-0.8 c 1.52,-1.344 2.768,-2.736 2.768,-4.496 0,-1.872 -1.28,-3.248 -3.648,-3.248 -1.392,0 -2.624,0.48 -3.392,1.072 l 0.688,1.728 c 0.544,-0.4 1.328,-0.848 2.224,-0.848 1.2,0 1.696,0.672 1.696,1.52 -0.016,1.216 -1.12,2.384 -3.408,4.432 l -1.328,1.2 0,1.472 7.376,0 z m 3.184,-5.328 c -1.137,0.496 -1.857,1.36 -1.857,2.608 0,1.408 1.217,2.896 3.856,2.896 2.416,0 4,-1.28 4,-3.168 0,-1.328 -0.896,-2.192 -1.919,-2.576 l 0,-0.048 c 1.04,-0.512 1.519,-1.392 1.519,-2.288 0,-1.264 -1.008,-2.672 -3.439,-2.672 -2.08,0 -3.664,1.168 -3.664,2.928 0,0.912 0.496,1.76 1.504,2.288 l 0,0.032 z m 2.095,3.824 c -0.911,0 -1.487,-0.704 -1.471,-1.456 0,-0.752 0.463,-1.328 1.263,-1.552 0.944,0.256 1.632,0.8 1.632,1.712 0,0.736 -0.576,1.296 -1.424,1.296 z m -0.047,-7.424 c 0.895,0 1.264,0.64 1.264,1.296 0,0.64 -0.496,1.152 -1.057,1.312 -0.832,-0.256 -1.455,-0.704 -1.455,-1.408 0,-0.64 0.415,-1.2 1.248,-1.2 z" transform="translate(-42.4887,-573.88501)" id="n28" style="fill:#ffffff;stroke:none"></path>
  <path d="m 526.637,642.672 0,-2 -3.935,0 0,-0.032 0.959,-0.8 c 1.52,-1.344 2.768,-2.736 2.768,-4.496 0,-1.872 -1.28,-3.248 -3.648,-3.248 -1.392,0 -2.624,0.48 -3.391,1.072 l 0.688,1.728 c 0.544,-0.4 1.328,-0.848 2.223,-0.848 1.201,0 1.697,0.672 1.697,1.52 -0.017,1.216 -1.121,2.384 -3.409,4.432 l -1.328,1.2 0,1.472 7.376,0 z m 4.592,0 2.352,0 0,-10.4 -2,0 -2.768,1.28 0.4,1.824 1.984,-0.944 0.032,0 0,8.24 z" transform="translate(-42.4887,-573.88501)" id="n21" style="fill:#ffffff;stroke:none"></path>
  <path d="m 554.507,642.584 0,-2 -3.936,0 0,-0.032 0.96,-0.8 c 1.519,-1.344 2.768,-2.736 2.768,-4.496 0,-1.872 -1.281,-3.248 -3.648,-3.248 -1.392,0 -2.624,0.48 -3.392,1.072 l 0.688,1.728 c 0.544,-0.4 1.328,-0.848 2.223,-0.848 1.201,0 1.697,0.672 1.697,1.52 -0.016,1.216 -1.121,2.384 -3.408,4.432 l -1.328,1.2 0,1.472 7.376,0 z m 1.423,-0.544 c 0.608,0.368 1.744,0.72 3.088,0.72 2.64,0 4.256,-1.344 4.256,-3.168 0,-1.376 -1.008,-2.32 -2.256,-2.544 l 0,-0.032 c 1.28,-0.432 1.904,-1.312 1.904,-2.416 0,-1.424 -1.232,-2.592 -3.44,-2.592 -1.36,0 -2.591,0.384 -3.216,0.784 l 0.496,1.76 c 0.417,-0.256 1.312,-0.624 2.16,-0.624 1.04,0 1.536,0.464 1.536,1.088 0,0.88 -1.024,1.2 -1.84,1.2 l -0.96,0 0,1.744 0.992,0 c 1.072,0 2.096,0.464 2.096,1.504 0,0.768 -0.64,1.376 -1.904,1.376 -0.992,0 -1.984,-0.4 -2.415,-0.64 l -0.497,1.84 z" transform="translate(-42.4887,-573.88501)" id="n23" style="fill:#ffffff;stroke:none"></path>
  <path d="m 525.669,606.71 0,-2 -3.935,0 0,-0.032 0.959,-0.8 c 1.52,-1.344 2.768,-2.736 2.768,-4.496 0,-1.872 -1.28,-3.248 -3.648,-3.248 -1.392,0 -2.624,0.48 -3.391,1.072 l 0.687,1.728 c 0.545,-0.4 1.329,-0.848 2.224,-0.848 1.201,0 1.697,0.672 1.697,1.52 -0.017,1.216 -1.121,2.384 -3.409,4.432 l -1.328,1.2 0,1.472 7.376,0 z m 8.88,0 0,-2 -3.936,0 0,-0.032 0.96,-0.8 c 1.52,-1.344 2.768,-2.736 2.768,-4.496 0,-1.872 -1.28,-3.248 -3.648,-3.248 -1.392,0 -2.624,0.48 -3.392,1.072 l 0.688,1.728 c 0.544,-0.4 1.328,-0.848 2.224,-0.848 1.2,0 1.696,0.672 1.696,1.52 -0.016,1.216 -1.12,2.384 -3.408,4.432 l -1.328,1.2 0,1.472 7.376,0 z" transform="translate(-42.4887,-573.88501)" id="n22" style="fill:#ffffff;stroke:none"></path>
  <path d="m 554.227,606.71 0,-2 -3.936,0 0,-0.032 0.96,-0.8 c 1.52,-1.344 2.768,-2.736 2.768,-4.496 0,-1.872 -1.28,-3.248 -3.648,-3.248 -1.392,0 -2.624,0.48 -3.392,1.072 l 0.688,1.728 c 0.544,-0.4 1.328,-0.848 2.224,-0.848 1.2,0 1.696,0.672 1.696,1.52 -0.016,1.216 -1.12,2.384 -3.408,4.432 l -1.328,1.2 0,1.472 7.376,0 z m 8.096,0 0,-2.48 1.232,0 0,-1.824 -1.232,0 0,-6.096 -2.992,0 -3.92,6.336 0,1.584 4.608,0 0,2.48 2.304,0 z m -4.656,-4.304 0.015,-0.032 1.376,-2.272 c 0.353,-0.656 0.641,-1.264 0.977,-1.936 l 0.048,0 c -0.032,0.672 -0.064,1.312 -0.064,1.936 l 0,2.304 -2.352,0 z" transform="translate(-42.4887,-573.88501)" id="n24" style="fill:#ffffff;stroke:none" number="24" type="number"></path>
  <path d="m 455.013,642.584 2.352,0 0,-10.4 -2,0 -2.768,1.28 0.4,1.824 1.984,-0.944 0.032,0 0,8.24 z m 5.888,-10.4 0,2 4.768,0 0,0.032 -4.288,8.368 2.576,0 4.288,-8.864 0,-1.536 -7.344,0 z" transform="translate(-42.4887,-573.88501)" id="n17" style="fill:#ffffff;stroke:none"></path>
  <path d="m 483.691,642.584 2.352,0 0,-10.4 -2,0 -2.768,1.28 0.4,1.824 1.984,-0.944 0.032,0 0,8.24 z m 6.528,0.144 c 0.272,0.016 0.704,0.032 1.104,0 1.616,-0.064 2.992,-0.544 3.984,-1.44 1.136,-1.056 1.824,-2.624 1.824,-4.8 0,-2.432 -1.264,-4.48 -3.936,-4.48 -2.288,0 -3.92,1.712 -3.92,3.744 0,2.032 1.472,3.248 3.232,3.248 0.944,0 1.632,-0.272 2.096,-0.752 l 0.032,0.016 c -0.176,0.784 -0.624,1.472 -1.312,1.936 -0.544,0.384 -1.296,0.592 -2.048,0.64 -0.48,0.016 -0.736,0.032 -1.056,0 l 0,1.888 z m 2.88,-8.944 c 1.136,0 1.552,1.088 1.536,2.192 0,0.304 -0.032,0.464 -0.112,0.624 -0.224,0.368 -0.688,0.672 -1.36,0.672 -0.976,0 -1.472,-0.768 -1.472,-1.664 0,-1.088 0.592,-1.824 1.408,-1.824 z" transform="translate(-42.4887,-573.88501)" id="n19" style="fill:#ffffff;stroke:none"></path>
  <path d="m 454.893,606.622 2.352,0 0,-10.4 -1.999,0 -2.769,1.28 0.4,1.824 1.984,-0.944 0.032,0 0,8.24 z m 7.472,-5.328 c -1.136,0.496 -1.856,1.36 -1.856,2.608 0,1.408 1.216,2.896 3.856,2.896 2.416,0 4,-1.28 4,-3.168 0,-1.328 -0.896,-2.192 -1.92,-2.576 l 0,-0.048 c 1.04,-0.512 1.52,-1.392 1.52,-2.288 0,-1.264 -1.008,-2.672 -3.44,-2.672 -2.08,0 -3.664,1.168 -3.664,2.928 0,0.912 0.496,1.76 1.504,2.288 l 0,0.032 z m 2.096,3.824 c -0.912,0 -1.488,-0.704 -1.472,-1.456 0,-0.752 0.464,-1.328 1.264,-1.552 0.944,0.256 1.632,0.8 1.632,1.712 0,0.736 -0.576,1.296 -1.424,1.296 z m -0.048,-7.424 c 0.896,0 1.264,0.64 1.264,1.296 0,0.64 -0.496,1.152 -1.056,1.312 -0.832,-0.256 -1.456,-0.704 -1.456,-1.408 0,-0.64 0.416,-1.2 1.248,-1.2 z" transform="translate(-42.4887,-573.88501)" id="n18" style="fill:#ffffff;stroke:none"></path>
  <path d="m 488.307,606.622 0,-2 -3.936,0 0,-0.032 0.96,-0.8 c 1.52,-1.344 2.768,-2.736 2.768,-4.496 0,-1.872 -1.28,-3.248 -3.648,-3.248 -1.392,0 -2.624,0.48 -3.392,1.072 l 0.688,1.728 c 0.544,-0.4 1.328,-0.848 2.224,-0.848 1.2,0 1.696,0.672 1.696,1.52 -0.016,1.216 -1.12,2.384 -3.408,4.432 l -1.328,1.2 0,1.472 7.376,0 z m 5.296,-10.576 c -2.688,0 -3.952,2.368 -3.952,5.392 0.016,2.944 1.2,5.36 3.888,5.36 2.64,0 3.936,-2.224 3.936,-5.424 0,-2.848 -1.104,-5.328 -3.872,-5.328 z m -0.033,1.84 c 0.977,0 1.473,1.216 1.473,3.52 0,2.368 -0.512,3.552 -1.456,3.552 -0.928,0 -1.504,-1.136 -1.504,-3.52 0,-2.432 0.608,-3.552 1.487,-3.552 z" transform="translate(-42.4887,-573.88501)" id="n20" style="fill:#ffffff;stroke:none"></path>
  <path d="m 389.476,642.584 2.352,0 0,-10.4 -2,0 -2.768,1.28 0.4,1.824 1.984,-0.944 0.032,0 0,8.24 z m 5.712,-0.544 c 0.608,0.368 1.744,0.72 3.088,0.72 2.64,0 4.256,-1.344 4.256,-3.168 0,-1.376 -1.008,-2.32 -2.256,-2.544 l 0,-0.032 c 1.28,-0.432 1.904,-1.312 1.904,-2.416 0,-1.424 -1.232,-2.592 -3.44,-2.592 -1.36,0 -2.592,0.384 -3.216,0.784 l 0.496,1.76 c 0.416,-0.256 1.312,-0.624 2.16,-0.624 1.04,0 1.536,0.464 1.536,1.088 0,0.88 -1.024,1.2 -1.84,1.2 l -0.96,0 0,1.744 0.992,0 c 1.072,0 2.096,0.464 2.096,1.504 0,0.768 -0.64,1.376 -1.904,1.376 -0.992,0 -1.984,-0.4 -2.416,-0.64 l -0.496,1.84 z" transform="translate(-42.4887,-573.88501)" id="n13" style="fill:#ffffff;stroke:none"></path>
  <path d="m 418.218,642.496 2.352,0 0,-10.4 -2,0 -2.768,1.28 0.4,1.824 1.984,-0.944 0.032,0 0,8.24 z m 12.719,-10.4 -5.728,0 -0.671,5.456 c 0.415,-0.064 0.815,-0.096 1.391,-0.096 2.08,0 2.929,0.656 2.929,1.728 0,1.104 -1.073,1.584 -2.081,1.584 -0.943,0 -1.887,-0.288 -2.336,-0.512 l -0.447,1.824 c 0.576,0.304 1.631,0.592 2.895,0.592 2.8,0 4.464,-1.712 4.464,-3.648 0,-1.216 -0.479,-2.08 -1.264,-2.608 -0.72,-0.528 -1.744,-0.752 -2.736,-0.752 -0.256,0 -0.448,0 -0.672,0.032 l 0.224,-1.6 4.032,0 0,-2 z" transform="translate(-42.4887,-573.88501)" id="n15" style="fill:#ffffff;stroke:none"></path>
  <path d="m 389.197,606.622 2.351,0 0,-10.4 -1.999,0 -2.768,1.28 0.4,1.824 1.984,-0.944 0.032,0 0,8.24 z m 12.383,0 0,-2.48 1.232,0 0,-1.824 -1.232,0 0,-6.096 -2.992,0 -3.92,6.336 0,1.584 4.608,0 0,2.48 2.304,0 z m -4.656,-4.304 0.016,-0.032 1.376,-2.272 c 0.352,-0.656 0.64,-1.264 0.976,-1.936 l 0.048,0 c -0.032,0.672 -0.064,1.312 -0.064,1.936 l 0,2.304 -2.352,0 z" transform="translate(-42.4887,-573.88501)" id="n14" style="fill:#ffffff;stroke:none"></path>
  <path d="m 418.01,606.622 2.352,0 0,-10.4 -2,0 -2.768,1.28 0.4,1.824 1.984,-0.944 0.032,0 0,8.24 z m 12.416,-10.544 c -0.224,-0.016 -0.528,-0.032 -0.976,0.016 -1.616,0.08 -2.976,0.576 -4,1.52 -1.136,1.056 -1.856,2.688 -1.856,4.64 0,2.48 1.36,4.544 4.144,4.544 2.239,0 3.823,-1.696 3.823,-3.76 0,-2.16 -1.471,-3.392 -3.215,-3.392 -0.96,0 -1.696,0.304 -2.208,0.816 l -0.048,0 c 0.272,-1.2 1.232,-2.304 3.392,-2.48 0.384,-0.032 0.672,-0.048 0.944,-0.032 l 0,-1.872 z m -2.72,8.928 c -1.12,0 -1.648,-0.992 -1.696,-2.096 0,-0.288 0.032,-0.48 0.112,-0.624 0.224,-0.512 0.768,-0.912 1.424,-0.912 1.04,0 1.552,0.832 1.552,1.792 0,1.056 -0.544,1.84 -1.392,1.84 z" transform="translate(-42.4887,-573.88501)" id="n16" style="fill:#ffffff;stroke:none"></path>
  <path d="m 325.063,642.728 c 0.272,0.016 0.704,0.032 1.104,0 1.616,-0.064 2.991,-0.544 3.984,-1.44 1.135,-1.056 1.823,-2.624 1.823,-4.8 0,-2.432 -1.264,-4.48 -3.935,-4.48 -2.288,0 -3.921,1.712 -3.921,3.744 0,2.032 1.473,3.248 3.233,3.248 0.943,0 1.631,-0.272 2.096,-0.752 l 0.032,0.016 c -0.177,0.784 -0.624,1.472 -1.312,1.936 -0.544,0.384 -1.296,0.592 -2.048,0.64 -0.48,0.016 -0.737,0.032 -1.056,0 l 0,1.888 z m 2.879,-8.944 c 1.137,0 1.553,1.088 1.537,2.192 0,0.304 -0.032,0.464 -0.112,0.624 -0.224,0.368 -0.688,0.672 -1.36,0.672 -0.976,0 -1.473,-0.768 -1.473,-1.664 0,-1.088 0.593,-1.824 1.408,-1.824 z" transform="translate(-42.4887,-573.88501)" id="n9" style="fill:#ffffff;stroke:none"></path>
  <path d="m 352.42,642.584 2.352,0 0,-10.4 -2,0 -2.768,1.28 0.4,1.824 1.984,-0.944 0.032,0 0,8.24 z m 8.88,0 2.352,0 0,-10.4 -2,0 -2.768,1.28 0.4,1.824 1.984,-0.944 0.032,0 0,8.24 z" transform="translate(-42.4887,-573.88501)" id="n11" style="fill:#ffffff;stroke:none"></path>
  <path d="m 322.527,606.622 2.351,0 0,-10.4 -1.999,0 -2.768,1.28 0.4,1.824 1.984,-0.944 0.032,0 0,8.24 z m 9.583,-10.576 c -2.688,0 -3.952,2.368 -3.952,5.392 0.016,2.944 1.2,5.36 3.888,5.36 2.64,0 3.936,-2.224 3.936,-5.424 0,-2.848 -1.104,-5.328 -3.872,-5.328 z m -0.032,1.84 c 0.976,0 1.472,1.216 1.472,3.52 0,2.368 -0.512,3.552 -1.456,3.552 -0.928,0 -1.504,-1.136 -1.504,-3.52 0,-2.432 0.608,-3.552 1.488,-3.552 z" transform="translate(-42.4887,-573.88501)" id="n10" style="fill:#ffffff;stroke:none"></path>
  <path d="m 351.452,606.71 2.352,0 0,-10.4 -2,0 -2.768,1.28 0.4,1.824 1.984,-0.944 0.032,0 0,8.24 z m 13.168,0 0,-2 -3.936,0 0,-0.032 0.96,-0.8 c 1.519,-1.344 2.768,-2.736 2.768,-4.496 0,-1.872 -1.281,-3.248 -3.648,-3.248 -1.392,0 -2.624,0.48 -3.392,1.072 l 0.688,1.728 c 0.544,-0.4 1.328,-0.848 2.223,-0.848 1.201,0 1.697,0.672 1.697,1.52 -0.016,1.216 -1.121,2.384 -3.408,4.432 l -1.328,1.2 0,1.472 7.376,0 z" transform="translate(-42.4887,-573.88501)" id="n12" style="fill:#ffffff;stroke:none"></path>
  <path d="m 265.544,632.096 -5.728,0 -0.672,5.456 c 0.416,-0.064 0.816,-0.096 1.392,-0.096 2.08,0 2.928,0.656 2.928,1.728 0,1.104 -1.072,1.584 -2.08,1.584 -0.944,0 -1.888,-0.288 -2.336,-0.512 l -0.448,1.824 c 0.576,0.304 1.632,0.592 2.896,0.592 2.8,0 4.464,-1.712 4.464,-3.648 0,-1.216 -0.48,-2.08 -1.264,-2.608 -0.72,-0.528 -1.744,-0.752 -2.736,-0.752 -0.256,0 -0.448,0 -0.672,0.032 l 0.224,-1.6 4.032,0 0,-2 z" transform="translate(-42.4887,-573.88501)" id="n5" style="fill:#ffffff;stroke:none"></path>
  <path d="m 287.389,632.184 0,2 4.768,0 0,0.032 -4.288,8.368 2.576,0 4.288,-8.864 0,-1.536 -7.344,0 z" transform="translate(-42.4887,-573.88501)" id="n7" style="fill:#ffffff;stroke:none"></path>
  <path d="m 265.128,596.078 c -0.224,-0.016 -0.528,-0.032 -0.976,0.016 -1.616,0.08 -2.976,0.576 -4,1.52 -1.136,1.056 -1.856,2.688 -1.856,4.64 0,2.48 1.36,4.544 4.144,4.544 2.24,0 3.824,-1.696 3.824,-3.76 0,-2.16 -1.472,-3.392 -3.216,-3.392 -0.96,0 -1.696,0.304 -2.208,0.816 l -0.048,0 c 0.272,-1.2 1.232,-2.304 3.392,-2.48 0.384,-0.032 0.672,-0.048 0.944,-0.032 l 0,-1.872 z m -2.72,8.928 c -1.12,0 -1.648,-0.992 -1.696,-2.096 0,-0.288 0.032,-0.48 0.112,-0.624 0.224,-0.512 0.768,-0.912 1.424,-0.912 1.04,0 1.552,0.832 1.552,1.792 0,1.056 -0.544,1.84 -1.392,1.84 z" transform="translate(-42.4887,-573.88501)" id="n6" style="fill:#ffffff;stroke:none"></path>
  <path d="m 288.989,601.294 c -1.136,0.496 -1.856,1.36 -1.856,2.608 0,1.408 1.216,2.896 3.856,2.896 2.416,0 4,-1.28 4,-3.168 0,-1.328 -0.896,-2.192 -1.92,-2.576 l 0,-0.048 c 1.04,-0.512 1.52,-1.392 1.52,-2.288 0,-1.264 -1.008,-2.672 -3.44,-2.672 -2.08,0 -3.664,1.168 -3.664,2.928 0,0.912 0.496,1.76 1.504,2.288 l 0,0.032 z m 2.096,3.824 c -0.912,0 -1.488,-0.704 -1.472,-1.456 0,-0.752 0.464,-1.328 1.264,-1.552 0.944,0.256 1.632,0.8 1.632,1.712 0,0.736 -0.576,1.296 -1.424,1.296 z m -0.048,-7.424 c 0.896,0 1.264,0.64 1.264,1.296 0,0.64 -0.496,1.152 -1.056,1.312 -0.832,-0.256 -1.456,-0.704 -1.456,-1.408 0,-0.64 0.416,-1.2 1.248,-1.2 z" transform="translate(-42.4887,-573.88501)" id="n8" style="fill:#ffffff;stroke:none"></path>
  <path d="m 196.687,642.584 2.352,0 0,-10.4 -2,0 -2.768,1.28 0.4,1.824 1.984,-0.944 0.032,0 0,8.24 z" transform="translate(-42.4887,-573.88501)" id="n1" style="fill:#ffffff;stroke:none"></path>
  <path d="m 221.764,642.04 c 0.608,0.368 1.744,0.72 3.088,0.72 2.64,0 4.256,-1.344 4.256,-3.168 0,-1.376 -1.008,-2.32 -2.256,-2.544 l 0,-0.032 c 1.28,-0.432 1.904,-1.312 1.904,-2.416 0,-1.424 -1.232,-2.592 -3.44,-2.592 -1.36,0 -2.592,0.384 -3.216,0.784 l 0.496,1.76 c 0.416,-0.256 1.312,-0.624 2.16,-0.624 1.04,0 1.536,0.464 1.536,1.088 0,0.88 -1.024,1.2 -1.84,1.2 l -0.96,0 0,1.744 0.992,0 c 1.072,0 2.096,0.464 2.096,1.504 0,0.768 -0.64,1.376 -1.904,1.376 -0.992,0 -1.984,-0.4 -2.416,-0.64 l -0.496,1.84 z" transform="translate(-42.4887,-573.88501)" id="n3" style="fill:#ffffff;stroke:none"></path>
  <path d="m 200.343,606.71 0,-2 -3.936,0 0,-0.032 0.959,-0.8 c 1.52,-1.344 2.768,-2.736 2.768,-4.496 0,-1.872 -1.28,-3.248 -3.647,-3.248 -1.393,0 -2.624,0.48 -3.392,1.072 l 0.688,1.728 c 0.544,-0.4 1.328,-0.848 2.223,-0.848 1.201,0 1.697,0.672 1.697,1.52 -0.017,1.216 -1.121,2.384 -3.408,4.432 l -1.328,1.2 0,1.472 7.376,0 z" transform="translate(-42.4887,-573.88501)" id="n2" style="fill:#ffffff;stroke:none"></path>
  <path d="m 228.276,606.622 0,-2.48 1.232,0 0,-1.824 -1.232,0 0,-6.096 -2.992,0 -3.92,6.336 0,1.584 4.608,0 0,2.48 2.304,0 z m -4.656,-4.304 0.016,-0.032 1.376,-2.272 c 0.352,-0.656 0.64,-1.264 0.976,-1.936 l 0.048,0 c -0.032,0.672 -0.064,1.312 -0.064,1.936 l 0,2.304 -2.352,0 z" transform="translate(-42.4887,-573.88501)" id="n4" style="fill:#ffffff;stroke:none"></path>
  <path d="m 862.734,594.336 10.75,0 0,2.062 4.501,0 0,-8 2.687,0 0,21.875 -2.687,0 0,-8 -4.501,0 0,2.063 -10.75,0 0,-10 z m 16.937,31.812 8.375,0 0,24.875 -8.375,0 -3.624,7.375 -13.313,0 0,-39.625 13.313,0 3.624,7.375 z m -16.937,33.631 7.938,0 0,3.001 -7.938,0 0,-3.001 z m 0,-45.14 7.938,0 0,3.001 -7.938,0 0,-3.001 z m 0,56.135 10.75,0 0,2.062 4.501,0 0,-8 2.687,0 0,21.875 -2.687,0 0,-8 -4.501,0 0,2.063 -10.75,0 0,-10 z" transform="translate(18.311302,-573.88501)" id="path4594" style="fill:#9e9fa0;stroke:none"></path>
  <path d="m 40.6009,594.336 -10.7498,0 0,2.062 -4.5009,0 0,-8 -2.6872,0 0,21.875 2.6872,0 0,-8 4.5009,0 0,2.063 10.7498,0 0,-10 z m -16.9373,31.812 -8.3749,0 0,24.875 8.3749,0 3.6247,7.375 13.3126,0 0,-39.625 -13.3126,0 -3.6247,7.375 z m 16.9373,33.631 -7.9376,0 0,3.001 7.9376,0 0,-3.001 z m 0,-45.14 -7.9376,0 0,3.001 7.9376,0 0,-3.001 z m 0,56.135 -10.7498,0 0,2.062 -4.5009,0 0,-8 -2.6872,0 0,21.875 2.6872,0 0,-8 4.5009,0 0,2.063 10.7498,0 0,-10 z" transform="translate(-15.2887,-573.88501)" id="path4596" style="fill:#9e9fa0;stroke:none"></path>
  <path d="m 95.7336,584.184 17.8124,0 0,8.812 -17.8124,0 0,-8.812 z m 0,11.062 17.8124,0 0,10.246 c 0,4.677 -3.827,8.504 -8.504,8.504 l -0.804,0 c -4.6776,0 -8.5044,-3.827 -8.5044,-8.504 l 0,-10.246 z m 4.3654,4.365 0,5.881 c 0,2.268 1.871,4.139 4.139,4.139 l 0.804,0 c 2.268,0 4.139,-1.871 4.139,-4.139 l 0,-5.881 -9.082,0 z" transform="translate(-15.2887,-573.88501)" id="path4598" style="fill:#c2c5cc;stroke:none"></path>
  <path d="m 785.266,584.184 17.812,0 0,8.812 -17.812,0 0,-8.812 z m 0,11.062 17.812,0 0,10.246 c 0,4.677 -3.827,8.504 -8.504,8.504 l -0.804,0 c -4.677,0 -8.504,-3.827 -8.504,-8.504 l 0,-10.246 z m 4.365,4.365 0,5.881 c 0,2.268 1.871,4.139 4.139,4.139 l 0.804,0 c 2.268,0 4.139,-1.871 4.139,-4.139 l 0,-5.881 -9.082,0 z" transform="translate(21.511304,-573.88501)" id="path4600" style="fill:#c2c5cc;stroke:none"></path>
  <path d="m 201.595,667.525 20,0 0,15.5 -20,0 0,-15.5 z" transform="translate(-42.4887,-573.88501)" id="path4602" style="fill:none;stroke:#717475;stroke-width:0.70866102"></path>
  <path d="m 210.683,671.231 0,8.088 1.824,0 0,-8.088 -1.824,0 z" transform="translate(-42.4887,-573.88501)" id="path4604" style="fill:#717475;stroke:none"></path>
  <path d="m 267.412,667.525 20,0 0,15.5 -20,0 0,-15.5 z" transform="translate(-42.415036,-573.88501)" id="path4606" style="fill:none;stroke:#717475;stroke-width:0.70866102"></path>
  <path d="m 274.67,671.231 0,8.088 1.824,0 0,-8.088 -1.824,0 z m 3.66,0 0,8.088 1.824,0 0,-8.088 -1.824,0 z" transform="translate(-42.4887,-573.88501)" id="path4608" style="fill:#717475;stroke:none"></path>
  <path d="m 333.912,667.525 20,0 0,15.5 -20,0 0,-15.5 z" transform="translate(-42.4887,-573.88501)" id="path4610" style="fill:none;stroke:#717475;stroke-width:0.70866102"></path>
  <path d="m 339.34,671.231 0,8.088 1.824,0 0,-8.088 -1.824,0 z m 3.66,0 0,8.088 1.824,0 0,-8.088 -1.824,0 z m 3.66,0 0,8.088 1.824,0 0,-8.088 -1.824,0 z" transform="translate(-42.4887,-573.88501)" id="path4612" style="fill:#717475;stroke:none"></path>
  <path d="m 399.662,667.525 20,0 0,15.5 -20,0 0,-15.5 z" transform="translate(-42.4887,-573.88501)" id="path4614" style="fill:none;stroke:#717475;stroke-width:0.70866102"></path>
  <path d="m 404.454,671.231 0,8.088 1.824,0 0,-8.088 -1.824,0 z m 7.692,8.088 2.725,-8.088 -1.944,0 -1.033,3.456 c -0.275,0.924 -0.527,1.884 -0.731,2.856 l -0.036,0 c -0.192,-1.008 -0.444,-1.92 -0.72,-2.892 l -0.984,-3.42 -2.004,0 2.592,8.088 2.135,0 z" transform="translate(-42.4887,-573.88501)" id="path4616" style="fill:#717475;stroke:none"></path>
  <path d="m 465.162,667.525 20,0 0,15.5 -20,0 0,-15.5 z" transform="translate(-42.4887,-573.88501)" id="path4618" style="fill:none;stroke:#717475;stroke-width:0.70866102"></path>
  <path d="m 476.164,679.319 2.724,-8.088 -1.944,0 -1.032,3.456 c -0.276,0.924 -0.528,1.884 -0.732,2.856 l -0.036,0 c -0.192,-1.008 -0.444,-1.92 -0.72,-2.892 l -0.984,-3.42 -2.004,0 2.592,8.088 2.136,0 z" transform="translate(-42.4887,-573.88501)" id="path4620" style="fill:#717475;stroke:none"></path>
  <path d="m 531.663,667.525 20,0 0,15.5 -20,0 0,-15.5 z" transform="translate(-42.4887,-573.88501)" id="path4622" style="fill:none;stroke:#717475;stroke-width:0.70866102"></path>
  <path d="m 541.195,679.319 2.724,-8.088 -1.944,0 -1.032,3.456 c -0.276,0.924 -0.528,1.884 -0.732,2.856 l -0.036,0 c -0.192,-1.008 -0.444,-1.92 -0.72,-2.892 l -0.984,-3.42 -2.004,0 2.592,8.088 2.136,0 z m 3.839,-8.088 0,8.088 1.824,0 0,-8.088 -1.824,0 z" transform="translate(-42.4887,-573.88501)" id="path4624" style="fill:#717475;stroke:none"></path>
  <path d="m 597.913,667.525 20,0 0,15.5 -20,0 0,-15.5 z" transform="translate(-42.4887,-573.88501)" id="path4626" style="fill:none;stroke:#717475;stroke-width:0.70866102"></path>
  <path d="m 605.615,679.319 2.724,-8.088 -1.944,0 -1.032,3.456 c -0.276,0.924 -0.528,1.884 -0.732,2.856 l -0.036,0 c -0.192,-1.008 -0.444,-1.92 -0.72,-2.892 l -0.984,-3.42 -2.004,0 2.592,8.088 2.136,0 z m 3.839,-8.088 0,8.088 1.825,0 0,-8.088 -1.825,0 z m 3.661,0 0,8.088 1.824,0 0,-8.088 -1.824,0 z" transform="translate(-42.4887,-573.88501)" id="path4628" style="fill:#717475;stroke:none"></path>
  <path d="m 664.163,667.525 20,0 0,15.5 -20,0 0,-15.5 z" transform="translate(-42.4887,-573.88501)" id="path4630" style="fill:none;stroke:#717475;stroke-width:0.70866102"></path>
  <path d="m 670.035,679.319 2.724,-8.088 -1.944,0 -1.032,3.456 c -0.276,0.924 -0.528,1.884 -0.732,2.856 l -0.036,0 c -0.192,-1.008 -0.444,-1.92 -0.72,-2.892 l -0.984,-3.42 -2.004,0 2.592,8.088 2.136,0 z m 3.839,-8.088 0,8.088 1.824,0 0,-8.088 -1.824,0 z m 3.66,0 0,8.088 1.825,0 0,-8.088 -1.825,0 z m 3.661,0 0,8.088 1.824,0 0,-8.088 -1.824,0 z" transform="translate(-42.4887,-573.88501)" id="path4632" style="fill:#717475;stroke:none"></path>
  <path d="m 728.913,667.525 20,0 0,15.5 -20,0 0,-15.5 z" transform="translate(-42.4887,-573.88501)" id="path4634" style="fill:none;stroke:#717475;stroke-width:0.70866102"></path>
  <path d="m 733.903,671.231 0,8.088 1.824,0 0,-8.088 -1.824,0 z m 10.02,8.088 -2.4,-4.14 2.28,-3.948 -2.088,0 -0.684,1.476 c -0.204,0.468 -0.36,0.828 -0.552,1.344 l -0.024,0 c -0.192,-0.456 -0.372,-0.852 -0.612,-1.344 l -0.708,-1.476 -2.1,0 2.256,3.996 -2.34,4.092 2.088,0 0.66,-1.464 c 0.264,-0.564 0.468,-0.984 0.636,-1.452 l 0.024,0 c 0.228,0.468 0.42,0.888 0.72,1.452 l 0.732,1.464 2.112,0 z" transform="translate(-42.4887,-573.88501)" id="path4636" style="fill:#717475;stroke:none"></path>
  <g transform="translate(-15.2887,-573.88501)" id="g4638"></g>
  <path d="m 713.218,621.045 22.406,0 c 0.929,0 1.688,0.759 1.688,1.687 l 0,29.907 c 0,0.928 -0.76,1.687 -1.688,1.687 l -22.406,0 c -0.928,0 -1.688,-0.759 -1.688,-1.687 l 0,-29.907 c 0,-0.928 0.759,-1.687 1.688,-1.687 z" transform="translate(23.625321,-573.9113)" id="s37" style="fill:#dedfdf;fill-rule:evenodd;stroke:none"></path>
  <path d="m 741.999,621.045 22.407,0 c 0.928,0 1.687,0.759 1.687,1.687 l 0,29.907 c 0,0.928 -0.759,1.687 -1.687,1.687 l -22.407,0 c -0.928,0 -1.687,-0.759 -1.687,-1.687 l 0,-29.907 c 0,-0.928 0.759,-1.687 1.687,-1.687 z" transform="translate(23.625321,-573.9113)" id="s39" style="fill:#dedfdf;fill-rule:evenodd;stroke:none"></path>
  <path d="m 713.218,584.516 22.406,0 c 0.929,0 1.688,0.76 1.688,1.688 l 0,29.312 c 0,0.928 -0.76,1.688 -1.688,1.688 l -22.406,0 c -0.928,0 -1.688,-0.759 -1.688,-1.688 l 0,-29.312 c 0,-0.929 0.759,-1.688 1.688,-1.688 z" transform="translate(23.625321,-573.9113)" id="s38" style="fill:#dedfdf;fill-rule:evenodd;stroke:none" number="38" type="seat"></path>
  <path d="m 741.999,584.516 22.407,0 c 0.928,0 1.687,0.76 1.687,1.688 l 0,29.312 c 0,0.928 -0.759,1.688 -1.687,1.688 l -22.407,0 c -0.928,0 -1.687,-0.759 -1.687,-1.688 l 0,-29.312 c 0,-0.929 0.759,-1.688 1.687,-1.688 z" transform="translate(23.625321,-573.9113)" id="s40" style="fill:#dedfdf;fill-rule:evenodd;stroke:none" number="40" type="seat"></path>
  <path d="m 716.454,588.078 16.031,0 0,1.688 -16.031,0 0,-1.688 z" transform="translate(23.625321,-573.9113)" id="p38" style="fill:#9e9fa0;fill-rule:evenodd;stroke:none" number="38" type="shelve"></path>
  <path d="m 745.376,588.078 16.031,0 0,1.688 -16.031,0 0,-1.688 z" transform="translate(23.625321,-573.9113)" id="p40" style="fill:#9e9fa0;fill-rule:evenodd;stroke:none" number="40" type="shelve"></path>
  <path d="m 716.454,647.626 16.031,0 0,1.688 -16.031,0 0,-1.688 z" transform="translate(23.625321,-573.9113)" id="p37" style="fill:#9e9fa0;fill-rule:evenodd;stroke:none"></path>
  <path d="m 745.376,647.626 16.031,0 0,1.688 -16.031,0 0,-1.688 z" transform="translate(23.625321,-573.9113)" id="p39" style="fill:#9e9fa0;fill-rule:evenodd;stroke:none"></path>
  <path d="m 670.8833,85.13596 18.47,0 0,-79.353 2.625,0 0,79.353 19.781,0 0,2.625 c -13.625,0 -27.251,0 -40.876,0 l 0,-2.625 z" transform="translate(38.938726,-0.03647526)" id="path16157-1" style="fill:#0275d8;fill-rule:evenodd;stroke:none"></path>
  <path d="m 787.94236,58.34349 0,2 4.768,0 0,0.032 -4.288,8.368 2.577,0 4.287,-8.864 0,-1.536 -7.344,0 z m -8.75655,9.830546 c 0.608,0.368 1.744,0.72 3.088,0.72 2.64,0 4.256,-1.344 4.256,-3.168 0,-1.376 -1.008,-2.32 -2.256,-2.544 l 0,-0.032 c 1.28,-0.432 1.904,-1.312 1.904,-2.416 0,-1.424 -1.232,-2.592 -3.44,-2.592 -1.36,0 -2.592,0.384 -3.216,0.784 l 0.496,1.76 c 0.416,-0.256 1.312,-0.624 2.16,-0.624 1.04,0 1.536,0.464 1.536,1.088 0,0.88 -1.024,1.2 -1.84,1.2 l -0.96,0 0,1.744 0.992,0 c 1.072,0 2.096,0.464 2.096,1.504 0,0.768 -0.64,1.376 -1.904,1.376 -0.992,0 -1.984,-0.4 -2.416,-0.64 l -0.496,1.84 z" transform="translate(-39.531491,3.5178837e-5)" id="n37" style="fill:#ffffff;fill-rule:evenodd;stroke:none"></path>
  <path d="m 791.45536,23.76549 c 0.895,0 1.264,0.64 1.264,1.296 0,0.64 -0.496,1.152 -1.057,1.312 -0.832,-0.256 -1.455,-0.704 -1.455,-1.408 0,-0.64 0.415,-1.2 1.248,-1.2 z m 0.047,7.424 c -0.911,0 -1.487,-0.704 -1.471,-1.456 0,-0.752 0.463,-1.328 1.263,-1.552 0.944,0.256 1.632,0.8 1.632,1.712 0,0.736 -0.576,1.296 -1.424,1.296 z m -2.095,-3.824 c -1.137,0.496 -1.857,1.36 -1.857,2.608 0,1.408 1.217,2.896 3.856,2.896 2.416,0 4,-1.28 4,-3.168 0,-1.328 -0.896,-2.192 -1.919,-2.576 l 0,-0.048 c 1.04,-0.512 1.519,-1.392 1.519,-2.288 0,-1.264 -1.008,-2.672 -3.439,-2.672 -2.08,0 -3.664,1.168 -3.664,2.928 0,0.912 0.496,1.76 1.504,2.288 l 0,0.032 z m -10.70766,4.679203 c 0.608,0.368 1.744,0.72 3.088,0.72 2.64,0 4.256,-1.344 4.256,-3.168 0,-1.376 -1.008,-2.32 -2.256,-2.544 l 0,-0.032 c 1.28,-0.432 1.904,-1.312 1.904,-2.416 0,-1.424 -1.232,-2.592 -3.44,-2.592 -1.36,0 -2.592,0.384 -3.216,0.784 l 0.496,1.76 c 0.416,-0.256 1.312,-0.624 2.16,-0.624 1.04,0 1.536,0.464 1.536,1.088 0,0.88 -1.024,1.2 -1.84,1.2 l -0.96,0 0,1.744 0.992,0 c 1.072,0 2.096,0.464 2.096,1.504 0,0.768 -0.64,1.376 -1.904,1.376 -0.992,0 -1.984,-0.4 -2.416,-0.64 l -0.496,1.84 z" transform="translate(-38.765377,0.07664667)" id="n38" style="fill:#ffffff;fill-rule:evenodd;stroke:none" number="38" type="number"></path>
  <path d="m 789.03935,60.20387 c 1.136,0 1.552,1.088 1.536,2.192 0,0.304 -0.032,0.464 -0.112,0.624 -0.224,0.368 -0.688,0.672 -1.36,0.672 -0.976,0 -1.472,-0.768 -1.472,-1.664 0,-1.088 0.592,-1.824 1.408,-1.824 z m -2.88,8.944 c 0.272,0.016 0.704,0.032 1.104,0 1.616,-0.064 2.992,-0.544 3.984,-1.44 1.136,-1.056 1.824,-2.624 1.824,-4.8 0,-2.432 -1.264,-4.48 -3.936,-4.48 -2.288,0 -3.92,1.712 -3.92,3.744 0,2.032 1.472,3.248 3.232,3.248 0.944,0 1.632,-0.272 2.096,-0.752 l 0.032,0.016 c -0.176,0.784 -0.624,1.472 -1.312,1.936 -0.544,0.384 -1.296,0.592 -2.048,0.64 -0.48,0.016 -0.736,0.032 -1.056,0 l 0,1.888 z m -9.24982,-0.694165 c 0.608,0.368 1.744,0.72 3.088,0.72 2.64,0 4.256,-1.344 4.256,-3.168 0,-1.376 -1.008,-2.32 -2.256,-2.544 l 0,-0.032 c 1.28,-0.432 1.904,-1.312 1.904,-2.416 0,-1.424 -1.232,-2.592 -3.44,-2.592 -1.36,0 -2.592,0.384 -3.216,0.784 l 0.496,1.76 c 0.416,-0.256 1.312,-0.624 2.16,-0.624 1.04,0 1.536,0.464 1.536,1.088 0,0.88 -1.024,1.2 -1.84,1.2 l -0.96,0 0,1.744 0.992,0 c 1.072,0 2.096,0.464 2.096,1.504 0,0.768 -0.64,1.376 -1.904,1.376 -0.992,0 -1.984,-0.4 -2.416,-0.64 l -0.496,1.84 z" transform="translate(-8.2342128,-0.3249995)" id="n39" style="fill:#ffffff;fill-rule:evenodd;stroke:none"></path>
  <path d="m 772.1862,28.60193 0.016,-0.032 1.376,-2.272 c 0.352,-0.656 0.64,-1.264 0.976,-1.936 l 0.048,0 c -0.032,0.672 -0.064,1.312 -0.064,1.936 l 0,2.304 -2.352,0 z m 4.656,4.304 0,-2.48 1.232,0 0,-1.824 -1.232,0 0,-6.096 -2.992,0 -3.92,6.336 0,1.584 4.608,0 0,2.48 2.304,0 z m 5.9808,-8.81675 c 0.976,0 1.472,1.216 1.472,3.52 0,2.368 -0.512,3.552 -1.456,3.552 -0.928,0 -1.504,-1.136 -1.504,-3.52 0,-2.432 0.608,-3.552 1.488,-3.552 z m 0.032,-1.84 c -2.688,0 -3.952,2.368 -3.952,5.392 0.016,2.944 1.2,5.36 3.888,5.36 2.64,0 3.936,-2.224 3.936,-5.424 0,-2.848 -1.104,-5.328 -3.872,-5.328 z" transform="translate(-1.6000001,3.5214499e-5)" id="n40" style="fill:#ffffff;fill-rule:evenodd;stroke:none" number="40" type="number"></path>
  <path d="m 728.913,667.525 20,0 0,15.5 -20,0 0,-15.5 z" transform="translate(24.038676,-574.0083)" id="path4634-3" style="fill:none;stroke:#717475;stroke-width:0.70866102"></path>
  <path d="m 767.96168,105.31067 -2.4,-4.14 2.28,-3.948 -2.088,0 -0.684,1.476 c -0.204,0.468 -0.36,0.828 -0.552,1.344 l -0.024,0 c -0.192,-0.456 -0.372,-0.852 -0.612,-1.344 l -0.708,-1.476 -2.1,0 2.256,3.996 -2.34,4.092 2.088,0 0.66,-1.464 c 0.264,-0.564 0.468,-0.984 0.636,-1.452 l 0.024,0 c 0.228,0.468 0.42,0.888 0.72,1.452 l 0.732,1.464 2.112,0 z" transform="translate(-1.838674,-0.22979904)" id="path4636-2" style="fill:#717475;fill-rule:evenodd;stroke:none"></path>
</svg>