<svg xmlns:dc="http://purl.org/dc/elements/1.1/" xmlns:cc="http://creativecommons.org/ns#" xmlns:rdf="http://www.w3.org/1999/02/22-rdf-syntax-ns#" xmlns:svg="http://www.w3.org/2000/svg" xmlns="http://www.w3.org/2000/svg" version="1.1" width="930.15002" height="160.29921" viewBox="0 0 26250.902 4524" id="svg19211" xml:space="preserve" style="fill-rule:evenodd"><metadata id="metadata19407"><rdf:rdf><cc:work rdf:about=""><dc:format>image/svg+xml</dc:format><dc:type rdf:resource="http://purl.org/dc/dcmitype/StillImage"></dc:type><dc:title></dc:title></cc:work></rdf:rdf></metadata><defs id="defs19405">
 </defs>
 <path d="m 16757,4898 -2024,0 0,1028 c 0,361 693,557 1206,370 499,-182 818,-739 818,-1057 l 0,-341 z" transform="matrix(-1,0,0,-1,28277.901,9232.9918)" id="path19215" style="fill:#f2f4f5"></path><path d="m 16723,4928 -1956,0 0,998 c 0,32 6,63 18,94 59,147 245,236 405,278 210,55 452,53 661,-6 25,-7 50,-15 74,-24 158,-58 295,-153 409,-264 193,-188 389,-507 389,-765 l 0,-311 z m 34,-30 -2024,0 0,1028 c 0,361 693,557 1206,370 499,-182 818,-739 818,-1057 l 0,-341 z" transform="matrix(-1,0,0,-1,28277.901,9232.9918)" id="path19219" style="fill:#9d9e9e"></path><path d="m 14840,5469 273,-473 234,135 -273,473 -234,-135 z m 294,170 273,-473 272,157 c 124,72 167,232 96,356 l -12,21 c -72,124 -232,167 -356,96 l -272,-157 z m 183,-49 156,90 c 60,35 139,14 173,-46 l 12,-21 c 35,-60 14,-139 -46,-173 l -156,-90 -139,241 z" transform="matrix(-1,0,0,-1,28277.901,9232.9918)" id="path19221" style="fill:#c2c7cc"></path><path d="m 8562,9030 0,-1611 7805,0 850,591 0,1020 z" transform="matrix(-1,0,0,-1,28277.901,9232.9918)" id="polygon19223" style="fill:#f2f4f5"></path><path d="m 14698,6342 -106,0 0,-1429 106,0 0,1429 z m 0,2688 -106,0 0,-1611 106,0 0,1611 z" transform="matrix(-1,0,0,-1,28277.901,9232.9918)" id="path19225" style="fill:#0275d8"></path><path d="m 18819,6342 -106,0 0,-1429 106,0 0,1429 z m 0,2688 -106,0 0,-1611 106,0 0,1611 z" transform="matrix(-1,0,0,-1,28277.901,9232.9918)" id="path19227" style="fill:#0275d8"></path><path d="m 20097,4976 0,944 -1181,0 0,-944 z" transform="matrix(-1,0,0,-1,28277.901,9232.9918)" id="polygon19229" style="fill:#f2f4f5"></path><path d="m 20097,8027 0,944 -1181,0 0,-944 z" transform="matrix(-1,0,0,-1,28277.901,9232.9918)" id="polygon19231" style="fill:#f2f4f5"></path><path d="m 21149,9004 -499,0 0,-61 -147,0 c -32,0 -45,-28 -58,-58 l -32,-76 0,-318 32,-76 c 12,-29 26,-58 58,-58 l 147,0 0,-64 -147,0 c -32,0 -45,-28 -58,-58 l -32,-76 0,-318 32,-76 c 12,-29 26,-58 58,-58 l 147,0 0,-60 499,0 c 0,451 0,902 0,1353 z" transform="matrix(-1,0,0,1,28277.901,-4710)" id="path19233" style="fill:#9d9e9e"></path><path d="m 22199,9004 -499,0 0,-61 -147,0 c -32,0 -45,-28 -58,-58 l -32,-76 0,-318 32,-76 c 12,-29 26,-58 58,-58 l 147,0 0,-64 -147,0 c -32,0 -45,-28 -58,-58 l -32,-76 0,-318 32,-76 c 12,-29 26,-58 58,-58 l 147,0 0,-60 499,0 c 0,451 0,902 0,1353 z" transform="matrix(-1,0,0,1,28277.901,-4710)" id="path19235" style="fill:#9d9e9e"></path><path d="m 21214,8945 -479,0 c -19,-45 -37,-90 -56,-134 l 0,-318 57,-134 478,0 c 96,189 105,384 0,586 z" transform="matrix(-1,0,0,1,28277.901,-4710)" id="s3" style="fill:#dedfe0"></path><path d="m 22264,8945 -479,0 c -19,-45 -37,-90 -56,-134 l 0,-318 57,-134 478,0 c 96,189 105,384 0,586 z" transform="matrix(-1,0,0,1,28277.901,-4710)" id="s7" style="fill:#dedfe0"></path><path d="m 20563,8912 c -28,0 -41,-25 -51,-51 l -28,-68 0,-283 28,-68 c 11,-26 23,-51 51,-51 26,0 58,16 43,51 l -28,68 0,283 28,68 c 15,36 -17,51 -43,51 z" transform="matrix(-1,0,0,1,28277.901,-4710)" id="path19241" style="fill:#d9dada"></path><path d="m 21613,8912 c -28,0 -41,-25 -51,-51 l -28,-68 0,-283 28,-68 c 11,-26 23,-51 51,-51 26,0 58,16 43,51 l -28,68 0,283 28,68 c 15,36 -17,51 -43,51 z" transform="matrix(-1,0,0,1,28277.901,-4710)" id="path19243" style="fill:#d9dada"></path><path d="m 21214,8297 -479,0 c -19,-45 -37,-90 -56,-134 l 0,-318 57,-134 478,0 c 96,189 105,384 0,586 z" transform="matrix(-1,0,0,1,28277.901,-4710)" id="s4" style="fill:#dedfe0"></path><path d="m 22264,8297 -479,0 c -19,-45 -37,-90 -56,-134 l 0,-318 57,-134 478,0 c 96,189 105,384 0,586 z" transform="matrix(-1,0,0,1,28277.901,-4710)" id="s8" style="fill:#dedfe0" number="8" type="seat"></path><path d="m 20563,8264 c -28,0 -41,-25 -51,-51 l -28,-68 0,-283 28,-68 c 11,-26 23,-51 51,-51 26,0 58,16 43,51 l -28,68 0,283 28,68 c 15,36 -17,51 -43,51 z" transform="matrix(-1,0,0,1,28277.901,-4710)" id="path19249" style="fill:#d9dada"></path><path d="m 21613,8264 c -28,0 -41,-25 -51,-51 l -28,-68 0,-283 28,-68 c 11,-26 23,-51 51,-51 26,0 58,16 43,51 l -28,68 0,283 28,68 c 15,36 -17,51 -43,51 z" transform="matrix(-1,0,0,1,28277.901,-4710)" id="path19251" style="fill:#d9dada"></path><path d="m 25807,9004 499,0 0,-61 147,0 c 32,0 45,-28 58,-58 l 32,-76 0,-318 -32,-76 c -12,-29 -26,-58 -58,-58 l -147,0 0,-64 147,0 c 32,0 45,-28 58,-58 l 32,-76 0,-318 -32,-76 c -12,-29 -26,-58 -58,-58 l -147,0 0,-60 -499,0 c 0,451 0,902 0,1353 z" transform="matrix(-1,0,0,1,28277.901,-4710)" id="path19253" style="fill:#9d9e9e"></path><path d="m 24617,9004 499,0 0,-61 147,0 c 32,0 45,-28 58,-58 l 32,-76 0,-318 -32,-76 c -12,-29 -26,-58 -58,-58 l -147,0 0,-64 147,0 c 32,0 45,-28 58,-58 l 32,-76 0,-318 -32,-76 c -12,-29 -26,-58 -58,-58 l -147,0 0,-60 -499,0 c 0,451 0,902 0,1353 z" transform="matrix(-1,0,0,1,28277.901,-4710)" id="path19255" style="fill:#9d9e9e"></path><path d="m 23447,9004 499,0 0,-61 147,0 c 32,0 45,-28 58,-58 l 32,-76 0,-318 -32,-76 c -12,-29 -26,-58 -58,-58 l -147,0 0,-64 147,0 c 32,0 45,-28 58,-58 l 32,-76 0,-318 -32,-76 c -12,-29 -26,-58 -58,-58 l -147,0 0,-60 -499,0 c 0,451 0,902 0,1353 z" transform="matrix(-1,0,0,1,28277.901,-4710)" id="path19257" style="fill:#9d9e9e"></path><path d="m 25742,8945 479,0 c 19,-45 37,-90 56,-134 l 0,-318 -57,-134 -478,0 c -96,189 -105,384 0,586 z" transform="matrix(-1,0,0,1,28277.901,-4710)" id="s19" style="fill:#dedfe0"></path><path d="m 24552,8945 479,0 c 19,-45 37,-90 56,-134 l 0,-318 -57,-134 -478,0 c -96,189 -105,384 0,586 z" transform="matrix(-1,0,0,1,28277.901,-4710)" id="s15" style="fill:#dedfe0" number="15" type="seat"></path><path d="m 23382,8945 479,0 c 19,-45 37,-90 56,-134 l 0,-318 -57,-134 -478,0 c -96,189 -105,384 0,586 z" transform="matrix(-1,0,0,1,28277.901,-4710)" id="s11" style="fill:#dedfe0"></path><path d="m 26393,8912 c 28,0 41,-25 51,-51 l 28,-68 0,-283 -28,-68 c -11,-26 -23,-51 -51,-51 -26,0 -58,16 -43,51 l 28,68 0,283 -28,68 c -15,36 17,51 43,51 z" transform="matrix(-1,0,0,1,28277.901,-4710)" id="path19265" style="fill:#d9dada"></path><path d="m 25203,8912 c 28,0 41,-25 51,-51 l 28,-68 0,-283 -28,-68 c -11,-26 -23,-51 -51,-51 -26,0 -58,16 -43,51 l 28,68 0,283 -28,68 c -15,36 17,51 43,51 z" transform="matrix(-1,0,0,1,28277.901,-4710)" id="path19267" style="fill:#d9dada"></path><path d="m 24033,8912 c 28,0 41,-25 51,-51 l 28,-68 0,-283 -28,-68 c -11,-26 -23,-51 -51,-51 -26,0 -58,16 -43,51 l 28,68 0,283 -28,68 c -15,36 17,51 43,51 z" transform="matrix(-1,0,0,1,28277.901,-4710)" id="path19269" style="fill:#d9dada"></path><path d="m 25742,8297 479,0 c 19,-45 37,-90 56,-134 l 0,-318 -57,-134 -478,0 c -96,189 -105,384 0,586 z" transform="matrix(-1,0,0,1,28277.901,-4710)" id="s20" style="fill:#dedfe0" number="20" type="seat"></path><path d="m 24552,8297 479,0 c 19,-45 37,-90 56,-134 l 0,-318 -57,-134 -478,0 c -96,189 -105,384 0,586 z" transform="matrix(-1,0,0,1,28277.901,-4710)" id="s16" style="fill:#dedfe0" number="16" type="seat"></path><path d="m 23382,8297 479,0 c 19,-45 37,-90 56,-134 l 0,-318 -57,-134 -478,0 c -96,189 -105,384 0,586 z" transform="matrix(-1,0,0,1,28277.901,-4710)" id="s12" style="fill:#dedfe0" number="12" type="seat" hover=""></path><path d="m 26393,8264 c 28,0 41,-25 51,-51 l 28,-68 0,-283 -28,-68 c -11,-26 -23,-51 -51,-51 -26,0 -58,16 -43,51 l 28,68 0,283 -28,68 c -15,36 17,51 43,51 z" transform="matrix(-1,0,0,1,28277.901,-4710)" id="path19277" style="fill:#d9dada"></path><path d="m 25203,8264 c 28,0 41,-25 51,-51 l 28,-68 0,-283 -28,-68 c -11,-26 -23,-51 -51,-51 -26,0 -58,16 -43,51 l 28,68 0,283 -28,68 c -15,36 17,51 43,51 z" transform="matrix(-1,0,0,1,28277.901,-4710)" id="path19279" style="fill:#d9dada"></path><path d="m 24033,8264 c 28,0 41,-25 51,-51 l 28,-68 0,-283 -28,-68 c -11,-26 -23,-51 -51,-51 -26,0 -58,16 -43,51 l 28,68 0,283 -28,68 c -15,36 17,51 43,51 z" transform="matrix(-1,0,0,1,28277.901,-4710)" id="path19281" style="fill:#d9dada"></path><path d="m 22568,9030 595,0 0,-1037 c 0,-164 -134,-298 -298,-298 -164,0 -298,134 -298,298 l 0,1037 z" transform="matrix(-1,0,0,1,28277.901,-4710)" id="path19283" style="fill:#9d9e9e"></path><path d="m 25954,8164 0,-62 -122,0 0,-1 30,-25 c 47,-41 85,-84 85,-139 0,-58 -40,-100 -113,-100 -43,0 -81,15 -105,33 l 21,53 c 17,-12 41,-26 69,-26 37,0 52,21 52,47 -1,38 -35,74 -105,137 l -41,37 0,45 228,0 z m 144,-326 c -83,0 -122,73 -122,166 0,91 37,165 120,165 81,0 122,-69 122,-167 0,-88 -34,-164 -120,-164 z m -1,57 c 30,0 45,38 45,109 0,73 -16,110 -45,110 -29,0 -46,-35 -46,-109 0,-75 19,-110 46,-110 z" transform="translate(-23665.099,-4710)" id="n20" style="fill:#fefefe;fill-rule:nonzero" number="20" type="number"></path><path d="m 24620,8164 73,0 0,-321 -62,0 -85,40 12,56 61,-29 1,0 0,254 z m 363,-325 c -7,0 -16,-1 -30,1 -50,2 -92,18 -123,47 -35,33 -57,83 -57,143 0,77 42,140 128,140 69,0 118,-52 118,-116 0,-67 -45,-105 -99,-105 -30,0 -52,9 -68,25 l -1,0 c 8,-37 38,-71 105,-77 12,-1 21,-1 29,-1 l 0,-58 z m -84,276 c -35,0 -51,-31 -52,-65 0,-9 1,-15 3,-19 7,-16 24,-28 44,-28 32,0 48,26 48,55 0,33 -17,57 -43,57 z" transform="translate(-21286.099,-4710)" id="n16" style="fill:#fefefe;fill-rule:nonzero" number="16" type="number"></path><path d="m 23456,8161 73,0 0,-321 -62,0 -85,40 12,56 61,-29 1,0 0,254 z m 387,0 0,-62 -122,0 0,-1 30,-25 c 47,-41 85,-84 85,-139 0,-58 -40,-100 -113,-100 -43,0 -81,15 -105,33 l 21,53 c 17,-12 41,-26 69,-26 37,0 52,21 52,47 -1,38 -35,74 -105,137 l -41,37 0,45 228,0 z" transform="translate(-18946.099,-4710)" id="n12" style="fill:#fefefe;fill-rule:nonzero" number="12" type="number" hover=""></path><path d="m 25812,8812 73,0 0,-321 -62,0 -85,40 12,56 61,-29 1,0 0,254 z m 182,4 c 8,1 22,1 34,0 50,-2 92,-17 123,-44 35,-33 56,-81 56,-148 0,-75 -39,-138 -121,-138 -71,0 -121,53 -121,116 0,63 45,100 100,100 29,0 50,-8 65,-23 l 1,0 c -5,24 -19,45 -41,60 -17,12 -40,18 -63,20 -15,0 -23,1 -33,0 l 0,58 z m 89,-276 c 35,0 48,34 47,68 0,9 -1,14 -3,19 -7,11 -21,21 -42,21 -30,0 -45,-24 -45,-51 0,-34 18,-56 43,-56 z" transform="translate(-23665.099,-4710)" id="n19" style="fill:#fefefe;fill-rule:nonzero"></path><path d="m 24626,8812 73,0 0,-321 -62,0 -85,40 12,56 61,-29 1,0 0,254 z m 373,-321 -177,0 -21,168 c 13,-2 25,-3 43,-3 64,0 90,20 90,53 0,34 -33,49 -64,49 -29,0 -58,-9 -72,-16 l -14,56 c 18,9 50,18 89,18 86,0 138,-53 138,-113 0,-38 -15,-64 -39,-81 -22,-16 -54,-23 -84,-23 -8,0 -14,0 -21,1 l 7,-49 124,0 0,-62 z" transform="translate(-21286.099,-4710)" id="n15" style="fill:#fefefe;fill-rule:nonzero" number="15" type="number"></path><path d="m 23486,8812 73,0 0,-321 -62,0 -85,40 12,56 61,-29 1,0 0,254 z m 254,0 73,0 0,-321 -62,0 -85,40 12,56 61,-29 1,0 0,254 z" transform="translate(-18946.099,-4710)" id="n11" style="fill:#fefefe;fill-rule:nonzero"></path><path d="m 21071,8167 0,-77 38,0 0,-56 -38,0 0,-188 -92,0 -121,196 0,49 142,0 0,77 71,0 z m -144,-133 0,-1 42,-70 c 11,-20 20,-39 30,-60 l 1,0 c -1,21 -2,41 -2,60 l 0,71 -73,0 z" transform="translate(-13689.099,-4710)" id="n4" style="fill:#fefefe;fill-rule:nonzero"></path><path d="m 20870,8795 c 19,11 54,22 95,22 81,0 131,-41 131,-98 0,-42 -31,-72 -70,-79 l 0,-1 c 40,-13 59,-41 59,-75 0,-44 -38,-80 -106,-80 -42,0 -80,12 -99,24 l 15,54 c 13,-8 41,-19 67,-19 32,0 47,14 47,34 0,27 -32,37 -57,37 l -30,0 0,54 31,0 c 33,0 65,14 65,46 0,24 -20,42 -59,42 -31,0 -61,-12 -75,-20 l -15,57 z" transform="translate(-13689.099,-4710)" id="n3" style="fill:#fefefe;fill-rule:nonzero"></path><path d="m 21970,8000 c -35,15 -57,42 -57,81 0,43 38,89 119,89 75,0 123,-40 123,-98 0,-41 -28,-68 -59,-80 l 0,-1 c 32,-16 47,-43 47,-71 0,-39 -31,-82 -106,-82 -64,0 -113,36 -113,90 0,28 15,54 46,71 l 0,1 z m 65,118 c -28,0 -46,-22 -45,-45 0,-23 14,-41 39,-48 29,8 50,25 50,53 0,23 -18,40 -44,40 z m -1,-229 c 28,0 39,20 39,40 0,20 -15,36 -33,41 -26,-8 -45,-22 -45,-43 0,-20 13,-37 39,-37 z" transform="translate(-15792.099,-4710)" id="n8" style="fill:#fefefe;fill-rule:nonzero" number="8" type="number"></path><path d="m 22015,8812 132,-273 0,-48 -227,0 0,62 148,0 0,1 -133,258 z" transform="translate(-15792.099,-4710)" id="n7" style="fill:#fefefe;fill-rule:nonzero"></path><path d="m 21149,6293 -499,0 0,-61 -147,0 c -32,0 -45,-28 -58,-58 l -32,-76 0,-318 32,-76 c 12,-29 26,-58 58,-58 l 147,0 0,-64 -147,0 c -32,0 -45,-28 -58,-58 l -32,-76 0,-318 32,-76 c 12,-29 26,-58 58,-58 l 147,0 0,-60 499,0 c 0,451 0,902 0,1353 z" transform="matrix(-1,0,0,1,28277.901,-4710)" id="path19305" style="fill:#9d9e9e"></path><path d="m 22199,6293 -499,0 0,-61 -147,0 c -32,0 -45,-28 -58,-58 l -32,-76 0,-318 32,-76 c 12,-29 26,-58 58,-58 l 147,0 0,-64 -147,0 c -32,0 -45,-28 -58,-58 l -32,-76 0,-318 32,-76 c 12,-29 26,-58 58,-58 l 147,0 0,-60 499,0 c 0,451 0,902 0,1353 z" transform="matrix(-1,0,0,1,28277.901,-4710)" id="path19307" style="fill:#9d9e9e"></path><path d="m 21214,6234 -479,0 c -19,-45 -37,-90 -56,-134 l 0,-318 57,-134 478,0 c 96,189 105,384 0,586 z" transform="matrix(-1,0,0,1,28277.901,-4710)" id="s2" style="fill:#dedfe0"></path><path d="m 14592,4914 0,1428 -6083,0 0,-1428 z" transform="matrix(-1,0,0,-1,28277.901,9232.9918)" id="polygon19311" style="fill:#f2f4f5"></path><path d="m 22264,6234 -479,0 c -19,-45 -37,-90 -56,-134 l 0,-318 57,-134 478,0 c 96,189 105,384 0,586 z" transform="matrix(-1,0,0,1,28277.901,-4710)" id="s6" style="fill:#dedfe0" number="6" type="seat"></path><path d="m 20563,6201 c -28,0 -41,-25 -51,-51 l -28,-68 0,-283 28,-68 c 11,-26 23,-51 51,-51 26,0 58,16 43,51 l -28,68 0,283 28,68 c 15,36 -17,51 -43,51 z" transform="matrix(-1,0,0,1,28277.901,-4710)" id="path19315" style="fill:#d9dada"></path><path d="m 21613,6201 c -28,0 -41,-25 -51,-51 l -28,-68 0,-283 28,-68 c 11,-26 23,-51 51,-51 26,0 58,16 43,51 l -28,68 0,283 28,68 c 15,36 -17,51 -43,51 z" transform="matrix(-1,0,0,1,28277.901,-4710)" id="path19317" style="fill:#d9dada"></path><path d="m 21214,5586 -479,0 c -19,-45 -37,-90 -56,-134 l 0,-318 57,-134 478,0 c 96,189 105,384 0,586 z" transform="matrix(-1,0,0,1,28277.901,-4710)" id="s1" style="fill:#dedfe0"></path><path d="m 22264,5586 -479,0 c -19,-45 -37,-90 -56,-134 l 0,-318 57,-134 478,0 c 96,189 105,384 0,586 z" transform="matrix(-1,0,0,1,28277.901,-4710)" id="s5" style="fill:#dedfe0" number="5" type="seat"></path><path d="m 20563,5553 c -28,0 -41,-25 -51,-51 l -28,-68 0,-283 28,-68 c 11,-26 23,-51 51,-51 26,0 58,16 43,51 l -28,68 0,283 28,68 c 15,36 -17,51 -43,51 z" transform="matrix(-1,0,0,1,28277.901,-4710)" id="path19323" style="fill:#d9dada"></path><path d="m 21613,5553 c -28,0 -41,-25 -51,-51 l -28,-68 0,-283 28,-68 c 11,-26 23,-51 51,-51 26,0 58,16 43,51 l -28,68 0,283 28,68 c 15,36 -17,51 -43,51 z" transform="matrix(-1,0,0,1,28277.901,-4710)" id="path19325" style="fill:#d9dada"></path><path d="m 25807,6293 499,0 0,-61 147,0 c 32,0 45,-28 58,-58 l 32,-76 0,-318 -32,-76 c -12,-29 -26,-58 -58,-58 l -147,0 0,-64 147,0 c 32,0 45,-28 58,-58 l 32,-76 0,-318 -32,-76 c -12,-29 -26,-58 -58,-58 l -147,0 0,-60 -499,0 c 0,451 0,902 0,1353 z" transform="matrix(-1,0,0,1,28277.901,-4710)" id="path19327" style="fill:#9d9e9e"></path><path d="m 24617,6293 499,0 0,-61 147,0 c 32,0 45,-28 58,-58 l 32,-76 0,-318 -32,-76 c -12,-29 -26,-58 -58,-58 l -147,0 0,-64 147,0 c 32,0 45,-28 58,-58 l 32,-76 0,-318 -32,-76 c -12,-29 -26,-58 -58,-58 l -147,0 0,-60 -499,0 c 0,451 0,902 0,1353 z" transform="matrix(-1,0,0,1,28277.901,-4710)" id="path19329" style="fill:#9d9e9e"></path><path d="m 23447,6293 499,0 0,-61 147,0 c 32,0 45,-28 58,-58 l 32,-76 0,-318 -32,-76 c -12,-29 -26,-58 -58,-58 l -147,0 0,-64 147,0 c 32,0 45,-28 58,-58 l 32,-76 0,-318 -32,-76 c -12,-29 -26,-58 -58,-58 l -147,0 0,-60 -499,0 c 0,451 0,902 0,1353 z" transform="matrix(-1,0,0,1,28277.901,-4710)" id="path19331" style="fill:#9d9e9e"></path><path d="m 25742,6234 479,0 c 19,-45 37,-90 56,-134 l 0,-318 -57,-134 -478,0 c -96,189 -105,384 0,586 z" transform="matrix(-1,0,0,1,28277.901,-4710)" id="s18" style="fill:#dedfe0" number="18" type="seat"></path><path d="m 24552,6234 479,0 c 19,-45 37,-90 56,-134 l 0,-318 -57,-134 -478,0 c -96,189 -105,384 0,586 z" transform="matrix(-1,0,0,1,28277.901,-4710)" id="s14" style="fill:#dedfe0" number="14" type="seat"></path><path d="m 23382,6234 479,0 c 19,-45 37,-90 56,-134 l 0,-318 -57,-134 -478,0 c -96,189 -105,384 0,586 z" transform="matrix(-1,0,0,1,28277.901,-4710)" id="s10" style="fill:#dedfe0"></path><path d="m 26393,6201 c 28,0 41,-25 51,-51 l 28,-68 0,-283 -28,-68 c -11,-26 -23,-51 -51,-51 -26,0 -58,16 -43,51 l 28,68 0,283 -28,68 c -15,36 17,51 43,51 z" transform="matrix(-1,0,0,1,28277.901,-4710)" id="path19339" style="fill:#d9dada"></path><path d="m 25203,6201 c 28,0 41,-25 51,-51 l 28,-68 0,-283 -28,-68 c -11,-26 -23,-51 -51,-51 -26,0 -58,16 -43,51 l 28,68 0,283 -28,68 c -15,36 17,51 43,51 z" transform="matrix(-1,0,0,1,28277.901,-4710)" id="path19341" style="fill:#d9dada"></path><path d="m 24033,6201 c 28,0 41,-25 51,-51 l 28,-68 0,-283 -28,-68 c -11,-26 -23,-51 -51,-51 -26,0 -58,16 -43,51 l 28,68 0,283 -28,68 c -15,36 17,51 43,51 z" transform="matrix(-1,0,0,1,28277.901,-4710)" id="path19343" style="fill:#d9dada"></path><path d="m 25742,5586 479,0 c 19,-45 37,-90 56,-134 l 0,-318 -57,-134 -478,0 c -96,189 -105,384 0,586 z" transform="matrix(-1,0,0,1,28277.901,-4710)" id="s17" style="fill:#dedfe0"></path><path d="m 24552,5586 479,0 c 19,-45 37,-90 56,-134 l 0,-318 -57,-134 -478,0 c -96,189 -105,384 0,586 z" transform="matrix(-1,0,0,1,28277.901,-4710)" id="s13" style="fill:#dedfe0"></path><path d="m 23382,5586 479,0 c 19,-45 37,-90 56,-134 l 0,-318 -57,-134 -478,0 c -96,189 -105,384 0,586 z" transform="matrix(-1,0,0,1,28277.901,-4710)" id="s9" style="fill:#dedfe0"></path><path d="m 26393,5553 c 28,0 41,-25 51,-51 l 28,-68 0,-283 -28,-68 c -11,-26 -23,-51 -51,-51 -26,0 -58,16 -43,51 l 28,68 0,283 -28,68 c -15,36 17,51 43,51 z" transform="matrix(-1,0,0,1,28277.901,-4710)" id="path19351" style="fill:#d9dada"></path><path d="m 25203,5553 c 28,0 41,-25 51,-51 l 28,-68 0,-283 -28,-68 c -11,-26 -23,-51 -51,-51 -26,0 -58,16 -43,51 l 28,68 0,283 -28,68 c -15,36 17,51 43,51 z" transform="matrix(-1,0,0,1,28277.901,-4710)" id="path19353" style="fill:#d9dada"></path><path d="m 24033,5553 c 28,0 41,-25 51,-51 l 28,-68 0,-283 -28,-68 c -11,-26 -23,-51 -51,-51 -26,0 -58,16 -43,51 l 28,68 0,283 -28,68 c -15,36 17,51 43,51 z" transform="matrix(-1,0,0,1,28277.901,-4710)" id="path19355" style="fill:#d9dada"></path><path d="m 22568,4914 595,0 0,1037 c 0,164 -134,298 -298,298 -164,0 -298,-134 -298,-298 l 0,-1037 z" transform="matrix(-1,0,0,1,28277.901,-4710)" id="path19357" style="fill:#9d9e9e"></path><path d="m 25815,5453 73,0 0,-321 -62,0 -85,40 12,56 61,-29 1,0 0,254 z m 162,-321 0,62 147,0 0,1 -132,258 80,0 132,-274 0,-47 -227,0 z" transform="translate(-23666.099,-4710)" id="n17" style="fill:#fefefe;fill-rule:nonzero"></path><path d="m 24627,5453 73,0 0,-321 -62,0 -85,40 12,56 61,-29 1,0 0,254 z m 156,-17 c 19,11 54,22 95,22 81,0 131,-41 131,-98 0,-42 -31,-72 -70,-79 l 0,-1 c 40,-13 59,-41 59,-75 0,-44 -38,-80 -106,-80 -42,0 -80,12 -99,24 l 15,54 c 13,-8 41,-19 67,-19 32,0 47,14 47,34 0,27 -32,37 -57,37 l -30,0 0,54 31,0 c 33,0 65,14 65,46 0,24 -20,42 -59,42 -31,0 -61,-12 -75,-20 l -15,57 z" transform="translate(-21286.099,-4710)" id="n13" style="fill:#fefefe;fill-rule:nonzero"></path><path d="m 23520,5455 c 8,1 22,1 34,0 50,-2 92,-17 123,-44 35,-33 56,-81 56,-148 0,-75 -39,-138 -121,-138 -71,0 -121,53 -121,116 0,63 45,100 100,100 29,0 50,-8 65,-23 l 1,0 c -5,24 -19,45 -41,60 -17,12 -40,18 -63,20 -15,0 -23,1 -33,0 l 0,58 z m 89,-276 c 35,0 48,34 47,68 0,9 -1,14 -3,19 -7,11 -21,21 -42,21 -30,0 -45,-24 -45,-51 0,-34 18,-56 43,-56 z" transform="translate(-18946.099,-4710)" id="n9" style="fill:#fefefe;fill-rule:nonzero"></path><path d="m 25811,6101 73,0 0,-321 -62,0 -85,40 12,56 61,-29 1,0 0,254 z m 211,-164 c -35,15 -57,42 -57,81 0,43 38,89 119,89 75,0 123,-40 123,-98 0,-41 -28,-68 -59,-80 l 0,-1 c 32,-16 47,-43 47,-71 0,-39 -31,-82 -106,-82 -64,0 -113,36 -113,90 0,28 15,54 46,71 l 0,1 z m 65,118 c -28,0 -46,-22 -45,-45 0,-23 14,-41 39,-48 29,8 50,25 50,53 0,23 -18,40 -44,40 z m -1,-229 c 28,0 39,20 39,40 0,20 -15,36 -33,41 -26,-8 -45,-22 -45,-43 0,-20 13,-37 39,-37 z" transform="translate(-23666.099,-4710)" id="n18" style="fill:#fefefe;fill-rule:nonzero" number="18" type="number"></path><path d="m 24619,6101 73,0 0,-321 -62,0 -85,40 12,56 61,-29 1,0 0,254 z m 362,0 0,-77 38,0 0,-56 -38,0 0,-188 -92,0 -121,196 0,49 142,0 0,77 71,0 z m -144,-133 0,-1 42,-70 c 11,-20 20,-39 30,-60 l 1,0 c -1,21 -2,41 -2,60 l 0,71 -73,0 z" transform="translate(-21286.099,-4710)" id="n14" style="fill:#fefefe;fill-rule:nonzero" number="14" type="number"></path><path d="m 23451,6101 73,0 0,-321 -62,0 -85,40 12,56 61,-29 1,0 0,254 z m 276,-326 c -83,0 -122,73 -122,166 0,91 37,165 120,165 81,0 122,-69 122,-167 0,-88 -34,-164 -120,-164 z m -1,57 c 30,0 45,38 45,109 0,73 -16,110 -45,110 -29,0 -46,-35 -46,-109 0,-75 19,-110 46,-110 z" transform="translate(-18946.099,-4710)" id="n10" style="fill:#fefefe;fill-rule:nonzero"></path><path d="m 20923,5230 61,-29 1,0 0,255 72,0 0,-321 -61,0 -86,39 z" transform="translate(-13689.099,-4710)" id="n1" style="fill:#fefefe;fill-rule:nonzero"></path><path d="m 21098,6101 0,-62 -122,0 0,-1 30,-25 c 47,-41 85,-84 85,-139 0,-58 -40,-100 -113,-100 -43,0 -81,15 -105,33 l 21,53 c 17,-12 41,-26 69,-26 37,0 52,21 52,47 -1,38 -35,74 -105,137 l -41,37 0,45 228,0 z" transform="translate(-13689.099,-4710)" id="n2" style="fill:#fefefe;fill-rule:nonzero"></path><path d="m 22135,5132 -177,0 -21,168 c 13,-2 25,-3 43,-3 64,0 90,20 90,53 0,34 -33,49 -64,49 -29,0 -58,-9 -72,-16 l -14,56 c 18,9 50,18 89,18 86,0 138,-53 138,-113 0,-38 -15,-64 -39,-81 -22,-16 -54,-23 -84,-23 -8,0 -14,0 -21,1 l 7,-49 124,0 0,-62 z" transform="translate(-15792.099,-4710)" id="n5" style="fill:#fefefe;fill-rule:nonzero" number="5" type="number"></path><path d="m 22122,5776 c -7,0 -16,-1 -30,1 -50,2 -92,18 -123,47 -35,33 -57,83 -57,143 0,77 42,140 128,140 69,0 118,-52 118,-116 0,-67 -45,-105 -99,-105 -30,0 -52,9 -68,25 l -1,0 c 8,-37 38,-71 105,-77 12,-1 21,-1 29,-1 l 0,-58 z m -84,276 c -35,0 -51,-31 -52,-65 0,-9 1,-15 3,-19 7,-16 24,-28 44,-28 32,0 48,26 48,55 0,33 -17,57 -43,57 z" transform="translate(-15792.099,-4710)" id="n6" style="fill:#fefefe;fill-rule:nonzero" number="6" type="number"></path><path d="m 5086,4928 c -2094,586 -2094,3500 0,4087 l 1136,85 1552,53 -2064,-362 -624,-644 0,-675 -273,-501 11,-1370 262,-674 z" transform="matrix(-1,0,0,-1,28277.901,9232.9918)" id="path19379" style="fill:#d9dada"></path><path d="m 5780,7182 -229,-547 -9,-697 273,-26 -26,-573 221,-256 996,-221 -1596,53 -379,741 -18,1173 264,529 1,988 432,445 70,-128 -238,-502 18,-873 z" transform="matrix(-1,0,0,-1,28277.901,9232.9918)" id="polygon19381" style="fill:#b2b3b3"></path><path d="m 5498,7415 0,702 -137,0 0,-702 z" transform="matrix(-1,0,0,-1,28277.901,9232.9918)" id="polygon19383" style="fill:#898989"></path><path d="m 5767,5854 -22,-458 -397,-190 -216,476 0,1138 220,484 353,-153 -216,-481 0,-802 z" transform="matrix(-1,0,0,-1,28277.901,9232.9918)" id="polygon19385" style="fill:#727271"></path><path d="m 7516,4914 20159,0 c 44,0 79,36 79,79 l 0,3958 c 0,44 -36,79 -79,79 l -20159,0 c -1782,0 -3453,-123 -5058,-752 -119,-47 -175,-158 -212,-318 -132,-580 -132,-1396 0,-1976 36,-159 93,-271 212,-318 1604,-629 3275,-752 5058,-752 z m 0,4320 20159,0 c 156,0 283,-128 283,-283 l 0,-3958 c 0,-156 -128,-283 -283,-283 l -20159,0 c -1877,0 -3686,205 -5173,877 -126,57 -198,196 -229,397 -116,750 -116,1227 0,1976 31,201 103,340 229,397 1487,672 3295,877 5173,877 z" transform="matrix(-1,0,0,1,28277.901,-4710)" id="path19387" style="fill:#0275d8"></path><path d="m 6527,5683 473,0 0,117 139,0 c 30,0 43,27 55,55 l 30,72 0,301 -30,72 c -11,28 -25,55 -55,55 l -139,0 0,117 -473,0 0,-788 z" transform="matrix(-1,0,0,-1,28277.901,9232.9918)" id="path19389" style="fill:#9d9e9e"></path><path d="m 6466,5799 454,0 c 18,42 35,85 53,127 l 0,301 -54,127 -453,0 c -91,-180 -100,-364 0,-556 z" transform="matrix(-1,0,0,-1,28277.901,9232.9918)" id="path19391" style="fill:#dedfe0"></path><path d="m 7082,5830 c 27,0 38,24 49,49 l 27,64 0,268 -27,64 c -10,25 -22,49 -49,49 -24,0 -55,-15 -41,-49 l 27,-64 0,-268 -27,-64 c -14,-34 17,-49 41,-49 z" transform="matrix(-1,0,0,-1,28277.901,9232.9918)" id="path19393" style="fill:#d9dada"></path><path d="m 6527,7540 473,0 0,117 139,0 c 30,0 43,27 55,55 l 30,72 0,301 -30,72 c -11,28 -25,55 -55,55 l -139,0 0,117 -473,0 0,-788 z" transform="matrix(-1,0,0,-1,28277.901,9232.9918)" id="path19395" style="fill:#9d9e9e"></path><path d="m 6466,7656 454,0 c 18,42 35,85 53,127 l 0,301 -54,127 -453,0 c -91,-180 -100,-364 0,-556 z" transform="matrix(-1,0,0,-1,28277.901,9232.9918)" id="path19397" style="fill:#dedfe0"></path><path d="m 7082,7687 c 27,0 38,24 49,49 l 27,64 0,268 -27,64 c -10,25 -22,49 -49,49 -24,0 -55,-15 -41,-49 l 27,-64 0,-268 -27,-64 c -14,-34 17,-49 41,-49 z" transform="matrix(-1,0,0,-1,28277.901,9232.9918)" id="path19399" style="fill:#d9dada"></path><path d="m 8562,6342 -106,0 0,-1429 106,0 0,1429 z m 0,2688 -106,0 0,-1611 106,0 0,1611 z" transform="matrix(-1,0,0,-1,28277.901,9232.9918)" id="path19401" style="fill:#0275d8"></path>
<g transform="translate(-9821,-9059.5)" id="_1226007552"><polygon points="9821,10334 9861,10285 9901,10334 9941,10285 9982,10334 10022,10285 10062,10334 10102,10285 10142,10334 10142,12309 10102,12358 10062,12309 10022,12358 9982,12309 9941,12358 9901,12309 9861,12358 9821,12309 " id="polygon25759" style="fill:#9d9e9e"></polygon><polygon points="9901,12309 9861,12358 9856,12352 9856,10292 9856,10292 9866,10292 9901,10334 " id="polygon25761" style="fill:#b2b3b3"></polygon><polygon points="10062,12309 10022,12358 10017,12352 10017,10292 10017,10292 10027,10292 10062,10334 " id="polygon25763" style="fill:#b2b3b3"></polygon><polygon points="9982,12309 9941,12358 9936,12352 9936,10292 9936,10292 9946,10292 9982,10334 " id="polygon25765" style="fill:#b2b3b3"></polygon><polygon points="10142,12309 10102,12358 10097,12352 10097,10292 10097,10292 10107,10292 10142,10334 " id="polygon25767" style="fill:#b2b3b3"></polygon></g>
     </svg>