<svg xmlns:dc="http://purl.org/dc/elements/1.1/" xmlns:cc="http://creativecommons.org/ns#" xmlns:rdf="http://www.w3.org/1999/02/22-rdf-syntax-ns#" xmlns:svg="http://www.w3.org/2000/svg" xmlns="http://www.w3.org/2000/svg" version="1.1" width="1050.2234" height="160.29921" viewBox="0 0 29639.639 4524" id="svg22028" xml:space="preserve" style="fill-rule:evenodd"><metadata id="metadata22526"><rdf:rdf><cc:work rdf:about=""><dc:format>image/svg+xml</dc:format><dc:type rdf:resource="http://purl.org/dc/dcmitype/StillImage"></dc:type><dc:title></dc:title></cc:work></rdf:rdf></metadata><defs id="defs22524">
 </defs>
 <path d="m 1730,8006 1773,0 0,-1028 c 0,-361 -607,-557 -1056,-370 -437,182 -717,739 -717,1057 l 0,341 z" transform="translate(36.2572,-3679)" id="path22032" style="fill:#f2f4f5"></path><path d="m 570,3883 28432,0 c 44,0 79,36 79,79 l 0,3958 c 0,44 -36,79 -79,79 l -28432,0 c -44,0 -79,-36 -79,-79 l 0,-3958 c 0,-44 36,-79 79,-79 z m 0,-204 28432,0 c 156,0 283,128 283,283 l 0,3958 c 0,156 -128,283 -283,283 l -28432,0 c -156,0 -283,-128 -283,-283 l 0,-3958 c 0,-156 128,-283 283,-283 z" transform="translate(36.2572,-3679)" id="path22034" style="fill:#0275d8"></path><path d="m 1729,8006 1775,0 0,-1028 c 0,-361 -608,-557 -1057,-370 -438,182 -717,739 -717,1057 l 0,341 z m 30,-30 1715,0 0,-998 c 0,-32 -5,-63 -16,-94 -52,-147 -214,-236 -355,-278 -185,-55 -397,-53 -580,6 -22,7 -43,15 -65,24 -138,58 -259,153 -358,264 -169,188 -341,507 -341,765 l 0,311 z" transform="translate(36.2572,-3679)" id="path22036" style="fill:#9d9e9e"></path><path d="m 3396,7436 -273,473 -234,-135 273,-473 234,135 z m -294,-170 -273,473 -272,-157 c -124,-72 -167,-232 -96,-356 l 12,-21 c 72,-124 232,-167 356,-96 l 272,157 z m -183,49 -156,-90 c -60,-35 -139,-14 -173,46 l -12,21 c -35,60 -14,139 46,173 l 156,90 139,-241 z" transform="translate(36.2572,-3679)" id="path22038" style="fill:#c2c7cc"></path><path d="m 2375,5421 -106,0 0,-1539 106,0 0,1539 z m -106,1285 0,-247 106,0 0,180 c -37,20 -72,42 -106,67 z" transform="translate(36.2572,-3679)" id="path22040" style="fill:#0275d8"></path><path d="m 27758,3882 -1773,0 0,1028 c 0,361 607,557 1056,370 437,-182 717,-739 717,-1057 l 0,-341 z" transform="translate(36.2572,-3679)" id="path22046" style="fill:#f2f4f5"></path><path d="m 27760,3882 -1775,0 0,1028 c 0,361 608,557 1057,370 438,-182 717,-739 717,-1057 l 0,-341 z m -30,30 -1715,0 0,998 c 0,32 5,63 16,94 52,147 214,236 355,278 185,55 397,53 580,-6 22,-7 43,-15 65,-24 138,-58 259,-153 358,-264 169,-188 341,-507 341,-765 l 0,-311 z" transform="translate(36.2572,-3679)" id="path22048" style="fill:#9d9e9e"></path><path d="m 26093,4453 273,-473 234,135 -273,473 -234,-135 z m 294,170 273,-473 272,157 c 124,72 167,232 96,356 l -12,21 c -72,124 -232,167 -356,96 l -272,-157 z m 183,-49 156,90 c 60,35 139,14 173,-46 l 12,-21 c 35,-60 14,-139 -46,-173 l -156,-90 -139,241 z" transform="translate(36.2572,-3679)" id="path22050" style="fill:#c2c7cc"></path><path d="m 27113,6468 106,0 0,1539 -106,0 0,-1539 z m 106,-1285 0,247 -106,0 0,-180 c 37,-20 72,-42 106,-67 z" transform="translate(36.2572,-3679)" id="path22052" style="fill:#0275d8"></path><path d="m 2449,4828 c 7,-57 46,-88 90,-96 0,-21 0,-41 0,-62 -44,-9 -83,-39 -90,-96 -20,-164 -19,-319 0,-472 7,-57 46,-88 90,-96 l 0,-81 758,0 c 0,518 0,1036 0,1554 l -758,0 0,-81 c -44,-9 -83,-39 -90,-96 -19,-153 -20,-308 0,-472 z" transform="translate(36.2572,-3679)" id="path22054" style="fill:#9d9e9e"></path><path d="m 3699,4828 c 7,-57 46,-88 90,-96 0,-21 0,-41 0,-62 -44,-9 -83,-39 -90,-96 -20,-164 -19,-319 0,-472 7,-57 46,-88 90,-96 l 0,-81 758,0 c 0,518 0,1036 0,1554 l -758,0 0,-81 c -44,-9 -83,-39 -90,-96 -19,-153 -20,-308 0,-472 z" transform="translate(36.2572,-3679)" id="path22056" style="fill:#9d9e9e"></path><path d="m 4949,4828 c 7,-57 46,-88 90,-96 0,-21 0,-41 0,-62 -44,-9 -83,-39 -90,-96 -20,-164 -19,-319 0,-472 7,-57 46,-88 90,-96 l 0,-81 758,0 c 0,518 0,1036 0,1554 l -758,0 0,-81 c -44,-9 -83,-39 -90,-96 -19,-153 -20,-308 0,-472 z" transform="translate(36.2572,-3679)" id="path22058" style="fill:#9d9e9e"></path><path d="m 6199,4828 c 7,-57 46,-88 90,-96 0,-21 0,-41 0,-62 -44,-9 -83,-39 -90,-96 -20,-164 -19,-319 0,-472 7,-57 46,-88 90,-96 l 0,-81 758,0 c 0,518 0,1036 0,1554 l -758,0 0,-81 c -44,-9 -83,-39 -90,-96 -19,-153 -20,-308 0,-472 z" transform="translate(36.2572,-3679)" id="path22060" style="fill:#9d9e9e"></path><path d="m 7449,4828 c 7,-57 46,-88 90,-96 0,-21 0,-41 0,-62 -44,-9 -83,-39 -90,-96 -20,-164 -19,-319 0,-472 7,-57 46,-88 90,-96 l 0,-81 758,0 c 0,518 0,1036 0,1554 l -758,0 0,-81 c -44,-9 -83,-39 -90,-96 -19,-153 -20,-308 0,-472 z" transform="translate(36.2572,-3679)" id="path22062" style="fill:#9d9e9e"></path><path d="m 2648,5313 c -19,54 -148,74 -159,-18 -6,-52 -31,-162 69,-125 24,9 103,103 90,143 z m 0,-499 c -19,-54 -148,-74 -159,18 -6,52 -31,162 69,125 24,-9 103,-103 90,-143 z m -33,134 7,0 c 24,80 23,160 1,239 -34,-40 -98,-82 -146,-39 l 0,-170 c 43,39 104,7 138,-30 z" transform="translate(36.2572,-3679)" id="path22064" style="fill:#dedfe0"></path><path d="m 3898,5313 c -19,54 -148,74 -159,-18 -6,-52 -31,-162 69,-125 24,9 103,103 90,143 z m 0,-499 c -19,-54 -148,-74 -159,18 -6,52 -31,162 69,125 24,-9 103,-103 90,-143 z m -33,134 7,0 c 24,80 23,160 1,239 -34,-40 -98,-82 -146,-39 l 0,-170 c 43,39 104,7 138,-30 z" transform="translate(36.2572,-3679)" id="path22066" style="fill:#dedfe0"></path><path d="m 5148,5313 c -19,54 -148,74 -159,-18 -6,-52 -31,-162 69,-125 24,9 103,103 90,143 z m 0,-499 c -19,-54 -148,-74 -159,18 -6,52 -31,162 69,125 24,-9 103,-103 90,-143 z m -33,134 7,0 c 24,80 23,160 1,239 -34,-40 -98,-82 -146,-39 l 0,-170 c 43,39 104,7 138,-30 z" transform="translate(36.2572,-3679)" id="path22068" style="fill:#dedfe0"></path><path d="m 6398,5313 c -19,54 -148,74 -159,-18 -6,-52 -31,-162 69,-125 24,9 103,103 90,143 z m 0,-499 c -19,-54 -148,-74 -159,18 -6,52 -31,162 69,125 24,-9 103,-103 90,-143 z m -33,134 7,0 c 24,80 23,160 1,239 -34,-40 -98,-82 -146,-39 l 0,-170 c 43,39 104,7 138,-30 z" transform="translate(36.2572,-3679)" id="path22070" style="fill:#dedfe0"></path><path d="m 7648,5313 c -19,54 -148,74 -159,-18 -6,-52 -31,-162 69,-125 24,9 103,103 90,143 z m 0,-499 c -19,-54 -148,-74 -159,18 -6,52 -31,162 69,125 24,-9 103,-103 90,-143 z m -33,134 7,0 c 24,80 23,160 1,239 -34,-40 -98,-82 -146,-39 l 0,-170 c 43,39 104,7 138,-30 z" transform="translate(36.2572,-3679)" id="path22072" style="fill:#dedfe0"></path><path d="m 3282,4772 c 171,0 159,631 0,631 -218,0 -437,0 -655,0 l 188,-37 c -55,-75 -61,-475 0,-556 l -187,-37 655,0 z" transform="translate(36.2572,-3679)" id="s2" style="fill:#dedfe0" number="2" type="seat" hover=""></path><path d="m 4532,4772 c 171,0 159,631 0,631 -218,0 -437,0 -655,0 l 188,-37 c -55,-75 -61,-475 0,-556 l -187,-37 655,0 z" transform="translate(36.2572,-3679)" id="s4" style="fill:#dedfe0" number="4" type="seat"></path><path d="m 5782,4772 c 171,0 159,631 0,631 -218,0 -437,0 -655,0 l 188,-37 c -55,-75 -61,-475 0,-556 l -187,-37 655,0 z" transform="translate(36.2572,-3679)" id="s8" style="fill:#dedfe0" number="8" type="seat"></path><path d="m 7032,4772 c 171,0 159,631 0,631 -218,0 -437,0 -655,0 l 188,-37 c -55,-75 -61,-475 0,-556 l -187,-37 655,0 z" transform="translate(36.2572,-3679)" id="s12" style="fill:#dedfe0" number="12" type="seat"></path><path d="m 8282,4772 c 171,0 159,631 0,631 -218,0 -437,0 -655,0 l 188,-37 c -55,-75 -61,-475 0,-556 l -187,-37 655,0 z" transform="translate(36.2572,-3679)" id="s16" style="fill:#dedfe0" number="16" type="seat"></path><path d="m 2648,4087 c -19,-54 -148,-74 -159,18 -6,52 -31,162 69,125 24,-9 103,-103 90,-143 z m 0,499 c -19,54 -148,74 -159,-18 -6,-52 -31,-162 69,-125 24,9 103,103 90,143 z m -33,-134 7,0 c 24,-80 23,-160 1,-239 -34,40 -98,82 -146,39 l 0,170 c 43,-39 104,-7 138,30 z" transform="translate(36.2572,-3679)" id="path22084" style="fill:#dedfe0"></path><path d="m 3898,4087 c -19,-54 -148,-74 -159,18 -6,52 -31,162 69,125 24,-9 103,-103 90,-143 z m 0,499 c -19,54 -148,74 -159,-18 -6,-52 -31,-162 69,-125 24,9 103,103 90,143 z m -33,-134 7,0 c 24,-80 23,-160 1,-239 -34,40 -98,82 -146,39 l 0,170 c 43,-39 104,-7 138,30 z" transform="translate(36.2572,-3679)" id="path22086" style="fill:#dedfe0"></path><path d="m 5148,4087 c -19,-54 -148,-74 -159,18 -6,52 -31,162 69,125 24,-9 103,-103 90,-143 z m 0,499 c -19,54 -148,74 -159,-18 -6,-52 -31,-162 69,-125 24,9 103,103 90,143 z m -33,-134 7,0 c 24,-80 23,-160 1,-239 -34,40 -98,82 -146,39 l 0,170 c 43,-39 104,-7 138,30 z" transform="translate(36.2572,-3679)" id="path22088" style="fill:#dedfe0"></path><path d="m 6398,4087 c -19,-54 -148,-74 -159,18 -6,52 -31,162 69,125 24,-9 103,-103 90,-143 z m 0,499 c -19,54 -148,74 -159,-18 -6,-52 -31,-162 69,-125 24,9 103,103 90,143 z m -33,-134 7,0 c 24,-80 23,-160 1,-239 -34,40 -98,82 -146,39 l 0,170 c 43,-39 104,-7 138,30 z" transform="translate(36.2572,-3679)" id="path22090" style="fill:#dedfe0"></path><path d="m 7648,4087 c -19,-54 -148,-74 -159,18 -6,52 -31,162 69,125 24,-9 103,-103 90,-143 z m 0,499 c -19,54 -148,74 -159,-18 -6,-52 -31,-162 69,-125 24,9 103,103 90,143 z m -33,-134 7,0 c 24,-80 23,-160 1,-239 -34,40 -98,82 -146,39 l 0,170 c 43,-39 104,-7 138,30 z" transform="translate(36.2572,-3679)" id="path22092" style="fill:#dedfe0"></path><path d="m 3282,4629 c 171,0 159,-631 0,-631 -218,0 -437,0 -655,0 l 188,37 c -55,75 -61,475 0,556 l -187,37 655,0 z" transform="translate(36.2572,-3679)" id="s1" style="fill:#dedfe0" number="1" type="seat"></path><path d="m 4532,4629 c 171,0 159,-631 0,-631 -218,0 -437,0 -655,0 l 188,37 c -55,75 -61,475 0,556 l -187,37 655,0 z" transform="translate(36.2572,-3679)" id="s3" style="fill:#dedfe0" number="3" type="seat"></path><path d="m 5782,4629 c 171,0 159,-631 0,-631 -218,0 -437,0 -655,0 l 188,37 c -55,75 -61,475 0,556 l -187,37 655,0 z" transform="translate(36.2572,-3679)" id="s7" style="fill:#dedfe0" number="7" type="seat"></path><path d="m 7032,4629 c 171,0 159,-631 0,-631 -218,0 -437,0 -655,0 l 188,37 c -55,75 -61,475 0,556 l -187,37 655,0 z" transform="translate(36.2572,-3679)" id="s11" style="fill:#dedfe0" number="11" type="seat"></path><path d="m 8282,4629 c 171,0 159,-631 0,-631 -218,0 -437,0 -655,0 l 188,37 c -55,75 -61,475 0,556 l -187,37 655,0 z" transform="translate(36.2572,-3679)" id="s15" style="fill:#dedfe0" number="15" type="seat"></path><path d="m 14113,4828 c -7,-57 -46,-88 -90,-96 0,-21 0,-41 0,-62 44,-9 83,-39 90,-96 20,-164 19,-319 0,-472 -7,-57 -46,-88 -90,-96 l 0,-81 -758,0 c 0,518 0,1036 0,1554 l 758,0 0,-81 c 44,-9 83,-39 90,-96 19,-153 20,-308 0,-472 z" transform="translate(36.2572,-3679)" id="path22104" style="fill:#9d9e9e"></path><path d="m 12863,4828 c -7,-57 -46,-88 -90,-96 0,-21 0,-41 0,-62 44,-9 83,-39 90,-96 20,-164 19,-319 0,-472 -7,-57 -46,-88 -90,-96 l 0,-81 -758,0 c 0,518 0,1036 0,1554 l 758,0 0,-81 c 44,-9 83,-39 90,-96 19,-153 20,-308 0,-472 z" transform="translate(36.2572,-3679)" id="path22106" style="fill:#9d9e9e"></path><path d="m 11613,4828 c -7,-57 -46,-88 -90,-96 0,-21 0,-41 0,-62 44,-9 83,-39 90,-96 20,-164 19,-319 0,-472 -7,-57 -46,-88 -90,-96 l 0,-81 -758,0 c 0,518 0,1036 0,1554 l 758,0 0,-81 c 44,-9 83,-39 90,-96 19,-153 20,-308 0,-472 z" transform="translate(36.2572,-3679)" id="path22108" style="fill:#9d9e9e"></path><path d="m 10363,4828 c -7,-57 -46,-88 -90,-96 0,-21 0,-41 0,-62 44,-9 83,-39 90,-96 20,-164 19,-319 0,-472 -7,-57 -46,-88 -90,-96 l 0,-81 -758,0 c 0,518 0,1036 0,1554 l 758,0 0,-81 c 44,-9 83,-39 90,-96 19,-153 20,-308 0,-472 z" transform="translate(36.2572,-3679)" id="path22110" style="fill:#9d9e9e"></path><path d="m 13914,5313 c 19,54 148,74 159,-18 6,-52 31,-162 -69,-125 -24,9 -103,103 -90,143 z m 0,-499 c 19,-54 148,-74 159,18 6,52 31,162 -69,125 -24,-9 -103,-103 -90,-143 z m 33,134 -7,0 c -24,80 -23,160 -1,239 34,-40 98,-82 146,-39 l 0,-170 c -43,39 -104,7 -138,-30 z" transform="translate(36.2572,-3679)" id="path22112" style="fill:#dedfe0"></path><path d="m 12664,5313 c 19,54 148,74 159,-18 6,-52 31,-162 -69,-125 -24,9 -103,103 -90,143 z m 0,-499 c 19,-54 148,-74 159,18 6,52 31,162 -69,125 -24,-9 -103,-103 -90,-143 z m 33,134 -7,0 c -24,80 -23,160 -1,239 34,-40 98,-82 146,-39 l 0,-170 c -43,39 -104,7 -138,-30 z" transform="translate(36.2572,-3679)" id="path22114" style="fill:#dedfe0"></path><path d="m 11414,5313 c 19,54 148,74 159,-18 6,-52 31,-162 -69,-125 -24,9 -103,103 -90,143 z m 0,-499 c 19,-54 148,-74 159,18 6,52 31,162 -69,125 -24,-9 -103,-103 -90,-143 z m 33,134 -7,0 c -24,80 -23,160 -1,239 34,-40 98,-82 146,-39 l 0,-170 c -43,39 -104,7 -138,-30 z" transform="translate(36.2572,-3679)" id="path22116" style="fill:#dedfe0"></path><path d="m 10164,5313 c 19,54 148,74 159,-18 6,-52 31,-162 -69,-125 -24,9 -103,103 -90,143 z m 0,-499 c 19,-54 148,-74 159,18 6,52 31,162 -69,125 -24,-9 -103,-103 -90,-143 z m 33,134 -7,0 c -24,80 -23,160 -1,239 34,-40 98,-82 146,-39 l 0,-170 c -43,39 -104,7 -138,-30 z" transform="translate(36.2572,-3679)" id="path22118" style="fill:#dedfe0"></path><path d="m 13280,4772 c -171,0 -159,631 0,631 218,0 437,0 655,0 l -188,-37 c 55,-75 61,-475 0,-556 l 187,-37 -655,0 z" transform="translate(36.2572,-3679)" id="s32" style="fill:#dedfe0" number="32" type="seat"></path><path d="m 12030,4772 c -171,0 -159,631 0,631 218,0 437,0 655,0 l -188,-37 c 55,-75 61,-475 0,-556 l 187,-37 -655,0 z" transform="translate(36.2572,-3679)" id="s28" style="fill:#dedfe0" number="28" type="seat" hover=""></path><path d="m 10780,4772 c -171,0 -159,631 0,631 218,0 437,0 655,0 l -188,-37 c 55,-75 61,-475 0,-556 l 187,-37 -655,0 z" transform="translate(36.2572,-3679)" id="s24" style="fill:#dedfe0"></path><path d="m 9530,4772 c -171,0 -159,631 0,631 218,0 437,0 655,0 l -188,-37 c 55,-75 61,-475 0,-556 l 187,-37 -655,0 z" transform="translate(36.2572,-3679)" id="s20" style="fill:#dedfe0" number="20" type="seat" hover=""></path><path d="m 13914,4087 c 19,-54 148,-74 159,18 6,52 31,162 -69,125 -24,-9 -103,-103 -90,-143 z m 0,499 c 19,54 148,74 159,-18 6,-52 31,-162 -69,-125 -24,9 -103,103 -90,143 z m 33,-134 -7,0 c -24,-80 -23,-160 -1,-239 34,40 98,82 146,39 l 0,170 c -43,-39 -104,-7 -138,30 z" transform="translate(36.2572,-3679)" id="path22128" style="fill:#dedfe0"></path><path d="m 12664,4087 c 19,-54 148,-74 159,18 6,52 31,162 -69,125 -24,-9 -103,-103 -90,-143 z m 0,499 c 19,54 148,74 159,-18 6,-52 31,-162 -69,-125 -24,9 -103,103 -90,143 z m 33,-134 -7,0 c -24,-80 -23,-160 -1,-239 34,40 98,82 146,39 l 0,170 c -43,-39 -104,-7 -138,30 z" transform="translate(36.2572,-3679)" id="path22130" style="fill:#dedfe0"></path><path d="m 11414,4087 c 19,-54 148,-74 159,18 6,52 31,162 -69,125 -24,-9 -103,-103 -90,-143 z m 0,499 c 19,54 148,74 159,-18 6,-52 31,-162 -69,-125 -24,9 -103,103 -90,143 z m 33,-134 -7,0 c -24,-80 -23,-160 -1,-239 34,40 98,82 146,39 l 0,170 c -43,-39 -104,-7 -138,30 z" transform="translate(36.2572,-3679)" id="path22132" style="fill:#dedfe0"></path><path d="m 10164,4087 c 19,-54 148,-74 159,18 6,52 31,162 -69,125 -24,-9 -103,-103 -90,-143 z m 0,499 c 19,54 148,74 159,-18 6,-52 31,-162 -69,-125 -24,9 -103,103 -90,143 z m 33,-134 -7,0 c -24,-80 -23,-160 -1,-239 34,40 98,82 146,39 l 0,170 c -43,-39 -104,-7 -138,30 z" transform="translate(36.2572,-3679)" id="path22134" style="fill:#dedfe0"></path><path d="m 13280,4629 c -171,0 -159,-631 0,-631 218,0 437,0 655,0 l -188,37 c 55,75 61,475 0,556 l 187,37 -655,0 z" transform="translate(36.2572,-3679)" id="s31" style="fill:#dedfe0"></path><path d="m 12030,4629 c -171,0 -159,-631 0,-631 218,0 437,0 655,0 l -188,37 c 55,75 61,475 0,556 l 187,37 -655,0 z" transform="translate(36.2572,-3679)" id="s27" style="fill:#dedfe0" number="27" type="seat"></path><path d="m 10780,4629 c -171,0 -159,-631 0,-631 218,0 437,0 655,0 l -188,37 c 55,75 61,475 0,556 l 187,37 -655,0 z" transform="translate(36.2572,-3679)" id="s23" style="fill:#dedfe0" number="23" type="seat"></path><path d="m 9530,4629 c -171,0 -159,-631 0,-631 218,0 437,0 655,0 l -188,37 c 55,75 61,475 0,556 l 187,37 -655,0 z" transform="translate(36.2572,-3679)" id="s19" style="fill:#dedfe0"></path><path d="m 16634,4828 c 7,-57 46,-88 90,-96 0,-21 0,-41 0,-62 -44,-9 -83,-39 -90,-96 -20,-164 -19,-319 0,-472 7,-57 46,-88 90,-96 l 0,-81 758,0 c 0,518 0,1036 0,1554 l -758,0 0,-81 c -44,-9 -83,-39 -90,-96 -19,-153 -20,-308 0,-472 z" transform="translate(36.2572,-3679)" id="path22144" style="fill:#9d9e9e"></path><path d="m 17884,4828 c 7,-57 46,-88 90,-96 0,-21 0,-41 0,-62 -44,-9 -83,-39 -90,-96 -20,-164 -19,-319 0,-472 7,-57 46,-88 90,-96 l 0,-81 758,0 c 0,518 0,1036 0,1554 l -758,0 0,-81 c -44,-9 -83,-39 -90,-96 -19,-153 -20,-308 0,-472 z" transform="translate(36.2572,-3679)" id="path22146" style="fill:#9d9e9e"></path><path d="m 19134,4828 c 7,-57 46,-88 90,-96 0,-21 0,-41 0,-62 -44,-9 -83,-39 -90,-96 -20,-164 -19,-319 0,-472 7,-57 46,-88 90,-96 l 0,-81 758,0 c 0,518 0,1036 0,1554 l -758,0 0,-81 c -44,-9 -83,-39 -90,-96 -19,-153 -20,-308 0,-472 z" transform="translate(36.2572,-3679)" id="path22148" style="fill:#9d9e9e"></path><path d="m 20384,4828 c 7,-57 46,-88 90,-96 0,-21 0,-41 0,-62 -44,-9 -83,-39 -90,-96 -20,-164 -19,-319 0,-472 7,-57 46,-88 90,-96 l 0,-81 758,0 c 0,518 0,1036 0,1554 l -758,0 0,-81 c -44,-9 -83,-39 -90,-96 -19,-153 -20,-308 0,-472 z" transform="translate(36.2572,-3679)" id="path22150" style="fill:#9d9e9e"></path><path d="m 16833,5313 c -19,54 -148,74 -159,-18 -6,-52 -31,-162 69,-125 24,9 103,103 90,143 z m 0,-499 c -19,-54 -148,-74 -159,18 -6,52 -31,162 69,125 24,-9 103,-103 90,-143 z m -33,134 7,0 c 24,80 23,160 1,239 -34,-40 -98,-82 -146,-39 l 0,-170 c 43,39 104,7 138,-30 z" transform="translate(36.2572,-3679)" id="path22152" style="fill:#dedfe0"></path><path d="m 18083,5313 c -19,54 -148,74 -159,-18 -6,-52 -31,-162 69,-125 24,9 103,103 90,143 z m 0,-499 c -19,-54 -148,-74 -159,18 -6,52 -31,162 69,125 24,-9 103,-103 90,-143 z m -33,134 7,0 c 24,80 23,160 1,239 -34,-40 -98,-82 -146,-39 l 0,-170 c 43,39 104,7 138,-30 z" transform="translate(36.2572,-3679)" id="path22154" style="fill:#dedfe0"></path><path d="m 19333,5313 c -19,54 -148,74 -159,-18 -6,-52 -31,-162 69,-125 24,9 103,103 90,143 z m 0,-499 c -19,-54 -148,-74 -159,18 -6,52 -31,162 69,125 24,-9 103,-103 90,-143 z m -33,134 7,0 c 24,80 23,160 1,239 -34,-40 -98,-82 -146,-39 l 0,-170 c 43,39 104,7 138,-30 z" transform="translate(36.2572,-3679)" id="path22156" style="fill:#dedfe0"></path><path d="m 20583,5313 c -19,54 -148,74 -159,-18 -6,-52 -31,-162 69,-125 24,9 103,103 90,143 z m 0,-499 c -19,-54 -148,-74 -159,18 -6,52 -31,162 69,125 24,-9 103,-103 90,-143 z m -33,134 7,0 c 24,80 23,160 1,239 -34,-40 -98,-82 -146,-39 l 0,-170 c 43,39 104,7 138,-30 z" transform="translate(36.2572,-3679)" id="path22158" style="fill:#dedfe0"></path><path d="m 17467,4772 c 171,0 159,631 0,631 -218,0 -437,0 -655,0 l 188,-37 c -55,-75 -61,-475 0,-556 l -187,-37 655,0 z" transform="translate(36.2572,-3679)" id="s36" style="fill:#dedfe0" number="36" type="seat"></path><path d="m 18717,4772 c 171,0 159,631 0,631 -218,0 -437,0 -655,0 l 188,-37 c -55,-75 -61,-475 0,-556 l -187,-37 655,0 z" transform="translate(36.2572,-3679)" id="s40" style="fill:#dedfe0" number="40" type="seat"></path><path d="m 19967,4772 c 171,0 159,631 0,631 -218,0 -437,0 -655,0 l 188,-37 c -55,-75 -61,-475 0,-556 l -187,-37 655,0 z" transform="translate(36.2572,-3679)" id="s44" style="fill:#dedfe0" number="44" type="seat"></path><path d="m 21217,4772 c 171,0 159,631 0,631 -218,0 -437,0 -655,0 l 188,-37 c -55,-75 -61,-475 0,-556 l -187,-37 655,0 z" transform="translate(36.2572,-3679)" id="s48" style="fill:#dedfe0"></path><path d="m 16833,4087 c -19,-54 -148,-74 -159,18 -6,52 -31,162 69,125 24,-9 103,-103 90,-143 z m 0,499 c -19,54 -148,74 -159,-18 -6,-52 -31,-162 69,-125 24,9 103,103 90,143 z m -33,-134 7,0 c 24,-80 23,-160 1,-239 -34,40 -98,82 -146,39 l 0,170 c 43,-39 104,-7 138,30 z" transform="translate(36.2572,-3679)" id="path22168" style="fill:#dedfe0"></path><path d="m 18083,4087 c -19,-54 -148,-74 -159,18 -6,52 -31,162 69,125 24,-9 103,-103 90,-143 z m 0,499 c -19,54 -148,74 -159,-18 -6,-52 -31,-162 69,-125 24,9 103,103 90,143 z m -33,-134 7,0 c 24,-80 23,-160 1,-239 -34,40 -98,82 -146,39 l 0,170 c 43,-39 104,-7 138,30 z" transform="translate(36.2572,-3679)" id="path22170" style="fill:#dedfe0"></path><path d="m 19333,4087 c -19,-54 -148,-74 -159,18 -6,52 -31,162 69,125 24,-9 103,-103 90,-143 z m 0,499 c -19,54 -148,74 -159,-18 -6,-52 -31,-162 69,-125 24,9 103,103 90,143 z m -33,-134 7,0 c 24,-80 23,-160 1,-239 -34,40 -98,82 -146,39 l 0,170 c 43,-39 104,-7 138,30 z" transform="translate(36.2572,-3679)" id="path22172" style="fill:#dedfe0"></path><path d="m 20583,4087 c -19,-54 -148,-74 -159,18 -6,52 -31,162 69,125 24,-9 103,-103 90,-143 z m 0,499 c -19,54 -148,74 -159,-18 -6,-52 -31,-162 69,-125 24,9 103,103 90,143 z m -33,-134 7,0 c 24,-80 23,-160 1,-239 -34,40 -98,82 -146,39 l 0,170 c 43,-39 104,-7 138,30 z" transform="translate(36.2572,-3679)" id="path22174" style="fill:#dedfe0"></path><path d="m 17467,4629 c 171,0 159,-631 0,-631 -218,0 -437,0 -655,0 l 188,37 c -55,75 -61,475 0,556 l -187,37 655,0 z" transform="translate(36.2572,-3679)" id="s35" style="fill:#dedfe0"></path><path d="m 18717,4629 c 171,0 159,-631 0,-631 -218,0 -437,0 -655,0 l 188,37 c -55,75 -61,475 0,556 l -187,37 655,0 z" transform="translate(36.2572,-3679)" id="s39" style="fill:#dedfe0" number="39" type="seat"></path><path d="m 19967,4629 c 171,0 159,-631 0,-631 -218,0 -437,0 -655,0 l 188,37 c -55,75 -61,475 0,556 l -187,37 655,0 z" transform="translate(36.2572,-3679)" id="s43" style="fill:#dedfe0"></path><path d="m 21217,4629 c 171,0 159,-631 0,-631 -218,0 -437,0 -655,0 l 188,37 c -55,75 -61,475 0,556 l -187,37 655,0 z" transform="translate(36.2572,-3679)" id="s47" style="fill:#dedfe0"></path><path d="m 25798,4828 c -7,-57 -46,-88 -90,-96 0,-21 0,-41 0,-62 44,-9 83,-39 90,-96 20,-164 19,-319 0,-472 -7,-57 -46,-88 -90,-96 l 0,-81 -758,0 c 0,518 0,1036 0,1554 l 758,0 0,-81 c 44,-9 83,-39 90,-96 19,-153 20,-308 0,-472 z" transform="translate(36.2572,-3679)" id="path22184" style="fill:#9d9e9e"></path><path d="m 24548,4828 c -7,-57 -46,-88 -90,-96 0,-21 0,-41 0,-62 44,-9 83,-39 90,-96 20,-164 19,-319 0,-472 -7,-57 -46,-88 -90,-96 l 0,-81 -758,0 c 0,518 0,1036 0,1554 l 758,0 0,-81 c 44,-9 83,-39 90,-96 19,-153 20,-308 0,-472 z" transform="translate(36.2572,-3679)" id="path22186" style="fill:#9d9e9e"></path><path d="m 23298,4828 c -7,-57 -46,-88 -90,-96 0,-21 0,-41 0,-62 44,-9 83,-39 90,-96 20,-164 19,-319 0,-472 -7,-57 -46,-88 -90,-96 l 0,-81 -758,0 c 0,518 0,1036 0,1554 l 758,0 0,-81 c 44,-9 83,-39 90,-96 19,-153 20,-308 0,-472 z" transform="translate(36.2572,-3679)" id="path22188" style="fill:#9d9e9e"></path><path d="m 25600,5313 c 19,54 148,74 159,-18 6,-52 31,-162 -69,-125 -24,9 -103,103 -90,143 z m 0,-499 c 19,-54 148,-74 159,18 6,52 31,162 -69,125 -24,-9 -103,-103 -90,-143 z m 33,134 -7,0 c -24,80 -23,160 -1,239 34,-40 98,-82 146,-39 l 0,-170 c -43,39 -104,7 -138,-30 z" transform="translate(36.2572,-3679)" id="path22190" style="fill:#dedfe0"></path><path d="m 24350,5313 c 19,54 148,74 159,-18 6,-52 31,-162 -69,-125 -24,9 -103,103 -90,143 z m 0,-499 c 19,-54 148,-74 159,18 6,52 31,162 -69,125 -24,-9 -103,-103 -90,-143 z m 33,134 -7,0 c -24,80 -23,160 -1,239 34,-40 98,-82 146,-39 l 0,-170 c -43,39 -104,7 -138,-30 z" transform="translate(36.2572,-3679)" id="path22192" style="fill:#dedfe0"></path><path d="m 23100,5313 c 19,54 148,74 159,-18 6,-52 31,-162 -69,-125 -24,9 -103,103 -90,143 z m 0,-499 c 19,-54 148,-74 159,18 6,52 31,162 -69,125 -24,-9 -103,-103 -90,-143 z m 33,134 -7,0 c -24,80 -23,160 -1,239 34,-40 98,-82 146,-39 l 0,-170 c -43,39 -104,7 -138,-30 z" transform="translate(36.2572,-3679)" id="path22194" style="fill:#dedfe0"></path><path d="m 24965,4772 c -171,0 -159,631 0,631 218,0 437,0 655,0 l -188,-37 c 55,-75 61,-475 0,-556 l 187,-37 -655,0 z" transform="translate(36.2572,-3679)" id="s60" style="fill:#dedfe0" number="60" type="seat"></path><path d="m 23715,4772 c -171,0 -159,631 0,631 218,0 437,0 655,0 l -188,-37 c 55,-75 61,-475 0,-556 l 187,-37 -655,0 z" transform="translate(36.2572,-3679)" id="s56" style="fill:#dedfe0" number="56" type="seat"></path><path d="m 22465,4772 c -171,0 -159,631 0,631 218,0 437,0 655,0 l -188,-37 c 55,-75 61,-475 0,-556 l 187,-37 -655,0 z" transform="translate(36.2572,-3679)" id="s52" style="fill:#dedfe0"></path><path d="m 25600,4087 c 19,-54 148,-74 159,18 6,52 31,162 -69,125 -24,-9 -103,-103 -90,-143 z m 0,499 c 19,54 148,74 159,-18 6,-52 31,-162 -69,-125 -24,9 -103,103 -90,143 z m 33,-134 -7,0 c -24,-80 -23,-160 -1,-239 34,40 98,82 146,39 l 0,170 c -43,-39 -104,-7 -138,30 z" transform="translate(36.2572,-3679)" id="path22202" style="fill:#dedfe0"></path><path d="m 24350,4087 c 19,-54 148,-74 159,18 6,52 31,162 -69,125 -24,-9 -103,-103 -90,-143 z m 0,499 c 19,54 148,74 159,-18 6,-52 31,-162 -69,-125 -24,9 -103,103 -90,143 z m 33,-134 -7,0 c -24,-80 -23,-160 -1,-239 34,40 98,82 146,39 l 0,170 c -43,-39 -104,-7 -138,30 z" transform="translate(36.2572,-3679)" id="path22204" style="fill:#dedfe0"></path><path d="m 23100,4087 c 19,-54 148,-74 159,18 6,52 31,162 -69,125 -24,-9 -103,-103 -90,-143 z m 0,499 c 19,54 148,74 159,-18 6,-52 31,-162 -69,-125 -24,9 -103,103 -90,143 z m 33,-134 -7,0 c -24,-80 -23,-160 -1,-239 34,40 98,82 146,39 l 0,170 c -43,-39 -104,-7 -138,30 z" transform="translate(36.2572,-3679)" id="path22206" style="fill:#dedfe0"></path><path d="m 24965,4629 c -171,0 -159,-631 0,-631 218,0 437,0 655,0 l -188,37 c 55,75 61,475 0,556 l 187,37 -655,0 z" transform="translate(36.2572,-3679)" id="s59" style="fill:#dedfe0" number="59" type="seat"></path><path d="m 23715,4629 c -171,0 -159,-631 0,-631 218,0 437,0 655,0 l -188,37 c 55,75 61,475 0,556 l 187,37 -655,0 z" transform="translate(36.2572,-3679)" id="s55" style="fill:#dedfe0" number="55" type="seat"></path><path d="m 22465,4629 c -171,0 -159,-631 0,-631 218,0 437,0 655,0 l -188,37 c 55,75 61,475 0,556 l 187,37 -655,0 z" transform="translate(36.2572,-3679)" id="s51" style="fill:#dedfe0"></path><path d="m 3699,7282 c 7,-57 46,-88 90,-96 0,-21 0,-41 0,-62 -44,-9 -83,-39 -90,-96 -20,-164 -19,-319 0,-472 7,-57 46,-88 90,-96 l 0,-81 758,0 c 0,518 0,1036 0,1554 l -758,0 0,-81 c -44,-9 -83,-39 -90,-96 -19,-153 -20,-308 0,-472 z" transform="translate(36.2572,-3679)" id="path22214" style="fill:#9d9e9e"></path><path d="m 4949,7282 c 7,-57 46,-88 90,-96 0,-21 0,-41 0,-62 -44,-9 -83,-39 -90,-96 -20,-164 -19,-319 0,-472 7,-57 46,-88 90,-96 l 0,-81 758,0 c 0,518 0,1036 0,1554 l -758,0 0,-81 c -44,-9 -83,-39 -90,-96 -19,-153 -20,-308 0,-472 z" transform="translate(36.2572,-3679)" id="path22216" style="fill:#9d9e9e"></path><path d="m 6199,7282 c 7,-57 46,-88 90,-96 0,-21 0,-41 0,-62 -44,-9 -83,-39 -90,-96 -20,-164 -19,-319 0,-472 7,-57 46,-88 90,-96 l 0,-81 758,0 c 0,518 0,1036 0,1554 l -758,0 0,-81 c -44,-9 -83,-39 -90,-96 -19,-153 -20,-308 0,-472 z" transform="translate(36.2572,-3679)" id="path22218" style="fill:#9d9e9e"></path><path d="m 7449,7282 c 7,-57 46,-88 90,-96 0,-21 0,-41 0,-62 -44,-9 -83,-39 -90,-96 -20,-164 -19,-319 0,-472 7,-57 46,-88 90,-96 l 0,-81 758,0 c 0,518 0,1036 0,1554 l -758,0 0,-81 c -44,-9 -83,-39 -90,-96 -19,-153 -20,-308 0,-472 z" transform="translate(36.2572,-3679)" id="path22220" style="fill:#9d9e9e"></path><path d="m 3898,7767 c -19,54 -148,74 -159,-18 -6,-52 -31,-162 69,-125 24,9 103,103 90,143 z m 0,-499 c -19,-54 -148,-74 -159,18 -6,52 -31,162 69,125 24,-9 103,-103 90,-143 z m -33,134 7,0 c 24,80 23,160 1,239 -34,-40 -98,-82 -146,-39 l 0,-170 c 43,39 104,7 138,-30 z" transform="translate(36.2572,-3679)" id="path22222" style="fill:#dedfe0"></path><path d="m 5148,7767 c -19,54 -148,74 -159,-18 -6,-52 -31,-162 69,-125 24,9 103,103 90,143 z m 0,-499 c -19,-54 -148,-74 -159,18 -6,52 -31,162 69,125 24,-9 103,-103 90,-143 z m -33,134 7,0 c 24,80 23,160 1,239 -34,-40 -98,-82 -146,-39 l 0,-170 c 43,39 104,7 138,-30 z" transform="translate(36.2572,-3679)" id="path22224" style="fill:#dedfe0"></path><path d="m 6398,7767 c -19,54 -148,74 -159,-18 -6,-52 -31,-162 69,-125 24,9 103,103 90,143 z m 0,-499 c -19,-54 -148,-74 -159,18 -6,52 -31,162 69,125 24,-9 103,-103 90,-143 z m -33,134 7,0 c 24,80 23,160 1,239 -34,-40 -98,-82 -146,-39 l 0,-170 c 43,39 104,7 138,-30 z" transform="translate(36.2572,-3679)" id="path22226" style="fill:#dedfe0"></path><path d="m 7648,7767 c -19,54 -148,74 -159,-18 -6,-52 -31,-162 69,-125 24,9 103,103 90,143 z m 0,-499 c -19,-54 -148,-74 -159,18 -6,52 -31,162 69,125 24,-9 103,-103 90,-143 z m -33,134 7,0 c 24,80 23,160 1,239 -34,-40 -98,-82 -146,-39 l 0,-170 c 43,39 104,7 138,-30 z" transform="translate(36.2572,-3679)" id="path22228" style="fill:#dedfe0"></path><path d="m 4532,7226 c 171,0 159,631 0,631 -218,0 -437,0 -655,0 l 188,-37 c -55,-75 -61,-475 0,-556 l -187,-37 655,0 z" transform="translate(36.2572,-3679)" id="s5" style="fill:#dedfe0" number="5" type="seat"></path><path d="m 5782,7226 c 171,0 159,631 0,631 -218,0 -437,0 -655,0 l 188,-37 c -55,-75 -61,-475 0,-556 l -187,-37 655,0 z" transform="translate(36.2572,-3679)" id="s9" style="fill:#dedfe0" number="9" type="seat" hover=""></path><path d="m 7032,7226 c 171,0 159,631 0,631 -218,0 -437,0 -655,0 l 188,-37 c -55,-75 -61,-475 0,-556 l -187,-37 655,0 z" transform="translate(36.2572,-3679)" id="s13" style="fill:#dedfe0" number="13" type="seat" hover=""></path><path d="m 8282,7226 c 171,0 159,631 0,631 -218,0 -437,0 -655,0 l 188,-37 c -55,-75 -61,-475 0,-556 l -187,-37 655,0 z" transform="translate(36.2572,-3679)" id="s17" style="fill:#dedfe0" number="17" type="seat"></path><path d="m 3898,6542 c -19,-54 -148,-74 -159,18 -6,52 -31,162 69,125 24,-9 103,-103 90,-143 z m 0,499 c -19,54 -148,74 -159,-18 -6,-52 -31,-162 69,-125 24,9 103,103 90,143 z m -33,-134 7,0 c 24,-80 23,-160 1,-239 -34,40 -98,82 -146,39 l 0,170 c 43,-39 104,-7 138,30 z" transform="translate(36.2572,-3679)" id="path22238" style="fill:#dedfe0"></path><path d="m 5148,6542 c -19,-54 -148,-74 -159,18 -6,52 -31,162 69,125 24,-9 103,-103 90,-143 z m 0,499 c -19,54 -148,74 -159,-18 -6,-52 -31,-162 69,-125 24,9 103,103 90,143 z m -33,-134 7,0 c 24,-80 23,-160 1,-239 -34,40 -98,82 -146,39 l 0,170 c 43,-39 104,-7 138,30 z" transform="translate(36.2572,-3679)" id="path22240" style="fill:#dedfe0"></path><path d="m 6398,6542 c -19,-54 -148,-74 -159,18 -6,52 -31,162 69,125 24,-9 103,-103 90,-143 z m 0,499 c -19,54 -148,74 -159,-18 -6,-52 -31,-162 69,-125 24,9 103,103 90,143 z m -33,-134 7,0 c 24,-80 23,-160 1,-239 -34,40 -98,82 -146,39 l 0,170 c 43,-39 104,-7 138,30 z" transform="translate(36.2572,-3679)" id="path22242" style="fill:#dedfe0"></path><path d="m 7648,6542 c -19,-54 -148,-74 -159,18 -6,52 -31,162 69,125 24,-9 103,-103 90,-143 z m 0,499 c -19,54 -148,74 -159,-18 -6,-52 -31,-162 69,-125 24,9 103,103 90,143 z m -33,-134 7,0 c 24,-80 23,-160 1,-239 -34,40 -98,82 -146,39 l 0,170 c 43,-39 104,-7 138,30 z" transform="translate(36.2572,-3679)" id="path22244" style="fill:#dedfe0"></path><path d="m 4532,7083 c 171,0 159,-631 0,-631 -218,0 -437,0 -655,0 l 188,37 c -55,75 -61,475 0,556 l -187,37 655,0 z" transform="translate(36.2572,-3679)" id="s6" style="fill:#dedfe0" number="6" type="seat"></path><path d="m 5782,7083 c 171,0 159,-631 0,-631 -218,0 -437,0 -655,0 l 188,37 c -55,75 -61,475 0,556 l -187,37 655,0 z" transform="translate(36.2572,-3679)" id="s10" style="fill:#dedfe0" number="10" type="seat"></path><path d="m 7032,7083 c 171,0 159,-631 0,-631 -218,0 -437,0 -655,0 l 188,37 c -55,75 -61,475 0,556 l -187,37 655,0 z" transform="translate(36.2572,-3679)" id="s14" style="fill:#dedfe0" number="14" type="seat"></path><path d="m 8282,7083 c 171,0 159,-631 0,-631 -218,0 -437,0 -655,0 l 188,37 c -55,75 -61,475 0,556 l -187,37 655,0 z" transform="translate(36.2572,-3679)" id="s18" style="fill:#dedfe0" number="18" type="seat"></path><path d="m 14113,7282 c -7,-57 -46,-88 -90,-96 0,-21 0,-41 0,-62 44,-9 83,-39 90,-96 20,-164 19,-319 0,-472 -7,-57 -46,-88 -90,-96 l 0,-81 -758,0 c 0,518 0,1036 0,1554 l 758,0 0,-81 c 44,-9 83,-39 90,-96 19,-153 20,-308 0,-472 z" transform="translate(36.2572,-3679)" id="path22254" style="fill:#9d9e9e"></path><path d="m 12863,7282 c -7,-57 -46,-88 -90,-96 0,-21 0,-41 0,-62 44,-9 83,-39 90,-96 20,-164 19,-319 0,-472 -7,-57 -46,-88 -90,-96 l 0,-81 -758,0 c 0,518 0,1036 0,1554 l 758,0 0,-81 c 44,-9 83,-39 90,-96 19,-153 20,-308 0,-472 z" transform="translate(36.2572,-3679)" id="path22256" style="fill:#9d9e9e"></path><path d="m 11613,7282 c -7,-57 -46,-88 -90,-96 0,-21 0,-41 0,-62 44,-9 83,-39 90,-96 20,-164 19,-319 0,-472 -7,-57 -46,-88 -90,-96 l 0,-81 -758,0 c 0,518 0,1036 0,1554 l 758,0 0,-81 c 44,-9 83,-39 90,-96 19,-153 20,-308 0,-472 z" transform="translate(36.2572,-3679)" id="path22258" style="fill:#9d9e9e"></path><path d="m 10363,7282 c -7,-57 -46,-88 -90,-96 0,-21 0,-41 0,-62 44,-9 83,-39 90,-96 20,-164 19,-319 0,-472 -7,-57 -46,-88 -90,-96 l 0,-81 -758,0 c 0,518 0,1036 0,1554 l 758,0 0,-81 c 44,-9 83,-39 90,-96 19,-153 20,-308 0,-472 z" transform="translate(36.2572,-3679)" id="path22260" style="fill:#9d9e9e"></path><path d="m 13914,7767 c 19,54 148,74 159,-18 6,-52 31,-162 -69,-125 -24,9 -103,103 -90,143 z m 0,-499 c 19,-54 148,-74 159,18 6,52 31,162 -69,125 -24,-9 -103,-103 -90,-143 z m 33,134 -7,0 c -24,80 -23,160 -1,239 34,-40 98,-82 146,-39 l 0,-170 c -43,39 -104,7 -138,-30 z" transform="translate(36.2572,-3679)" id="path22262" style="fill:#dedfe0"></path><path d="m 12664,7767 c 19,54 148,74 159,-18 6,-52 31,-162 -69,-125 -24,9 -103,103 -90,143 z m 0,-499 c 19,-54 148,-74 159,18 6,52 31,162 -69,125 -24,-9 -103,-103 -90,-143 z m 33,134 -7,0 c -24,80 -23,160 -1,239 34,-40 98,-82 146,-39 l 0,-170 c -43,39 -104,7 -138,-30 z" transform="translate(36.2572,-3679)" id="path22264" style="fill:#dedfe0"></path><path d="m 11414,7767 c 19,54 148,74 159,-18 6,-52 31,-162 -69,-125 -24,9 -103,103 -90,143 z m 0,-499 c 19,-54 148,-74 159,18 6,52 31,162 -69,125 -24,-9 -103,-103 -90,-143 z m 33,134 -7,0 c -24,80 -23,160 -1,239 34,-40 98,-82 146,-39 l 0,-170 c -43,39 -104,7 -138,-30 z" transform="translate(36.2572,-3679)" id="path22266" style="fill:#dedfe0"></path><path d="m 10164,7767 c 19,54 148,74 159,-18 6,-52 31,-162 -69,-125 -24,9 -103,103 -90,143 z m 0,-499 c 19,-54 148,-74 159,18 6,52 31,162 -69,125 -24,-9 -103,-103 -90,-143 z m 33,134 -7,0 c -24,80 -23,160 -1,239 34,-40 98,-82 146,-39 l 0,-170 c -43,39 -104,7 -138,-30 z" transform="translate(36.2572,-3679)" id="path22268" style="fill:#dedfe0"></path><path d="m 13280,7226 c -171,0 -159,631 0,631 218,0 437,0 655,0 l -188,-37 c 55,-75 61,-475 0,-556 l 187,-37 -655,0 z" transform="translate(36.2572,-3679)" id="s33" style="fill:#dedfe0" number="33" type="seat"></path><path d="m 12030,7226 c -171,0 -159,631 0,631 218,0 437,0 655,0 l -188,-37 c 55,-75 61,-475 0,-556 l 187,-37 -655,0 z" transform="translate(36.2572,-3679)" id="s29" style="fill:#dedfe0" number="29" type="seat"></path><path d="m 10780,7226 c -171,0 -159,631 0,631 218,0 437,0 655,0 l -188,-37 c 55,-75 61,-475 0,-556 l 187,-37 -655,0 z" transform="translate(36.2572,-3679)" id="s25" style="fill:#dedfe0"></path><path d="m 9530,7226 c -171,0 -159,631 0,631 218,0 437,0 655,0 l -188,-37 c 55,-75 61,-475 0,-556 l 187,-37 -655,0 z" transform="translate(36.2572,-3679)" id="s21" style="fill:#dedfe0" number="21" type="seat"></path><path d="m 13914,6542 c 19,-54 148,-74 159,18 6,52 31,162 -69,125 -24,-9 -103,-103 -90,-143 z m 0,499 c 19,54 148,74 159,-18 6,-52 31,-162 -69,-125 -24,9 -103,103 -90,143 z m 33,-134 -7,0 c -24,-80 -23,-160 -1,-239 34,40 98,82 146,39 l 0,170 c -43,-39 -104,-7 -138,30 z" transform="translate(36.2572,-3679)" id="path22278" style="fill:#dedfe0"></path><path d="m 12664,6542 c 19,-54 148,-74 159,18 6,52 31,162 -69,125 -24,-9 -103,-103 -90,-143 z m 0,499 c 19,54 148,74 159,-18 6,-52 31,-162 -69,-125 -24,9 -103,103 -90,143 z m 33,-134 -7,0 c -24,-80 -23,-160 -1,-239 34,40 98,82 146,39 l 0,170 c -43,-39 -104,-7 -138,30 z" transform="translate(36.2572,-3679)" id="path22280" style="fill:#dedfe0"></path><path d="m 11414,6542 c 19,-54 148,-74 159,18 6,52 31,162 -69,125 -24,-9 -103,-103 -90,-143 z m 0,499 c 19,54 148,74 159,-18 6,-52 31,-162 -69,-125 -24,9 -103,103 -90,143 z m 33,-134 -7,0 c -24,-80 -23,-160 -1,-239 34,40 98,82 146,39 l 0,170 c -43,-39 -104,-7 -138,30 z" transform="translate(36.2572,-3679)" id="path22282" style="fill:#dedfe0"></path><path d="m 10164,6542 c 19,-54 148,-74 159,18 6,52 31,162 -69,125 -24,-9 -103,-103 -90,-143 z m 0,499 c 19,54 148,74 159,-18 6,-52 31,-162 -69,-125 -24,9 -103,103 -90,143 z m 33,-134 -7,0 c -24,-80 -23,-160 -1,-239 34,40 98,82 146,39 l 0,170 c -43,-39 -104,-7 -138,30 z" transform="translate(36.2572,-3679)" id="path22284" style="fill:#dedfe0"></path><path d="m 13280,7083 c -171,0 -159,-631 0,-631 218,0 437,0 655,0 l -188,37 c 55,75 61,475 0,556 l 187,37 -655,0 z" transform="translate(36.2572,-3679)" id="s34" style="fill:#dedfe0" number="34" type="seat"></path><path d="m 12030,7083 c -171,0 -159,-631 0,-631 218,0 437,0 655,0 l -188,37 c 55,75 61,475 0,556 l 187,37 -655,0 z" transform="translate(36.2572,-3679)" id="s30" style="fill:#dedfe0" number="30" type="seat"></path><path d="m 10780,7083 c -171,0 -159,-631 0,-631 218,0 437,0 655,0 l -188,37 c 55,75 61,475 0,556 l 187,37 -655,0 z" transform="translate(36.2572,-3679)" id="s26" style="fill:#dedfe0" number="26" type="seat" hover=""></path><path d="m 9530,7083 c -171,0 -159,-631 0,-631 218,0 437,0 655,0 l -188,37 c 55,75 61,475 0,556 l 187,37 -655,0 z" transform="translate(36.2572,-3679)" id="s22" style="fill:#dedfe0" number="22" type="seat"></path><path d="m 16634,7274 c 7,-57 46,-88 90,-96 0,-21 0,-41 0,-62 -44,-9 -83,-39 -90,-96 -20,-164 -19,-319 0,-472 7,-57 46,-88 90,-96 l 0,-81 758,0 c 0,518 0,1036 0,1554 l -758,0 0,-81 c -44,-9 -83,-39 -90,-96 -19,-153 -20,-308 0,-472 z" transform="translate(36.2572,-3679)" id="path22294" style="fill:#9d9e9e"></path><path d="m 17884,7274 c 7,-57 46,-88 90,-96 0,-21 0,-41 0,-62 -44,-9 -83,-39 -90,-96 -20,-164 -19,-319 0,-472 7,-57 46,-88 90,-96 l 0,-81 758,0 c 0,518 0,1036 0,1554 l -758,0 0,-81 c -44,-9 -83,-39 -90,-96 -19,-153 -20,-308 0,-472 z" transform="translate(36.2572,-3679)" id="path22296" style="fill:#9d9e9e"></path><path d="m 19134,7274 c 7,-57 46,-88 90,-96 0,-21 0,-41 0,-62 -44,-9 -83,-39 -90,-96 -20,-164 -19,-319 0,-472 7,-57 46,-88 90,-96 l 0,-81 758,0 c 0,518 0,1036 0,1554 l -758,0 0,-81 c -44,-9 -83,-39 -90,-96 -19,-153 -20,-308 0,-472 z" transform="translate(36.2572,-3679)" id="path22298" style="fill:#9d9e9e"></path><path d="m 20384,7274 c 7,-57 46,-88 90,-96 0,-21 0,-41 0,-62 -44,-9 -83,-39 -90,-96 -20,-164 -19,-319 0,-472 7,-57 46,-88 90,-96 l 0,-81 758,0 c 0,518 0,1036 0,1554 l -758,0 0,-81 c -44,-9 -83,-39 -90,-96 -19,-153 -20,-308 0,-472 z" transform="translate(36.2572,-3679)" id="path22300" style="fill:#9d9e9e"></path><path d="m 16833,7759 c -19,54 -148,74 -159,-18 -6,-52 -31,-162 69,-125 24,9 103,103 90,143 z m 0,-499 c -19,-54 -148,-74 -159,18 -6,52 -31,162 69,125 24,-9 103,-103 90,-143 z m -33,134 7,0 c 24,80 23,160 1,239 -34,-40 -98,-82 -146,-39 l 0,-170 c 43,39 104,7 138,-30 z" transform="translate(36.2572,-3679)" id="path22302" style="fill:#dedfe0"></path><path d="m 18083,7759 c -19,54 -148,74 -159,-18 -6,-52 -31,-162 69,-125 24,9 103,103 90,143 z m 0,-499 c -19,-54 -148,-74 -159,18 -6,52 -31,162 69,125 24,-9 103,-103 90,-143 z m -33,134 7,0 c 24,80 23,160 1,239 -34,-40 -98,-82 -146,-39 l 0,-170 c 43,39 104,7 138,-30 z" transform="translate(36.2572,-3679)" id="path22304" style="fill:#dedfe0"></path><path d="m 19333,7759 c -19,54 -148,74 -159,-18 -6,-52 -31,-162 69,-125 24,9 103,103 90,143 z m 0,-499 c -19,-54 -148,-74 -159,18 -6,52 -31,162 69,125 24,-9 103,-103 90,-143 z m -33,134 7,0 c 24,80 23,160 1,239 -34,-40 -98,-82 -146,-39 l 0,-170 c 43,39 104,7 138,-30 z" transform="translate(36.2572,-3679)" id="path22306" style="fill:#dedfe0"></path><path d="m 20583,7759 c -19,54 -148,74 -159,-18 -6,-52 -31,-162 69,-125 24,9 103,103 90,143 z m 0,-499 c -19,-54 -148,-74 -159,18 -6,52 -31,162 69,125 24,-9 103,-103 90,-143 z m -33,134 7,0 c 24,80 23,160 1,239 -34,-40 -98,-82 -146,-39 l 0,-170 c 43,39 104,7 138,-30 z" transform="translate(36.2572,-3679)" id="path22308" style="fill:#dedfe0"></path><path d="m 17467,7218 c 171,0 159,631 0,631 -218,0 -437,0 -655,0 l 188,-37 c -55,-75 -61,-475 0,-556 l -187,-37 655,0 z" transform="translate(36.2572,-3679)" id="s37" style="fill:#dedfe0" number="37" type="seat"></path><path d="m 18717,7218 c 171,0 159,631 0,631 -218,0 -437,0 -655,0 l 188,-37 c -55,-75 -61,-475 0,-556 l -187,-37 655,0 z" transform="translate(36.2572,-3679)" id="s41" style="fill:#dedfe0" number="41" type="seat"></path><path d="m 19967,7218 c 171,0 159,631 0,631 -218,0 -437,0 -655,0 l 188,-37 c -55,-75 -61,-475 0,-556 l -187,-37 655,0 z" transform="translate(36.2572,-3679)" id="s45" style="fill:#dedfe0" number="45" type="seat"></path><path d="m 21217,7218 c 171,0 159,631 0,631 -218,0 -437,0 -655,0 l 188,-37 c -55,-75 -61,-475 0,-556 l -187,-37 655,0 z" transform="translate(36.2572,-3679)" id="s49" style="fill:#dedfe0" number="49" type="seat"></path><path d="m 16833,6534 c -19,-54 -148,-74 -159,18 -6,52 -31,162 69,125 24,-9 103,-103 90,-143 z m 0,499 c -19,54 -148,74 -159,-18 -6,-52 -31,-162 69,-125 24,9 103,103 90,143 z m -33,-134 7,0 c 24,-80 23,-160 1,-239 -34,40 -98,82 -146,39 l 0,170 c 43,-39 104,-7 138,30 z" transform="translate(36.2572,-3679)" id="path22318" style="fill:#dedfe0"></path><path d="m 18083,6534 c -19,-54 -148,-74 -159,18 -6,52 -31,162 69,125 24,-9 103,-103 90,-143 z m 0,499 c -19,54 -148,74 -159,-18 -6,-52 -31,-162 69,-125 24,9 103,103 90,143 z m -33,-134 7,0 c 24,-80 23,-160 1,-239 -34,40 -98,82 -146,39 l 0,170 c 43,-39 104,-7 138,30 z" transform="translate(36.2572,-3679)" id="path22320" style="fill:#dedfe0"></path><path d="m 19333,6534 c -19,-54 -148,-74 -159,18 -6,52 -31,162 69,125 24,-9 103,-103 90,-143 z m 0,499 c -19,54 -148,74 -159,-18 -6,-52 -31,-162 69,-125 24,9 103,103 90,143 z m -33,-134 7,0 c 24,-80 23,-160 1,-239 -34,40 -98,82 -146,39 l 0,170 c 43,-39 104,-7 138,30 z" transform="translate(36.2572,-3679)" id="path22322" style="fill:#dedfe0"></path><path d="m 20583,6534 c -19,-54 -148,-74 -159,18 -6,52 -31,162 69,125 24,-9 103,-103 90,-143 z m 0,499 c -19,54 -148,74 -159,-18 -6,-52 -31,-162 69,-125 24,9 103,103 90,143 z m -33,-134 7,0 c 24,-80 23,-160 1,-239 -34,40 -98,82 -146,39 l 0,170 c 43,-39 104,-7 138,30 z" transform="translate(36.2572,-3679)" id="path22324" style="fill:#dedfe0"></path><path d="m 17467,7075 c 171,0 159,-631 0,-631 -218,0 -437,0 -655,0 l 188,37 c -55,75 -61,475 0,556 l -187,37 655,0 z" transform="translate(36.2572,-3679)" id="s38" style="fill:#dedfe0" number="38" type="seat"></path><path d="m 18717,7075 c 171,0 159,-631 0,-631 -218,0 -437,0 -655,0 l 188,37 c -55,75 -61,475 0,556 l -187,37 655,0 z" transform="translate(36.2572,-3679)" id="s42" style="fill:#dedfe0" number="42" type="seat"></path><path d="m 19967,7075 c 171,0 159,-631 0,-631 -218,0 -437,0 -655,0 l 188,37 c -55,75 -61,475 0,556 l -187,37 655,0 z" transform="translate(36.2572,-3679)" id="s46" style="fill:#dedfe0" number="46" type="seat"></path><path d="m 21217,7075 c 171,0 159,-631 0,-631 -218,0 -437,0 -655,0 l 188,37 c -55,75 -61,475 0,556 l -187,37 655,0 z" transform="translate(36.2572,-3679)" id="s50" style="fill:#dedfe0" number="50" type="seat"></path><path d="m 25798,7274 c -7,-57 -46,-88 -90,-96 0,-21 0,-41 0,-62 44,-9 83,-39 90,-96 20,-164 19,-319 0,-472 -7,-57 -46,-88 -90,-96 l 0,-81 -758,0 c 0,518 0,1036 0,1554 l 758,0 0,-81 c 44,-9 83,-39 90,-96 19,-153 20,-308 0,-472 z" transform="translate(36.2572,-3679)" id="path22334" style="fill:#9d9e9e"></path><path d="m 27048,7274 c -7,-57 -46,-88 -90,-96 0,-21 0,-41 0,-62 44,-9 83,-39 90,-96 20,-164 19,-319 0,-472 -7,-57 -46,-88 -90,-96 l 0,-81 -758,0 c 0,518 0,1036 0,1554 l 758,0 0,-81 c 44,-9 83,-39 90,-96 19,-153 20,-308 0,-472 z" transform="translate(36.2572,-3679)" id="path22336" style="fill:#9d9e9e"></path><path d="m 24548,7274 c -7,-57 -46,-88 -90,-96 0,-21 0,-41 0,-62 44,-9 83,-39 90,-96 20,-164 19,-319 0,-472 -7,-57 -46,-88 -90,-96 l 0,-81 -758,0 c 0,518 0,1036 0,1554 l 758,0 0,-81 c 44,-9 83,-39 90,-96 19,-153 20,-308 0,-472 z" transform="translate(36.2572,-3679)" id="path22338" style="fill:#9d9e9e"></path><path d="m 23298,7274 c -7,-57 -46,-88 -90,-96 0,-21 0,-41 0,-62 44,-9 83,-39 90,-96 20,-164 19,-319 0,-472 -7,-57 -46,-88 -90,-96 l 0,-81 -758,0 c 0,518 0,1036 0,1554 l 758,0 0,-81 c 44,-9 83,-39 90,-96 19,-153 20,-308 0,-472 z" transform="translate(36.2572,-3679)" id="path22340" style="fill:#9d9e9e"></path><path d="m 25600,7759 c 19,54 148,74 159,-18 6,-52 31,-162 -69,-125 -24,9 -103,103 -90,143 z m 0,-499 c 19,-54 148,-74 159,18 6,52 31,162 -69,125 -24,-9 -103,-103 -90,-143 z m 33,134 -7,0 c -24,80 -23,160 -1,239 34,-40 98,-82 146,-39 l 0,-170 c -43,39 -104,7 -138,-30 z" transform="translate(36.2572,-3679)" id="path22342" style="fill:#dedfe0"></path><path d="m 26850,7759 c 19,54 148,74 159,-18 6,-52 31,-162 -69,-125 -24,9 -103,103 -90,143 z m 0,-499 c 19,-54 148,-74 159,18 6,52 31,162 -69,125 -24,-9 -103,-103 -90,-143 z m 33,134 -7,0 c -24,80 -23,160 -1,239 34,-40 98,-82 146,-39 l 0,-170 c -43,39 -104,7 -138,-30 z" transform="translate(36.2572,-3679)" id="path22344" style="fill:#dedfe0"></path><path d="m 24350,7759 c 19,54 148,74 159,-18 6,-52 31,-162 -69,-125 -24,9 -103,103 -90,143 z m 0,-499 c 19,-54 148,-74 159,18 6,52 31,162 -69,125 -24,-9 -103,-103 -90,-143 z m 33,134 -7,0 c -24,80 -23,160 -1,239 34,-40 98,-82 146,-39 l 0,-170 c -43,39 -104,7 -138,-30 z" transform="translate(36.2572,-3679)" id="path22346" style="fill:#dedfe0"></path><path d="m 23100,7759 c 19,54 148,74 159,-18 6,-52 31,-162 -69,-125 -24,9 -103,103 -90,143 z m 0,-499 c 19,-54 148,-74 159,18 6,52 31,162 -69,125 -24,-9 -103,-103 -90,-143 z m 33,134 -7,0 c -24,80 -23,160 -1,239 34,-40 98,-82 146,-39 l 0,-170 c -43,39 -104,7 -138,-30 z" transform="translate(36.2572,-3679)" id="path22348" style="fill:#dedfe0"></path><path d="m 24965,7218 c -171,0 -159,631 0,631 218,0 437,0 655,0 l -188,-37 c 55,-75 61,-475 0,-556 l 187,-37 -655,0 z" transform="translate(36.2572,-3679)" id="s61" style="fill:#dedfe0" number="61" type="seat"></path><path d="m 26215,7218 c -171,0 -159,631 0,631 218,0 437,0 655,0 l -188,-37 c 55,-75 61,-475 0,-556 l 187,-37 -655,0 z" transform="translate(36.2572,-3679)" id="s63" style="fill:#dedfe0" number="63" type="seat"></path><path d="m 23715,7218 c -171,0 -159,631 0,631 218,0 437,0 655,0 l -188,-37 c 55,-75 61,-475 0,-556 l 187,-37 -655,0 z" transform="translate(36.2572,-3679)" id="s57" style="fill:#dedfe0" number="57" type="seat"></path><path d="m 22465,7218 c -171,0 -159,631 0,631 218,0 437,0 655,0 l -188,-37 c 55,-75 61,-475 0,-556 l 187,-37 -655,0 z" transform="translate(36.2572,-3679)" id="s53" style="fill:#dedfe0" number="53" type="seat"></path><path d="m 25600,6534 c 19,-54 148,-74 159,18 6,52 31,162 -69,125 -24,-9 -103,-103 -90,-143 z m 0,499 c 19,54 148,74 159,-18 6,-52 31,-162 -69,-125 -24,9 -103,103 -90,143 z m 33,-134 -7,0 c -24,-80 -23,-160 -1,-239 34,40 98,82 146,39 l 0,170 c -43,-39 -104,-7 -138,30 z" transform="translate(36.2572,-3679)" id="path22358" style="fill:#dedfe0"></path><path d="m 26850,6534 c 19,-54 148,-74 159,18 6,52 31,162 -69,125 -24,-9 -103,-103 -90,-143 z m 0,499 c 19,54 148,74 159,-18 6,-52 31,-162 -69,-125 -24,9 -103,103 -90,143 z m 33,-134 -7,0 c -24,-80 -23,-160 -1,-239 34,40 98,82 146,39 l 0,170 c -43,-39 -104,-7 -138,30 z" transform="translate(36.2572,-3679)" id="path22360" style="fill:#dedfe0"></path><path d="m 24350,6534 c 19,-54 148,-74 159,18 6,52 31,162 -69,125 -24,-9 -103,-103 -90,-143 z m 0,499 c 19,54 148,74 159,-18 6,-52 31,-162 -69,-125 -24,9 -103,103 -90,143 z m 33,-134 -7,0 c -24,-80 -23,-160 -1,-239 34,40 98,82 146,39 l 0,170 c -43,-39 -104,-7 -138,30 z" transform="translate(36.2572,-3679)" id="path22362" style="fill:#dedfe0"></path><path d="m 23100,6534 c 19,-54 148,-74 159,18 6,52 31,162 -69,125 -24,-9 -103,-103 -90,-143 z m 0,499 c 19,54 148,74 159,-18 6,-52 31,-162 -69,-125 -24,9 -103,103 -90,143 z m 33,-134 -7,0 c -24,-80 -23,-160 -1,-239 34,40 98,82 146,39 l 0,170 c -43,-39 -104,-7 -138,30 z" transform="translate(36.2572,-3679)" id="path22364" style="fill:#dedfe0"></path><path d="m 24965,7075 c -171,0 -159,-631 0,-631 218,0 437,0 655,0 l -188,37 c 55,75 61,475 0,556 l 187,37 -655,0 z" transform="translate(36.2572,-3679)" id="s62" style="fill:#dedfe0" number="62" type="seat"></path><path d="m 26215,7075 c -171,0 -159,-631 0,-631 218,0 437,0 655,0 l -188,37 c 55,75 61,475 0,556 l 187,37 -655,0 z" transform="translate(36.2572,-3679)" id="s64" style="fill:#dedfe0" number="64" type="seat"></path><path d="m 23715,7075 c -171,0 -159,-631 0,-631 218,0 437,0 655,0 l -188,37 c 55,75 61,475 0,556 l 187,37 -655,0 z" transform="translate(36.2572,-3679)" id="s58" style="fill:#dedfe0" number="58" type="seat"></path><path d="m 22465,7075 c -171,0 -159,-631 0,-631 218,0 437,0 655,0 l -188,37 c 55,75 61,475 0,556 l 187,37 -655,0 z" transform="translate(36.2572,-3679)" id="s54" style="fill:#dedfe0" number="54" type="seat"></path><path d="m 9318,3883 0,1097 c 0,164 -174,298 -386,298 -212,0 -386,-134 -386,-298 l 0,-1097 772,0 z" transform="translate(36.2572,-3679)" id="path22374" style="fill:#9d9e9e"></path><path d="m 9318,8000 0,-1097 c 0,-164 -174,-298 -386,-298 -212,0 -386,134 -386,298 l 0,1097 772,0 z" transform="translate(36.2572,-3679)" id="path22376" style="fill:#9d9e9e"></path><path d="m 22265,3883 0,1097 c 0,164 -174,298 -386,298 -212,0 -386,-134 -386,-298 l 0,-1097 772,0 z" transform="translate(36.2572,-3679)" id="path22378" style="fill:#9d9e9e"></path><path d="m 22265,8000 0,-1097 c 0,-164 -174,-298 -386,-298 -212,0 -386,134 -386,298 l 0,1097 772,0 z" transform="translate(36.2572,-3679)" id="path22380" style="fill:#9d9e9e"></path><path d="m 14260,4069 0,678 175,0 0,-678 -175,0 z m -53,713 0,-35 0,-678 0,-18 0,-51 2332,0 0,51 0,18 0,678 0,35 0,35 -2332,0 0,-35 z m 2279,-35 0,-678 -175,0 0,678 175,0 z m -228,0 0,-678 -175,0 0,678 175,0 z m -228,0 0,-678 -175,0 0,678 175,0 z m -228,0 0,-678 -175,0 0,678 175,0 z m -228,0 0,-678 -175,0 0,678 175,0 z m -228,0 0,-678 -175,0 0,678 175,0 z m -228,0 0,-678 -175,0 0,678 175,0 z m -228,0 0,-678 -175,0 0,678 175,0 z m -228,0 0,-678 -175,0 0,678 175,0 z" transform="translate(36.2572,-3679)" id="path22382" style="fill:#9d9e9e"></path><path d="m 14260,7152 0,678 175,0 0,-678 -175,0 z m -53,713 0,-35 0,-678 0,-18 0,-51 2332,0 0,51 0,18 0,678 0,35 0,35 -2332,0 0,-35 z m 2279,-35 0,-678 -175,0 0,678 175,0 z m -228,0 0,-678 -175,0 0,678 175,0 z m -228,0 0,-678 -175,0 0,678 175,0 z m -228,0 0,-678 -175,0 0,678 175,0 z m -228,0 0,-678 -175,0 0,678 175,0 z m -228,0 0,-678 -175,0 0,678 175,0 z m -228,0 0,-678 -175,0 0,678 175,0 z m -228,0 0,-678 -175,0 0,678 175,0 z m -228,0 0,-678 -175,0 0,678 175,0 z" transform="translate(36.2572,-3679)" id="path22384" style="fill:#9d9e9e"></path><path d="m 15941,4595 2,0 0,386 c 0,117 -95,212 -212,212 l -713,0 c -117,0 -212,-95 -212,-212 l 0,-386 2,0 c 14,-103 103,-182 210,-182 l 40,0 c 17,-120 121,-213 246,-213 l 143,0 c 125,0 229,93 246,213 l 40,0 c 107,0 195,80 210,182 z" transform="translate(36.2572,-3679)" id="path22386" style="fill:#fefefe"></path><path d="m 15303,4299 143,0 c 82,0 148,67 148,148 l 0,37 c -24,0 -48,0 -73,0 -1,0 -3,0 -4,0 l 0,-41 c 0,-41 -33,-74 -74,-74 l -140,0 c -41,0 -74,33 -74,74 l 0,37 c -25,-1 -49,-2 -74,-3 l 0,-31 c 0,-82 67,-148 148,-148 z m -285,213 713,0 c 61,0 112,50 112,112 l 0,34 -181,0 0,-12 c 0,-11 -9,-21 -21,-21 l -66,0 c -11,0 -21,9 -21,21 l 0,12 -362,0 0,-12 c 0,-11 -9,-21 -21,-21 l -66,0 c -11,0 -21,9 -21,21 l 0,12 -180,0 0,-34 c 0,-61 50,-112 112,-112 z m 825,182 0,286 c 0,61 -50,112 -112,112 l -713,0 c -61,0 -112,-50 -112,-112 l 0,-286 180,0 0,53 c 0,11 9,21 21,21 l 66,0 c 11,0 21,-9 21,-21 l 0,-53 362,0 0,53 c 0,11 9,21 21,21 l 66,0 c 11,0 21,-9 21,-21 l 0,-53 181,0 z" transform="translate(36.2572,-3679)" id="path22388" style="fill:#9d9e9e"></path><path d="m 4414,5248 0,-77 38,0 0,-56 -38,0 0,-188 -92,0 -121,196 0,49 142,0 0,77 71,0 z m -144,-133 0,-1 42,-70 c 11,-20 20,-39 30,-60 l 1,0 c -1,21 -2,41 -2,60 l 0,71 -73,0 z" transform="translate(36.2572,-3679)" id="n4" style="fill:#fefefe;fill-rule:nonzero" number="4" type="number"></path><path d="m 4213,4457 c 19,11 54,22 95,22 81,0 131,-41 131,-98 0,-42 -31,-72 -70,-79 l 0,-1 c 40,-13 59,-41 59,-75 0,-44 -38,-80 -106,-80 -42,0 -80,12 -99,24 l 15,54 c 13,-8 41,-19 67,-19 32,0 47,14 47,34 0,27 -32,37 -57,37 l -30,0 0,54 31,0 c 33,0 65,14 65,46 0,24 -20,42 -59,42 -31,0 -61,-12 -75,-20 l -15,57 z" transform="translate(36.2572,-3679)" id="n3" style="fill:#fefefe;fill-rule:nonzero" number="3" type="number"></path><path d="m 5513,5083 c -35,15 -57,42 -57,81 0,43 38,89 119,89 75,0 123,-40 123,-98 0,-41 -28,-68 -59,-80 l 0,-1 c 32,-16 47,-43 47,-71 0,-39 -31,-82 -106,-82 -64,0 -113,36 -113,90 0,28 15,54 46,71 l 0,1 z m 65,118 c -28,0 -46,-22 -45,-45 0,-23 14,-41 39,-48 29,8 50,25 50,53 0,23 -18,40 -44,40 z m -1,-229 c 28,0 39,20 39,40 0,20 -15,36 -33,41 -26,-8 -45,-22 -45,-43 0,-20 13,-37 39,-37 z" transform="translate(36.2572,-3679)" id="n8" style="fill:#fefefe;fill-rule:nonzero" number="8" type="number"></path><path d="m 5558,4474 132,-274 0,-47 -227,0 0,62 148,0 0,1 -133,258 z" transform="translate(36.2572,-3679)" id="n7" style="fill:#fefefe;fill-rule:nonzero" number="7" type="number"></path><path d="m 6686,5248 73,0 0,-321 -62,0 -85,40 12,56 61,-29 1,0 0,254 z m 387,0 0,-62 -122,0 0,-1 30,-25 c 47,-41 85,-84 85,-139 0,-58 -40,-100 -113,-100 -43,0 -81,15 -105,33 l 21,53 c 17,-12 41,-26 69,-26 37,0 52,21 52,47 -1,38 -35,74 -105,137 l -41,37 0,45 228,0 z" transform="translate(36.2572,-3679)" id="n12" style="fill:#fefefe;fill-rule:nonzero" number="12" type="number"></path><path d="m 6686,4474 73,0 0,-321 -62,0 -85,40 12,56 61,-29 1,0 0,254 z m 254,0 73,0 0,-321 -62,0 -85,40 12,56 61,-29 1,0 0,254 z" transform="translate(36.2572,-3679)" id="n11" style="fill:#fefefe;fill-rule:nonzero" number="11" type="number"></path><path d="m 7904,5250 73,0 0,-321 -62,0 -85,40 12,56 61,-29 1,0 0,254 z m 363,-325 c -7,0 -16,-1 -30,1 -50,2 -92,18 -123,47 -35,33 -57,83 -57,143 0,77 42,140 128,140 69,0 118,-52 118,-116 0,-67 -45,-105 -99,-105 -30,0 -52,9 -68,25 l -1,0 c 8,-37 38,-71 105,-77 12,-1 21,-1 29,-1 l 0,-58 z m -84,276 c -35,0 -51,-31 -52,-65 0,-9 1,-15 3,-19 7,-16 24,-28 44,-28 32,0 48,26 48,55 0,33 -17,57 -43,57 z" transform="translate(36.2572,-3679)" id="n16" style="fill:#fefefe;fill-rule:nonzero" number="16" type="number"></path><path d="m 7912,4474 73,0 0,-321 -62,0 -85,40 12,56 61,-29 1,0 0,254 z m 373,-321 -177,0 -21,168 c 13,-2 25,-3 43,-3 64,0 90,20 90,53 0,34 -33,49 -64,49 -29,0 -58,-9 -72,-16 l -14,56 c 18,9 50,18 89,18 86,0 138,-53 138,-113 0,-38 -15,-64 -39,-81 -22,-16 -54,-23 -84,-23 -8,0 -14,0 -21,1 l 7,-49 124,0 0,-62 z" transform="translate(36.2572,-3679)" id="n15" style="fill:#fefefe;fill-rule:nonzero" number="15" type="number"></path><path d="m 9738,5248 0,-62 -122,0 0,-1 30,-25 c 47,-41 85,-84 85,-139 0,-58 -40,-100 -113,-100 -43,0 -81,15 -105,33 l 21,53 c 17,-12 41,-26 69,-26 37,0 52,21 52,47 -1,38 -35,74 -105,137 l -41,37 0,45 228,0 z m 144,-326 c -83,0 -122,73 -122,166 0,91 37,165 120,165 81,0 122,-69 122,-167 0,-88 -34,-164 -120,-164 z m -1,57 c 30,0 45,38 45,109 0,73 -16,110 -45,110 -29,0 -46,-35 -46,-109 0,-75 19,-110 46,-110 z" transform="translate(36.2572,-3679)" id="n20" style="fill:#fefefe;fill-rule:nonzero" number="20" type="number" hover=""></path><path d="m 9605,4474 73,0 0,-321 -62,0 -85,40 12,56 61,-29 1,0 0,254 z m 182,4 c 8,1 22,1 34,0 50,-2 92,-17 123,-44 35,-33 56,-81 56,-148 0,-75 -39,-138 -121,-138 -71,0 -121,53 -121,116 0,63 45,100 100,100 29,0 50,-8 65,-23 l 1,0 c -5,24 -19,45 -41,60 -17,12 -40,18 -63,20 -15,0 -23,1 -33,0 l 0,58 z m 89,-276 c 35,0 48,34 47,68 0,9 -1,14 -3,19 -7,11 -21,21 -42,21 -30,0 -45,-24 -45,-51 0,-34 18,-56 43,-56 z" transform="translate(36.2572,-3679)" id="n19" style="fill:#fefefe;fill-rule:nonzero"></path><path d="m 10967,5248 0,-62 -122,0 0,-1 30,-25 c 47,-41 85,-84 85,-139 0,-58 -40,-100 -113,-100 -43,0 -81,15 -105,33 l 21,53 c 17,-12 41,-26 69,-26 37,0 52,21 52,47 -1,38 -35,74 -105,137 l -41,37 0,45 228,0 z m 230,0 0,-77 38,0 0,-56 -38,0 0,-188 -92,0 -121,196 0,49 142,0 0,77 71,0 z m -144,-133 0,-1 42,-70 c 11,-20 20,-39 30,-60 l 1,0 c -1,21 -2,41 -2,60 l 0,71 -73,0 z" transform="translate(36.2572,-3679)" id="n24" style="fill:#fefefe;fill-rule:nonzero"></path><path d="m 10975,4474 0,-62 -122,0 0,-1 30,-25 c 47,-41 85,-84 85,-139 0,-58 -40,-100 -113,-100 -43,0 -81,15 -105,33 l 21,53 c 17,-12 41,-26 69,-26 37,0 52,21 52,47 -1,38 -35,74 -105,137 l -41,37 0,45 228,0 z m 24,-17 c 19,11 54,22 95,22 81,0 131,-41 131,-98 0,-42 -31,-72 -70,-79 l 0,-1 c 40,-13 59,-41 59,-75 0,-44 -38,-80 -106,-80 -42,0 -80,12 -99,24 l 15,54 c 13,-8 41,-19 67,-19 32,0 47,14 47,34 0,27 -32,37 -57,37 l -30,0 0,54 31,0 c 33,0 65,14 65,46 0,24 -20,42 -59,42 -31,0 -61,-12 -75,-20 l -15,57 z" transform="translate(36.2572,-3679)" id="n23" style="fill:#fefefe;fill-rule:nonzero" number="23" type="number"></path><path d="m 12240,5248 0,-62 -122,0 0,-1 30,-25 c 47,-41 85,-84 85,-139 0,-58 -40,-100 -113,-100 -43,0 -81,15 -105,33 l 21,53 c 17,-12 41,-26 69,-26 37,0 52,21 52,47 -1,38 -35,74 -105,137 l -41,37 0,45 228,0 z m 78,-164 c -35,15 -57,42 -57,81 0,43 38,89 119,89 75,0 123,-40 123,-98 0,-41 -28,-68 -59,-80 l 0,-1 c 32,-16 47,-43 47,-71 0,-39 -31,-82 -106,-82 -64,0 -113,36 -113,90 0,28 15,54 46,71 l 0,1 z m 65,118 c -28,0 -46,-22 -45,-45 0,-23 14,-41 39,-48 29,8 50,25 50,53 0,23 -18,40 -44,40 z m -1,-229 c 28,0 39,20 39,40 0,20 -15,36 -33,41 -26,-8 -45,-22 -45,-43 0,-20 13,-37 39,-37 z" transform="translate(36.2572,-3679)" id="n28" style="fill:#fefefe;fill-rule:nonzero" number="28" type="number" hover=""></path><path d="m 12239,4474 0,-62 -122,0 0,-1 30,-25 c 47,-41 85,-84 85,-139 0,-58 -40,-100 -113,-100 -43,0 -81,15 -105,33 l 21,53 c 17,-12 41,-26 69,-26 37,0 52,21 52,47 -1,38 -35,74 -105,137 l -41,37 0,45 228,0 z m 29,-321 0,62 147,0 0,1 -132,258 80,0 132,-274 0,-47 -227,0 z" transform="translate(36.2572,-3679)" id="n27" style="fill:#fefefe;fill-rule:nonzero" number="27" type="number"></path><path d="m 13300,5231 c 19,11 54,22 95,22 81,0 131,-41 131,-98 0,-42 -31,-72 -70,-79 l 0,-1 c 40,-13 59,-41 59,-75 0,-44 -38,-80 -106,-80 -42,0 -80,12 -99,24 l 15,54 c 13,-8 41,-19 67,-19 32,0 47,14 47,34 0,27 -32,37 -57,37 l -30,0 0,54 31,0 c 33,0 65,14 65,46 0,24 -20,42 -59,42 -31,0 -61,-12 -75,-20 l -15,57 z m 484,17 0,-62 -122,0 0,-1 30,-25 c 47,-41 85,-84 85,-139 0,-58 -40,-100 -113,-100 -43,0 -81,15 -105,33 l 21,53 c 17,-12 41,-26 69,-26 37,0 52,21 52,47 -1,38 -35,74 -105,137 l -41,37 0,45 228,0 z" transform="translate(36.2572,-3679)" id="n32" style="fill:#fefefe;fill-rule:nonzero" number="32" type="number"></path><path d="m 13309,4457 c 19,11 54,22 95,22 81,0 131,-41 131,-98 0,-42 -31,-72 -70,-79 l 0,-1 c 40,-13 59,-41 59,-75 0,-44 -38,-80 -106,-80 -42,0 -80,12 -99,24 l 15,54 c 13,-8 41,-19 67,-19 32,0 47,14 47,34 0,27 -32,37 -57,37 l -30,0 0,54 31,0 c 33,0 65,14 65,46 0,24 -20,42 -59,42 -31,0 -61,-12 -75,-20 l -15,57 z m 352,17 73,0 0,-321 -62,0 -85,40 12,56 61,-29 1,0 0,254 z" transform="translate(36.2572,-3679)" id="n31" style="fill:#fefefe;fill-rule:nonzero"></path><path d="m 3190,5250 0,-62 -122,0 0,-1 30,-25 c 47,-41 85,-84 85,-139 0,-58 -40,-100 -113,-100 -43,0 -81,15 -105,33 l 21,53 c 17,-12 41,-26 69,-26 37,0 52,21 52,47 -1,38 -35,74 -105,137 l -41,37 0,45 228,0 z" transform="translate(36.2572,-3679)" id="n2" style="fill:#fefefe;fill-rule:nonzero" number="2" type="number" hover=""></path><path d="m 3015,4249 61,-29 1,0 0,254 73,0 0,-321 -62,0 -85,39 z" transform="translate(36.2572,-3679)" id="n1" style="fill:#fefefe;fill-rule:nonzero" number="1" type="number"></path><path d="m 4424,7378 -177,0 -21,168 c 13,-2 25,-3 43,-3 64,0 90,20 90,53 0,34 -33,49 -64,49 -29,0 -58,-9 -72,-16 l -14,56 c 18,9 50,18 89,18 86,0 138,-53 138,-113 0,-38 -15,-64 -39,-81 -22,-16 -54,-23 -84,-23 -8,0 -14,0 -21,1 l 7,-49 124,0 0,-62 z" transform="translate(36.2572,-3679)" id="n5" style="fill:#fefefe;fill-rule:nonzero" number="5" type="number"></path><path d="m 4420,6599 c -7,0 -16,-1 -30,1 -50,2 -92,18 -123,47 -35,33 -57,83 -57,143 0,77 42,140 128,140 69,0 118,-52 118,-116 0,-67 -45,-105 -99,-105 -30,0 -52,9 -68,25 l -1,0 c 8,-37 38,-71 105,-77 12,-1 21,-1 29,-1 l 0,-58 z m -84,276 c -35,0 -51,-31 -52,-65 0,-9 1,-15 3,-19 7,-16 24,-28 44,-28 32,0 48,26 48,55 0,33 -17,57 -43,57 z" transform="translate(36.2572,-3679)" id="n6" style="fill:#fefefe;fill-rule:nonzero" number="6" type="number"></path><path d="m 5504,7703 c 8,1 22,1 34,0 50,-2 92,-17 123,-44 35,-33 56,-81 56,-148 0,-75 -39,-138 -121,-138 -71,0 -121,53 -121,116 0,63 45,100 100,100 29,0 50,-8 65,-23 l 1,0 c -5,24 -19,45 -41,60 -17,12 -40,18 -63,20 -15,0 -23,1 -33,0 l 0,58 z m 89,-276 c 35,0 48,34 47,68 0,9 -1,14 -3,19 -7,11 -21,21 -42,21 -30,0 -45,-24 -45,-51 0,-34 18,-56 43,-56 z" transform="translate(36.2572,-3679)" id="n9" style="fill:#fefefe;fill-rule:nonzero" number="9" type="number" hover=""></path><path d="m 5416,6925 73,0 0,-321 -62,0 -85,40 12,56 61,-29 1,0 0,254 z m 276,-326 c -83,0 -122,73 -122,166 0,91 37,165 120,165 81,0 122,-69 122,-167 0,-88 -34,-164 -120,-164 z m -1,57 c 30,0 45,38 45,109 0,73 -16,110 -45,110 -29,0 -46,-35 -46,-109 0,-75 19,-110 46,-110 z" transform="translate(36.2572,-3679)" id="n10" style="fill:#fefefe;fill-rule:nonzero" number="10" type="number"></path><path d="m 6666,7699 73,0 0,-321 -62,0 -85,40 12,56 61,-29 1,0 0,254 z m 156,-17 c 19,11 54,22 95,22 81,0 131,-41 131,-98 0,-42 -31,-72 -70,-79 l 0,-1 c 40,-13 59,-41 59,-75 0,-44 -38,-80 -106,-80 -42,0 -80,12 -99,24 l 15,54 c 13,-8 41,-19 67,-19 32,0 47,14 47,34 0,27 -32,37 -57,37 l -30,0 0,54 31,0 c 33,0 65,14 65,46 0,24 -20,42 -59,42 -31,0 -61,-12 -75,-20 l -15,57 z" transform="translate(36.2572,-3679)" id="n13" style="fill:#fefefe;fill-rule:nonzero" number="13" type="number" hover=""></path><path d="m 6666,6925 73,0 0,-321 -62,0 -85,40 12,56 61,-29 1,0 0,254 z m 362,0 0,-77 38,0 0,-56 -38,0 0,-188 -92,0 -121,196 0,49 142,0 0,77 71,0 z m -144,-133 0,-1 42,-70 c 11,-20 20,-39 30,-60 l 1,0 c -1,21 -2,41 -2,60 l 0,71 -73,0 z" transform="translate(36.2572,-3679)" id="n14" style="fill:#fefefe;fill-rule:nonzero" number="14" type="number"></path><path d="m 7904,7701 73,0 0,-321 -62,0 -85,40 12,56 61,-29 1,0 0,254 z m 162,-321 0,62 147,0 0,1 -132,258 80,0 132,-274 0,-47 -227,0 z" transform="translate(36.2572,-3679)" id="n17" style="fill:#fefefe;fill-rule:nonzero" number="17" type="number"></path><path d="m 7912,6925 73,0 0,-321 -62,0 -85,40 12,56 61,-29 1,0 0,254 z m 211,-164 c -35,15 -57,42 -57,81 0,43 38,89 119,89 75,0 123,-40 123,-98 0,-41 -28,-68 -59,-80 l 0,-1 c 32,-16 47,-43 47,-71 0,-39 -31,-82 -106,-82 -64,0 -113,36 -113,90 0,28 15,54 46,71 l 0,1 z m 65,118 c -28,0 -46,-22 -45,-45 0,-23 14,-41 39,-48 29,8 50,25 50,53 0,23 -18,40 -44,40 z m -1,-229 c 28,0 39,20 39,40 0,20 -15,36 -33,41 -26,-8 -45,-22 -45,-43 0,-20 13,-37 39,-37 z" transform="translate(36.2572,-3679)" id="n18" style="fill:#fefefe;fill-rule:nonzero" number="18" type="number"></path><path d="m 9738,7699 0,-62 -122,0 0,-1 30,-25 c 47,-41 85,-84 85,-139 0,-58 -40,-100 -113,-100 -43,0 -81,15 -105,33 l 21,53 c 17,-12 41,-26 69,-26 37,0 52,21 52,47 -1,38 -35,74 -105,137 l -41,37 0,45 228,0 z m 122,0 73,0 0,-321 -62,0 -85,40 12,56 61,-29 1,0 0,254 z" transform="translate(36.2572,-3679)" id="n21" style="fill:#fefefe;fill-rule:nonzero" number="21" type="number"></path><path d="m 9738,6925 0,-62 -122,0 0,-1 30,-25 c 47,-41 85,-84 85,-139 0,-58 -40,-100 -113,-100 -43,0 -81,15 -105,33 l 21,53 c 17,-12 41,-26 69,-26 37,0 52,21 52,47 -1,38 -35,74 -105,137 l -41,37 0,45 228,0 z m 254,0 0,-62 -122,0 0,-1 30,-25 c 47,-41 85,-84 85,-139 0,-58 -40,-100 -113,-100 -43,0 -81,15 -105,33 l 21,53 c 17,-12 41,-26 69,-26 37,0 52,21 52,47 -1,38 -35,74 -105,137 l -41,37 0,45 228,0 z" transform="translate(36.2572,-3679)" id="n22" style="fill:#fefefe;fill-rule:nonzero" number="22" type="number"></path><path d="m 10967,7699 0,-62 -122,0 0,-1 30,-25 c 47,-41 85,-84 85,-139 0,-58 -40,-100 -113,-100 -43,0 -81,15 -105,33 l 21,53 c 17,-12 41,-26 69,-26 37,0 52,21 52,47 -1,38 -35,74 -105,137 l -41,37 0,45 228,0 z m 240,-321 -177,0 -21,168 c 13,-2 25,-3 43,-3 64,0 90,20 90,53 0,34 -33,49 -64,49 -29,0 -58,-9 -72,-16 l -14,56 c 18,9 50,18 89,18 86,0 138,-53 138,-113 0,-38 -15,-64 -39,-81 -22,-16 -54,-23 -84,-23 -8,0 -14,0 -21,1 l 7,-49 124,0 0,-62 z" transform="translate(36.2572,-3679)" id="n25" style="fill:#fefefe;fill-rule:nonzero"></path><path d="m 10975,6925 0,-62 -122,0 0,-1 30,-25 c 47,-41 85,-84 85,-139 0,-58 -40,-100 -113,-100 -43,0 -81,15 -105,33 l 21,53 c 17,-12 41,-26 69,-26 37,0 52,21 52,47 -1,38 -35,74 -105,137 l -41,37 0,45 228,0 z m 231,-325 c -7,0 -16,-1 -30,1 -50,2 -92,18 -123,47 -35,33 -57,83 -57,143 0,77 42,140 128,140 69,0 118,-52 118,-116 0,-67 -45,-105 -99,-105 -30,0 -52,9 -68,25 l -1,0 c 8,-37 38,-71 105,-77 12,-1 21,-1 29,-1 l 0,-58 z m -84,276 c -35,0 -51,-31 -52,-65 0,-9 1,-15 3,-19 7,-16 24,-28 44,-28 32,0 48,26 48,55 0,33 -17,57 -43,57 z" transform="translate(36.2572,-3679)" id="n26" style="fill:#fefefe;fill-rule:nonzero" number="26" type="number" hover=""></path><path d="m 12240,7699 0,-62 -122,0 0,-1 30,-25 c 47,-41 85,-84 85,-139 0,-58 -40,-100 -113,-100 -43,0 -81,15 -105,33 l 21,53 c 17,-12 41,-26 69,-26 37,0 52,21 52,47 -1,38 -35,74 -105,137 l -41,37 0,45 228,0 z m 49,4 c 8,1 22,1 34,0 50,-2 92,-17 123,-44 35,-33 56,-81 56,-148 0,-75 -39,-138 -121,-138 -71,0 -121,53 -121,116 0,63 45,100 100,100 29,0 50,-8 65,-23 l 1,0 c -5,24 -19,45 -41,60 -17,12 -40,18 -63,20 -15,0 -23,1 -33,0 l 0,58 z m 89,-276 c 35,0 48,34 47,68 0,9 -1,14 -3,19 -7,11 -21,21 -42,21 -30,0 -45,-24 -45,-51 0,-34 18,-56 43,-56 z" transform="translate(36.2572,-3679)" id="n29" style="fill:#fefefe;fill-rule:nonzero" number="29" type="number"></path><path d="m 12009,6908 c 19,11 54,22 95,22 81,0 131,-41 131,-98 0,-42 -31,-72 -70,-79 l 0,-1 c 40,-13 59,-41 59,-75 0,-44 -38,-80 -106,-80 -42,0 -80,12 -99,24 l 15,54 c 13,-8 41,-19 67,-19 32,0 47,14 47,34 0,27 -32,37 -57,37 l -30,0 0,54 31,0 c 33,0 65,14 65,46 0,24 -20,42 -59,42 -31,0 -61,-12 -75,-20 l -15,57 z m 374,-310 c -83,0 -122,73 -122,166 0,91 37,165 120,165 81,0 122,-69 122,-167 0,-88 -34,-164 -120,-164 z m -1,57 c 30,0 45,38 45,109 0,73 -16,110 -45,110 -29,0 -46,-35 -46,-109 0,-75 19,-110 46,-110 z" transform="translate(36.2572,-3679)" id="n30" style="fill:#fefefe;fill-rule:nonzero" number="30" type="number"></path><path d="m 13240,7682 c 19,11 54,22 95,22 81,0 131,-41 131,-98 0,-42 -31,-72 -70,-79 l 0,-1 c 40,-13 59,-41 59,-75 0,-44 -38,-80 -106,-80 -42,0 -80,12 -99,24 l 15,54 c 13,-8 41,-19 67,-19 32,0 47,14 47,34 0,27 -32,37 -57,37 l -30,0 0,54 31,0 c 33,0 65,14 65,46 0,24 -20,42 -59,42 -31,0 -61,-12 -75,-20 l -15,57 z m 254,0 c 19,11 54,22 95,22 81,0 131,-41 131,-98 0,-42 -31,-72 -70,-79 l 0,-1 c 40,-13 59,-41 59,-75 0,-44 -38,-80 -106,-80 -42,0 -80,12 -99,24 l 15,54 c 13,-8 41,-19 67,-19 32,0 47,14 47,34 0,27 -32,37 -57,37 l -30,0 0,54 31,0 c 33,0 65,14 65,46 0,24 -20,42 -59,42 -31,0 -61,-12 -75,-20 l -15,57 z" transform="translate(36.2572,-3679)" id="n33" style="fill:#fefefe;fill-rule:nonzero" number="33" type="number"></path><path d="m 13249,6908 c 19,11 54,22 95,22 81,0 131,-41 131,-98 0,-42 -31,-72 -70,-79 l 0,-1 c 40,-13 59,-41 59,-75 0,-44 -38,-80 -106,-80 -42,0 -80,12 -99,24 l 15,54 c 13,-8 41,-19 67,-19 32,0 47,14 47,34 0,27 -32,37 -57,37 l -30,0 0,54 31,0 c 33,0 65,14 65,46 0,24 -20,42 -59,42 -31,0 -61,-12 -75,-20 l -15,57 z m 460,17 0,-77 38,0 0,-56 -38,0 0,-188 -92,0 -121,196 0,49 142,0 0,77 71,0 z m -144,-133 0,-1 42,-70 c 11,-20 20,-39 30,-60 l 1,0 c -1,21 -2,41 -2,60 l 0,71 -73,0 z" transform="translate(36.2572,-3679)" id="n34" style="fill:#fefefe;fill-rule:nonzero" number="34" type="number"></path><path d="m 17034,5231 c 19,11 54,22 95,22 81,0 131,-41 131,-98 0,-42 -31,-72 -70,-79 l 0,-1 c 40,-13 59,-41 59,-75 0,-44 -38,-80 -106,-80 -42,0 -80,12 -99,24 l 15,54 c 13,-8 41,-19 67,-19 32,0 47,14 47,34 0,27 -32,37 -57,37 l -30,0 0,54 31,0 c 33,0 65,14 65,46 0,24 -20,42 -59,42 -31,0 -61,-12 -75,-20 l -15,57 z m 461,-309 c -7,0 -16,-1 -30,1 -50,2 -92,18 -123,47 -35,33 -57,83 -57,143 0,77 42,140 128,140 69,0 118,-52 118,-116 0,-67 -45,-105 -99,-105 -30,0 -52,9 -68,25 l -1,0 c 8,-37 38,-71 105,-77 12,-1 21,-1 29,-1 l 0,-58 z m -84,276 c -35,0 -51,-31 -52,-65 0,-9 1,-15 3,-19 7,-16 24,-28 44,-28 32,0 48,26 48,55 0,33 -17,57 -43,57 z" transform="translate(36.2572,-3679)" id="n36" style="fill:#fefefe;fill-rule:nonzero" number="36" type="number"></path><path d="m 17033,4457 c 19,11 54,22 95,22 81,0 131,-41 131,-98 0,-42 -31,-72 -70,-79 l 0,-1 c 40,-13 59,-41 59,-75 0,-44 -38,-80 -106,-80 -42,0 -80,12 -99,24 l 15,54 c 13,-8 41,-19 67,-19 32,0 47,14 47,34 0,27 -32,37 -57,37 l -30,0 0,54 31,0 c 33,0 65,14 65,46 0,24 -20,42 -59,42 -31,0 -61,-12 -75,-20 l -15,57 z m 470,-304 -177,0 -21,168 c 13,-2 25,-3 43,-3 64,0 90,20 90,53 0,34 -33,49 -64,49 -29,0 -58,-9 -72,-16 l -14,56 c 18,9 50,18 89,18 86,0 138,-53 138,-113 0,-38 -15,-64 -39,-81 -22,-16 -54,-23 -84,-23 -8,0 -14,0 -21,1 l 7,-49 124,0 0,-62 z" transform="translate(36.2572,-3679)" id="n35" style="fill:#fefefe;fill-rule:nonzero"></path><path d="m 18470,5248 0,-77 38,0 0,-56 -38,0 0,-188 -92,0 -121,196 0,49 142,0 0,77 71,0 z m -144,-133 0,-1 42,-70 c 11,-20 20,-39 30,-60 l 1,0 c -1,21 -2,41 -2,60 l 0,71 -73,0 z m 311,-194 c -83,0 -122,73 -122,166 0,91 37,165 120,165 81,0 122,-69 122,-167 0,-88 -34,-164 -120,-164 z m -1,57 c 30,0 45,38 45,109 0,73 -16,110 -45,110 -29,0 -46,-35 -46,-109 0,-75 19,-110 46,-110 z" transform="translate(36.2572,-3679)" id="n40" style="fill:#fefefe;fill-rule:nonzero" number="40" type="number"></path><path d="m 18263,4457 c 19,11 54,22 95,22 81,0 131,-41 131,-98 0,-42 -31,-72 -70,-79 l 0,-1 c 40,-13 59,-41 59,-75 0,-44 -38,-80 -106,-80 -42,0 -80,12 -99,24 l 15,54 c 13,-8 41,-19 67,-19 32,0 47,14 47,34 0,27 -32,37 -57,37 l -30,0 0,54 31,0 c 33,0 65,14 65,46 0,24 -20,42 -59,42 -31,0 -61,-12 -75,-20 l -15,57 z m 279,21 c 8,1 22,1 34,0 50,-2 92,-17 123,-44 35,-33 56,-81 56,-148 0,-75 -39,-138 -121,-138 -71,0 -121,53 -121,116 0,63 45,100 100,100 29,0 50,-8 65,-23 l 1,0 c -5,24 -19,45 -41,60 -17,12 -40,18 -63,20 -15,0 -23,1 -33,0 l 0,58 z m 89,-276 c 35,0 48,34 47,68 0,9 -1,14 -3,19 -7,11 -21,21 -42,21 -30,0 -45,-24 -45,-51 0,-34 18,-56 43,-56 z" transform="translate(36.2572,-3679)" id="n39" style="fill:#fefefe;fill-rule:nonzero" number="39" type="number"></path><path d="m 19707,5250 0,-77 38,0 0,-56 -38,0 0,-188 -92,0 -121,196 0,49 142,0 0,77 71,0 z m -144,-133 0,-1 42,-70 c 11,-20 20,-39 30,-60 l 1,0 c -1,21 -2,41 -2,60 l 0,71 -73,0 z m 398,133 0,-77 38,0 0,-56 -38,0 0,-188 -92,0 -121,196 0,49 142,0 0,77 71,0 z m -144,-133 0,-1 42,-70 c 11,-20 20,-39 30,-60 l 1,0 c -1,21 -2,41 -2,60 l 0,71 -73,0 z" transform="translate(36.2572,-3679)" id="n44" style="fill:#fefefe;fill-rule:nonzero" number="44" type="number"></path><path d="m 19716,4474 0,-77 38,0 0,-56 -38,0 0,-188 -92,0 -121,196 0,49 142,0 0,77 71,0 z m -144,-133 0,-1 42,-70 c 11,-20 20,-39 30,-60 l 1,0 c -1,21 -2,41 -2,60 l 0,71 -73,0 z m 192,116 c 19,11 54,22 95,22 81,0 131,-41 131,-98 0,-42 -31,-72 -70,-79 l 0,-1 c 40,-13 59,-41 59,-75 0,-44 -38,-80 -106,-80 -42,0 -80,12 -99,24 l 15,54 c 13,-8 41,-19 67,-19 32,0 47,14 47,34 0,27 -32,37 -57,37 l -30,0 0,54 31,0 c 33,0 65,14 65,46 0,24 -20,42 -59,42 -31,0 -61,-12 -75,-20 l -15,57 z" transform="translate(36.2572,-3679)" id="n43" style="fill:#fefefe;fill-rule:nonzero"></path><path d="m 20974,5248 0,-77 38,0 0,-56 -38,0 0,-188 -92,0 -121,196 0,49 142,0 0,77 71,0 z m -144,-133 0,-1 42,-70 c 11,-20 20,-39 30,-60 l 1,0 c -1,21 -2,41 -2,60 l 0,71 -73,0 z m 246,-32 c -35,15 -57,42 -57,81 0,43 38,89 119,89 75,0 123,-40 123,-98 0,-41 -28,-68 -59,-80 l 0,-1 c 32,-16 47,-43 47,-71 0,-39 -31,-82 -106,-82 -64,0 -113,36 -113,90 0,28 15,54 46,71 l 0,1 z m 65,118 c -28,0 -46,-22 -45,-45 0,-23 14,-41 39,-48 29,8 50,25 50,53 0,23 -18,40 -44,40 z m -1,-229 c 28,0 39,20 39,40 0,20 -15,36 -33,41 -26,-8 -45,-22 -45,-43 0,-20 13,-37 39,-37 z" transform="translate(36.2572,-3679)" id="n48" style="fill:#fefefe;fill-rule:nonzero"></path><path d="m 20974,4474 0,-77 38,0 0,-56 -38,0 0,-188 -92,0 -121,196 0,49 142,0 0,77 71,0 z m -144,-133 0,-1 42,-70 c 11,-20 20,-39 30,-60 l 1,0 c -1,21 -2,41 -2,60 l 0,71 -73,0 z m 197,-188 0,62 147,0 0,1 -132,258 80,0 132,-274 0,-47 -227,0 z" transform="translate(36.2572,-3679)" id="n47" style="fill:#fefefe;fill-rule:nonzero"></path><path d="m 22628,4927 -177,0 -21,168 c 13,-2 25,-3 43,-3 64,0 90,20 90,53 0,34 -33,49 -64,49 -29,0 -58,-9 -72,-16 l -14,56 c 18,9 50,18 89,18 86,0 138,-53 138,-113 0,-38 -15,-64 -39,-81 -22,-16 -54,-23 -84,-23 -8,0 -14,0 -21,1 l 7,-49 124,0 0,-62 z m 268,321 0,-62 -122,0 0,-1 30,-25 c 47,-41 85,-84 85,-139 0,-58 -40,-100 -113,-100 -43,0 -81,15 -105,33 l 21,53 c 17,-12 41,-26 69,-26 37,0 52,21 52,47 -1,38 -35,74 -105,137 l -41,37 0,45 228,0 z" transform="translate(36.2572,-3679)" id="n52" style="fill:#fefefe;fill-rule:nonzero"></path><path d="m 22637,4153 -177,0 -21,168 c 13,-2 25,-3 43,-3 64,0 90,20 90,53 0,34 -33,49 -64,49 -29,0 -58,-9 -72,-16 l -14,56 c 18,9 50,18 89,18 86,0 138,-53 138,-113 0,-38 -15,-64 -39,-81 -22,-16 -54,-23 -84,-23 -8,0 -14,0 -21,1 l 7,-49 124,0 0,-62 z m 136,321 73,0 0,-321 -62,0 -85,40 12,56 61,-29 1,0 0,254 z" transform="translate(36.2572,-3679)" id="n51" style="fill:#fefefe;fill-rule:nonzero"></path><path d="m 23881,4927 -177,0 -21,168 c 13,-2 25,-3 43,-3 64,0 90,20 90,53 0,34 -33,49 -64,49 -29,0 -58,-9 -72,-16 l -14,56 c 18,9 50,18 89,18 86,0 138,-53 138,-113 0,-38 -15,-64 -39,-81 -22,-16 -54,-23 -84,-23 -8,0 -14,0 -21,1 l 7,-49 124,0 0,-62 z m 245,-4 c -7,0 -16,-1 -30,1 -50,2 -92,18 -123,47 -35,33 -57,83 -57,143 0,77 42,140 128,140 69,0 118,-52 118,-116 0,-67 -45,-105 -99,-105 -30,0 -52,9 -68,25 l -1,0 c 8,-37 38,-71 105,-77 12,-1 21,-1 29,-1 l 0,-58 z m -84,276 c -35,0 -51,-31 -52,-65 0,-9 1,-15 3,-19 7,-16 24,-28 44,-28 32,0 48,26 48,55 0,33 -17,57 -43,57 z" transform="translate(36.2572,-3679)" id="n56" style="fill:#fefefe;fill-rule:nonzero" number="56" type="number"></path><path d="m 23881,4153 -177,0 -21,168 c 13,-2 25,-3 43,-3 64,0 90,20 90,53 0,34 -33,49 -64,49 -29,0 -58,-9 -72,-16 l -14,56 c 18,9 50,18 89,18 86,0 138,-53 138,-113 0,-38 -15,-64 -39,-81 -22,-16 -54,-23 -84,-23 -8,0 -14,0 -21,1 l 7,-49 124,0 0,-62 z m 254,0 -177,0 -21,168 c 13,-2 25,-3 43,-3 64,0 90,20 90,53 0,34 -33,49 -64,49 -29,0 -58,-9 -72,-16 l -14,56 c 18,9 50,18 89,18 86,0 138,-53 138,-113 0,-38 -15,-64 -39,-81 -22,-16 -54,-23 -84,-23 -8,0 -14,0 -21,1 l 7,-49 124,0 0,-62 z" transform="translate(36.2572,-3679)" id="n55" style="fill:#fefefe;fill-rule:nonzero" number="55" type="number"></path><path d="m 25123,4922 c -7,0 -16,-1 -30,1 -50,2 -92,18 -123,47 -35,33 -57,83 -57,143 0,77 42,140 128,140 69,0 118,-52 118,-116 0,-67 -45,-105 -99,-105 -30,0 -52,9 -68,25 l -1,0 c 8,-37 38,-71 105,-77 12,-1 21,-1 29,-1 l 0,-58 z m -84,276 c -35,0 -51,-31 -52,-65 0,-9 1,-15 3,-19 7,-16 24,-28 44,-28 32,0 48,26 48,55 0,33 -17,57 -43,57 z m 251,-277 c -83,0 -122,73 -122,166 0,91 37,165 120,165 81,0 122,-69 122,-167 0,-88 -34,-164 -120,-164 z m -1,57 c 30,0 45,38 45,109 0,73 -16,110 -45,110 -29,0 -46,-35 -46,-109 0,-75 19,-110 46,-110 z" transform="translate(36.2572,-3679)" id="n60" style="fill:#fefefe;fill-rule:nonzero" number="60" type="number"></path><path d="m 25141,4153 -177,0 -21,168 c 13,-2 25,-3 43,-3 64,0 90,20 90,53 0,34 -33,49 -64,49 -29,0 -58,-9 -72,-16 l -14,56 c 18,9 50,18 89,18 86,0 138,-53 138,-113 0,-38 -15,-64 -39,-81 -22,-16 -54,-23 -84,-23 -8,0 -14,0 -21,1 l 7,-49 124,0 0,-62 z m 63,325 c 8,1 22,1 34,0 50,-2 92,-17 123,-44 35,-33 56,-81 56,-148 0,-75 -39,-138 -121,-138 -71,0 -121,53 -121,116 0,63 45,100 100,100 29,0 50,-8 65,-23 l 1,0 c -5,24 -19,45 -41,60 -17,12 -40,18 -63,20 -15,0 -23,1 -33,0 l 0,58 z m 89,-276 c 35,0 48,34 47,68 0,9 -1,14 -3,19 -7,11 -21,21 -42,21 -30,0 -45,-24 -45,-51 0,-34 18,-56 43,-56 z" transform="translate(36.2572,-3679)" id="n59" style="fill:#fefefe;fill-rule:nonzero" number="59" type="number"></path><path d="m 17034,7690 c 19,11 54,22 95,22 81,0 131,-41 131,-98 0,-42 -31,-72 -70,-79 l 0,-1 c 40,-13 59,-41 59,-75 0,-44 -38,-80 -106,-80 -42,0 -80,12 -99,24 l 15,54 c 13,-8 41,-19 67,-19 32,0 47,14 47,34 0,27 -32,37 -57,37 l -30,0 0,54 31,0 c 33,0 65,14 65,46 0,24 -20,42 -59,42 -31,0 -61,-12 -75,-20 l -15,57 z m 260,-304 0,62 147,0 0,1 -132,258 80,0 132,-274 0,-47 -227,0 z" transform="translate(36.2572,-3679)" id="n37" style="fill:#fefefe;fill-rule:nonzero" number="37" type="number"></path><path d="m 17033,6916 c 19,11 54,22 95,22 81,0 131,-41 131,-98 0,-42 -31,-72 -70,-79 l 0,-1 c 40,-13 59,-41 59,-75 0,-44 -38,-80 -106,-80 -42,0 -80,12 -99,24 l 15,54 c 13,-8 41,-19 67,-19 32,0 47,14 47,34 0,27 -32,37 -57,37 l -30,0 0,54 31,0 c 33,0 65,14 65,46 0,24 -20,42 -59,42 -31,0 -61,-12 -75,-20 l -15,57 z m 308,-148 c -35,15 -57,42 -57,81 0,43 38,89 119,89 75,0 123,-40 123,-98 0,-41 -28,-68 -59,-80 l 0,-1 c 32,-16 47,-43 47,-71 0,-39 -31,-82 -106,-82 -64,0 -113,36 -113,90 0,28 15,54 46,71 l 0,1 z m 65,118 c -28,0 -46,-22 -45,-45 0,-23 14,-41 39,-48 29,8 50,25 50,53 0,23 -18,40 -44,40 z m -1,-229 c 28,0 39,20 39,40 0,20 -15,36 -33,41 -26,-8 -45,-22 -45,-43 0,-20 13,-37 39,-37 z" transform="translate(36.2572,-3679)" id="n38" style="fill:#fefefe;fill-rule:nonzero" number="38" type="number"></path><path d="m 18470,7707 0,-77 38,0 0,-56 -38,0 0,-188 -92,0 -121,196 0,49 142,0 0,77 71,0 z m -144,-133 0,-1 42,-70 c 11,-20 20,-39 30,-60 l 1,0 c -1,21 -2,41 -2,60 l 0,71 -73,0 z m 290,133 73,0 0,-321 -62,0 -85,40 12,56 61,-29 1,0 0,254 z" transform="translate(36.2572,-3679)" id="n41" style="fill:#fefefe;fill-rule:nonzero" number="41" type="number"></path><path d="m 18469,6933 0,-77 38,0 0,-56 -38,0 0,-188 -92,0 -121,196 0,49 142,0 0,77 71,0 z m -144,-133 0,-1 42,-70 c 11,-20 20,-39 30,-60 l 1,0 c -1,21 -2,41 -2,60 l 0,71 -73,0 z m 422,133 0,-62 -122,0 0,-1 30,-25 c 47,-41 85,-84 85,-139 0,-58 -40,-100 -113,-100 -43,0 -81,15 -105,33 l 21,53 c 17,-12 41,-26 69,-26 37,0 52,21 52,47 -1,38 -35,74 -105,137 l -41,37 0,45 228,0 z" transform="translate(36.2572,-3679)" id="n42" style="fill:#fefefe;fill-rule:nonzero" number="42" type="number"></path><path d="m 19707,7709 0,-77 38,0 0,-56 -38,0 0,-188 -92,0 -121,196 0,49 142,0 0,77 71,0 z m -144,-133 0,-1 42,-70 c 11,-20 20,-39 30,-60 l 1,0 c -1,21 -2,41 -2,60 l 0,71 -73,0 z m 408,-188 -177,0 -21,168 c 13,-2 25,-3 43,-3 64,0 90,20 90,53 0,34 -33,49 -64,49 -29,0 -58,-9 -72,-16 l -14,56 c 18,9 50,18 89,18 86,0 138,-53 138,-113 0,-38 -15,-64 -39,-81 -22,-16 -54,-23 -84,-23 -8,0 -14,0 -21,1 l 7,-49 124,0 0,-62 z" transform="translate(36.2572,-3679)" id="n45" style="fill:#fefefe;fill-rule:nonzero" number="45" type="number"></path><path d="m 19716,6933 0,-77 38,0 0,-56 -38,0 0,-188 -92,0 -121,196 0,49 142,0 0,77 71,0 z m -144,-133 0,-1 42,-70 c 11,-20 20,-39 30,-60 l 1,0 c -1,21 -2,41 -2,60 l 0,71 -73,0 z m 399,-193 c -7,0 -16,-1 -30,1 -50,2 -92,18 -123,47 -35,33 -57,83 -57,143 0,77 42,140 128,140 69,0 118,-52 118,-116 0,-67 -45,-105 -99,-105 -30,0 -52,9 -68,25 l -1,0 c 8,-37 38,-71 105,-77 12,-1 21,-1 29,-1 l 0,-58 z m -84,276 c -35,0 -51,-31 -52,-65 0,-9 1,-15 3,-19 7,-16 24,-28 44,-28 32,0 48,26 48,55 0,33 -17,57 -43,57 z" transform="translate(36.2572,-3679)" id="n46" style="fill:#fefefe;fill-rule:nonzero" number="46" type="number"></path><path d="m 20974,7707 0,-77 38,0 0,-56 -38,0 0,-188 -92,0 -121,196 0,49 142,0 0,77 71,0 z m -144,-133 0,-1 42,-70 c 11,-20 20,-39 30,-60 l 1,0 c -1,21 -2,41 -2,60 l 0,71 -73,0 z m 217,137 c 8,1 22,1 34,0 50,-2 92,-17 123,-44 35,-33 56,-81 56,-148 0,-75 -39,-138 -121,-138 -71,0 -121,53 -121,116 0,63 45,100 100,100 29,0 50,-8 65,-23 l 1,0 c -5,24 -19,45 -41,60 -17,12 -40,18 -63,20 -15,0 -23,1 -33,0 l 0,58 z m 89,-276 c 35,0 48,34 47,68 0,9 -1,14 -3,19 -7,11 -21,21 -42,21 -30,0 -45,-24 -45,-51 0,-34 18,-56 43,-56 z" transform="translate(36.2572,-3679)" id="n49" style="fill:#fefefe;fill-rule:nonzero" number="49" type="number"></path><path d="m 20984,6612 -177,0 -21,168 c 13,-2 25,-3 43,-3 64,0 90,20 90,53 0,34 -33,49 -64,49 -29,0 -58,-9 -72,-16 l -14,56 c 18,9 50,18 89,18 86,0 138,-53 138,-113 0,-38 -15,-64 -39,-81 -22,-16 -54,-23 -84,-23 -8,0 -14,0 -21,1 l 7,-49 124,0 0,-62 z m 157,-5 c -83,0 -122,73 -122,166 0,91 37,165 120,165 81,0 122,-69 122,-167 0,-88 -34,-164 -120,-164 z m -1,57 c 30,0 45,38 45,109 0,73 -16,110 -45,110 -29,0 -46,-35 -46,-109 0,-75 19,-110 46,-110 z" transform="translate(36.2572,-3679)" id="n50" style="fill:#fefefe;fill-rule:nonzero" number="50" type="number"></path><path d="m 22628,7386 -177,0 -21,168 c 13,-2 25,-3 43,-3 64,0 90,20 90,53 0,34 -33,49 -64,49 -29,0 -58,-9 -72,-16 l -14,56 c 18,9 50,18 89,18 86,0 138,-53 138,-113 0,-38 -15,-64 -39,-81 -22,-16 -54,-23 -84,-23 -8,0 -14,0 -21,1 l 7,-49 124,0 0,-62 z m 38,304 c 19,11 54,22 95,22 81,0 131,-41 131,-98 0,-42 -31,-72 -70,-79 l 0,-1 c 40,-13 59,-41 59,-75 0,-44 -38,-80 -106,-80 -42,0 -80,12 -99,24 l 15,54 c 13,-8 41,-19 67,-19 32,0 47,14 47,34 0,27 -32,37 -57,37 l -30,0 0,54 31,0 c 33,0 65,14 65,46 0,24 -20,42 -59,42 -31,0 -61,-12 -75,-20 l -15,57 z" transform="translate(36.2572,-3679)" id="n53" style="fill:#fefefe;fill-rule:nonzero" number="53" type="number"></path><path d="m 22637,6612 -177,0 -21,168 c 13,-2 25,-3 43,-3 64,0 90,20 90,53 0,34 -33,49 -64,49 -29,0 -58,-9 -72,-16 l -14,56 c 18,9 50,18 89,18 86,0 138,-53 138,-113 0,-38 -15,-64 -39,-81 -22,-16 -54,-23 -84,-23 -8,0 -14,0 -21,1 l 7,-49 124,0 0,-62 z m 244,321 0,-77 38,0 0,-56 -38,0 0,-188 -92,0 -121,196 0,49 142,0 0,77 71,0 z m -144,-133 0,-1 42,-70 c 11,-20 20,-39 30,-60 l 1,0 c -1,21 -2,41 -2,60 l 0,71 -73,0 z" transform="translate(36.2572,-3679)" id="n54" style="fill:#fefefe;fill-rule:nonzero" number="54" type="number"></path><path d="m 23881,7386 -177,0 -21,168 c 13,-2 25,-3 43,-3 64,0 90,20 90,53 0,34 -33,49 -64,49 -29,0 -58,-9 -72,-16 l -14,56 c 18,9 50,18 89,18 86,0 138,-53 138,-113 0,-38 -15,-64 -39,-81 -22,-16 -54,-23 -84,-23 -8,0 -14,0 -21,1 l 7,-49 124,0 0,-62 z m 43,0 0,62 147,0 0,1 -132,258 80,0 132,-274 0,-47 -227,0 z" transform="translate(36.2572,-3679)" id="n57" style="fill:#fefefe;fill-rule:nonzero" number="57" type="number"></path><path d="m 23881,6612 -177,0 -21,168 c 13,-2 25,-3 43,-3 64,0 90,20 90,53 0,34 -33,49 -64,49 -29,0 -58,-9 -72,-16 l -14,56 c 18,9 50,18 89,18 86,0 138,-53 138,-113 0,-38 -15,-64 -39,-81 -22,-16 -54,-23 -84,-23 -8,0 -14,0 -21,1 l 7,-49 124,0 0,-62 z m 92,157 c -35,15 -57,42 -57,81 0,43 38,89 119,89 75,0 123,-40 123,-98 0,-41 -28,-68 -59,-80 l 0,-1 c 32,-16 47,-43 47,-71 0,-39 -31,-82 -106,-82 -64,0 -113,36 -113,90 0,28 15,54 46,71 l 0,1 z m 65,118 c -28,0 -46,-22 -45,-45 0,-23 14,-41 39,-48 29,8 50,25 50,53 0,23 -18,40 -44,40 z m -1,-229 c 28,0 39,20 39,40 0,20 -15,36 -33,41 -26,-8 -45,-22 -45,-43 0,-20 13,-37 39,-37 z" transform="translate(36.2572,-3679)" id="n58" style="fill:#fefefe;fill-rule:nonzero" number="58" type="number"></path><path d="m 25143,7381 c -7,0 -16,-1 -30,1 -50,2 -92,18 -123,47 -35,33 -57,83 -57,143 0,77 42,140 128,140 69,0 118,-52 118,-116 0,-67 -45,-105 -99,-105 -30,0 -52,9 -68,25 l -1,0 c 8,-37 38,-71 105,-77 12,-1 21,-1 29,-1 l 0,-58 z m -84,276 c -35,0 -51,-31 -52,-65 0,-9 1,-15 3,-19 7,-16 24,-28 44,-28 32,0 48,26 48,55 0,33 -17,57 -43,57 z m 229,50 73,0 0,-321 -62,0 -85,40 12,56 61,-29 1,0 0,254 z" transform="translate(36.2572,-3679)" id="n61" style="fill:#fefefe;fill-rule:nonzero" number="61" type="number"></path><path d="m 25151,6607 c -7,0 -16,-1 -30,1 -50,2 -92,18 -123,47 -35,33 -57,83 -57,143 0,77 42,140 128,140 69,0 118,-52 118,-116 0,-67 -45,-105 -99,-105 -30,0 -52,9 -68,25 l -1,0 c 8,-37 38,-71 105,-77 12,-1 21,-1 29,-1 l 0,-58 z m -84,276 c -35,0 -51,-31 -52,-65 0,-9 1,-15 3,-19 7,-16 24,-28 44,-28 32,0 48,26 48,55 0,33 -17,57 -43,57 z m 361,50 0,-62 -122,0 0,-1 30,-25 c 47,-41 85,-84 85,-139 0,-58 -40,-100 -113,-100 -43,0 -81,15 -105,33 l 21,53 c 17,-12 41,-26 69,-26 37,0 52,21 52,47 -1,38 -35,74 -105,137 l -41,37 0,45 228,0 z" transform="translate(36.2572,-3679)" id="n62" style="fill:#fefefe;fill-rule:nonzero" number="62" type="number"></path><path d="m 26369,7381 c -7,0 -16,-1 -30,1 -50,2 -92,18 -123,47 -35,33 -57,83 -57,143 0,77 42,140 128,140 69,0 118,-52 118,-116 0,-67 -45,-105 -99,-105 -30,0 -52,9 -68,25 l -1,0 c 8,-37 38,-71 105,-77 12,-1 21,-1 29,-1 l 0,-58 z m -84,276 c -35,0 -51,-31 -52,-65 0,-9 1,-15 3,-19 7,-16 24,-28 44,-28 32,0 48,26 48,55 0,33 -17,57 -43,57 z m 131,33 c 19,11 54,22 95,22 81,0 131,-41 131,-98 0,-42 -31,-72 -70,-79 l 0,-1 c 40,-13 59,-41 59,-75 0,-44 -38,-80 -106,-80 -42,0 -80,12 -99,24 l 15,54 c 13,-8 41,-19 67,-19 32,0 47,14 47,34 0,27 -32,37 -57,37 l -30,0 0,54 31,0 c 33,0 65,14 65,46 0,24 -20,42 -59,42 -31,0 -61,-12 -75,-20 l -15,57 z" transform="translate(36.2572,-3679)" id="n63" style="fill:#fefefe;fill-rule:nonzero" number="63" type="number"></path><path d="m 26377,6607 c -7,0 -16,-1 -30,1 -50,2 -92,18 -123,47 -35,33 -57,83 -57,143 0,77 42,140 128,140 69,0 118,-52 118,-116 0,-67 -45,-105 -99,-105 -30,0 -52,9 -68,25 l -1,0 c 8,-37 38,-71 105,-77 12,-1 21,-1 29,-1 l 0,-58 z m -84,276 c -35,0 -51,-31 -52,-65 0,-9 1,-15 3,-19 7,-16 24,-28 44,-28 32,0 48,26 48,55 0,33 -17,57 -43,57 z m 337,50 0,-77 38,0 0,-56 -38,0 0,-188 -92,0 -121,196 0,49 142,0 0,77 71,0 z m -144,-133 0,-1 42,-70 c 11,-20 20,-39 30,-60 l 1,0 c -1,21 -2,41 -2,60 l 0,71 -73,0 z" transform="translate(36.2572,-3679)" id="n64" style="fill:#fefefe;fill-rule:nonzero" number="64" type="number"></path>
<g transform="translate(3972.1066,-7757.9184)" id="_1226014848"><path d="m 11272,11157 c -18,-17 -31,-41 -34,-70 -17,-140 74,-237 213,-238 179,-1 253,189 172,309 l 354,95 c 42,11 76,37 97,75 28,51 24,103 16,157 l -19,120 -626,-229 -625,229 -19,-120 c -5,-29 -8,-55 -6,-84 6,-71 47,-129 119,-148 l 358,-96 z" id="path25770" style="fill:#fefefe"></path><path d="m 11445,11270 546,200 c 4,-28 21,-104 -40,-120 l -476,-127 0,-13 c 0,-4 0,-8 0,-12 l -60,0 c 0,4 0,8 0,12 l 0,13 -475,127 c -61,16 -44,93 -40,120 l 545,-200 z m 30,-100 c 1,-17 6,-24 27,-35 88,-47 64,-186 -50,-186 -79,0 -125,44 -115,126 3,27 61,21 60,-7 -2,-46 12,-59 55,-59 52,0 55,55 21,73 -57,31 -60,46 -59,88 l 61,0 z" id="path25772" style="fill:#9d9e9e"></path></g><g transform="translate(19497.637,-9059.5)" id="_1226007552"><polygon points="9821,12309 9821,10334 9861,10285 9901,10334 9941,10285 9982,10334 10022,10285 10062,10334 10102,10285 10142,10334 10142,12309 10102,12358 10062,12309 10022,12358 9982,12309 9941,12358 9901,12309 9861,12358 " id="polygon25759" style="fill:#9d9e9e"></polygon><polygon points="9901,10334 9901,12309 9861,12358 9856,12352 9856,10292 9856,10292 9866,10292 " id="polygon25761" style="fill:#b2b3b3"></polygon><polygon points="10062,10334 10062,12309 10022,12358 10017,12352 10017,10292 10017,10292 10027,10292 " id="polygon25763" style="fill:#b2b3b3"></polygon><polygon points="9982,10334 9982,12309 9941,12358 9936,12352 9936,10292 9936,10292 9946,10292 " id="polygon25765" style="fill:#b2b3b3"></polygon><polygon points="10142,10334 10142,12309 10102,12358 10097,12352 10097,10292 10097,10292 10107,10292 " id="polygon25767" style="fill:#b2b3b3"></polygon></g><g transform="translate(-9821,-9059.5)" id="_1226007552-1"><polygon points="9821,12309 9821,10334 9861,10285 9901,10334 9941,10285 9982,10334 10022,10285 10062,10334 10102,10285 10142,10334 10142,12309 10102,12358 10062,12309 10022,12358 9982,12309 9941,12358 9901,12309 9861,12358 " id="polygon25759-8" style="fill:#9d9e9e"></polygon><polygon points="9901,10334 9901,12309 9861,12358 9856,12352 9856,10292 9856,10292 9866,10292 " id="polygon25761-9" style="fill:#b2b3b3"></polygon><polygon points="10062,10334 10062,12309 10022,12358 10017,12352 10017,10292 10017,10292 10027,10292 " id="polygon25763-2" style="fill:#b2b3b3"></polygon><polygon points="9982,10334 9982,12309 9941,12358 9936,12352 9936,10292 9936,10292 9946,10292 " id="polygon25765-7" style="fill:#b2b3b3"></polygon><polygon points="10142,10334 10142,12309 10102,12358 10097,12352 10097,10292 10097,10292 10107,10292 " id="polygon25767-9" style="fill:#b2b3b3"></polygon></g>
     </svg>