<svg xmlns:dc="http://purl.org/dc/elements/1.1/" xmlns:cc="http://creativecommons.org/ns#" xmlns:rdf="http://www.w3.org/1999/02/22-rdf-syntax-ns#" xmlns:svg="http://www.w3.org/2000/svg" xmlns="http://www.w3.org/2000/svg" version="1.1" width="1050.1362" height="160.29921" viewBox="0 0 29637.179 4524" id="svg23139" xml:space="preserve" style="fill-rule:evenodd"><metadata id="metadata23501"><rdf:rdf><cc:work rdf:about=""><dc:format>image/svg+xml</dc:format><dc:type rdf:resource="http://purl.org/dc/dcmitype/StillImage"></dc:type><dc:title></dc:title></cc:work></rdf:rdf></metadata><defs id="defs23499">
 </defs>
 <path d="m 27158,4407 -2580,1 0,1190 c 0,415 300,1002 714,1019 692,28 1244,-609 1865,-913 l 0,-1297 z" transform="translate(36.9971,-4204)" id="path23143" style="fill:#f2f4f5"></path><path d="m 4694,4407 0,1535 -2159,0 0,-1535 z" transform="translate(36.9971,-4204)" id="polygon23145" style="fill:#ebecec"></path><path d="m 11175,4427 -6481,0 0,1515 2329,952 2090,0 2062,-238 z" transform="translate(36.9971,-4204)" id="polygon23147" style="fill:#ebecec"></path><path d="m 1890,8531 1773,0 0,-1028 c 0,-361 -607,-557 -1056,-370 -437,182 -717,739 -717,1057 l 0,341 z" transform="translate(36.9971,-4204)" id="path23149" style="fill:#f2f4f5"></path><path d="m 570,4408 28432,0 c 44,0 79,36 79,79 l 0,3958 c 0,44 -36,79 -79,79 l -28432,0 c -44,0 -79,-36 -79,-79 l 0,-3958 c 0,-44 36,-79 79,-79 z m 0,-204 28432,0 c 156,0 283,128 283,283 l 0,3958 c 0,156 -128,283 -283,283 l -28432,0 c -156,0 -283,-128 -283,-283 l 0,-3958 c 0,-156 128,-283 283,-283 z" transform="translate(36.9971,-4204)" id="path23151" style="fill:#0275d8"></path><path d="m 13110,8490 -499,0 0,-61 -147,0 c -32,0 -45,-28 -58,-58 l -32,-76 0,-318 32,-76 c 12,-29 26,-58 58,-58 l 147,0 0,-64 -147,0 c -32,0 -45,-28 -58,-58 l -32,-76 0,-318 32,-76 c 12,-29 26,-58 58,-58 l 147,0 0,-60 499,0 c 0,451 0,902 0,1353 z" transform="translate(36.9971,-4204)" id="path23153" style="fill:#9d9e9e"></path><path d="m 14160,8490 -499,0 0,-61 -147,0 c -32,0 -45,-28 -58,-58 l -32,-76 0,-318 32,-76 c 12,-29 26,-58 58,-58 l 147,0 0,-64 -147,0 c -32,0 -45,-28 -58,-58 l -32,-76 0,-318 32,-76 c 12,-29 26,-58 58,-58 l 147,0 0,-60 499,0 c 0,451 0,902 0,1353 z" transform="translate(36.9971,-4204)" id="path23155" style="fill:#9d9e9e"></path><path d="m 15210,8490 -499,0 0,-61 -147,0 c -32,0 -45,-28 -58,-58 l -32,-76 0,-318 32,-76 c 12,-29 26,-58 58,-58 l 147,0 0,-64 -147,0 c -32,0 -45,-28 -58,-58 l -32,-76 0,-318 32,-76 c 12,-29 26,-58 58,-58 l 147,0 0,-60 499,0 c 0,451 0,902 0,1353 z" transform="translate(36.9971,-4204)" id="path23157" style="fill:#9d9e9e"></path><path d="m 13174,8430 -479,0 c -19,-45 -37,-90 -56,-134 l 0,-318 57,-134 478,0 c 96,189 105,384 0,586 z" transform="translate(36.9971,-4204)" id="s7" style="fill:#dedfe0" number="7" type="seat"></path><path d="m 14224,8430 -479,0 c -19,-45 -37,-90 -56,-134 l 0,-318 57,-134 478,0 c 96,189 105,384 0,586 z" transform="translate(36.9971,-4204)" id="s12" style="fill:#dedfe0"></path><path d="m 15274,8430 -479,0 c -19,-45 -37,-90 -56,-134 l 0,-318 57,-134 478,0 c 96,189 105,384 0,586 z" transform="translate(36.9971,-4204)" id="s17" style="fill:#dedfe0"></path><path d="m 12524,8398 c -28,0 -41,-25 -51,-51 l -28,-68 0,-283 28,-68 c 11,-26 23,-51 51,-51 26,0 58,16 43,51 l -28,68 0,283 28,68 c 15,36 -17,51 -43,51 z" transform="translate(36.9971,-4204)" id="path23165" style="fill:#d9dada"></path><path d="m 13574,8398 c -28,0 -41,-25 -51,-51 l -28,-68 0,-283 28,-68 c 11,-26 23,-51 51,-51 26,0 58,16 43,51 l -28,68 0,283 28,68 c 15,36 -17,51 -43,51 z" transform="translate(36.9971,-4204)" id="path23167" style="fill:#d9dada"></path><path d="m 14624,8398 c -28,0 -41,-25 -51,-51 l -28,-68 0,-283 28,-68 c 11,-26 23,-51 51,-51 26,0 58,16 43,51 l -28,68 0,283 28,68 c 15,36 -17,51 -43,51 z" transform="translate(36.9971,-4204)" id="path23169" style="fill:#d9dada"></path><path d="m 13174,7782 -479,0 c -19,-45 -37,-90 -56,-134 l 0,-318 57,-134 478,0 c 96,189 105,384 0,586 z" transform="translate(36.9971,-4204)" id="s8" style="fill:#dedfe0" number="8" type="seat"></path><path d="m 14224,7782 -479,0 c -19,-45 -37,-90 -56,-134 l 0,-318 57,-134 478,0 c 96,189 105,384 0,586 z" transform="translate(36.9971,-4204)" id="s13" style="fill:#dedfe0"></path><path d="m 15274,7782 -479,0 c -19,-45 -37,-90 -56,-134 l 0,-318 57,-134 478,0 c 96,189 105,384 0,586 z" transform="translate(36.9971,-4204)" id="s18" style="fill:#dedfe0"></path><path d="m 12524,7749 c -28,0 -41,-25 -51,-51 l -28,-68 0,-283 28,-68 c 11,-26 23,-51 51,-51 26,0 58,16 43,51 l -28,68 0,283 28,68 c 15,36 -17,51 -43,51 z" transform="translate(36.9971,-4204)" id="path23177" style="fill:#d9dada"></path><path d="m 13574,7749 c -28,0 -41,-25 -51,-51 l -28,-68 0,-283 28,-68 c 11,-26 23,-51 51,-51 26,0 58,16 43,51 l -28,68 0,283 28,68 c 15,36 -17,51 -43,51 z" transform="translate(36.9971,-4204)" id="path23179" style="fill:#d9dada"></path><path d="m 14624,7749 c -28,0 -41,-25 -51,-51 l -28,-68 0,-283 28,-68 c 11,-26 23,-51 51,-51 26,0 58,16 43,51 l -28,68 0,283 28,68 c 15,36 -17,51 -43,51 z" transform="translate(36.9971,-4204)" id="path23181" style="fill:#d9dada"></path><path d="m 12059,6423 -498,0 0,-60 -146,0 c -31,0 -45,-28 -57,-57 l -32,-76 0,-317 32,-76 c 12,-29 26,-57 57,-57 l 146,0 0,-60 -146,0 c -32,0 -45,-28 -58,-58 l -32,-76 0,-318 32,-76 c 12,-29 26,-58 58,-58 l 147,0 0,-64 -147,0 c -32,0 -45,-28 -58,-58 l -32,-76 0,-318 32,-76 c 12,-29 26,-58 58,-58 l 147,0 0,-60 499,0 c 0,665 -1,1331 -1,1996 z" transform="translate(36.9971,-4204)" id="path23183" style="fill:#9d9e9e"></path><path d="m 13109,6423 -498,0 0,-60 -146,0 c -31,0 -45,-28 -57,-57 l -32,-76 0,-317 32,-76 c 12,-29 26,-57 57,-57 l 146,0 0,-60 -146,0 c -32,0 -45,-28 -58,-58 l -32,-76 0,-318 32,-76 c 12,-29 26,-58 58,-58 l 147,0 0,-64 -147,0 c -32,0 -45,-28 -58,-58 l -32,-76 0,-318 32,-76 c 12,-29 26,-58 58,-58 l 147,0 0,-60 499,0 c 0,665 -1,1331 -1,1996 z" transform="translate(36.9971,-4204)" id="path23185" style="fill:#9d9e9e"></path><path d="m 14159,6423 -498,0 0,-60 -146,0 c -31,0 -45,-28 -57,-57 l -32,-76 0,-317 32,-76 c 12,-29 26,-57 57,-57 l 146,0 0,-60 -146,0 c -32,0 -45,-28 -58,-58 l -32,-76 0,-318 32,-76 c 12,-29 26,-58 58,-58 l 147,0 0,-64 -147,0 c -32,0 -45,-28 -58,-58 l -32,-76 0,-318 32,-76 c 12,-29 26,-58 58,-58 l 147,0 0,-60 499,0 c 0,665 -1,1331 -1,1996 z" transform="translate(36.9971,-4204)" id="path23187" style="fill:#9d9e9e"></path><path d="m 15209,6423 -498,0 0,-60 -146,0 c -31,0 -45,-28 -57,-57 l -32,-76 0,-317 32,-76 c 12,-29 26,-57 57,-57 l 146,0 0,-60 -146,0 c -32,0 -45,-28 -58,-58 l -32,-76 0,-318 32,-76 c 12,-29 26,-58 58,-58 l 147,0 0,-64 -147,0 c -32,0 -45,-28 -58,-58 l -32,-76 0,-318 32,-76 c 12,-29 26,-58 58,-58 l 147,0 0,-60 499,0 c 0,665 -1,1331 -1,1996 z" transform="translate(36.9971,-4204)" id="path23189" style="fill:#9d9e9e"></path><path d="m 12124,5720 -479,0 c -19,-45 -37,-90 -56,-134 l 0,-318 57,-134 478,0 c 96,189 105,384 0,586 z" transform="translate(36.9971,-4204)" id="s2" style="fill:#dedfe0"></path><path d="m 13174,5720 -479,0 c -19,-45 -37,-90 -56,-134 l 0,-318 57,-134 478,0 c 96,189 105,384 0,586 z" transform="translate(36.9971,-4204)" id="s5" style="fill:#dedfe0" number="5" type="seat"></path><path d="m 14224,5720 -479,0 c -19,-45 -37,-90 -56,-134 l 0,-318 57,-134 478,0 c 96,189 105,384 0,586 z" transform="translate(36.9971,-4204)" id="s10" style="fill:#dedfe0" number="10" type="seat"></path><path d="m 15274,5720 -479,0 c -19,-45 -37,-90 -56,-134 l 0,-318 57,-134 478,0 c 96,189 105,384 0,586 z" transform="translate(36.9971,-4204)" id="s15" style="fill:#dedfe0" number="15" type="seat"></path><path d="m 11474,5688 c -28,0 -41,-25 -51,-51 l -28,-68 0,-283 28,-68 c 11,-26 23,-51 51,-51 26,0 58,16 43,51 l -28,68 0,283 28,68 c 15,36 -17,51 -43,51 z" transform="translate(36.9971,-4204)" id="path23199" style="fill:#d9dada"></path><path d="m 12524,5688 c -28,0 -41,-25 -51,-51 l -28,-68 0,-283 28,-68 c 11,-26 23,-51 51,-51 26,0 58,16 43,51 l -28,68 0,283 28,68 c 15,36 -17,51 -43,51 z" transform="translate(36.9971,-4204)" id="path23201" style="fill:#d9dada"></path><path d="m 13574,5688 c -28,0 -41,-25 -51,-51 l -28,-68 0,-283 28,-68 c 11,-26 23,-51 51,-51 26,0 58,16 43,51 l -28,68 0,283 28,68 c 15,36 -17,51 -43,51 z" transform="translate(36.9971,-4204)" id="path23203" style="fill:#d9dada"></path><path d="m 14624,5688 c -28,0 -41,-25 -51,-51 l -28,-68 0,-283 28,-68 c 11,-26 23,-51 51,-51 26,0 58,16 43,51 l -28,68 0,283 28,68 c 15,36 -17,51 -43,51 z" transform="translate(36.9971,-4204)" id="path23205" style="fill:#d9dada"></path><path d="m 12124,5072 -479,0 c -19,-45 -37,-90 -56,-134 l 0,-318 57,-134 478,0 c 96,189 105,384 0,586 z" transform="translate(36.9971,-4204)" id="s1" style="fill:#dedfe0"></path><path d="m 13174,5072 -479,0 c -19,-45 -37,-90 -56,-134 l 0,-318 57,-134 478,0 c 96,189 105,384 0,586 z" transform="translate(36.9971,-4204)" id="s4" style="fill:#dedfe0" number="4" type="seat"></path><path d="m 14224,5072 -479,0 c -19,-45 -37,-90 -56,-134 l 0,-318 57,-134 478,0 c 96,189 105,384 0,586 z" transform="translate(36.9971,-4204)" id="s9" style="fill:#dedfe0" number="9" type="seat"></path><path d="m 15274,5072 -479,0 c -19,-45 -37,-90 -56,-134 l 0,-318 57,-134 478,0 c 96,189 105,384 0,586 z" transform="translate(36.9971,-4204)" id="s14" style="fill:#dedfe0" number="14" type="seat"></path><path d="m 11474,5040 c -28,0 -41,-25 -51,-51 l -28,-68 0,-283 28,-68 c 11,-26 23,-51 51,-51 26,0 58,16 43,51 l -28,68 0,283 28,68 c 15,36 -17,51 -43,51 z" transform="translate(36.9971,-4204)" id="path23215" style="fill:#d9dada"></path><path d="m 12524,5040 c -28,0 -41,-25 -51,-51 l -28,-68 0,-283 28,-68 c 11,-26 23,-51 51,-51 26,0 58,16 43,51 l -28,68 0,283 28,68 c 15,36 -17,51 -43,51 z" transform="translate(36.9971,-4204)" id="path23217" style="fill:#d9dada"></path><path d="m 13574,5040 c -28,0 -41,-25 -51,-51 l -28,-68 0,-283 28,-68 c 11,-26 23,-51 51,-51 26,0 58,16 43,51 l -28,68 0,283 28,68 c 15,36 -17,51 -43,51 z" transform="translate(36.9971,-4204)" id="path23219" style="fill:#d9dada"></path><path d="m 14624,5040 c -28,0 -41,-25 -51,-51 l -28,-68 0,-283 28,-68 c 11,-26 23,-51 51,-51 26,0 58,16 43,51 l -28,68 0,283 28,68 c 15,36 -17,51 -43,51 z" transform="translate(36.9971,-4204)" id="path23221" style="fill:#d9dada"></path><path d="m 12123,5779 -479,0 c -19,45 -37,89 -56,134 l 0,317 57,134 477,0 c 96,-189 105,-384 0,-585 z" transform="translate(36.9971,-4204)" id="s3" style="fill:#dedfe0" number="3" type="seat"></path><path d="m 13173,5779 -479,0 c -19,45 -37,89 -56,134 l 0,317 57,134 477,0 c 96,-189 105,-384 0,-585 z" transform="translate(36.9971,-4204)" id="s6" style="fill:#dedfe0" number="6" type="seat"></path><path d="m 14223,5779 -479,0 c -19,45 -37,89 -56,134 l 0,317 57,134 477,0 c 96,-189 105,-384 0,-585 z" transform="translate(36.9971,-4204)" id="s11" style="fill:#dedfe0" number="11" type="seat"></path><path d="m 15273,5779 -479,0 c -19,45 -37,89 -56,134 l 0,317 57,134 477,0 c 96,-189 105,-384 0,-585 z" transform="translate(36.9971,-4204)" id="s16" style="fill:#dedfe0" number="16" type="seat"></path><path d="m 11474,5811 c -28,0 -40,25 -51,51 l -28,68 0,283 28,68 c 11,26 23,51 51,51 26,0 58,-16 43,-51 l -28,-68 0,-283 28,-68 c 15,-36 -17,-51 -43,-51 z" transform="translate(36.9971,-4204)" id="path23231" style="fill:#d9dada"></path><path d="m 12524,5811 c -28,0 -40,25 -51,51 l -28,68 0,283 28,68 c 11,26 23,51 51,51 26,0 58,-16 43,-51 l -28,-68 0,-283 28,-68 c 15,-36 -17,-51 -43,-51 z" transform="translate(36.9971,-4204)" id="path23233" style="fill:#d9dada"></path><path d="m 13574,5811 c -28,0 -40,25 -51,51 l -28,68 0,283 28,68 c 11,26 23,51 51,51 26,0 58,-16 43,-51 l -28,-68 0,-283 28,-68 c 15,-36 -17,-51 -43,-51 z" transform="translate(36.9971,-4204)" id="path23235" style="fill:#d9dada"></path><path d="m 14624,5811 c -28,0 -40,25 -51,51 l -28,68 0,283 28,68 c 11,26 23,51 51,51 26,0 58,-16 43,-51 l -28,-68 0,-283 28,-68 c 15,-36 -17,-51 -43,-51 z" transform="translate(36.9971,-4204)" id="path23237" style="fill:#d9dada"></path><path d="m 20377,8490 499,0 0,-61 147,0 c 32,0 45,-28 58,-58 l 32,-76 0,-318 -32,-76 c -12,-29 -26,-58 -58,-58 l -147,0 0,-64 147,0 c 32,0 45,-28 58,-58 l 32,-76 0,-318 -32,-76 c -12,-29 -26,-58 -58,-58 l -147,0 0,-60 -499,0 c 0,451 0,902 0,1353 z" transform="translate(36.9971,-4204)" id="path23239" style="fill:#9d9e9e"></path><path d="m 21427,8490 499,0 0,-61 147,0 c 32,0 45,-28 58,-58 l 32,-76 0,-318 -32,-76 c -12,-29 -26,-58 -58,-58 l -147,0 0,-64 147,0 c 32,0 45,-28 58,-58 l 32,-76 0,-318 -32,-76 c -12,-29 -26,-58 -58,-58 l -147,0 0,-60 -499,0 c 0,451 0,902 0,1353 z" transform="translate(36.9971,-4204)" id="path23241" style="fill:#9d9e9e"></path><path d="m 19327,8490 499,0 0,-61 147,0 c 32,0 45,-28 58,-58 l 32,-76 0,-318 -32,-76 c -12,-29 -26,-58 -58,-58 l -147,0 0,-64 147,0 c 32,0 45,-28 58,-58 l 32,-76 0,-318 -32,-76 c -12,-29 -26,-58 -58,-58 l -147,0 0,-60 -499,0 c 0,451 0,902 0,1353 z" transform="translate(36.9971,-4204)" id="path23243" style="fill:#9d9e9e"></path><path d="m 18277,8490 499,0 0,-61 147,0 c 32,0 45,-28 58,-58 l 32,-76 0,-318 -32,-76 c -12,-29 -26,-58 -58,-58 l -147,0 0,-64 147,0 c 32,0 45,-28 58,-58 l 32,-76 0,-318 -32,-76 c -12,-29 -26,-58 -58,-58 l -147,0 0,-60 -499,0 c 0,451 0,902 0,1353 z" transform="translate(36.9971,-4204)" id="path23245" style="fill:#9d9e9e"></path><path d="m 17227,8490 499,0 0,-61 147,0 c 32,0 45,-28 58,-58 l 32,-76 0,-318 -32,-76 c -12,-29 -26,-58 -58,-58 l -147,0 0,-64 147,0 c 32,0 45,-28 58,-58 l 32,-76 0,-318 -32,-76 c -12,-29 -26,-58 -58,-58 l -147,0 0,-60 -499,0 c 0,451 0,902 0,1353 z" transform="translate(36.9971,-4204)" id="path23247" style="fill:#9d9e9e"></path><path d="m 16177,8490 499,0 0,-61 147,0 c 32,0 45,-28 58,-58 l 32,-76 0,-318 -32,-76 c -12,-29 -26,-58 -58,-58 l -147,0 0,-64 147,0 c 32,0 45,-28 58,-58 l 32,-76 0,-318 -32,-76 c -12,-29 -26,-58 -58,-58 l -147,0 0,-60 -499,0 c 0,451 0,902 0,1353 z" transform="translate(36.9971,-4204)" id="path23249" style="fill:#9d9e9e"></path><path d="m 20313,8430 479,0 c 19,-45 37,-90 56,-134 l 0,-318 -57,-134 -478,0 c -96,189 -105,384 0,586 z" transform="translate(36.9971,-4204)" id="s40" style="fill:#dedfe0" number="40" type="seat"></path><path d="m 21363,8430 479,0 c 19,-45 37,-90 56,-134 l 0,-318 -57,-134 -478,0 c -96,189 -105,384 0,586 z" transform="translate(36.9971,-4204)" id="s44" style="fill:#dedfe0"></path><path d="m 19263,8430 479,0 c 19,-45 37,-90 56,-134 l 0,-318 -57,-134 -478,0 c -96,189 -105,384 0,586 z" transform="translate(36.9971,-4204)" id="s36" style="fill:#dedfe0"></path><path d="m 18213,8430 479,0 c 19,-45 37,-90 56,-134 l 0,-318 -57,-134 -478,0 c -96,189 -105,384 0,586 z" transform="translate(36.9971,-4204)" id="s32" style="fill:#dedfe0"></path><path d="m 17163,8430 479,0 c 19,-45 37,-90 56,-134 l 0,-318 -57,-134 -478,0 c -96,189 -105,384 0,586 z" transform="translate(36.9971,-4204)" id="s27" style="fill:#dedfe0"></path><path d="m 16113,8430 479,0 c 19,-45 37,-90 56,-134 l 0,-318 -57,-134 -478,0 c -96,189 -105,384 0,586 z" transform="translate(36.9971,-4204)" id="s22" style="fill:#dedfe0"></path><path d="m 20964,8398 c 28,0 41,-25 51,-51 l 28,-68 0,-283 -28,-68 c -11,-26 -23,-51 -51,-51 -26,0 -58,16 -43,51 l 28,68 0,283 -28,68 c -15,36 17,51 43,51 z" transform="translate(36.9971,-4204)" id="path23263" style="fill:#d9dada"></path><path d="m 22014,8398 c 28,0 41,-25 51,-51 l 28,-68 0,-283 -28,-68 c -11,-26 -23,-51 -51,-51 -26,0 -58,16 -43,51 l 28,68 0,283 -28,68 c -15,36 17,51 43,51 z" transform="translate(36.9971,-4204)" id="path23265" style="fill:#d9dada"></path><path d="m 19914,8398 c 28,0 41,-25 51,-51 l 28,-68 0,-283 -28,-68 c -11,-26 -23,-51 -51,-51 -26,0 -58,16 -43,51 l 28,68 0,283 -28,68 c -15,36 17,51 43,51 z" transform="translate(36.9971,-4204)" id="path23267" style="fill:#d9dada"></path><path d="m 18864,8398 c 28,0 41,-25 51,-51 l 28,-68 0,-283 -28,-68 c -11,-26 -23,-51 -51,-51 -26,0 -58,16 -43,51 l 28,68 0,283 -28,68 c -15,36 17,51 43,51 z" transform="translate(36.9971,-4204)" id="path23269" style="fill:#d9dada"></path><path d="m 17814,8398 c 28,0 41,-25 51,-51 l 28,-68 0,-283 -28,-68 c -11,-26 -23,-51 -51,-51 -26,0 -58,16 -43,51 l 28,68 0,283 -28,68 c -15,36 17,51 43,51 z" transform="translate(36.9971,-4204)" id="path23271" style="fill:#d9dada"></path><path d="m 16764,8398 c 28,0 41,-25 51,-51 l 28,-68 0,-283 -28,-68 c -11,-26 -23,-51 -51,-51 -26,0 -58,16 -43,51 l 28,68 0,283 -28,68 c -15,36 17,51 43,51 z" transform="translate(36.9971,-4204)" id="path23273" style="fill:#d9dada"></path><path d="m 20313,7782 479,0 c 19,-45 37,-90 56,-134 l 0,-318 -57,-134 -478,0 c -96,189 -105,384 0,586 z" transform="translate(36.9971,-4204)" id="s41" style="fill:#dedfe0" number="41" type="seat"></path><path d="m 21363,7782 479,0 c 19,-45 37,-90 56,-134 l 0,-318 -57,-134 -478,0 c -96,189 -105,384 0,586 z" transform="translate(36.9971,-4204)" id="s45" style="fill:#dedfe0"></path><path d="m 19263,7782 479,0 c 19,-45 37,-90 56,-134 l 0,-318 -57,-134 -478,0 c -96,189 -105,384 0,586 z" transform="translate(36.9971,-4204)" id="s37" style="fill:#dedfe0" number="37" type="seat"></path><path d="m 18213,7782 479,0 c 19,-45 37,-90 56,-134 l 0,-318 -57,-134 -478,0 c -96,189 -105,384 0,586 z" transform="translate(36.9971,-4204)" id="s33" style="fill:#dedfe0"></path><path d="m 17163,7782 479,0 c 19,-45 37,-90 56,-134 l 0,-318 -57,-134 -478,0 c -96,189 -105,384 0,586 z" transform="translate(36.9971,-4204)" id="s28" style="fill:#dedfe0"></path><path d="m 16113,7782 479,0 c 19,-45 37,-90 56,-134 l 0,-318 -57,-134 -478,0 c -96,189 -105,384 0,586 z" transform="translate(36.9971,-4204)" id="s23" style="fill:#dedfe0"></path><path d="m 20964,7749 c 28,0 41,-25 51,-51 l 28,-68 0,-283 -28,-68 c -11,-26 -23,-51 -51,-51 -26,0 -58,16 -43,51 l 28,68 0,283 -28,68 c -15,36 17,51 43,51 z" transform="translate(36.9971,-4204)" id="path23287" style="fill:#d9dada"></path><path d="m 22014,7749 c 28,0 41,-25 51,-51 l 28,-68 0,-283 -28,-68 c -11,-26 -23,-51 -51,-51 -26,0 -58,16 -43,51 l 28,68 0,283 -28,68 c -15,36 17,51 43,51 z" transform="translate(36.9971,-4204)" id="path23289" style="fill:#d9dada"></path><path d="m 19914,7749 c 28,0 41,-25 51,-51 l 28,-68 0,-283 -28,-68 c -11,-26 -23,-51 -51,-51 -26,0 -58,16 -43,51 l 28,68 0,283 -28,68 c -15,36 17,51 43,51 z" transform="translate(36.9971,-4204)" id="path23291" style="fill:#d9dada"></path><path d="m 18864,7749 c 28,0 41,-25 51,-51 l 28,-68 0,-283 -28,-68 c -11,-26 -23,-51 -51,-51 -26,0 -58,16 -43,51 l 28,68 0,283 -28,68 c -15,36 17,51 43,51 z" transform="translate(36.9971,-4204)" id="path23293" style="fill:#d9dada"></path><path d="m 17814,7749 c 28,0 41,-25 51,-51 l 28,-68 0,-283 -28,-68 c -11,-26 -23,-51 -51,-51 -26,0 -58,16 -43,51 l 28,68 0,283 -28,68 c -15,36 17,51 43,51 z" transform="translate(36.9971,-4204)" id="path23295" style="fill:#d9dada"></path><path d="m 16764,7749 c 28,0 41,-25 51,-51 l 28,-68 0,-283 -28,-68 c -11,-26 -23,-51 -51,-51 -26,0 -58,16 -43,51 l 28,68 0,283 -28,68 c -15,36 17,51 43,51 z" transform="translate(36.9971,-4204)" id="path23297" style="fill:#d9dada"></path><path d="m 18279,6423 498,0 0,-60 146,0 c 31,0 45,-28 57,-57 l 32,-76 0,-317 -32,-76 c -12,-29 -26,-57 -57,-57 l -146,0 0,-60 146,0 c 32,0 45,-28 58,-58 l 32,-76 0,-318 -32,-76 c -12,-29 -26,-58 -58,-58 l -147,0 0,-64 147,0 c 32,0 45,-28 58,-58 l 32,-76 0,-318 -32,-76 c -12,-29 -26,-58 -58,-58 l -147,0 0,-60 -499,0 c 0,665 1,1331 1,1996 z" transform="translate(36.9971,-4204)" id="path23299" style="fill:#9d9e9e"></path><path d="m 17229,6423 498,0 0,-60 146,0 c 31,0 45,-28 57,-57 l 32,-76 0,-317 -32,-76 c -12,-29 -26,-57 -57,-57 l -146,0 0,-60 146,0 c 32,0 45,-28 58,-58 l 32,-76 0,-318 -32,-76 c -12,-29 -26,-58 -58,-58 l -147,0 0,-64 147,0 c 32,0 45,-28 58,-58 l 32,-76 0,-318 -32,-76 c -12,-29 -26,-58 -58,-58 l -147,0 0,-60 -499,0 c 0,665 1,1331 1,1996 z" transform="translate(36.9971,-4204)" id="path23301" style="fill:#9d9e9e"></path><path d="m 16179,6423 498,0 0,-60 146,0 c 31,0 45,-28 57,-57 l 32,-76 0,-317 -32,-76 c -12,-29 -26,-57 -57,-57 l -146,0 0,-60 146,0 c 32,0 45,-28 58,-58 l 32,-76 0,-318 -32,-76 c -12,-29 -26,-58 -58,-58 l -147,0 0,-64 147,0 c 32,0 45,-28 58,-58 l 32,-76 0,-318 -32,-76 c -12,-29 -26,-58 -58,-58 l -147,0 0,-60 -499,0 c 0,665 1,1331 1,1996 z" transform="translate(36.9971,-4204)" id="path23303" style="fill:#9d9e9e"></path><path d="m 18213,5720 479,0 c 19,-45 37,-90 56,-134 l 0,-318 -57,-134 -478,0 c -96,189 -105,384 0,586 z" transform="translate(36.9971,-4204)" id="s30" style="fill:#dedfe0" number="30" type="seat"></path><path d="m 17163,5720 479,0 c 19,-45 37,-90 56,-134 l 0,-318 -57,-134 -478,0 c -96,189 -105,384 0,586 z" transform="translate(36.9971,-4204)" id="s25" style="fill:#dedfe0" number="25" type="seat"></path><path d="m 16113,5720 479,0 c 19,-45 37,-90 56,-134 l 0,-318 -57,-134 -478,0 c -96,189 -105,384 0,586 z" transform="translate(36.9971,-4204)" id="s20" style="fill:#dedfe0" number="20" type="seat"></path><path d="m 18864,5688 c 28,0 41,-25 51,-51 l 28,-68 0,-283 -28,-68 c -11,-26 -23,-51 -51,-51 -26,0 -58,16 -43,51 l 28,68 0,283 -28,68 c -15,36 17,51 43,51 z" transform="translate(36.9971,-4204)" id="path23311" style="fill:#d9dada"></path><path d="m 17814,5688 c 28,0 41,-25 51,-51 l 28,-68 0,-283 -28,-68 c -11,-26 -23,-51 -51,-51 -26,0 -58,16 -43,51 l 28,68 0,283 -28,68 c -15,36 17,51 43,51 z" transform="translate(36.9971,-4204)" id="path23313" style="fill:#d9dada"></path><path d="m 16764,5688 c 28,0 41,-25 51,-51 l 28,-68 0,-283 -28,-68 c -11,-26 -23,-51 -51,-51 -26,0 -58,16 -43,51 l 28,68 0,283 -28,68 c -15,36 17,51 43,51 z" transform="translate(36.9971,-4204)" id="path23315" style="fill:#d9dada"></path><path d="m 18213,5072 479,0 c 19,-45 37,-90 56,-134 l 0,-318 -57,-134 -478,0 c -96,189 -105,384 0,586 z" transform="translate(36.9971,-4204)" id="s29" style="fill:#dedfe0" number="29" type="seat"></path><path d="m 17163,5072 479,0 c 19,-45 37,-90 56,-134 l 0,-318 -57,-134 -478,0 c -96,189 -105,384 0,586 z" transform="translate(36.9971,-4204)" id="s24" style="fill:#dedfe0" number="24" type="seat"></path><path d="m 16113,5072 479,0 c 19,-45 37,-90 56,-134 l 0,-318 -57,-134 -478,0 c -96,189 -105,384 0,586 z" transform="translate(36.9971,-4204)" id="s19" style="fill:#dedfe0" number="19" type="seat"></path><path d="m 18864,5040 c 28,0 41,-25 51,-51 l 28,-68 0,-283 -28,-68 c -11,-26 -23,-51 -51,-51 -26,0 -58,16 -43,51 l 28,68 0,283 -28,68 c -15,36 17,51 43,51 z" transform="translate(36.9971,-4204)" id="path23323" style="fill:#d9dada"></path><path d="m 17814,5040 c 28,0 41,-25 51,-51 l 28,-68 0,-283 -28,-68 c -11,-26 -23,-51 -51,-51 -26,0 -58,16 -43,51 l 28,68 0,283 -28,68 c -15,36 17,51 43,51 z" transform="translate(36.9971,-4204)" id="path23325" style="fill:#d9dada"></path><path d="m 16764,5040 c 28,0 41,-25 51,-51 l 28,-68 0,-283 -28,-68 c -11,-26 -23,-51 -51,-51 -26,0 -58,16 -43,51 l 28,68 0,283 -28,68 c -15,36 17,51 43,51 z" transform="translate(36.9971,-4204)" id="path23327" style="fill:#d9dada"></path><path d="m 18215,5779 479,0 c 19,45 37,89 56,134 l 0,317 -57,134 -477,0 c -96,-189 -105,-384 0,-585 z" transform="translate(36.9971,-4204)" id="s31" style="fill:#dedfe0" number="31" type="seat"></path><path d="m 17165,5779 479,0 c 19,45 37,89 56,134 l 0,317 -57,134 -477,0 c -96,-189 -105,-384 0,-585 z" transform="translate(36.9971,-4204)" id="s26" style="fill:#dedfe0" number="26" type="seat"></path><path d="m 16115,5779 479,0 c 19,45 37,89 56,134 l 0,317 -57,134 -477,0 c -96,-189 -105,-384 0,-585 z" transform="translate(36.9971,-4204)" id="s21" style="fill:#dedfe0" number="21" type="seat"></path><path d="m 18864,5811 c 28,0 40,25 51,51 l 28,68 0,283 -28,68 c -11,26 -23,51 -51,51 -26,0 -58,-16 -43,-51 l 28,-68 0,-283 -28,-68 c -15,-36 17,-51 43,-51 z" transform="translate(36.9971,-4204)" id="path23335" style="fill:#d9dada"></path><path d="m 17814,5811 c 28,0 40,25 51,51 l 28,68 0,283 -28,68 c -11,26 -23,51 -51,51 -26,0 -58,-16 -43,-51 l 28,-68 0,-283 -28,-68 c -15,-36 17,-51 43,-51 z" transform="translate(36.9971,-4204)" id="path23337" style="fill:#d9dada"></path><path d="m 16764,5811 c 28,0 40,25 51,51 l 28,68 0,283 -28,68 c -11,26 -23,51 -51,51 -26,0 -58,-16 -43,-51 l 28,-68 0,-283 -28,-68 c -15,-36 17,-51 43,-51 z" transform="translate(36.9971,-4204)" id="path23339" style="fill:#d9dada"></path><path d="m 15399,4399 595,0 0,1467 c 0,164 -134,298 -298,298 -164,0 -298,-134 -298,-298 l 0,-1467 z" transform="translate(36.9971,-4204)" id="path23341" style="fill:#9d9e9e"></path><path d="m 15399,8515 595,0 0,-1037 c 0,-164 -134,-298 -298,-298 -164,0 -298,134 -298,298 l 0,1037 z" transform="translate(36.9971,-4204)" id="path23343" style="fill:#9d9e9e"></path><path d="m 12009,5587 0,-62 -122,0 0,-1 30,-25 c 47,-41 85,-84 85,-139 0,-58 -40,-100 -113,-100 -43,0 -81,15 -105,33 l 21,53 c 17,-12 41,-26 69,-26 37,0 52,21 52,47 -1,38 -35,74 -105,137 l -41,37 0,45 228,0 z" transform="translate(36.9971,-4204)" id="n2" style="fill:#fefefe;fill-rule:nonzero"></path><path d="m 11780,6215 c 19,11 54,22 95,22 81,0 131,-41 131,-98 0,-42 -31,-72 -70,-79 l 0,-1 c 40,-13 59,-41 59,-75 0,-44 -38,-80 -106,-80 -42,0 -80,12 -99,24 l 15,54 c 13,-8 41,-19 67,-19 32,0 47,14 47,34 0,27 -32,37 -57,37 l -30,0 0,54 31,0 c 33,0 65,14 65,46 0,24 -20,42 -59,42 -31,0 -61,-12 -75,-20 l -15,57 z" transform="translate(36.9971,-4204)" id="n3" style="fill:#fefefe;fill-rule:nonzero" number="3" type="number"></path><path d="m 11834,4714 61,-29 1,0 0,254 72,0 0,-321 -61,0 -86,40 z" transform="translate(36.9971,-4204)" id="n1" style="fill:#fefefe;fill-rule:nonzero"></path><path d="m 13046,5266 -177,0 -21,168 c 13,-2 25,-3 43,-3 64,0 90,20 90,53 0,34 -33,49 -64,49 -29,0 -58,-9 -72,-16 l -14,56 c 18,9 50,18 89,18 86,0 138,-53 138,-113 0,-38 -15,-64 -39,-81 -22,-16 -54,-23 -84,-23 -8,0 -14,0 -21,1 l 7,-49 124,0 0,-62 z" transform="translate(36.9971,-4204)" id="n5" style="fill:#fefefe;fill-rule:nonzero" number="5" type="number"></path><path d="m 13032,5906 c -7,0 -16,-1 -30,1 -50,2 -92,18 -123,47 -35,33 -57,83 -57,143 0,77 42,140 128,140 69,0 118,-52 118,-116 0,-67 -45,-105 -99,-105 -30,0 -52,9 -68,25 l -1,0 c 8,-37 38,-71 105,-77 12,-1 21,-1 29,-1 l 0,-58 z m -84,276 c -35,0 -51,-31 -52,-65 0,-9 1,-15 3,-19 7,-16 24,-28 44,-28 32,0 48,26 48,55 0,33 -17,57 -43,57 z" transform="translate(36.9971,-4204)" id="n6" style="fill:#fefefe;fill-rule:nonzero" number="6" type="number"></path><path d="m 13032,4943 0,-77 38,0 0,-56 -38,0 0,-188 -92,0 -121,196 0,49 142,0 0,77 71,0 z m -144,-133 0,-1 42,-70 c 11,-20 20,-39 30,-60 l 1,0 c -1,21 -2,41 -2,60 l 0,71 -73,0 z" transform="translate(36.9971,-4204)" id="n4" style="fill:#fefefe;fill-rule:nonzero" number="4" type="number"></path><path d="m 13835,5587 73,0 0,-321 -62,0 -85,40 12,56 61,-29 1,0 0,254 z m 276,-326 c -83,0 -122,73 -122,166 0,91 37,165 120,165 81,0 122,-69 122,-167 0,-88 -34,-164 -120,-164 z m -1,57 c 30,0 45,38 45,109 0,73 -16,110 -45,110 -29,0 -46,-35 -46,-109 0,-75 19,-110 46,-110 z" transform="translate(36.9971,-4204)" id="n10" style="fill:#fefefe;fill-rule:nonzero" number="10" type="number"></path><path d="m 13844,6232 73,0 0,-321 -62,0 -85,40 12,56 61,-29 1,0 0,254 z m 254,0 73,0 0,-321 -62,0 -85,40 12,56 61,-29 1,0 0,254 z" transform="translate(36.9971,-4204)" id="n11" style="fill:#fefefe;fill-rule:nonzero" number="11" type="number"></path><path d="m 13903,4944 c 8,1 22,1 34,0 50,-2 92,-17 123,-44 35,-33 56,-81 56,-148 0,-75 -39,-138 -121,-138 -71,0 -121,53 -121,116 0,63 45,100 100,100 29,0 50,-8 65,-23 l 1,0 c -5,24 -19,45 -41,60 -17,12 -40,18 -63,20 -15,0 -23,1 -33,0 l 0,58 z m 89,-276 c 35,0 48,34 47,68 0,9 -1,14 -3,19 -7,11 -21,21 -42,21 -30,0 -45,-24 -45,-51 0,-34 18,-56 43,-56 z" transform="translate(36.9971,-4204)" id="n9" style="fill:#fefefe;fill-rule:nonzero" number="9" type="number"></path><path d="m 14889,5587 73,0 0,-321 -62,0 -85,40 12,56 61,-29 1,0 0,254 z m 373,-321 -177,0 -21,168 c 13,-2 25,-3 43,-3 64,0 90,20 90,53 0,34 -33,49 -64,49 -29,0 -58,-9 -72,-16 l -14,56 c 18,9 50,18 89,18 86,0 138,-53 138,-113 0,-38 -15,-64 -39,-81 -22,-16 -54,-23 -84,-23 -8,0 -14,0 -21,1 l 7,-49 124,0 0,-62 z" transform="translate(36.9971,-4204)" id="n15" style="fill:#fefefe;fill-rule:nonzero" number="15" type="number"></path><path d="m 14882,6229 73,0 0,-321 -62,0 -85,40 12,56 61,-29 1,0 0,254 z m 363,-325 c -7,0 -16,-1 -30,1 -50,2 -92,18 -123,47 -35,33 -57,83 -57,143 0,77 42,140 128,140 69,0 118,-52 118,-116 0,-67 -45,-105 -99,-105 -30,0 -52,9 -68,25 l -1,0 c 8,-37 38,-71 105,-77 12,-1 21,-1 29,-1 l 0,-58 z m -84,276 c -35,0 -51,-31 -52,-65 0,-9 1,-15 3,-19 7,-16 24,-28 44,-28 32,0 48,26 48,55 0,33 -17,57 -43,57 z" transform="translate(36.9971,-4204)" id="n16" style="fill:#fefefe;fill-rule:nonzero" number="16" type="number"></path><path d="m 14882,4939 73,0 0,-321 -62,0 -85,40 12,56 61,-29 1,0 0,254 z m 362,0 0,-77 38,0 0,-56 -38,0 0,-188 -92,0 -121,196 0,49 142,0 0,77 71,0 z m -144,-133 0,-1 42,-70 c 11,-20 20,-39 30,-60 l 1,0 c -1,21 -2,41 -2,60 l 0,71 -73,0 z" transform="translate(36.9971,-4204)" id="n14" style="fill:#fefefe;fill-rule:nonzero" number="14" type="number"></path><path d="m 16325,5587 0,-62 -122,0 0,-1 30,-25 c 47,-41 85,-84 85,-139 0,-58 -40,-100 -113,-100 -43,0 -81,15 -105,33 l 21,53 c 17,-12 41,-26 69,-26 37,0 52,21 52,47 -1,38 -35,74 -105,137 l -41,37 0,45 228,0 z m 144,-326 c -83,0 -122,73 -122,166 0,91 37,165 120,165 81,0 122,-69 122,-167 0,-88 -34,-164 -120,-164 z m -1,57 c 30,0 45,38 45,109 0,73 -16,110 -45,110 -29,0 -46,-35 -46,-109 0,-75 19,-110 46,-110 z" transform="translate(36.9971,-4204)" id="n20" style="fill:#fefefe;fill-rule:nonzero" number="20" type="number"></path><path d="m 16361,6232 0,-62 -122,0 0,-1 30,-25 c 47,-41 85,-84 85,-139 0,-58 -40,-100 -113,-100 -43,0 -81,15 -105,33 l 21,53 c 17,-12 41,-26 69,-26 37,0 52,21 52,47 -1,38 -35,74 -105,137 l -41,37 0,45 228,0 z m 122,0 73,0 0,-321 -62,0 -85,40 12,56 61,-29 1,0 0,254 z" transform="translate(36.9971,-4204)" id="n21" style="fill:#fefefe;fill-rule:nonzero" number="21" type="number"></path><path d="m 16183,4939 73,0 0,-321 -62,0 -85,40 12,56 61,-29 1,0 0,254 z m 182,4 c 8,1 22,1 34,0 50,-2 92,-17 123,-44 35,-33 56,-81 56,-148 0,-75 -39,-138 -121,-138 -71,0 -121,53 -121,116 0,63 45,100 100,100 29,0 50,-8 65,-23 l 1,0 c -5,24 -19,45 -41,60 -17,12 -40,18 -63,20 -15,0 -23,1 -33,0 l 0,58 z m 89,-276 c 35,0 48,34 47,68 0,9 -1,14 -3,19 -7,11 -21,21 -42,21 -30,0 -45,-24 -45,-51 0,-34 18,-56 43,-56 z" transform="translate(36.9971,-4204)" id="n19" style="fill:#fefefe;fill-rule:nonzero" number="19" type="number"></path><path d="m 17374,5587 0,-62 -122,0 0,-1 30,-25 c 47,-41 85,-84 85,-139 0,-58 -40,-100 -113,-100 -43,0 -81,15 -105,33 l 21,53 c 17,-12 41,-26 69,-26 37,0 52,21 52,47 -1,38 -35,74 -105,137 l -41,37 0,45 228,0 z m 240,-321 -177,0 -21,168 c 13,-2 25,-3 43,-3 64,0 90,20 90,53 0,34 -33,49 -64,49 -29,0 -58,-9 -72,-16 l -14,56 c 18,9 50,18 89,18 86,0 138,-53 138,-113 0,-38 -15,-64 -39,-81 -22,-16 -54,-23 -84,-23 -8,0 -14,0 -21,1 l 7,-49 124,0 0,-62 z" transform="translate(36.9971,-4204)" id="n25" style="fill:#fefefe;fill-rule:nonzero" number="25" type="number"></path><path d="m 17375,6232 0,-62 -122,0 0,-1 30,-25 c 47,-41 85,-84 85,-139 0,-58 -40,-100 -113,-100 -43,0 -81,15 -105,33 l 21,53 c 17,-12 41,-26 69,-26 37,0 52,21 52,47 -1,38 -35,74 -105,137 l -41,37 0,45 228,0 z m 231,-325 c -7,0 -16,-1 -30,1 -50,2 -92,18 -123,47 -35,33 -57,83 -57,143 0,77 42,140 128,140 69,0 118,-52 118,-116 0,-67 -45,-105 -99,-105 -30,0 -52,9 -68,25 l -1,0 c 8,-37 38,-71 105,-77 12,-1 21,-1 29,-1 l 0,-58 z m -84,276 c -35,0 -51,-31 -52,-65 0,-9 1,-15 3,-19 7,-16 24,-28 44,-28 32,0 48,26 48,55 0,33 -17,57 -43,57 z" transform="translate(36.9971,-4204)" id="n26" style="fill:#fefefe;fill-rule:nonzero" number="26" type="number"></path><path d="m 17383,4939 0,-62 -122,0 0,-1 30,-25 c 47,-41 85,-84 85,-139 0,-58 -40,-100 -113,-100 -43,0 -81,15 -105,33 l 21,53 c 17,-12 41,-26 69,-26 37,0 52,21 52,47 -1,38 -35,74 -105,137 l -41,37 0,45 228,0 z m 230,0 0,-77 38,0 0,-56 -38,0 0,-188 -92,0 -121,196 0,49 142,0 0,77 71,0 z m -144,-133 0,-1 42,-70 c 11,-20 20,-39 30,-60 l 1,0 c -1,21 -2,41 -2,60 l 0,71 -73,0 z" transform="translate(36.9971,-4204)" id="n24" style="fill:#fefefe;fill-rule:nonzero" number="24" type="number"></path><path d="m 18196,5571 c 19,11 54,22 95,22 81,0 131,-41 131,-98 0,-42 -31,-72 -70,-79 l 0,-1 c 40,-13 59,-41 59,-75 0,-44 -38,-80 -106,-80 -42,0 -80,12 -99,24 l 15,54 c 13,-8 41,-19 67,-19 32,0 47,14 47,34 0,27 -32,37 -57,37 l -30,0 0,54 31,0 c 33,0 65,14 65,46 0,24 -20,42 -59,42 -31,0 -61,-12 -75,-20 l -15,57 z m 374,-310 c -83,0 -122,73 -122,166 0,91 37,165 120,165 81,0 122,-69 122,-167 0,-88 -34,-164 -120,-164 z m -1,57 c 30,0 45,38 45,109 0,73 -16,110 -45,110 -29,0 -46,-35 -46,-109 0,-75 19,-110 46,-110 z" transform="translate(36.9971,-4204)" id="n30" style="fill:#fefefe;fill-rule:nonzero" number="30" type="number"></path><path d="m 18232,6215 c 19,11 54,22 95,22 81,0 131,-41 131,-98 0,-42 -31,-72 -70,-79 l 0,-1 c 40,-13 59,-41 59,-75 0,-44 -38,-80 -106,-80 -42,0 -80,12 -99,24 l 15,54 c 13,-8 41,-19 67,-19 32,0 47,14 47,34 0,27 -32,37 -57,37 l -30,0 0,54 31,0 c 33,0 65,14 65,46 0,24 -20,42 -59,42 -31,0 -61,-12 -75,-20 l -15,57 z m 352,17 73,0 0,-321 -62,0 -85,40 12,56 61,-29 1,0 0,254 z" transform="translate(36.9971,-4204)" id="n31" style="fill:#fefefe;fill-rule:nonzero" number="31" type="number"></path><path d="m 18426,4939 0,-62 -122,0 0,-1 30,-25 c 47,-41 85,-84 85,-139 0,-58 -40,-100 -113,-100 -43,0 -81,15 -105,33 l 21,53 c 17,-12 41,-26 69,-26 37,0 52,21 52,47 -1,38 -35,74 -105,137 l -41,37 0,45 228,0 z m 49,4 c 8,1 22,1 34,0 50,-2 92,-17 123,-44 35,-33 56,-81 56,-148 0,-75 -39,-138 -121,-138 -71,0 -121,53 -121,116 0,63 45,100 100,100 29,0 50,-8 65,-23 l 1,0 c -5,24 -19,45 -41,60 -17,12 -40,18 -63,20 -15,0 -23,1 -33,0 l 0,58 z m 89,-276 c 35,0 48,34 47,68 0,9 -1,14 -3,19 -7,11 -21,21 -42,21 -30,0 -45,-24 -45,-51 0,-34 18,-56 43,-56 z" transform="translate(36.9971,-4204)" id="n29" style="fill:#fefefe;fill-rule:nonzero" number="29" type="number"></path><path d="m 19253,7635 c 19,11 54,22 95,22 81,0 131,-41 131,-98 0,-42 -31,-72 -70,-79 l 0,-1 c 40,-13 59,-41 59,-75 0,-44 -38,-80 -106,-80 -42,0 -80,12 -99,24 l 15,54 c 13,-8 41,-19 67,-19 32,0 47,14 47,34 0,27 -32,37 -57,37 l -30,0 0,54 31,0 c 33,0 65,14 65,46 0,24 -20,42 -59,42 -31,0 -61,-12 -75,-20 l -15,57 z m 260,-304 0,62 147,0 0,1 -132,258 80,0 132,-274 0,-47 -227,0 z" transform="translate(36.9971,-4204)" id="n37" style="fill:#fefefe;fill-rule:nonzero" number="37" type="number"></path><path d="m 18204,7632 c 19,11 54,22 95,22 81,0 131,-41 131,-98 0,-42 -31,-72 -70,-79 l 0,-1 c 40,-13 59,-41 59,-75 0,-44 -38,-80 -106,-80 -42,0 -80,12 -99,24 l 15,54 c 13,-8 41,-19 67,-19 32,0 47,14 47,34 0,27 -32,37 -57,37 l -30,0 0,54 31,0 c 33,0 65,14 65,46 0,24 -20,42 -59,42 -31,0 -61,-12 -75,-20 l -15,57 z m 254,0 c 19,11 54,22 95,22 81,0 131,-41 131,-98 0,-42 -31,-72 -70,-79 l 0,-1 c 40,-13 59,-41 59,-75 0,-44 -38,-80 -106,-80 -42,0 -80,12 -99,24 l 15,54 c 13,-8 41,-19 67,-19 32,0 47,14 47,34 0,27 -32,37 -57,37 l -30,0 0,54 31,0 c 33,0 65,14 65,46 0,24 -20,42 -59,42 -31,0 -61,-12 -75,-20 l -15,57 z" transform="translate(36.9971,-4204)" id="n33" style="fill:#fefefe;fill-rule:nonzero"></path><path d="m 17380,7649 0,-62 -122,0 0,-1 30,-25 c 47,-41 85,-84 85,-139 0,-58 -40,-100 -113,-100 -43,0 -81,15 -105,33 l 21,53 c 17,-12 41,-26 69,-26 37,0 52,21 52,47 -1,38 -35,74 -105,137 l -41,37 0,45 228,0 z m 78,-164 c -35,15 -57,42 -57,81 0,43 38,89 119,89 75,0 123,-40 123,-98 0,-41 -28,-68 -59,-80 l 0,-1 c 32,-16 47,-43 47,-71 0,-39 -31,-82 -106,-82 -64,0 -113,36 -113,90 0,28 15,54 46,71 l 0,1 z m 65,118 c -28,0 -46,-22 -45,-45 0,-23 14,-41 39,-48 29,8 50,25 50,53 0,23 -18,40 -44,40 z m -1,-229 c 28,0 39,20 39,40 0,20 -15,36 -33,41 -26,-8 -45,-22 -45,-43 0,-20 13,-37 39,-37 z" transform="translate(36.9971,-4204)" id="n28" style="fill:#fefefe;fill-rule:nonzero"></path><path d="m 16331,7647 0,-62 -122,0 0,-1 30,-25 c 47,-41 85,-84 85,-139 0,-58 -40,-100 -113,-100 -43,0 -81,15 -105,33 l 21,53 c 17,-12 41,-26 69,-26 37,0 52,21 52,47 -1,38 -35,74 -105,137 l -41,37 0,45 228,0 z m 24,-17 c 19,11 54,22 95,22 81,0 131,-41 131,-98 0,-42 -31,-72 -70,-79 l 0,-1 c 40,-13 59,-41 59,-75 0,-44 -38,-80 -106,-80 -42,0 -80,12 -99,24 l 15,54 c 13,-8 41,-19 67,-19 32,0 47,14 47,34 0,27 -32,37 -57,37 l -30,0 0,54 31,0 c 33,0 65,14 65,46 0,24 -20,42 -59,42 -31,0 -61,-12 -75,-20 l -15,57 z" transform="translate(36.9971,-4204)" id="n23" style="fill:#fefefe;fill-rule:nonzero"></path><path d="m 19248,8281 c 19,11 54,22 95,22 81,0 131,-41 131,-98 0,-42 -31,-72 -70,-79 l 0,-1 c 40,-13 59,-41 59,-75 0,-44 -38,-80 -106,-80 -42,0 -80,12 -99,24 l 15,54 c 13,-8 41,-19 67,-19 32,0 47,14 47,34 0,27 -32,37 -57,37 l -30,0 0,54 31,0 c 33,0 65,14 65,46 0,24 -20,42 -59,42 -31,0 -61,-12 -75,-20 l -15,57 z m 461,-309 c -7,0 -16,-1 -30,1 -50,2 -92,18 -123,47 -35,33 -57,83 -57,143 0,77 42,140 128,140 69,0 118,-52 118,-116 0,-67 -45,-105 -99,-105 -30,0 -52,9 -68,25 l -1,0 c 8,-37 38,-71 105,-77 12,-1 21,-1 29,-1 l 0,-58 z m -84,276 c -35,0 -51,-31 -52,-65 0,-9 1,-15 3,-19 7,-16 24,-28 44,-28 32,0 48,26 48,55 0,33 -17,57 -43,57 z" transform="translate(36.9971,-4204)" id="n36" style="fill:#fefefe;fill-rule:nonzero"></path><path d="m 18234,8281 c 19,11 54,22 95,22 81,0 131,-41 131,-98 0,-42 -31,-72 -70,-79 l 0,-1 c 40,-13 59,-41 59,-75 0,-44 -38,-80 -106,-80 -42,0 -80,12 -99,24 l 15,54 c 13,-8 41,-19 67,-19 32,0 47,14 47,34 0,27 -32,37 -57,37 l -30,0 0,54 31,0 c 33,0 65,14 65,46 0,24 -20,42 -59,42 -31,0 -61,-12 -75,-20 l -15,57 z m 484,17 0,-62 -122,0 0,-1 30,-25 c 47,-41 85,-84 85,-139 0,-58 -40,-100 -113,-100 -43,0 -81,15 -105,33 l 21,53 c 17,-12 41,-26 69,-26 37,0 52,21 52,47 -1,38 -35,74 -105,137 l -41,37 0,45 228,0 z" transform="translate(36.9971,-4204)" id="n32" style="fill:#fefefe;fill-rule:nonzero"></path><path d="m 17375,8297 0,-62 -122,0 0,-1 30,-25 c 47,-41 85,-84 85,-139 0,-58 -40,-100 -113,-100 -43,0 -81,15 -105,33 l 21,53 c 17,-12 41,-26 69,-26 37,0 52,21 52,47 -1,38 -35,74 -105,137 l -41,37 0,45 228,0 z m 29,-321 0,62 147,0 0,1 -132,258 80,0 132,-274 0,-47 -227,0 z" transform="translate(36.9971,-4204)" id="n27" style="fill:#fefefe;fill-rule:nonzero"></path><path d="m 16361,8297 0,-62 -122,0 0,-1 30,-25 c 47,-41 85,-84 85,-139 0,-58 -40,-100 -113,-100 -43,0 -81,15 -105,33 l 21,53 c 17,-12 41,-26 69,-26 37,0 52,21 52,47 -1,38 -35,74 -105,137 l -41,37 0,45 228,0 z m 254,0 0,-62 -122,0 0,-1 30,-25 c 47,-41 85,-84 85,-139 0,-58 -40,-100 -113,-100 -43,0 -81,15 -105,33 l 21,53 c 17,-12 41,-26 69,-26 37,0 52,21 52,47 -1,38 -35,74 -105,137 l -41,37 0,45 228,0 z" transform="translate(36.9971,-4204)" id="n22" style="fill:#fefefe;fill-rule:nonzero"></path><path d="m 20505,7649 0,-77 38,0 0,-56 -38,0 0,-188 -92,0 -121,196 0,49 142,0 0,77 71,0 z m -144,-133 0,-1 42,-70 c 11,-20 20,-39 30,-60 l 1,0 c -1,21 -2,41 -2,60 l 0,71 -73,0 z m 290,133 73,0 0,-321 -62,0 -85,40 12,56 61,-29 1,0 0,254 z" transform="translate(36.9971,-4204)" id="n41" style="fill:#fefefe;fill-rule:nonzero" number="41" type="number"></path><path d="m 21555,7649 0,-77 38,0 0,-56 -38,0 0,-188 -92,0 -121,196 0,49 142,0 0,77 71,0 z m -144,-133 0,-1 42,-70 c 11,-20 20,-39 30,-60 l 1,0 c -1,21 -2,41 -2,60 l 0,71 -73,0 z m 408,-188 -177,0 -21,168 c 13,-2 25,-3 43,-3 64,0 90,20 90,53 0,34 -33,49 -64,49 -29,0 -58,-9 -72,-16 l -14,56 c 18,9 50,18 89,18 86,0 138,-53 138,-113 0,-38 -15,-64 -39,-81 -22,-16 -54,-23 -84,-23 -8,0 -14,0 -21,1 l 7,-49 124,0 0,-62 z" transform="translate(36.9971,-4204)" id="n45" style="fill:#fefefe;fill-rule:nonzero"></path><path d="m 20535,8297 0,-77 38,0 0,-56 -38,0 0,-188 -92,0 -121,196 0,49 142,0 0,77 71,0 z m -144,-133 0,-1 42,-70 c 11,-20 20,-39 30,-60 l 1,0 c -1,21 -2,41 -2,60 l 0,71 -73,0 z m 311,-194 c -83,0 -122,73 -122,166 0,91 37,165 120,165 81,0 122,-69 122,-167 0,-88 -34,-164 -120,-164 z m -1,57 c 30,0 45,38 45,109 0,73 -16,110 -45,110 -29,0 -46,-35 -46,-109 0,-75 19,-110 46,-110 z" transform="translate(36.9971,-4204)" id="n40" style="fill:#fefefe;fill-rule:nonzero" number="40" type="number"></path><path d="m 21585,8297 0,-77 38,0 0,-56 -38,0 0,-188 -92,0 -121,196 0,49 142,0 0,77 71,0 z m -144,-133 0,-1 42,-70 c 11,-20 20,-39 30,-60 l 1,0 c -1,21 -2,41 -2,60 l 0,71 -73,0 z m 398,133 0,-77 38,0 0,-56 -38,0 0,-188 -92,0 -121,196 0,49 142,0 0,77 71,0 z m -144,-133 0,-1 42,-70 c 11,-20 20,-39 30,-60 l 1,0 c -1,21 -2,41 -2,60 l 0,71 -73,0 z" transform="translate(36.9971,-4204)" id="n44" style="fill:#fefefe;fill-rule:nonzero"></path><path d="m 13849,7652 73,0 0,-321 -62,0 -85,40 12,56 61,-29 1,0 0,254 z m 156,-17 c 19,11 54,22 95,22 81,0 131,-41 131,-98 0,-42 -31,-72 -70,-79 l 0,-1 c 40,-13 59,-41 59,-75 0,-44 -38,-80 -106,-80 -42,0 -80,12 -99,24 l 15,54 c 13,-8 41,-19 67,-19 32,0 47,14 47,34 0,27 -32,37 -57,37 l -30,0 0,54 31,0 c 33,0 65,14 65,46 0,24 -20,42 -59,42 -31,0 -61,-12 -75,-20 l -15,57 z" transform="translate(36.9971,-4204)" id="n13" style="fill:#fefefe;fill-rule:nonzero"></path><path d="m 12744,7485 c -35,15 -57,42 -57,81 0,43 38,89 119,89 75,0 123,-40 123,-98 0,-41 -28,-68 -59,-80 l 0,-1 c 32,-16 47,-43 47,-71 0,-39 -31,-82 -106,-82 -64,0 -113,36 -113,90 0,28 15,54 46,71 l 0,1 z m 65,118 c -28,0 -46,-22 -45,-45 0,-23 14,-41 39,-48 29,8 50,25 50,53 0,23 -18,40 -44,40 z m -1,-229 c 28,0 39,20 39,40 0,20 -15,36 -33,41 -26,-8 -45,-22 -45,-43 0,-20 13,-37 39,-37 z" transform="translate(149.886,-4204)" id="n8" style="fill:#fefefe;fill-rule:nonzero" number="8" type="number"></path><path d="m 13879,8297 73,0 0,-321 -62,0 -85,40 12,56 61,-29 1,0 0,254 z m 387,0 0,-62 -122,0 0,-1 30,-25 c 47,-41 85,-84 85,-139 0,-58 -40,-100 -113,-100 -43,0 -81,15 -105,33 l 21,53 c 17,-12 41,-26 69,-26 37,0 52,21 52,47 -1,38 -35,74 -105,137 l -41,37 0,45 228,0 z" transform="translate(-19.44735,-4204)" id="n12" style="fill:#fefefe;fill-rule:nonzero"></path><path d="m 12785,8297 132,-273 0,-48 -226,0 0,62 147,0 0,1 -133,258 z" transform="translate(149.886,-4204)" id="n7" style="fill:#fefefe;fill-rule:nonzero" number="7" type="number"></path><path d="m 14898,7649 73,0 0,-321 -62,0 -85,40 12,56 61,-29 1,0 0,254 z m 211,-164 c -35,15 -57,42 -57,81 0,43 38,89 119,89 75,0 123,-40 123,-98 0,-41 -28,-68 -59,-80 l 0,-1 c 32,-16 47,-43 47,-71 0,-39 -31,-82 -106,-82 -64,0 -113,36 -113,90 0,28 15,54 46,71 l 0,1 z m 65,118 c -28,0 -46,-22 -45,-45 0,-23 14,-41 39,-48 29,8 50,25 50,53 0,23 -18,40 -44,40 z m -1,-229 c 28,0 39,20 39,40 0,20 -15,36 -33,41 -26,-8 -45,-22 -45,-43 0,-20 13,-37 39,-37 z" transform="translate(36.9971,-4204)" id="n18" style="fill:#fefefe;fill-rule:nonzero"></path><path d="m 14895,8297 73,0 0,-321 -62,0 -85,40 12,56 61,-29 1,0 0,254 z m 162,-321 0,62 147,0 0,1 -132,258 80,0 132,-274 0,-47 -227,0 z" transform="translate(36.9971,-4204)" id="n17" style="fill:#fefefe;fill-rule:nonzero"></path><path d="m 19327,5780 499,0 0,-61 147,0 c 32,0 45,-28 58,-58 l 32,-76 0,-318 -32,-76 c -12,-29 -26,-58 -58,-58 l -147,0 0,-64 147,0 c 32,0 45,-28 58,-58 l 32,-76 0,-318 -32,-76 c -12,-29 -26,-58 -58,-58 l -147,0 0,-60 -499,0 c 0,451 0,902 0,1353 z" transform="translate(36.9971,-4204)" id="path23423" style="fill:#9d9e9e"></path><path d="m 20377,5780 499,0 0,-61 147,0 c 32,0 45,-28 58,-58 l 32,-76 0,-318 -32,-76 c -12,-29 -26,-58 -58,-58 l -147,0 0,-64 147,0 c 32,0 45,-28 58,-58 l 32,-76 0,-318 -32,-76 c -12,-29 -26,-58 -58,-58 l -147,0 0,-60 -499,0 c 0,451 0,902 0,1353 z" transform="translate(36.9971,-4204)" id="path23425" style="fill:#9d9e9e"></path><path d="m 21427,5780 499,0 0,-61 147,0 c 32,0 45,-28 58,-58 l 32,-76 0,-318 -32,-76 c -12,-29 -26,-58 -58,-58 l -147,0 0,-64 147,0 c 32,0 45,-28 58,-58 l 32,-76 0,-318 -32,-76 c -12,-29 -26,-58 -58,-58 l -147,0 0,-60 -499,0 c 0,451 0,902 0,1353 z" transform="translate(36.9971,-4204)" id="path23427" style="fill:#9d9e9e"></path><path d="m 19263,5720 479,0 c 19,-45 37,-90 56,-134 l 0,-318 -57,-134 -478,0 c -96,189 -105,384 0,586 z" transform="translate(36.9971,-4204)" id="s35" style="fill:#dedfe0" number="35" type="seat"></path><path d="m 20313,5720 479,0 c 19,-45 37,-90 56,-134 l 0,-318 -57,-134 -478,0 c -96,189 -105,384 0,586 z" transform="translate(36.9971,-4204)" id="s39" style="fill:#dedfe0" number="39" type="seat"></path><path d="m 21363,5720 479,0 c 19,-45 37,-90 56,-134 l 0,-318 -57,-134 -478,0 c -96,189 -105,384 0,586 z" transform="translate(36.9971,-4204)" id="s43" style="fill:#dedfe0"></path><path d="m 19914,5688 c 28,0 41,-25 51,-51 l 28,-68 0,-283 -28,-68 c -11,-26 -23,-51 -51,-51 -26,0 -58,16 -43,51 l 28,68 0,283 -28,68 c -15,36 17,51 43,51 z" transform="translate(36.9971,-4204)" id="path23435" style="fill:#d9dada"></path><path d="m 20964,5688 c 28,0 41,-25 51,-51 l 28,-68 0,-283 -28,-68 c -11,-26 -23,-51 -51,-51 -26,0 -58,16 -43,51 l 28,68 0,283 -28,68 c -15,36 17,51 43,51 z" transform="translate(36.9971,-4204)" id="path23437" style="fill:#d9dada"></path><path d="m 22014,5688 c 28,0 41,-25 51,-51 l 28,-68 0,-283 -28,-68 c -11,-26 -23,-51 -51,-51 -26,0 -58,16 -43,51 l 28,68 0,283 -28,68 c -15,36 17,51 43,51 z" transform="translate(36.9971,-4204)" id="path23439" style="fill:#d9dada"></path><path d="m 19263,5072 479,0 c 19,-45 37,-90 56,-134 l 0,-318 -57,-134 -478,0 c -96,189 -105,384 0,586 z" transform="translate(36.9971,-4204)" id="s34" style="fill:#dedfe0" number="34" type="seat"></path><path d="m 20313,5072 479,0 c 19,-45 37,-90 56,-134 l 0,-318 -57,-134 -478,0 c -96,189 -105,384 0,586 z" transform="translate(36.9971,-4204)" id="s38" style="fill:#dedfe0" number="38" type="seat"></path><path d="m 21363,5072 479,0 c 19,-45 37,-90 56,-134 l 0,-318 -57,-134 -478,0 c -96,189 -105,384 0,586 z" transform="translate(36.9971,-4204)" id="s42" style="fill:#dedfe0"></path><path d="m 19914,5040 c 28,0 41,-25 51,-51 l 28,-68 0,-283 -28,-68 c -11,-26 -23,-51 -51,-51 -26,0 -58,16 -43,51 l 28,68 0,283 -28,68 c -15,36 17,51 43,51 z" transform="translate(36.9971,-4204)" id="path23447" style="fill:#d9dada"></path><path d="m 20964,5040 c 28,0 41,-25 51,-51 l 28,-68 0,-283 -28,-68 c -11,-26 -23,-51 -51,-51 -26,0 -58,16 -43,51 l 28,68 0,283 -28,68 c -15,36 17,51 43,51 z" transform="translate(36.9971,-4204)" id="path23449" style="fill:#d9dada"></path><path d="m 22014,5040 c 28,0 41,-25 51,-51 l 28,-68 0,-283 -28,-68 c -11,-26 -23,-51 -51,-51 -26,0 -58,16 -43,51 l 28,68 0,283 -28,68 c -15,36 17,51 43,51 z" transform="translate(36.9971,-4204)" id="path23451" style="fill:#d9dada"></path><path d="m 19253,4925 c 19,11 54,22 95,22 81,0 131,-41 131,-98 0,-42 -31,-72 -70,-79 l 0,-1 c 40,-13 59,-41 59,-75 0,-44 -38,-80 -106,-80 -42,0 -80,12 -99,24 l 15,54 c 13,-8 41,-19 67,-19 32,0 47,14 47,34 0,27 -32,37 -57,37 l -30,0 0,54 31,0 c 33,0 65,14 65,46 0,24 -20,42 -59,42 -31,0 -61,-12 -75,-20 l -15,57 z m 460,17 0,-77 38,0 0,-56 -38,0 0,-188 -92,0 -121,196 0,49 142,0 0,77 71,0 z m -144,-133 0,-1 42,-70 c 11,-20 20,-39 30,-60 l 1,0 c -1,21 -2,41 -2,60 l 0,71 -73,0 z" transform="translate(36.9971,-4204)" id="n34" style="fill:#fefefe;fill-rule:nonzero" number="34" type="number"></path><path d="m 20303,4925 c 19,11 54,22 95,22 81,0 131,-41 131,-98 0,-42 -31,-72 -70,-79 l 0,-1 c 40,-13 59,-41 59,-75 0,-44 -38,-80 -106,-80 -42,0 -80,12 -99,24 l 15,54 c 13,-8 41,-19 67,-19 32,0 47,14 47,34 0,27 -32,37 -57,37 l -30,0 0,54 31,0 c 33,0 65,14 65,46 0,24 -20,42 -59,42 -31,0 -61,-12 -75,-20 l -15,57 z m 308,-148 c -35,15 -57,42 -57,81 0,43 38,89 119,89 75,0 123,-40 123,-98 0,-41 -28,-68 -59,-80 l 0,-1 c 32,-16 47,-43 47,-71 0,-39 -31,-82 -106,-82 -64,0 -113,36 -113,90 0,28 15,54 46,71 l 0,1 z m 65,118 c -28,0 -46,-22 -45,-45 0,-23 14,-41 39,-48 29,8 50,25 50,53 0,23 -18,40 -44,40 z m -1,-229 c 28,0 39,20 39,40 0,20 -15,36 -33,41 -26,-8 -45,-22 -45,-43 0,-20 13,-37 39,-37 z" transform="translate(36.9971,-4204)" id="n38" style="fill:#fefefe;fill-rule:nonzero" number="38" type="number"></path><path d="m 21559,4942 0,-77 38,0 0,-56 -38,0 0,-188 -92,0 -121,196 0,49 142,0 0,77 71,0 z m -144,-133 0,-1 42,-70 c 11,-20 20,-39 30,-60 l 1,0 c -1,21 -2,41 -2,60 l 0,71 -73,0 z m 422,133 0,-62 -122,0 0,-1 30,-25 c 47,-41 85,-84 85,-139 0,-58 -40,-100 -113,-100 -43,0 -81,15 -105,33 l 21,53 c 17,-12 41,-26 69,-26 37,0 52,21 52,47 -1,38 -35,74 -105,137 l -41,37 0,45 228,0 z" transform="translate(36.9971,-4204)" id="n42" style="fill:#fefefe;fill-rule:nonzero"></path><path d="m 19248,5571 c 19,11 54,22 95,22 81,0 131,-41 131,-98 0,-42 -31,-72 -70,-79 l 0,-1 c 40,-13 59,-41 59,-75 0,-44 -38,-80 -106,-80 -42,0 -80,12 -99,24 l 15,54 c 13,-8 41,-19 67,-19 32,0 47,14 47,34 0,27 -32,37 -57,37 l -30,0 0,54 31,0 c 33,0 65,14 65,46 0,24 -20,42 -59,42 -31,0 -61,-12 -75,-20 l -15,57 z m 470,-304 -177,0 -21,168 c 13,-2 25,-3 43,-3 64,0 90,20 90,53 0,34 -33,49 -64,49 -29,0 -58,-9 -72,-16 l -14,56 c 18,9 50,18 89,18 86,0 138,-53 138,-113 0,-38 -15,-64 -39,-81 -22,-16 -54,-23 -84,-23 -8,0 -14,0 -21,1 l 7,-49 124,0 0,-62 z" transform="translate(36.9971,-4204)" id="n35" style="fill:#fefefe;fill-rule:nonzero" number="35" type="number"></path><path d="m 20298,5571 c 19,11 54,22 95,22 81,0 131,-41 131,-98 0,-42 -31,-72 -70,-79 l 0,-1 c 40,-13 59,-41 59,-75 0,-44 -38,-80 -106,-80 -42,0 -80,12 -99,24 l 15,54 c 13,-8 41,-19 67,-19 32,0 47,14 47,34 0,27 -32,37 -57,37 l -30,0 0,54 31,0 c 33,0 65,14 65,46 0,24 -20,42 -59,42 -31,0 -61,-12 -75,-20 l -15,57 z m 279,21 c 8,1 22,1 34,0 50,-2 92,-17 123,-44 35,-33 56,-81 56,-148 0,-75 -39,-138 -121,-138 -71,0 -121,53 -121,116 0,63 45,100 100,100 29,0 50,-8 65,-23 l 1,0 c -5,24 -19,45 -41,60 -17,12 -40,18 -63,20 -15,0 -23,1 -33,0 l 0,58 z m 89,-276 c 35,0 48,34 47,68 0,9 -1,14 -3,19 -7,11 -21,21 -42,21 -30,0 -45,-24 -45,-51 0,-34 18,-56 43,-56 z" transform="translate(36.9971,-4204)" id="n39" style="fill:#fefefe;fill-rule:nonzero" number="39" type="number"></path><path d="m 21554,5587 0,-77 38,0 0,-56 -38,0 0,-188 -92,0 -121,196 0,49 142,0 0,77 71,0 z m -144,-133 0,-1 42,-70 c 11,-20 20,-39 30,-60 l 1,0 c -1,21 -2,41 -2,60 l 0,71 -73,0 z m 192,116 c 19,11 54,22 95,22 81,0 131,-41 131,-98 0,-42 -31,-72 -70,-79 l 0,-1 c 40,-13 59,-41 59,-75 0,-44 -38,-80 -106,-80 -42,0 -80,12 -99,24 l 15,54 c 13,-8 41,-19 67,-19 32,0 47,14 47,34 0,27 -32,37 -57,37 l -30,0 0,54 31,0 c 33,0 65,14 65,46 0,24 -20,42 -59,42 -31,0 -61,-12 -75,-20 l -15,57 z" transform="translate(36.9971,-4204)" id="n43" style="fill:#fefefe;fill-rule:nonzero"></path><path d="m 1889,8531 1775,0 0,-1028 c 0,-361 -608,-557 -1057,-370 -438,182 -717,739 -717,1057 l 0,341 z m 30,-30 1715,0 0,-998 c 0,-32 -5,-63 -16,-94 -52,-147 -214,-236 -355,-278 -185,-55 -397,-53 -580,6 -22,7 -43,15 -65,24 -138,58 -259,153 -358,264 -169,188 -341,507 -341,765 l 0,311 z" transform="translate(36.9971,-4204)" id="path23465" style="fill:#9d9e9e"></path><path d="m 3556,7960 -273,473 -234,-135 273,-473 234,135 z m -294,-170 -273,473 -272,-157 c -124,-72 -167,-232 -96,-356 l 12,-21 c 72,-124 232,-167 356,-96 l 272,157 z m -183,49 -156,-90 c -60,-35 -139,-14 -173,46 l -12,21 c -35,60 -14,139 46,173 l 156,90 139,-241 z" transform="translate(36.9971,-4204)" id="path23467" style="fill:#c2c7cc"></path><path d="m 2535,5945 -106,0 0,-1539 106,0 0,1539 z m -106,1285 0,-247 106,0 0,180 c -37,20 -72,42 -106,67 z" transform="translate(36.9971,-4204)" id="path23469" style="fill:#0275d8"></path><path d="m 11281,6745 -106,0 0,-2339 106,0 0,2339 z m 0,1779 -106,0 0,-744 106,0 0,744 z" transform="translate(36.9971,-4204)" id="path23471" style="fill:#0275d8"></path><path d="m 5424,8204 4521,0 c 110,0 200,90 200,200 l 0,120 -4921,0 0,-120 c 0,-110 90,-200 200,-200 z" transform="translate(36.9971,-4204)" id="path23473" style="fill:#ebecec"></path><path d="m 27264,5965 -106,0 0,-1559 106,0 0,1559 z m 0,2559 -106,0 0,-1524 106,0 0,1524 z" transform="translate(36.9971,-4204)" id="path23475" style="fill:#0275d8"></path><path d="m 27128,4437 -2520,1 0,1160 c 0,162 46,336 112,483 101,226 302,494 573,505 92,4 184,-5 275,-24 351,-74 676,-304 966,-506 191,-132 385,-268 593,-372 l 0,-1248 z m 30,-30 -2580,1 0,1190 c 0,415 300,1002 714,1019 692,28 1244,-609 1865,-913 l 0,-1297 z" transform="translate(36.9971,-4204)" id="path23477" style="fill:#9d9e9e"></path><path d="m 24864,4422 547,0 0,270 -547,0 0,-270 z m 0,339 547,0 0,314 c 0,144 -117,261 -261,261 l -25,0 c -144,0 -261,-117 -261,-261 l 0,-314 z m 134,134 0,180 c 0,70 57,127 127,127 l 25,0 c 70,0 127,-57 127,-127 l 0,-180 -279,0 z" transform="translate(36.9971,-4204)" id="path23483" style="fill:#c2c7cc"></path><path d="m 7507,5846 c 52,72 98,96 234,96 l 673,0 c 136,0 182,-23 234,-96 l -1141,0 -1,0 z m 428,-803 c 36,-64 45,-146 -9,-219 64,47 138,109 76,233 -50,99 -42,143 -21,208 -64,-69 -101,-121 -46,-221 l 0,0 z m 196,0 c 36,-64 45,-146 -9,-219 64,47 138,109 76,233 -50,99 -42,143 -21,208 -64,-69 -101,-121 -46,-221 l 0,0 z m -415,577 -1,-308 c 224,0 449,0 673,0 l 0,53 c 39,-7 79,-13 119,-19 5,-1 8,-1 13,-1 27,1 52,16 67,38 17,25 18,57 6,84 l -56,128 c -20,44 -65,85 -115,85 l -45,0 c -28,75 -107,122 -186,122 -93,0 -186,0 -278,0 -98,0 -196,-72 -196,-182 l 0,-1 z m 671,-183 -1,170 34,0 c 20,0 41,-25 48,-41 l 56,-128 c 2,-5 4,-11 0,-16 -1,-2 -5,-5 -7,-5 0,0 0,0 0,0 -43,7 -86,14 -130,21 l 0,0 z" transform="translate(36.9971,-4204)" id="path15365" style="fill:#9d9e9e"></path><path d="m 22781,4903 20,327 c 11,55 56,88 113,88 l 347,0 c 43,76 87,152 131,228 14,24 26,51 69,51 33,0 60,-27 60,-67 0,-21 -14,-39 -23,-54 l -143,-246 c -21,-34 -35,-78 -79,-78 l -271,0 -2,-81 184,0 c 79,0 83,-101 -2,-101 l -188,0 -6,-67 c -21,-192 -216,-143 -211,-2 l 0,1 z m 537,630 c -63,144 -207,246 -375,246 -226,0 -409,-183 -409,-409 0,-149 80,-279 199,-351 l 9,105 c -71,58 -117,146 -117,246 0,175 142,317 317,317 157,0 286,-113 312,-263 l 63,109 1,0 z m -440,-984 c 59,0 106,48 106,106 0,59 -48,106 -106,106 -59,0 -106,-48 -106,-106 0,-59 48,-106 106,-106 z" transform="translate(36.9971,-4204)" id="path6141" style="fill:#9d9e9e"></path><path d="m 22781,7384 20,327 c 11,55 56,88 113,88 l 347,0 c 43,76 87,152 131,228 14,24 26,51 69,51 33,0 60,-27 60,-67 0,-21 -14,-39 -23,-54 l -143,-246 c -21,-34 -35,-78 -79,-78 l -271,0 -2,-81 184,0 c 79,0 83,-101 -2,-101 l -188,0 -6,-67 c -21,-192 -216,-143 -211,-2 l 0,1 z m 537,630 c -63,144 -207,246 -375,246 -226,0 -409,-183 -409,-409 0,-149 80,-279 199,-351 l 9,105 c -71,58 -117,146 -117,246 0,175 142,317 317,317 157,0 286,-113 312,-263 l 63,109 1,0 z m -440,-984 c 59,0 106,48 106,106 0,59 -48,106 -106,106 -59,0 -106,-48 -106,-106 0,-59 48,-106 106,-106 z" transform="translate(36.9971,-4204)" id="path6141_0" style="fill:#9d9e9e"></path><path d="m 25955,5066 20,327 c 11,55 56,88 113,88 l 347,0 c 43,76 87,152 131,228 14,24 26,51 69,51 33,0 60,-27 60,-67 0,-21 -14,-39 -23,-54 l -143,-246 c -21,-34 -35,-78 -79,-78 l -271,0 -2,-81 184,0 c 79,0 83,-101 -2,-101 l -188,0 -6,-67 c -21,-192 -216,-143 -211,-2 l 0,1 z m 537,630 c -63,144 -207,246 -375,246 -226,0 -409,-183 -409,-409 0,-149 80,-279 199,-351 l 9,105 c -71,58 -117,146 -117,246 0,175 142,317 317,317 157,0 286,-113 312,-263 l 63,109 1,0 z m -440,-984 c 59,0 106,48 106,106 0,59 -48,106 -106,106 -59,0 -106,-48 -106,-106 0,-59 48,-106 106,-106 z" transform="translate(36.9971,-4204)" id="path6141_1" style="fill:#9d9e9e"></path><path d="m 22941,5056 c 174,0 315,141 315,315 0,174 -141,315 -315,315 -174,0 -315,-141 -315,-315 0,-174 141,-315 315,-315 z" transform="translate(36.9971,-4204)" id="s46" style="fill:#dedfe0"></path><path d="m 22941,7535 c 174,0 315,141 315,315 0,174 -141,315 -315,315 -174,0 -315,-141 -315,-315 0,-174 141,-315 315,-315 z" transform="translate(36.9971,-4204)" id="s47" style="fill:#dedfe0"></path><path d="m 22903,5531 0,-77 38,0 0,-56 -38,0 0,-188 -92,0 -121,196 0,49 142,0 0,77 71,0 z m -144,-133 0,-1 42,-70 c 11,-20 20,-39 30,-60 l 1,0 c -1,21 -2,41 -2,60 l 0,71 -73,0 z m 399,-193 c -7,0 -16,-1 -30,1 -50,2 -92,18 -123,47 -35,33 -57,83 -57,143 0,77 42,140 128,140 69,0 118,-52 118,-116 0,-67 -45,-105 -99,-105 -30,0 -52,9 -68,25 l -1,0 c 8,-37 38,-71 105,-77 12,-1 21,-1 29,-1 l 0,-58 z m -84,276 c -35,0 -51,-31 -52,-65 0,-9 1,-15 3,-19 7,-16 24,-28 44,-28 32,0 48,26 48,55 0,33 -17,57 -43,57 z" transform="translate(36.9971,-4204)" id="n46" style="fill:#fefefe;fill-rule:nonzero"></path><path d="m 22908,8010 0,-77 38,0 0,-56 -38,0 0,-188 -92,0 -121,196 0,49 142,0 0,77 71,0 z m -144,-133 0,-1 42,-70 c 11,-20 20,-39 30,-60 l 1,0 c -1,21 -2,41 -2,60 l 0,71 -73,0 z m 197,-188 0,62 147,0 0,1 -132,258 80,0 132,-274 0,-47 -227,0 z" transform="translate(36.9971,-4204)" id="n47" style="fill:#fefefe;fill-rule:nonzero"></path>
<g transform="translate(19495.179,-9059.5)" id="_1226007552"><polygon points="9861,12358 9821,12309 9821,10334 9861,10285 9901,10334 9941,10285 9982,10334 10022,10285 10062,10334 10102,10285 10142,10334 10142,12309 10102,12358 10062,12309 10022,12358 9982,12309 9941,12358 9901,12309 " id="polygon25759" style="fill:#9d9e9e"></polygon><polygon points="9866,10292 9901,10334 9901,12309 9861,12358 9856,12352 9856,10292 9856,10292 " id="polygon25761" style="fill:#b2b3b3"></polygon><polygon points="10027,10292 10062,10334 10062,12309 10022,12358 10017,12352 10017,10292 10017,10292 " id="polygon25763" style="fill:#b2b3b3"></polygon><polygon points="9946,10292 9982,10334 9982,12309 9941,12358 9936,12352 9936,10292 9936,10292 " id="polygon25765" style="fill:#b2b3b3"></polygon><polygon points="10107,10292 10142,10334 10142,12309 10102,12358 10097,12352 10097,10292 10097,10292 " id="polygon25767" style="fill:#b2b3b3"></polygon></g><g transform="translate(-9821,-9059.5)" id="_1226007552-5"><polygon points="9861,12358 9821,12309 9821,10334 9861,10285 9901,10334 9941,10285 9982,10334 10022,10285 10062,10334 10102,10285 10142,10334 10142,12309 10102,12358 10062,12309 10022,12358 9982,12309 9941,12358 9901,12309 " id="polygon25759-4" style="fill:#9d9e9e"></polygon><polygon points="9866,10292 9901,10334 9901,12309 9861,12358 9856,12352 9856,10292 9856,10292 " id="polygon25761-3" style="fill:#b2b3b3"></polygon><polygon points="10027,10292 10062,10334 10062,12309 10022,12358 10017,12352 10017,10292 10017,10292 " id="polygon25763-1" style="fill:#b2b3b3"></polygon><polygon points="9946,10292 9982,10334 9982,12309 9941,12358 9936,12352 9936,10292 9936,10292 " id="polygon25765-2" style="fill:#b2b3b3"></polygon><polygon points="10107,10292 10142,10334 10142,12309 10102,12358 10097,12352 10097,10292 10097,10292 " id="polygon25767-3" style="fill:#b2b3b3"></polygon></g><path d="m 14682,6820 0,678 175,0 0,-678 -175,0 z m -53,713 0,-35 0,-678 0,-18 0,-51 2332,0 0,51 0,18 0,678 0,35 0,35 -2332,0 0,-35 z m 2279,-35 0,-678 -175,0 0,678 175,0 z m -228,0 0,-678 -175,0 0,678 175,0 z m -228,0 0,-678 -175,0 0,678 175,0 z m -228,0 0,-678 -175,0 0,678 175,0 z m -228,0 0,-678 -175,0 0,678 175,0 z m -228,0 0,-678 -175,0 0,678 175,0 z m -228,0 0,-678 -175,0 0,678 175,0 z m -228,0 0,-678 -175,0 0,678 175,0 z m -228,0 0,-678 -175,0 0,678 175,0 z" transform="translate(10158.344,-3326.7555)" id="path18454" style="fill:#9d9e9e;fill-rule:evenodd"></path><path d="m 16363,6697 2,0 0,386 c 0,117 -95,212 -212,212 l -713,0 c -117,0 -212,-95 -212,-212 l 0,-386 2,0 c 14,-103 103,-182 210,-182 l 40,0 c 17,-120 121,-213 246,-213 l 143,0 c 125,0 229,93 246,213 l 40,0 c 107,0 195,80 210,182 z" transform="translate(10158.344,-3326.7555)" id="path18510" style="fill:#fefefe;fill-rule:evenodd"></path><path d="m 15726,6402 143,0 c 82,0 148,67 148,148 l 0,37 c -24,0 -48,0 -73,0 -1,0 -3,0 -4,0 l 0,-41 c 0,-41 -33,-74 -74,-74 l -140,0 c -41,0 -74,33 -74,74 l 0,37 c -25,-1 -49,-2 -74,-3 l 0,-31 c 0,-82 67,-148 148,-148 z m -285,213 713,0 c 61,0 112,50 112,112 l 0,34 -181,0 0,-12 c 0,-11 -9,-21 -21,-21 l -66,0 c -11,0 -21,9 -21,21 l 0,12 -362,0 0,-12 c 0,-11 -9,-21 -21,-21 l -66,0 c -11,0 -21,9 -21,21 l 0,12 -180,0 0,-34 c 0,-61 50,-112 112,-112 z m 825,182 0,286 c 0,61 -50,112 -112,112 l -713,0 c -61,0 -112,-50 -112,-112 l 0,-286 180,0 0,53 c 0,11 9,21 21,21 l 66,0 c 11,0 21,-9 21,-21 l 0,-53 362,0 0,53 c 0,11 9,21 21,21 l 66,0 c 11,0 21,-9 21,-21 l 0,-53 181,0 z" transform="translate(10158.344,-3326.7555)" id="path18512" style="fill:#9d9e9e;fill-rule:evenodd"></path></svg>