<svg xmlns:dc="http://purl.org/dc/elements/1.1/" xmlns:cc="http://creativecommons.org/ns#" xmlns:rdf="http://www.w3.org/1999/02/22-rdf-syntax-ns#" xmlns:svg="http://www.w3.org/2000/svg" xmlns="http://www.w3.org/2000/svg" version="1.1" width="1027.5" height="182.49875" viewBox="0 0 822.00003 145.99899" id="svg2985" style="fill-rule:evenodd">
  <metadata id="metadata3329">
    <rdf:rdf>
      <cc:work rdf:about="">
        <dc:format>image/svg+xml</dc:format>
        <dc:type rdf:resource="http://purl.org/dc/dcmitype/StillImage"></dc:type>
        <dc:title></dc:title>
      </cc:work>
    </rdf:rdf>
  </metadata>
  <defs id="defs3327"></defs>
  <path d="m 52.9194,550.938 0,-45.224 51.9376,9 0,36.224 -51.9376,0 z m 687.9366,-134.434 41.25,0 0,63.993 -41.25,0 0,-63.993 z m -690.5617,0 0,51.897 39.7502,5.25 55.4055,0 0,-57.147 -95.1557,0 z" transform="translate(-8.136,-410.72104)" id="background" style="fill:#f0f4f5;stroke:none"></path>
  <path d="m 16.1688,416.504 805.9342,0 c 1.238,0 2.251,1.012 2.251,2.25 l 0,129.934 c 0,1.237 -1.013,2.25 -2.251,2.25 l -805.9342,0 c -1.2376,0 -2.2501,-1.013 -2.2501,-2.25 l 0,-129.934 c 0,-1.238 1.0125,-2.25 2.2501,-2.25 z m 0,-5.783 805.9342,0 c 4.418,0 8.033,3.615 8.033,8.033 l 0,129.934 c 0,4.418 -3.615,8.032 -8.033,8.032 l -805.9342,0 c -4.4181,0 -8.0328,-3.614 -8.0328,-8.032 l 0,-129.934 c 0,-4.418 3.6147,-8.033 8.0328,-8.033 z" transform="translate(-8.136,-410.72104)" id="car" style="fill:#0275d8;stroke:none"></path>
  <path d="m 92.6697,416.504 0,57.147 -2.6252,0 0,-57.147 2.6252,0 z m 53.8103,62.96 20.709,0 0,2.625 -23.334,0 0,-65.585 2.625,0 0,62.96 z m 44.709,0 18.666,0 0,-62.96 2.625,0 0,62.96 20.522,0 0,2.625 c -13.937,0 -27.875,0 -41.813,0 l 0,-2.625 z m 65.813,0 18.478,0 0,-62.96 2.626,0 0,62.96 21.083,0 0,2.625 c -14.062,0 -28.125,0 -42.187,0 l 0,-2.625 z m 66.188,0 18.853,0 0,-62.96 2.625,0 0,62.96 20.709,0 0,2.625 c -14.062,0 -28.125,0 -42.187,0 l 0,-2.625 z m 66.187,0 18.478,0 0,-62.96 2.625,0 0,62.96 20.523,0 0,2.625 c -13.876,0 -27.751,0 -41.626,0 l 0,-2.625 z m 65.626,0 19.04,0 0,-62.96 2.625,0 0,62.96 20.71,0 0,2.625 c -14.125,0 -28.25,0 -42.375,0 l 0,-2.625 z m 66.375,0 18.29,0 0,-62.96 2.625,0 0,62.96 20.813,0 0,2.625 c -13.91,0 -27.819,0 -41.728,0 l 0,-2.625 z m 65.728,0 18.75,0 0,-62.96 2.625,0 0,62.96 21.093,0 0,2.625 c -14.156,0 -28.312,0 -42.468,0 l 0,-2.625 z m 66.468,0 18.469,0 0,-62.96 2.625,0 0,62.96 19.782,0 0,2.625 c -13.626,0 -27.251,0 -40.876,0 l 0,-2.625 z m 64.876,0 19.781,0 0,-62.96 2.625,0 0,65.585 -22.406,0 0,-2.625 z m 66.281,-62.96 0,65.585 -2.625,0 0,-65.585 2.625,0 z m 0,98.585 0,35.849 -2.625,0 0,-35.849 2.625,0 z m -43.875,0 0,35.849 -2.625,0 0,-35.849 2.625,0 z m -66.188,0 0,35.849 -2.625,0 0,-35.849 2.625,0 z m -66.187,0 0,35.849 -2.625,0 0,-35.849 2.625,0 z m -66.188,0 0,35.849 -2.625,0 0,-35.849 2.625,0 z m -65.625,0 0,35.849 -2.625,0 0,-35.849 2.625,0 z m -66.188,0 0,35.849 -2.625,0 0,-35.849 2.625,0 z m -65.812,0 0,35.849 -2.625,0 0,-35.849 2.625,0 z m -66.562,0 0,35.849 -2.626,0 0,-35.849 2.626,0 z m -65.626,0 0,35.849 -2.625,0 0,-35.849 2.625,0 z m -66,0 0,35.849 -2.625,0 0,-35.849 2.625,0 z m -41.623,-0.375 2.625,0 0,36.224 -2.625,0 0,-36.224 z m -54.5627,-9 2.6251,0 0,45.224 -2.6251,0 0,-45.224 z m 2.6251,-89.21 0,51.897 -2.6251,0 0,-51.897 2.6251,0 z" transform="translate(-8.136,-410.72104)" id="borders" style="fill:#0275d8;stroke:none"></path>
  <path d="m 152.853,520.903 22.406,0 c 0.929,0 1.688,0.759 1.688,1.688 l 0,22.5 c 0,0.928 -0.759,1.688 -1.688,1.688 l -22.406,0 c -0.928,0 -1.688,-0.76 -1.688,-1.688 l 0,-22.5 c 0,-0.929 0.76,-1.688 1.688,-1.688 z" transform="translate(-8.136,-410.72104)" id="s54" style="fill:#dedfdf;stroke:none"></path>
  <path d="m 181.634,520.903 22.407,0 c 0.928,0 1.687,0.759 1.687,1.688 l 0,22.5 c 0,0.928 -0.759,1.688 -1.687,1.688 l -22.407,0 c -0.928,0 -1.687,-0.76 -1.687,-1.688 l 0,-22.5 c 0,-0.929 0.759,-1.688 1.687,-1.688 z" transform="translate(-8.136,-410.72104)" id="s53" style="fill:#dedfdf;stroke:none"></path>
  <path d="m 152.853,448.903 22.406,0 c 0.929,0 1.688,0.759 1.688,1.688 l 0,22.5 c 0,0.928 -0.759,1.688 -1.688,1.688 l -22.406,0 c -0.928,0 -1.688,-0.76 -1.688,-1.688 l 0,-22.5 c 0,-0.929 0.76,-1.688 1.688,-1.688 z" transform="translate(-8.136,-410.72104)" id="s1" style="fill:#dedfdf;stroke:none" number="1" type="seat"></path>
  <path d="m 181.634,448.903 22.407,0 c 0.928,0 1.687,0.759 1.687,1.688 l 0,22.5 c 0,0.928 -0.759,1.688 -1.687,1.688 l -22.407,0 c -0.928,0 -1.687,-0.76 -1.687,-1.688 l 0,-22.5 c 0,-0.929 0.759,-1.688 1.687,-1.688 z" transform="translate(-8.136,-410.72104)" id="s3" style="fill:#dedfdf;stroke:none" number="3" type="seat"></path>
  <path d="m 152.853,420.028 22.406,0 c 0.929,0 1.688,0.759 1.688,1.688 l 0,22.5 c 0,0.928 -0.759,1.687 -1.688,1.687 l -22.406,0 c -0.928,0 -1.688,-0.759 -1.688,-1.687 l 0,-22.5 c 0,-0.929 0.76,-1.688 1.688,-1.688 z" transform="translate(-8.136,-410.72104)" id="s2" style="fill:#dedfdf;stroke:none" number="2" type="seat"></path>
  <path d="m 181.634,420.028 22.407,0 c 0.928,0 1.687,0.759 1.687,1.688 l 0,22.5 c 0,0.928 -0.759,1.687 -1.687,1.687 l -22.407,0 c -0.928,0 -1.687,-0.759 -1.687,-1.687 l 0,-22.5 c 0,-0.929 0.759,-1.688 1.687,-1.688 z" transform="translate(-8.136,-410.72104)" id="s4" style="fill:#dedfdf;stroke:none" number="4" type="seat"></path>
  <path d="m 218.478,520.903 22.407,0 c 0.928,0 1.687,0.759 1.687,1.688 l 0,22.5 c 0,0.928 -0.759,1.688 -1.687,1.688 l -22.407,0 c -0.928,0 -1.687,-0.76 -1.687,-1.688 l 0,-22.5 c 0,-0.929 0.759,-1.688 1.687,-1.688 z" transform="translate(-8.136,-410.72104)" id="s52" style="fill:#dedfdf;stroke:none" number="52" type="seat" hover=""></path>
  <path d="m 247.259,520.903 22.407,0 c 0.928,0 1.687,0.759 1.687,1.688 l 0,22.5 c 0,0.928 -0.759,1.688 -1.687,1.688 l -22.407,0 c -0.928,0 -1.687,-0.76 -1.687,-1.688 l 0,-22.5 c 0,-0.929 0.759,-1.688 1.687,-1.688 z" transform="translate(-8.136,-410.72104)" id="s51" style="fill:#dedfdf;stroke:none" number="51" type="seat" hover=""></path>
  <path d="m 218.478,448.903 22.407,0 c 0.928,0 1.687,0.759 1.687,1.688 l 0,22.5 c 0,0.928 -0.759,1.688 -1.687,1.688 l -22.407,0 c -0.928,0 -1.687,-0.76 -1.687,-1.688 l 0,-22.5 c 0,-0.929 0.759,-1.688 1.687,-1.688 z" transform="translate(-8.136,-410.72104)" id="s5" style="fill:#dedfdf;stroke:none"></path>
  <path d="m 247.259,448.903 22.407,0 c 0.928,0 1.687,0.759 1.687,1.688 l 0,22.5 c 0,0.928 -0.759,1.688 -1.687,1.688 l -22.407,0 c -0.928,0 -1.687,-0.76 -1.687,-1.688 l 0,-22.5 c 0,-0.929 0.759,-1.688 1.687,-1.688 z" transform="translate(-8.136,-410.72104)" id="s7" style="fill:#dedfdf;stroke:none" number="7" type="seat"></path>
  <path d="m 218.478,420.028 22.407,0 c 0.928,0 1.687,0.759 1.687,1.688 l 0,22.5 c 0,0.928 -0.759,1.687 -1.687,1.687 l -22.407,0 c -0.928,0 -1.687,-0.759 -1.687,-1.687 l 0,-22.5 c 0,-0.929 0.759,-1.688 1.687,-1.688 z" transform="translate(-8.136,-410.72104)" id="s6" style="fill:#dedfdf;stroke:none" number="6" type="seat"></path>
  <path d="m 247.259,420.028 22.407,0 c 0.928,0 1.687,0.759 1.687,1.688 l 0,22.5 c 0,0.928 -0.759,1.687 -1.687,1.687 l -22.407,0 c -0.928,0 -1.687,-0.759 -1.687,-1.687 l 0,-22.5 c 0,-0.929 0.759,-1.688 1.687,-1.688 z" transform="translate(-8.136,-410.72104)" id="s8" style="fill:#dedfdf;stroke:none" number="8" type="seat"></path>
  <path d="m 284.245,520.903 22.406,0 c 0.928,0 1.688,0.759 1.688,1.688 l 0,22.5 c 0,0.928 -0.76,1.688 -1.688,1.688 l -22.406,0 c -0.929,0 -1.688,-0.76 -1.688,-1.688 l 0,-22.5 c 0,-0.929 0.759,-1.688 1.688,-1.688 z" transform="translate(-8.136,-410.72104)" id="s50" style="fill:#dedfdf;stroke:none" number="50" type="seat"></path>
  <path d="m 313.026,520.903 22.406,0 c 0.929,0 1.688,0.759 1.688,1.688 l 0,22.5 c 0,0.928 -0.759,1.688 -1.688,1.688 l -22.406,0 c -0.928,0 -1.687,-0.76 -1.687,-1.688 l 0,-22.5 c 0,-0.929 0.759,-1.688 1.687,-1.688 z" transform="translate(-8.136,-410.72104)" id="s49" style="fill:#dedfdf;stroke:none" number="49" type="seat"></path>
  <path d="m 284.245,448.903 22.406,0 c 0.928,0 1.688,0.759 1.688,1.688 l 0,22.5 c 0,0.928 -0.76,1.688 -1.688,1.688 l -22.406,0 c -0.929,0 -1.688,-0.76 -1.688,-1.688 l 0,-22.5 c 0,-0.929 0.759,-1.688 1.688,-1.688 z" transform="translate(-8.136,-410.72104)" id="s9" style="fill:#dedfdf;stroke:none" number="9" type="seat"></path>
  <path d="m 313.026,448.903 22.406,0 c 0.929,0 1.688,0.759 1.688,1.688 l 0,22.5 c 0,0.928 -0.759,1.688 -1.688,1.688 l -22.406,0 c -0.928,0 -1.687,-0.76 -1.687,-1.688 l 0,-22.5 c 0,-0.929 0.759,-1.688 1.687,-1.688 z" transform="translate(-8.136,-410.72104)" id="s11" style="fill:#dedfdf;stroke:none" number="11" type="seat" hover=""></path>
  <path d="m 284.245,420.028 22.406,0 c 0.928,0 1.688,0.759 1.688,1.688 l 0,22.5 c 0,0.928 -0.76,1.687 -1.688,1.687 l -22.406,0 c -0.929,0 -1.688,-0.759 -1.688,-1.687 l 0,-22.5 c 0,-0.929 0.759,-1.688 1.688,-1.688 z" transform="translate(-8.136,-410.72104)" id="s10" style="fill:#dedfdf;stroke:none" number="10" type="seat"></path>
  <path d="m 313.026,420.028 22.406,0 c 0.929,0 1.688,0.759 1.688,1.688 l 0,22.5 c 0,0.928 -0.759,1.687 -1.688,1.687 l -22.406,0 c -0.928,0 -1.687,-0.759 -1.687,-1.687 l 0,-22.5 c 0,-0.929 0.759,-1.688 1.687,-1.688 z" transform="translate(-8.136,-410.72104)" id="s12" style="fill:#dedfdf;stroke:none" number="12" type="seat"></path>
  <path d="m 351.01,520.903 22.407,0 c 0.928,0 1.687,0.759 1.687,1.688 l 0,22.5 c 0,0.928 -0.759,1.688 -1.687,1.688 l -22.407,0 c -0.928,0 -1.687,-0.76 -1.687,-1.688 l 0,-22.5 c 0,-0.929 0.759,-1.688 1.687,-1.688 z" transform="translate(-8.136,-410.72104)" id="s48" style="fill:#dedfdf;stroke:none" number="48" type="seat"></path>
  <path d="m 379.776,520.903 22.406,0 c 0.929,0 1.688,0.759 1.688,1.688 l 0,22.5 c 0,0.928 -0.759,1.688 -1.688,1.688 l -22.406,0 c -0.928,0 -1.688,-0.76 -1.688,-1.688 l 0,-22.5 c 0,-0.929 0.76,-1.688 1.688,-1.688 z" transform="translate(-8.136,-410.72104)" id="s47" style="fill:#dedfdf;stroke:none" number="47" type="seat"></path>
  <path d="m 350.995,448.903 22.406,0 c 0.928,0 1.688,0.759 1.688,1.688 l 0,22.5 c 0,0.928 -0.76,1.688 -1.688,1.688 l -22.406,0 c -0.929,0 -1.688,-0.76 -1.688,-1.688 l 0,-22.5 c 0,-0.929 0.759,-1.688 1.688,-1.688 z" transform="translate(-8.136,-410.72104)" id="s13" style="fill:#dedfdf;stroke:none" number="13" type="seat"></path>
  <path d="m 379.776,448.903 22.406,0 c 0.929,0 1.688,0.759 1.688,1.688 l 0,22.5 c 0,0.928 -0.759,1.688 -1.688,1.688 l -22.406,0 c -0.928,0 -1.688,-0.76 -1.688,-1.688 l 0,-22.5 c 0,-0.929 0.76,-1.688 1.688,-1.688 z" transform="translate(-8.136,-410.72104)" id="s15" style="fill:#dedfdf;stroke:none" number="15" type="seat"></path>
  <path d="m 350.995,420.028 22.406,0 c 0.928,0 1.688,0.759 1.688,1.688 l 0,22.5 c 0,0.928 -0.76,1.687 -1.688,1.687 l -22.406,0 c -0.929,0 -1.688,-0.759 -1.688,-1.687 l 0,-22.5 c 0,-0.929 0.759,-1.688 1.688,-1.688 z" transform="translate(-8.136,-410.72104)" id="s14" style="fill:#dedfdf;stroke:none" number="14" type="seat" hover=""></path>
  <path d="m 379.776,420.028 22.406,0 c 0.929,0 1.688,0.759 1.688,1.688 l 0,22.5 c 0,0.928 -0.759,1.687 -1.688,1.687 l -22.406,0 c -0.928,0 -1.688,-0.759 -1.688,-1.687 l 0,-22.5 c 0,-0.929 0.76,-1.688 1.688,-1.688 z" transform="translate(-8.136,-410.72104)" id="s16" style="fill:#dedfdf;stroke:none" number="16" type="seat"></path>
  <path d="m 416.62,520.903 22.406,0 c 0.929,0 1.688,0.759 1.688,1.688 l 0,22.5 c 0,0.928 -0.759,1.688 -1.688,1.688 l -22.406,0 c -0.929,0 -1.688,-0.76 -1.688,-1.688 l 0,-22.5 c 0,-0.929 0.759,-1.688 1.688,-1.688 z" transform="translate(-8.136,-410.72104)" id="s46" style="fill:#dedfdf;stroke:none" number="46" type="seat"></path>
  <path d="m 445.401,520.903 22.407,0 c 0.928,0 1.687,0.759 1.687,1.688 l 0,22.5 c 0,0.928 -0.759,1.688 -1.687,1.688 l -22.407,0 c -0.928,0 -1.687,-0.76 -1.687,-1.688 l 0,-22.5 c 0,-0.929 0.759,-1.688 1.687,-1.688 z" transform="translate(-8.136,-410.72104)" id="s45" style="fill:#dedfdf;stroke:none" number="45" type="seat"></path>
  <path d="m 416.62,448.903 22.406,0 c 0.929,0 1.688,0.759 1.688,1.688 l 0,22.5 c 0,0.928 -0.759,1.688 -1.688,1.688 l -22.406,0 c -0.929,0 -1.688,-0.76 -1.688,-1.688 l 0,-22.5 c 0,-0.929 0.759,-1.688 1.688,-1.688 z" transform="translate(-8.136,-410.72104)" id="s17" style="fill:#dedfdf;stroke:none"></path>
  <path d="m 445.401,448.903 22.407,0 c 0.928,0 1.687,0.759 1.687,1.688 l 0,22.5 c 0,0.928 -0.759,1.688 -1.687,1.688 l -22.407,0 c -0.928,0 -1.687,-0.76 -1.687,-1.688 l 0,-22.5 c 0,-0.929 0.759,-1.688 1.687,-1.688 z" transform="translate(-8.136,-410.72104)" id="s19" style="fill:#dedfdf;stroke:none" number="19" type="seat"></path>
  <path d="m 416.62,420.028 22.406,0 c 0.929,0 1.688,0.759 1.688,1.688 l 0,22.5 c 0,0.928 -0.759,1.687 -1.688,1.687 l -22.406,0 c -0.929,0 -1.688,-0.759 -1.688,-1.687 l 0,-22.5 c 0,-0.929 0.759,-1.688 1.688,-1.688 z" transform="translate(-8.136,-410.72104)" id="s18" style="fill:#dedfdf;stroke:none" number="18" type="seat"></path>
  <path d="m 445.401,420.028 22.407,0 c 0.928,0 1.687,0.759 1.687,1.688 l 0,22.5 c 0,0.928 -0.759,1.687 -1.687,1.687 l -22.407,0 c -0.928,0 -1.687,-0.759 -1.687,-1.687 l 0,-22.5 c 0,-0.929 0.759,-1.688 1.687,-1.688 z" transform="translate(-8.136,-410.72104)" id="s20" style="fill:#dedfdf;stroke:none" number="20" type="seat"></path>
  <path d="m 482.62,520.903 22.406,0 c 0.928,0 1.688,0.759 1.688,1.688 l 0,22.5 c 0,0.928 -0.76,1.688 -1.688,1.688 l -22.406,0 c -0.929,0 -1.688,-0.76 -1.688,-1.688 l 0,-22.5 c 0,-0.929 0.759,-1.688 1.688,-1.688 z" transform="translate(-8.136,-410.72104)" id="s44" style="fill:#dedfdf;stroke:none" number="44" type="seat"></path>
  <path d="m 511.401,520.903 22.406,0 c 0.929,0 1.688,0.759 1.688,1.688 l 0,22.5 c 0,0.928 -0.759,1.688 -1.688,1.688 l -22.406,0 c -0.928,0 -1.687,-0.76 -1.687,-1.688 l 0,-22.5 c 0,-0.929 0.759,-1.688 1.687,-1.688 z" transform="translate(-8.136,-410.72104)" id="s43" style="fill:#dedfdf;stroke:none" number="43" type="seat"></path>
  <path d="m 482.62,448.903 22.406,0 c 0.928,0 1.688,0.759 1.688,1.688 l 0,22.5 c 0,0.928 -0.76,1.688 -1.688,1.688 l -22.406,0 c -0.929,0 -1.688,-0.76 -1.688,-1.688 l 0,-22.5 c 0,-0.929 0.759,-1.688 1.688,-1.688 z" transform="translate(-8.136,-410.72104)" id="s21" style="fill:#dedfdf;stroke:none" number="21" type="seat"></path>
  <path d="m 511.401,448.903 22.406,0 c 0.929,0 1.688,0.759 1.688,1.688 l 0,22.5 c 0,0.928 -0.759,1.688 -1.688,1.688 l -22.406,0 c -0.928,0 -1.687,-0.76 -1.687,-1.688 l 0,-22.5 c 0,-0.929 0.759,-1.688 1.687,-1.688 z" transform="translate(-8.136,-410.72104)" id="s23" style="fill:#dedfdf;stroke:none" number="23" type="seat"></path>
  <path d="m 482.62,420.028 22.406,0 c 0.928,0 1.688,0.759 1.688,1.688 l 0,22.5 c 0,0.928 -0.76,1.687 -1.688,1.687 l -22.406,0 c -0.929,0 -1.688,-0.759 -1.688,-1.687 l 0,-22.5 c 0,-0.929 0.759,-1.688 1.688,-1.688 z" transform="translate(-8.136,-410.72104)" id="s22" style="fill:#dedfdf;stroke:none" number="22" type="seat"></path>
  <path d="m 511.401,420.028 22.406,0 c 0.929,0 1.688,0.759 1.688,1.688 l 0,22.5 c 0,0.928 -0.759,1.687 -1.688,1.687 l -22.406,0 c -0.928,0 -1.687,-0.759 -1.687,-1.687 l 0,-22.5 c 0,-0.929 0.759,-1.688 1.687,-1.688 z" transform="translate(-8.136,-410.72104)" id="s24" style="fill:#dedfdf;stroke:none" number="24" type="seat"></path>
  <path d="m 548.62,520.903 22.406,0 c 0.928,0 1.688,0.759 1.688,1.688 l 0,22.5 c 0,0.928 -0.76,1.688 -1.688,1.688 l -22.406,0 c -0.929,0 -1.688,-0.76 -1.688,-1.688 l 0,-22.5 c 0,-0.929 0.759,-1.688 1.688,-1.688 z" transform="translate(-8.136,-410.72104)" id="s42" style="fill:#dedfdf;stroke:none" number="42" type="seat"></path>
  <path d="m 577.401,520.903 22.406,0 c 0.929,0 1.688,0.759 1.688,1.688 l 0,22.5 c 0,0.928 -0.759,1.688 -1.688,1.688 l -22.406,0 c -0.928,0 -1.688,-0.76 -1.688,-1.688 l 0,-22.5 c 0,-0.929 0.76,-1.688 1.688,-1.688 z" transform="translate(-8.136,-410.72104)" id="s41" style="fill:#dedfdf;stroke:none" number="41" type="seat"></path>
  <path d="m 548.62,448.903 22.406,0 c 0.928,0 1.688,0.759 1.688,1.688 l 0,22.5 c 0,0.928 -0.76,1.688 -1.688,1.688 l -22.406,0 c -0.929,0 -1.688,-0.76 -1.688,-1.688 l 0,-22.5 c 0,-0.929 0.759,-1.688 1.688,-1.688 z" transform="translate(-8.136,-410.72104)" id="s25" style="fill:#dedfdf;stroke:none"></path>
  <path d="m 577.401,448.903 22.406,0 c 0.929,0 1.688,0.759 1.688,1.688 l 0,22.5 c 0,0.928 -0.759,1.688 -1.688,1.688 l -22.406,0 c -0.928,0 -1.688,-0.76 -1.688,-1.688 l 0,-22.5 c 0,-0.929 0.76,-1.688 1.688,-1.688 z" transform="translate(-8.136,-410.72104)" id="s27" style="fill:#dedfdf;stroke:none" number="27" type="seat"></path>
  <path d="m 548.62,420.028 22.406,0 c 0.928,0 1.688,0.759 1.688,1.688 l 0,22.5 c 0,0.928 -0.76,1.687 -1.688,1.687 l -22.406,0 c -0.929,0 -1.688,-0.759 -1.688,-1.687 l 0,-22.5 c 0,-0.929 0.759,-1.688 1.688,-1.688 z" transform="translate(-8.136,-410.72104)" id="s26" style="fill:#dedfdf;stroke:none" number="26" type="seat"></path>
  <path d="m 577.401,420.028 22.406,0 c 0.929,0 1.688,0.759 1.688,1.688 l 0,22.5 c 0,0.928 -0.759,1.687 -1.688,1.687 l -22.406,0 c -0.928,0 -1.688,-0.759 -1.688,-1.687 l 0,-22.5 c 0,-0.929 0.76,-1.688 1.688,-1.688 z" transform="translate(-8.136,-410.72104)" id="s28" style="fill:#dedfdf;stroke:none" number="28" type="seat"></path>
  <path d="m 614.62,520.903 22.406,0 c 0.928,0 1.687,0.759 1.687,1.688 l 0,22.5 c 0,0.928 -0.759,1.688 -1.687,1.688 l -22.406,0 c -0.929,0 -1.688,-0.76 -1.688,-1.688 l 0,-22.5 c 0,-0.929 0.759,-1.688 1.688,-1.688 z" transform="translate(-8.136,-410.72104)" id="s40" style="fill:#dedfdf;stroke:none" number="40" type="seat"></path>
  <path d="m 643.401,520.903 22.406,0 c 0.929,0 1.688,0.759 1.688,1.688 l 0,22.5 c 0,0.928 -0.759,1.688 -1.688,1.688 l -22.406,0 c -0.929,0 -1.688,-0.76 -1.688,-1.688 l 0,-22.5 c 0,-0.929 0.759,-1.688 1.688,-1.688 z" transform="translate(-8.136,-410.72104)" id="s39" style="fill:#dedfdf;stroke:none" number="39" type="seat"></path>
  <path d="m 614.62,448.903 22.406,0 c 0.928,0 1.687,0.759 1.687,1.688 l 0,22.5 c 0,0.928 -0.759,1.688 -1.687,1.688 l -22.406,0 c -0.929,0 -1.688,-0.76 -1.688,-1.688 l 0,-22.5 c 0,-0.929 0.759,-1.688 1.688,-1.688 z" transform="translate(-8.136,-410.72104)" id="s29" style="fill:#dedfdf;stroke:none" number="29" type="seat"></path>
  <path d="m 643.401,448.903 22.406,0 c 0.929,0 1.688,0.759 1.688,1.688 l 0,22.5 c 0,0.928 -0.759,1.688 -1.688,1.688 l -22.406,0 c -0.929,0 -1.688,-0.76 -1.688,-1.688 l 0,-22.5 c 0,-0.929 0.759,-1.688 1.688,-1.688 z" transform="translate(-8.136,-410.72104)" id="s31" style="fill:#dedfdf;stroke:none" number="31" type="seat"></path>
  <path d="m 614.62,420.028 22.406,0 c 0.928,0 1.687,0.759 1.687,1.688 l 0,22.5 c 0,0.928 -0.759,1.687 -1.687,1.687 l -22.406,0 c -0.929,0 -1.688,-0.759 -1.688,-1.687 l 0,-22.5 c 0,-0.929 0.759,-1.688 1.688,-1.688 z" transform="translate(-8.136,-410.72104)" id="s30" style="fill:#dedfdf;stroke:none" number="30" type="seat"></path>
  <path d="m 643.401,420.028 22.406,0 c 0.929,0 1.688,0.759 1.688,1.688 l 0,22.5 c 0,0.928 -0.759,1.687 -1.688,1.687 l -22.406,0 c -0.929,0 -1.688,-0.759 -1.688,-1.687 l 0,-22.5 c 0,-0.929 0.759,-1.688 1.688,-1.688 z" transform="translate(-8.136,-410.72104)" id="s32" style="fill:#dedfdf;stroke:none" number="32" type="seat"></path>
  <path d="m 680.619,520.903 22.407,0 c 0.928,0 1.687,0.759 1.687,1.688 l 0,22.5 c 0,0.928 -0.759,1.688 -1.687,1.688 l -22.407,0 c -0.928,0 -1.687,-0.76 -1.687,-1.688 l 0,-22.5 c 0,-0.929 0.759,-1.688 1.687,-1.688 z" transform="translate(-8.136,-410.72104)" id="s38" style="fill:#dedfdf;stroke:none" number="38" type="seat"></path>
  <path d="m 709.401,520.903 22.406,0 c 0.928,0 1.688,0.759 1.688,1.688 l 0,22.5 c 0,0.928 -0.76,1.688 -1.688,1.688 l -22.406,0 c -0.929,0 -1.688,-0.76 -1.688,-1.688 l 0,-22.5 c 0,-0.929 0.759,-1.688 1.688,-1.688 z" transform="translate(-8.136,-410.72104)" id="s37" style="fill:#dedfdf;stroke:none" number="37" type="seat"></path>
  <path d="m 680.619,448.903 22.407,0 c 0.928,0 1.687,0.759 1.687,1.688 l 0,22.5 c 0,0.928 -0.759,1.688 -1.687,1.688 l -22.407,0 c -0.928,0 -1.687,-0.76 -1.687,-1.688 l 0,-22.5 c 0,-0.929 0.759,-1.688 1.687,-1.688 z" transform="translate(-8.136,-410.72104)" id="s33" style="fill:#dedfdf;stroke:none" number="33" type="seat"></path>
  <path d="m 709.401,448.903 22.406,0 c 0.928,0 1.688,0.759 1.688,1.688 l 0,22.5 c 0,0.928 -0.76,1.688 -1.688,1.688 l -22.406,0 c -0.929,0 -1.688,-0.76 -1.688,-1.688 l 0,-22.5 c 0,-0.929 0.759,-1.688 1.688,-1.688 z" transform="translate(-8.136,-410.72104)" id="s35" style="fill:#dedfdf;stroke:none" number="35" type="seat"></path>
  <path d="m 680.619,420.028 22.407,0 c 0.928,0 1.687,0.759 1.687,1.688 l 0,22.5 c 0,0.928 -0.759,1.687 -1.687,1.687 l -22.407,0 c -0.928,0 -1.687,-0.759 -1.687,-1.687 l 0,-22.5 c 0,-0.929 0.759,-1.688 1.687,-1.688 z" transform="translate(-8.136,-410.72104)" id="s34" style="fill:#dedfdf;stroke:none" number="34" type="seat"></path>
  <path d="m 709.401,420.028 22.406,0 c 0.928,0 1.688,0.759 1.688,1.688 l 0,22.5 c 0,0.928 -0.76,1.687 -1.688,1.687 l -22.406,0 c -0.929,0 -1.688,-0.759 -1.688,-1.687 l 0,-22.5 c 0,-0.929 0.759,-1.688 1.688,-1.688 z" transform="translate(-8.136,-410.72104)" id="s36" style="fill:#dedfdf;stroke:none" number="36" type="seat"></path>
  <path d="m 63.1352,422.933 17.8124,0 0,8.813 -17.8124,0 0,-8.813 z m 0,11.063 17.8124,0 0,10.246 c 0,4.677 -3.8268,8.504 -8.504,8.504 l -0.8044,0 c -4.6772,0 -8.504,-3.827 -8.504,-8.504 l 0,-10.246 z m 4.3654,4.365 0,5.881 c 0,2.268 1.8708,4.139 4.1386,4.139 l 0.8044,0 c 2.2677,0 4.1386,-1.871 4.1386,-4.139 l 0,-5.881 -9.0816,0 z" transform="translate(-8.136,-410.72104)" id="wc1" style="fill:#c2c5cc;stroke:none"></path>
  <path d="m 752.667,422.933 17.813,0 0,8.813 -17.813,0 0,-8.813 z m 0,11.063 17.813,0 0,10.246 c 0,4.677 -3.827,8.504 -8.504,8.504 l -0.805,0 c -4.677,0 -8.504,-3.827 -8.504,-8.504 l 0,-10.246 z m 4.366,4.365 0,5.881 c 0,2.268 1.871,4.139 4.138,4.139 l 0.805,0 c 2.267,0 4.138,-1.871 4.138,-4.139 l 0,-5.881 -9.081,0 z" transform="translate(-8.136,-410.72104)" id="wc2" style="fill:#c2c5cc;stroke:none"></path>
  <path d="m 155.947,423.59 16.032,0 0,1.688 -16.032,0 0,-1.688 z" transform="translate(-8.136,-410.72104)" id="p2" style="fill:#b1b4b6;stroke:none" number="2" type="shelve"></path>
  <path d="m 184.869,423.59 16.031,0 0,1.688 -16.031,0 0,-1.688 z" transform="translate(-8.136,-410.72104)" id="p4" style="fill:#b1b4b6;stroke:none" number="4" type="shelve"></path>
  <path d="m 155.947,468.965 16.032,0 0,1.688 -16.032,0 0,-1.688 z" transform="translate(-8.136,-410.72104)" id="p1" style="fill:#b1b4b6;stroke:none" number="1" type="shelve"></path>
  <path d="m 184.869,468.965 16.031,0 0,1.688 -16.031,0 0,-1.688 z" transform="translate(-8.136,-410.72104)" id="p3" style="fill:#b1b4b6;stroke:none" number="3" type="shelve"></path>
  <path d="m 155.947,524.278 16.032,0 0,1.687 -16.032,0 0,-1.687 z" transform="translate(-8.136,-410.72104)" id="p54" style="fill:#b1b4b6;stroke:none"></path>
  <path d="m 184.869,541.34 16.031,0 0,1.688 -16.031,0 0,-1.688 z" transform="translate(-8.136,-410.72104)" id="p53" style="fill:#b1b4b6;stroke:none"></path>
  <path d="m 221.947,423.59 16.032,0 0,1.688 -16.032,0 0,-1.688 z" transform="translate(-8.136,-410.72104)" id="p6" style="fill:#b1b4b6;stroke:none" number="6" type="shelve"></path>
  <path d="m 250.869,423.59 16.032,0 0,1.688 -16.032,0 0,-1.688 z" transform="translate(-8.136,-410.72104)" id="p8" style="fill:#b1b4b6;stroke:none" number="8" type="shelve"></path>
  <path d="m 221.947,468.965 16.032,0 0,1.688 -16.032,0 0,-1.688 z" transform="translate(-8.136,-410.72104)" id="p5" style="fill:#b1b4b6;stroke:none"></path>
  <path d="m 250.869,468.965 16.032,0 0,1.688 -16.032,0 0,-1.688 z" transform="translate(-8.136,-410.72104)" id="p7" style="fill:#b1b4b6;stroke:none" number="7" type="shelve"></path>
  <path d="m 221.947,524.278 16.032,0 0,1.687 -16.032,0 0,-1.687 z" transform="translate(-8.136,-410.72104)" id="p52" style="fill:#b1b4b6;stroke:none" number="52" type="shelve" hover=""></path>
  <path d="m 250.869,541.34 16.032,0 0,1.688 -16.032,0 0,-1.688 z" transform="translate(-8.136,-410.72104)" id="p51" style="fill:#b1b4b6;stroke:none" number="51" type="shelve" hover=""></path>
  <path d="m 287.289,423.59 16.031,0 0,1.688 -16.031,0 0,-1.688 z" transform="translate(-8.136,-410.72104)" id="p10" style="fill:#b1b4b6;stroke:none" number="10" type="shelve"></path>
  <path d="m 316.211,423.59 16.031,0 0,1.688 -16.031,0 0,-1.688 z" transform="translate(-8.136,-410.72104)" id="p12" style="fill:#b1b4b6;stroke:none" number="12" type="shelve"></path>
  <path d="m 287.289,468.965 16.031,0 0,1.688 -16.031,0 0,-1.688 z" transform="translate(-8.136,-410.72104)" id="p9" style="fill:#b1b4b6;stroke:none" number="9" type="shelve"></path>
  <path d="m 316.211,468.965 16.031,0 0,1.688 -16.031,0 0,-1.688 z" transform="translate(-8.136,-410.72104)" id="p11" style="fill:#b1b4b6;stroke:none" number="11" type="shelve" hover=""></path>
  <path d="m 287.289,524.278 16.031,0 0,1.687 -16.031,0 0,-1.687 z" transform="translate(-8.136,-410.72104)" id="p50" style="fill:#b1b4b6;stroke:none" number="50" type="shelve"></path>
  <path d="m 316.211,541.34 16.031,0 0,1.688 -16.031,0 0,-1.688 z" transform="translate(-8.136,-410.72104)" id="p49" style="fill:#b1b4b6;stroke:none" number="49" type="shelve"></path>
  <path d="m 354.186,423.59 16.032,0 0,1.688 -16.032,0 0,-1.688 z" transform="translate(-8.136,-410.72104)" id="p14" style="fill:#b1b4b6;stroke:none" number="14" type="shelve" hover=""></path>
  <path d="m 383.108,423.59 16.032,0 0,1.688 -16.032,0 0,-1.688 z" transform="translate(-8.136,-410.72104)" id="p16" style="fill:#b1b4b6;stroke:none" number="16" type="shelve"></path>
  <path d="m 354.186,468.965 16.032,0 0,1.688 -16.032,0 0,-1.688 z" transform="translate(-8.136,-410.72104)" id="p13" style="fill:#b1b4b6;stroke:none" number="13" type="shelve"></path>
  <path d="m 383.108,468.965 16.032,0 0,1.688 -16.032,0 0,-1.688 z" transform="translate(-8.136,-410.72104)" id="p15" style="fill:#b1b4b6;stroke:none" number="15" type="shelve"></path>
  <path d="m 354.186,524.278 16.032,0 0,1.687 -16.032,0 0,-1.687 z" transform="translate(-8.136,-410.72104)" id="p48" style="fill:#b1b4b6;stroke:none" number="48" type="shelve"></path>
  <path d="m 383.108,541.34 16.032,0 0,1.688 -16.032,0 0,-1.688 z" transform="translate(-8.136,-410.72104)" id="p47" style="fill:#b1b4b6;stroke:none" number="47" type="shelve"></path>
  <path d="m 419.667,423.59 16.031,0 0,1.688 -16.031,0 0,-1.688 z" transform="translate(-8.136,-410.72104)" id="p18" style="fill:#b1b4b6;stroke:none" number="18" type="shelve"></path>
  <path d="m 448.589,423.59 16.031,0 0,1.688 -16.031,0 0,-1.688 z" transform="translate(-8.136,-410.72104)" id="p20" style="fill:#b1b4b6;stroke:none" number="20" type="shelve"></path>
  <path d="m 419.667,468.965 16.031,0 0,1.688 -16.031,0 0,-1.688 z" transform="translate(-8.136,-410.72104)" id="p17" style="fill:#b1b4b6;stroke:none"></path>
  <path d="m 448.589,468.965 16.031,0 0,1.688 -16.031,0 0,-1.688 z" transform="translate(-8.136,-410.72104)" id="p19" style="fill:#b1b4b6;stroke:none" number="19" type="shelve"></path>
  <path d="m 419.667,524.278 16.031,0 0,1.687 -16.031,0 0,-1.687 z" transform="translate(-8.136,-410.72104)" id="p46" style="fill:#b1b4b6;stroke:none" number="46" type="shelve"></path>
  <path d="m 448.589,541.34 16.031,0 0,1.688 -16.031,0 0,-1.688 z" transform="translate(-8.136,-410.72104)" id="p45" style="fill:#b1b4b6;stroke:none" number="45" type="shelve"></path>
  <path d="m 485.431,423.59 16.031,0 0,1.688 -16.031,0 0,-1.688 z" transform="translate(-8.136,-410.72104)" id="p22" style="fill:#b1b4b6;stroke:none" number="22" type="shelve"></path>
  <path d="m 514.352,423.59 16.032,0 0,1.688 -16.032,0 0,-1.688 z" transform="translate(-8.136,-410.72104)" id="p24" style="fill:#b1b4b6;stroke:none" number="24" type="shelve"></path>
  <path d="m 485.431,468.965 16.031,0 0,1.688 -16.031,0 0,-1.688 z" transform="translate(-8.136,-410.72104)" id="p21" style="fill:#b1b4b6;stroke:none" number="21" type="shelve"></path>
  <path d="m 514.352,468.965 16.032,0 0,1.688 -16.032,0 0,-1.688 z" transform="translate(-8.136,-410.72104)" id="p23" style="fill:#b1b4b6;stroke:none" number="23" type="shelve"></path>
  <path d="m 485.431,524.278 16.031,0 0,1.687 -16.031,0 0,-1.687 z" transform="translate(-8.136,-410.72104)" id="p44" style="fill:#b1b4b6;stroke:none" number="44" type="shelve"></path>
  <path d="m 514.352,541.34 16.032,0 0,1.688 -16.032,0 0,-1.688 z" transform="translate(-8.136,-410.72104)" id="p43" style="fill:#b1b4b6;stroke:none" number="43" type="shelve"></path>
  <path d="m 551.761,423.59 16.032,0 0,1.688 -16.032,0 0,-1.688 z" transform="translate(-8.136,-410.72104)" id="p26" style="fill:#b1b4b6;stroke:none" number="26" type="shelve"></path>
  <path d="m 580.683,423.59 16.031,0 0,1.688 -16.031,0 0,-1.688 z" transform="translate(-8.136,-410.72104)" id="p28" style="fill:#b1b4b6;stroke:none" number="28" type="shelve"></path>
  <path d="m 551.761,468.965 16.032,0 0,1.688 -16.032,0 0,-1.688 z" transform="translate(-8.136,-410.72104)" id="p25" style="fill:#b1b4b6;stroke:none"></path>
  <path d="m 580.683,468.965 16.031,0 0,1.688 -16.031,0 0,-1.688 z" transform="translate(-8.136,-410.72104)" id="p27" style="fill:#b1b4b6;stroke:none" number="27" type="shelve"></path>
  <path d="m 551.761,524.278 16.032,0 0,1.687 -16.032,0 0,-1.687 z" transform="translate(-8.136,-410.72104)" id="p42" style="fill:#b1b4b6;stroke:none" number="42" type="shelve"></path>
  <path d="m 580.683,541.34 16.031,0 0,1.688 -16.031,0 0,-1.688 z" transform="translate(-8.136,-410.72104)" id="p41" style="fill:#b1b4b6;stroke:none" number="41" type="shelve"></path>
  <path d="m 617.808,423.59 16.032,0 0,1.688 -16.032,0 0,-1.688 z" transform="translate(-8.136,-410.72104)" id="p30" style="fill:#b1b4b6;stroke:none" number="30" type="shelve"></path>
  <path d="m 646.73,423.59 16.032,0 0,1.688 -16.032,0 0,-1.688 z" transform="translate(-8.136,-410.72104)" id="p32" style="fill:#b1b4b6;stroke:none" number="32" type="shelve"></path>
  <path d="m 617.808,468.965 16.032,0 0,1.688 -16.032,0 0,-1.688 z" transform="translate(-8.136,-410.72104)" id="p29" style="fill:#b1b4b6;stroke:none" number="29" type="shelve"></path>
  <path d="m 646.73,468.965 16.032,0 0,1.688 -16.032,0 0,-1.688 z" transform="translate(-8.136,-410.72104)" id="p31" style="fill:#b1b4b6;stroke:none" number="31" type="shelve"></path>
  <path d="m 617.808,524.278 16.032,0 0,1.687 -16.032,0 0,-1.687 z" transform="translate(-8.136,-410.72104)" id="p40" style="fill:#b1b4b6;stroke:none" number="40" type="shelve"></path>
  <path d="m 646.73,541.34 16.032,0 0,1.688 -16.032,0 0,-1.688 z" transform="translate(-8.136,-410.72104)" id="p39" style="fill:#b1b4b6;stroke:none" number="39" type="shelve"></path>
  <path d="m 683.856,423.59 16.031,0 0,1.688 -16.031,0 0,-1.688 z" transform="translate(-8.136,-410.72104)" id="p34" style="fill:#b1b4b6;stroke:none" number="34" type="shelve"></path>
  <path d="m 712.778,423.59 16.031,0 0,1.688 -16.031,0 0,-1.688 z" transform="translate(-8.136,-410.72104)" id="p36" style="fill:#b1b4b6;stroke:none" number="36" type="shelve"></path>
  <path d="m 683.856,468.965 16.031,0 0,1.688 -16.031,0 0,-1.688 z" transform="translate(-8.136,-410.72104)" id="p33" style="fill:#b1b4b6;stroke:none" number="33" type="shelve"></path>
  <path d="m 712.778,468.965 16.031,0 0,1.688 -16.031,0 0,-1.688 z" transform="translate(-8.136,-410.72104)" id="p35" style="fill:#b1b4b6;stroke:none" number="35" type="shelve"></path>
  <path d="m 683.856,524.278 16.031,0 0,1.687 -16.031,0 0,-1.687 z" transform="translate(-8.136,-410.72104)" id="p38" style="fill:#b1b4b6;stroke:none" number="38" type="shelve"></path>
  <path d="m 712.778,541.34 16.031,0 0,1.688 -16.031,0 0,-1.688 z" transform="translate(-8.136,-410.72104)" id="p37" style="fill:#b1b4b6;stroke:none" number="37" type="shelve"></path>
  <path d="m 191.701,528.641 -5.728,0 -0.671,5.456 c 0.415,-0.064 0.815,-0.096 1.391,-0.096 2.081,0 2.929,0.656 2.929,1.728 0,1.104 -1.072,1.584 -2.08,1.584 -0.944,0 -1.888,-0.288 -2.336,-0.512 l -0.448,1.824 c 0.576,0.304 1.632,0.592 2.896,0.592 2.8,0 4.464,-1.712 4.464,-3.648 0,-1.216 -0.48,-2.08 -1.264,-2.608 -0.72,-0.528 -1.745,-0.752 -2.736,-0.752 -0.256,0 -0.449,0 -0.673,0.032 l 0.224,-1.6 4.032,0 0,-2 z m 1.872,9.856 c 0.608,0.368 1.744,0.72 3.088,0.72 2.64,0 4.256,-1.344 4.256,-3.168 0,-1.376 -1.008,-2.32 -2.256,-2.544 l 0,-0.032 c 1.28,-0.432 1.904,-1.312 1.904,-2.416 0,-1.424 -1.232,-2.592 -3.44,-2.592 -1.36,0 -2.591,0.384 -3.216,0.784 l 0.496,1.76 c 0.417,-0.256 1.312,-0.624 2.16,-0.624 1.04,0 1.536,0.464 1.536,1.088 0,0.88 -1.024,1.2 -1.84,1.2 l -0.96,0 0,1.744 0.992,0 c 1.072,0 2.096,0.464 2.096,1.504 0,0.768 -0.64,1.376 -1.904,1.376 -0.992,0 -1.984,-0.4 -2.416,-0.64 l -0.496,1.84 z" transform="translate(-8.136,-410.72104)" id="n53" style="fill:#ffffff;stroke:none"></path>
  <path d="m 162.64,528.553 -5.728,0 -0.672,5.456 c 0.416,-0.064 0.816,-0.096 1.392,-0.096 2.08,0 2.928,0.656 2.928,1.728 0,1.104 -1.072,1.584 -2.08,1.584 -0.944,0 -1.888,-0.288 -2.336,-0.512 l -0.448,1.824 c 0.576,0.304 1.632,0.592 2.896,0.592 2.8,0 4.464,-1.712 4.464,-3.648 0,-1.216 -0.48,-2.08 -1.264,-2.608 -0.72,-0.528 -1.744,-0.752 -2.736,-0.752 -0.256,0 -0.448,0 -0.672,0.032 l 0.224,-1.6 4.032,0 0,-2 z m 8.544,10.4 0,-2.48 1.232,0 0,-1.824 -1.232,0 0,-6.096 -2.992,0 -3.92,6.336 0,1.584 4.608,0 0,2.48 2.304,0 z m -4.656,-4.304 0.016,-0.032 1.376,-2.272 c 0.352,-0.656 0.64,-1.264 0.976,-1.936 l 0.048,0 c -0.032,0.672 -0.064,1.312 -0.064,1.936 l 0,2.304 -2.352,0 z" transform="translate(-8.136,-410.72104)" id="n54" style="fill:#ffffff;stroke:none"></path>
  <path d="m 228.489,528.641 -5.728,0 -0.672,5.456 c 0.416,-0.064 0.816,-0.096 1.392,-0.096 2.08,0 2.928,0.656 2.928,1.728 0,1.104 -1.072,1.584 -2.08,1.584 -0.944,0 -1.888,-0.288 -2.336,-0.512 l -0.448,1.824 c 0.576,0.304 1.632,0.592 2.896,0.592 2.8,0 4.464,-1.712 4.464,-3.648 0,-1.216 -0.48,-2.08 -1.264,-2.608 -0.72,-0.528 -1.744,-0.752 -2.736,-0.752 -0.256,0 -0.448,0 -0.672,0.032 l 0.224,-1.6 4.032,0 0,-2 z m 9.328,10.4 0,-2 -3.936,0 0,-0.032 0.96,-0.8 c 1.52,-1.344 2.768,-2.736 2.768,-4.496 0,-1.872 -1.28,-3.248 -3.648,-3.248 -1.392,0 -2.624,0.48 -3.392,1.072 l 0.688,1.728 c 0.544,-0.4 1.328,-0.848 2.224,-0.848 1.2,0 1.696,0.672 1.696,1.52 -0.016,1.216 -1.12,2.384 -3.408,4.432 l -1.328,1.2 0,1.472 7.376,0 z" transform="translate(-8.136,-410.72104)" id="n52" style="fill:#ffffff;stroke:none" number="52" type="number" hover=""></path>
  <path d="m 258.238,528.553 -5.727,0 -0.672,5.456 c 0.416,-0.064 0.816,-0.096 1.392,-0.096 2.08,0 2.928,0.656 2.928,1.728 0,1.104 -1.072,1.584 -2.08,1.584 -0.944,0 -1.888,-0.288 -2.336,-0.512 l -0.448,1.824 c 0.576,0.304 1.632,0.592 2.896,0.592 2.8,0 4.464,-1.712 4.464,-3.648 0,-1.216 -0.48,-2.08 -1.264,-2.608 -0.72,-0.528 -1.745,-0.752 -2.736,-0.752 -0.256,0 -0.449,0 -0.672,0.032 l 0.223,-1.6 4.032,0 0,-2 z m 5.041,10.4 2.351,0 0,-10.4 -1.999,0 -2.768,1.28 0.399,1.824 1.984,-0.944 0.033,0 0,8.24 z" transform="translate(-8.136,-410.72104)" id="n51" style="fill:#ffffff;stroke:none" number="51" type="number" hover=""></path>
  <path d="m 294.112,528.641 -5.728,0 -0.672,5.456 c 0.416,-0.064 0.816,-0.096 1.392,-0.096 2.08,0 2.928,0.656 2.928,1.728 0,1.104 -1.072,1.584 -2.08,1.584 -0.944,0 -1.888,-0.288 -2.336,-0.512 l -0.448,1.824 c 0.576,0.304 1.632,0.592 2.896,0.592 2.8,0 4.464,-1.712 4.464,-3.648 0,-1.216 -0.48,-2.08 -1.264,-2.608 -0.72,-0.528 -1.744,-0.752 -2.736,-0.752 -0.256,0 -0.448,0 -0.672,0.032 l 0.224,-1.6 4.032,0 0,-2 z m 5.744,-0.176 c -2.688,0 -3.952,2.368 -3.952,5.392 0.016,2.944 1.2,5.36 3.888,5.36 2.64,0 3.936,-2.224 3.936,-5.424 0,-2.848 -1.104,-5.328 -3.872,-5.328 z m -0.032,1.84 c 0.976,0 1.472,1.216 1.472,3.52 0,2.368 -0.512,3.552 -1.456,3.552 -0.928,0 -1.504,-1.136 -1.504,-3.52 0,-2.432 0.608,-3.552 1.488,-3.552 z" transform="translate(-8.136,-410.72104)" id="n50" style="fill:#ffffff;stroke:none" number="50" type="number"></path>
  <path d="m 322.717,539.041 0,-2.48 1.232,0 0,-1.824 -1.232,0 0,-6.096 -2.992,0 -3.92,6.336 0,1.584 4.608,0 0,2.48 2.304,0 z m -4.656,-4.304 0.016,-0.032 1.376,-2.272 c 0.352,-0.656 0.64,-1.264 0.976,-1.936 l 0.048,0 c -0.032,0.672 -0.064,1.312 -0.064,1.936 l 0,2.304 -2.352,0 z m 7.68,4.448 c 0.272,0.016 0.704,0.032 1.104,0 1.616,-0.064 2.992,-0.544 3.984,-1.44 1.136,-1.056 1.824,-2.624 1.824,-4.8 0,-2.432 -1.264,-4.48 -3.936,-4.48 -2.288,0 -3.92,1.712 -3.92,3.744 0,2.032 1.472,3.248 3.232,3.248 0.944,0 1.632,-0.272 2.096,-0.752 l 0.032,0.016 c -0.176,0.784 -0.624,1.472 -1.312,1.936 -0.544,0.384 -1.296,0.592 -2.048,0.64 -0.48,0.016 -0.736,0.032 -1.056,0 l 0,1.888 z m 2.88,-8.944 c 1.136,0 1.552,1.088 1.536,2.192 0,0.304 -0.032,0.464 -0.112,0.624 -0.224,0.368 -0.688,0.672 -1.36,0.672 -0.976,0 -1.472,-0.768 -1.472,-1.664 0,-1.088 0.592,-1.824 1.408,-1.824 z" transform="translate(-8.136,-410.72104)" id="n49" style="fill:#ffffff;stroke:none" number="49" type="number"></path>
  <path d="m 360.686,539.041 0,-2.48 1.232,0 0,-1.824 -1.232,0 0,-6.096 -2.992,0 -3.92,6.336 0,1.584 4.608,0 0,2.48 2.304,0 z m -4.656,-4.304 0.016,-0.032 1.376,-2.272 c 0.352,-0.656 0.64,-1.264 0.976,-1.936 l 0.048,0 c -0.032,0.672 -0.064,1.312 -0.064,1.936 l 0,2.304 -2.352,0 z m 8.624,-1.024 c -1.136,0.496 -1.856,1.36 -1.856,2.608 0,1.408 1.216,2.896 3.856,2.896 2.416,0 4,-1.28 4,-3.168 0,-1.328 -0.896,-2.192 -1.92,-2.576 l 0,-0.048 c 1.04,-0.512 1.52,-1.392 1.52,-2.288 0,-1.264 -1.008,-2.672 -3.44,-2.672 -2.08,0 -3.664,1.168 -3.664,2.928 0,0.912 0.496,1.76 1.504,2.288 l 0,0.032 z m 2.096,3.824 c -0.912,0 -1.488,-0.704 -1.472,-1.456 0,-0.752 0.464,-1.328 1.264,-1.552 0.944,0.256 1.632,0.8 1.632,1.712 0,0.736 -0.576,1.296 -1.424,1.296 z m -0.048,-7.424 c 0.896,0 1.264,0.64 1.264,1.296 0,0.64 -0.496,1.152 -1.056,1.312 -0.832,-0.256 -1.456,-0.704 -1.456,-1.408 0,-0.64 0.416,-1.2 1.248,-1.2 z" transform="translate(-8.136,-410.72104)" id="n48" style="fill:#ffffff;stroke:none" number="48" type="number"></path>
  <path d="m 389.571,539.041 0,-2.48 1.232,0 0,-1.824 -1.232,0 0,-6.096 -2.992,0 -3.92,6.336 0,1.584 4.608,0 0,2.48 2.304,0 z m -4.656,-4.304 0.016,-0.032 1.376,-2.272 c 0.352,-0.656 0.64,-1.264 0.976,-1.936 l 0.048,0 c -0.032,0.672 -0.064,1.312 -0.064,1.936 l 0,2.304 -2.352,0 z m 7.04,-6.096 0,2 4.768,0 0,0.032 -4.288,8.368 2.576,0 4.288,-8.864 0,-1.536 -7.344,0 z" transform="translate(-8.136,-410.72104)" id="n47" style="fill:#ffffff;stroke:none" number="47" type="number"></path>
  <path d="m 426.255,539.041 0,-2.48 1.232,0 0,-1.824 -1.232,0 0,-6.096 -2.992,0 -3.92,6.336 0,1.584 4.608,0 0,2.48 2.304,0 z m -4.656,-4.304 0.016,-0.032 1.376,-2.272 c 0.352,-0.656 0.64,-1.264 0.976,-1.936 l 0.048,0 c -0.032,0.672 -0.064,1.312 -0.064,1.936 l 0,2.304 -2.352,0 z m 13.568,-6.24 c -0.224,-0.016 -0.528,-0.032 -0.976,0.016 -1.616,0.08 -2.976,0.576 -4,1.52 -1.136,1.056 -1.856,2.688 -1.856,4.64 0,2.48 1.36,4.544 4.144,4.544 2.24,0 3.824,-1.696 3.824,-3.76 0,-2.16 -1.472,-3.392 -3.216,-3.392 -0.96,0 -1.696,0.304 -2.208,0.816 l -0.048,0 c 0.272,-1.2 1.232,-2.304 3.392,-2.48 0.384,-0.032 0.672,-0.048 0.944,-0.032 l 0,-1.872 z m -2.72,8.928 c -1.12,0 -1.648,-0.992 -1.696,-2.096 0,-0.288 0.032,-0.48 0.112,-0.624 0.224,-0.512 0.768,-0.912 1.424,-0.912 1.04,0 1.552,0.832 1.552,1.792 0,1.056 -0.544,1.84 -1.392,1.84 z" transform="translate(-8.136,-410.72104)" id="n46" style="fill:#ffffff;stroke:none" number="46" type="number"></path>
  <path d="m 455.244,538.953 0,-2.48 1.232,0 0,-1.824 -1.232,0 0,-6.096 -2.992,0 -3.92,6.336 0,1.584 4.608,0 0,2.48 2.304,0 z m -4.656,-4.304 0.016,-0.032 1.376,-2.272 c 0.352,-0.656 0.64,-1.264 0.977,-1.936 l 0.047,0 c -0.032,0.672 -0.064,1.312 -0.064,1.936 l 0,2.304 -2.352,0 z m 13.872,-6.096 -5.728,0 -0.672,5.456 c 0.416,-0.064 0.816,-0.096 1.392,-0.096 2.08,0 2.928,0.656 2.928,1.728 0,1.104 -1.072,1.584 -2.08,1.584 -0.944,0 -1.888,-0.288 -2.336,-0.512 l -0.448,1.824 c 0.576,0.304 1.632,0.592 2.896,0.592 2.8,0 4.464,-1.712 4.464,-3.648 0,-1.216 -0.48,-2.08 -1.264,-2.608 -0.72,-0.528 -1.744,-0.752 -2.736,-0.752 -0.256,0 -0.448,0 -0.672,0.032 l 0.224,-1.6 4.032,0 0,-2 z" transform="translate(-8.136,-410.72104)" id="n45" style="fill:#ffffff;stroke:none" number="45" type="number"></path>
  <path d="m 492.223,539.041 0,-2.48 1.232,0 0,-1.824 -1.232,0 0,-6.096 -2.992,0 -3.92,6.336 0,1.584 4.608,0 0,2.48 2.304,0 z m -4.656,-4.304 0.016,-0.032 1.376,-2.272 c 0.352,-0.656 0.64,-1.264 0.976,-1.936 l 0.048,0 c -0.032,0.672 -0.064,1.312 -0.064,1.936 l 0,2.304 -2.352,0 z m 13.536,4.304 0,-2.48 1.232,0 0,-1.824 -1.232,0 0,-6.096 -2.992,0 -3.92,6.336 0,1.584 4.608,0 0,2.48 2.304,0 z m -4.656,-4.304 0.016,-0.032 1.376,-2.272 c 0.352,-0.656 0.64,-1.264 0.976,-1.936 l 0.048,0 c -0.032,0.672 -0.064,1.312 -0.064,1.936 l 0,2.304 -2.352,0 z" transform="translate(-8.136,-410.72104)" id="n44" style="fill:#ffffff;stroke:none" number="44" type="number"></path>
  <path d="m 521.284,539.041 0,-2.48 1.232,0 0,-1.824 -1.232,0 0,-6.096 -2.992,0 -3.92,6.336 0,1.584 4.608,0 0,2.48 2.304,0 z m -4.656,-4.304 0.016,-0.032 1.376,-2.272 c 0.352,-0.656 0.64,-1.264 0.976,-1.936 l 0.048,0 c -0.032,0.672 -0.064,1.312 -0.064,1.936 l 0,2.304 -2.352,0 z m 6.864,3.76 c 0.608,0.368 1.744,0.72 3.088,0.72 2.64,0 4.256,-1.344 4.256,-3.168 0,-1.376 -1.008,-2.32 -2.256,-2.544 l 0,-0.032 c 1.28,-0.432 1.904,-1.312 1.904,-2.416 0,-1.424 -1.232,-2.592 -3.44,-2.592 -1.36,0 -2.592,0.384 -3.216,0.784 l 0.496,1.76 c 0.416,-0.256 1.312,-0.624 2.16,-0.624 1.04,0 1.536,0.464 1.536,1.088 0,0.88 -1.024,1.2 -1.84,1.2 l -0.96,0 0,1.744 0.992,0 c 1.072,0 2.096,0.464 2.096,1.504 0,0.768 -0.64,1.376 -1.904,1.376 -0.992,0 -1.984,-0.4 -2.416,-0.64 l -0.496,1.84 z" transform="translate(-8.136,-410.72104)" id="n43" style="fill:#ffffff;stroke:none" number="43" type="number"></path>
  <path d="m 558.447,539.129 0,-2.48 1.232,0 0,-1.824 -1.232,0 0,-6.096 -2.992,0 -3.92,6.336 0,1.584 4.608,0 0,2.48 2.304,0 z m -4.656,-4.304 0.016,-0.032 1.376,-2.272 c 0.352,-0.656 0.64,-1.264 0.976,-1.936 l 0.048,0 c -0.032,0.672 -0.064,1.312 -0.064,1.936 l 0,2.304 -2.352,0 z m 14.32,4.304 0,-2 -3.936,0 0,-0.032 0.96,-0.8 c 1.519,-1.344 2.768,-2.736 2.768,-4.496 0,-1.872 -1.281,-3.248 -3.648,-3.248 -1.392,0 -2.624,0.48 -3.392,1.072 l 0.688,1.728 c 0.544,-0.4 1.328,-0.848 2.223,-0.848 1.201,0 1.697,0.672 1.697,1.52 -0.016,1.216 -1.121,2.384 -3.408,4.432 l -1.328,1.2 0,1.472 7.376,0 z" transform="translate(-8.136,-410.72104)" id="n42" style="fill:#ffffff;stroke:none" number="42" type="number"></path>
  <path d="m 588.196,539.041 0,-2.48 1.232,0 0,-1.824 -1.232,0 0,-6.096 -2.992,0 -3.92,6.336 0,1.584 4.608,0 0,2.48 2.304,0 z m -4.656,-4.304 0.016,-0.032 1.376,-2.272 c 0.352,-0.656 0.64,-1.264 0.976,-1.936 l 0.048,0 c -0.032,0.672 -0.064,1.312 -0.064,1.936 l 0,2.304 -2.352,0 z m 10.032,4.304 2.352,0 0,-10.4 -2,0 -2.768,1.28 0.4,1.824 1.984,-0.944 0.032,0 0,8.24 z" transform="translate(-8.136,-410.72104)" id="n41" style="fill:#ffffff;stroke:none" number="41" type="number"></path>
  <path d="m 624.303,539.041 0,-2.48 1.232,0 0,-1.824 -1.232,0 0,-6.096 -2.992,0 -3.92,6.336 0,1.584 4.608,0 0,2.48 2.304,0 z m -4.656,-4.304 0.016,-0.032 1.376,-2.272 c 0.352,-0.656 0.64,-1.264 0.976,-1.936 l 0.048,0 c -0.032,0.672 -0.064,1.312 -0.064,1.936 l 0,2.304 -2.352,0 z m 10.735,-6.272 c -2.687,0 -3.951,2.368 -3.951,5.392 0.015,2.944 1.199,5.36 3.888,5.36 2.639,0 3.936,-2.224 3.936,-5.424 0,-2.848 -1.105,-5.328 -3.873,-5.328 z m -0.032,1.84 c 0.977,0 1.472,1.216 1.472,3.52 0,2.368 -0.512,3.552 -1.455,3.552 -0.929,0 -1.505,-1.136 -1.505,-3.52 0,-2.432 0.608,-3.552 1.488,-3.552 z" transform="translate(-8.136,-410.72104)" id="n40" style="fill:#ffffff;stroke:none" number="40" type="number"></path>
  <path d="m 646.3,538.497 c 0.608,0.368 1.744,0.72 3.088,0.72 2.64,0 4.256,-1.344 4.256,-3.168 0,-1.376 -1.008,-2.32 -2.256,-2.544 l 0,-0.032 c 1.28,-0.432 1.904,-1.312 1.904,-2.416 0,-1.424 -1.232,-2.592 -3.44,-2.592 -1.36,0 -2.592,0.384 -3.216,0.784 l 0.496,1.76 c 0.416,-0.256 1.312,-0.624 2.16,-0.624 1.04,0 1.536,0.464 1.536,1.088 0,0.88 -1.024,1.2 -1.84,1.2 l -0.96,0 0,1.744 0.992,0 c 1.072,0 2.096,0.464 2.096,1.504 0,0.768 -0.64,1.376 -1.904,1.376 -0.992,0 -1.984,-0.4 -2.416,-0.64 l -0.496,1.84 z m 9.696,0.688 c 0.272,0.016 0.704,0.032 1.104,0 1.616,-0.064 2.992,-0.544 3.984,-1.44 1.136,-1.056 1.824,-2.624 1.824,-4.8 0,-2.432 -1.264,-4.48 -3.936,-4.48 -2.288,0 -3.92,1.712 -3.92,3.744 0,2.032 1.472,3.248 3.232,3.248 0.944,0 1.632,-0.272 2.096,-0.752 l 0.032,0.016 c -0.176,0.784 -0.624,1.472 -1.312,1.936 -0.544,0.384 -1.296,0.592 -2.048,0.64 -0.48,0.016 -0.736,0.032 -1.056,0 l 0,1.888 z m 2.88,-8.944 c 1.136,0 1.552,1.088 1.536,2.192 0,0.304 -0.032,0.464 -0.112,0.624 -0.224,0.368 -0.688,0.672 -1.36,0.672 -0.976,0 -1.472,-0.768 -1.472,-1.664 0,-1.088 0.592,-1.824 1.408,-1.824 z" transform="translate(-8.136,-410.72104)" id="n39" style="fill:#ffffff;stroke:none" number="39" type="number"></path>
  <path d="m 683.503,538.497 c 0.608,0.368 1.744,0.72 3.088,0.72 2.64,0 4.256,-1.344 4.256,-3.168 0,-1.376 -1.008,-2.32 -2.256,-2.544 l 0,-0.032 c 1.28,-0.432 1.904,-1.312 1.904,-2.416 0,-1.424 -1.232,-2.592 -3.44,-2.592 -1.36,0 -2.592,0.384 -3.216,0.784 l 0.496,1.76 c 0.416,-0.256 1.312,-0.624 2.16,-0.624 1.04,0 1.536,0.464 1.536,1.088 0,0.88 -1.024,1.2 -1.84,1.2 l -0.96,0 0,1.744 0.992,0 c 1.072,0 2.096,0.464 2.096,1.504 0,0.768 -0.64,1.376 -1.904,1.376 -0.992,0 -1.984,-0.4 -2.416,-0.64 l -0.496,1.84 z m 10.64,-4.784 c -1.136,0.496 -1.857,1.36 -1.857,2.608 0,1.408 1.217,2.896 3.857,2.896 2.415,0 3.999,-1.28 3.999,-3.168 0,-1.328 -0.896,-2.192 -1.919,-2.576 l 0,-0.048 c 1.04,-0.512 1.519,-1.392 1.519,-2.288 0,-1.264 -1.008,-2.672 -3.439,-2.672 -2.08,0 -3.664,1.168 -3.664,2.928 0,0.912 0.496,1.76 1.504,2.288 l 0,0.032 z m 2.096,3.824 c -0.912,0 -1.488,-0.704 -1.472,-1.456 0,-0.752 0.464,-1.328 1.264,-1.552 0.943,0.256 1.631,0.8 1.631,1.712 0,0.736 -0.576,1.296 -1.423,1.296 z m -0.048,-7.424 c 0.895,0 1.264,0.64 1.264,1.296 0,0.64 -0.496,1.152 -1.057,1.312 -0.832,-0.256 -1.455,-0.704 -1.455,-1.408 0,-0.64 0.415,-1.2 1.248,-1.2 z" transform="translate(-8.136,-410.72104)" id="n38" style="fill:#ffffff;stroke:none" number="38" type="number"></path>
  <path d="m 712.404,538.497 c 0.608,0.368 1.744,0.72 3.088,0.72 2.64,0 4.256,-1.344 4.256,-3.168 0,-1.376 -1.008,-2.32 -2.256,-2.544 l 0,-0.032 c 1.28,-0.432 1.904,-1.312 1.904,-2.416 0,-1.424 -1.232,-2.592 -3.44,-2.592 -1.36,0 -2.592,0.384 -3.216,0.784 l 0.496,1.76 c 0.416,-0.256 1.312,-0.624 2.16,-0.624 1.04,0 1.536,0.464 1.536,1.088 0,0.88 -1.024,1.2 -1.84,1.2 l -0.96,0 0,1.744 0.992,0 c 1.072,0 2.096,0.464 2.096,1.504 0,0.768 -0.64,1.376 -1.904,1.376 -0.992,0 -1.984,-0.4 -2.416,-0.64 l -0.496,1.84 z m 9.056,-9.856 0,2 4.768,0 0,0.032 -4.288,8.368 2.576,0 4.288,-8.864 0,-1.536 -7.344,0 z" transform="translate(-8.136,-410.72104)" id="n37" style="fill:#ffffff;stroke:none" number="37" type="number"></path>
  <path d="m 683.711,466.497 c 0.608,0.368 1.743,0.72 3.088,0.72 2.64,0 4.256,-1.344 4.256,-3.168 0,-1.376 -1.008,-2.32 -2.257,-2.544 l 0,-0.032 c 1.281,-0.432 1.905,-1.312 1.905,-2.416 0,-1.424 -1.232,-2.592 -3.441,-2.592 -1.359,0 -2.591,0.384 -3.215,0.784 l 0.496,1.76 c 0.416,-0.256 1.311,-0.624 2.16,-0.624 1.04,0 1.536,0.464 1.536,1.088 0,0.88 -1.025,1.2 -1.841,1.2 l -0.959,0 0,1.744 0.991,0 c 1.073,0 2.097,0.464 2.097,1.504 0,0.768 -0.64,1.376 -1.904,1.376 -0.993,0 -1.984,-0.4 -2.416,-0.64 l -0.496,1.84 z m 8.879,0 c 0.608,0.368 1.744,0.72 3.088,0.72 2.64,0 4.256,-1.344 4.256,-3.168 0,-1.376 -1.008,-2.32 -2.256,-2.544 l 0,-0.032 c 1.28,-0.432 1.904,-1.312 1.904,-2.416 0,-1.424 -1.232,-2.592 -3.44,-2.592 -1.36,0 -2.592,0.384 -3.216,0.784 l 0.496,1.76 c 0.417,-0.256 1.312,-0.624 2.16,-0.624 1.04,0 1.536,0.464 1.536,1.088 0,0.88 -1.024,1.2 -1.84,1.2 l -0.96,0 0,1.744 0.992,0 c 1.072,0 2.096,0.464 2.096,1.504 0,0.768 -0.64,1.376 -1.904,1.376 -0.992,0 -1.984,-0.4 -2.416,-0.64 l -0.496,1.84 z" transform="translate(-8.136,-410.72104)" id="n33" style="fill:#ffffff;stroke:none" number="33" type="number"></path>
  <path d="m 712.452,466.497 c 0.608,0.368 1.744,0.72 3.088,0.72 2.64,0 4.256,-1.344 4.256,-3.168 0,-1.376 -1.008,-2.32 -2.256,-2.544 l 0,-0.032 c 1.28,-0.432 1.904,-1.312 1.904,-2.416 0,-1.424 -1.232,-2.592 -3.44,-2.592 -1.36,0 -2.592,0.384 -3.216,0.784 l 0.496,1.76 c 0.416,-0.256 1.312,-0.624 2.16,-0.624 1.04,0 1.536,0.464 1.536,1.088 0,0.88 -1.024,1.2 -1.84,1.2 l -0.96,0 0,1.744 0.992,0 c 1.072,0 2.096,0.464 2.096,1.504 0,0.768 -0.64,1.376 -1.904,1.376 -0.992,0 -1.984,-0.4 -2.416,-0.64 l -0.496,1.84 z m 15.888,-9.856 -5.728,0 -0.672,5.456 c 0.416,-0.064 0.816,-0.096 1.392,-0.096 2.08,0 2.928,0.656 2.928,1.728 0,1.104 -1.072,1.584 -2.08,1.584 -0.944,0 -1.888,-0.288 -2.336,-0.512 l -0.448,1.824 c 0.576,0.304 1.632,0.592 2.896,0.592 2.8,0 4.464,-1.712 4.464,-3.648 0,-1.216 -0.48,-2.08 -1.264,-2.608 -0.72,-0.528 -1.745,-0.752 -2.736,-0.752 -0.256,0 -0.448,0 -0.672,0.032 l 0.224,-1.6 4.032,0 0,-2 z" transform="translate(-8.136,-410.72104)" id="n35" style="fill:#ffffff;stroke:none" number="35" type="number"></path>
  <path d="m 683.431,437.622 c 0.608,0.368 1.744,0.72 3.088,0.72 2.64,0 4.256,-1.344 4.256,-3.168 0,-1.376 -1.008,-2.32 -2.256,-2.544 l 0,-0.032 c 1.28,-0.432 1.904,-1.312 1.904,-2.416 0,-1.424 -1.232,-2.592 -3.44,-2.592 -1.36,0 -2.592,0.384 -3.216,0.784 l 0.496,1.76 c 0.416,-0.256 1.312,-0.624 2.16,-0.624 1.04,0 1.536,0.464 1.536,1.088 0,0.88 -1.024,1.2 -1.84,1.2 l -0.96,0 0,1.744 0.992,0 c 1.072,0 2.096,0.464 2.096,1.504 0,0.768 -0.64,1.376 -1.904,1.376 -0.992,0 -1.984,-0.4 -2.416,-0.64 l -0.496,1.84 z m 15.552,0.544 0,-2.48 1.231,0 0,-1.824 -1.231,0 0,-6.096 -2.992,0 -3.921,6.336 0,1.584 4.609,0 0,2.48 2.304,0 z m -4.656,-4.304 0.015,-0.032 1.376,-2.272 c 0.352,-0.656 0.64,-1.264 0.977,-1.936 l 0.048,0 c -0.032,0.672 -0.064,1.312 -0.064,1.936 l 0,2.304 -2.352,0 z" transform="translate(-8.136,-410.72104)" id="n34" style="fill:#ffffff;stroke:none" number="34" type="number"></path>
  <path d="m 712.244,437.622 c 0.608,0.368 1.744,0.72 3.088,0.72 2.64,0 4.256,-1.344 4.256,-3.168 0,-1.376 -1.008,-2.32 -2.256,-2.544 l 0,-0.032 c 1.28,-0.432 1.904,-1.312 1.904,-2.416 0,-1.424 -1.232,-2.592 -3.44,-2.592 -1.36,0 -2.592,0.384 -3.216,0.784 l 0.496,1.76 c 0.416,-0.256 1.312,-0.624 2.16,-0.624 1.04,0 1.536,0.464 1.536,1.088 0,0.88 -1.024,1.2 -1.84,1.2 l -0.96,0 0,1.744 0.992,0 c 1.072,0 2.096,0.464 2.096,1.504 0,0.768 -0.64,1.376 -1.904,1.376 -0.992,0 -1.984,-0.4 -2.416,-0.64 l -0.496,1.84 z m 15.584,-10 c -0.224,-0.016 -0.528,-0.032 -0.976,0.016 -1.616,0.08 -2.976,0.576 -4,1.52 -1.136,1.056 -1.856,2.688 -1.856,4.64 0,2.48 1.36,4.544 4.144,4.544 2.24,0 3.824,-1.696 3.824,-3.76 0,-2.16 -1.472,-3.392 -3.216,-3.392 -0.96,0 -1.696,0.304 -2.208,0.816 l -0.048,0 c 0.272,-1.2 1.232,-2.304 3.392,-2.48 0.384,-0.032 0.672,-0.048 0.944,-0.032 l 0,-1.872 z m -2.72,8.928 c -1.12,0 -1.648,-0.992 -1.696,-2.096 0,-0.288 0.032,-0.48 0.112,-0.624 0.224,-0.512 0.768,-0.912 1.424,-0.912 1.04,0 1.552,0.832 1.552,1.792 0,1.056 -0.544,1.84 -1.392,1.84 z" transform="translate(-8.136,-410.72104)" id="n36" style="fill:#ffffff;stroke:none" number="36" type="number"></path>
  <path d="m 624.935,467.041 0,-2 -3.936,0 0,-0.032 0.96,-0.8 c 1.52,-1.344 2.768,-2.736 2.768,-4.496 0,-1.872 -1.28,-3.248 -3.648,-3.248 -1.392,0 -2.624,0.48 -3.392,1.072 l 0.688,1.728 c 0.544,-0.4 1.328,-0.848 2.224,-0.848 1.2,0 1.696,0.672 1.696,1.52 -0.016,1.216 -1.12,2.384 -3.408,4.432 l -1.328,1.2 0,1.472 7.376,0 z m 2.24,0.144 c 0.272,0.016 0.704,0.032 1.104,0 1.616,-0.064 2.992,-0.544 3.984,-1.44 1.135,-1.056 1.823,-2.624 1.823,-4.8 0,-2.432 -1.264,-4.48 -3.935,-4.48 -2.288,0 -3.921,1.712 -3.921,3.744 0,2.032 1.473,3.248 3.233,3.248 0.943,0 1.631,-0.272 2.095,-0.752 l 0.033,0.016 c -0.177,0.784 -0.624,1.472 -1.312,1.936 -0.544,0.384 -1.296,0.592 -2.048,0.64 -0.48,0.016 -0.737,0.032 -1.056,0 l 0,1.888 z m 2.879,-8.944 c 1.137,0 1.553,1.088 1.537,2.192 0,0.304 -0.033,0.464 -0.112,0.624 -0.224,0.368 -0.688,0.672 -1.361,0.672 -0.975,0 -1.472,-0.768 -1.472,-1.664 0,-1.088 0.593,-1.824 1.408,-1.824 z" transform="translate(-8.136,-410.72104)" id="n29" style="fill:#ffffff;stroke:none" number="29" type="number"></path>
  <path d="m 647.404,466.497 c 0.608,0.368 1.744,0.72 3.088,0.72 2.64,0 4.256,-1.344 4.256,-3.168 0,-1.376 -1.008,-2.32 -2.256,-2.544 l 0,-0.032 c 1.28,-0.432 1.904,-1.312 1.904,-2.416 0,-1.424 -1.232,-2.592 -3.44,-2.592 -1.36,0 -2.592,0.384 -3.216,0.784 l 0.496,1.76 c 0.416,-0.256 1.312,-0.624 2.16,-0.624 1.04,0 1.536,0.464 1.536,1.088 0,0.88 -1.024,1.2 -1.84,1.2 l -0.96,0 0,1.744 0.992,0 c 1.072,0 2.096,0.464 2.096,1.504 0,0.768 -0.64,1.376 -1.904,1.376 -0.992,0 -1.984,-0.4 -2.416,-0.64 l -0.496,1.84 z m 12.048,0.544 2.352,0 0,-10.4 -2,0 -2.768,1.28 0.4,1.824 1.984,-0.944 0.032,0 0,8.24 z" transform="translate(-8.136,-410.72104)" id="n31" style="fill:#ffffff;stroke:none" number="31" type="number"></path>
  <path d="m 617.511,437.622 c 0.608,0.368 1.744,0.72 3.088,0.72 2.64,0 4.256,-1.344 4.256,-3.168 0,-1.376 -1.008,-2.32 -2.256,-2.544 l 0,-0.032 c 1.28,-0.432 1.904,-1.312 1.904,-2.416 0,-1.424 -1.232,-2.592 -3.44,-2.592 -1.36,0 -2.592,0.384 -3.216,0.784 l 0.496,1.76 c 0.416,-0.256 1.312,-0.624 2.16,-0.624 1.04,0 1.536,0.464 1.536,1.088 0,0.88 -1.024,1.2 -1.84,1.2 l -0.96,0 0,1.744 0.992,0 c 1.072,0 2.096,0.464 2.096,1.504 0,0.768 -0.64,1.376 -1.904,1.376 -0.992,0 -1.984,-0.4 -2.416,-0.64 l -0.496,1.84 z m 12.752,-10.032 c -2.688,0 -3.952,2.368 -3.952,5.392 0.016,2.944 1.2,5.36 3.888,5.36 2.64,0 3.936,-2.224 3.936,-5.424 0,-2.848 -1.104,-5.328 -3.872,-5.328 z m -0.033,1.84 c 0.977,0 1.473,1.216 1.473,3.52 0,2.368 -0.512,3.552 -1.456,3.552 -0.928,0 -1.504,-1.136 -1.504,-3.52 0,-2.432 0.608,-3.552 1.487,-3.552 z" transform="translate(-8.136,-410.72104)" id="n30" style="fill:#ffffff;stroke:none" number="30" type="number"></path>
  <path d="m 646.436,437.622 c 0.608,0.368 1.744,0.72 3.088,0.72 2.64,0 4.256,-1.344 4.256,-3.168 0,-1.376 -1.008,-2.32 -2.256,-2.544 l 0,-0.032 c 1.28,-0.432 1.904,-1.312 1.904,-2.416 0,-1.424 -1.232,-2.592 -3.44,-2.592 -1.36,0 -2.592,0.384 -3.216,0.784 l 0.496,1.76 c 0.416,-0.256 1.312,-0.624 2.16,-0.624 1.04,0 1.536,0.464 1.536,1.088 0,0.88 -1.024,1.2 -1.84,1.2 l -0.96,0 0,1.744 0.992,0 c 1.072,0 2.096,0.464 2.096,1.504 0,0.768 -0.64,1.376 -1.904,1.376 -0.992,0 -1.984,-0.4 -2.416,-0.64 l -0.496,1.84 z m 16.336,0.544 0,-2 -3.936,0 0,-0.032 0.96,-0.8 c 1.52,-1.344 2.768,-2.736 2.768,-4.496 0,-1.872 -1.28,-3.248 -3.648,-3.248 -1.392,0 -2.624,0.48 -3.392,1.072 l 0.688,1.728 c 0.544,-0.4 1.328,-0.848 2.224,-0.848 1.2,0 1.696,0.672 1.696,1.52 -0.016,1.216 -1.12,2.384 -3.408,4.432 l -1.328,1.2 0,1.472 7.376,0 z" transform="translate(-8.136,-410.72104)" id="n32" style="fill:#ffffff;stroke:none" number="32" type="number"></path>
  <path d="m 559.087,467.041 0,-2 -3.936,0 0,-0.032 0.96,-0.8 c 1.52,-1.344 2.768,-2.736 2.768,-4.496 0,-1.872 -1.28,-3.248 -3.648,-3.248 -1.392,0 -2.624,0.48 -3.392,1.072 l 0.688,1.728 c 0.544,-0.4 1.328,-0.848 2.224,-0.848 1.2,0 1.696,0.672 1.696,1.52 -0.016,1.216 -1.12,2.384 -3.408,4.432 l -1.328,1.2 0,1.472 7.376,0 z m 8.431,-10.4 -5.728,0 -0.671,5.456 c 0.416,-0.064 0.816,-0.096 1.391,-0.096 2.081,0 2.929,0.656 2.929,1.728 0,1.104 -1.072,1.584 -2.08,1.584 -0.944,0 -1.888,-0.288 -2.336,-0.512 l -0.448,1.824 c 0.576,0.304 1.632,0.592 2.896,0.592 2.8,0 4.464,-1.712 4.464,-3.648 0,-1.216 -0.48,-2.08 -1.264,-2.608 -0.72,-0.528 -1.745,-0.752 -2.736,-0.752 -0.256,0 -0.449,0 -0.672,0.032 l 0.223,-1.6 4.032,0 0,-2 z" transform="translate(-8.136,-410.72104)" id="n25" style="fill:#ffffff;stroke:none"></path>
  <path d="m 587.82,467.129 0,-2 -3.936,0 0,-0.032 0.96,-0.8 c 1.52,-1.344 2.768,-2.736 2.768,-4.496 0,-1.872 -1.28,-3.248 -3.648,-3.248 -1.392,0 -2.624,0.48 -3.392,1.072 l 0.688,1.728 c 0.544,-0.4 1.328,-0.848 2.224,-0.848 1.2,0 1.696,0.672 1.696,1.52 -0.016,1.216 -1.12,2.384 -3.408,4.432 l -1.328,1.2 0,1.472 7.376,0 z m 1.6,-10.4 0,2 4.768,0 0,0.032 -4.288,8.368 2.576,0 4.288,-8.864 0,-1.536 -7.344,0 z" transform="translate(-8.136,-410.72104)" id="n27" style="fill:#ffffff;stroke:none" number="27" type="number"></path>
  <path d="m 558.879,438.166 0,-2 -3.936,0 0,-0.032 0.96,-0.8 c 1.52,-1.344 2.768,-2.736 2.768,-4.496 0,-1.872 -1.28,-3.248 -3.648,-3.248 -1.392,0 -2.624,0.48 -3.392,1.072 l 0.688,1.728 c 0.544,-0.4 1.328,-0.848 2.224,-0.848 1.2,0 1.696,0.672 1.696,1.52 -0.016,1.216 -1.12,2.384 -3.408,4.432 l -1.328,1.2 0,1.472 7.376,0 z m 8.128,-10.544 c -0.224,-0.016 -0.528,-0.032 -0.976,0.016 -1.616,0.08 -2.976,0.576 -4,1.52 -1.136,1.056 -1.856,2.688 -1.856,4.64 0,2.48 1.36,4.544 4.144,4.544 2.24,0 3.824,-1.696 3.824,-3.76 0,-2.16 -1.472,-3.392 -3.216,-3.392 -0.96,0 -1.696,0.304 -2.208,0.816 l -0.048,0 c 0.272,-1.2 1.232,-2.304 3.392,-2.48 0.384,-0.032 0.672,-0.048 0.944,-0.032 l 0,-1.872 z m -2.72,8.928 c -1.12,0 -1.648,-0.992 -1.696,-2.096 0,-0.288 0.032,-0.48 0.112,-0.624 0.224,-0.512 0.768,-0.912 1.424,-0.912 1.04,0 1.552,0.832 1.552,1.792 0,1.056 -0.544,1.84 -1.392,1.84 z" transform="translate(-8.136,-410.72104)" id="n26" style="fill:#ffffff;stroke:none" number="26" type="number"></path>
  <path d="m 587.7,438.166 0,-2 -3.936,0 0,-0.032 0.96,-0.8 c 1.52,-1.344 2.768,-2.736 2.768,-4.496 0,-1.872 -1.28,-3.248 -3.648,-3.248 -1.392,0 -2.624,0.48 -3.392,1.072 l 0.688,1.728 c 0.544,-0.4 1.328,-0.848 2.224,-0.848 1.2,0 1.696,0.672 1.696,1.52 -0.016,1.216 -1.12,2.384 -3.408,4.432 l -1.328,1.2 0,1.472 7.376,0 z m 3.184,-5.328 c -1.136,0.496 -1.856,1.36 -1.856,2.608 0,1.408 1.216,2.896 3.856,2.896 2.416,0 4,-1.28 4,-3.168 0,-1.328 -0.896,-2.192 -1.92,-2.576 l 0,-0.048 c 1.04,-0.512 1.52,-1.392 1.52,-2.288 0,-1.264 -1.008,-2.672 -3.44,-2.672 -2.08,0 -3.664,1.168 -3.664,2.928 0,0.912 0.496,1.76 1.504,2.288 l 0,0.032 z m 2.096,3.824 c -0.912,0 -1.488,-0.704 -1.472,-1.456 0,-0.752 0.464,-1.328 1.264,-1.552 0.944,0.256 1.632,0.8 1.632,1.712 0,0.736 -0.576,1.296 -1.424,1.296 z m -0.048,-7.424 c 0.896,0 1.264,0.64 1.264,1.296 0,0.64 -0.496,1.152 -1.056,1.312 -0.832,-0.256 -1.456,-0.704 -1.456,-1.408 0,-0.64 0.416,-1.2 1.248,-1.2 z" transform="translate(-8.136,-410.72104)" id="n28" style="fill:#ffffff;stroke:none" number="28" type="number"></path>
  <path d="m 494.039,467.129 0,-2 -3.936,0 0,-0.032 0.96,-0.8 c 1.52,-1.344 2.768,-2.736 2.768,-4.496 0,-1.872 -1.28,-3.248 -3.648,-3.248 -1.392,0 -2.624,0.48 -3.392,1.072 l 0.688,1.728 c 0.544,-0.4 1.328,-0.848 2.224,-0.848 1.2,0 1.696,0.672 1.696,1.52 -0.016,1.216 -1.12,2.384 -3.408,4.432 l -1.328,1.2 0,1.472 7.376,0 z m 4.592,0 2.352,0 0,-10.4 -2,0 -2.768,1.28 0.4,1.824 1.984,-0.944 0.032,0 0,8.24 z" transform="translate(-8.136,-410.72104)" id="n21" style="fill:#ffffff;stroke:none" number="21" type="number"></path>
  <path d="m 521.908,467.041 0,-2 -3.936,0 0,-0.032 0.96,-0.8 c 1.52,-1.344 2.768,-2.736 2.768,-4.496 0,-1.872 -1.28,-3.248 -3.648,-3.248 -1.392,0 -2.624,0.48 -3.392,1.072 l 0.688,1.728 c 0.544,-0.4 1.328,-0.848 2.224,-0.848 1.2,0 1.696,0.672 1.696,1.52 -0.016,1.216 -1.12,2.384 -3.408,4.432 l -1.328,1.2 0,1.472 7.376,0 z m 1.424,-0.544 c 0.608,0.368 1.744,0.72 3.088,0.72 2.64,0 4.256,-1.344 4.256,-3.168 0,-1.376 -1.008,-2.32 -2.256,-2.544 l 0,-0.032 c 1.28,-0.432 1.904,-1.312 1.904,-2.416 0,-1.424 -1.232,-2.592 -3.44,-2.592 -1.36,0 -2.592,0.384 -3.216,0.784 l 0.496,1.76 c 0.416,-0.256 1.312,-0.624 2.16,-0.624 1.04,0 1.536,0.464 1.536,1.088 0,0.88 -1.024,1.2 -1.84,1.2 l -0.96,0 0,1.744 0.992,0 c 1.072,0 2.096,0.464 2.096,1.504 0,0.768 -0.64,1.376 -1.904,1.376 -0.992,0 -1.984,-0.4 -2.416,-0.64 l -0.496,1.84 z" transform="translate(-8.136,-410.72104)" id="n23" style="fill:#ffffff;stroke:none" number="23" type="number"></path>
  <path d="m 493.071,438.254 0,-2.001 -3.936,0 0,-0.031 0.96,-0.801 c 1.52,-1.343 2.768,-2.736 2.768,-4.495 0,-1.872 -1.28,-3.248 -3.648,-3.248 -1.392,0 -2.624,0.48 -3.392,1.072 l 0.688,1.728 c 0.544,-0.4 1.328,-0.848 2.224,-0.848 1.2,0 1.696,0.671 1.696,1.52 -0.016,1.216 -1.12,2.384 -3.408,4.432 l -1.328,1.199 0,1.473 7.376,0 z m 8.88,0 0,-2.001 -3.936,0 0,-0.031 0.96,-0.801 c 1.52,-1.343 2.768,-2.736 2.768,-4.495 0,-1.872 -1.28,-3.248 -3.648,-3.248 -1.392,0 -2.624,0.48 -3.392,1.072 l 0.688,1.728 c 0.544,-0.4 1.328,-0.848 2.224,-0.848 1.2,0 1.696,0.671 1.696,1.52 -0.016,1.216 -1.12,2.384 -3.408,4.432 l -1.328,1.199 0,1.473 7.376,0 z" transform="translate(-8.136,-410.72104)" id="n22" style="fill:#ffffff;stroke:none" number="22" type="number"></path>
  <path d="m 521.628,438.254 0,-2.001 -3.936,0 0,-0.031 0.96,-0.801 c 1.52,-1.343 2.768,-2.736 2.768,-4.495 0,-1.872 -1.28,-3.248 -3.648,-3.248 -1.392,0 -2.624,0.48 -3.392,1.072 l 0.688,1.728 c 0.544,-0.4 1.328,-0.848 2.224,-0.848 1.2,0 1.696,0.671 1.696,1.52 -0.016,1.216 -1.12,2.384 -3.408,4.432 l -1.328,1.199 0,1.473 7.376,0 z m 8.096,0 0,-2.481 1.232,0 0,-1.823 -1.232,0 0,-6.097 -2.992,0 -3.92,6.336 0,1.584 4.608,0 0,2.481 2.304,0 z m -4.656,-4.304 0.016,-0.032 1.376,-2.272 c 0.352,-0.657 0.64,-1.264 0.976,-1.936 l 0.048,0 c -0.032,0.672 -0.064,1.311 -0.064,1.936 l 0,2.304 -2.352,0 z" transform="translate(-8.136,-410.72104)" id="n24" style="fill:#ffffff;stroke:none" number="24" type="number"></path>
  <path d="m 422.415,467.041 2.352,0 0,-10.4 -2,0 -2.768,1.28 0.4,1.824 1.984,-0.944 0.032,0 0,8.24 z m 5.888,-10.4 0,2 4.768,0 0,0.032 -4.288,8.368 2.576,0 4.288,-8.864 0,-1.536 -7.344,0 z" transform="translate(-8.136,-410.72104)" id="n17" style="fill:#ffffff;stroke:none"></path>
  <path d="m 451.092,467.041 2.352,0 0,-10.4 -1.999,0 -2.768,1.28 0.399,1.824 1.984,-0.944 0.032,0 0,8.24 z m 6.528,0.144 c 0.272,0.016 0.704,0.032 1.104,0 1.616,-0.064 2.992,-0.544 3.984,-1.44 1.136,-1.056 1.824,-2.624 1.824,-4.8 0,-2.432 -1.264,-4.48 -3.936,-4.48 -2.288,0 -3.92,1.712 -3.92,3.744 0,2.032 1.472,3.248 3.232,3.248 0.944,0 1.632,-0.272 2.096,-0.752 l 0.032,0.016 c -0.176,0.784 -0.624,1.472 -1.312,1.936 -0.544,0.384 -1.296,0.592 -2.048,0.64 -0.48,0.016 -0.736,0.032 -1.056,0 l 0,1.888 z m 2.88,-8.944 c 1.136,0 1.552,1.088 1.536,2.192 0,0.304 -0.032,0.464 -0.112,0.624 -0.224,0.368 -0.688,0.672 -1.36,0.672 -0.976,0 -1.472,-0.768 -1.472,-1.664 0,-1.088 0.592,-1.824 1.408,-1.824 z" transform="translate(-8.136,-410.72104)" id="n19" style="fill:#ffffff;stroke:none" number="19" type="number"></path>
  <path d="m 422.295,438.166 2.352,0 0,-10.4 -2,0 -2.768,1.28 0.4,1.824 1.984,-0.944 0.032,0 0,8.24 z m 7.472,-5.328 c -1.136,0.496 -1.856,1.36 -1.856,2.608 0,1.408 1.216,2.896 3.856,2.896 2.416,0 4,-1.28 4,-3.168 0,-1.328 -0.896,-2.192 -1.92,-2.576 l 0,-0.048 c 1.04,-0.512 1.52,-1.392 1.52,-2.288 0,-1.264 -1.008,-2.672 -3.44,-2.672 -2.08,0 -3.664,1.168 -3.664,2.928 0,0.912 0.496,1.76 1.504,2.288 l 0,0.032 z m 2.096,3.824 c -0.912,0 -1.488,-0.704 -1.472,-1.456 0,-0.752 0.464,-1.328 1.264,-1.552 0.944,0.256 1.632,0.8 1.632,1.712 0,0.736 -0.576,1.296 -1.424,1.296 z m -0.048,-7.424 c 0.896,0 1.264,0.64 1.264,1.296 0,0.64 -0.496,1.152 -1.056,1.312 -0.832,-0.256 -1.456,-0.704 -1.456,-1.408 0,-0.64 0.416,-1.2 1.248,-1.2 z" transform="translate(-8.136,-410.72104)" id="n18" style="fill:#ffffff;stroke:none" number="18" type="number"></path>
  <path d="m 455.708,438.166 0,-2 -3.936,0 0,-0.032 0.96,-0.8 c 1.52,-1.344 2.768,-2.736 2.768,-4.496 0,-1.872 -1.28,-3.248 -3.648,-3.248 -1.392,0 -2.624,0.48 -3.391,1.072 l 0.687,1.728 c 0.544,-0.4 1.329,-0.848 2.224,-0.848 1.2,0 1.697,0.672 1.697,1.52 -0.017,1.216 -1.121,2.384 -3.409,4.432 l -1.328,1.2 0,1.472 7.376,0 z m 5.296,-10.576 c -2.688,0 -3.952,2.368 -3.952,5.392 0.016,2.944 1.2,5.36 3.888,5.36 2.64,0 3.936,-2.224 3.936,-5.424 0,-2.848 -1.104,-5.328 -3.872,-5.328 z m -0.032,1.84 c 0.976,0 1.472,1.216 1.472,3.52 0,2.368 -0.512,3.552 -1.456,3.552 -0.928,0 -1.504,-1.136 -1.504,-3.52 0,-2.432 0.608,-3.552 1.488,-3.552 z" transform="translate(-8.136,-410.72104)" id="n20" style="fill:#ffffff;stroke:none" number="20" type="number"></path>
  <path d="m 356.878,467.041 2.352,0 0,-10.4 -2,0 -2.768,1.28 0.4,1.824 1.984,-0.944 0.032,0 0,8.24 z m 5.712,-0.544 c 0.608,0.368 1.744,0.72 3.088,0.72 2.64,0 4.256,-1.344 4.256,-3.168 0,-1.376 -1.008,-2.32 -2.256,-2.544 l 0,-0.032 c 1.28,-0.432 1.904,-1.312 1.904,-2.416 0,-1.424 -1.232,-2.592 -3.44,-2.592 -1.36,0 -2.592,0.384 -3.216,0.784 l 0.496,1.76 c 0.416,-0.256 1.312,-0.624 2.16,-0.624 1.04,0 1.536,0.464 1.536,1.088 0,0.88 -1.024,1.2 -1.84,1.2 l -0.96,0 0,1.744 0.992,0 c 1.072,0 2.096,0.464 2.096,1.504 0,0.768 -0.64,1.376 -1.904,1.376 -0.992,0 -1.984,-0.4 -2.416,-0.64 l -0.496,1.84 z" transform="translate(-8.136,-410.72104)" id="n13" style="fill:#ffffff;stroke:none" number="13" type="number"></path>
  <path d="m 385.619,466.953 2.352,0 0,-10.4 -2,0 -2.768,1.28 0.4,1.824 1.984,-0.944 0.032,0 0,8.24 z m 12.72,-10.4 -5.728,0 -0.672,5.456 c 0.416,-0.064 0.816,-0.096 1.392,-0.096 2.08,0 2.928,0.656 2.928,1.728 0,1.104 -1.072,1.584 -2.08,1.584 -0.944,0 -1.888,-0.288 -2.336,-0.512 l -0.448,1.824 c 0.576,0.304 1.632,0.592 2.896,0.592 2.8,0 4.464,-1.712 4.464,-3.648 0,-1.216 -0.48,-2.08 -1.264,-2.608 -0.72,-0.528 -1.744,-0.752 -2.736,-0.752 -0.256,0 -0.448,0 -0.672,0.032 l 0.224,-1.6 4.032,0 0,-2 z" transform="translate(-8.136,-410.72104)" id="n15" style="fill:#ffffff;stroke:none" number="15" type="number"></path>
  <path d="m 356.598,438.166 2.352,0 0,-10.4 -2,0 -2.768,1.28 0.4,1.824 1.984,-0.944 0.032,0 0,8.24 z m 12.384,0 0,-2.48 1.232,0 0,-1.824 -1.232,0 0,-6.096 -2.992,0 -3.92,6.336 0,1.584 4.608,0 0,2.48 2.304,0 z m -4.656,-4.304 0.016,-0.032 1.376,-2.272 c 0.352,-0.656 0.64,-1.264 0.976,-1.936 l 0.048,0 c -0.032,0.672 -0.064,1.312 -0.064,1.936 l 0,2.304 -2.352,0 z" transform="translate(-8.136,-410.72104)" id="n14" style="fill:#ffffff;stroke:none" number="14" type="number" hover=""></path>
  <path d="m 385.411,438.166 2.352,0 0,-10.4 -1.999,0 -2.769,1.28 0.4,1.824 1.984,-0.944 0.032,0 0,8.24 z m 12.416,-10.544 c -0.224,-0.016 -0.528,-0.032 -0.976,0.016 -1.616,0.08 -2.976,0.576 -4,1.52 -1.136,1.056 -1.856,2.688 -1.856,4.64 0,2.48 1.36,4.544 4.144,4.544 2.24,0 3.824,-1.696 3.824,-3.76 0,-2.16 -1.472,-3.392 -3.216,-3.392 -0.96,0 -1.696,0.304 -2.208,0.816 l -0.048,0 c 0.272,-1.2 1.232,-2.304 3.392,-2.48 0.384,-0.032 0.672,-0.048 0.944,-0.032 l 0,-1.872 z m -2.72,8.928 c -1.12,0 -1.648,-0.992 -1.696,-2.096 0,-0.288 0.032,-0.48 0.112,-0.624 0.224,-0.512 0.768,-0.912 1.424,-0.912 1.04,0 1.552,0.832 1.552,1.792 0,1.056 -0.544,1.84 -1.392,1.84 z" transform="translate(-8.136,-410.72104)" id="n16" style="fill:#ffffff;stroke:none" number="16" type="number"></path>
  <path d="m 292.464,467.185 c 0.272,0.016 0.704,0.032 1.104,0 1.616,-0.064 2.992,-0.544 3.984,-1.44 1.136,-1.056 1.824,-2.624 1.824,-4.8 0,-2.432 -1.264,-4.48 -3.936,-4.48 -2.288,0 -3.92,1.712 -3.92,3.744 0,2.032 1.472,3.248 3.232,3.248 0.944,0 1.632,-0.272 2.096,-0.752 l 0.032,0.016 c -0.176,0.784 -0.624,1.472 -1.312,1.936 -0.544,0.384 -1.296,0.592 -2.048,0.64 -0.48,0.016 -0.736,0.032 -1.056,0 l 0,1.888 z m 2.88,-8.944 c 1.136,0 1.552,1.088 1.536,2.192 0,0.304 -0.032,0.464 -0.112,0.624 -0.224,0.368 -0.688,0.672 -1.36,0.672 -0.976,0 -1.472,-0.768 -1.472,-1.664 0,-1.088 0.592,-1.824 1.408,-1.824 z" transform="translate(-8.136,-410.72104)" id="n9" style="fill:#ffffff;stroke:none" number="9" type="number"></path>
  <path d="m 319.821,467.041 2.352,0 0,-10.4 -1.999,0 -2.769,1.28 0.4,1.824 1.984,-0.944 0.032,0 0,8.24 z m 8.88,0 2.352,0 0,-10.4 -2,0 -2.768,1.28 0.4,1.824 1.984,-0.944 0.032,0 0,8.24 z" transform="translate(-8.136,-410.72104)" id="n11" style="fill:#ffffff;stroke:none" number="11" type="number" hover=""></path>
  <path d="m 289.928,438.166 2.352,0 0,-10.4 -2,0 -2.768,1.28 0.4,1.824 1.984,-0.944 0.032,0 0,8.24 z m 9.584,-10.576 c -2.688,0 -3.952,2.368 -3.952,5.392 0.016,2.944 1.2,5.36 3.888,5.36 2.64,0 3.936,-2.224 3.936,-5.424 0,-2.848 -1.104,-5.328 -3.872,-5.328 z m -0.032,1.84 c 0.976,0 1.472,1.216 1.472,3.52 0,2.368 -0.512,3.552 -1.456,3.552 -0.928,0 -1.504,-1.136 -1.504,-3.52 0,-2.432 0.608,-3.552 1.488,-3.552 z" transform="translate(-8.136,-410.72104)" id="n10" style="fill:#ffffff;stroke:none" number="10" type="number"></path>
  <path d="m 318.853,438.254 2.352,0 0,-10.401 -2,0 -2.768,1.281 0.4,1.824 1.984,-0.945 0.032,0 0,8.241 z m 13.168,0 0,-2.001 -3.936,0 0,-0.031 0.96,-0.801 c 1.52,-1.343 2.768,-2.736 2.768,-4.495 0,-1.872 -1.28,-3.248 -3.648,-3.248 -1.392,0 -2.624,0.48 -3.392,1.072 l 0.688,1.728 c 0.544,-0.4 1.328,-0.848 2.224,-0.848 1.2,0 1.696,0.671 1.696,1.52 -0.016,1.216 -1.12,2.384 -3.408,4.432 l -1.328,1.199 0,1.473 7.376,0 z" transform="translate(-8.136,-410.72104)" id="n12" style="fill:#ffffff;stroke:none" number="12" type="number"></path>
  <path d="m 232.945,456.553 -5.728,0 -0.672,5.456 c 0.416,-0.064 0.816,-0.096 1.392,-0.096 2.08,0 2.928,0.656 2.928,1.728 0,1.104 -1.072,1.584 -2.08,1.584 -0.944,0 -1.887,-0.288 -2.336,-0.512 l -0.448,1.824 c 0.576,0.304 1.632,0.592 2.896,0.592 2.8,0 4.464,-1.712 4.464,-3.648 0,-1.216 -0.48,-2.08 -1.264,-2.608 -0.72,-0.528 -1.744,-0.752 -2.736,-0.752 -0.256,0 -0.448,0 -0.672,0.032 l 0.224,-1.6 4.032,0 0,-2 z" transform="translate(-8.136,-410.72104)" id="n5" style="fill:#ffffff;stroke:none"></path>
  <path d="m 254.791,456.641 0,2 4.768,0 0,0.032 -4.288,8.368 2.576,0 4.288,-8.864 0,-1.536 -7.344,0 z" transform="translate(-8.136,-410.72104)" id="n7" style="fill:#ffffff;stroke:none" number="7" type="number"></path>
  <path d="m 232.529,427.622 c -0.224,-0.016 -0.528,-0.032 -0.976,0.016 -1.616,0.08 -2.976,0.576 -4,1.52 -1.136,1.056 -1.856,2.688 -1.856,4.64 0,2.48 1.36,4.544 4.144,4.544 2.24,0 3.824,-1.696 3.824,-3.76 0,-2.16 -1.472,-3.392 -3.216,-3.392 -0.959,0 -1.696,0.304 -2.208,0.816 l -0.047,0 c 0.271,-1.2 1.231,-2.304 3.391,-2.48 0.384,-0.032 0.672,-0.048 0.944,-0.032 l 0,-1.872 z m -2.72,8.928 c -1.12,0 -1.648,-0.992 -1.696,-2.096 0,-0.288 0.032,-0.48 0.112,-0.624 0.224,-0.512 0.768,-0.912 1.424,-0.912 1.04,0 1.552,0.832 1.552,1.792 0,1.056 -0.544,1.84 -1.392,1.84 z" transform="translate(-8.136,-410.72104)" id="n6" style="fill:#ffffff;stroke:none" number="6" type="number"></path>
  <path d="m 256.391,432.838 c -1.136,0.496 -1.856,1.36 -1.856,2.608 0,1.408 1.216,2.896 3.856,2.896 2.416,0 4,-1.28 4,-3.168 0,-1.328 -0.896,-2.192 -1.92,-2.576 l 0,-0.048 c 1.04,-0.512 1.52,-1.392 1.52,-2.288 0,-1.264 -1.008,-2.672 -3.44,-2.672 -2.08,0 -3.664,1.168 -3.664,2.928 0,0.912 0.496,1.76 1.504,2.288 l 0,0.032 z m 2.096,3.824 c -0.912,0 -1.488,-0.704 -1.472,-1.456 0,-0.752 0.464,-1.328 1.264,-1.552 0.944,0.256 1.632,0.8 1.632,1.712 0,0.736 -0.576,1.296 -1.424,1.296 z m -0.048,-7.424 c 0.896,0 1.264,0.64 1.264,1.296 0,0.64 -0.496,1.152 -1.056,1.312 -0.832,-0.256 -1.456,-0.704 -1.456,-1.408 0,-0.64 0.416,-1.2 1.248,-1.2 z" transform="translate(-8.136,-410.72104)" id="n8" style="fill:#ffffff;stroke:none" number="8" type="number"></path>
  <path d="m 164.088,467.041 2.352,0 0,-10.4 -2,0 -2.768,1.28 0.4,1.824 1.984,-0.944 0.032,0 0,8.24 z" transform="translate(-8.136,-410.72104)" id="n1" style="fill:#ffffff;stroke:none" number="1" type="number"></path>
  <path d="m 189.166,466.497 c 0.608,0.368 1.743,0.72 3.088,0.72 2.64,0 4.256,-1.344 4.256,-3.168 0,-1.376 -1.008,-2.32 -2.257,-2.544 l 0,-0.032 c 1.281,-0.432 1.904,-1.312 1.904,-2.416 0,-1.424 -1.231,-2.592 -3.44,-2.592 -1.359,0 -2.591,0.384 -3.216,0.784 l 0.497,1.76 c 0.416,-0.256 1.311,-0.624 2.16,-0.624 1.04,0 1.536,0.464 1.536,1.088 0,0.88 -1.025,1.2 -1.841,1.2 l -0.959,0 0,1.744 0.991,0 c 1.072,0 2.097,0.464 2.097,1.504 0,0.768 -0.64,1.376 -1.904,1.376 -0.993,0 -1.984,-0.4 -2.416,-0.64 l -0.496,1.84 z" transform="translate(-8.136,-410.72104)" id="n3" style="fill:#ffffff;stroke:none" number="3" type="number"></path>
  <path d="m 167.744,438.254 0,-2.001 -3.936,0 0,-0.031 0.96,-0.801 c 1.52,-1.343 2.768,-2.736 2.768,-4.495 0,-1.872 -1.28,-3.248 -3.648,-3.248 -1.392,0 -2.624,0.48 -3.392,1.072 l 0.688,1.728 c 0.544,-0.4 1.328,-0.848 2.224,-0.848 1.2,0 1.696,0.671 1.696,1.52 -0.016,1.216 -1.12,2.384 -3.408,4.432 l -1.328,1.199 0,1.473 7.376,0 z" transform="translate(-8.136,-410.72104)" id="n2" style="fill:#ffffff;stroke:none" number="2" type="number"></path>
  <path d="m 195.678,438.166 0,-2.48 1.232,0 0,-1.824 -1.232,0 0,-6.096 -2.992,0 -3.92,6.336 0,1.584 4.608,0 0,2.48 2.304,0 z m -4.656,-4.304 0.016,-0.032 1.375,-2.272 c 0.353,-0.656 0.641,-1.264 0.977,-1.936 l 0.048,0 c -0.032,0.672 -0.064,1.312 -0.064,1.936 l 0,2.304 -2.352,0 z" transform="translate(-8.136,-410.72104)" id="n4" style="fill:#ffffff;stroke:none" number="4" type="number"></path>
</svg>