<svg xmlns:dc="http://purl.org/dc/elements/1.1/" xmlns:cc="http://creativecommons.org/ns#" xmlns:rdf="http://www.w3.org/1999/02/22-rdf-syntax-ns#" xmlns:svg="http://www.w3.org/2000/svg" xmlns="http://www.w3.org/2000/svg" version="1.1" width="1090.9489" height="160.29921" viewBox="0 0 30789.002 4524" id="svg7187" xml:space="preserve" style="fill-rule:evenodd"><metadata id="metadata7371"><rdf:rdf><cc:work rdf:about=""><dc:format>image/svg+xml</dc:format><dc:type rdf:resource="http://purl.org/dc/dcmitype/StillImage"></dc:type><dc:title></dc:title></cc:work></rdf:rdf></metadata><defs id="defs7369">
 </defs>
 <path d="m 570,11749 28432,0 c 44,0 79,36 79,79 l 0,3958 c 0,44 -36,79 -79,79 l -28432,0 c -44,0 -79,-36 -79,-79 l 0,-3958 c 0,-44 36,-79 79,-79 z m 0,-204 28432,0 c 156,0 283,128 283,283 l 0,3958 c 0,156 -128,283 -283,283 l -28432,0 c -156,0 -283,-128 -283,-283 l 0,-3958 c 0,-156 128,-283 283,-283 z" transform="translate(611,-11545)" id="path7191" style="fill:#0275d8"></path><path d="m 2227,11909 628,0 0,311 -628,0 0,-311 z m 0,390 628,0 0,361 c 0,165 -135,300 -300,300 l -28,0 c -165,0 -300,-135 -300,-300 l 0,-361 z m 154,154 0,207 c 0,80 66,146 146,146 l 28,0 c 80,0 146,-66 146,-146 l 0,-207 -320,0 z" transform="translate(611,-11545)" id="path7193" style="fill:none;stroke:#2b2a29;stroke-width:20"></path><path d="m 1885,15866 0,-1224 1832,573 0,652 -1832,0 z m 24269,-4116 1455,0 0,2258 -1455,0 0,-2258 z m -24361,0 0,1831 1402,568 1898,493 56,-2892 -3357,0 z" transform="translate(611,-11545)" id="path7195" style="fill:#f2f4f5"></path><path d="m 29285,12267 379,0 0,73 159,0 0,-282 95,0 0,772 -95,0 0,-282 -159,0 0,73 -379,0 0,-353 z m 598,1122 295,0 0,878 -295,0 -128,260 -470,0 0,-1398 470,0 128,260 z m -598,1186 280,0 0,106 -280,0 0,-106 z m 0,-1592 280,0 0,106 -280,0 0,-106 z m 0,1980 379,0 0,73 159,0 0,-282 95,0 0,772 -95,0 0,-282 -159,0 0,73 -379,0 0,-353 z" transform="translate(611,-11545)" id="path7197" style="fill:#9d9e9e"></path><path d="m 282,12267 -379,0 0,73 -159,0 0,-282 -95,0 0,772 95,0 0,-282 159,0 0,73 379,0 0,-353 z m -598,1122 -295,0 0,878 295,0 128,260 470,0 0,-1398 -470,0 -128,260 z m 598,1186 -280,0 0,106 280,0 0,-106 z m 0,-1592 -280,0 0,106 280,0 0,-106 z m 0,1980 -379,0 0,73 -159,0 0,-282 -95,0 0,772 95,0 0,-282 159,0 0,73 379,0 0,-353 z" transform="translate(611,-11545)" id="path7199" style="fill:#9d9e9e"></path><path d="m 2227,11909 628,0 0,311 -628,0 0,-311 z m 0,390 628,0 0,361 c 0,165 -135,300 -300,300 l -28,0 c -165,0 -300,-135 -300,-300 l 0,-361 z m 154,154 0,207 c 0,80 66,146 146,146 l 28,0 c 80,0 146,-66 146,-146 l 0,-207 -320,0 z" transform="translate(611,-11545)" id="path7201" style="fill:#c2c7cc"></path><path d="m 26575,11909 628,0 0,311 -628,0 0,-311 z m 0,390 628,0 0,361 c 0,165 -135,300 -300,300 l -28,0 c -165,0 -300,-135 -300,-300 l 0,-361 z m 154,154 0,207 c 0,80 66,146 146,146 l 28,0 c 80,0 146,-66 146,-146 l 0,-207 -320,0 z" transform="translate(611,-11545)" id="path7203" style="fill:#c2c7cc"></path><path d="m 6667,15396 -705,0 0,-547 705,0 z" transform="translate(611,-11545)" id="polygon7205" style="fill:none;stroke:#727271;stroke-width:25"></path><path d="m 6347,15265 0,-285 -65,0 0,285 z" transform="translate(611,-11545)" id="polygon7207" style="fill:#727271;fill-rule:nonzero"></path><path d="m 8677,15396 -706,0 0,-547 706,0 z" transform="translate(611,-11545)" id="polygon7209" style="fill:none;stroke:#727271;stroke-width:25"></path><path d="m 8227,14980 0,285 64,0 0,-285 -64,0 z m 129,0 0,285 64,0 0,-285 -64,0 z" transform="translate(611,-11545)" id="path7211" style="fill:#727271;fill-rule:nonzero"></path><path d="m 10793,15396 -705,0 0,-547 705,0 z" transform="translate(611,-11545)" id="polygon7213" style="fill:none;stroke:#727271;stroke-width:25"></path><path d="m 10279,14980 0,285 64,0 0,-285 -64,0 z m 129,0 0,285 64,0 0,-285 -64,0 z m 129,0 0,285 64,0 0,-285 -64,0 z" transform="translate(611,-11545)" id="path7215" style="fill:#727271;fill-rule:nonzero"></path><path d="m 12922,15396 -706,0 0,-547 706,0 z" transform="translate(611,-11545)" id="polygon7217" style="fill:none;stroke:#727271;stroke-width:25"></path><path d="m 12385,14980 0,285 64,0 0,-285 -64,0 z m 271,285 96,-285 -69,0 -36,122 c -10,33 -19,66 -26,101 l -1,0 c -7,-36 -16,-68 -25,-102 l -35,-121 -71,0 91,285 75,0 z" transform="translate(611,-11545)" id="path7219" style="fill:#727271;fill-rule:nonzero"></path><path d="m 15000,15396 -705,0 0,-547 705,0 z" transform="translate(611,-11545)" id="polygon7221" style="fill:none;stroke:#727271;stroke-width:25"></path><path d="m 14683,15265 96,-285 -69,0 -36,122 c -10,33 -19,66 -26,101 l -1,0 c -7,-36 -16,-68 -25,-102 l -35,-121 -71,0 91,285 75,0 z" transform="translate(611,-11545)" id="path7223" style="fill:#727271;fill-rule:nonzero"></path><path d="m 17089,15396 -705,0 0,-547 705,0 z" transform="translate(611,-11545)" id="polygon7225" style="fill:none;stroke:#727271;stroke-width:25"></path><path d="m 16720,15265 96,-285 -69,0 -36,122 c -10,33 -19,66 -26,101 l -1,0 c -7,-36 -16,-68 -25,-102 l -35,-121 -71,0 91,285 75,0 z m 135,-285 0,285 64,0 0,-285 -64,0 z" transform="translate(611,-11545)" id="path7227" style="fill:#727271;fill-rule:nonzero"></path><path d="m 19216,15396 -706,0 0,-547 706,0 z" transform="translate(611,-11545)" id="polygon7229" style="fill:none;stroke:#727271;stroke-width:25"></path><path d="m 18782,15265 96,-285 -69,0 -36,122 c -10,33 -19,66 -26,101 l -1,0 c -7,-36 -16,-68 -25,-102 l -35,-121 -71,0 91,285 75,0 z m 135,-285 0,285 64,0 0,-285 -64,0 z m 129,0 0,285 64,0 0,-285 -64,0 z" transform="translate(611,-11545)" id="path7231" style="fill:#727271;fill-rule:nonzero"></path><path d="m 21306,15396 -706,0 0,-547 706,0 z" transform="translate(611,-11545)" id="polygon7233" style="fill:none;stroke:#727271;stroke-width:25"></path><path d="m 20808,15265 96,-285 -69,0 -36,122 c -10,33 -19,66 -26,101 l -1,0 c -7,-36 -16,-68 -25,-102 l -35,-121 -71,0 91,285 75,0 z m 135,-285 0,285 64,0 0,-285 -64,0 z m 129,0 0,285 64,0 0,-285 -64,0 z m 129,0 0,285 64,0 0,-285 -64,0 z" transform="translate(611,-11545)" id="path7235" style="fill:#727271;fill-rule:nonzero"></path><path d="m 23381,15396 -705,0 0,-547 705,0 z" transform="translate(611,-11545)" id="polygon7237" style="fill:none;stroke:#727271;stroke-width:25"></path><path d="m 22852,14980 0,285 64,0 0,-285 -64,0 z m 353,285 -85,-146 80,-139 -74,0 -24,52 c -7,17 -13,29 -19,47 l -1,0 c -7,-16 -13,-30 -22,-47 l -25,-52 -74,0 80,141 -83,144 74,0 23,-52 c 9,-20 17,-35 22,-51 l 1,0 c 8,17 15,31 25,51 l 26,52 75,0 z" transform="translate(611,-11545)" id="path7239" style="fill:#727271;fill-rule:nonzero"></path><path d="m 5386,11904 713,0 c 30,0 54,27 54,60 l 0,2360 c 0,33 -24,60 -54,60 l -713,0 c -30,0 -54,-27 -54,-60 l 0,-2360 c 0,-33 24,-60 54,-60 z" transform="translate(611,-11545)" id="s1" style="fill:#dedfe0"></path><path d="m 6302,11904 713,0 c 30,0 54,27 54,60 l 0,2360 c 0,33 -24,60 -54,60 l -713,0 c -29,0 -54,-27 -54,-60 l 0,-2360 c 0,-33 24,-60 54,-60 z" transform="translate(611,-11545)" id="s2" style="fill:#dedfe0"></path><path d="m 7475,11904 713,0 c 30,0 54,27 54,60 l 0,2360 c 0,33 -24,60 -54,60 l -713,0 c -30,0 -54,-27 -54,-60 l 0,-2360 c 0,-33 24,-60 54,-60 z" transform="translate(611,-11545)" id="s3" style="fill:#dedfe0" number="3" type="seat" hover=""></path><path d="m 8391,11904 713,0 c 30,0 54,27 54,60 l 0,2360 c 0,33 -24,60 -54,60 l -713,0 c -30,0 -54,-27 -54,-60 l 0,-2360 c 0,-33 24,-60 54,-60 z" transform="translate(611,-11545)" id="s4" style="fill:#dedfe0"></path><path d="m 9568,11904 713,0 c 30,0 54,27 54,60 l 0,2360 c 0,33 -24,60 -54,60 l -713,0 c -30,0 -54,-27 -54,-60 l 0,-2360 c 0,-33 24,-60 54,-60 z" transform="translate(611,-11545)" id="s5" style="fill:#dedfe0" number="5" type="seat"></path><path d="m 10484,11904 713,0 c 30,0 54,27 54,60 l 0,2360 c 0,33 -24,60 -54,60 l -713,0 c -30,0 -54,-27 -54,-60 l 0,-2360 c 0,-33 24,-60 54,-60 z" transform="translate(611,-11545)" id="s6" style="fill:#dedfe0" number="6" type="seat" hover=""></path><path d="m 11692,11904 713,0 c 30,0 54,27 54,60 l 0,2360 c 0,33 -24,60 -54,60 l -713,0 c -30,0 -54,-27 -54,-60 l 0,-2360 c 0,-33 24,-60 54,-60 z" transform="translate(611,-11545)" id="s7" style="fill:#dedfe0" number="7" type="seat"></path><path d="m 12608,11904 713,0 c 30,0 54,27 54,60 l 0,2360 c 0,33 -24,60 -54,60 l -713,0 c -30,0 -54,-27 -54,-60 l 0,-2360 c 0,-33 24,-60 54,-60 z" transform="translate(611,-11545)" id="s8" style="fill:#dedfe0" number="8" type="seat"></path><path d="m 13781,11904 713,0 c 30,0 54,27 54,60 l 0,2360 c 0,33 -24,60 -54,60 l -713,0 c -30,0 -54,-27 -54,-60 l 0,-2360 c 0,-33 24,-60 54,-60 z" transform="translate(611,-11545)" id="s9" style="fill:#dedfe0" number="9" type="seat"></path><path d="m 14697,11904 713,0 c 30,0 54,27 54,60 l 0,2360 c 0,33 -24,60 -54,60 l -713,0 c -30,0 -54,-27 -54,-60 l 0,-2360 c 0,-33 24,-60 54,-60 z" transform="translate(611,-11545)" id="s10" style="fill:#dedfe0" number="10" type="seat"></path><path d="m 15881,11904 713,0 c 30,0 54,27 54,60 l 0,2360 c 0,33 -24,60 -54,60 l -713,0 c -30,0 -54,-27 -54,-60 l 0,-2360 c 0,-33 24,-60 54,-60 z" transform="translate(611,-11545)" id="s11" style="fill:#dedfe0" number="11" type="seat"></path><path d="m 16797,11904 713,0 c 30,0 54,27 54,60 l 0,2360 c 0,33 -24,60 -54,60 l -713,0 c -30,0 -54,-27 -54,-60 l 0,-2360 c 0,-33 24,-60 54,-60 z" transform="translate(611,-11545)" id="s12" style="fill:#dedfe0" number="12" type="seat"></path><path d="m 17982,11904 713,0 c 30,0 54,27 54,60 l 0,2360 c 0,33 -24,60 -54,60 l -713,0 c -30,0 -54,-27 -54,-60 l 0,-2360 c 0,-33 24,-60 54,-60 z" transform="translate(611,-11545)" id="s13" style="fill:#dedfe0" number="13" type="seat"></path><path d="m 18898,11904 713,0 c 30,0 54,27 54,60 l 0,2360 c 0,33 -24,60 -54,60 l -713,0 c -30,0 -54,-27 -54,-60 l 0,-2360 c 0,-33 24,-60 54,-60 z" transform="translate(611,-11545)" id="s14" style="fill:#dedfe0" number="14" type="seat"></path><path d="m 20082,11904 713,0 c 30,0 54,27 54,60 l 0,2360 c 0,33 -24,60 -54,60 l -713,0 c -30,0 -54,-27 -54,-60 l 0,-2360 c 0,-33 24,-60 54,-60 z" transform="translate(611,-11545)" id="s15" style="fill:#dedfe0"></path><path d="m 20998,11904 713,0 c 30,0 54,27 54,60 l 0,2360 c 0,33 -24,60 -54,60 l -713,0 c -30,0 -54,-27 -54,-60 l 0,-2360 c 0,-33 24,-60 54,-60 z" transform="translate(611,-11545)" id="s16" style="fill:#dedfe0"></path><path d="m 22183,11904 713,0 c 30,0 54,27 54,60 l 0,2360 c 0,33 -24,60 -54,60 l -713,0 c -30,0 -54,-27 -54,-60 l 0,-2360 c 0,-33 24,-60 54,-60 z" transform="translate(611,-11545)" id="s17" style="fill:#dedfe0" number="17" type="seat"></path><path d="m 23099,11904 713,0 c 30,0 54,27 54,60 l 0,2360 c 0,33 -24,60 -54,60 l -713,0 c -30,0 -54,-27 -54,-60 l 0,-2360 c 0,-33 24,-60 54,-60 z" transform="translate(611,-11545)" id="s18" style="fill:#dedfe0" number="18" type="seat"></path><path d="m 5485,14147 510.199,0 0,59.54 -510.199,0 z" transform="translate(611,-11545)" id="p1" style="fill:#9d9e9e"></path><path d="m 6405,14147 510.199,0 0,59.54 -510.199,0 z" transform="translate(611,-11545)" id="p2" style="fill:#9d9e9e"></path><path d="m 7585,14147 510.199,0 0,59.54 -510.199,0 z" transform="translate(611,-11545)" id="p3" style="fill:#9d9e9e" number="3" type="shelve" hover=""></path><path d="m 8506,14147 510.199,0 0,59.54 -510.199,0 z" transform="translate(611,-11545)" id="p4" style="fill:#9d9e9e"></path><path d="m 9665,14147 510.199,0 0,59.54 -510.199,0 z" transform="translate(611,-11545)" id="p5" style="fill:#9d9e9e" number="5" type="shelve"></path><path d="m 10585,14147 510.199,0 0,59.54 -510.199,0 z" transform="translate(611,-11545)" id="p6" style="fill:#9d9e9e" number="6" type="shelve" hover=""></path><path d="m 11794,14147 510.199,0 0,59.54 -510.199,0 z" transform="translate(611,-11545)" id="p7" style="fill:#9d9e9e" number="7" type="shelve"></path><path d="m 12714,14147 510.199,0 0,59.54 -510.199,0 z" transform="translate(611,-11545)" id="p8" style="fill:#9d9e9e" number="8" type="shelve"></path><path d="m 13878,14147 510.199,0 0,59.54 -510.199,0 z" transform="translate(611,-11545)" id="p9" style="fill:#9d9e9e" number="9" type="shelve"></path><path d="m 14798,14147 510.199,0 0,59.54 -510.199,0 z" transform="translate(611,-11545)" id="p10" style="fill:#9d9e9e" number="10" type="shelve"></path><path d="m 15971,14147 510.199,0 0,59.54 -510.199,0 z" transform="translate(611,-11545)" id="p11" style="fill:#9d9e9e" number="11" type="shelve"></path><path d="m 16891,14147 510.199,0 0,59.54 -510.199,0 z" transform="translate(611,-11545)" id="p12" style="fill:#9d9e9e" number="12" type="shelve"></path><path d="m 18082,14147 510.199,0 0,59.54 -510.199,0 z" transform="translate(611,-11545)" id="p13" style="fill:#9d9e9e" number="13" type="shelve"></path><path d="m 19002,14147 510.199,0 0,59.54 -510.199,0 z" transform="translate(611,-11545)" id="p14" style="fill:#9d9e9e" number="14" type="shelve"></path><path d="m 20184,14147 510.199,0 0,59.54 -510.199,0 z" transform="translate(611,-11545)" id="p15" style="fill:#9d9e9e"></path><path d="m 21104,14147 510.199,0 0,59.54 -510.199,0 z" transform="translate(611,-11545)" id="p16" style="fill:#9d9e9e"></path><path d="m 22286,14147 510.199,0 0,59.54 -510.199,0 z" transform="translate(611,-11545)" id="p17" style="fill:#9d9e9e" number="17" type="shelve"></path><path d="m 23206,14147 510.199,0 0,59.54 -510.199,0 z" transform="translate(611,-11545)" id="p18" style="fill:#9d9e9e" number="18" type="shelve"></path><path d="m 22348,13327 83,0 0,-367 -71,0 -98,45 14,64 70,-33 1,0 0,291 z m 208,-367 0,71 168,0 0,1 -151,295 91,0 151,-313 0,-54 -259,0 z" transform="translate(611,-11545)" id="n17" style="fill:#fefefe;fill-rule:nonzero" number="17" type="number"></path><path d="m 23260,13327 83,0 0,-367 -71,0 -98,45 14,64 70,-33 1,0 0,291 z m 264,-188 c -40,18 -65,48 -65,92 0,50 43,102 136,102 85,0 141,-45 141,-112 0,-47 -32,-77 -68,-91 l 0,-2 c 37,-18 54,-49 54,-81 0,-45 -36,-94 -121,-94 -73,0 -129,41 -129,103 0,32 18,62 53,81 l 0,1 z m 74,135 c -32,0 -52,-25 -52,-51 0,-27 16,-47 45,-55 33,9 58,28 58,60 0,26 -20,46 -50,46 z m -2,-262 c 32,0 45,23 45,46 0,23 -18,41 -37,46 -29,-9 -51,-25 -51,-50 0,-23 15,-42 44,-42 z" transform="translate(611,-11545)" id="n18" style="fill:#fefefe;fill-rule:nonzero" number="18" type="number"></path><path d="m 20250,13324 83,0 0,-367 -71,0 -98,45 14,64 70,-33 1,0 0,291 z m 449,-367 -202,0 -24,192 c 15,-2 29,-3 49,-3 73,0 103,23 103,61 0,39 -38,56 -73,56 -33,0 -67,-10 -82,-18 l -16,64 c 20,11 58,21 102,21 99,0 157,-60 157,-129 0,-43 -17,-73 -45,-92 -25,-19 -62,-27 -97,-27 -9,0 -16,0 -24,1 l 8,-56 142,0 0,-71 z" transform="translate(611,-11545)" id="n15" style="fill:#fefefe;fill-rule:nonzero"></path><path d="m 21158,13327 83,0 0,-367 -71,0 -98,45 14,64 70,-33 1,0 0,291 z m 438,-372 c -8,-1 -19,-1 -34,1 -57,3 -105,20 -141,54 -40,37 -65,95 -65,164 0,87 48,160 146,160 79,0 135,-60 135,-133 0,-76 -52,-120 -113,-120 -34,0 -60,11 -78,29 l -2,0 c 10,-42 43,-81 120,-87 14,-1 24,-2 33,-1 l 0,-66 z m -96,315 c -40,0 -58,-35 -60,-74 0,-10 1,-17 4,-22 8,-18 27,-32 50,-32 37,0 55,29 55,63 0,37 -19,65 -49,65 z" transform="translate(611,-11545)" id="n16" style="fill:#fefefe;fill-rule:nonzero"></path><path d="m 18151,13327 83,0 0,-367 -71,0 -98,45 14,64 70,-33 1,0 0,291 z m 202,-19 c 21,13 62,25 109,25 93,0 150,-47 150,-112 0,-49 -36,-82 -80,-90 l 0,-1 c 45,-15 67,-46 67,-85 0,-50 -43,-91 -121,-91 -48,0 -91,14 -113,28 l 18,62 c 15,-9 46,-22 76,-22 37,0 54,16 54,38 0,31 -36,42 -65,42 l -34,0 0,62 35,0 c 38,0 74,16 74,53 0,27 -23,49 -67,49 -35,0 -70,-14 -85,-23 l -18,65 z" transform="translate(611,-11545)" id="n13" style="fill:#fefefe;fill-rule:nonzero" number="13" type="number"></path><path d="m 19057,13327 83,0 0,-367 -71,0 -98,45 14,64 70,-33 1,0 0,291 z m 437,0 0,-87 43,0 0,-64 -43,0 0,-215 -106,0 -138,224 0,56 163,0 0,87 81,0 z m -164,-152 1,-1 49,-80 c 12,-23 23,-45 34,-68 l 2,0 c -1,24 -2,46 -2,68 l 0,81 -83,0 z" transform="translate(611,-11545)" id="n14" style="fill:#fefefe;fill-rule:nonzero" number="14" type="number"></path><path d="m 16082,13327 83,0 0,-367 -71,0 -98,45 14,64 70,-33 1,0 0,291 z m 313,0 83,0 0,-367 -71,0 -98,45 14,64 70,-33 1,0 0,291 z" transform="translate(611,-11545)" id="n11" style="fill:#fefefe;fill-rule:nonzero" number="11" type="number"></path><path d="m 16964,13330 83,0 0,-367 -71,0 -98,45 14,64 70,-33 1,0 0,291 z m 465,0 0,-71 -139,0 0,-1 34,-28 c 54,-47 98,-97 98,-159 0,-66 -45,-115 -129,-115 -49,0 -93,17 -120,38 l 24,61 c 19,-14 47,-30 78,-30 42,0 60,24 60,54 -1,43 -40,84 -120,156 l -47,42 0,52 260,0 z" transform="translate(611,-11545)" id="n12" style="fill:#fefefe;fill-rule:nonzero" number="12" type="number"></path><path d="m 14032,13332 c 10,1 25,1 39,0 57,-2 106,-19 141,-51 40,-37 64,-93 64,-169 0,-86 -45,-158 -139,-158 -81,0 -138,60 -138,132 0,72 52,115 114,115 33,0 58,-10 74,-27 l 1,1 c -6,28 -22,52 -46,68 -19,14 -46,21 -72,23 -17,1 -26,1 -37,0 l 0,67 z m 102,-316 c 40,0 55,38 54,77 0,11 -1,16 -4,22 -8,13 -24,24 -48,24 -34,0 -52,-27 -52,-59 0,-38 21,-64 50,-64 z" transform="translate(611,-11545)" id="n9" style="fill:#fefefe;fill-rule:nonzero" number="9" type="number"></path><path d="m 14859,13327 83,0 0,-367 -71,0 -98,45 14,64 70,-33 1,0 0,291 z m 338,-373 c -95,0 -139,84 -139,190 1,104 42,189 137,189 93,0 139,-78 139,-191 0,-100 -39,-188 -137,-188 z m -1,65 c 34,0 52,43 52,124 0,84 -18,125 -51,125 -33,0 -53,-40 -53,-124 0,-86 21,-125 52,-125 z" transform="translate(611,-11545)" id="n10" style="fill:#fefefe;fill-rule:nonzero" number="10" type="number"></path><path d="m 12088,13031 0,1 -152,295 91,0 151,-313 0,-54 -259,0 0,71 z" transform="translate(611,-11545)" id="n7" style="fill:#fefefe;fill-rule:nonzero" number="7" type="number"></path><path d="m 12892,13139 c -40,18 -65,48 -65,92 0,50 43,102 136,102 85,0 141,-45 141,-112 0,-47 -32,-77 -68,-91 l 0,-2 c 37,-18 54,-49 54,-81 0,-45 -36,-94 -121,-94 -73,0 -129,41 -129,103 0,32 18,62 53,81 l 0,1 z m 74,135 c -32,0 -52,-25 -52,-51 0,-27 16,-47 45,-55 33,9 58,28 58,60 0,26 -20,46 -50,46 z m -2,-262 c 32,0 45,23 45,46 0,23 -18,41 -37,46 -29,-9 -51,-25 -51,-50 0,-23 15,-42 44,-42 z" transform="translate(611,-11545)" id="n8" style="fill:#fefefe;fill-rule:nonzero" number="8" type="number"></path><path d="m 10040,12957 -202,0 -24,192 c 15,-2 29,-3 49,-3 73,0 103,23 103,61 0,39 -38,56 -73,56 -33,0 -67,-10 -82,-18 l -16,64 c 20,11 58,21 102,21 99,0 157,-60 157,-129 0,-43 -17,-73 -45,-92 -25,-19 -62,-27 -97,-27 -9,0 -16,0 -24,1 l 8,-56 142,0 0,-71 z" transform="translate(611,-11545)" id="n5" style="fill:#fefefe;fill-rule:nonzero" number="5" type="number"></path><path d="m 10941,12955 c -8,-1 -19,-1 -34,1 -57,3 -105,20 -141,54 -40,37 -65,95 -65,164 0,87 48,160 146,160 79,0 135,-60 135,-133 0,-76 -52,-120 -113,-120 -34,0 -60,11 -78,29 l -2,0 c 10,-42 43,-81 120,-87 14,-1 24,-2 33,-1 l 0,-66 z m -96,315 c -40,0 -58,-35 -60,-74 0,-10 1,-17 4,-22 8,-18 27,-32 50,-32 37,0 55,29 55,63 0,37 -19,65 -49,65 z" transform="translate(611,-11545)" id="n6" style="fill:#fefefe;fill-rule:nonzero" number="6" type="number" hover=""></path><path d="m 7702,13308 c 21,13 62,25 109,25 93,0 150,-47 150,-112 0,-49 -36,-82 -80,-90 l 0,-1 c 45,-15 67,-46 67,-85 0,-50 -43,-91 -121,-91 -48,0 -91,14 -113,28 l 18,62 c 15,-9 46,-22 76,-22 37,0 54,16 54,38 0,31 -36,42 -65,42 l -34,0 0,62 35,0 c 38,0 74,16 74,53 0,27 -23,49 -67,49 -35,0 -70,-14 -85,-23 l -18,65 z" transform="translate(611,-11545)" id="n3" style="fill:#fefefe;fill-rule:nonzero" number="3" type="number" hover=""></path><path d="m 8848,13327 0,-87 43,0 0,-64 -43,0 0,-215 -106,0 -138,224 0,56 163,0 0,87 81,0 z m -164,-152 1,-1 49,-80 c 12,-23 23,-45 34,-68 l 2,0 c -1,24 -2,46 -2,68 l 0,81 -83,0 z" transform="translate(611,-11545)" id="n4" style="fill:#fefefe;fill-rule:nonzero"></path><path d="m 5827,12960 -70,0 -98,45 14,65 70,-34 1,0 0,291 83,0 z" transform="translate(611,-11545)" id="n1" style="fill:#fefefe;fill-rule:nonzero"></path><path d="m 6789,13330 0,-71 -139,0 0,-1 34,-28 c 54,-47 98,-97 98,-159 0,-66 -45,-115 -129,-115 -49,0 -93,17 -120,38 l 24,61 c 19,-14 47,-30 78,-30 42,0 60,24 60,54 -1,43 -40,84 -120,156 l -47,42 0,52 260,0 z" transform="translate(611,-11545)" id="n2" style="fill:#fefefe;fill-rule:nonzero"></path><path d="m 24289,11904 713,0 c 30,0 54,27 54,60 l 0,2360 c 0,33 -24,60 -54,60 l -713,0 c -30,0 -54,-27 -54,-60 l 0,-2360 c 0,-33 24,-60 54,-60 z" transform="translate(611,-11545)" id="s19" style="fill:#dedfe0"></path><path d="m 25205,11904 713,0 c 30,0 54,27 54,60 l 0,2360 c 0,33 -24,60 -54,60 l -713,0 c -30,0 -54,-27 -54,-60 l 0,-2360 c 0,-33 24,-60 54,-60 z" transform="translate(611,-11545)" id="s20" style="fill:#dedfe0"></path><path d="m 24392,14147 510.199,0 0,59.54 -510.199,0 z" transform="translate(611,-11545)" id="p19" style="fill:#9d9e9e"></path><path d="m 25312,14147 510.199,0 0,59.54 -510.199,0 z" transform="translate(611,-11545)" id="p20" style="fill:#9d9e9e"></path><path d="m 24451,13327 83,0 0,-367 -71,0 -98,45 14,64 70,-33 1,0 0,291 z m 230,5 c 10,1 25,1 39,0 57,-2 106,-19 141,-51 40,-37 64,-93 64,-169 0,-86 -45,-158 -139,-158 -81,0 -138,60 -138,132 0,72 52,115 114,115 33,0 58,-10 74,-27 l 1,1 c -6,28 -22,52 -46,68 -19,14 -46,21 -72,23 -17,1 -26,1 -37,0 l 0,67 z m 102,-316 c 40,0 55,38 54,77 0,11 -1,16 -4,22 -8,13 -24,24 -48,24 -34,0 -52,-27 -52,-59 0,-38 21,-64 50,-64 z" transform="translate(611,-11545)" id="n19" style="fill:#fefefe;fill-rule:nonzero"></path><path d="m 25530,13327 0,-71 -139,0 0,-1 34,-28 c 54,-47 98,-97 98,-159 0,-66 -45,-115 -129,-115 -49,0 -93,17 -120,38 l 24,61 c 19,-14 47,-30 78,-30 42,0 60,24 60,54 -1,43 -40,84 -120,156 l -47,42 0,52 260,0 z m 187,-373 c -95,0 -139,84 -139,190 1,104 42,189 137,189 93,0 139,-78 139,-191 0,-100 -39,-188 -137,-188 z m -1,65 c 34,0 52,43 52,124 0,84 -18,125 -51,125 -33,0 -53,-40 -53,-124 0,-86 21,-125 52,-125 z" transform="translate(611,-11545)" id="n20" style="fill:#fefefe;fill-rule:nonzero"></path><path d="m 17032,14556 672,0 0,-2799 93,0 0,2799 731,0 0,93 c -498,0 -997,0 -1495,0 l 0,-93 z m -13763,-2807 0,2399 -93,0 0,-2399 93,0 z m 1898,2799 731,0 0,93 -823,0 0,-2892 93,0 0,2799 z m 1377,0 658,0 0,-2799 93,0 0,2799 724,0 0,93 c -492,0 -983,0 -1475,0 l 0,-93 z m 2092,0 652,0 0,-2799 93,0 0,2799 744,0 0,93 c -496,0 -992,0 -1488,0 l 0,-93 z m 2105,0 665,0 0,-2799 93,0 0,2799 731,0 0,93 c -496,0 -992,0 -1488,0 l 0,-93 z m 2122,0 652,0 0,-2799 93,0 0,2799 724,0 0,93 c -489,0 -979,0 -1468,0 l 0,-93 z m 2059,0 672,0 0,-2799 93,0 0,2799 731,0 0,93 c -498,0 -997,0 -1495,0 l 0,-93 z m 4230,0 645,0 0,-2799 93,0 0,2799 734,0 0,93 c -491,0 -981,0 -1472,0 l 0,-93 z m 2079,0 661,0 0,-2799 93,0 0,2799 744,0 0,93 c -499,0 -999,0 -1498,0 l 0,-93 z m 2105,0 652,0 0,-2799 93,0 0,2799 698,0 0,93 c -481,0 -961,0 -1442,0 l 0,-93 z m 2069,0 698,0 0,-2799 93,0 0,2892 -790,0 0,-93 z m 2278,-2799 0,2317 -93,0 0,-2317 93,0 z m 0,3481 0,635 -93,0 0,-635 93,0 z m -23984,-13 93,0 0,648 -93,0 0,-648 z m -1925,-576 93,0 0,1224 -93,0 0,-1224 z m 93,-2892 0,1834 -93,0 0,-1834 93,0 z" transform="translate(611,-11545)" id="path7361" style="fill:#0275d8"></path><path d="m 25416,15396 -706,0 0,-547 706,0 z" transform="translate(611,-11545)" id="polygon7363" style="fill:none;stroke:#727271;stroke-width:25"></path><path d="m 25186,15265 -85,-146 80,-139 -74,0 -24,52 c -7,17 -13,29 -19,47 l -1,0 c -7,-16 -13,-30 -22,-47 l -25,-52 -74,0 80,141 -83,144 74,0 23,-52 c 9,-20 17,-35 22,-51 l 1,0 c 8,17 15,31 25,51 l 26,52 75,0 z" transform="translate(611,-11545)" id="path7365" style="fill:#727271;fill-rule:nonzero"></path>
</svg>