<svg xmlns:dc="http://purl.org/dc/elements/1.1/" xmlns:cc="http://creativecommons.org/ns#" xmlns:rdf="http://www.w3.org/1999/02/22-rdf-syntax-ns#" xmlns:svg="http://www.w3.org/2000/svg" xmlns="http://www.w3.org/2000/svg" version="1.1" width="1057.0303" height="160.3125" viewBox="0 0 845.62425 128.24999" id="svg2985" style="fill-rule:evenodd">
  <metadata id="metadata3363">
    <rdf:rdf>
      <cc:work rdf:about="">
        <dc:format>image/svg+xml</dc:format>
        <dc:type rdf:resource="http://purl.org/dc/dcmitype/StillImage"></dc:type>
        <dc:title></dc:title>
      </cc:work>
    </rdf:rdf>
  </metadata>
  <defs id="defs3361"></defs>
  <path d="m 100.122,657.165 2.625,0 0,39.187 -2.625,0 0,-39.187 z m 0,-77.497 2.625,0 0,39.187 -2.625,0 0,-39.187 z" transform="translate(-9.82375,-573.88504)" id="path2991" style="fill:#0275d8;stroke:none"></path>
  <path d="m 102.747,662.58 59.016,0 0,33.772 -59.016,0 0,-33.772 z" transform="translate(-9.82375,-573.88504)" id="path2993" style="fill:#f0f4f5;stroke:none"></path>
  <path d="m 102.747,579.668 59.11,0 0,36.693 -59.11,0 0,-36.693 z" transform="translate(-9.82375,-573.88504)" id="path2995" style="fill:#f0f4f5;stroke:none"></path>
  <path d="m 701.998,665.016 60.236,0 0,31.336 -60.236,0 0,-31.336 z" transform="translate(-9.82375,-573.88504)" id="path2997" style="fill:#f0f4f5;stroke:none"></path>
  <path d="m 701.998,579.668 60.048,0 0,32.848 -60.048,0 0,-32.848 z" transform="translate(-9.82375,-573.88504)" id="path2999" style="fill:#f0f4f5;stroke:none"></path>
  <path d="m 43.1688,579.668 778.9342,0 c 1.238,0 2.251,1.013 2.251,2.25 l 0,112.184 c 0,1.237 -1.014,2.25 -2.251,2.25 l -778.9342,0 c -1.237,0 -2.2501,-1.013 -2.2501,-2.25 l 0,-112.184 c 0,-1.237 1.0125,-2.25 2.2501,-2.25 z m 0,-5.783 778.9342,0 c 4.418,0 8.033,3.616 8.033,8.033 l 0,112.184 c 0,4.417 -3.615,8.033 -8.033,8.033 l -778.9342,0 c -4.4175,0 -8.0328,-3.615 -8.0328,-8.033 l 0,-112.184 c 0,-4.418 3.6147,-8.033 8.0328,-8.033 z" transform="translate(-9.82375,-573.88504)" id="path3001" style="fill:#0275d8;stroke:none"></path>
  <path d="m 830.136,594.336 10.749,0 0,2.062 4.501,0 0,-8 2.688,0 0,21.875 -2.688,0 0,-8 -4.501,0 0,2.063 -10.749,0 0,-10 z m 2.883,19.306 1.5,-0.851 1.5,0.851 1.5,-0.851 1.5,0.851 1.5,-0.851 1.5,0.851 1.5,-0.851 1.5,0.851 0,0.76 1.992,0 0,7.688 -1.933,0 1.995,4.058 8.375,0 0,24.875 -8.375,0 -1.446,2.942 1.384,0 0,7.687 -1.992,0 0,0.726 -1.5,0.851 -1.5,-0.851 -1.5,0.851 -1.5,-0.851 -1.5,0.851 -0.792,-0.449 -1.416,0 -0.792,0.449 -0.792,-0.449 -3.591,0 0,-1.128 0,-1.873 0,-1.381 0,-4.433 0,-31.875 0,-3.317 0,-1.133 0,-3.001 0,-0.237 2.883,0 0,-0.76 z m -2.883,57.132 10.749,0 0,2.062 4.501,0 0,-8 2.688,0 0,21.875 -2.688,0 0,-8 -4.501,0 0,2.063 -10.749,0 0,-10 z" transform="translate(-9.82375,-573.88504)" id="path3003" style="fill:#9d9e9e;stroke:none"></path>
  <path d="m 699.373,657.165 2.625,0 0,39.187 -2.625,0 0,-39.187 z m 0,-77.497 2.625,0 0,39.187 -2.625,0 0,-39.187 z" transform="translate(-9.82375,-573.88504)" id="path3005" style="fill:#0275d8;stroke:none"></path>
  <path d="m 209.153,656.116 10.312,0 0,40.236 -10.312,0 0,-40.236 z" transform="translate(-9.82375,-573.88504)" id="path3007" style="fill:#9d9e9e;stroke:none"></path>
  <path d="m 641.716,579.668 10.688,0 0,39.188 -10.688,0 0,-39.188 z" transform="translate(-9.82375,-573.88504)" id="path3009" style="fill:#9d9e9e;stroke:none"></path>
  <path d="m 177.98,627.746 14.437,0 0,-2.25 -10.781,0 0,-2.051 c -1.332,-0.061 -3.852,0.407 -4.235,-0.936 -1.176,-4.12 -1.189,-13.369 0.157,-13.971 0.537,-0.239 0.405,-1.63 0.41,-2.156 l 14.449,0 0,-2.25 -14.437,0 0,1.114 c -1.746,0 -3.619,-0.355 -4.121,1.886 -1.311,5.855 -1.149,11.637 0,17.25 0.315,1.542 2.197,1.986 4.121,2.089 l 0,1.275 z" transform="translate(-9.82375,-573.88504)" id="path3011" style="fill:#9d9e9e;stroke:none"></path>
  <path d="m 215.107,627.746 14.438,0 0,-2.25 -10.782,0 0,-2.051 c -1.331,-0.061 -3.851,0.407 -4.234,-0.936 -1.176,-4.12 -1.19,-13.369 0.157,-13.971 0.536,-0.239 0.405,-1.63 0.41,-2.156 l 14.449,0 0,-2.25 -14.438,0 0,1.114 c -1.745,0 -3.619,-0.355 -4.12,1.886 -1.311,5.855 -1.15,11.637 0,17.25 0.315,1.542 2.196,1.986 4.12,2.089 l 0,1.275 z" transform="translate(-9.82375,-573.88504)" id="path3013" style="fill:#9d9e9e;stroke:none"></path>
  <path d="m 252.002,627.746 14.437,0 0,-2.25 -10.781,0 0,-2.051 c -1.332,-0.061 -3.852,0.407 -4.235,-0.936 -1.176,-4.12 -1.189,-13.369 0.157,-13.971 0.537,-0.239 0.405,-1.63 0.411,-2.156 l 14.448,0 0,-2.25 -14.437,0 0,1.114 c -1.745,0 -3.619,-0.355 -4.121,1.886 -1.311,5.855 -1.149,11.637 0,17.25 0.315,1.542 2.197,1.986 4.121,2.089 l 0,1.275 z" transform="translate(-9.82375,-573.88504)" id="path3015" style="fill:#9d9e9e;stroke:none"></path>
  <path d="m 288.507,627.746 14.438,0 0,-2.25 -10.782,0 0,-2.051 c -1.332,-0.061 -3.851,0.407 -4.235,-0.936 -1.176,-4.12 -1.189,-13.369 0.157,-13.971 0.537,-0.239 0.405,-1.63 0.411,-2.156 l 14.449,0 0,-2.25 -14.438,0 0,1.114 c -1.745,0 -3.619,-0.355 -4.121,1.886 -1.311,5.855 -1.149,11.637 0,17.25 0.315,1.542 2.197,1.986 4.121,2.089 l 0,1.275 z" transform="translate(-9.82375,-573.88504)" id="path3017" style="fill:#9d9e9e;stroke:none"></path>
  <path d="m 181.636,625.496 12.001,0 c 3.119,0 4.538,-2.553 4.538,-5.672 l 0,-7.77 c 0,-3.118 -1.42,-5.672 -4.538,-5.672 l -1.22,0 -12.421,0 -2.016,0 -0.024,1.257 c -0.004,0.388 -0.131,0.701 -0.308,0.844 -2.076,1.833 -0.966,11.414 -0.247,14.026 0.383,1.343 2.903,0.875 4.235,0.936 l 0,2.051 z" transform="translate(-9.82375,-573.88504)" id="s3" style="fill:#dedfdf;stroke:none" number="3" type="seat"></path>
  <path d="m 218.763,625.496 12.001,0 c 3.12,0 4.539,-2.553 4.539,-5.672 l 0,-7.77 c 0,-3.118 -1.42,-5.672 -4.539,-5.672 l -1.219,0 -12.421,0 -2.017,0 -0.024,1.257 c -0.003,0.388 -0.13,0.701 -0.308,0.844 -2.075,1.833 -0.965,11.414 -0.246,14.026 0.383,1.343 2.903,0.875 4.234,0.936 l 0,2.051 z" transform="translate(-9.82375,-573.88504)" id="s7" style="fill:#dedfdf;stroke:none" number="7" type="seat"></path>
  <path d="m 255.658,625.496 12.001,0 c 3.12,0 4.538,-2.553 4.538,-5.672 l 0,-7.77 c 0,-3.118 -1.419,-5.672 -4.538,-5.672 l -1.22,0 -12.421,0 -2.016,0 -0.024,1.257 c -0.004,0.388 -0.13,0.701 -0.308,0.844 -2.075,1.833 -0.966,11.414 -0.247,14.026 0.383,1.343 2.903,0.875 4.235,0.936 l 0,2.051 z" transform="translate(-9.82375,-573.88504)" id="s11" style="fill:#dedfdf;stroke:none" number="11" type="seat"></path>
  <path d="m 292.163,625.496 12.001,0 c 3.12,0 4.538,-2.553 4.538,-5.672 l 0,-7.77 c 0,-3.118 -1.419,-5.672 -4.538,-5.672 l -1.219,0 -12.422,0 -2.016,0 -0.024,1.257 c -0.004,0.388 -0.13,0.701 -0.308,0.844 -2.075,1.833 -0.966,11.414 -0.247,14.026 0.384,1.343 2.903,0.875 4.235,0.936 l 0,2.051 z" transform="translate(-9.82375,-573.88504)" id="s15" style="fill:#dedfdf;stroke:none" number="15" type="seat"></path>
  <path d="m 177.98,580.183 14.437,0 0,2.251 -10.781,0 0,2.051 c -1.332,0.06 -3.852,-0.407 -4.235,0.936 -1.176,4.12 -1.189,13.369 0.157,13.97 0.537,0.239 0.405,1.63 0.41,2.156 l 14.449,0 0,2.25 -14.437,0 0,-1.114 c -1.746,0 -3.619,0.356 -4.121,-1.886 -1.311,-5.854 -1.149,-11.637 0,-17.25 0.315,-1.542 2.197,-1.986 4.121,-2.089 l 0,-1.275 z" transform="translate(-9.82375,-573.88504)" id="path3027" style="fill:#9d9e9e;stroke:none"></path>
  <path d="m 215.107,580.183 14.438,0 0,2.251 -10.782,0 0,2.051 c -1.331,0.06 -3.851,-0.407 -4.234,0.936 -1.176,4.12 -1.19,13.369 0.157,13.97 0.536,0.239 0.405,1.63 0.41,2.156 l 14.449,0 0,2.25 -14.438,0 0,-1.114 c -1.745,0 -3.619,0.356 -4.12,-1.886 -1.311,-5.854 -1.15,-11.637 0,-17.25 0.315,-1.542 2.196,-1.986 4.12,-2.089 l 0,-1.275 z" transform="translate(-9.82375,-573.88504)" id="path3029" style="fill:#9d9e9e;stroke:none"></path>
  <path d="m 252.002,580.183 14.437,0 0,2.251 -10.781,0 0,2.051 c -1.332,0.06 -3.852,-0.407 -4.235,0.936 -1.176,4.12 -1.189,13.369 0.157,13.97 0.537,0.239 0.405,1.63 0.411,2.156 l 14.448,0 0,2.25 -14.437,0 0,-1.114 c -1.745,0 -3.619,0.356 -4.121,-1.886 -1.311,-5.854 -1.149,-11.637 0,-17.25 0.315,-1.542 2.197,-1.986 4.121,-2.089 l 0,-1.275 z" transform="translate(-9.82375,-573.88504)" id="path3031" style="fill:#9d9e9e;stroke:none"></path>
  <path d="m 288.507,580.183 14.438,0 0,2.251 -10.782,0 0,2.051 c -1.332,0.06 -3.851,-0.407 -4.235,0.936 -1.176,4.12 -1.189,13.369 0.157,13.97 0.537,0.239 0.405,1.63 0.411,2.156 l 14.449,0 0,2.25 -14.438,0 0,-1.114 c -1.745,0 -3.619,0.356 -4.121,-1.886 -1.311,-5.854 -1.149,-11.637 0,-17.25 0.315,-1.542 2.197,-1.986 4.121,-2.089 l 0,-1.275 z" transform="translate(-9.82375,-573.88504)" id="path3033" style="fill:#9d9e9e;stroke:none"></path>
  <path d="m 181.636,582.434 12.001,0 c 3.119,0 4.538,2.553 4.538,5.672 l 0,7.769 c 0,3.119 -1.42,5.672 -4.538,5.672 l -1.22,0 -12.421,0 -2.016,0 -0.024,-1.256 c -0.004,-0.388 -0.131,-0.701 -0.308,-0.844 -2.076,-1.833 -0.966,-11.414 -0.247,-14.026 0.383,-1.343 2.903,-0.876 4.235,-0.936 l 0,-2.051 z" transform="translate(-9.82375,-573.88504)" id="s4" style="fill:#dedfdf;stroke:none" number="4" type="seat"></path>
  <path d="m 218.763,582.434 12.001,0 c 3.12,0 4.539,2.553 4.539,5.672 l 0,7.769 c 0,3.119 -1.42,5.672 -4.539,5.672 l -1.219,0 -12.421,0 -2.017,0 -0.024,-1.256 c -0.003,-0.388 -0.13,-0.701 -0.308,-0.844 -2.075,-1.833 -0.965,-11.414 -0.246,-14.026 0.383,-1.343 2.903,-0.876 4.234,-0.936 l 0,-2.051 z" transform="translate(-9.82375,-573.88504)" id="s8" style="fill:#dedfdf;stroke:none" number="8" type="seat"></path>
  <path d="m 255.658,582.434 12.001,0 c 3.12,0 4.538,2.553 4.538,5.672 l 0,7.769 c 0,3.119 -1.419,5.672 -4.538,5.672 l -1.22,0 -12.421,0 -2.016,0 -0.024,-1.256 c -0.004,-0.388 -0.13,-0.701 -0.308,-0.844 -2.075,-1.833 -0.966,-11.414 -0.247,-14.026 0.383,-1.343 2.903,-0.876 4.235,-0.936 l 0,-2.051 z" transform="translate(-9.82375,-573.88504)" id="s12" style="fill:#dedfdf;stroke:none" number="12" type="seat"></path>
  <path d="m 292.163,582.434 12.001,0 c 3.12,0 4.538,2.553 4.538,5.672 l 0,7.769 c 0,3.119 -1.419,5.672 -4.538,5.672 l -1.219,0 -12.422,0 -2.016,0 -0.024,-1.256 c -0.004,-0.388 -0.13,-0.701 -0.308,-0.844 -2.075,-1.833 -0.966,-11.414 -0.247,-14.026 0.384,-1.343 2.903,-0.876 4.235,-0.936 l 0,-2.051 z" transform="translate(-9.82375,-573.88504)" id="s16" style="fill:#dedfdf;stroke:none" number="16" type="seat"></path>
  <path d="m 324.791,627.746 14.437,0 0,-2.25 -10.781,0 0,-2.051 c -1.332,-0.061 -3.852,0.407 -4.235,-0.936 -1.176,-4.12 -1.189,-13.369 0.157,-13.971 0.536,-0.239 0.405,-1.63 0.41,-2.156 l 14.449,0 0,-2.25 -14.437,0 0,1.114 c -1.746,0 -3.619,-0.355 -4.121,1.886 -1.311,5.855 -1.149,11.637 0,17.25 0.315,1.542 2.196,1.986 4.121,2.089 l 0,1.275 z" transform="translate(-9.82375,-573.88504)" id="path3043" style="fill:#9d9e9e;stroke:none"></path>
  <path d="m 328.447,625.496 12,0 c 3.12,0 4.539,-2.553 4.539,-5.672 l 0,-7.77 c 0,-3.118 -1.42,-5.672 -4.539,-5.672 l -1.219,0 -12.421,0 -2.016,0 -0.025,1.257 c -0.003,0.388 -0.13,0.701 -0.308,0.844 -2.075,1.833 -0.965,11.414 -0.246,14.026 0.383,1.343 2.903,0.875 4.235,0.936 l 0,2.051 z" transform="translate(-9.82375,-573.88504)" id="s19" style="fill:#dedfdf;stroke:none" number="19" type="seat"></path>
  <path d="m 324.791,580.183 14.437,0 0,2.251 -10.781,0 0,2.051 c -1.332,0.06 -3.852,-0.407 -4.235,0.936 -1.176,4.12 -1.189,13.369 0.157,13.97 0.536,0.239 0.405,1.63 0.41,2.156 l 14.449,0 0,2.25 -14.437,0 0,-1.114 c -1.746,0 -3.619,0.356 -4.121,-1.886 -1.311,-5.854 -1.149,-11.637 0,-17.25 0.315,-1.542 2.196,-1.986 4.121,-2.089 l 0,-1.275 z" transform="translate(-9.82375,-573.88504)" id="path3047" style="fill:#9d9e9e;stroke:none"></path>
  <path d="m 328.447,582.434 12,0 c 3.12,0 4.539,2.553 4.539,5.672 l 0,7.769 c 0,3.119 -1.42,5.672 -4.539,5.672 l -1.219,0 -12.421,0 -2.016,0 -0.025,-1.256 c -0.003,-0.388 -0.13,-0.701 -0.308,-0.844 -2.075,-1.833 -0.965,-11.414 -0.246,-14.026 0.383,-1.343 2.903,-0.876 4.235,-0.936 l 0,-2.051 z" transform="translate(-9.82375,-573.88504)" id="s20" style="fill:#dedfdf;stroke:none" number="20" type="seat"></path>
  <path d="m 362.335,627.746 14.438,0 0,-2.25 -10.782,0 0,-2.051 c -1.332,-0.061 -3.851,0.407 -4.235,-0.936 -1.175,-4.12 -1.189,-13.369 0.157,-13.971 0.537,-0.239 0.405,-1.63 0.411,-2.156 l 14.449,0 0,-2.25 -14.438,0 0,1.114 c -1.745,0 -3.619,-0.355 -4.121,1.886 -1.311,5.855 -1.149,11.637 0,17.25 0.315,1.542 2.197,1.986 4.121,2.089 l 0,1.275 z" transform="translate(-9.82375,-573.88504)" id="path3051" style="fill:#9d9e9e;stroke:none"></path>
  <path d="m 398.612,627.746 14.438,0 0,-2.25 -10.781,0 0,-2.051 c -1.332,-0.061 -3.852,0.407 -4.235,-0.936 -1.176,-4.12 -1.19,-13.369 0.157,-13.971 0.536,-0.239 0.405,-1.63 0.41,-2.156 l 14.449,0 0,-2.25 -14.438,0 0,1.114 c -1.745,0 -3.619,-0.355 -4.12,1.886 -1.311,5.855 -1.149,11.637 0,17.25 0.315,1.542 2.196,1.986 4.12,2.089 l 0,1.275 z" transform="translate(-9.82375,-573.88504)" id="path3053" style="fill:#9d9e9e;stroke:none"></path>
  <path d="m 435.507,627.746 14.437,0 0,-2.25 -10.781,0 0,-2.051 c -1.332,-0.061 -3.852,0.407 -4.235,-0.936 -1.176,-4.12 -1.189,-13.369 0.157,-13.971 0.537,-0.239 0.405,-1.63 0.411,-2.156 l 14.448,0 0,-2.25 -14.437,0 0,1.114 c -1.745,0 -3.619,-0.355 -4.121,1.886 -1.311,5.855 -1.149,11.637 0,17.25 0.315,1.542 2.197,1.986 4.121,2.089 l 0,1.275 z" transform="translate(-9.82375,-573.88504)" id="path3055" style="fill:#9d9e9e;stroke:none"></path>
  <path d="m 472.012,627.746 14.438,0 0,-2.25 -10.782,0 0,-2.051 c -1.332,-0.061 -3.851,0.407 -4.235,-0.936 -1.175,-4.12 -1.189,-13.369 0.157,-13.971 0.537,-0.239 0.405,-1.63 0.411,-2.156 l 14.449,0 0,-2.25 -14.438,0 0,1.114 c -1.745,0 -3.619,-0.355 -4.121,1.886 -1.311,5.855 -1.149,11.637 0,17.25 0.315,1.542 2.197,1.986 4.121,2.089 l 0,1.275 z" transform="translate(-9.82375,-573.88504)" id="path3057" style="fill:#9d9e9e;stroke:none"></path>
  <path d="m 365.991,625.496 12.001,0 c 3.12,0 4.538,-2.553 4.538,-5.672 l 0,-7.77 c 0,-3.118 -1.419,-5.672 -4.538,-5.672 l -1.219,0 -12.422,0 -2.016,0 -0.024,1.257 c -0.004,0.388 -0.13,0.701 -0.308,0.844 -2.075,1.833 -0.966,11.414 -0.247,14.026 0.384,1.343 2.903,0.875 4.235,0.936 l 0,2.051 z" transform="translate(-9.82375,-573.88504)" id="s23" style="fill:#dedfdf;stroke:none" number="23" type="seat"></path>
  <path d="m 402.269,625.496 12,0 c 3.12,0 4.539,-2.553 4.539,-5.672 l 0,-7.77 c 0,-3.118 -1.42,-5.672 -4.539,-5.672 l -1.219,0 -12.421,0 -2.017,0 -0.024,1.257 c -0.003,0.388 -0.13,0.701 -0.308,0.844 -2.075,1.833 -0.965,11.414 -0.246,14.026 0.383,1.343 2.903,0.875 4.235,0.936 l 0,2.051 z" transform="translate(-9.82375,-573.88504)" id="s27" style="fill:#dedfdf;stroke:none" number="27" type="seat"></path>
  <path d="m 439.163,625.496 12.001,0 c 3.12,0 4.538,-2.553 4.538,-5.672 l 0,-7.77 c 0,-3.118 -1.419,-5.672 -4.538,-5.672 l -1.22,0 -12.421,0 -2.016,0 -0.024,1.257 c -0.004,0.388 -0.13,0.701 -0.308,0.844 -2.075,1.833 -0.966,11.414 -0.247,14.026 0.383,1.343 2.903,0.875 4.235,0.936 l 0,2.051 z" transform="translate(-9.82375,-573.88504)" id="s31" style="fill:#dedfdf;stroke:none" number="31" type="seat"></path>
  <path d="m 475.668,625.496 12.001,0 c 3.12,0 4.538,-2.553 4.538,-5.672 l 0,-7.77 c 0,-3.118 -1.419,-5.672 -4.538,-5.672 l -1.219,0 -12.422,0 -2.016,0 -0.024,1.257 c -0.004,0.388 -0.13,0.701 -0.308,0.844 -2.075,1.833 -0.966,11.414 -0.247,14.026 0.384,1.343 2.903,0.875 4.235,0.936 l 0,2.051 z" transform="translate(-9.82375,-573.88504)" id="s35" style="fill:#dedfdf;stroke:none" number="35" type="seat"></path>
  <path d="m 362.335,580.183 14.438,0 0,2.251 -10.782,0 0,2.051 c -1.332,0.06 -3.851,-0.407 -4.235,0.936 -1.175,4.12 -1.189,13.369 0.157,13.97 0.537,0.239 0.405,1.63 0.411,2.156 l 14.449,0 0,2.25 -14.438,0 0,-1.114 c -1.745,0 -3.619,0.356 -4.121,-1.886 -1.311,-5.854 -1.149,-11.637 0,-17.25 0.315,-1.542 2.197,-1.986 4.121,-2.089 l 0,-1.275 z" transform="translate(-9.82375,-573.88504)" id="path3067" style="fill:#9d9e9e;stroke:none"></path>
  <path d="m 398.612,580.183 14.438,0 0,2.251 -10.781,0 0,2.051 c -1.332,0.06 -3.852,-0.407 -4.235,0.936 -1.176,4.12 -1.19,13.369 0.157,13.97 0.536,0.239 0.405,1.63 0.41,2.156 l 14.449,0 0,2.25 -14.438,0 0,-1.114 c -1.745,0 -3.619,0.356 -4.12,-1.886 -1.311,-5.854 -1.149,-11.637 0,-17.25 0.315,-1.542 2.196,-1.986 4.12,-2.089 l 0,-1.275 z" transform="translate(-9.82375,-573.88504)" id="path3069" style="fill:#9d9e9e;stroke:none"></path>
  <path d="m 435.507,580.183 14.437,0 0,2.251 -10.781,0 0,2.051 c -1.332,0.06 -3.852,-0.407 -4.235,0.936 -1.176,4.12 -1.189,13.369 0.157,13.97 0.537,0.239 0.405,1.63 0.411,2.156 l 14.448,0 0,2.25 -14.437,0 0,-1.114 c -1.745,0 -3.619,0.356 -4.121,-1.886 -1.311,-5.854 -1.149,-11.637 0,-17.25 0.315,-1.542 2.197,-1.986 4.121,-2.089 l 0,-1.275 z" transform="translate(-9.82375,-573.88504)" id="path3071" style="fill:#9d9e9e;stroke:none"></path>
  <path d="m 472.012,580.183 14.438,0 0,2.251 -10.782,0 0,2.051 c -1.332,0.06 -3.851,-0.407 -4.235,0.936 -1.175,4.12 -1.189,13.369 0.157,13.97 0.537,0.239 0.405,1.63 0.411,2.156 l 14.449,0 0,2.25 -14.438,0 0,-1.114 c -1.745,0 -3.619,0.356 -4.121,-1.886 -1.311,-5.854 -1.149,-11.637 0,-17.25 0.315,-1.542 2.197,-1.986 4.121,-2.089 l 0,-1.275 z" transform="translate(-9.82375,-573.88504)" id="path3073" style="fill:#9d9e9e;stroke:none"></path>
  <path d="m 365.991,582.434 12.001,0 c 3.12,0 4.538,2.553 4.538,5.672 l 0,7.769 c 0,3.119 -1.419,5.672 -4.538,5.672 l -1.219,0 -12.422,0 -2.016,0 -0.024,-1.256 c -0.004,-0.388 -0.13,-0.701 -0.308,-0.844 -2.075,-1.833 -0.966,-11.414 -0.247,-14.026 0.384,-1.343 2.903,-0.876 4.235,-0.936 l 0,-2.051 z" transform="translate(-9.82375,-573.88504)" id="s24" style="fill:#dedfdf;stroke:none" number="24" type="seat"></path>
  <path d="m 402.269,582.434 12,0 c 3.12,0 4.539,2.553 4.539,5.672 l 0,7.769 c 0,3.119 -1.42,5.672 -4.539,5.672 l -1.219,0 -12.421,0 -2.017,0 -0.024,-1.256 c -0.003,-0.388 -0.13,-0.701 -0.308,-0.844 -2.075,-1.833 -0.965,-11.414 -0.246,-14.026 0.383,-1.343 2.903,-0.876 4.235,-0.936 l 0,-2.051 z" transform="translate(-9.82375,-573.88504)" id="s28" style="fill:#dedfdf;stroke:none" number="28" type="seat"></path>
  <path d="m 439.163,582.434 12.001,0 c 3.12,0 4.538,2.553 4.538,5.672 l 0,7.769 c 0,3.119 -1.419,5.672 -4.538,5.672 l -1.22,0 -12.421,0 -2.016,0 -0.024,-1.256 c -0.004,-0.388 -0.13,-0.701 -0.308,-0.844 -2.075,-1.833 -0.966,-11.414 -0.247,-14.026 0.383,-1.343 2.903,-0.876 4.235,-0.936 l 0,-2.051 z" transform="translate(-9.82375,-573.88504)" id="s32" style="fill:#dedfdf;stroke:none" number="32" type="seat"></path>
  <path d="m 475.668,582.434 12.001,0 c 3.12,0 4.538,2.553 4.538,5.672 l 0,7.769 c 0,3.119 -1.419,5.672 -4.538,5.672 l -1.219,0 -12.422,0 -2.016,0 -0.024,-1.256 c -0.004,-0.388 -0.13,-0.701 -0.308,-0.844 -2.075,-1.833 -0.966,-11.414 -0.247,-14.026 0.384,-1.343 2.903,-0.876 4.235,-0.936 l 0,-2.051 z" transform="translate(-9.82375,-573.88504)" id="s36" style="fill:#dedfdf;stroke:none" number="36" type="seat"></path>
  <path d="m 508.296,627.746 14.437,0 0,-2.25 -10.781,0 0,-2.051 c -1.332,-0.061 -3.852,0.407 -4.235,-0.936 -1.176,-4.12 -1.189,-13.369 0.157,-13.971 0.536,-0.239 0.405,-1.63 0.41,-2.156 l 14.449,0 0,-2.25 -14.437,0 0,1.114 c -1.746,0 -3.619,-0.355 -4.121,1.886 -1.311,5.855 -1.149,11.637 0,17.25 0.315,1.542 2.196,1.986 4.121,2.089 l 0,1.275 z" transform="translate(-9.82375,-573.88504)" id="path3083" style="fill:#9d9e9e;stroke:none"></path>
  <path d="m 511.952,625.496 12.001,0 c 3.119,0 4.538,-2.553 4.538,-5.672 l 0,-7.77 c 0,-3.118 -1.42,-5.672 -4.538,-5.672 l -1.22,0 -12.421,0 -2.016,0 -0.024,1.257 c -0.004,0.388 -0.131,0.701 -0.309,0.844 -2.075,1.833 -0.965,11.414 -0.246,14.026 0.383,1.343 2.903,0.875 4.235,0.936 l 0,2.051 z" transform="translate(-9.82375,-573.88504)" id="s39" style="fill:#dedfdf;stroke:none" number="39" type="seat"></path>
  <path d="m 508.296,580.183 14.437,0 0,2.251 -10.781,0 0,2.051 c -1.332,0.06 -3.852,-0.407 -4.235,0.936 -1.176,4.12 -1.189,13.369 0.157,13.97 0.536,0.239 0.405,1.63 0.41,2.156 l 14.449,0 0,2.25 -14.437,0 0,-1.114 c -1.746,0 -3.619,0.356 -4.121,-1.886 -1.311,-5.854 -1.149,-11.637 0,-17.25 0.315,-1.542 2.196,-1.986 4.121,-2.089 l 0,-1.275 z" transform="translate(-9.82375,-573.88504)" id="path3087" style="fill:#9d9e9e;stroke:none"></path>
  <path d="m 511.952,582.434 12.001,0 c 3.119,0 4.538,2.553 4.538,5.672 l 0,7.769 c 0,3.119 -1.42,5.672 -4.538,5.672 l -1.22,0 -12.421,0 -2.016,0 -0.024,-1.256 c -0.004,-0.388 -0.131,-0.701 -0.309,-0.844 -2.075,-1.833 -0.965,-11.414 -0.246,-14.026 0.383,-1.343 2.903,-0.876 4.235,-0.936 l 0,-2.051 z" transform="translate(-9.82375,-573.88504)" id="s40" style="fill:#dedfdf;stroke:none" number="40" type="seat"></path>
  <path d="m 545.727,627.746 14.438,0 0,-2.25 -10.781,0 0,-2.051 c -1.332,-0.061 -3.852,0.407 -4.235,-0.936 -1.176,-4.12 -1.19,-13.369 0.157,-13.971 0.536,-0.239 0.405,-1.63 0.41,-2.156 l 14.449,0 0,-2.25 -14.438,0 0,1.114 c -1.745,0 -3.619,-0.355 -4.12,1.886 -1.311,5.855 -1.149,11.637 0,17.25 0.315,1.542 2.196,1.986 4.12,2.089 l 0,1.275 z" transform="translate(-9.82375,-573.88504)" id="path3091" style="fill:#9d9e9e;stroke:none"></path>
  <path d="m 582.233,627.746 14.437,0 0,-2.25 -10.781,0 0,-2.051 c -1.332,-0.061 -3.852,0.407 -4.235,-0.936 -1.176,-4.12 -1.189,-13.369 0.157,-13.971 0.536,-0.239 0.405,-1.63 0.41,-2.156 l 14.449,0 0,-2.25 -14.437,0 0,1.114 c -1.746,0 -3.619,-0.355 -4.121,1.886 -1.311,5.855 -1.149,11.637 0,17.25 0.315,1.542 2.196,1.986 4.121,2.089 l 0,1.275 z" transform="translate(-9.82375,-573.88504)" id="path3093" style="fill:#9d9e9e;stroke:none"></path>
  <path d="m 549.384,625.496 12,0 c 3.12,0 4.539,-2.553 4.539,-5.672 l 0,-7.77 c 0,-3.118 -1.42,-5.672 -4.539,-5.672 l -1.219,0 -12.421,0 -2.017,0 -0.024,1.257 c -0.003,0.388 -0.13,0.701 -0.308,0.844 -2.075,1.833 -0.965,11.414 -0.246,14.026 0.383,1.343 2.903,0.875 4.235,0.936 l 0,2.051 z" transform="translate(-9.82375,-573.88504)" id="s43" style="fill:#dedfdf;stroke:none" number="43" type="seat"></path>
  <path d="m 585.889,625.496 12,0 c 3.12,0 4.539,-2.553 4.539,-5.672 l 0,-7.77 c 0,-3.118 -1.42,-5.672 -4.539,-5.672 l -1.219,0 -12.421,0 -2.016,0 -0.025,1.257 c -0.003,0.388 -0.13,0.701 -0.308,0.844 -2.075,1.833 -0.965,11.414 -0.246,14.026 0.383,1.343 2.903,0.875 4.235,0.936 l 0,2.051 z" transform="translate(-9.82375,-573.88504)" id="s47" style="fill:#dedfdf;stroke:none" number="47" type="seat"></path>
  <path d="m 545.727,580.183 14.438,0 0,2.251 -10.781,0 0,2.051 c -1.332,0.06 -3.852,-0.407 -4.235,0.936 -1.176,4.12 -1.19,13.369 0.157,13.97 0.536,0.239 0.405,1.63 0.41,2.156 l 14.449,0 0,2.25 -14.438,0 0,-1.114 c -1.745,0 -3.619,0.356 -4.12,-1.886 -1.311,-5.854 -1.149,-11.637 0,-17.25 0.315,-1.542 2.196,-1.986 4.12,-2.089 l 0,-1.275 z" transform="translate(-9.82375,-573.88504)" id="path3099" style="fill:#9d9e9e;stroke:none"></path>
  <path d="m 582.233,580.183 14.437,0 0,2.251 -10.781,0 0,2.051 c -1.332,0.06 -3.852,-0.407 -4.235,0.936 -1.176,4.12 -1.189,13.369 0.157,13.97 0.536,0.239 0.405,1.63 0.41,2.156 l 14.449,0 0,2.25 -14.437,0 0,-1.114 c -1.746,0 -3.619,0.356 -4.121,-1.886 -1.311,-5.854 -1.149,-11.637 0,-17.25 0.315,-1.542 2.196,-1.986 4.121,-2.089 l 0,-1.275 z" transform="translate(-9.82375,-573.88504)" id="path3101" style="fill:#9d9e9e;stroke:none"></path>
  <path d="m 549.384,582.434 12,0 c 3.12,0 4.539,2.553 4.539,5.672 l 0,7.769 c 0,3.119 -1.42,5.672 -4.539,5.672 l -1.219,0 -12.421,0 -2.017,0 -0.024,-1.256 c -0.003,-0.388 -0.13,-0.701 -0.308,-0.844 -2.075,-1.833 -0.965,-11.414 -0.246,-14.026 0.383,-1.343 2.903,-0.876 4.235,-0.936 l 0,-2.051 z" transform="translate(-9.82375,-573.88504)" id="s44" style="fill:#dedfdf;stroke:none" number="44" type="seat"></path>
  <path d="m 585.889,582.434 12,0 c 3.12,0 4.539,2.553 4.539,5.672 l 0,7.769 c 0,3.119 -1.42,5.672 -4.539,5.672 l -1.219,0 -12.421,0 -2.016,0 -0.025,-1.256 c -0.003,-0.388 -0.13,-0.701 -0.308,-0.844 -2.075,-1.833 -0.965,-11.414 -0.246,-14.026 0.383,-1.343 2.903,-0.876 4.235,-0.936 l 0,-2.051 z" transform="translate(-9.82375,-573.88504)" id="s48" style="fill:#dedfdf;stroke:none" number="48" type="seat"></path>
  <path d="m 618.516,627.746 14.437,0 0,-2.25 -10.781,0 0,-2.051 c -1.332,-0.061 -3.852,0.407 -4.235,-0.936 -1.176,-4.12 -1.189,-13.369 0.157,-13.971 0.537,-0.239 0.405,-1.63 0.411,-2.156 l 14.448,0 0,-2.25 -14.437,0 0,1.114 c -1.745,0 -3.619,-0.355 -4.121,1.886 -1.311,5.855 -1.149,11.637 0,17.25 0.315,1.542 2.197,1.986 4.121,2.089 l 0,1.275 z" transform="translate(-9.82375,-573.88504)" id="path3107" style="fill:#9d9e9e;stroke:none"></path>
  <path d="m 622.172,625.496 12.001,0 c 3.12,0 4.538,-2.553 4.538,-5.672 l 0,-7.77 c 0,-3.118 -1.419,-5.672 -4.538,-5.672 l -1.22,0 -12.421,0 -2.016,0 -0.024,1.257 c -0.004,0.388 -0.13,0.701 -0.308,0.844 -2.075,1.833 -0.966,11.414 -0.247,14.026 0.383,1.343 2.903,0.875 4.235,0.936 l 0,2.051 z" transform="translate(-9.82375,-573.88504)" id="s51" style="fill:#dedfdf;stroke:none" number="51" type="seat"></path>
  <path d="m 618.516,580.183 14.437,0 0,2.251 -10.781,0 0,2.051 c -1.332,0.06 -3.852,-0.407 -4.235,0.936 -1.176,4.12 -1.189,13.369 0.157,13.97 0.537,0.239 0.405,1.63 0.411,2.156 l 14.448,0 0,2.25 -14.437,0 0,-1.114 c -1.745,0 -3.619,0.356 -4.121,-1.886 -1.311,-5.854 -1.149,-11.637 0,-17.25 0.315,-1.542 2.197,-1.986 4.121,-2.089 l 0,-1.275 z" transform="translate(-9.82375,-573.88504)" id="path3111" style="fill:#9d9e9e;stroke:none"></path>
  <path d="m 622.172,582.434 12.001,0 c 3.12,0 4.538,2.553 4.538,5.672 l 0,7.769 c 0,3.119 -1.419,5.672 -4.538,5.672 l -1.22,0 -12.421,0 -2.016,0 -0.024,-1.256 c -0.004,-0.388 -0.13,-0.701 -0.308,-0.844 -2.075,-1.833 -0.966,-11.414 -0.247,-14.026 0.383,-1.343 2.903,-0.876 4.235,-0.936 l 0,-2.051 z" transform="translate(-9.82375,-573.88504)" id="s52" style="fill:#dedfdf;stroke:none" number="52" type="seat"></path>
  <path d="m 675.875,580.183 -14.437,0 0,2.25 10.781,0 0,2.051 c 1.332,0.061 3.852,-0.407 4.235,0.936 1.176,4.121 1.189,13.369 -0.157,13.971 -0.536,0.239 -0.405,1.63 -0.41,2.156 l -14.449,0 0,2.25 14.437,0 0,-1.114 c 1.746,0 3.619,0.356 4.121,-1.886 1.311,-5.854 1.149,-11.637 0,-17.25 -0.315,-1.542 -2.197,-1.986 -4.121,-2.089 l 0,-1.275 z" transform="translate(-9.82375,-573.88504)" id="path3115" style="fill:#9d9e9e;stroke:none"></path>
  <path d="m 672.219,582.433 -12.001,0 c -3.119,0 -4.538,2.554 -4.538,5.672 l 0,7.77 c 0,3.119 1.42,5.672 4.538,5.672 l 1.22,0 12.421,0 2.016,0 0.024,-1.256 c 0.004,-0.389 0.131,-0.702 0.309,-0.845 2.075,-1.833 0.965,-11.413 0.246,-14.026 -0.383,-1.343 -2.903,-0.875 -4.235,-0.936 l 0,-2.051 z" transform="translate(-9.82375,-573.88504)" id="s56" style="fill:#dedfdf;stroke:none" number="56" type="seat"></path>
  <path d="m 675.875,627.746 -14.437,0 0,-2.25 10.781,0 0,-2.051 c 1.332,-0.061 3.852,0.407 4.235,-0.936 1.176,-4.121 1.189,-13.369 -0.157,-13.971 -0.536,-0.239 -0.405,-1.63 -0.41,-2.156 l -14.449,0 0,-2.25 14.437,0 0,1.114 c 1.746,0 3.619,-0.356 4.121,1.886 1.311,5.854 1.149,11.637 0,17.25 -0.315,1.542 -2.197,1.986 -4.121,2.089 l 0,1.275 z" transform="translate(-9.82375,-573.88504)" id="path3119" style="fill:#9d9e9e;stroke:none"></path>
  <path d="m 672.219,625.496 -12.001,0 c -3.119,0 -4.538,-2.554 -4.538,-5.672 l 0,-7.77 c 0,-3.119 1.42,-5.672 4.538,-5.672 l 1.22,0 12.421,0 2.016,0 0.024,1.256 c 0.004,0.389 0.131,0.702 0.309,0.844 2.075,1.834 0.965,11.414 0.246,14.027 -0.383,1.343 -2.903,0.875 -4.235,0.936 l 0,2.051 z" transform="translate(-9.82375,-573.88504)" id="s55" style="fill:#dedfdf;stroke:none" number="55" type="seat"></path>
  <path d="m 185.763,695.785 14.438,0 0,-2.25 -10.781,0 0,-2.051 c -1.332,-0.061 -3.852,0.407 -4.235,-0.936 -1.176,-4.12 -1.19,-13.369 0.157,-13.971 0.536,-0.239 0.405,-1.63 0.41,-2.156 l 14.449,0 0,-2.25 -14.438,0 0,1.114 c -1.745,0 -3.619,-0.355 -4.12,1.886 -1.311,5.855 -1.149,11.637 0,17.25 0.315,1.542 2.196,1.986 4.12,2.089 l 0,1.275 z" transform="translate(-9.82375,-573.88504)" id="path3123" style="fill:#9d9e9e;stroke:none"></path>
  <path d="m 189.42,693.535 12,0 c 3.12,0 4.539,-2.554 4.539,-5.672 l 0,-7.77 c 0,-3.118 -1.42,-5.672 -4.539,-5.672 l -1.219,0 -12.421,0 -2.017,0 -0.024,1.256 c -0.003,0.389 -0.13,0.702 -0.308,0.845 -2.075,1.833 -0.965,11.414 -0.246,14.026 0.383,1.343 2.903,0.875 4.235,0.936 l 0,2.051 z" transform="translate(-9.82375,-573.88504)" id="s1" style="fill:#dedfdf;stroke:none"></path>
  <path d="m 185.763,648.222 14.438,0 0,2.25 -10.781,0 0,2.052 c -1.332,0.06 -3.852,-0.408 -4.235,0.936 -1.176,4.12 -1.19,13.369 0.157,13.97 0.536,0.239 0.405,1.63 0.41,2.156 l 14.449,0 0,2.25 -14.438,0 0,-1.114 c -1.745,0 -3.619,0.356 -4.12,-1.886 -1.311,-5.854 -1.149,-11.637 0,-17.25 0.315,-1.542 2.196,-1.986 4.12,-2.089 l 0,-1.275 z" transform="translate(-9.82375,-573.88504)" id="path3127" style="fill:#9d9e9e;stroke:none"></path>
  <path d="m 189.42,650.472 12,0 c 3.12,0 4.539,2.554 4.539,5.673 l 0,7.769 c 0,3.119 -1.42,5.672 -4.539,5.672 l -1.219,0 -12.421,0 -2.017,0 -0.024,-1.256 c -0.003,-0.389 -0.13,-0.701 -0.308,-0.844 -2.075,-1.834 -0.965,-11.414 -0.246,-14.026 0.383,-1.344 2.903,-0.876 4.235,-0.936 l 0,-2.052 z" transform="translate(-9.82375,-573.88504)" id="s2" style="fill:#dedfdf;stroke:none"></path>
  <path d="m 242.633,648.222 -14.438,0 0,2.25 10.782,0 0,2.051 c 1.332,0.061 3.852,-0.407 4.235,0.936 1.176,4.12 1.189,13.369 -0.157,13.971 -0.537,0.239 -0.405,1.63 -0.411,2.156 l -14.449,0 0,2.25 14.438,0 0,-1.114 c 1.745,0 3.619,0.355 4.121,-1.886 1.311,-5.855 1.149,-11.637 0,-17.25 -0.315,-1.542 -2.197,-1.986 -4.121,-2.089 l 0,-1.275 z" transform="translate(-9.82375,-573.88504)" id="path3131" style="fill:#9d9e9e;stroke:none"></path>
  <path d="m 463.864,648.222 -14.437,0 0,2.25 10.781,0 0,2.051 c 1.332,0.061 3.852,-0.407 4.235,0.936 1.176,4.12 1.189,13.369 -0.157,13.971 -0.537,0.239 -0.405,1.63 -0.41,2.156 l -14.449,0 0,2.25 14.437,0 0,-1.114 c 1.746,0 3.619,0.355 4.121,-1.886 1.311,-5.855 1.149,-11.637 0,-17.25 -0.315,-1.542 -2.197,-1.986 -4.121,-2.089 l 0,-1.275 z" transform="translate(-9.82375,-573.88504)" id="path3133" style="fill:#9d9e9e;stroke:none"></path>
  <path d="m 279.42,648.222 -14.438,0 0,2.25 10.782,0 0,2.051 c 1.332,0.061 3.851,-0.407 4.235,0.936 1.175,4.12 1.189,13.369 -0.157,13.971 -0.537,0.239 -0.405,1.63 -0.411,2.156 l -14.449,0 0,2.25 14.438,0 0,-1.114 c 1.745,0 3.619,0.355 4.121,-1.886 1.311,-5.855 1.149,-11.637 0,-17.25 -0.315,-1.542 -2.197,-1.986 -4.121,-2.089 l 0,-1.275 z" transform="translate(-9.82375,-573.88504)" id="path3135" style="fill:#9d9e9e;stroke:none"></path>
  <path d="m 500.651,648.222 -14.437,0 0,2.25 10.781,0 0,2.051 c 1.332,0.061 3.852,-0.407 4.235,0.936 1.176,4.12 1.189,13.369 -0.157,13.971 -0.537,0.239 -0.405,1.63 -0.411,2.156 l -14.448,0 0,2.25 14.437,0 0,-1.114 c 1.745,0 3.619,0.355 4.121,-1.886 1.311,-5.855 1.149,-11.637 0,-17.25 -0.315,-1.542 -2.197,-1.986 -4.121,-2.089 l 0,-1.275 z" transform="translate(-9.82375,-573.88504)" id="path3137" style="fill:#9d9e9e;stroke:none"></path>
  <path d="m 316.358,648.222 -14.438,0 0,2.25 10.781,0 0,2.051 c 1.332,0.061 3.852,-0.407 4.235,0.936 1.176,4.12 1.189,13.369 -0.157,13.971 -0.536,0.239 -0.405,1.63 -0.41,2.156 l -14.449,0 0,2.25 14.438,0 0,-1.114 c 1.745,0 3.619,0.355 4.12,-1.886 1.311,-5.855 1.149,-11.637 0,-17.25 -0.315,-1.542 -2.196,-1.986 -4.12,-2.089 l 0,-1.275 z" transform="translate(-9.82375,-573.88504)" id="path3139" style="fill:#9d9e9e;stroke:none"></path>
  <path d="m 537.589,648.222 -14.438,0 0,2.25 10.782,0 0,2.051 c 1.332,0.061 3.851,-0.407 4.235,0.936 1.176,4.12 1.189,13.369 -0.157,13.971 -0.537,0.239 -0.405,1.63 -0.411,2.156 l -14.449,0 0,2.25 14.438,0 0,-1.114 c 1.745,0 3.619,0.355 4.121,-1.886 1.311,-5.855 1.149,-11.637 0,-17.25 -0.315,-1.542 -2.197,-1.986 -4.121,-2.089 l 0,-1.275 z" transform="translate(-9.82375,-573.88504)" id="path3141" style="fill:#9d9e9e;stroke:none"></path>
  <path d="m 353.295,648.222 -14.437,0 0,2.25 10.781,0 0,2.051 c 1.332,0.061 3.852,-0.407 4.235,0.936 1.176,4.12 1.189,13.369 -0.157,13.971 -0.537,0.239 -0.405,1.63 -0.41,2.156 l -14.449,0 0,2.25 14.437,0 0,-1.114 c 1.745,0 3.619,0.355 4.121,-1.886 1.311,-5.855 1.149,-11.637 0,-17.25 -0.315,-1.542 -2.197,-1.986 -4.121,-2.089 l 0,-1.275 z" transform="translate(-9.82375,-573.88504)" id="path3143" style="fill:#9d9e9e;stroke:none"></path>
  <path d="m 574.527,648.222 -14.438,0 0,2.25 10.781,0 0,2.051 c 1.332,0.061 3.852,-0.407 4.235,0.936 1.176,4.12 1.189,13.369 -0.157,13.971 -0.536,0.239 -0.405,1.63 -0.41,2.156 l -14.449,0 0,2.25 14.438,0 0,-1.114 c 1.745,0 3.619,0.355 4.12,-1.886 1.311,-5.855 1.149,-11.637 0,-17.25 -0.315,-1.542 -2.196,-1.986 -4.12,-2.089 l 0,-1.275 z" transform="translate(-9.82375,-573.88504)" id="path3145" style="fill:#9d9e9e;stroke:none"></path>
  <path d="m 389.483,648.222 -14.438,0 0,2.25 10.781,0 0,2.051 c 1.332,0.061 3.852,-0.407 4.235,0.936 1.176,4.12 1.19,13.369 -0.157,13.971 -0.536,0.239 -0.405,1.63 -0.41,2.156 l -14.449,0 0,2.25 14.438,0 0,-1.114 c 1.745,0 3.619,0.355 4.12,-1.886 1.311,-5.855 1.149,-11.637 0,-17.25 -0.315,-1.542 -2.196,-1.986 -4.12,-2.089 l 0,-1.275 z" transform="translate(-9.82375,-573.88504)" id="path3147" style="fill:#9d9e9e;stroke:none"></path>
  <path d="m 610.714,648.222 -14.438,0 0,2.25 10.782,0 0,2.051 c 1.332,0.061 3.851,-0.407 4.235,0.936 1.176,4.12 1.189,13.369 -0.157,13.971 -0.537,0.239 -0.405,1.63 -0.411,2.156 l -14.449,0 0,2.25 14.438,0 0,-1.114 c 1.745,0 3.619,0.355 4.121,-1.886 1.311,-5.855 1.149,-11.637 0,-17.25 -0.315,-1.542 -2.197,-1.986 -4.121,-2.089 l 0,-1.275 z" transform="translate(-9.82375,-573.88504)" id="path3149" style="fill:#9d9e9e;stroke:none"></path>
  <path d="m 426.4,648.222 -14.438,0 0,2.25 10.782,0 0,2.051 c 1.332,0.061 3.851,-0.407 4.235,0.936 1.176,4.12 1.189,13.369 -0.157,13.971 -0.537,0.239 -0.405,1.63 -0.411,2.156 l -14.449,0 0,2.25 14.438,0 0,-1.114 c 1.745,0 3.619,0.355 4.121,-1.886 1.311,-5.855 1.149,-11.637 0,-17.25 -0.315,-1.542 -2.197,-1.986 -4.121,-2.089 l 0,-1.275 z" transform="translate(-9.82375,-573.88504)" id="path3151" style="fill:#9d9e9e;stroke:none"></path>
  <path d="m 647.631,648.222 -14.437,0 0,2.25 10.781,0 0,2.051 c 1.332,0.061 3.852,-0.407 4.235,0.936 1.176,4.12 1.189,13.369 -0.157,13.971 -0.537,0.239 -0.405,1.63 -0.41,2.156 l -14.449,0 0,2.25 14.437,0 0,-1.114 c 1.746,0 3.619,0.355 4.121,-1.886 1.311,-5.855 1.149,-11.637 0,-17.25 -0.315,-1.542 -2.197,-1.986 -4.121,-2.089 l 0,-1.275 z" transform="translate(-9.82375,-573.88504)" id="path3153" style="fill:#9d9e9e;stroke:none"></path>
  <path d="m 683.926,648.222 -14.437,0 0,2.25 10.781,0 0,2.051 c 1.332,0.061 3.852,-0.407 4.235,0.936 1.176,4.12 1.189,13.369 -0.157,13.971 -0.536,0.239 -0.405,1.63 -0.41,2.156 l -14.449,0 0,2.25 14.437,0 0,-1.114 c 1.746,0 3.619,0.355 4.121,-1.886 1.311,-5.855 1.149,-11.637 0,-17.25 -0.315,-1.542 -2.197,-1.986 -4.121,-2.089 l 0,-1.275 z" transform="translate(-9.82375,-573.88504)" id="path3155" style="fill:#9d9e9e;stroke:none"></path>
  <path d="m 238.977,650.472 -12.001,0 c -3.12,0 -4.538,2.554 -4.538,5.672 l 0,7.77 c 0,3.118 1.419,5.672 4.538,5.672 l 1.219,0 12.422,0 2.016,0 0.024,-1.256 c 0.004,-0.389 0.13,-0.702 0.308,-0.845 2.075,-1.833 0.966,-11.414 0.247,-14.026 -0.383,-1.343 -2.903,-0.875 -4.235,-0.936 l 0,-2.051 z" transform="translate(-9.82375,-573.88504)" id="s6" style="fill:#dedfdf;stroke:none" number="6" type="seat"></path>
  <path d="m 460.208,650.472 -12.001,0 c -3.119,0 -4.538,2.554 -4.538,5.672 l 0,7.77 c 0,3.118 1.42,5.672 4.538,5.672 l 1.22,0 12.421,0 2.016,0 0.024,-1.256 c 0.004,-0.389 0.131,-0.702 0.308,-0.845 2.076,-1.833 0.966,-11.414 0.247,-14.026 -0.383,-1.343 -2.903,-0.875 -4.235,-0.936 l 0,-2.051 z" transform="translate(-9.82375,-573.88504)" id="s30" style="fill:#dedfdf;stroke:none" number="30" type="seat"></path>
  <path d="m 275.764,650.472 -12.001,0 c -3.12,0 -4.538,2.554 -4.538,5.672 l 0,7.77 c 0,3.118 1.419,5.672 4.538,5.672 l 1.219,0 12.422,0 2.016,0 0.024,-1.256 c 0.004,-0.389 0.13,-0.702 0.308,-0.845 2.075,-1.833 0.965,-11.414 0.247,-14.026 -0.384,-1.343 -2.903,-0.875 -4.235,-0.936 l 0,-2.051 z" transform="translate(-9.82375,-573.88504)" id="s10" style="fill:#dedfdf;stroke:none" number="10" type="seat"></path>
  <path d="m 496.995,650.472 -12.001,0 c -3.12,0 -4.538,2.554 -4.538,5.672 l 0,7.77 c 0,3.118 1.42,5.672 4.538,5.672 l 1.22,0 12.421,0 2.016,0 0.024,-1.256 c 0.004,-0.389 0.131,-0.702 0.308,-0.845 2.076,-1.833 0.966,-11.414 0.247,-14.026 -0.383,-1.343 -2.903,-0.875 -4.235,-0.936 l 0,-2.051 z" transform="translate(-9.82375,-573.88504)" id="s34" style="fill:#dedfdf;stroke:none" number="34" type="seat"></path>
  <path d="m 312.701,650.472 -12,0 c -3.12,0 -4.539,2.554 -4.539,5.672 l 0,7.77 c 0,3.118 1.42,5.672 4.539,5.672 l 1.219,0 12.421,0 2.017,0 0.024,-1.256 c 0.003,-0.389 0.13,-0.702 0.308,-0.845 2.075,-1.833 0.965,-11.414 0.246,-14.026 -0.383,-1.343 -2.903,-0.875 -4.235,-0.936 l 0,-2.051 z" transform="translate(-9.82375,-573.88504)" id="s14" style="fill:#dedfdf;stroke:none" number="14" type="seat"></path>
  <path d="m 533.933,650.472 -12.001,0 c -3.12,0 -4.538,2.554 -4.538,5.672 l 0,7.77 c 0,3.118 1.419,5.672 4.538,5.672 l 1.219,0 12.422,0 2.016,0 0.024,-1.256 c 0.004,-0.389 0.13,-0.702 0.308,-0.845 2.075,-1.833 0.966,-11.414 0.247,-14.026 -0.384,-1.343 -2.903,-0.875 -4.235,-0.936 l 0,-2.051 z" transform="translate(-9.82375,-573.88504)" id="s38" style="fill:#dedfdf;stroke:none" number="38" type="seat"></path>
  <path d="m 349.639,650.472 -12.001,0 c -3.119,0 -4.538,2.554 -4.538,5.672 l 0,7.77 c 0,3.118 1.42,5.672 4.538,5.672 l 1.22,0 12.421,0 2.016,0 0.024,-1.256 c 0.004,-0.389 0.131,-0.702 0.308,-0.845 2.076,-1.833 0.966,-11.414 0.247,-14.026 -0.383,-1.343 -2.903,-0.875 -4.235,-0.936 l 0,-2.051 z" transform="translate(-9.82375,-573.88504)" id="s18" style="fill:#dedfdf;stroke:none" number="18" type="seat"></path>
  <path d="m 570.87,650.472 -12,0 c -3.12,0 -4.539,2.554 -4.539,5.672 l 0,7.77 c 0,3.118 1.42,5.672 4.539,5.672 l 1.219,0 12.421,0 2.017,0 0.024,-1.256 c 0.003,-0.389 0.13,-0.702 0.308,-0.845 2.075,-1.833 0.965,-11.414 0.246,-14.026 -0.383,-1.343 -2.903,-0.875 -4.235,-0.936 l 0,-2.051 z" transform="translate(-9.82375,-573.88504)" id="s42" style="fill:#dedfdf;stroke:none" number="42" type="seat"></path>
  <path d="m 385.826,650.472 -12,0 c -3.12,0 -4.539,2.554 -4.539,5.672 l 0,7.77 c 0,3.118 1.42,5.672 4.539,5.672 l 1.219,0 12.421,0 2.017,0 0.024,-1.256 c 0.003,-0.389 0.13,-0.702 0.308,-0.845 2.075,-1.833 0.965,-11.414 0.246,-14.026 -0.383,-1.343 -2.903,-0.875 -4.235,-0.936 l 0,-2.051 z" transform="translate(-9.82375,-573.88504)" id="s22" style="fill:#dedfdf;stroke:none" number="22" type="seat"></path>
  <path d="m 607.058,650.472 -12.001,0 c -3.12,0 -4.538,2.554 -4.538,5.672 l 0,7.77 c 0,3.118 1.419,5.672 4.538,5.672 l 1.219,0 12.422,0 2.016,0 0.024,-1.256 c 0.004,-0.389 0.13,-0.702 0.308,-0.845 2.075,-1.833 0.966,-11.414 0.247,-14.026 -0.384,-1.343 -2.903,-0.875 -4.235,-0.936 l 0,-2.051 z" transform="translate(-9.82375,-573.88504)" id="s46" style="fill:#dedfdf;stroke:none" number="46" type="seat"></path>
  <path d="m 422.744,650.472 -12.001,0 c -3.12,0 -4.538,2.554 -4.538,5.672 l 0,7.77 c 0,3.118 1.419,5.672 4.538,5.672 l 1.219,0 12.422,0 2.016,0 0.024,-1.256 c 0.004,-0.389 0.13,-0.702 0.308,-0.845 2.075,-1.833 0.966,-11.414 0.247,-14.026 -0.384,-1.343 -2.903,-0.875 -4.235,-0.936 l 0,-2.051 z" transform="translate(-9.82375,-573.88504)" id="s26" style="fill:#dedfdf;stroke:none" number="26" type="seat"></path>
  <path d="m 643.975,650.472 -12.001,0 c -3.12,0 -4.538,2.554 -4.538,5.672 l 0,7.77 c 0,3.118 1.42,5.672 4.538,5.672 l 1.22,0 12.421,0 2.016,0 0.024,-1.256 c 0.004,-0.389 0.131,-0.702 0.308,-0.845 2.076,-1.833 0.966,-11.414 0.247,-14.026 -0.383,-1.343 -2.903,-0.875 -4.235,-0.936 l 0,-2.051 z" transform="translate(-9.82375,-573.88504)" id="s50" style="fill:#dedfdf;stroke:none" number="50" type="seat"></path>
  <path d="m 680.27,650.472 -12.001,0 c -3.119,0 -4.538,2.554 -4.538,5.672 l 0,7.77 c 0,3.118 1.42,5.672 4.538,5.672 l 1.22,0 12.421,0 2.016,0 0.024,-1.256 c 0.004,-0.389 0.131,-0.702 0.309,-0.845 2.075,-1.833 0.965,-11.414 0.246,-14.026 -0.383,-1.343 -2.903,-0.875 -4.235,-0.936 l 0,-2.051 z" transform="translate(-9.82375,-573.88504)" id="s54" style="fill:#dedfdf;stroke:none" number="54" type="seat"></path>
  <path d="m 242.633,695.785 -14.438,0 0,-2.25 10.782,0 0,-2.052 c 1.332,-0.06 3.852,0.408 4.235,-0.936 1.176,-4.12 1.189,-13.369 -0.157,-13.97 -0.537,-0.239 -0.405,-1.63 -0.411,-2.156 l -14.449,0 0,-2.25 14.438,0 0,1.114 c 1.745,0 3.619,-0.356 4.121,1.886 1.311,5.854 1.149,11.637 0,17.25 -0.315,1.542 -2.197,1.986 -4.121,2.089 l 0,1.275 z" transform="translate(-9.82375,-573.88504)" id="path3183" style="fill:#9d9e9e;stroke:none"></path>
  <path d="m 463.864,695.785 -14.437,0 0,-2.25 10.781,0 0,-2.052 c 1.332,-0.06 3.852,0.408 4.235,-0.936 1.176,-4.12 1.189,-13.369 -0.157,-13.97 -0.537,-0.239 -0.405,-1.63 -0.41,-2.156 l -14.449,0 0,-2.25 14.437,0 0,1.114 c 1.746,0 3.619,-0.356 4.121,1.886 1.311,5.854 1.149,11.637 0,17.25 -0.315,1.542 -2.197,1.986 -4.121,2.089 l 0,1.275 z" transform="translate(-9.82375,-573.88504)" id="path3185" style="fill:#9d9e9e;stroke:none"></path>
  <path d="m 279.42,695.785 -14.438,0 0,-2.25 10.782,0 0,-2.052 c 1.332,-0.06 3.851,0.408 4.235,-0.936 1.175,-4.12 1.189,-13.369 -0.157,-13.97 -0.537,-0.239 -0.405,-1.63 -0.411,-2.156 l -14.449,0 0,-2.25 14.438,0 0,1.114 c 1.745,0 3.619,-0.356 4.121,1.886 1.311,5.854 1.149,11.637 0,17.25 -0.315,1.542 -2.197,1.986 -4.121,2.089 l 0,1.275 z" transform="translate(-9.82375,-573.88504)" id="path3187" style="fill:#9d9e9e;stroke:none"></path>
  <path d="m 500.651,695.785 -14.437,0 0,-2.25 10.781,0 0,-2.052 c 1.332,-0.06 3.852,0.408 4.235,-0.936 1.176,-4.12 1.189,-13.369 -0.157,-13.97 -0.537,-0.239 -0.405,-1.63 -0.411,-2.156 l -14.448,0 0,-2.25 14.437,0 0,1.114 c 1.745,0 3.619,-0.356 4.121,1.886 1.311,5.854 1.149,11.637 0,17.25 -0.315,1.542 -2.197,1.986 -4.121,2.089 l 0,1.275 z" transform="translate(-9.82375,-573.88504)" id="path3189" style="fill:#9d9e9e;stroke:none"></path>
  <path d="m 316.358,695.785 -14.438,0 0,-2.25 10.781,0 0,-2.052 c 1.332,-0.06 3.852,0.408 4.235,-0.936 1.176,-4.12 1.189,-13.369 -0.157,-13.97 -0.536,-0.239 -0.405,-1.63 -0.41,-2.156 l -14.449,0 0,-2.25 14.438,0 0,1.114 c 1.745,0 3.619,-0.356 4.12,1.886 1.311,5.854 1.149,11.637 0,17.25 -0.315,1.542 -2.196,1.986 -4.12,2.089 l 0,1.275 z" transform="translate(-9.82375,-573.88504)" id="path3191" style="fill:#9d9e9e;stroke:none"></path>
  <path d="m 537.589,695.785 -14.438,0 0,-2.25 10.782,0 0,-2.052 c 1.332,-0.06 3.851,0.408 4.235,-0.936 1.176,-4.12 1.189,-13.369 -0.157,-13.97 -0.537,-0.239 -0.405,-1.63 -0.411,-2.156 l -14.449,0 0,-2.25 14.438,0 0,1.114 c 1.745,0 3.619,-0.356 4.121,1.886 1.311,5.854 1.149,11.637 0,17.25 -0.315,1.542 -2.197,1.986 -4.121,2.089 l 0,1.275 z" transform="translate(-9.82375,-573.88504)" id="path3193" style="fill:#9d9e9e;stroke:none"></path>
  <path d="m 353.295,695.785 -14.437,0 0,-2.25 10.781,0 0,-2.052 c 1.332,-0.06 3.852,0.408 4.235,-0.936 1.176,-4.12 1.189,-13.369 -0.157,-13.97 -0.537,-0.239 -0.405,-1.63 -0.41,-2.156 l -14.449,0 0,-2.25 14.437,0 0,1.114 c 1.745,0 3.619,-0.356 4.121,1.886 1.311,5.854 1.149,11.637 0,17.25 -0.315,1.542 -2.197,1.986 -4.121,2.089 l 0,1.275 z" transform="translate(-9.82375,-573.88504)" id="path3195" style="fill:#9d9e9e;stroke:none"></path>
  <path d="m 574.527,695.785 -14.438,0 0,-2.25 10.781,0 0,-2.052 c 1.332,-0.06 3.852,0.408 4.235,-0.936 1.176,-4.12 1.189,-13.369 -0.157,-13.97 -0.536,-0.239 -0.405,-1.63 -0.41,-2.156 l -14.449,0 0,-2.25 14.438,0 0,1.114 c 1.745,0 3.619,-0.356 4.12,1.886 1.311,5.854 1.149,11.637 0,17.25 -0.315,1.542 -2.196,1.986 -4.12,2.089 l 0,1.275 z" transform="translate(-9.82375,-573.88504)" id="path3197" style="fill:#9d9e9e;stroke:none"></path>
  <path d="m 389.483,695.785 -14.438,0 0,-2.25 10.781,0 0,-2.052 c 1.332,-0.06 3.852,0.408 4.235,-0.936 1.176,-4.12 1.19,-13.369 -0.157,-13.97 -0.536,-0.239 -0.405,-1.63 -0.41,-2.156 l -14.449,0 0,-2.25 14.438,0 0,1.114 c 1.745,0 3.619,-0.356 4.12,1.886 1.311,5.854 1.149,11.637 0,17.25 -0.315,1.542 -2.196,1.986 -4.12,2.089 l 0,1.275 z" transform="translate(-9.82375,-573.88504)" id="path3199" style="fill:#9d9e9e;stroke:none"></path>
  <path d="m 610.714,695.785 -14.438,0 0,-2.25 10.782,0 0,-2.052 c 1.332,-0.06 3.851,0.408 4.235,-0.936 1.176,-4.12 1.189,-13.369 -0.157,-13.97 -0.537,-0.239 -0.405,-1.63 -0.411,-2.156 l -14.449,0 0,-2.25 14.438,0 0,1.114 c 1.745,0 3.619,-0.356 4.121,1.886 1.311,5.854 1.149,11.637 0,17.25 -0.315,1.542 -2.197,1.986 -4.121,2.089 l 0,1.275 z" transform="translate(-9.82375,-573.88504)" id="path3201" style="fill:#9d9e9e;stroke:none"></path>
  <path d="m 426.4,695.785 -14.438,0 0,-2.25 10.782,0 0,-2.052 c 1.332,-0.06 3.851,0.408 4.235,-0.936 1.176,-4.12 1.189,-13.369 -0.157,-13.97 -0.537,-0.239 -0.405,-1.63 -0.411,-2.156 l -14.449,0 0,-2.25 14.438,0 0,1.114 c 1.745,0 3.619,-0.356 4.121,1.886 1.311,5.854 1.149,11.637 0,17.25 -0.315,1.542 -2.197,1.986 -4.121,2.089 l 0,1.275 z" transform="translate(-9.82375,-573.88504)" id="path3203" style="fill:#9d9e9e;stroke:none"></path>
  <path d="m 647.631,695.785 -14.437,0 0,-2.25 10.781,0 0,-2.052 c 1.332,-0.06 3.852,0.408 4.235,-0.936 1.176,-4.12 1.189,-13.369 -0.157,-13.97 -0.537,-0.239 -0.405,-1.63 -0.41,-2.156 l -14.449,0 0,-2.25 14.437,0 0,1.114 c 1.746,0 3.619,-0.356 4.121,1.886 1.311,5.854 1.149,11.637 0,17.25 -0.315,1.542 -2.197,1.986 -4.121,2.089 l 0,1.275 z" transform="translate(-9.82375,-573.88504)" id="path3205" style="fill:#9d9e9e;stroke:none"></path>
  <path d="m 683.926,695.785 -14.437,0 0,-2.25 10.781,0 0,-2.052 c 1.332,-0.06 3.852,0.408 4.235,-0.936 1.176,-4.12 1.189,-13.369 -0.157,-13.97 -0.536,-0.239 -0.405,-1.63 -0.41,-2.156 l -14.449,0 0,-2.25 14.437,0 0,1.114 c 1.746,0 3.619,-0.356 4.121,1.886 1.311,5.854 1.149,11.637 0,17.25 -0.315,1.542 -2.197,1.986 -4.121,2.089 l 0,1.275 z" transform="translate(-9.82375,-573.88504)" id="path3207" style="fill:#9d9e9e;stroke:none"></path>
  <path d="m 238.977,693.535 -12.001,0 c -3.12,0 -4.538,-2.554 -4.538,-5.673 l 0,-7.769 c 0,-3.119 1.419,-5.672 4.538,-5.672 l 1.219,0 12.422,0 2.016,0 0.024,1.256 c 0.004,0.389 0.13,0.701 0.308,0.844 2.075,1.833 0.966,11.414 0.247,14.026 -0.383,1.344 -2.903,0.876 -4.235,0.936 l 0,2.052 z" transform="translate(-9.82375,-573.88504)" id="s5" style="fill:#dedfdf;stroke:none"></path>
  <path d="m 460.208,693.535 -12.001,0 c -3.119,0 -4.538,-2.554 -4.538,-5.673 l 0,-7.769 c 0,-3.119 1.42,-5.672 4.538,-5.672 l 1.22,0 12.421,0 2.016,0 0.024,1.256 c 0.004,0.389 0.131,0.701 0.308,0.844 2.076,1.833 0.966,11.414 0.247,14.026 -0.383,1.344 -2.903,0.876 -4.235,0.936 l 0,2.052 z" transform="translate(-9.82375,-573.88504)" id="s29" style="fill:#dedfdf;stroke:none" number="29" type="seat"></path>
  <path d="m 275.764,693.535 -12.001,0 c -3.12,0 -4.538,-2.554 -4.538,-5.673 l 0,-7.769 c 0,-3.119 1.419,-5.672 4.538,-5.672 l 1.219,0 12.422,0 2.016,0 0.024,1.256 c 0.004,0.389 0.13,0.701 0.308,0.844 2.075,1.833 0.965,11.414 0.247,14.026 -0.384,1.344 -2.903,0.876 -4.235,0.936 l 0,2.052 z" transform="translate(-9.82375,-573.88504)" id="s9" style="fill:#dedfdf;stroke:none" number="9" type="seat"></path>
  <path d="m 496.995,693.535 -12.001,0 c -3.12,0 -4.538,-2.554 -4.538,-5.673 l 0,-7.769 c 0,-3.119 1.42,-5.672 4.538,-5.672 l 1.22,0 12.421,0 2.016,0 0.024,1.256 c 0.004,0.389 0.131,0.701 0.308,0.844 2.076,1.833 0.966,11.414 0.247,14.026 -0.383,1.344 -2.903,0.876 -4.235,0.936 l 0,2.052 z" transform="translate(-9.82375,-573.88504)" id="s33" style="fill:#dedfdf;stroke:none" number="33" type="seat"></path>
  <path d="m 312.701,693.535 -12,0 c -3.12,0 -4.539,-2.554 -4.539,-5.673 l 0,-7.769 c 0,-3.119 1.42,-5.672 4.539,-5.672 l 1.219,0 12.421,0 2.017,0 0.024,1.256 c 0.003,0.389 0.13,0.701 0.308,0.844 2.075,1.833 0.965,11.414 0.246,14.026 -0.383,1.344 -2.903,0.876 -4.235,0.936 l 0,2.052 z" transform="translate(-9.82375,-573.88504)" id="s13" style="fill:#dedfdf;stroke:none" number="13" type="seat"></path>
  <path d="m 533.933,693.535 -12.001,0 c -3.12,0 -4.538,-2.554 -4.538,-5.673 l 0,-7.769 c 0,-3.119 1.419,-5.672 4.538,-5.672 l 1.219,0 12.422,0 2.016,0 0.024,1.256 c 0.004,0.389 0.13,0.701 0.308,0.844 2.075,1.833 0.966,11.414 0.247,14.026 -0.384,1.344 -2.903,0.876 -4.235,0.936 l 0,2.052 z" transform="translate(-9.82375,-573.88504)" id="s37" style="fill:#dedfdf;stroke:none" number="37" type="seat"></path>
  <path d="m 349.639,693.535 -12.001,0 c -3.119,0 -4.538,-2.554 -4.538,-5.673 l 0,-7.769 c 0,-3.119 1.42,-5.672 4.538,-5.672 l 1.22,0 12.421,0 2.016,0 0.024,1.256 c 0.004,0.389 0.131,0.701 0.308,0.844 2.076,1.833 0.966,11.414 0.247,14.026 -0.383,1.344 -2.903,0.876 -4.235,0.936 l 0,2.052 z" transform="translate(-9.82375,-573.88504)" id="s17" style="fill:#dedfdf;stroke:none" number="17" type="seat"></path>
  <path d="m 570.87,693.535 -12,0 c -3.12,0 -4.539,-2.554 -4.539,-5.673 l 0,-7.769 c 0,-3.119 1.42,-5.672 4.539,-5.672 l 1.219,0 12.421,0 2.017,0 0.024,1.256 c 0.003,0.389 0.13,0.701 0.308,0.844 2.075,1.833 0.965,11.414 0.246,14.026 -0.383,1.344 -2.903,0.876 -4.235,0.936 l 0,2.052 z" transform="translate(-9.82375,-573.88504)" id="s41" style="fill:#dedfdf;stroke:none" number="41" type="seat"></path>
  <path d="m 385.826,693.535 -12,0 c -3.12,0 -4.539,-2.554 -4.539,-5.673 l 0,-7.769 c 0,-3.119 1.42,-5.672 4.539,-5.672 l 1.219,0 12.421,0 2.017,0 0.024,1.256 c 0.003,0.389 0.13,0.701 0.308,0.844 2.075,1.833 0.965,11.414 0.246,14.026 -0.383,1.344 -2.903,0.876 -4.235,0.936 l 0,2.052 z" transform="translate(-9.82375,-573.88504)" id="s21" style="fill:#dedfdf;stroke:none" number="21" type="seat"></path>
  <path d="m 607.058,693.535 -12.001,0 c -3.12,0 -4.538,-2.554 -4.538,-5.673 l 0,-7.769 c 0,-3.119 1.419,-5.672 4.538,-5.672 l 1.219,0 12.422,0 2.016,0 0.024,1.256 c 0.004,0.389 0.13,0.701 0.308,0.844 2.075,1.833 0.966,11.414 0.247,14.026 -0.384,1.344 -2.903,0.876 -4.235,0.936 l 0,2.052 z" transform="translate(-9.82375,-573.88504)" id="s45" style="fill:#dedfdf;stroke:none" number="45" type="seat"></path>
  <path d="m 422.744,693.535 -12.001,0 c -3.12,0 -4.538,-2.554 -4.538,-5.673 l 0,-7.769 c 0,-3.119 1.419,-5.672 4.538,-5.672 l 1.219,0 12.422,0 2.016,0 0.024,1.256 c 0.004,0.389 0.13,0.701 0.308,0.844 2.075,1.833 0.966,11.414 0.247,14.026 -0.384,1.344 -2.903,0.876 -4.235,0.936 l 0,2.052 z" transform="translate(-9.82375,-573.88504)" id="s25" style="fill:#dedfdf;stroke:none" number="25" type="seat"></path>
  <path d="m 643.975,693.535 -12.001,0 c -3.12,0 -4.538,-2.554 -4.538,-5.673 l 0,-7.769 c 0,-3.119 1.42,-5.672 4.538,-5.672 l 1.22,0 12.421,0 2.016,0 0.024,1.256 c 0.004,0.389 0.131,0.701 0.308,0.844 2.076,1.833 0.966,11.414 0.247,14.026 -0.383,1.344 -2.903,0.876 -4.235,0.936 l 0,2.052 z" transform="translate(-9.82375,-573.88504)" id="s49" style="fill:#dedfdf;stroke:none" number="49" type="seat"></path>
  <path d="m 680.27,693.535 -12.001,0 c -3.119,0 -4.538,-2.554 -4.538,-5.673 l 0,-7.769 c 0,-3.119 1.42,-5.672 4.538,-5.672 l 1.22,0 12.421,0 2.016,0 0.024,1.256 c 0.004,0.389 0.131,0.701 0.309,0.844 2.075,1.833 0.965,11.414 0.246,14.026 -0.383,1.344 -2.903,0.876 -4.235,0.936 l 0,2.052 z" transform="translate(-9.82375,-573.88504)" id="s53" style="fill:#dedfdf;stroke:none" number="53" type="seat"></path>
  <path d="m 35.136,594.336 -10.7498,0 0,2.062 -4.5009,0 0,-8 -2.6872,0 0,21.875 2.6872,0 0,-8 4.5009,0 0,2.063 10.7498,0 0,-10 z m -2.8834,19.306 -1.4998,-0.851 -1.5001,0.851 -1.4998,-0.851 -1.5001,0.851 -1.4998,-0.851 -1.5001,0.851 -1.4998,-0.851 -1.5001,0.851 0,0.76 -1.9922,0 0,7.688 1.9326,0 -1.9947,4.058 -8.37495,0 0,24.875 8.37495,0 1.4457,2.942 -1.3836,0 0,7.687 1.9922,0 0,0.726 1.5001,0.851 1.4998,-0.851 1.5001,0.851 1.4998,-0.851 1.5001,0.851 0.792,-0.449 1.4159,0 0.792,0.449 0.792,-0.449 3.5912,0 0,-1.128 0,-1.873 0,-1.381 0,-4.433 0,-31.875 0,-3.317 0,-1.133 0,-3.001 0,-0.237 -2.8834,0 0,-0.76 z m 2.8834,57.132 -10.7498,0 0,2.062 -4.5009,0 0,-8 -2.6872,0 0,21.875 2.6872,0 0,-8 4.5009,0 0,2.063 10.7498,0 0,-10 z" transform="translate(-9.82375,-573.88504)" id="path3235" style="fill:#9d9e9e;stroke:none"></path>
  <path d="m 758.153,586.835 0,17.812 -8.813,0 0,-17.812 8.813,0 z m -11.063,0 0,17.812 -10.246,0 c -4.677,0 -8.504,-3.827 -8.504,-8.504 l 0,-0.804 c 0,-4.677 3.827,-8.504 8.504,-8.504 l 10.246,0 z m -4.365,4.365 -5.881,0 c -2.268,0 -4.139,1.871 -4.139,4.139 l 0,0.804 c 0,2.268 1.871,4.139 4.139,4.139 l 5.881,0 0,-9.082 z" transform="translate(-9.82375,-573.88504)" id="path3237" style="fill:#c2c5cc;stroke:none"></path>
  <path d="m 758.153,672.335 0,17.813 -8.813,0 0,-17.813 8.813,0 z m -11.063,0 0,17.813 -10.246,0 c -4.677,0 -8.504,-3.827 -8.504,-8.504 l 0,-0.805 c 0,-4.677 3.827,-8.504 8.504,-8.504 l 10.246,0 z m -4.365,4.366 -5.881,0 c -2.268,0 -4.139,1.87 -4.139,4.138 l 0,0.805 c 0,2.267 1.871,4.138 4.139,4.138 l 5.881,0 0,-9.081 z" transform="translate(-9.82375,-573.88504)" id="path3239" style="fill:#c2c5cc;stroke:none"></path>
  <path d="m 195.13,689.178 2.352,0 0,-10.4 -2,0 -2.768,1.28 0.4,1.824 1.984,-0.944 0.032,0 0,8.24 z" transform="translate(-9.82375,-573.88504)" id="n1" style="fill:#fcfcfc;stroke:none"></path>
  <path d="m 199.418,665.229 0,-2 -3.936,0 0,-0.032 0.96,-0.8 c 1.519,-1.344 2.768,-2.736 2.768,-4.496 0,-1.872 -1.281,-3.247 -3.648,-3.247 -1.392,0 -2.624,0.479 -3.392,1.071 l 0.688,1.728 c 0.544,-0.4 1.328,-0.848 2.223,-0.848 1.201,0 1.697,0.672 1.697,1.52 -0.016,1.216 -1.121,2.384 -3.408,4.432 l -1.328,1.2 0,1.472 7.376,0 z" transform="translate(-9.82375,-573.88504)" id="n2" style="fill:#fcfcfc;stroke:none"></path>
  <path d="m 237.171,678.778 -5.728,0 -0.672,5.456 c 0.416,-0.064 0.816,-0.096 1.392,-0.096 2.08,0 2.928,0.656 2.928,1.728 0,1.104 -1.072,1.584 -2.08,1.584 -0.944,0 -1.888,-0.288 -2.336,-0.512 l -0.448,1.824 c 0.576,0.304 1.632,0.592 2.896,0.592 2.8,0 4.464,-1.712 4.464,-3.648 0,-1.216 -0.48,-2.08 -1.264,-2.608 -0.72,-0.528 -1.744,-0.752 -2.736,-0.752 -0.256,0 -0.448,0 -0.672,0.032 l 0.224,-1.6 4.032,0 0,-2 z" transform="translate(-9.82375,-573.88504)" id="n5" style="fill:#fcfcfc;stroke:none"></path>
  <path d="m 236.867,654.685 c -0.224,-0.016 -0.528,-0.031 -0.976,0.016 -1.616,0.08 -2.976,0.576 -4,1.52 -1.136,1.056 -1.856,2.688 -1.856,4.64 0,2.48 1.36,4.544 4.144,4.544 2.24,0 3.824,-1.696 3.824,-3.76 0,-2.16 -1.472,-3.392 -3.216,-3.392 -0.96,0 -1.696,0.304 -2.208,0.816 l -0.048,0 c 0.272,-1.2 1.232,-2.304 3.392,-2.48 0.384,-0.032 0.672,-0.048 0.944,-0.032 l 0,-1.872 z m -2.72,8.928 c -1.12,0 -1.648,-0.992 -1.696,-2.096 0,-0.288 0.032,-0.48 0.112,-0.624 0.224,-0.512 0.768,-0.912 1.424,-0.912 1.04,0 1.552,0.832 1.552,1.792 0,1.056 -0.544,1.84 -1.392,1.84 z" transform="translate(-9.82375,-573.88504)" id="n6" style="fill:#fcfcfc;stroke:none" number="6" type="number"></path>
  <path d="m 267.302,689.322 c 0.272,0.016 0.704,0.032 1.104,0 1.616,-0.064 2.992,-0.544 3.984,-1.44 1.136,-1.056 1.824,-2.624 1.824,-4.8 0,-2.432 -1.264,-4.48 -3.936,-4.48 -2.288,0 -3.92,1.712 -3.92,3.744 0,2.032 1.472,3.248 3.232,3.248 0.944,0 1.632,-0.272 2.096,-0.752 l 0.032,0.016 c -0.176,0.784 -0.624,1.472 -1.312,1.936 -0.544,0.384 -1.296,0.592 -2.048,0.64 -0.48,0.016 -0.736,0.032 -1.056,0 l 0,1.888 z m 2.88,-8.944 c 1.136,0 1.552,1.088 1.536,2.192 0,0.304 -0.032,0.464 -0.112,0.624 -0.224,0.368 -0.688,0.672 -1.36,0.672 -0.976,0 -1.472,-0.768 -1.472,-1.664 0,-1.088 0.592,-1.824 1.408,-1.824 z" transform="translate(-9.82375,-573.88504)" id="n9" style="fill:#fcfcfc;stroke:none" number="9" type="number"></path>
  <path d="m 264.566,665.229 2.352,0 0,-10.4 -2,0 -2.768,1.28 0.4,1.824 1.984,-0.944 0.032,0 0,8.24 z m 9.584,-10.575 c -2.688,0 -3.952,2.367 -3.952,5.391 0.016,2.944 1.2,5.36 3.888,5.36 2.64,0 3.936,-2.224 3.936,-5.424 0,-2.848 -1.104,-5.327 -3.872,-5.327 z m -0.032,1.839 c 0.976,0 1.472,1.216 1.472,3.52 0,2.368 -0.512,3.552 -1.456,3.552 -0.928,0 -1.504,-1.136 -1.504,-3.52 0,-2.432 0.608,-3.552 1.488,-3.552 z" transform="translate(-9.82375,-573.88504)" id="n10" style="fill:#fcfcfc;stroke:none" number="10" type="number"></path>
  <path d="m 301.704,689.177 2.351,0 0,-10.4 -1.999,0 -2.768,1.281 0.4,1.824 1.984,-0.945 0.032,0 0,8.24 z m 5.711,-0.543 c 0.608,0.367 1.744,0.72 3.088,0.72 2.64,0 4.256,-1.344 4.256,-3.168 0,-1.376 -1.008,-2.32 -2.256,-2.545 l 0,-0.032 c 1.28,-0.432 1.904,-1.312 1.904,-2.416 0,-1.423 -1.232,-2.591 -3.44,-2.591 -1.36,0 -2.592,0.384 -3.216,0.783 l 0.496,1.761 c 0.416,-0.256 1.312,-0.624 2.16,-0.624 1.04,0 1.536,0.464 1.536,1.088 0,0.879 -1.024,1.199 -1.84,1.199 l -0.96,0 0,1.745 0.992,0 c 1.072,0 2.096,0.464 2.096,1.503 0,0.769 -0.64,1.377 -1.904,1.377 -0.992,0 -1.984,-0.4 -2.416,-0.64 l -0.496,1.84 z" transform="translate(-9.82375,-573.88504)" id="n13" style="fill:#fcfcfc;stroke:none" number="13" type="number"></path>
  <path d="m 301.304,665.229 2.351,0 0,-10.4 -1.999,0 -2.768,1.28 0.4,1.824 1.984,-0.944 0.032,0 0,8.24 z m 12.383,0 0,-2.48 1.232,0 0,-1.824 -1.232,0 0,-6.096 -2.992,0 -3.92,6.336 0,1.584 4.608,0 0,2.48 2.304,0 z m -4.656,-4.304 0.016,-0.032 1.376,-2.272 c 0.352,-0.656 0.64,-1.264 0.976,-1.936 l 0.048,0 c -0.032,0.672 -0.064,1.312 -0.064,1.936 l 0,2.304 -2.352,0 z" transform="translate(-9.82375,-573.88504)" id="n14" style="fill:#fcfcfc;stroke:none" number="14" type="number"></path>
  <path d="m 338.306,689.177 2.352,0 0,-10.4 -1.999,0 -2.768,1.281 0.399,1.824 1.984,-0.945 0.032,0 0,8.24 z m 5.888,-10.4 0,2.001 4.768,0 0,0.032 -4.288,8.367 2.576,0 4.288,-8.863 0,-1.537 -7.344,0 z" transform="translate(-9.82375,-573.88504)" id="n17" style="fill:#fcfcfc;stroke:none" number="17" type="number"></path>
  <path d="m 337.906,665.229 2.352,0 0,-10.4 -1.999,0 -2.768,1.28 0.4,1.824 1.983,-0.944 0.032,0 0,8.24 z m 7.472,-5.328 c -1.136,0.496 -1.856,1.36 -1.856,2.608 0,1.408 1.216,2.896 3.856,2.896 2.416,0 4,-1.28 4,-3.168 0,-1.328 -0.896,-2.192 -1.92,-2.576 l 0,-0.048 c 1.04,-0.512 1.52,-1.392 1.52,-2.288 0,-1.264 -1.008,-2.671 -3.44,-2.671 -2.08,0 -3.664,1.167 -3.664,2.927 0,0.912 0.496,1.76 1.504,2.288 l 0,0.032 z m 2.096,3.824 c -0.912,0 -1.488,-0.704 -1.472,-1.456 0,-0.752 0.464,-1.328 1.264,-1.552 0.944,0.256 1.632,0.8 1.632,1.712 0,0.736 -0.576,1.296 -1.424,1.296 z m -0.048,-7.424 c 0.896,0 1.264,0.64 1.264,1.296 0,0.64 -0.496,1.152 -1.056,1.312 -0.832,-0.256 -1.456,-0.704 -1.456,-1.408 0,-0.64 0.416,-1.2 1.248,-1.2 z" transform="translate(-9.82375,-573.88504)" id="n18" style="fill:#fcfcfc;stroke:none" number="18" type="number"></path>
  <path d="m 380.365,689.177 0,-2 -3.936,0 0,-0.031 0.96,-0.801 c 1.52,-1.344 2.768,-2.736 2.768,-4.495 0,-1.872 -1.281,-3.248 -3.648,-3.248 -1.392,0 -2.624,0.48 -3.392,1.071 l 0.688,1.728 c 0.544,-0.399 1.328,-0.847 2.224,-0.847 1.2,0 1.696,0.671 1.696,1.52 -0.016,1.216 -1.121,2.384 -3.408,4.432 l -1.328,1.199 0,1.472 7.376,0 z m 4.592,0 2.351,0 0,-10.4 -1.999,0 -2.768,1.281 0.399,1.824 1.984,-0.945 0.033,0 0,8.24 z" transform="translate(-9.82375,-573.88504)" id="n21" style="fill:#fcfcfc;stroke:none" number="21" type="number"></path>
  <path d="m 379.397,665.229 0,-2 -3.936,0 0,-0.032 0.96,-0.8 c 1.519,-1.344 2.768,-2.736 2.768,-4.496 0,-1.872 -1.281,-3.247 -3.648,-3.247 -1.392,0 -2.624,0.479 -3.392,1.071 l 0.688,1.728 c 0.544,-0.4 1.328,-0.848 2.223,-0.848 1.201,0 1.697,0.672 1.697,1.52 -0.016,1.216 -1.121,2.384 -3.408,4.432 l -1.328,1.2 0,1.472 7.376,0 z m 8.879,0 0,-2 -3.935,0 0,-0.032 0.959,-0.8 c 1.52,-1.344 2.768,-2.736 2.768,-4.496 0,-1.872 -1.28,-3.247 -3.648,-3.247 -1.392,0 -2.624,0.479 -3.391,1.071 l 0.687,1.728 c 0.544,-0.4 1.329,-0.848 2.224,-0.848 1.2,0 1.697,0.672 1.697,1.52 -0.017,1.216 -1.121,2.384 -3.409,4.432 l -1.328,1.2 0,1.472 7.376,0 z" transform="translate(-9.82375,-573.88504)" id="n22" style="fill:#fcfcfc;stroke:none" number="22" type="number"></path>
  <path d="m 415.78,689.177 0,-2 -3.936,0 0,-0.031 0.959,-0.801 c 1.52,-1.344 2.769,-2.736 2.769,-4.495 0,-1.872 -1.281,-3.248 -3.648,-3.248 -1.392,0 -2.624,0.48 -3.392,1.071 l 0.688,1.728 c 0.544,-0.399 1.328,-0.847 2.223,-0.847 1.201,0 1.697,0.671 1.697,1.52 -0.016,1.216 -1.121,2.384 -3.408,4.432 l -1.328,1.199 0,1.472 7.376,0 z m 8.431,-10.4 -5.728,0 -0.672,5.457 c 0.416,-0.064 0.816,-0.097 1.392,-0.097 2.08,0 2.928,0.656 2.928,1.728 0,1.105 -1.072,1.584 -2.08,1.584 -0.944,0 -1.887,-0.288 -2.336,-0.511 l -0.448,1.823 c 0.577,0.305 1.632,0.593 2.896,0.593 2.8,0 4.464,-1.713 4.464,-3.648 0,-1.216 -0.48,-2.08 -1.264,-2.609 -0.72,-0.527 -1.744,-0.752 -2.736,-0.752 -0.256,0 -0.448,0 -0.672,0.032 l 0.224,-1.599 4.032,0 0,-2.001 z" transform="translate(-9.82375,-573.88504)" id="n25" style="fill:#fcfcfc;stroke:none" number="25" type="number"></path>
  <path d="m 416.122,665.229 0,-2 -3.936,0 0,-0.032 0.96,-0.8 c 1.52,-1.344 2.768,-2.736 2.768,-4.496 0,-1.872 -1.28,-3.247 -3.648,-3.247 -1.392,0 -2.624,0.479 -3.392,1.071 l 0.688,1.728 c 0.544,-0.4 1.328,-0.848 2.224,-0.848 1.2,0 1.696,0.672 1.696,1.52 -0.016,1.216 -1.12,2.384 -3.408,4.432 l -1.328,1.2 0,1.472 7.376,0 z m 8.128,-10.544 c -0.224,-0.016 -0.528,-0.031 -0.976,0.016 -1.616,0.08 -2.976,0.576 -4,1.52 -1.136,1.056 -1.856,2.688 -1.856,4.64 0,2.48 1.36,4.544 4.144,4.544 2.24,0 3.824,-1.696 3.824,-3.76 0,-2.16 -1.472,-3.392 -3.216,-3.392 -0.96,0 -1.696,0.304 -2.208,0.816 l -0.048,0 c 0.272,-1.2 1.232,-2.304 3.392,-2.48 0.384,-0.032 0.672,-0.048 0.944,-0.032 l 0,-1.872 z m -2.72,8.928 c -1.12,0 -1.648,-0.992 -1.696,-2.096 0,-0.288 0.032,-0.48 0.112,-0.624 0.224,-0.512 0.768,-0.912 1.424,-0.912 1.04,0 1.552,0.832 1.552,1.792 0,1.056 -0.544,1.84 -1.392,1.84 z" transform="translate(-9.82375,-573.88504)" id="n26" style="fill:#fcfcfc;stroke:none" number="26" type="number"></path>
  <path d="m 453.794,689.177 0,-2 -3.936,0 0,-0.031 0.96,-0.801 c 1.52,-1.344 2.768,-2.736 2.768,-4.495 0,-1.872 -1.28,-3.248 -3.648,-3.248 -1.392,0 -2.624,0.48 -3.392,1.071 l 0.688,1.728 c 0.544,-0.399 1.328,-0.847 2.224,-0.847 1.2,0 1.696,0.671 1.696,1.52 -0.016,1.216 -1.12,2.384 -3.408,4.432 l -1.328,1.199 0,1.472 7.376,0 z m 2.24,0.144 c 0.272,0.016 0.704,0.033 1.104,0 1.616,-0.064 2.992,-0.543 3.984,-1.44 1.136,-1.055 1.824,-2.624 1.824,-4.799 0,-2.433 -1.264,-4.48 -3.936,-4.48 -2.288,0 -3.92,1.712 -3.92,3.743 0,2.033 1.472,3.249 3.232,3.249 0.944,0 1.632,-0.272 2.096,-0.752 l 0.032,0.015 c -0.176,0.785 -0.624,1.473 -1.312,1.937 -0.544,0.383 -1.296,0.591 -2.048,0.64 -0.48,0.015 -0.736,0.031 -1.056,0 l 0,1.887 z m 2.88,-8.943 c 1.136,0 1.552,1.088 1.536,2.192 0,0.304 -0.032,0.464 -0.112,0.624 -0.224,0.368 -0.688,0.672 -1.36,0.672 -0.976,0 -1.472,-0.769 -1.472,-1.665 0,-1.088 0.592,-1.823 1.408,-1.823 z" transform="translate(-9.82375,-573.88504)" id="n29" style="fill:#fcfcfc;stroke:none" number="29" type="number"></path>
  <path d="m 446.13,664.685 c 0.608,0.368 1.744,0.72 3.088,0.72 2.64,0 4.256,-1.344 4.256,-3.168 0,-1.376 -1.008,-2.32 -2.256,-2.544 l 0,-0.032 c 1.28,-0.432 1.904,-1.312 1.904,-2.416 0,-1.424 -1.232,-2.591 -3.44,-2.591 -1.36,0 -2.592,0.383 -3.216,0.783 l 0.496,1.76 c 0.416,-0.256 1.312,-0.624 2.16,-0.624 1.04,0 1.536,0.464 1.536,1.088 0,0.88 -1.024,1.2 -1.84,1.2 l -0.96,0 0,1.744 0.992,0 c 1.072,0 2.096,0.464 2.096,1.504 0,0.768 -0.64,1.376 -1.904,1.376 -0.992,0 -1.984,-0.4 -2.416,-0.64 l -0.496,1.84 z m 12.752,-10.031 c -2.688,0 -3.952,2.367 -3.952,5.391 0.016,2.944 1.2,5.36 3.888,5.36 2.64,0 3.936,-2.224 3.936,-5.424 0,-2.848 -1.104,-5.327 -3.872,-5.327 z m -0.032,1.839 c 0.976,0 1.472,1.216 1.472,3.52 0,2.368 -0.512,3.552 -1.456,3.552 -0.928,0 -1.504,-1.136 -1.504,-3.52 0,-2.432 0.608,-3.552 1.488,-3.552 z" transform="translate(-9.82375,-573.88504)" id="n30" style="fill:#fcfcfc;stroke:none" number="30" type="number"></path>
  <path d="m 483.213,688.634 c 0.608,0.367 1.744,0.72 3.088,0.72 2.64,0 4.256,-1.344 4.256,-3.168 0,-1.376 -1.008,-2.32 -2.256,-2.545 l 0,-0.032 c 1.28,-0.432 1.904,-1.312 1.904,-2.416 0,-1.423 -1.232,-2.591 -3.44,-2.591 -1.36,0 -2.592,0.384 -3.216,0.783 l 0.496,1.761 c 0.416,-0.256 1.312,-0.624 2.16,-0.624 1.04,0 1.536,0.464 1.536,1.088 0,0.879 -1.024,1.199 -1.84,1.199 l -0.96,0 0,1.745 0.992,0 c 1.072,0 2.096,0.464 2.096,1.503 0,0.769 -0.64,1.377 -1.904,1.377 -0.992,0 -1.984,-0.4 -2.416,-0.64 l -0.496,1.84 z m 8.88,0 c 0.608,0.367 1.744,0.72 3.088,0.72 2.64,0 4.256,-1.344 4.256,-3.168 0,-1.376 -1.008,-2.32 -2.256,-2.545 l 0,-0.032 c 1.28,-0.432 1.904,-1.312 1.904,-2.416 0,-1.423 -1.232,-2.591 -3.44,-2.591 -1.36,0 -2.592,0.384 -3.216,0.783 l 0.496,1.761 c 0.416,-0.256 1.312,-0.624 2.16,-0.624 1.04,0 1.536,0.464 1.536,1.088 0,0.879 -1.024,1.199 -1.84,1.199 l -0.96,0 0,1.745 0.992,0 c 1.072,0 2.096,0.464 2.096,1.503 0,0.769 -0.64,1.377 -1.904,1.377 -0.992,0 -1.984,-0.4 -2.416,-0.64 l -0.496,1.84 z" transform="translate(-9.82375,-573.88504)" id="n33" style="fill:#fcfcfc;stroke:none" number="33" type="number"></path>
  <path d="m 483.005,664.685 c 0.608,0.368 1.744,0.72 3.088,0.72 2.64,0 4.256,-1.344 4.256,-3.168 0,-1.376 -1.008,-2.32 -2.256,-2.544 l 0,-0.032 c 1.28,-0.432 1.904,-1.312 1.904,-2.416 0,-1.424 -1.232,-2.591 -3.44,-2.591 -1.36,0 -2.592,0.383 -3.216,0.783 l 0.496,1.76 c 0.416,-0.256 1.312,-0.624 2.16,-0.624 1.04,0 1.536,0.464 1.536,1.088 0,0.88 -1.024,1.2 -1.84,1.2 l -0.96,0 0,1.744 0.992,0 c 1.072,0 2.096,0.464 2.096,1.504 0,0.768 -0.64,1.376 -1.904,1.376 -0.992,0 -1.984,-0.4 -2.416,-0.64 l -0.496,1.84 z m 15.552,0.544 0,-2.48 1.232,0 0,-1.824 -1.232,0 0,-6.096 -2.992,0 -3.92,6.336 0,1.584 4.608,0 0,2.48 2.304,0 z m -4.656,-4.304 0.016,-0.032 1.376,-2.272 c 0.352,-0.656 0.64,-1.264 0.976,-1.936 l 0.048,0 c -0.032,0.672 -0.064,1.312 -0.064,1.936 l 0,2.304 -2.352,0 z" transform="translate(-9.82375,-573.88504)" id="n34" style="fill:#fcfcfc;stroke:none" number="34" type="number"></path>
  <path d="m 520.055,688.634 c 0.608,0.367 1.744,0.72 3.088,0.72 2.64,0 4.256,-1.344 4.256,-3.168 0,-1.376 -1.008,-2.32 -2.256,-2.545 l 0,-0.032 c 1.28,-0.432 1.904,-1.312 1.904,-2.416 0,-1.423 -1.232,-2.591 -3.44,-2.591 -1.36,0 -2.592,0.384 -3.216,0.783 l 0.496,1.761 c 0.416,-0.256 1.312,-0.624 2.16,-0.624 1.04,0 1.536,0.464 1.536,1.088 0,0.879 -1.024,1.199 -1.84,1.199 l -0.96,0 0,1.745 0.992,0 c 1.072,0 2.096,0.464 2.096,1.503 0,0.769 -0.64,1.377 -1.904,1.377 -0.992,0 -1.984,-0.4 -2.416,-0.64 l -0.496,1.84 z m 9.056,-9.857 0,2.001 4.768,0 0,0.032 -4.288,8.367 2.576,0 4.288,-8.863 0,-1.537 -7.344,0 z" transform="translate(-9.82375,-573.88504)" id="n37" style="fill:#fcfcfc;stroke:none" number="37" type="number"></path>
  <path d="m 519.935,664.685 c 0.608,0.368 1.744,0.72 3.088,0.72 2.64,0 4.256,-1.344 4.256,-3.168 0,-1.376 -1.008,-2.32 -2.256,-2.544 l 0,-0.032 c 1.28,-0.432 1.904,-1.312 1.904,-2.416 0,-1.424 -1.232,-2.591 -3.44,-2.591 -1.36,0 -2.592,0.383 -3.216,0.783 l 0.496,1.76 c 0.416,-0.256 1.312,-0.624 2.16,-0.624 1.04,0 1.536,0.464 1.536,1.088 0,0.88 -1.024,1.2 -1.84,1.2 l -0.96,0 0,1.744 0.992,0 c 1.072,0 2.096,0.464 2.096,1.504 0,0.768 -0.64,1.376 -1.904,1.376 -0.992,0 -1.984,-0.4 -2.416,-0.64 l -0.496,1.84 z m 10.64,-4.784 c -1.136,0.496 -1.856,1.36 -1.856,2.608 0,1.408 1.216,2.896 3.856,2.896 2.416,0 4,-1.28 4,-3.168 0,-1.328 -0.896,-2.192 -1.92,-2.576 l 0,-0.048 c 1.04,-0.512 1.52,-1.392 1.52,-2.288 0,-1.264 -1.008,-2.671 -3.44,-2.671 -2.08,0 -3.664,1.167 -3.664,2.927 0,0.912 0.496,1.76 1.504,2.288 l 0,0.032 z m 2.096,3.824 c -0.912,0 -1.488,-0.704 -1.472,-1.456 0,-0.752 0.464,-1.328 1.264,-1.552 0.944,0.256 1.632,0.8 1.632,1.712 0,0.736 -0.576,1.296 -1.424,1.296 z m -0.048,-7.424 c 0.896,0 1.264,0.64 1.264,1.296 0,0.64 -0.496,1.152 -1.056,1.312 -0.832,-0.256 -1.456,-0.704 -1.456,-1.408 0,-0.64 0.416,-1.2 1.248,-1.2 z" transform="translate(-9.82375,-573.88504)" id="n38" style="fill:#fcfcfc;stroke:none" number="38" type="number"></path>
  <path d="m 564.784,689.177 0,-2.48 1.232,0 0,-1.823 -1.232,0 0,-6.097 -2.992,0 -3.92,6.336 0,1.584 4.608,0 0,2.48 2.304,0 z m -4.655,-4.303 0.015,-0.032 1.376,-2.272 c 0.352,-0.657 0.64,-1.264 0.977,-1.936 l 0.047,0 c -0.032,0.672 -0.064,1.311 -0.064,1.936 l 0,2.304 -2.351,0 z m 10.031,4.303 2.352,0 0,-10.4 -2,0 -2.768,1.281 0.4,1.824 1.984,-0.945 0.032,0 0,8.24 z" transform="translate(-9.82375,-573.88504)" id="n41" style="fill:#fcfcfc;stroke:none" number="41" type="number"></path>
  <path d="m 563.448,665.229 0,-2.48 1.232,0 0,-1.824 -1.232,0 0,-6.096 -2.992,0 -3.92,6.336 0,1.584 4.608,0 0,2.48 2.304,0 z m -4.655,-4.304 0.015,-0.032 1.376,-2.272 c 0.352,-0.656 0.64,-1.264 0.977,-1.936 l 0.048,0 c -0.032,0.672 -0.065,1.312 -0.065,1.936 l 0,2.304 -2.351,0 z m 14.319,4.304 0,-2 -3.936,0 0,-0.032 0.96,-0.8 c 1.52,-1.344 2.768,-2.736 2.768,-4.496 0,-1.872 -1.28,-3.247 -3.648,-3.247 -1.392,0 -2.624,0.479 -3.392,1.071 l 0.688,1.728 c 0.544,-0.4 1.328,-0.848 2.224,-0.848 1.2,0 1.696,0.672 1.696,1.52 -0.016,1.216 -1.12,2.384 -3.408,4.432 l -1.328,1.2 0,1.472 7.376,0 z" transform="translate(-9.82375,-573.88504)" id="n42" style="fill:#fcfcfc;stroke:none" number="42" type="number"></path>
  <path d="m 600.219,689.177 0,-2.48 1.232,0 0,-1.823 -1.232,0 0,-6.097 -2.992,0 -3.92,6.336 0,1.584 4.608,0 0,2.48 2.304,0 z m -4.656,-4.303 0.016,-0.032 1.376,-2.272 c 0.352,-0.657 0.64,-1.264 0.976,-1.936 l 0.048,0 c -0.032,0.672 -0.064,1.311 -0.064,1.936 l 0,2.304 -2.352,0 z m 13.871,-6.097 -5.728,0 -0.671,5.457 c 0.415,-0.064 0.815,-0.097 1.391,-0.097 2.08,0 2.929,0.656 2.929,1.728 0,1.105 -1.072,1.584 -2.08,1.584 -0.944,0 -1.888,-0.288 -2.337,-0.511 l -0.447,1.823 c 0.576,0.305 1.631,0.593 2.895,0.593 2.801,0 4.464,-1.713 4.464,-3.648 0,-1.216 -0.479,-2.08 -1.263,-2.609 -0.72,-0.527 -1.745,-0.752 -2.736,-0.752 -0.256,0 -0.449,0 -0.673,0.032 l 0.224,-1.599 4.032,0 0,-2.001 z" transform="translate(-9.82375,-573.88504)" id="n45" style="fill:#fcfcfc;stroke:none" number="45" type="number"></path>
  <path d="m 600.011,665.229 0,-2.48 1.231,0 0,-1.824 -1.231,0 0,-6.096 -2.992,0 -3.92,6.336 0,1.584 4.608,0 0,2.48 2.304,0 z m -4.656,-4.304 0.016,-0.032 1.375,-2.272 c 0.353,-0.656 0.641,-1.264 0.977,-1.936 l 0.048,0 c -0.032,0.672 -0.064,1.312 -0.064,1.936 l 0,2.304 -2.352,0 z m 13.567,-6.24 c -0.224,-0.016 -0.528,-0.031 -0.976,0.016 -1.616,0.08 -2.976,0.576 -4,1.52 -1.136,1.056 -1.856,2.688 -1.856,4.64 0,2.48 1.36,4.544 4.144,4.544 2.24,0 3.824,-1.696 3.824,-3.76 0,-2.16 -1.471,-3.392 -3.216,-3.392 -0.959,0 -1.696,0.304 -2.208,0.816 l -0.047,0 c 0.271,-1.2 1.231,-2.304 3.392,-2.48 0.383,-0.032 0.671,-0.048 0.943,-0.032 l 0,-1.872 z m -2.72,8.928 c -1.12,0 -1.647,-0.992 -1.696,-2.096 0,-0.288 0.032,-0.48 0.112,-0.624 0.225,-0.512 0.768,-0.912 1.424,-0.912 1.04,0 1.552,0.832 1.552,1.792 0,1.056 -0.544,1.84 -1.392,1.84 z" transform="translate(-9.82375,-573.88504)" id="n46" style="fill:#fcfcfc;stroke:none" number="46" type="number"></path>
  <path d="m 636.625,689.177 0,-2.48 1.232,0 0,-1.823 -1.232,0 0,-6.097 -2.992,0 -3.92,6.336 0,1.584 4.608,0 0,2.48 2.304,0 z m -4.656,-4.303 0.016,-0.032 1.376,-2.272 c 0.352,-0.657 0.64,-1.264 0.976,-1.936 l 0.048,0 c -0.032,0.672 -0.064,1.311 -0.064,1.936 l 0,2.304 -2.352,0 z m 7.68,4.447 c 0.272,0.016 0.704,0.033 1.104,0 1.616,-0.064 2.992,-0.543 3.984,-1.44 1.136,-1.055 1.824,-2.624 1.824,-4.799 0,-2.433 -1.264,-4.48 -3.936,-4.48 -2.288,0 -3.92,1.712 -3.92,3.743 0,2.033 1.472,3.249 3.232,3.249 0.944,0 1.632,-0.272 2.096,-0.752 l 0.032,0.015 c -0.176,0.785 -0.624,1.473 -1.312,1.937 -0.544,0.383 -1.296,0.591 -2.048,0.64 -0.48,0.015 -0.736,0.031 -1.056,0 l 0,1.887 z m 2.88,-8.943 c 1.136,0 1.552,1.088 1.536,2.192 0,0.304 -0.032,0.464 -0.112,0.624 -0.224,0.368 -0.688,0.672 -1.36,0.672 -0.976,0 -1.472,-0.769 -1.472,-1.665 0,-1.088 0.592,-1.823 1.408,-1.823 z" transform="translate(-9.82375,-573.88504)" id="n49" style="fill:#fcfcfc;stroke:none" number="49" type="number"></path>
  <path d="m 636.993,654.829 -5.728,0 -0.672,5.456 c 0.416,-0.064 0.816,-0.096 1.392,-0.096 2.08,0 2.928,0.656 2.928,1.728 0,1.104 -1.072,1.584 -2.08,1.584 -0.944,0 -1.888,-0.288 -2.336,-0.512 l -0.448,1.824 c 0.576,0.304 1.632,0.592 2.896,0.592 2.8,0 4.464,-1.712 4.464,-3.648 0,-1.216 -0.48,-2.08 -1.264,-2.608 -0.72,-0.528 -1.744,-0.752 -2.736,-0.752 -0.256,0 -0.448,0 -0.672,0.032 l 0.224,-1.6 4.032,0 0,-2 z m 5.744,-0.175 c -2.688,0 -3.952,2.367 -3.952,5.391 0.016,2.944 1.2,5.36 3.888,5.36 2.64,0 3.936,-2.224 3.936,-5.424 0,-2.848 -1.104,-5.327 -3.872,-5.327 z m -0.032,1.839 c 0.976,0 1.472,1.216 1.472,3.52 0,2.368 -0.512,3.552 -1.456,3.552 -0.928,0 -1.504,-1.136 -1.504,-3.52 0,-2.432 0.608,-3.552 1.488,-3.552 z" transform="translate(-9.82375,-573.88504)" id="n50" style="fill:#fcfcfc;stroke:none" number="50" type="number"></path>
  <path d="m 673.456,678.777 -5.728,0 -0.672,5.457 c 0.416,-0.064 0.816,-0.097 1.392,-0.097 2.08,0 2.928,0.656 2.928,1.728 0,1.105 -1.072,1.584 -2.08,1.584 -0.944,0 -1.888,-0.288 -2.336,-0.511 l -0.448,1.823 c 0.576,0.305 1.632,0.593 2.896,0.593 2.8,0 4.464,-1.713 4.464,-3.648 0,-1.216 -0.48,-2.08 -1.264,-2.609 -0.72,-0.527 -1.744,-0.752 -2.736,-0.752 -0.256,0 -0.448,0 -0.672,0.032 l 0.224,-1.599 4.032,0 0,-2.001 z m 1.872,9.857 c 0.608,0.367 1.744,0.72 3.088,0.72 2.64,0 4.256,-1.344 4.256,-3.168 0,-1.376 -1.008,-2.32 -2.256,-2.545 l 0,-0.032 c 1.28,-0.432 1.904,-1.312 1.904,-2.416 0,-1.423 -1.232,-2.591 -3.44,-2.591 -1.36,0 -2.592,0.384 -3.216,0.783 l 0.496,1.761 c 0.416,-0.256 1.312,-0.624 2.16,-0.624 1.04,0 1.536,0.464 1.536,1.088 0,0.879 -1.024,1.199 -1.84,1.199 l -0.96,0 0,1.745 0.992,0 c 1.072,0 2.096,0.464 2.096,1.503 0,0.769 -0.64,1.377 -1.904,1.377 -0.992,0 -1.984,-0.4 -2.416,-0.64 l -0.496,1.84 z" transform="translate(-9.82375,-573.88504)" id="n53" style="fill:#fcfcfc;stroke:none" number="53" type="number"></path>
  <path d="m 673.176,654.829 -5.728,0 -0.672,5.456 c 0.416,-0.064 0.816,-0.096 1.392,-0.096 2.08,0 2.928,0.656 2.928,1.728 0,1.104 -1.072,1.584 -2.08,1.584 -0.944,0 -1.888,-0.288 -2.336,-0.512 l -0.448,1.824 c 0.576,0.304 1.632,0.592 2.896,0.592 2.8,0 4.464,-1.712 4.464,-3.648 0,-1.216 -0.48,-2.08 -1.264,-2.608 -0.72,-0.528 -1.744,-0.752 -2.736,-0.752 -0.256,0 -0.448,0 -0.672,0.032 l 0.224,-1.6 4.032,0 0,-2 z m 8.544,10.4 0,-2.48 1.232,0 0,-1.824 -1.232,0 0,-6.096 -2.992,0 -3.92,6.336 0,1.584 4.608,0 0,2.48 2.304,0 z m -4.656,-4.304 0.016,-0.032 1.376,-2.272 c 0.352,-0.656 0.64,-1.264 0.976,-1.936 l 0.048,0 c -0.032,0.672 -0.064,1.312 -0.064,1.936 l 0,2.304 -2.352,0 z" transform="translate(-9.82375,-573.88504)" id="n54" style="fill:#fcfcfc;stroke:none" number="54" type="number"></path>
  <path d="m 183.642,620.403 c 0.608,0.368 1.744,0.72 3.088,0.72 2.64,0 4.256,-1.344 4.256,-3.168 0,-1.376 -1.008,-2.32 -2.256,-2.544 l 0,-0.032 c 1.28,-0.432 1.904,-1.312 1.904,-2.416 0,-1.424 -1.232,-2.592 -3.44,-2.592 -1.36,0 -2.592,0.384 -3.216,0.784 l 0.496,1.76 c 0.416,-0.256 1.312,-0.624 2.16,-0.624 1.04,0 1.536,0.464 1.536,1.088 0,0.88 -1.024,1.2 -1.84,1.2 l -0.96,0 0,1.744 0.992,0 c 1.072,0 2.096,0.464 2.096,1.504 0,0.768 -0.64,1.376 -1.904,1.376 -0.992,0 -1.984,-0.4 -2.416,-0.64 l -0.496,1.84 z" transform="translate(-9.82375,-573.88504)" id="n3" style="fill:#fcfcfc;stroke:none" number="3" type="number"></path>
  <path d="m 190.154,596.998 0,-2.48 1.232,0 0,-1.824 -1.232,0 0,-6.096 -2.992,0 -3.92,6.336 0,1.584 4.608,0 0,2.48 2.304,0 z m -4.656,-4.304 0.016,-0.032 1.376,-2.272 c 0.352,-0.656 0.64,-1.264 0.976,-1.936 l 0.048,0 c -0.032,0.672 -0.064,1.312 -0.064,1.936 l 0,2.304 -2.352,0 z" transform="translate(-9.82375,-573.88504)" id="n4" style="fill:#fcfcfc;stroke:none" number="4" type="number"></path>
  <path d="m 220.77,610.547 0,2 4.767,0 0,0.032 -4.288,8.368 2.577,0 4.288,-8.864 0,-1.536 -7.344,0 z" transform="translate(-9.82375,-573.88504)" id="n7" style="fill:#fcfcfc;stroke:none" number="7" type="number"></path>
  <path d="m 222.37,591.67 c -1.136,0.496 -1.856,1.36 -1.856,2.608 0,1.408 1.216,2.896 3.856,2.896 2.416,0 4,-1.28 4,-3.168 0,-1.328 -0.896,-2.192 -1.92,-2.576 l 0,-0.048 c 1.04,-0.512 1.52,-1.392 1.52,-2.288 0,-1.264 -1.008,-2.672 -3.44,-2.672 -2.08,0 -3.664,1.168 -3.664,2.928 0,0.912 0.496,1.76 1.504,2.288 l 0,0.032 z m 2.096,3.824 c -0.912,0 -1.488,-0.704 -1.472,-1.456 0,-0.752 0.464,-1.328 1.264,-1.552 0.944,0.256 1.632,0.8 1.632,1.712 0,0.736 -0.576,1.296 -1.424,1.296 z m -0.048,-7.424 c 0.896,0 1.264,0.64 1.264,1.296 0,0.64 -0.496,1.152 -1.056,1.312 -0.832,-0.256 -1.456,-0.704 -1.456,-1.408 0,-0.64 0.416,-1.2 1.248,-1.2 z" transform="translate(-9.82375,-573.88504)" id="n8" style="fill:#fcfcfc;stroke:none" number="8" type="number"></path>
  <path d="m 256.928,620.947 2.352,0 0,-10.4 -2,0 -2.768,1.28 0.4,1.824 1.984,-0.944 0.032,0 0,8.24 z m 8.88,0 2.352,0 0,-10.4 -2,0 -2.768,1.28 0.4,1.824 1.984,-0.944 0.032,0 0,8.24 z" transform="translate(-9.82375,-573.88504)" id="n11" style="fill:#fcfcfc;stroke:none" number="11" type="number"></path>
  <path d="m 255.96,596.998 2.352,0 0,-10.4 -2,0 -2.768,1.28 0.4,1.824 1.984,-0.944 0.032,0 0,8.24 z m 13.168,0 0,-2 -3.936,0 0,-0.032 0.96,-0.8 c 1.52,-1.344 2.768,-2.736 2.768,-4.496 0,-1.872 -1.28,-3.248 -3.648,-3.248 -1.392,0 -2.624,0.48 -3.392,1.072 l 0.688,1.728 c 0.544,-0.4 1.328,-0.848 2.224,-0.848 1.2,0 1.696,0.672 1.696,1.52 -0.016,1.216 -1.12,2.384 -3.408,4.432 l -1.328,1.2 0,1.472 7.376,0 z" transform="translate(-9.82375,-573.88504)" id="n12" style="fill:#fcfcfc;stroke:none" number="12" type="number"></path>
  <path d="m 292.481,620.946 2.352,0 0,-10.4 -2,0 -2.768,1.28 0.4,1.824 1.984,-0.944 0.032,0 0,8.24 z m 12.72,-10.4 -5.728,0 -0.672,5.456 c 0.416,-0.064 0.816,-0.096 1.392,-0.096 2.08,0 2.928,0.656 2.928,1.728 0,1.104 -1.072,1.584 -2.08,1.584 -0.944,0 -1.888,-0.288 -2.336,-0.512 l -0.448,1.824 c 0.576,0.304 1.632,0.592 2.896,0.592 2.8,0 4.464,-1.712 4.464,-3.648 0,-1.216 -0.48,-2.08 -1.264,-2.608 -0.72,-0.528 -1.744,-0.752 -2.736,-0.752 -0.256,0 -0.448,0 -0.672,0.032 l 0.224,-1.6 4.032,0 0,-2 z" transform="translate(-9.82375,-573.88504)" id="n15" style="fill:#fcfcfc;stroke:none" number="15" type="number"></path>
  <path d="m 292.273,596.998 2.352,0 0,-10.4 -1.999,0 -2.768,1.28 0.4,1.824 1.983,-0.944 0.032,0 0,8.24 z m 12.416,-10.544 c -0.224,-0.016 -0.528,-0.032 -0.976,0.016 -1.616,0.08 -2.976,0.576 -4,1.52 -1.136,1.056 -1.856,2.688 -1.856,4.64 0,2.48 1.36,4.544 4.144,4.544 2.24,0 3.824,-1.696 3.824,-3.76 0,-2.16 -1.472,-3.392 -3.216,-3.392 -0.96,0 -1.696,0.304 -2.208,0.816 l -0.048,0 c 0.272,-1.2 1.232,-2.304 3.392,-2.48 0.384,-0.032 0.672,-0.048 0.944,-0.032 l 0,-1.872 z m -2.72,8.928 c -1.12,0 -1.648,-0.992 -1.696,-2.096 0,-0.288 0.032,-0.48 0.112,-0.624 0.224,-0.512 0.768,-0.912 1.424,-0.912 1.04,0 1.552,0.832 1.552,1.792 0,1.056 -0.544,1.84 -1.392,1.84 z" transform="translate(-9.82375,-573.88504)" id="n16" style="fill:#fcfcfc;stroke:none" number="16" type="number"></path>
  <path d="m 328.613,620.946 2.352,0 0,-10.4 -2,0 -2.768,1.28 0.4,1.824 1.984,-0.944 0.032,0 0,8.24 z m 6.528,0.144 c 0.272,0.016 0.704,0.032 1.104,0 1.616,-0.064 2.992,-0.544 3.984,-1.44 1.135,-1.056 1.823,-2.624 1.823,-4.8 0,-2.432 -1.264,-4.48 -3.935,-4.48 -2.288,0 -3.92,1.712 -3.92,3.744 0,2.032 1.472,3.248 3.232,3.248 0.943,0 1.631,-0.272 2.096,-0.752 l 0.032,0.016 c -0.177,0.784 -0.624,1.472 -1.312,1.936 -0.544,0.384 -1.296,0.592 -2.048,0.64 -0.48,0.016 -0.737,0.032 -1.056,0 l 0,1.888 z m 2.879,-8.944 c 1.137,0 1.553,1.088 1.537,2.192 0,0.304 -0.032,0.464 -0.112,0.624 -0.224,0.368 -0.688,0.672 -1.36,0.672 -0.976,0 -1.473,-0.768 -1.473,-1.664 0,-1.088 0.593,-1.824 1.408,-1.824 z" transform="translate(-9.82375,-573.88504)" id="n19" style="fill:#fcfcfc;stroke:none" number="19" type="number"></path>
  <path d="m 333.229,596.998 0,-2 -3.936,0 0,-0.032 0.96,-0.8 c 1.52,-1.344 2.768,-2.736 2.768,-4.496 0,-1.872 -1.28,-3.248 -3.648,-3.248 -1.392,0 -2.624,0.48 -3.392,1.072 l 0.688,1.728 c 0.544,-0.4 1.328,-0.848 2.224,-0.848 1.2,0 1.696,0.672 1.696,1.52 -0.016,1.216 -1.12,2.384 -3.408,4.432 l -1.328,1.2 0,1.472 7.376,0 z m 5.295,-10.576 c -2.687,0 -3.951,2.368 -3.951,5.392 0.016,2.944 1.2,5.36 3.888,5.36 2.64,0 3.936,-2.224 3.936,-5.424 0,-2.848 -1.105,-5.328 -3.873,-5.328 z m -0.032,1.84 c 0.977,0 1.472,1.216 1.472,3.52 0,2.368 -0.511,3.552 -1.455,3.552 -0.928,0 -1.504,-1.136 -1.504,-3.52 0,-2.432 0.608,-3.552 1.487,-3.552 z" transform="translate(-9.82375,-573.88504)" id="n20" style="fill:#fcfcfc;stroke:none" number="20" type="number"></path>
  <path d="m 370.973,620.946 0,-2 -3.935,0 0,-0.032 0.959,-0.8 c 1.52,-1.344 2.768,-2.736 2.768,-4.496 0,-1.872 -1.28,-3.248 -3.647,-3.248 -1.393,0 -2.625,0.48 -3.392,1.072 l 0.688,1.728 c 0.544,-0.4 1.328,-0.848 2.223,-0.848 1.201,0 1.697,0.672 1.697,1.52 -0.017,1.216 -1.121,2.384 -3.409,4.432 l -1.328,1.2 0,1.472 7.376,0 z m 1.424,-0.544 c 0.608,0.368 1.744,0.72 3.088,0.72 2.64,0 4.256,-1.344 4.256,-3.168 0,-1.376 -1.008,-2.32 -2.256,-2.544 l 0,-0.032 c 1.28,-0.432 1.904,-1.312 1.904,-2.416 0,-1.424 -1.232,-2.592 -3.44,-2.592 -1.36,0 -2.592,0.384 -3.216,0.784 l 0.496,1.76 c 0.416,-0.256 1.312,-0.624 2.16,-0.624 1.04,0 1.536,0.464 1.536,1.088 0,0.88 -1.024,1.2 -1.84,1.2 l -0.96,0 0,1.744 0.992,0 c 1.072,0 2.096,0.464 2.096,1.504 0,0.768 -0.64,1.376 -1.904,1.376 -0.992,0 -1.984,-0.4 -2.416,-0.64 l -0.496,1.84 z" transform="translate(-9.82375,-573.88504)" id="n23" style="fill:#fcfcfc;stroke:none" number="23" type="number"></path>
  <path d="m 370.693,596.998 0,-2 -3.935,0 0,-0.032 0.959,-0.8 c 1.52,-1.344 2.768,-2.736 2.768,-4.496 0,-1.872 -1.28,-3.248 -3.648,-3.248 -1.392,0 -2.624,0.48 -3.391,1.072 l 0.687,1.728 c 0.544,-0.4 1.329,-0.848 2.224,-0.848 1.2,0 1.696,0.672 1.696,1.52 -0.016,1.216 -1.12,2.384 -3.408,4.432 l -1.328,1.2 0,1.472 7.376,0 z m 8.096,0 0,-2.48 1.232,0 0,-1.824 -1.232,0 0,-6.096 -2.992,0 -3.92,6.336 0,1.584 4.608,0 0,2.48 2.304,0 z m -4.656,-4.304 0.016,-0.032 1.376,-2.272 c 0.352,-0.656 0.64,-1.264 0.976,-1.936 l 0.048,0 c -0.032,0.672 -0.064,1.312 -0.064,1.936 l 0,2.304 -2.352,0 z" transform="translate(-9.82375,-573.88504)" id="n24" style="fill:#fcfcfc;stroke:none" number="24" type="number"></path>
  <path d="m 407.163,620.946 0,-2 -3.936,0 0,-0.032 0.959,-0.8 c 1.52,-1.344 2.768,-2.736 2.768,-4.496 0,-1.872 -1.28,-3.248 -3.647,-3.248 -1.393,0 -2.624,0.48 -3.392,1.072 l 0.688,1.728 c 0.544,-0.4 1.328,-0.848 2.223,-0.848 1.201,0 1.697,0.672 1.697,1.52 -0.016,1.216 -1.121,2.384 -3.408,4.432 l -1.328,1.2 0,1.472 7.376,0 z m 1.599,-10.4 0,2 4.768,0 0,0.032 -4.288,8.368 2.576,0 4.288,-8.864 0,-1.536 -7.344,0 z" transform="translate(-9.82375,-573.88504)" id="n27" style="fill:#fcfcfc;stroke:none" number="27" type="number"></path>
  <path d="m 407.043,596.998 0,-2 -3.936,0 0,-0.032 0.96,-0.8 c 1.519,-1.344 2.768,-2.736 2.768,-4.496 0,-1.872 -1.281,-3.248 -3.648,-3.248 -1.392,0 -2.624,0.48 -3.392,1.072 l 0.688,1.728 c 0.544,-0.4 1.328,-0.848 2.223,-0.848 1.201,0 1.697,0.672 1.697,1.52 -0.016,1.216 -1.12,2.384 -3.408,4.432 l -1.328,1.2 0,1.472 7.376,0 z m 3.184,-5.328 c -1.137,0.496 -1.857,1.36 -1.857,2.608 0,1.408 1.216,2.896 3.856,2.896 2.416,0 4,-1.28 4,-3.168 0,-1.328 -0.896,-2.192 -1.92,-2.576 l 0,-0.048 c 1.04,-0.512 1.52,-1.392 1.52,-2.288 0,-1.264 -1.008,-2.672 -3.439,-2.672 -2.081,0 -3.665,1.168 -3.665,2.928 0,0.912 0.497,1.76 1.505,2.288 l 0,0.032 z m 2.095,3.824 c -0.911,0 -1.487,-0.704 -1.472,-1.456 0,-0.752 0.464,-1.328 1.264,-1.552 0.944,0.256 1.632,0.8 1.632,1.712 0,0.736 -0.576,1.296 -1.424,1.296 z m -0.047,-7.424 c 0.895,0 1.264,0.64 1.264,1.296 0,0.64 -0.497,1.152 -1.057,1.312 -0.832,-0.256 -1.456,-0.704 -1.456,-1.408 0,-0.64 0.416,-1.2 1.249,-1.2 z" transform="translate(-9.82375,-573.88504)" id="n28" style="fill:#fcfcfc;stroke:none" number="28" type="number"></path>
  <path d="m 437.641,620.402 c 0.608,0.368 1.744,0.72 3.088,0.72 2.64,0 4.256,-1.344 4.256,-3.168 0,-1.376 -1.008,-2.32 -2.256,-2.544 l 0,-0.032 c 1.28,-0.432 1.904,-1.312 1.904,-2.416 0,-1.424 -1.232,-2.592 -3.44,-2.592 -1.36,0 -2.592,0.384 -3.216,0.784 l 0.496,1.76 c 0.416,-0.256 1.312,-0.624 2.16,-0.624 1.04,0 1.536,0.464 1.536,1.088 0,0.88 -1.024,1.2 -1.84,1.2 l -0.96,0 0,1.744 0.992,0 c 1.072,0 2.096,0.464 2.096,1.504 0,0.768 -0.64,1.376 -1.904,1.376 -0.992,0 -1.984,-0.4 -2.416,-0.64 l -0.496,1.84 z m 12.048,0.544 2.352,0 0,-10.4 -2,0 -2.768,1.28 0.4,1.824 1.984,-0.944 0.032,0 0,8.24 z" transform="translate(-9.82375,-573.88504)" id="n31" style="fill:#fcfcfc;stroke:none" number="31" type="number"></path>
  <path d="m 436.673,596.454 c 0.608,0.368 1.744,0.72 3.088,0.72 2.64,0 4.256,-1.344 4.256,-3.168 0,-1.376 -1.008,-2.32 -2.256,-2.544 l 0,-0.032 c 1.28,-0.432 1.904,-1.312 1.904,-2.416 0,-1.424 -1.232,-2.592 -3.44,-2.592 -1.36,0 -2.592,0.384 -3.216,0.784 l 0.496,1.76 c 0.416,-0.256 1.312,-0.624 2.16,-0.624 1.04,0 1.536,0.464 1.536,1.088 0,0.88 -1.024,1.2 -1.84,1.2 l -0.96,0 0,1.744 0.992,0 c 1.072,0 2.096,0.464 2.096,1.504 0,0.768 -0.64,1.376 -1.904,1.376 -0.992,0 -1.984,-0.4 -2.416,-0.64 l -0.496,1.84 z m 16.336,0.544 0,-2 -3.936,0 0,-0.032 0.96,-0.8 c 1.52,-1.344 2.768,-2.736 2.768,-4.496 0,-1.872 -1.28,-3.248 -3.648,-3.248 -1.392,0 -2.624,0.48 -3.392,1.072 l 0.688,1.728 c 0.544,-0.4 1.328,-0.848 2.224,-0.848 1.2,0 1.696,0.672 1.696,1.52 -0.016,1.216 -1.12,2.384 -3.408,4.432 l -1.328,1.2 0,1.472 7.376,0 z" transform="translate(-9.82375,-573.88504)" id="n32" style="fill:#fcfcfc;stroke:none" number="32" type="number"></path>
  <path d="m 473.194,620.402 c 0.608,0.368 1.744,0.72 3.088,0.72 2.64,0 4.256,-1.344 4.256,-3.168 0,-1.376 -1.008,-2.32 -2.256,-2.544 l 0,-0.032 c 1.28,-0.432 1.904,-1.312 1.904,-2.416 0,-1.424 -1.232,-2.592 -3.44,-2.592 -1.36,0 -2.592,0.384 -3.216,0.784 l 0.496,1.76 c 0.416,-0.256 1.312,-0.624 2.16,-0.624 1.04,0 1.536,0.464 1.536,1.088 0,0.88 -1.024,1.2 -1.84,1.2 l -0.96,0 0,1.744 0.992,0 c 1.072,0 2.096,0.464 2.096,1.504 0,0.768 -0.64,1.376 -1.904,1.376 -0.992,0 -1.984,-0.4 -2.416,-0.64 l -0.496,1.84 z m 15.888,-9.856 -5.728,0 -0.672,5.456 c 0.416,-0.064 0.816,-0.096 1.392,-0.096 2.08,0 2.928,0.656 2.928,1.728 0,1.104 -1.072,1.584 -2.08,1.584 -0.944,0 -1.888,-0.288 -2.336,-0.512 l -0.448,1.824 c 0.576,0.304 1.632,0.592 2.896,0.592 2.8,0 4.464,-1.712 4.464,-3.648 0,-1.216 -0.48,-2.08 -1.264,-2.608 -0.72,-0.528 -1.744,-0.752 -2.736,-0.752 -0.256,0 -0.448,0 -0.672,0.032 l 0.224,-1.6 4.032,0 0,-2 z" transform="translate(-9.82375,-573.88504)" id="n35" style="fill:#fcfcfc;stroke:none" number="35" type="number"></path>
  <path d="m 472.986,596.454 c 0.608,0.368 1.744,0.72 3.088,0.72 2.64,0 4.256,-1.344 4.256,-3.168 0,-1.376 -1.008,-2.32 -2.256,-2.544 l 0,-0.032 c 1.28,-0.432 1.904,-1.312 1.904,-2.416 0,-1.424 -1.232,-2.592 -3.44,-2.592 -1.36,0 -2.591,0.384 -3.216,0.784 l 0.496,1.76 c 0.417,-0.256 1.312,-0.624 2.16,-0.624 1.04,0 1.536,0.464 1.536,1.088 0,0.88 -1.024,1.2 -1.84,1.2 l -0.96,0 0,1.744 0.992,0 c 1.072,0 2.096,0.464 2.096,1.504 0,0.768 -0.64,1.376 -1.904,1.376 -0.992,0 -1.984,-0.4 -2.416,-0.64 l -0.496,1.84 z m 15.584,-10 c -0.224,-0.016 -0.528,-0.032 -0.976,0.016 -1.616,0.08 -2.976,0.576 -4,1.52 -1.136,1.056 -1.856,2.688 -1.856,4.64 0,2.48 1.36,4.544 4.144,4.544 2.24,0 3.824,-1.696 3.824,-3.76 0,-2.16 -1.472,-3.392 -3.216,-3.392 -0.96,0 -1.696,0.304 -2.208,0.816 l -0.048,0 c 0.272,-1.2 1.232,-2.304 3.392,-2.48 0.384,-0.032 0.672,-0.048 0.944,-0.032 l 0,-1.872 z m -2.72,8.928 c -1.12,0 -1.648,-0.992 -1.696,-2.096 0,-0.288 0.032,-0.48 0.112,-0.624 0.224,-0.512 0.768,-0.912 1.424,-0.912 1.04,0 1.552,0.832 1.552,1.792 0,1.056 -0.544,1.84 -1.392,1.84 z" transform="translate(-9.82375,-573.88504)" id="n36" style="fill:#fcfcfc;stroke:none" number="36" type="number"></path>
  <path d="m 509.326,620.402 c 0.608,0.368 1.744,0.72 3.088,0.72 2.64,0 4.256,-1.344 4.256,-3.168 0,-1.376 -1.008,-2.32 -2.256,-2.544 l 0,-0.032 c 1.28,-0.432 1.904,-1.312 1.904,-2.416 0,-1.424 -1.232,-2.592 -3.44,-2.592 -1.36,0 -2.592,0.384 -3.216,0.784 l 0.496,1.76 c 0.416,-0.256 1.312,-0.624 2.16,-0.624 1.04,0 1.536,0.464 1.536,1.088 0,0.88 -1.024,1.2 -1.84,1.2 l -0.96,0 0,1.744 0.992,0 c 1.072,0 2.096,0.464 2.096,1.504 0,0.768 -0.64,1.376 -1.904,1.376 -0.992,0 -1.984,-0.4 -2.416,-0.64 l -0.496,1.84 z m 9.696,0.688 c 0.271,0.016 0.703,0.032 1.103,0 1.616,-0.064 2.992,-0.544 3.985,-1.44 1.135,-1.056 1.823,-2.624 1.823,-4.8 0,-2.432 -1.264,-4.48 -3.936,-4.48 -2.287,0 -3.92,1.712 -3.92,3.744 0,2.032 1.472,3.248 3.233,3.248 0.943,0 1.631,-0.272 2.095,-0.752 l 0.032,0.016 c -0.176,0.784 -0.623,1.472 -1.311,1.936 -0.544,0.384 -1.296,0.592 -2.048,0.64 -0.48,0.016 -0.737,0.032 -1.056,0 l 0,1.888 z m 2.879,-8.944 c 1.136,0 1.553,1.088 1.536,2.192 0,0.304 -0.032,0.464 -0.111,0.624 -0.224,0.368 -0.688,0.672 -1.361,0.672 -0.976,0 -1.472,-0.768 -1.472,-1.664 0,-1.088 0.593,-1.824 1.408,-1.824 z" transform="translate(-9.82375,-573.88504)" id="n39" style="fill:#fcfcfc;stroke:none" number="39" type="number"></path>
  <path d="m 516.11,596.998 0,-2.48 1.232,0 0,-1.824 -1.232,0 0,-6.096 -2.992,0 -3.92,6.336 0,1.584 4.608,0 0,2.48 2.304,0 z m -4.656,-4.304 0.016,-0.032 1.376,-2.272 c 0.352,-0.656 0.64,-1.264 0.976,-1.936 l 0.048,0 c -0.032,0.672 -0.064,1.312 -0.064,1.936 l 0,2.304 -2.352,0 z m 10.735,-6.272 c -2.687,0 -3.951,2.368 -3.951,5.392 0.015,2.944 1.2,5.36 3.888,5.36 2.64,0 3.935,-2.224 3.935,-5.424 0,-2.848 -1.104,-5.328 -3.872,-5.328 z m -0.032,1.84 c 0.977,0 1.472,1.216 1.472,3.52 0,2.368 -0.512,3.552 -1.456,3.552 -0.928,0 -1.504,-1.136 -1.504,-3.52 0,-2.432 0.608,-3.552 1.488,-3.552 z" transform="translate(-9.82375,-573.88504)" id="n40" style="fill:#fcfcfc;stroke:none" number="40" type="number"></path>
  <path d="m 553.742,620.946 0,-2.48 1.231,0 0,-1.824 -1.231,0 0,-6.096 -2.992,0 -3.92,6.336 0,1.584 4.608,0 0,2.48 2.304,0 z m -4.656,-4.304 0.016,-0.032 1.375,-2.272 c 0.352,-0.656 0.64,-1.264 0.977,-1.936 l 0.048,0 c -0.032,0.672 -0.064,1.312 -0.064,1.936 l 0,2.304 -2.352,0 z m 6.863,3.76 c 0.608,0.368 1.744,0.72 3.088,0.72 2.64,0 4.256,-1.344 4.256,-3.168 0,-1.376 -1.008,-2.32 -2.256,-2.544 l 0,-0.032 c 1.28,-0.432 1.904,-1.312 1.904,-2.416 0,-1.424 -1.232,-2.592 -3.44,-2.592 -1.36,0 -2.592,0.384 -3.216,0.784 l 0.496,1.76 c 0.417,-0.256 1.312,-0.624 2.16,-0.624 1.04,0 1.536,0.464 1.536,1.088 0,0.88 -1.024,1.2 -1.84,1.2 l -0.96,0 0,1.744 0.992,0 c 1.072,0 2.097,0.464 2.097,1.504 0,0.768 -0.641,1.376 -1.905,1.376 -0.992,0 -1.983,-0.4 -2.416,-0.64 l -0.496,1.84 z" transform="translate(-9.82375,-573.88504)" id="n43" style="fill:#fcfcfc;stroke:none" number="43" type="number"></path>
  <path d="m 553.461,596.998 0,-2.48 1.232,0 0,-1.824 -1.232,0 0,-6.096 -2.992,0 -3.92,6.336 0,1.584 4.608,0 0,2.48 2.304,0 z m -4.655,-4.304 0.015,-0.032 1.376,-2.272 c 0.352,-0.656 0.64,-1.264 0.977,-1.936 l 0.047,0 c -0.032,0.672 -0.064,1.312 -0.064,1.936 l 0,2.304 -2.351,0 z m 13.535,4.304 0,-2.48 1.232,0 0,-1.824 -1.232,0 0,-6.096 -2.992,0 -3.92,6.336 0,1.584 4.608,0 0,2.48 2.304,0 z m -4.656,-4.304 0.016,-0.032 1.376,-2.272 c 0.352,-0.656 0.64,-1.264 0.976,-1.936 l 0.048,0 c -0.032,0.672 -0.064,1.312 -0.064,1.936 l 0,2.304 -2.352,0 z" transform="translate(-9.82375,-573.88504)" id="n44" style="fill:#fcfcfc;stroke:none" number="44" type="number"></path>
  <path d="m 590.159,620.946 0,-2.48 1.231,0 0,-1.824 -1.231,0 0,-6.096 -2.992,0 -3.921,6.336 0,1.584 4.608,0 0,2.48 2.305,0 z m -4.656,-4.304 0.015,-0.032 1.376,-2.272 c 0.352,-0.656 0.64,-1.264 0.977,-1.936 l 0.048,0 c -0.032,0.672 -0.065,1.312 -0.065,1.936 l 0,2.304 -2.351,0 z m 7.039,-6.096 0,2 4.768,0 0,0.032 -4.288,8.368 2.576,0 4.288,-8.864 0,-1.536 -7.344,0 z" transform="translate(-9.82375,-573.88504)" id="n47" style="fill:#fcfcfc;stroke:none" number="47" type="number"></path>
  <path d="m 590.039,596.998 0,-2.48 1.232,0 0,-1.824 -1.232,0 0,-6.096 -2.992,0 -3.92,6.336 0,1.584 4.608,0 0,2.48 2.304,0 z m -4.656,-4.304 0.016,-0.032 1.375,-2.272 c 0.353,-0.656 0.641,-1.264 0.977,-1.936 l 0.048,0 c -0.032,0.672 -0.064,1.312 -0.064,1.936 l 0,2.304 -2.352,0 z m 8.624,-1.024 c -1.137,0.496 -1.857,1.36 -1.857,2.608 0,1.408 1.216,2.896 3.856,2.896 2.416,0 4,-1.28 4,-3.168 0,-1.328 -0.896,-2.192 -1.92,-2.576 l 0,-0.048 c 1.04,-0.512 1.52,-1.392 1.52,-2.288 0,-1.264 -1.008,-2.672 -3.439,-2.672 -2.081,0 -3.665,1.168 -3.665,2.928 0,0.912 0.497,1.76 1.505,2.288 l 0,0.032 z m 2.095,3.824 c -0.911,0 -1.487,-0.704 -1.472,-1.456 0,-0.752 0.464,-1.328 1.264,-1.552 0.944,0.256 1.632,0.8 1.632,1.712 0,0.736 -0.576,1.296 -1.424,1.296 z m -0.047,-7.424 c 0.895,0 1.264,0.64 1.264,1.296 0,0.64 -0.497,1.152 -1.057,1.312 -0.832,-0.256 -1.456,-0.704 -1.456,-1.408 0,-0.64 0.416,-1.2 1.249,-1.2 z" transform="translate(-9.82375,-573.88504)" id="n48" style="fill:#fcfcfc;stroke:none" number="48" type="number"></path>
  <path d="m 627.626,610.546 -5.728,0 -0.672,5.456 c 0.416,-0.064 0.816,-0.096 1.392,-0.096 2.08,0 2.928,0.656 2.928,1.728 0,1.104 -1.072,1.584 -2.08,1.584 -0.944,0 -1.888,-0.288 -2.336,-0.512 l -0.448,1.824 c 0.576,0.304 1.632,0.592 2.896,0.592 2.8,0 4.464,-1.712 4.464,-3.648 0,-1.216 -0.48,-2.08 -1.264,-2.608 -0.72,-0.528 -1.744,-0.752 -2.736,-0.752 -0.256,0 -0.448,0 -0.672,0.032 l 0.224,-1.6 4.032,0 0,-2 z m 5.04,10.4 2.352,0 0,-10.4 -2,0 -2.768,1.28 0.4,1.824 1.984,-0.944 0.032,0 0,8.24 z" transform="translate(-9.82375,-573.88504)" id="n51" style="fill:#fcfcfc;stroke:none" number="51" type="number"></path>
  <path d="m 626.658,586.598 -5.728,0 -0.672,5.456 c 0.416,-0.064 0.816,-0.096 1.392,-0.096 2.08,0 2.928,0.656 2.928,1.728 0,1.104 -1.072,1.584 -2.08,1.584 -0.944,0 -1.888,-0.288 -2.336,-0.512 l -0.448,1.824 c 0.576,0.304 1.632,0.592 2.896,0.592 2.8,0 4.464,-1.712 4.464,-3.648 0,-1.216 -0.48,-2.08 -1.264,-2.608 -0.72,-0.528 -1.744,-0.752 -2.736,-0.752 -0.256,0 -0.448,0 -0.672,0.032 l 0.224,-1.6 4.032,0 0,-2 z m 9.328,10.4 0,-2 -3.936,0 0,-0.032 0.96,-0.8 c 1.52,-1.344 2.768,-2.736 2.768,-4.496 0,-1.872 -1.28,-3.248 -3.648,-3.248 -1.392,0 -2.624,0.48 -3.392,1.072 l 0.688,1.728 c 0.544,-0.4 1.328,-0.848 2.224,-0.848 1.2,0 1.696,0.672 1.696,1.52 -0.016,1.216 -1.12,2.384 -3.408,4.432 l -1.328,1.2 0,1.472 7.376,0 z" transform="translate(-9.82375,-573.88504)" id="n52" style="fill:#fcfcfc;stroke:none" number="52" type="number"></path>
  <path d="m 665.365,610.546 -5.728,0 -0.672,5.456 c 0.416,-0.064 0.816,-0.096 1.392,-0.096 2.08,0 2.928,0.656 2.928,1.728 0,1.104 -1.072,1.584 -2.08,1.584 -0.944,0 -1.888,-0.288 -2.336,-0.512 l -0.448,1.824 c 0.576,0.304 1.632,0.592 2.896,0.592 2.8,0 4.464,-1.712 4.464,-3.648 0,-1.216 -0.48,-2.08 -1.264,-2.608 -0.72,-0.528 -1.744,-0.752 -2.736,-0.752 -0.256,0 -0.448,0 -0.672,0.032 l 0.224,-1.6 4.032,0 0,-2 z m 8.88,0 -5.728,0 -0.672,5.456 c 0.416,-0.064 0.816,-0.096 1.392,-0.096 2.08,0 2.928,0.656 2.928,1.728 0,1.104 -1.072,1.584 -2.08,1.584 -0.944,0 -1.888,-0.288 -2.336,-0.512 l -0.448,1.824 c 0.576,0.304 1.632,0.592 2.896,0.592 2.8,0 4.464,-1.712 4.464,-3.648 0,-1.216 -0.48,-2.08 -1.264,-2.608 -0.72,-0.528 -1.744,-0.752 -2.736,-0.752 -0.256,0 -0.448,0 -0.672,0.032 l 0.224,-1.6 4.032,0 0,-2 z" transform="translate(-9.82375,-573.88504)" id="n55" style="fill:#fcfcfc;stroke:none" number="55" type="number"></path>
  <path d="m 665.157,586.598 -5.728,0 -0.671,5.456 c 0.415,-0.064 0.815,-0.096 1.391,-0.096 2.08,0 2.928,0.656 2.928,1.728 0,1.104 -1.072,1.584 -2.08,1.584 -0.944,0 -1.887,-0.288 -2.336,-0.512 l -0.447,1.824 c 0.575,0.304 1.631,0.592 2.895,0.592 2.8,0 4.464,-1.712 4.464,-3.648 0,-1.216 -0.479,-2.08 -1.264,-2.608 -0.72,-0.528 -1.744,-0.752 -2.736,-0.752 -0.256,0 -0.448,0 -0.672,0.032 l 0.224,-1.6 4.032,0 0,-2 z m 8.576,-0.144 c -0.224,-0.016 -0.528,-0.032 -0.976,0.016 -1.616,0.08 -2.976,0.576 -4,1.52 -1.136,1.056 -1.856,2.688 -1.856,4.64 0,2.48 1.36,4.544 4.144,4.544 2.24,0 3.824,-1.696 3.824,-3.76 0,-2.16 -1.472,-3.392 -3.216,-3.392 -0.96,0 -1.696,0.304 -2.208,0.816 l -0.048,0 c 0.272,-1.2 1.232,-2.304 3.392,-2.48 0.384,-0.032 0.672,-0.048 0.944,-0.032 l 0,-1.872 z m -2.72,8.928 c -1.12,0 -1.648,-0.992 -1.696,-2.096 0,-0.288 0.032,-0.48 0.112,-0.624 0.224,-0.512 0.768,-0.912 1.424,-0.912 1.04,0 1.552,0.832 1.552,1.792 0,1.056 -0.544,1.84 -1.392,1.84 z" transform="translate(-9.82375,-573.88504)" id="n56" style="fill:#fcfcfc;stroke:none" number="56" type="number"></path>
  <path d="m 762.046,665.016 2.625,0 0,31.336 -2.625,0 0,-31.336 z m 0,-85.348 2.625,0 0,32.848 -2.625,0 0,-32.848 z" transform="translate(-9.82375,-573.88504)" id="path3353" style="fill:#0275d8;stroke:none"></path>
  <path d="m 161.857,657.165 2.625,0 0,39.187 -2.625,0 0,-39.187 z m 0,-77.497 2.625,0 0,39.187 -2.625,0 0,-39.187 z" transform="translate(-9.82375,-573.88504)" id="path3355" style="fill:#0275d8;stroke:none"></path>
  <g transform="translate(-9.82375,-573.88504)" id="g3357"></g>
</svg>