<svg xmlns:dc="http://purl.org/dc/elements/1.1/" xmlns:cc="http://creativecommons.org/ns#" xmlns:rdf="http://www.w3.org/1999/02/22-rdf-syntax-ns#" xmlns:svg="http://www.w3.org/2000/svg" xmlns="http://www.w3.org/2000/svg" version="1.1" width="1007.1053" height="160.29921" viewBox="0 0 28422.75 4524" id="svg5725" xml:space="preserve" style="fill-rule:evenodd"><metadata id="metadata6153"><rdf:rdf><cc:work rdf:about=""><dc:format>image/svg+xml</dc:format><dc:type rdf:resource="http://purl.org/dc/dcmitype/StillImage"></dc:type><dc:title></dc:title></cc:work></rdf:rdf></metadata><defs id="defs6151">
 </defs>
 <path d="m 25211,7025 1425,0 0,1473 -1425,0 z" transform="translate(-1394.25,-4087.0001)" id="rect5729" style="fill:#f2f4f5"></path><path d="m 8644,6849 -3360,0 0,1654 3360,0 z" transform="translate(-1394.25,-4087.0001)" id="polygon5731" style="fill:#f2f4f5"></path><path d="m 6750,5674 1894,0 0,-1383 -1894,0 z" transform="translate(-1394.25,-4087.0001)" id="polygon5733" style="fill:#f2f4f5"></path><path d="m 14495,7120 c 144,0 288,0 432,0 106,185 94,370 0,556 -168,0 -265,0 -432,0 -121,-180 -131,-364 0,-556 z" transform="translate(-1394.25,-4087.0001)" id="s11" style="fill:#dedfe0" number="11" type="seat"></path><path d="m 18087,7120 c 144,0 288,0 432,0 106,185 94,370 0,556 -168,0 -265,0 -432,0 -121,-180 -131,-364 0,-556 z" transform="translate(-1394.25,-4087.0001)" id="s26" style="fill:#dedfe0" number="26" type="seat"></path><path d="m 21668,7120 c 144,0 288,0 432,0 106,185 94,370 0,556 -168,0 -265,0 -432,0 -121,-180 -131,-364 0,-556 z" transform="translate(-1394.25,-4087.0001)" id="s41" style="fill:#dedfe0" number="41" type="seat"></path><path d="m 12091,7120 c 144,0 288,0 432,0 106,185 94,370 0,556 -168,0 -265,0 -432,0 -121,-180 -131,-364 0,-556 z" transform="translate(-1394.25,-4087.0001)" id="s4" style="fill:#dedfe0"></path><path d="m 11461,7120 c -144,0 -288,0 -432,0 -106,185 -94,370 0,556 168,0 265,0 432,0 121,-180 131,-364 0,-556 z" transform="translate(-1394.25,-4087.0001)" id="s2" style="fill:#dedfe0"></path><path d="m 15695,7120 c 144,0 288,0 432,0 106,185 94,370 0,556 -168,0 -265,0 -432,0 -121,-180 -131,-364 0,-556 z" transform="translate(-1394.25,-4087.0001)" id="s16" style="fill:#dedfe0" number="16" type="seat"></path><path d="m 19286,7120 c 144,0 288,0 432,0 106,185 94,370 0,556 -168,0 -265,0 -432,0 -121,-180 -131,-364 0,-556 z" transform="translate(-1394.25,-4087.0001)" id="s31" style="fill:#dedfe0" number="31" type="seat"></path><path d="m 22868,7120 c 144,0 288,0 432,0 106,185 94,370 0,556 -168,0 -265,0 -432,0 -121,-180 -131,-364 0,-556 z" transform="translate(-1394.25,-4087.0001)" id="s46" style="fill:#dedfe0" number="46" type="seat"></path><path d="m 13291,7120 c 144,0 288,0 432,0 106,185 94,370 0,556 -168,0 -265,0 -432,0 -121,-180 -131,-364 0,-556 z" transform="translate(-1394.25,-4087.0001)" id="s6" style="fill:#dedfe0" number="6" type="seat"></path><path d="m 16884,7120 c 144,0 288,0 432,0 106,185 94,370 0,556 -168,0 -265,0 -432,0 -121,-180 -131,-364 0,-556 z" transform="translate(-1394.25,-4087.0001)" id="s21" style="fill:#dedfe0" number="21" type="seat"></path><path d="m 20476,7120 c 144,0 288,0 432,0 106,185 94,370 0,556 -168,0 -265,0 -432,0 -121,-180 -131,-364 0,-556 z" transform="translate(-1394.25,-4087.0001)" id="s36" style="fill:#dedfe0" number="36" type="seat"></path><path d="m 24057,7120 c 144,0 288,0 432,0 106,185 94,370 0,556 -168,0 -265,0 -432,0 -121,-180 -131,-364 0,-556 z" transform="translate(-1394.25,-4087.0001)" id="s51" style="fill:#dedfe0" number="51" type="seat"></path><path d="m 14495,8312 c 144,0 288,0 432,0 106,-185 94,-370 0,-556 -168,0 -265,0 -432,0 -121,180 -131,364 0,556 z" transform="translate(-1394.25,-4087.0001)" id="s10" style="fill:#dedfe0" number="10" type="seat"></path><path d="m 18087,8312 c 144,0 288,0 432,0 106,-185 94,-370 0,-556 -168,0 -265,0 -432,0 -121,180 -131,364 0,556 z" transform="translate(-1394.25,-4087.0001)" id="s25" style="fill:#dedfe0" number="25" type="seat"></path><path d="m 21668,8312 c 144,0 288,0 432,0 106,-185 94,-370 0,-556 -168,0 -265,0 -432,0 -121,180 -131,364 0,556 z" transform="translate(-1394.25,-4087.0001)" id="s40" style="fill:#dedfe0" number="40" type="seat"></path><path d="m 12091,8312 c 144,0 288,0 432,0 106,-185 94,-370 0,-556 -168,0 -265,0 -432,0 -121,180 -131,364 0,556 z" transform="translate(-1394.25,-4087.0001)" id="s3" style="fill:#dedfe0"></path><path d="m 11461,8312 c -144,0 -288,0 -432,0 -106,-185 -94,-370 0,-556 168,0 265,0 432,0 121,180 131,364 0,556 z" transform="translate(-1394.25,-4087.0001)" id="s1" style="fill:#dedfe0"></path><path d="m 15695,8312 c 144,0 288,0 432,0 106,-185 94,-370 0,-556 -168,0 -265,0 -432,0 -121,180 -131,364 0,556 z" transform="translate(-1394.25,-4087.0001)" id="s15" style="fill:#dedfe0" number="15" type="seat"></path><path d="m 19286,8312 c 144,0 288,0 432,0 106,-185 94,-370 0,-556 -168,0 -265,0 -432,0 -121,180 -131,364 0,556 z" transform="translate(-1394.25,-4087.0001)" id="s30" style="fill:#dedfe0" number="30" type="seat"></path><path d="m 22868,8312 c 144,0 288,0 432,0 106,-185 94,-370 0,-556 -168,0 -265,0 -432,0 -121,180 -131,364 0,556 z" transform="translate(-1394.25,-4087.0001)" id="s45" style="fill:#dedfe0" number="45" type="seat"></path><path d="m 13291,8312 c 144,0 288,0 432,0 106,-185 94,-370 0,-556 -168,0 -265,0 -432,0 -121,180 -131,364 0,556 z" transform="translate(-1394.25,-4087.0001)" id="s5" style="fill:#dedfe0" number="5" type="seat"></path><path d="m 16884,8312 c 144,0 288,0 432,0 106,-185 94,-370 0,-556 -168,0 -265,0 -432,0 -121,180 -131,364 0,556 z" transform="translate(-1394.25,-4087.0001)" id="s20" style="fill:#dedfe0" number="20" type="seat"></path><path d="m 20476,8312 c 144,0 288,0 432,0 106,-185 94,-370 0,-556 -168,0 -265,0 -432,0 -121,180 -131,364 0,556 z" transform="translate(-1394.25,-4087.0001)" id="s35" style="fill:#dedfe0" number="35" type="seat"></path><path d="m 24057,8312 c 144,0 288,0 432,0 106,-185 94,-370 0,-556 -168,0 -265,0 -432,0 -121,180 -131,364 0,556 z" transform="translate(-1394.25,-4087.0001)" id="s50" style="fill:#dedfe0" number="50" type="seat"></path><path d="m 14515,8393 659,0 0,-57 c 168,-60 146,-553 0,-602 l 0,-36 c 146,-49 168,-542 0,-602 l 0,-57 -659,0 0,82 412,0 c 106,185 94,370 0,556 l -412,0 c 0,27 0,54 0,80 l 412,0 c 94,185 106,370 0,556 l -412,0 0,82 z" transform="translate(-1394.25,-4087.0001)" id="path5783" style="fill:#9d9e9e"></path><path d="m 18106,8393 659,0 0,-57 c 168,-60 146,-553 0,-602 l 0,-36 c 146,-49 168,-542 0,-602 l 0,-57 -659,0 0,82 412,0 c 106,185 94,370 0,556 l -412,0 c 0,27 0,54 0,80 l 412,0 c 94,185 106,370 0,556 l -412,0 0,82 z" transform="translate(-1394.25,-4087.0001)" id="path5785" style="fill:#9d9e9e"></path><path d="m 21688,8393 659,0 0,-57 c 168,-60 146,-553 0,-602 l 0,-36 c 146,-49 168,-542 0,-602 l 0,-57 -659,0 0,82 412,0 c 106,185 94,370 0,556 l -412,0 c 0,27 0,54 0,80 l 412,0 c 94,185 106,370 0,556 l -412,0 0,82 z" transform="translate(-1394.25,-4087.0001)" id="path5787" style="fill:#9d9e9e"></path><path d="m 12111,8393 659,0 0,-57 c 168,-60 146,-553 0,-602 l 0,-36 c 146,-49 168,-542 0,-602 l 0,-57 -659,0 0,82 412,0 c 106,185 94,370 0,556 l -412,0 c 0,27 0,54 0,80 l 412,0 c 94,185 106,370 0,556 l -412,0 0,82 z" transform="translate(-1394.25,-4087.0001)" id="path5789" style="fill:#9d9e9e"></path><path d="m 11442,8393 -659,0 0,-57 c -168,-60 -146,-553 0,-602 l 0,-36 c -146,-49 -168,-542 0,-602 l 0,-57 659,0 0,82 -412,0 c -106,185 -94,370 0,556 l 412,0 c 0,27 0,54 0,80 l -412,0 c -94,185 -106,370 0,556 l 412,0 0,82 z" transform="translate(-1394.25,-4087.0001)" id="path5791" style="fill:#9d9e9e"></path><path d="m 15715,8393 659,0 0,-57 c 168,-60 146,-553 0,-602 l 0,-36 c 146,-49 168,-542 0,-602 l 0,-57 -659,0 0,82 412,0 c 106,185 94,370 0,556 l -412,0 c 0,27 0,54 0,80 l 412,0 c 94,185 106,370 0,556 l -412,0 0,82 z" transform="translate(-1394.25,-4087.0001)" id="path5793" style="fill:#9d9e9e"></path><path d="m 19306,8393 659,0 0,-57 c 168,-60 146,-553 0,-602 l 0,-36 c 146,-49 168,-542 0,-602 l 0,-57 -659,0 0,82 412,0 c 106,185 94,370 0,556 l -412,0 c 0,27 0,54 0,80 l 412,0 c 94,185 106,370 0,556 l -412,0 0,82 z" transform="translate(-1394.25,-4087.0001)" id="path5795" style="fill:#9d9e9e"></path><path d="m 22887,8393 659,0 0,-57 c 168,-60 146,-553 0,-602 l 0,-36 c 146,-49 168,-542 0,-602 l 0,-57 -659,0 0,82 412,0 c 106,185 94,370 0,556 l -412,0 c 0,27 0,54 0,80 l 412,0 c 94,185 106,370 0,556 l -412,0 0,82 z" transform="translate(-1394.25,-4087.0001)" id="path5797" style="fill:#9d9e9e"></path><path d="m 13311,8393 659,0 0,-57 c 168,-60 146,-553 0,-602 l 0,-36 c 146,-49 168,-542 0,-602 l 0,-57 -659,0 0,82 412,0 c 106,185 94,370 0,556 l -412,0 c 0,27 0,54 0,80 l 412,0 c 94,185 106,370 0,556 l -412,0 0,82 z" transform="translate(-1394.25,-4087.0001)" id="path5799" style="fill:#9d9e9e"></path><path d="m 16904,8393 659,0 0,-57 c 168,-60 146,-553 0,-602 l 0,-36 c 146,-49 168,-542 0,-602 l 0,-57 -659,0 0,82 412,0 c 106,185 94,370 0,556 l -412,0 c 0,27 0,54 0,80 l 412,0 c 94,185 106,370 0,556 l -412,0 0,82 z" transform="translate(-1394.25,-4087.0001)" id="path5801" style="fill:#9d9e9e"></path><path d="m 20496,8393 659,0 0,-57 c 168,-60 146,-553 0,-602 l 0,-36 c 146,-49 168,-542 0,-602 l 0,-57 -659,0 0,82 412,0 c 106,185 94,370 0,556 l -412,0 c 0,27 0,54 0,80 l 412,0 c 94,185 106,370 0,556 l -412,0 0,82 z" transform="translate(-1394.25,-4087.0001)" id="path5803" style="fill:#9d9e9e"></path><path d="m 24077,8393 659,0 0,-57 c 168,-60 146,-553 0,-602 l 0,-36 c 146,-49 168,-542 0,-602 l 0,-57 -659,0 0,82 412,0 c 106,185 94,370 0,556 l -412,0 c 0,27 0,54 0,80 l 412,0 c 94,185 106,370 0,556 l -412,0 0,82 z" transform="translate(-1394.25,-4087.0001)" id="path5805" style="fill:#9d9e9e"></path><path d="m 15174,8336 c 168,-60 146,-553 0,-602 -50,3 -91,49 -55,88 132,144 117,273 0,412 -48,57 -18,91 55,101 z" transform="translate(-1394.25,-4087.0001)" id="path5807" style="fill:#dedfe0"></path><path d="m 18766,8336 c 168,-60 146,-553 0,-602 -50,3 -91,49 -55,88 132,144 117,273 0,412 -48,57 -18,91 55,101 z" transform="translate(-1394.25,-4087.0001)" id="path5809" style="fill:#dedfe0"></path><path d="m 22347,8336 c 168,-60 146,-553 0,-602 -50,3 -91,49 -55,88 132,144 117,273 0,412 -48,57 -18,91 55,101 z" transform="translate(-1394.25,-4087.0001)" id="path5811" style="fill:#dedfe0"></path><path d="m 12770,8336 c 168,-60 146,-553 0,-602 -50,3 -91,49 -55,88 132,144 117,273 0,412 -48,57 -18,91 55,101 z" transform="translate(-1394.25,-4087.0001)" id="path5813" style="fill:#dedfe0"></path><path d="m 10782,8336 c -168,-60 -146,-553 0,-602 50,3 91,49 55,88 -132,144 -117,273 0,412 48,57 18,91 -55,101 z" transform="translate(-1394.25,-4087.0001)" id="path5815" style="fill:#dedfe0"></path><path d="m 16374,8336 c 168,-60 146,-553 0,-602 -50,3 -91,49 -55,88 132,144 117,273 0,412 -48,57 -18,91 55,101 z" transform="translate(-1394.25,-4087.0001)" id="path5817" style="fill:#dedfe0"></path><path d="m 19966,8336 c 168,-60 146,-553 0,-602 -50,3 -91,49 -55,88 132,144 117,273 0,412 -48,57 -18,91 55,101 z" transform="translate(-1394.25,-4087.0001)" id="path5819" style="fill:#dedfe0"></path><path d="m 23547,8336 c 168,-60 146,-553 0,-602 -50,3 -91,49 -55,88 132,144 117,273 0,412 -48,57 -18,91 55,101 z" transform="translate(-1394.25,-4087.0001)" id="path5821" style="fill:#dedfe0"></path><path d="m 13970,8336 c 168,-60 146,-553 0,-602 -50,3 -91,49 -55,88 132,144 117,273 0,412 -48,57 -18,91 55,101 z" transform="translate(-1394.25,-4087.0001)" id="path5823" style="fill:#dedfe0"></path><path d="m 17563,8336 c 168,-60 146,-553 0,-602 -50,3 -91,49 -55,88 132,144 117,273 0,412 -48,57 -18,91 55,101 z" transform="translate(-1394.25,-4087.0001)" id="path5825" style="fill:#dedfe0"></path><path d="m 21155,8336 c 168,-60 146,-553 0,-602 -50,3 -91,49 -55,88 132,144 117,273 0,412 -48,57 -18,91 55,101 z" transform="translate(-1394.25,-4087.0001)" id="path5827" style="fill:#dedfe0"></path><path d="m 24736,8336 c 168,-60 146,-553 0,-602 -50,3 -91,49 -55,88 132,144 117,273 0,412 -48,57 -18,91 55,101 z" transform="translate(-1394.25,-4087.0001)" id="path5829" style="fill:#dedfe0"></path><path d="m 14275,5649 c -144,0 -288,0 -432,0 -106,185 -94,370 0,556 168,0 265,0 432,0 121,-180 131,-364 0,-556 z" transform="translate(-1394.25,-4087.0001)" id="s7" style="fill:#dedfe0" number="7" type="seat"></path><path d="m 15498,5649 c -144,0 -288,0 -432,0 -106,185 -94,370 0,556 168,0 265,0 432,0 121,-180 131,-364 0,-556 z" transform="translate(-1394.25,-4087.0001)" id="s12" style="fill:#dedfe0" number="12" type="seat"></path><path d="m 16689,5649 c -144,0 -288,0 -432,0 -106,185 -94,370 0,556 168,0 265,0 432,0 121,-180 131,-364 0,-556 z" transform="translate(-1394.25,-4087.0001)" id="s17" style="fill:#dedfe0" number="17" type="seat"></path><path d="m 17879,5649 c -144,0 -288,0 -432,0 -106,185 -94,370 0,556 168,0 265,0 432,0 121,-180 131,-364 0,-556 z" transform="translate(-1394.25,-4087.0001)" id="s22" style="fill:#dedfe0" number="22" type="seat"></path><path d="m 19053,5649 c -144,0 -288,0 -432,0 -106,185 -94,370 0,556 168,0 265,0 432,0 121,-180 131,-364 0,-556 z" transform="translate(-1394.25,-4087.0001)" id="s27" style="fill:#dedfe0" number="27" type="seat"></path><path d="m 20269,5649 c -144,0 -288,0 -432,0 -106,185 -94,370 0,556 168,0 265,0 432,0 121,-180 131,-364 0,-556 z" transform="translate(-1394.25,-4087.0001)" id="s32" style="fill:#dedfe0" number="32" type="seat"></path><path d="m 21478,5649 c -144,0 -288,0 -432,0 -106,185 -94,370 0,556 168,0 265,0 432,0 121,-180 131,-364 0,-556 z" transform="translate(-1394.25,-4087.0001)" id="s37" style="fill:#dedfe0" number="37" type="seat"></path><path d="m 22686,5649 c -144,0 -288,0 -432,0 -106,185 -94,370 0,556 168,0 265,0 432,0 121,-180 131,-364 0,-556 z" transform="translate(-1394.25,-4087.0001)" id="s42" style="fill:#dedfe0" number="42" type="seat"></path><path d="m 23878,5649 c -144,0 -288,0 -432,0 -106,185 -94,370 0,556 168,0 265,0 432,0 121,-180 131,-364 0,-556 z" transform="translate(-1394.25,-4087.0001)" id="s47" style="fill:#dedfe0" number="47" type="seat"></path><path d="m 25076,5649 c -144,0 -288,0 -432,0 -106,185 -94,370 0,556 168,0 265,0 432,0 121,-180 131,-364 0,-556 z" transform="translate(-1394.25,-4087.0001)" id="s52" style="fill:#dedfe0" number="52" type="seat"></path><path d="m 14275,5005 c -144,0 -288,0 -432,0 -106,185 -94,370 0,556 168,0 265,0 432,0 121,-180 131,-364 0,-556 z" transform="translate(-1394.25,-4087.0001)" id="s8" style="fill:#dedfe0" number="8" type="seat"></path><path d="m 15498,5005 c -144,0 -288,0 -432,0 -106,185 -94,370 0,556 168,0 265,0 432,0 121,-180 131,-364 0,-556 z" transform="translate(-1394.25,-4087.0001)" id="s13" style="fill:#dedfe0" number="13" type="seat"></path><path d="m 16689,5005 c -144,0 -288,0 -432,0 -106,185 -94,370 0,556 168,0 265,0 432,0 121,-180 131,-364 0,-556 z" transform="translate(-1394.25,-4087.0001)" id="s18" style="fill:#dedfe0" number="18" type="seat"></path><path d="m 17879,5005 c -144,0 -288,0 -432,0 -106,185 -94,370 0,556 168,0 265,0 432,0 121,-180 131,-364 0,-556 z" transform="translate(-1394.25,-4087.0001)" id="s23" style="fill:#dedfe0" number="23" type="seat"></path><path d="m 19053,5005 c -144,0 -288,0 -432,0 -106,185 -94,370 0,556 168,0 265,0 432,0 121,-180 131,-364 0,-556 z" transform="translate(-1394.25,-4087.0001)" id="s28" style="fill:#dedfe0" number="28" type="seat"></path><path d="m 20269,5005 c -144,0 -288,0 -432,0 -106,185 -94,370 0,556 168,0 265,0 432,0 121,-180 131,-364 0,-556 z" transform="translate(-1394.25,-4087.0001)" id="s33" style="fill:#dedfe0" number="33" type="seat"></path><path d="m 21478,5005 c -144,0 -288,0 -432,0 -106,185 -94,370 0,556 168,0 265,0 432,0 121,-180 131,-364 0,-556 z" transform="translate(-1394.25,-4087.0001)" id="s38" style="fill:#dedfe0" number="38" type="seat"></path><path d="m 22686,5005 c -144,0 -288,0 -432,0 -106,185 -94,370 0,556 168,0 265,0 432,0 121,-180 131,-364 0,-556 z" transform="translate(-1394.25,-4087.0001)" id="s43" style="fill:#dedfe0" number="43" type="seat"></path><path d="m 23878,5005 c -144,0 -288,0 -432,0 -106,185 -94,370 0,556 168,0 265,0 432,0 121,-180 131,-364 0,-556 z" transform="translate(-1394.25,-4087.0001)" id="s48" style="fill:#dedfe0" number="48" type="seat"></path><path d="m 25076,5005 c -144,0 -288,0 -432,0 -106,185 -94,370 0,556 168,0 265,0 432,0 121,-180 131,-364 0,-556 z" transform="translate(-1394.25,-4087.0001)" id="s53" style="fill:#dedfe0" number="53" type="seat"></path><path d="m 14275,4360 c -144,0 -288,0 -432,0 -106,185 -94,370 0,556 168,0 265,0 432,0 121,-180 131,-364 0,-556 z" transform="translate(-1394.25,-4087.0001)" id="s9" style="fill:#dedfe0" number="9" type="seat"></path><path d="m 15498,4360 c -144,0 -288,0 -432,0 -106,185 -94,370 0,556 168,0 265,0 432,0 121,-180 131,-364 0,-556 z" transform="translate(-1394.25,-4087.0001)" id="s14" style="fill:#dedfe0" number="14" type="seat"></path><path d="m 16689,4360 c -144,0 -288,0 -432,0 -106,185 -94,370 0,556 168,0 265,0 432,0 121,-180 131,-364 0,-556 z" transform="translate(-1394.25,-4087.0001)" id="s19" style="fill:#dedfe0" number="19" type="seat"></path><path d="m 17879,4360 c -144,0 -288,0 -432,0 -106,185 -94,370 0,556 168,0 265,0 432,0 121,-180 131,-364 0,-556 z" transform="translate(-1394.25,-4087.0001)" id="s24" style="fill:#dedfe0" number="24" type="seat"></path><path d="m 19053,4360 c -144,0 -288,0 -432,0 -106,185 -94,370 0,556 168,0 265,0 432,0 121,-180 131,-364 0,-556 z" transform="translate(-1394.25,-4087.0001)" id="s29" style="fill:#dedfe0" number="29" type="seat"></path><path d="m 20269,4360 c -144,0 -288,0 -432,0 -106,185 -94,370 0,556 168,0 265,0 432,0 121,-180 131,-364 0,-556 z" transform="translate(-1394.25,-4087.0001)" id="s34" style="fill:#dedfe0" number="34" type="seat"></path><path d="m 21478,4360 c -144,0 -288,0 -432,0 -106,185 -94,370 0,556 168,0 265,0 432,0 121,-180 131,-364 0,-556 z" transform="translate(-1394.25,-4087.0001)" id="s39" style="fill:#dedfe0" number="39" type="seat"></path><path d="m 22686,4360 c -144,0 -288,0 -432,0 -106,185 -94,370 0,556 168,0 265,0 432,0 121,-180 131,-364 0,-556 z" transform="translate(-1394.25,-4087.0001)" id="s44" style="fill:#dedfe0" number="44" type="seat"></path><path d="m 23878,4360 c -144,0 -288,0 -432,0 -106,185 -94,370 0,556 168,0 265,0 432,0 121,-180 131,-364 0,-556 z" transform="translate(-1394.25,-4087.0001)" id="s49" style="fill:#dedfe0" number="49" type="seat"></path><path d="m 25076,4360 c -144,0 -288,0 -432,0 -106,185 -94,370 0,556 168,0 265,0 432,0 121,-180 131,-364 0,-556 z" transform="translate(-1394.25,-4087.0001)" id="s54" style="fill:#dedfe0" number="54" type="seat"></path><path d="m 13596,5588 0,30 0,7 c -168,60 -146,553 0,602 l 0,35 659,0 0,-57 -412,0 c -94,-185 -106,-370 0,-556 l 412,0 0,-32 0,-30 0,-27 -412,0 c -94,-185 -106,-370 0,-556 l 412,0 0,-32 0,-30 0,-27 -412,0 c -94,-185 -106,-370 0,-556 l 412,0 0,-62 -659,0 0,37 c -168,60 -146,553 0,602 l 0,5 0,30 0,7 c -168,60 -146,553 0,602 l 0,5 z" transform="translate(-1394.25,-4087.0001)" id="path5891" style="fill:#9d9e9e"></path><path d="m 14819,5588 0,30 0,7 c -168,60 -146,553 0,602 l 0,35 659,0 0,-57 -412,0 c -94,-185 -106,-370 0,-556 l 412,0 0,-32 0,-30 0,-27 -412,0 c -94,-185 -106,-370 0,-556 l 412,0 0,-32 0,-30 0,-27 -412,0 c -94,-185 -106,-370 0,-556 l 412,0 0,-62 -659,0 0,37 c -168,60 -146,553 0,602 l 0,5 0,30 0,7 c -168,60 -146,553 0,602 l 0,5 z" transform="translate(-1394.25,-4087.0001)" id="path5893" style="fill:#9d9e9e"></path><path d="m 16010,5588 0,30 0,7 c -168,60 -146,553 0,602 l 0,35 659,0 0,-57 -412,0 c -94,-185 -106,-370 0,-556 l 412,0 0,-32 0,-30 0,-27 -412,0 c -94,-185 -106,-370 0,-556 l 412,0 0,-32 0,-30 0,-27 -412,0 c -94,-185 -106,-370 0,-556 l 412,0 0,-62 -659,0 0,37 c -168,60 -146,553 0,602 l 0,5 0,30 0,7 c -168,60 -146,553 0,602 l 0,5 z" transform="translate(-1394.25,-4087.0001)" id="path5895" style="fill:#9d9e9e"></path><path d="m 17200,5588 0,30 0,7 c -168,60 -146,553 0,602 l 0,35 659,0 0,-57 -412,0 c -94,-185 -106,-370 0,-556 l 412,0 0,-32 0,-30 0,-27 -412,0 c -94,-185 -106,-370 0,-556 l 412,0 0,-32 0,-30 0,-27 -412,0 c -94,-185 -106,-370 0,-556 l 412,0 0,-62 -659,0 0,37 c -168,60 -146,553 0,602 l 0,5 0,30 0,7 c -168,60 -146,553 0,602 l 0,5 z" transform="translate(-1394.25,-4087.0001)" id="path5897" style="fill:#9d9e9e"></path><path d="m 18374,5588 0,30 0,7 c -168,60 -146,553 0,602 l 0,35 659,0 0,-57 -412,0 c -94,-185 -106,-370 0,-556 l 412,0 0,-32 0,-30 0,-27 -412,0 c -94,-185 -106,-370 0,-556 l 412,0 0,-32 0,-30 0,-27 -412,0 c -94,-185 -106,-370 0,-556 l 412,0 0,-62 -659,0 0,37 c -168,60 -146,553 0,602 l 0,5 0,30 0,7 c -168,60 -146,553 0,602 l 0,5 z" transform="translate(-1394.25,-4087.0001)" id="path5899" style="fill:#9d9e9e"></path><path d="m 19590,5588 0,30 0,7 c -168,60 -146,553 0,602 l 0,35 659,0 0,-57 -412,0 c -94,-185 -106,-370 0,-556 l 412,0 0,-32 0,-30 0,-27 -412,0 c -94,-185 -106,-370 0,-556 l 412,0 0,-32 0,-30 0,-27 -412,0 c -94,-185 -106,-370 0,-556 l 412,0 0,-62 -659,0 0,37 c -168,60 -146,553 0,602 l 0,5 0,30 0,7 c -168,60 -146,553 0,602 l 0,5 z" transform="translate(-1394.25,-4087.0001)" id="path5901" style="fill:#9d9e9e"></path><path d="m 20799,5588 0,30 0,7 c -168,60 -146,553 0,602 l 0,35 659,0 0,-57 -412,0 c -94,-185 -106,-370 0,-556 l 412,0 0,-32 0,-30 0,-27 -412,0 c -94,-185 -106,-370 0,-556 l 412,0 0,-32 0,-30 0,-27 -412,0 c -94,-185 -106,-370 0,-556 l 412,0 0,-62 -659,0 0,37 c -168,60 -146,553 0,602 l 0,5 0,30 0,7 c -168,60 -146,553 0,602 l 0,5 z" transform="translate(-1394.25,-4087.0001)" id="path5903" style="fill:#9d9e9e"></path><path d="m 22007,5588 0,30 0,7 c -168,60 -146,553 0,602 l 0,35 659,0 0,-57 -412,0 c -94,-185 -106,-370 0,-556 l 412,0 0,-32 0,-30 0,-27 -412,0 c -94,-185 -106,-370 0,-556 l 412,0 0,-32 0,-30 0,-27 -412,0 c -94,-185 -106,-370 0,-556 l 412,0 0,-62 -659,0 0,37 c -168,60 -146,553 0,602 l 0,5 0,30 0,7 c -168,60 -146,553 0,602 l 0,5 z" transform="translate(-1394.25,-4087.0001)" id="path5905" style="fill:#9d9e9e"></path><path d="m 23198,5588 0,30 0,7 c -168,60 -146,553 0,602 l 0,35 659,0 0,-57 -412,0 c -94,-185 -106,-370 0,-556 l 412,0 0,-32 0,-30 0,-27 -412,0 c -94,-185 -106,-370 0,-556 l 412,0 0,-32 0,-30 0,-27 -412,0 c -94,-185 -106,-370 0,-556 l 412,0 0,-62 -659,0 0,37 c -168,60 -146,553 0,602 l 0,5 0,30 0,7 c -168,60 -146,553 0,602 l 0,5 z" transform="translate(-1394.25,-4087.0001)" id="path5907" style="fill:#9d9e9e"></path><path d="m 24397,5588 0,30 0,7 c -168,60 -146,553 0,602 l 0,35 659,0 0,-57 -412,0 c -94,-185 -106,-370 0,-556 l 412,0 0,-32 0,-30 0,-27 -412,0 c -94,-185 -106,-370 0,-556 l 412,0 0,-32 0,-30 0,-27 -412,0 c -94,-185 -106,-370 0,-556 l 412,0 0,-62 -659,0 0,37 c -168,60 -146,553 0,602 l 0,5 0,30 0,7 c -168,60 -146,553 0,602 l 0,5 z" transform="translate(-1394.25,-4087.0001)" id="path5909" style="fill:#9d9e9e"></path><path d="m 13596,5625 c -168,60 -146,553 0,602 50,-3 91,-49 55,-88 -132,-144 -117,-273 0,-412 48,-57 18,-91 -55,-101 z" transform="translate(-1394.25,-4087.0001)" id="path5911" style="fill:#dedfe0"></path><path d="m 14819,5625 c -168,60 -146,553 0,602 50,-3 91,-49 55,-88 -132,-144 -117,-273 0,-412 48,-57 18,-91 -55,-101 z" transform="translate(-1394.25,-4087.0001)" id="path5913" style="fill:#dedfe0"></path><path d="m 16010,5625 c -168,60 -146,553 0,602 50,-3 91,-49 55,-88 -132,-144 -117,-273 0,-412 48,-57 18,-91 -55,-101 z" transform="translate(-1394.25,-4087.0001)" id="path5915" style="fill:#dedfe0"></path><path d="m 17200,5625 c -168,60 -146,553 0,602 50,-3 91,-49 55,-88 -132,-144 -117,-273 0,-412 48,-57 18,-91 -55,-101 z" transform="translate(-1394.25,-4087.0001)" id="path5917" style="fill:#dedfe0"></path><path d="m 18374,5625 c -168,60 -146,553 0,602 50,-3 91,-49 55,-88 -132,-144 -117,-273 0,-412 48,-57 18,-91 -55,-101 z" transform="translate(-1394.25,-4087.0001)" id="path5919" style="fill:#dedfe0"></path><path d="m 19590,5625 c -168,60 -146,553 0,602 50,-3 91,-49 55,-88 -132,-144 -117,-273 0,-412 48,-57 18,-91 -55,-101 z" transform="translate(-1394.25,-4087.0001)" id="path5921" style="fill:#dedfe0"></path><path d="m 20799,5625 c -168,60 -146,553 0,602 50,-3 91,-49 55,-88 -132,-144 -117,-273 0,-412 48,-57 18,-91 -55,-101 z" transform="translate(-1394.25,-4087.0001)" id="path5923" style="fill:#dedfe0"></path><path d="m 22007,5625 c -168,60 -146,553 0,602 50,-3 91,-49 55,-88 -132,-144 -117,-273 0,-412 48,-57 18,-91 -55,-101 z" transform="translate(-1394.25,-4087.0001)" id="path5925" style="fill:#dedfe0"></path><path d="m 23198,5625 c -168,60 -146,553 0,602 50,-3 91,-49 55,-88 -132,-144 -117,-273 0,-412 48,-57 18,-91 -55,-101 z" transform="translate(-1394.25,-4087.0001)" id="path5927" style="fill:#dedfe0"></path><path d="m 24397,5625 c -168,60 -146,553 0,602 50,-3 91,-49 55,-88 -132,-144 -117,-273 0,-412 48,-57 18,-91 -55,-101 z" transform="translate(-1394.25,-4087.0001)" id="path5929" style="fill:#dedfe0"></path><path d="m 13596,4980 c -168,60 -146,553 0,602 50,-3 91,-49 55,-88 -132,-144 -117,-273 0,-412 48,-57 18,-91 -55,-101 z" transform="translate(-1394.25,-4087.0001)" id="path5931" style="fill:#dedfe0"></path><path d="m 14819,4980 c -168,60 -146,553 0,602 50,-3 91,-49 55,-88 -132,-144 -117,-273 0,-412 48,-57 18,-91 -55,-101 z" transform="translate(-1394.25,-4087.0001)" id="path5933" style="fill:#dedfe0"></path><path d="m 16010,4980 c -168,60 -146,553 0,602 50,-3 91,-49 55,-88 -132,-144 -117,-273 0,-412 48,-57 18,-91 -55,-101 z" transform="translate(-1394.25,-4087.0001)" id="path5935" style="fill:#dedfe0"></path><path d="m 17200,4980 c -168,60 -146,553 0,602 50,-3 91,-49 55,-88 -132,-144 -117,-273 0,-412 48,-57 18,-91 -55,-101 z" transform="translate(-1394.25,-4087.0001)" id="path5937" style="fill:#dedfe0"></path><path d="m 18374,4980 c -168,60 -146,553 0,602 50,-3 91,-49 55,-88 -132,-144 -117,-273 0,-412 48,-57 18,-91 -55,-101 z" transform="translate(-1394.25,-4087.0001)" id="path5939" style="fill:#dedfe0"></path><path d="m 19590,4980 c -168,60 -146,553 0,602 50,-3 91,-49 55,-88 -132,-144 -117,-273 0,-412 48,-57 18,-91 -55,-101 z" transform="translate(-1394.25,-4087.0001)" id="path5941" style="fill:#dedfe0"></path><path d="m 20799,4980 c -168,60 -146,553 0,602 50,-3 91,-49 55,-88 -132,-144 -117,-273 0,-412 48,-57 18,-91 -55,-101 z" transform="translate(-1394.25,-4087.0001)" id="path5943" style="fill:#dedfe0"></path><path d="m 22007,4980 c -168,60 -146,553 0,602 50,-3 91,-49 55,-88 -132,-144 -117,-273 0,-412 48,-57 18,-91 -55,-101 z" transform="translate(-1394.25,-4087.0001)" id="path5945" style="fill:#dedfe0"></path><path d="m 23198,4980 c -168,60 -146,553 0,602 50,-3 91,-49 55,-88 -132,-144 -117,-273 0,-412 48,-57 18,-91 -55,-101 z" transform="translate(-1394.25,-4087.0001)" id="path5947" style="fill:#dedfe0"></path><path d="m 24397,4980 c -168,60 -146,553 0,602 50,-3 91,-49 55,-88 -132,-144 -117,-273 0,-412 48,-57 18,-91 -55,-101 z" transform="translate(-1394.25,-4087.0001)" id="path5949" style="fill:#dedfe0"></path><path d="m 13596,4336 c -168,60 -146,553 0,602 50,-3 91,-49 55,-88 -132,-144 -117,-273 0,-412 48,-57 18,-91 -55,-101 z" transform="translate(-1394.25,-4087.0001)" id="path5951" style="fill:#dedfe0"></path><path d="m 14819,4336 c -168,60 -146,553 0,602 50,-3 91,-49 55,-88 -132,-144 -117,-273 0,-412 48,-57 18,-91 -55,-101 z" transform="translate(-1394.25,-4087.0001)" id="path5953" style="fill:#dedfe0"></path><path d="m 16010,4336 c -168,60 -146,553 0,602 50,-3 91,-49 55,-88 -132,-144 -117,-273 0,-412 48,-57 18,-91 -55,-101 z" transform="translate(-1394.25,-4087.0001)" id="path5955" style="fill:#dedfe0"></path><path d="m 17200,4336 c -168,60 -146,553 0,602 50,-3 91,-49 55,-88 -132,-144 -117,-273 0,-412 48,-57 18,-91 -55,-101 z" transform="translate(-1394.25,-4087.0001)" id="path5957" style="fill:#dedfe0"></path><path d="m 18374,4336 c -168,60 -146,553 0,602 50,-3 91,-49 55,-88 -132,-144 -117,-273 0,-412 48,-57 18,-91 -55,-101 z" transform="translate(-1394.25,-4087.0001)" id="path5959" style="fill:#dedfe0"></path><path d="m 19590,4336 c -168,60 -146,553 0,602 50,-3 91,-49 55,-88 -132,-144 -117,-273 0,-412 48,-57 18,-91 -55,-101 z" transform="translate(-1394.25,-4087.0001)" id="path5961" style="fill:#dedfe0"></path><path d="m 20799,4336 c -168,60 -146,553 0,602 50,-3 91,-49 55,-88 -132,-144 -117,-273 0,-412 48,-57 18,-91 -55,-101 z" transform="translate(-1394.25,-4087.0001)" id="path5963" style="fill:#dedfe0"></path><path d="m 22007,4336 c -168,60 -146,553 0,602 50,-3 91,-49 55,-88 -132,-144 -117,-273 0,-412 48,-57 18,-91 -55,-101 z" transform="translate(-1394.25,-4087.0001)" id="path5965" style="fill:#dedfe0"></path><path d="m 23198,4336 c -168,60 -146,553 0,602 50,-3 91,-49 55,-88 -132,-144 -117,-273 0,-412 48,-57 18,-91 -55,-101 z" transform="translate(-1394.25,-4087.0001)" id="path5967" style="fill:#dedfe0"></path><path d="m 24397,4336 c -168,60 -146,553 0,602 50,-3 91,-49 55,-88 -132,-144 -117,-273 0,-412 48,-57 18,-91 -55,-101 z" transform="translate(-1394.25,-4087.0001)" id="path5969" style="fill:#dedfe0"></path><path d="m 6133,4291 22507,0 c 44,0 79,36 79,79 l 0,3958 c 0,44 -36,79 -79,79 l -22507,0 0,0 c -1226,0 -3623,-132 -4059,-401 -696,-430 -696,-2884 0,-3314 436,-269 2833,-401 4059,-401 z m 0,4320 22507,0 c 156,0 283,-128 283,-283 l 0,-3958 c 0,-156 -128,-283 -283,-283 l -22507,0 c -959,0 -3546,122 -4114,488 -833,537 -833,3011 0,3548 568,366 3155,488 4114,488 l 0,0 z" transform="translate(-1394.25,-4087.0001)" id="path5971" style="fill:#0275d8"></path><path d="m 11194,7969 61,-29 1,0 0,254 73,0 0,-321 -62,0 -85,40 z" transform="translate(-1394.25,-4087.0001)" id="n1" style="fill:#fefefe;fill-rule:nonzero"></path><path d="m 11369,7561 0,-62 -122,0 0,-1 30,-25 c 47,-41 85,-84 85,-139 0,-58 -40,-100 -113,-100 -43,0 -81,15 -105,33 l 21,53 c 17,-12 41,-26 69,-26 37,0 52,21 52,47 -1,38 -35,74 -105,137 l -41,37 0,45 228,0 z" transform="translate(-1394.25,-4087.0001)" id="n2" style="fill:#fefefe;fill-rule:nonzero"></path><path d="m 10372,7025 93,0 0,1382 -93,0 0,-1382 z m 0,-2734 93,0 0,1382 -93,0 0,-1382 z" transform="translate(-1394.25,-4087.0001)" id="path5977" style="fill:#0275d8"></path><path d="m 8644,6849 93,0 0,1559 -93,0 0,-1559 z m 0,-2558 93,0 0,1382 -93,0 0,-1382 z" transform="translate(-1394.25,-4087.0001)" id="path5979" style="fill:#0275d8"></path><path d="m 6750,4291 0,1383 -92,0 0,-1383 z" transform="translate(-1394.25,-4087.0001)" id="polygon5981" style="fill:#0275d8"></path><path d="m 5284,4291 0,4100 -93,0 0,-4100 z" transform="translate(-1394.25,-4087.0001)" id="polygon5983" style="fill:#0275d8"></path><path d="m 26614,7025 93,0 0,1382 -93,0 0,-1382 z m 0,-2734 93,0 0,1382 -93,0 0,-1382 z" transform="translate(-1394.25,-4087.0001)" id="path5985" style="fill:#0275d8"></path><path d="m 28924,4825 379,0 0,73 159,0 0,-282 95,0 0,772 -95,0 0,-282 -159,0 0,73 -379,0 0,-353 z m 102,681 53,-30 53,30 53,-30 53,30 53,-30 53,30 53,-30 53,30 0,27 70,0 0,271 -68,0 70,143 295,0 0,878 -295,0 -51,104 49,0 0,271 -70,0 0,26 -53,30 -53,-30 -53,30 -53,-30 -53,30 -28,-16 -50,0 -28,16 -28,-16 -127,0 0,-40 0,-66 0,-49 0,-156 0,-1124 0,-117 0,-40 0,-106 0,-8 102,0 0,-27 z m -102,2015 379,0 0,73 159,0 0,-282 95,0 0,772 -95,0 0,-282 -159,0 0,73 -379,0 0,-353 z" transform="translate(-1394.25,-4087.0001)" id="path5987" style="fill:#9d9e9e"></path><path d="m 25551,4291 0,1383 -335,0 0,-1383 z" transform="translate(-1394.25,-4087.0001)" id="polygon5989" style="fill:#9d9e9e"></path><path d="m 25211,7025 0,1383 -92,0 0,-1383 z" transform="translate(-1394.25,-4087.0001)" id="polygon5991" style="fill:#0275d8"></path><path d="m 11956,7025 0,1383 -336,0 0,-1383 z" transform="translate(-1394.25,-4087.0001)" id="polygon5993" style="fill:#9d9e9e"></path><path d="m 12184,8178 c 19,11 54,22 95,22 81,0 131,-41 131,-98 0,-42 -31,-72 -70,-79 l 0,-1 c 40,-13 59,-41 59,-75 0,-44 -38,-80 -106,-80 -42,0 -80,12 -99,24 l 15,54 c 13,-8 41,-19 67,-19 32,0 47,14 47,34 0,27 -32,37 -57,37 l -30,0 0,54 31,0 c 33,0 65,14 65,46 0,24 -20,42 -59,42 -31,0 -61,-12 -75,-20 l -15,57 z" transform="translate(-1394.25,-4087.0001)" id="n3" style="fill:#fefefe;fill-rule:nonzero"></path><path d="m 12385,7558 0,-77 38,0 0,-56 -38,0 0,-188 -92,0 -121,196 0,49 142,0 0,77 71,0 z m -144,-133 0,-1 42,-70 c 11,-20 20,-39 30,-60 l 1,0 c -1,21 -2,41 -2,60 l 0,71 -73,0 z" transform="translate(-1394.25,-4087.0001)" id="n4" style="fill:#fefefe;fill-rule:nonzero"></path><path d="m 13598,7871 -177,0 -21,168 c 13,-2 25,-3 43,-3 64,0 90,20 90,53 0,34 -33,49 -64,49 -29,0 -58,-9 -72,-16 l -14,56 c 18,9 50,18 89,18 86,0 138,-53 138,-113 0,-38 -15,-64 -39,-81 -22,-16 -54,-23 -84,-23 -8,0 -14,0 -21,1 l 7,-49 124,0 0,-62 z" transform="translate(-1394.25,-4087.0001)" id="n5" style="fill:#fefefe;fill-rule:nonzero" number="5" type="number"></path><path d="m 13585,7233 c -7,0 -16,-1 -30,1 -50,2 -92,18 -123,47 -35,33 -57,83 -57,143 0,77 42,140 128,140 69,0 118,-52 118,-116 0,-67 -45,-105 -99,-105 -30,0 -52,9 -68,25 l -1,0 c 8,-37 38,-71 105,-77 12,-1 21,-1 29,-1 l 0,-58 z m -84,276 c -35,0 -51,-31 -52,-65 0,-9 1,-15 3,-19 7,-16 24,-28 44,-28 32,0 48,26 48,55 0,33 -17,57 -43,57 z" transform="translate(-1394.25,-4087.0001)" id="n6" style="fill:#fefefe;fill-rule:nonzero" number="6" type="number"></path><path d="m 14531,8194 73,0 0,-321 -62,0 -85,40 12,56 61,-29 1,0 0,254 z m 296,-326 c -83,0 -122,73 -122,166 0,91 37,165 120,165 81,0 122,-69 122,-167 0,-88 -34,-164 -120,-164 z m -1,57 c 30,0 45,38 45,109 0,73 -16,110 -45,110 -29,0 -46,-35 -46,-109 0,-75 19,-110 46,-110 z" transform="translate(-1394.25,-4087.0001)" id="n10" style="fill:#fefefe;fill-rule:nonzero" number="10" type="number"></path><path d="m 14565,7558 73,0 0,-321 -62,0 -85,40 12,56 61,-29 1,0 0,254 z m 274,0 73,0 0,-321 -62,0 -85,40 12,56 61,-29 1,0 0,254 z" transform="translate(-1394.25,-4087.0001)" id="n11" style="fill:#fefefe;fill-rule:nonzero" number="11" type="number"></path><path d="m 14050,6088 133,-274 0,-47 -227,0 0,61 147,0 0,1 -132,259 z" transform="translate(-1394.25,-4087.0001)" id="n7" style="fill:#fefefe;fill-rule:nonzero" number="7" type="number"></path><path d="m 14005,5279 c -35,15 -57,42 -57,81 0,43 38,89 119,89 75,0 123,-40 123,-98 0,-41 -28,-68 -59,-80 l 0,-1 c 32,-16 47,-43 47,-71 0,-39 -31,-82 -106,-82 -64,0 -113,36 -113,90 0,28 15,54 46,71 l 0,1 z m 65,118 c -28,0 -46,-22 -45,-45 0,-23 14,-41 39,-48 29,8 50,25 50,53 0,23 -18,40 -44,40 z m -1,-229 c 28,0 39,20 39,40 0,20 -15,36 -33,41 -26,-8 -45,-22 -45,-43 0,-20 13,-37 39,-37 z" transform="translate(-1394.25,-4087.0001)" id="n8" style="fill:#fefefe;fill-rule:nonzero" number="8" type="number"></path><path d="m 13977,4803 c 8,1 22,1 34,0 50,-2 92,-17 123,-44 35,-33 56,-81 56,-148 0,-75 -39,-138 -121,-138 -71,0 -121,53 -121,116 0,63 45,100 100,100 29,0 50,-8 65,-23 l 1,0 c -5,24 -19,45 -41,60 -17,12 -40,18 -63,20 -15,0 -23,1 -33,0 l 0,58 z m 89,-276 c 35,0 48,34 47,68 0,9 -1,14 -3,19 -7,11 -21,21 -42,21 -30,0 -45,-24 -45,-51 0,-34 18,-56 43,-56 z" transform="translate(-1394.25,-4087.0001)" id="n9" style="fill:#fefefe;fill-rule:nonzero" number="9" type="number"></path><path d="m 15126,6090 73,0 0,-321 -62,0 -85,40 12,56 61,-29 1,0 0,254 z m 406,0 0,-62 -122,0 0,-1 30,-25 c 47,-41 85,-84 85,-139 0,-58 -40,-100 -113,-100 -43,0 -81,15 -105,33 l 21,53 c 17,-12 41,-26 69,-26 37,0 52,21 52,47 -1,38 -35,74 -105,137 l -41,37 0,45 228,0 z" transform="translate(-1394.25,-4087.0001)" id="n12" style="fill:#fefefe;fill-rule:nonzero" number="12" type="number"></path><path d="m 15128,5443 73,0 0,-321 -62,0 -85,40 12,56 61,-29 1,0 0,254 z m 176,-17 c 19,11 54,22 95,22 81,0 131,-41 131,-98 0,-42 -31,-72 -70,-79 l 0,-1 c 40,-13 59,-41 59,-75 0,-44 -38,-80 -106,-80 -42,0 -80,12 -99,24 l 15,54 c 13,-8 41,-19 67,-19 32,0 47,14 47,34 0,27 -32,37 -57,37 l -30,0 0,54 31,0 c 33,0 65,14 65,46 0,24 -20,42 -59,42 -31,0 -61,-12 -75,-20 l -15,57 z" transform="translate(-1394.25,-4087.0001)" id="n13" style="fill:#fefefe;fill-rule:nonzero" number="13" type="number"></path><path d="m 15119,4799 73,0 0,-321 -62,0 -85,40 12,56 61,-29 1,0 0,254 z m 382,0 0,-77 38,0 0,-56 -38,0 0,-188 -92,0 -121,196 0,49 142,0 0,77 71,0 z m -144,-133 0,-1 42,-70 c 11,-20 20,-39 30,-60 l 1,0 c -1,21 -2,41 -2,60 l 0,71 -73,0 z" transform="translate(-1394.25,-4087.0001)" id="n14" style="fill:#fefefe;fill-rule:nonzero" number="14" type="number"></path><path d="m 15735,8192 73,0 0,-321 -62,0 -85,40 12,56 61,-29 1,0 0,254 z m 393,-321 -177,0 -21,168 c 13,-2 25,-3 43,-3 64,0 90,20 90,53 0,34 -33,49 -64,49 -29,0 -58,-9 -72,-16 l -14,56 c 18,9 50,18 89,18 86,0 138,-53 138,-113 0,-38 -15,-64 -39,-81 -22,-16 -54,-23 -84,-23 -8,0 -14,0 -21,1 l 7,-49 124,0 0,-62 z" transform="translate(-1394.25,-4087.0001)" id="n15" style="fill:#fefefe;fill-rule:nonzero" number="15" type="number"></path><path d="m 15729,7558 73,0 0,-321 -62,0 -85,40 12,56 61,-29 1,0 0,254 z m 383,-325 c -7,0 -16,-1 -30,1 -50,2 -92,18 -123,47 -35,33 -57,83 -57,143 0,77 42,140 128,140 69,0 118,-52 118,-116 0,-67 -45,-105 -99,-105 -30,0 -52,9 -68,25 l -1,0 c 8,-37 38,-71 105,-77 12,-1 21,-1 29,-1 l 0,-58 z m -84,276 c -35,0 -51,-31 -52,-65 0,-9 1,-15 3,-19 7,-16 24,-28 44,-28 32,0 48,26 48,55 0,33 -17,57 -43,57 z" transform="translate(-1394.25,-4087.0001)" id="n16" style="fill:#fefefe;fill-rule:nonzero" number="16" type="number"></path><path d="m 17063,8194 0,-62 -122,0 0,-1 30,-25 c 47,-41 85,-84 85,-139 0,-58 -40,-100 -113,-100 -43,0 -81,15 -105,33 l 21,53 c 17,-12 41,-26 69,-26 37,0 52,21 52,47 -1,38 -35,74 -105,137 l -41,37 0,45 228,0 z m 163,-326 c -83,0 -122,73 -122,166 0,91 37,165 120,165 81,0 122,-69 122,-167 0,-88 -34,-164 -120,-164 z m -1,57 c 30,0 45,38 45,109 0,73 -16,110 -45,110 -29,0 -46,-35 -46,-109 0,-75 19,-110 46,-110 z" transform="translate(-1394.25,-4087.0001)" id="n20" style="fill:#fefefe;fill-rule:nonzero" number="20" type="number"></path><path d="m 17097,7561 0,-62 -122,0 0,-1 30,-25 c 47,-41 85,-84 85,-139 0,-58 -40,-100 -113,-100 -43,0 -81,15 -105,33 l 21,53 c 17,-12 41,-26 69,-26 37,0 52,21 52,47 -1,38 -35,74 -105,137 l -41,37 0,45 228,0 z m 142,0 73,0 0,-321 -62,0 -85,40 12,56 61,-29 1,0 0,254 z" transform="translate(-1394.25,-4087.0001)" id="n21" style="fill:#fefefe;fill-rule:nonzero" number="21" type="number"></path><path d="m 18270,8194 0,-62 -122,0 0,-1 30,-25 c 47,-41 85,-84 85,-139 0,-58 -40,-100 -113,-100 -43,0 -81,15 -105,33 l 21,53 c 17,-12 41,-26 69,-26 37,0 52,21 52,47 -1,38 -35,74 -105,137 l -41,37 0,45 228,0 z m 260,-321 -177,0 -21,168 c 13,-2 25,-3 43,-3 64,0 90,20 90,53 0,34 -33,49 -64,49 -29,0 -58,-9 -72,-16 l -14,56 c 18,9 50,18 89,18 86,0 138,-53 138,-113 0,-38 -15,-64 -39,-81 -22,-16 -54,-23 -84,-23 -8,0 -14,0 -21,1 l 7,-49 124,0 0,-62 z" transform="translate(-1394.25,-4087.0001)" id="n25" style="fill:#fefefe;fill-rule:nonzero" number="25" type="number"></path><path d="m 18264,7558 0,-62 -122,0 0,-1 30,-25 c 47,-41 85,-84 85,-139 0,-58 -40,-100 -113,-100 -43,0 -81,15 -105,33 l 21,53 c 17,-12 41,-26 69,-26 37,0 52,21 52,47 -1,38 -35,74 -105,137 l -41,37 0,45 228,0 z m 251,-325 c -7,0 -16,-1 -30,1 -50,2 -92,18 -123,47 -35,33 -57,83 -57,143 0,77 42,140 128,140 69,0 118,-52 118,-116 0,-67 -45,-105 -99,-105 -30,0 -52,9 -68,25 l -1,0 c 8,-37 38,-71 105,-77 12,-1 21,-1 29,-1 l 0,-58 z m -84,276 c -35,0 -51,-31 -52,-65 0,-9 1,-15 3,-19 7,-16 24,-28 44,-28 32,0 48,26 48,55 0,33 -17,57 -43,57 z" transform="translate(-1394.25,-4087.0001)" id="n26" style="fill:#fefefe;fill-rule:nonzero" number="26" type="number"></path><path d="m 19236,8178 c 19,11 54,22 95,22 81,0 131,-41 131,-98 0,-42 -31,-72 -70,-79 l 0,-1 c 40,-13 59,-41 59,-75 0,-44 -38,-80 -106,-80 -42,0 -80,12 -99,24 l 15,54 c 13,-8 41,-19 67,-19 32,0 47,14 47,34 0,27 -32,37 -57,37 l -30,0 0,54 31,0 c 33,0 65,14 65,46 0,24 -20,42 -59,42 -31,0 -61,-12 -75,-20 l -15,57 z m 394,-310 c -83,0 -122,73 -122,166 0,91 37,165 120,165 81,0 122,-69 122,-167 0,-88 -34,-164 -120,-164 z m -1,57 c 30,0 45,38 45,109 0,73 -16,110 -45,110 -29,0 -46,-35 -46,-109 0,-75 19,-110 46,-110 z" transform="translate(-1394.25,-4087.0001)" id="n30" style="fill:#fefefe;fill-rule:nonzero" number="30" type="number"></path><path d="m 19270,7542 c 19,11 54,22 95,22 81,0 131,-41 131,-98 0,-42 -31,-72 -70,-79 l 0,-1 c 40,-13 59,-41 59,-75 0,-44 -38,-80 -106,-80 -42,0 -80,12 -99,24 l 15,54 c 13,-8 41,-19 67,-19 32,0 47,14 47,34 0,27 -32,37 -57,37 l -30,0 0,54 31,0 c 33,0 65,14 65,46 0,24 -20,42 -59,42 -31,0 -61,-12 -75,-20 l -15,57 z m 372,17 73,0 0,-321 -62,0 -85,40 12,56 61,-29 1,0 0,254 z" transform="translate(-1394.25,-4087.0001)" id="n31" style="fill:#fefefe;fill-rule:nonzero" number="31" type="number"></path><path d="m 20431,8178 c 19,11 54,22 95,22 81,0 131,-41 131,-98 0,-42 -31,-72 -70,-79 l 0,-1 c 40,-13 59,-41 59,-75 0,-44 -38,-80 -106,-80 -42,0 -80,12 -99,24 l 15,54 c 13,-8 41,-19 67,-19 32,0 47,14 47,34 0,27 -32,37 -57,37 l -30,0 0,54 31,0 c 33,0 65,14 65,46 0,24 -20,42 -59,42 -31,0 -61,-12 -75,-20 l -15,57 z m 490,-304 -177,0 -21,168 c 13,-2 25,-3 43,-3 64,0 90,20 90,53 0,34 -33,49 -64,49 -29,0 -58,-9 -72,-16 l -14,56 c 18,9 50,18 89,18 86,0 138,-53 138,-113 0,-38 -15,-64 -39,-81 -22,-16 -54,-23 -84,-23 -8,0 -14,0 -21,1 l 7,-49 124,0 0,-62 z" transform="translate(-1394.25,-4087.0001)" id="n35" style="fill:#fefefe;fill-rule:nonzero" number="35" type="number"></path><path d="m 20424,7542 c 19,11 54,22 95,22 81,0 131,-41 131,-98 0,-42 -31,-72 -70,-79 l 0,-1 c 40,-13 59,-41 59,-75 0,-44 -38,-80 -106,-80 -42,0 -80,12 -99,24 l 15,54 c 13,-8 41,-19 67,-19 32,0 47,14 47,34 0,27 -32,37 -57,37 l -30,0 0,54 31,0 c 33,0 65,14 65,46 0,24 -20,42 -59,42 -31,0 -61,-12 -75,-20 l -15,57 z m 481,-309 c -7,0 -16,-1 -30,1 -50,2 -92,18 -123,47 -35,33 -57,83 -57,143 0,77 42,140 128,140 69,0 118,-52 118,-116 0,-67 -45,-105 -99,-105 -30,0 -52,9 -68,25 l -1,0 c 8,-37 38,-71 105,-77 12,-1 21,-1 29,-1 l 0,-58 z m -84,276 c -35,0 -51,-31 -52,-65 0,-9 1,-15 3,-19 7,-16 24,-28 44,-28 32,0 48,26 48,55 0,33 -17,57 -43,57 z" transform="translate(-1394.25,-4087.0001)" id="n36" style="fill:#fefefe;fill-rule:nonzero" number="36" type="number"></path><path d="m 21827,8194 0,-77 38,0 0,-56 -38,0 0,-188 -92,0 -121,196 0,49 142,0 0,77 71,0 z m -144,-133 0,-1 42,-70 c 11,-20 20,-39 30,-60 l 1,0 c -1,21 -2,41 -2,60 l 0,71 -73,0 z m 331,-194 c -83,0 -122,73 -122,166 0,91 37,165 120,165 81,0 122,-69 122,-167 0,-88 -34,-164 -120,-164 z m -1,57 c 30,0 45,38 45,109 0,73 -16,110 -45,110 -29,0 -46,-35 -46,-109 0,-75 19,-110 46,-110 z" transform="translate(-1394.25,-4087.0001)" id="n40" style="fill:#fefefe;fill-rule:nonzero" number="40" type="number"></path><path d="m 21861,7558 0,-77 38,0 0,-56 -38,0 0,-188 -92,0 -121,196 0,49 142,0 0,77 71,0 z m -144,-133 0,-1 42,-70 c 11,-20 20,-39 30,-60 l 1,0 c -1,21 -2,41 -2,60 l 0,71 -73,0 z m 310,133 73,0 0,-321 -62,0 -85,40 12,56 61,-29 1,0 0,254 z" transform="translate(-1394.25,-4087.0001)" id="n41" style="fill:#fefefe;fill-rule:nonzero" number="41" type="number"></path><path d="m 23032,8192 0,-77 38,0 0,-56 -38,0 0,-188 -92,0 -121,196 0,49 142,0 0,77 71,0 z m -144,-133 0,-1 42,-70 c 11,-20 20,-39 30,-60 l 1,0 c -1,21 -2,41 -2,60 l 0,71 -73,0 z m 428,-188 -177,0 -21,168 c 13,-2 25,-3 43,-3 64,0 90,20 90,53 0,34 -33,49 -64,49 -29,0 -58,-9 -72,-16 l -14,56 c 18,9 50,18 89,18 86,0 138,-53 138,-113 0,-38 -15,-64 -39,-81 -22,-16 -54,-23 -84,-23 -8,0 -14,0 -21,1 l 7,-49 124,0 0,-62 z" transform="translate(-1394.25,-4087.0001)" id="n45" style="fill:#fefefe;fill-rule:nonzero" number="45" type="number"></path><path d="m 23025,7558 0,-77 38,0 0,-56 -38,0 0,-188 -92,0 -121,196 0,49 142,0 0,77 71,0 z m -144,-133 0,-1 42,-70 c 11,-20 20,-39 30,-60 l 1,0 c -1,21 -2,41 -2,60 l 0,71 -73,0 z m 419,-193 c -7,0 -16,-1 -30,1 -50,2 -92,18 -123,47 -35,33 -57,83 -57,143 0,77 42,140 128,140 69,0 118,-52 118,-116 0,-67 -45,-105 -99,-105 -30,0 -52,9 -68,25 l -1,0 c 8,-37 38,-71 105,-77 12,-1 21,-1 29,-1 l 0,-58 z m -84,276 c -35,0 -51,-31 -52,-65 0,-9 1,-15 3,-19 7,-16 24,-28 44,-28 32,0 48,26 48,55 0,33 -17,57 -43,57 z" transform="translate(-1394.25,-4087.0001)" id="n46" style="fill:#fefefe;fill-rule:nonzero" number="46" type="number"></path><path d="m 24222,7873 -177,0 -21,168 c 13,-2 25,-3 43,-3 64,0 90,20 90,53 0,34 -33,49 -64,49 -29,0 -58,-9 -72,-16 l -14,56 c 18,9 50,18 89,18 86,0 138,-53 138,-113 0,-38 -15,-64 -39,-81 -22,-16 -54,-23 -84,-23 -8,0 -14,0 -21,1 l 7,-49 124,0 0,-62 z m 177,-5 c -83,0 -122,73 -122,166 0,91 37,165 120,165 81,0 122,-69 122,-167 0,-88 -34,-164 -120,-164 z m -1,57 c 30,0 45,38 45,109 0,73 -16,110 -45,110 -29,0 -46,-35 -46,-109 0,-75 19,-110 46,-110 z" transform="translate(-1394.25,-4087.0001)" id="n50" style="fill:#fefefe;fill-rule:nonzero" number="50" type="number"></path><path d="m 24257,7235 -177,0 -21,168 c 13,-2 25,-3 43,-3 64,0 90,20 90,53 0,34 -33,49 -64,49 -29,0 -58,-9 -72,-16 l -14,56 c 18,9 50,18 89,18 86,0 138,-53 138,-113 0,-38 -15,-64 -39,-81 -22,-16 -54,-23 -84,-23 -8,0 -14,0 -21,1 l 7,-49 124,0 0,-62 z m 156,321 73,0 0,-321 -62,0 -85,40 12,56 61,-29 1,0 0,254 z" transform="translate(-1394.25,-4087.0001)" id="n51" style="fill:#fefefe;fill-rule:nonzero" number="51" type="number"></path><path d="m 16316,6090 73,0 0,-321 -62,0 -85,40 12,56 61,-29 1,0 0,254 z m 182,-321 0,62 147,0 0,1 -132,258 80,0 132,-274 0,-47 -227,0 z" transform="translate(-1394.25,-4087.0001)" id="n17" style="fill:#fefefe;fill-rule:nonzero" number="17" type="number"></path><path d="m 16312,5443 73,0 0,-321 -62,0 -85,40 12,56 61,-29 1,0 0,254 z m 231,-164 c -35,15 -57,42 -57,81 0,43 38,89 119,89 75,0 123,-40 123,-98 0,-41 -28,-68 -59,-80 l 0,-1 c 32,-16 47,-43 47,-71 0,-39 -31,-82 -106,-82 -64,0 -113,36 -113,90 0,28 15,54 46,71 l 0,1 z m 65,118 c -28,0 -46,-22 -45,-45 0,-23 14,-41 39,-48 29,8 50,25 50,53 0,23 -18,40 -44,40 z m -1,-229 c 28,0 39,20 39,40 0,20 -15,36 -33,41 -26,-8 -45,-22 -45,-43 0,-20 13,-37 39,-37 z" transform="translate(-1394.25,-4087.0001)" id="n18" style="fill:#fefefe;fill-rule:nonzero" number="18" type="number"></path><path d="m 16312,4799 73,0 0,-321 -62,0 -85,40 12,56 61,-29 1,0 0,254 z m 202,4 c 8,1 22,1 34,0 50,-2 92,-17 123,-44 35,-33 56,-81 56,-148 0,-75 -39,-138 -121,-138 -71,0 -121,53 -121,116 0,63 45,100 100,100 29,0 50,-8 65,-23 l 1,0 c -5,24 -19,45 -41,60 -17,12 -40,18 -63,20 -15,0 -23,1 -33,0 l 0,58 z m 89,-276 c 35,0 48,34 47,68 0,9 -1,14 -3,19 -7,11 -21,21 -42,21 -30,0 -45,-24 -45,-51 0,-34 18,-56 43,-56 z" transform="translate(-1394.25,-4087.0001)" id="n19" style="fill:#fefefe;fill-rule:nonzero" number="19" type="number"></path><path d="m 17650,6090 0,-62 -122,0 0,-1 30,-25 c 47,-41 85,-84 85,-139 0,-58 -40,-100 -113,-100 -43,0 -81,15 -105,33 l 21,53 c 17,-12 41,-26 69,-26 37,0 52,21 52,47 -1,38 -35,74 -105,137 l -41,37 0,45 228,0 z m 274,0 0,-62 -122,0 0,-1 30,-25 c 47,-41 85,-84 85,-139 0,-58 -40,-100 -113,-100 -43,0 -81,15 -105,33 l 21,53 c 17,-12 41,-26 69,-26 37,0 52,21 52,47 -1,38 -35,74 -105,137 l -41,37 0,45 228,0 z" transform="translate(-1394.25,-4087.0001)" id="n22" style="fill:#fefefe;fill-rule:nonzero" number="22" type="number"></path><path d="m 17652,5443 0,-62 -122,0 0,-1 30,-25 c 47,-41 85,-84 85,-139 0,-58 -40,-100 -113,-100 -43,0 -81,15 -105,33 l 21,53 c 17,-12 41,-26 69,-26 37,0 52,21 52,47 -1,38 -35,74 -105,137 l -41,37 0,45 228,0 z m 44,-17 c 19,11 54,22 95,22 81,0 131,-41 131,-98 0,-42 -31,-72 -70,-79 l 0,-1 c 40,-13 59,-41 59,-75 0,-44 -38,-80 -106,-80 -42,0 -80,12 -99,24 l 15,54 c 13,-8 41,-19 67,-19 32,0 47,14 47,34 0,27 -32,37 -57,37 l -30,0 0,54 31,0 c 33,0 65,14 65,46 0,24 -20,42 -59,42 -31,0 -61,-12 -75,-20 l -15,57 z" transform="translate(-1394.25,-4087.0001)" id="n23" style="fill:#fefefe;fill-rule:nonzero" number="23" type="number"></path><path d="m 17643,4799 0,-62 -122,0 0,-1 30,-25 c 47,-41 85,-84 85,-139 0,-58 -40,-100 -113,-100 -43,0 -81,15 -105,33 l 21,53 c 17,-12 41,-26 69,-26 37,0 52,21 52,47 -1,38 -35,74 -105,137 l -41,37 0,45 228,0 z m 250,0 0,-77 38,0 0,-56 -38,0 0,-188 -92,0 -121,196 0,49 142,0 0,77 71,0 z m -144,-133 0,-1 42,-70 c 11,-20 20,-39 30,-60 l 1,0 c -1,21 -2,41 -2,60 l 0,71 -73,0 z" transform="translate(-1394.25,-4087.0001)" id="n24" style="fill:#fefefe;fill-rule:nonzero" number="24" type="number"></path><path d="m 18823,6090 0,-62 -122,0 0,-1 30,-25 c 47,-41 85,-84 85,-139 0,-58 -40,-100 -113,-100 -43,0 -81,15 -105,33 l 21,53 c 17,-12 41,-26 69,-26 37,0 52,21 52,47 -1,38 -35,74 -105,137 l -41,37 0,45 228,0 z m 49,-321 0,62 147,0 0,1 -132,258 80,0 132,-274 0,-47 -227,0 z" transform="translate(-1394.25,-4087.0001)" id="n27" style="fill:#fefefe;fill-rule:nonzero" number="27" type="number"></path><path d="m 18819,5443 0,-62 -122,0 0,-1 30,-25 c 47,-41 85,-84 85,-139 0,-58 -40,-100 -113,-100 -43,0 -81,15 -105,33 l 21,53 c 17,-12 41,-26 69,-26 37,0 52,21 52,47 -1,38 -35,74 -105,137 l -41,37 0,45 228,0 z m 98,-164 c -35,15 -57,42 -57,81 0,43 38,89 119,89 75,0 123,-40 123,-98 0,-41 -28,-68 -59,-80 l 0,-1 c 32,-16 47,-43 47,-71 0,-39 -31,-82 -106,-82 -64,0 -113,36 -113,90 0,28 15,54 46,71 l 0,1 z m 65,118 c -28,0 -46,-22 -45,-45 0,-23 14,-41 39,-48 29,8 50,25 50,53 0,23 -18,40 -44,40 z m -1,-229 c 28,0 39,20 39,40 0,20 -15,36 -33,41 -26,-8 -45,-22 -45,-43 0,-20 13,-37 39,-37 z" transform="translate(-1394.25,-4087.0001)" id="n28" style="fill:#fefefe;fill-rule:nonzero" number="28" type="number"></path><path d="m 18820,4799 0,-62 -122,0 0,-1 30,-25 c 47,-41 85,-84 85,-139 0,-58 -40,-100 -113,-100 -43,0 -81,15 -105,33 l 21,53 c 17,-12 41,-26 69,-26 37,0 52,21 52,47 -1,38 -35,74 -105,137 l -41,37 0,45 228,0 z m 69,4 c 8,1 22,1 34,0 50,-2 92,-17 123,-44 35,-33 56,-81 56,-148 0,-75 -39,-138 -121,-138 -71,0 -121,53 -121,116 0,63 45,100 100,100 29,0 50,-8 65,-23 l 1,0 c -5,24 -19,45 -41,60 -17,12 -40,18 -63,20 -15,0 -23,1 -33,0 l 0,58 z m 89,-276 c 35,0 48,34 47,68 0,9 -1,14 -3,19 -7,11 -21,21 -42,21 -30,0 -45,-24 -45,-51 0,-34 18,-56 43,-56 z" transform="translate(-1394.25,-4087.0001)" id="n29" style="fill:#fefefe;fill-rule:nonzero" number="29" type="number"></path><path d="m 19811,6074 c 19,11 54,22 95,22 81,0 131,-41 131,-98 0,-42 -31,-72 -70,-79 l 0,-1 c 40,-13 59,-41 59,-75 0,-44 -38,-80 -106,-80 -42,0 -80,12 -99,24 l 15,54 c 13,-8 41,-19 67,-19 32,0 47,14 47,34 0,27 -32,37 -57,37 l -30,0 0,54 31,0 c 33,0 65,14 65,46 0,24 -20,42 -59,42 -31,0 -61,-12 -75,-20 l -15,57 z m 504,17 0,-62 -122,0 0,-1 30,-25 c 47,-41 85,-84 85,-139 0,-58 -40,-100 -113,-100 -43,0 -81,15 -105,33 l 21,53 c 17,-12 41,-26 69,-26 37,0 52,21 52,47 -1,38 -35,74 -105,137 l -41,37 0,45 228,0 z" transform="translate(-1394.25,-4087.0001)" id="n32" style="fill:#fefefe;fill-rule:nonzero" number="32" type="number"></path><path d="m 19813,5426 c 19,11 54,22 95,22 81,0 131,-41 131,-98 0,-42 -31,-72 -70,-79 l 0,-1 c 40,-13 59,-41 59,-75 0,-44 -38,-80 -106,-80 -42,0 -80,12 -99,24 l 15,54 c 13,-8 41,-19 67,-19 32,0 47,14 47,34 0,27 -32,37 -57,37 l -30,0 0,54 31,0 c 33,0 65,14 65,46 0,24 -20,42 -59,42 -31,0 -61,-12 -75,-20 l -15,57 z m 274,0 c 19,11 54,22 95,22 81,0 131,-41 131,-98 0,-42 -31,-72 -70,-79 l 0,-1 c 40,-13 59,-41 59,-75 0,-44 -38,-80 -106,-80 -42,0 -80,12 -99,24 l 15,54 c 13,-8 41,-19 67,-19 32,0 47,14 47,34 0,27 -32,37 -57,37 l -30,0 0,54 31,0 c 33,0 65,14 65,46 0,24 -20,42 -59,42 -31,0 -61,-12 -75,-20 l -15,57 z" transform="translate(-1394.25,-4087.0001)" id="n33" style="fill:#fefefe;fill-rule:nonzero" number="33" type="number"></path><path d="m 19804,4782 c 19,11 54,22 95,22 81,0 131,-41 131,-98 0,-42 -31,-72 -70,-79 l 0,-1 c 40,-13 59,-41 59,-75 0,-44 -38,-80 -106,-80 -42,0 -80,12 -99,24 l 15,54 c 13,-8 41,-19 67,-19 32,0 47,14 47,34 0,27 -32,37 -57,37 l -30,0 0,54 31,0 c 33,0 65,14 65,46 0,24 -20,42 -59,42 -31,0 -61,-12 -75,-20 l -15,57 z m 480,17 0,-77 38,0 0,-56 -38,0 0,-188 -92,0 -121,196 0,49 142,0 0,77 71,0 z m -144,-133 0,-1 42,-70 c 11,-20 20,-39 30,-60 l 1,0 c -1,21 -2,41 -2,60 l 0,71 -73,0 z" transform="translate(-1394.25,-4087.0001)" id="n34" style="fill:#fefefe;fill-rule:nonzero" number="34" type="number"></path><path d="m 21018,6074 c 19,11 54,22 95,22 81,0 131,-41 131,-98 0,-42 -31,-72 -70,-79 l 0,-1 c 40,-13 59,-41 59,-75 0,-44 -38,-80 -106,-80 -42,0 -80,12 -99,24 l 15,54 c 13,-8 41,-19 67,-19 32,0 47,14 47,34 0,27 -32,37 -57,37 l -30,0 0,54 31,0 c 33,0 65,14 65,46 0,24 -20,42 -59,42 -31,0 -61,-12 -75,-20 l -15,57 z m 280,-304 0,62 147,0 0,1 -132,258 80,0 132,-274 0,-47 -227,0 z" transform="translate(-1394.25,-4087.0001)" id="n37" style="fill:#fefefe;fill-rule:nonzero" number="37" type="number"></path><path d="m 21015,5426 c 19,11 54,22 95,22 81,0 131,-41 131,-98 0,-42 -31,-72 -70,-79 l 0,-1 c 40,-13 59,-41 59,-75 0,-44 -38,-80 -106,-80 -42,0 -80,12 -99,24 l 15,54 c 13,-8 41,-19 67,-19 32,0 47,14 47,34 0,27 -32,37 -57,37 l -30,0 0,54 31,0 c 33,0 65,14 65,46 0,24 -20,42 -59,42 -31,0 -61,-12 -75,-20 l -15,57 z m 328,-148 c -35,15 -57,42 -57,81 0,43 38,89 119,89 75,0 123,-40 123,-98 0,-41 -28,-68 -59,-80 l 0,-1 c 32,-16 47,-43 47,-71 0,-39 -31,-82 -106,-82 -64,0 -113,36 -113,90 0,28 15,54 46,71 l 0,1 z m 65,118 c -28,0 -46,-22 -45,-45 0,-23 14,-41 39,-48 29,8 50,25 50,53 0,23 -18,40 -44,40 z m -1,-229 c 28,0 39,20 39,40 0,20 -15,36 -33,41 -26,-8 -45,-22 -45,-43 0,-20 13,-37 39,-37 z" transform="translate(-1394.25,-4087.0001)" id="n38" style="fill:#fefefe;fill-rule:nonzero" number="38" type="number"></path><path d="m 21015,4782 c 19,11 54,22 95,22 81,0 131,-41 131,-98 0,-42 -31,-72 -70,-79 l 0,-1 c 40,-13 59,-41 59,-75 0,-44 -38,-80 -106,-80 -42,0 -80,12 -99,24 l 15,54 c 13,-8 41,-19 67,-19 32,0 47,14 47,34 0,27 -32,37 -57,37 l -30,0 0,54 31,0 c 33,0 65,14 65,46 0,24 -20,42 -59,42 -31,0 -61,-12 -75,-20 l -15,57 z m 299,21 c 8,1 22,1 34,0 50,-2 92,-17 123,-44 35,-33 56,-81 56,-148 0,-75 -39,-138 -121,-138 -71,0 -121,53 -121,116 0,63 45,100 100,100 29,0 50,-8 65,-23 l 1,0 c -5,24 -19,45 -41,60 -17,12 -40,18 -63,20 -15,0 -23,1 -33,0 l 0,58 z m 89,-276 c 35,0 48,34 47,68 0,9 -1,14 -3,19 -7,11 -21,21 -42,21 -30,0 -45,-24 -45,-51 0,-34 18,-56 43,-56 z" transform="translate(-1394.25,-4087.0001)" id="n39" style="fill:#fefefe;fill-rule:nonzero" number="39" type="number"></path><path d="m 22437,6090 0,-77 38,0 0,-56 -38,0 0,-188 -92,0 -121,196 0,49 142,0 0,77 71,0 z m -144,-133 0,-1 42,-70 c 11,-20 20,-39 30,-60 l 1,0 c -1,21 -2,41 -2,60 l 0,71 -73,0 z m 442,133 0,-62 -122,0 0,-1 30,-25 c 47,-41 85,-84 85,-139 0,-58 -40,-100 -113,-100 -43,0 -81,15 -105,33 l 21,53 c 17,-12 41,-26 69,-26 37,0 52,21 52,47 -1,38 -35,74 -105,137 l -41,37 0,45 228,0 z" transform="translate(-1394.25,-4087.0001)" id="n42" style="fill:#fefefe;fill-rule:nonzero" number="42" type="number"></path><path d="m 22439,5443 0,-77 38,0 0,-56 -38,0 0,-188 -92,0 -121,196 0,49 142,0 0,77 71,0 z m -144,-133 0,-1 42,-70 c 11,-20 20,-39 30,-60 l 1,0 c -1,21 -2,41 -2,60 l 0,71 -73,0 z m 212,116 c 19,11 54,22 95,22 81,0 131,-41 131,-98 0,-42 -31,-72 -70,-79 l 0,-1 c 40,-13 59,-41 59,-75 0,-44 -38,-80 -106,-80 -42,0 -80,12 -99,24 l 15,54 c 13,-8 41,-19 67,-19 32,0 47,14 47,34 0,27 -32,37 -57,37 l -30,0 0,54 31,0 c 33,0 65,14 65,46 0,24 -20,42 -59,42 -31,0 -61,-12 -75,-20 l -15,57 z" transform="translate(-1394.25,-4087.0001)" id="n43" style="fill:#fefefe;fill-rule:nonzero" number="43" type="number"></path><path d="m 22430,4799 0,-77 38,0 0,-56 -38,0 0,-188 -92,0 -121,196 0,49 142,0 0,77 71,0 z m -144,-133 0,-1 42,-70 c 11,-20 20,-39 30,-60 l 1,0 c -1,21 -2,41 -2,60 l 0,71 -73,0 z m 418,133 0,-77 38,0 0,-56 -38,0 0,-188 -92,0 -121,196 0,49 142,0 0,77 71,0 z m -144,-133 0,-1 42,-70 c 11,-20 20,-39 30,-60 l 1,0 c -1,21 -2,41 -2,60 l 0,71 -73,0 z" transform="translate(-1394.25,-4087.0001)" id="n44" style="fill:#fefefe;fill-rule:nonzero" number="44" type="number"></path><path d="m 23628,6090 0,-77 38,0 0,-56 -38,0 0,-188 -92,0 -121,196 0,49 142,0 0,77 71,0 z m -144,-133 0,-1 42,-70 c 11,-20 20,-39 30,-60 l 1,0 c -1,21 -2,41 -2,60 l 0,71 -73,0 z m 217,-188 0,62 147,0 0,1 -132,258 80,0 132,-274 0,-47 -227,0 z" transform="translate(-1394.25,-4087.0001)" id="n47" style="fill:#fefefe;fill-rule:nonzero" number="47" type="number"></path><path d="m 23624,5443 0,-77 38,0 0,-56 -38,0 0,-188 -92,0 -121,196 0,49 142,0 0,77 71,0 z m -144,-133 0,-1 42,-70 c 11,-20 20,-39 30,-60 l 1,0 c -1,21 -2,41 -2,60 l 0,71 -73,0 z m 266,-32 c -35,15 -57,42 -57,81 0,43 38,89 119,89 75,0 123,-40 123,-98 0,-41 -28,-68 -59,-80 l 0,-1 c 32,-16 47,-43 47,-71 0,-39 -31,-82 -106,-82 -64,0 -113,36 -113,90 0,28 15,54 46,71 l 0,1 z m 65,118 c -28,0 -46,-22 -45,-45 0,-23 14,-41 39,-48 29,8 50,25 50,53 0,23 -18,40 -44,40 z m -1,-229 c 28,0 39,20 39,40 0,20 -15,36 -33,41 -26,-8 -45,-22 -45,-43 0,-20 13,-37 39,-37 z" transform="translate(-1394.25,-4087.0001)" id="n48" style="fill:#fefefe;fill-rule:nonzero" number="48" type="number"></path><path d="m 23625,4799 0,-77 38,0 0,-56 -38,0 0,-188 -92,0 -121,196 0,49 142,0 0,77 71,0 z m -144,-133 0,-1 42,-70 c 11,-20 20,-39 30,-60 l 1,0 c -1,21 -2,41 -2,60 l 0,71 -73,0 z m 237,137 c 8,1 22,1 34,0 50,-2 92,-17 123,-44 35,-33 56,-81 56,-148 0,-75 -39,-138 -121,-138 -71,0 -121,53 -121,116 0,63 45,100 100,100 29,0 50,-8 65,-23 l 1,0 c -5,24 -19,45 -41,60 -17,12 -40,18 -63,20 -15,0 -23,1 -33,0 l 0,58 z m 89,-276 c 35,0 48,34 47,68 0,9 -1,14 -3,19 -7,11 -21,21 -42,21 -30,0 -45,-24 -45,-51 0,-34 18,-56 43,-56 z" transform="translate(-1394.25,-4087.0001)" id="n49" style="fill:#fefefe;fill-rule:nonzero" number="49" type="number"></path><path d="m 24833,5769 -177,0 -21,168 c 13,-2 25,-3 43,-3 64,0 90,20 90,53 0,34 -33,49 -64,49 -29,0 -58,-9 -72,-16 l -14,56 c 18,9 50,18 89,18 86,0 138,-53 138,-113 0,-38 -15,-64 -39,-81 -22,-16 -54,-23 -84,-23 -8,0 -14,0 -21,1 l 7,-49 124,0 0,-62 z m 288,321 0,-62 -122,0 0,-1 30,-25 c 47,-41 85,-84 85,-139 0,-58 -40,-100 -113,-100 -43,0 -81,15 -105,33 l 21,53 c 17,-12 41,-26 69,-26 37,0 52,21 52,47 -1,38 -35,74 -105,137 l -41,37 0,45 228,0 z" transform="translate(-1394.25,-4087.0001)" id="n52" style="fill:#fefefe;fill-rule:nonzero" number="52" type="number"></path><path d="m 24835,5122 -177,0 -21,168 c 13,-2 25,-3 43,-3 64,0 90,20 90,53 0,34 -33,49 -64,49 -29,0 -58,-9 -72,-16 l -14,56 c 18,9 50,18 89,18 86,0 138,-53 138,-113 0,-38 -15,-64 -39,-81 -22,-16 -54,-23 -84,-23 -8,0 -14,0 -21,1 l 7,-49 124,0 0,-62 z m 58,304 c 19,11 54,22 95,22 81,0 131,-41 131,-98 0,-42 -31,-72 -70,-79 l 0,-1 c 40,-13 59,-41 59,-75 0,-44 -38,-80 -106,-80 -42,0 -80,12 -99,24 l 15,54 c 13,-8 41,-19 67,-19 32,0 47,14 47,34 0,27 -32,37 -57,37 l -30,0 0,54 31,0 c 33,0 65,14 65,46 0,24 -20,42 -59,42 -31,0 -61,-12 -75,-20 l -15,57 z" transform="translate(-1394.25,-4087.0001)" id="n53" style="fill:#fefefe;fill-rule:nonzero" number="53" type="number"></path><path d="m 24826,4478 -177,0 -21,168 c 13,-2 25,-3 43,-3 64,0 90,20 90,53 0,34 -33,49 -64,49 -29,0 -58,-9 -72,-16 l -14,56 c 18,9 50,18 89,18 86,0 138,-53 138,-113 0,-38 -15,-64 -39,-81 -22,-16 -54,-23 -84,-23 -8,0 -14,0 -21,1 l 7,-49 124,0 0,-62 z m 264,321 0,-77 38,0 0,-56 -38,0 0,-188 -92,0 -121,196 0,49 142,0 0,77 71,0 z m -144,-133 0,-1 42,-70 c 11,-20 20,-39 30,-60 l 1,0 c -1,21 -2,41 -2,60 l 0,71 -73,0 z" transform="translate(-1394.25,-4087.0001)" id="n54" style="fill:#fefefe;fill-rule:nonzero" number="54" type="number"></path><path d="m 25700,4373 c 144,0 288,0 432,0 106,185 94,370 0,556 -168,0 -265,0 -432,0 -121,-180 -131,-364 0,-556 z" transform="translate(-1394.25,-4087.0001)" id="s55" style="fill:#dedfe0" number="55" type="seat"></path><path d="m 25700,5565 c 144,0 288,0 432,0 106,-185 94,-370 0,-556 -168,0 -265,0 -432,0 -121,180 -131,364 0,556 z" transform="translate(-1394.25,-4087.0001)" id="s56" style="fill:#dedfe0" number="56" type="seat"></path><path d="m 25720,5646 659,0 0,-57 c 168,-60 146,-553 0,-602 l 0,-36 c 146,-49 168,-542 0,-602 l 0,-57 -659,0 0,82 412,0 c 106,185 94,370 0,556 l -412,0 c 0,27 0,54 0,80 l 412,0 c 94,185 106,370 0,556 l -412,0 0,82 z" transform="translate(-1394.25,-4087.0001)" id="path6103" style="fill:#9d9e9e"></path><path d="m 26379,5589 c 168,-60 146,-553 0,-602 -50,3 -91,49 -55,88 132,144 117,273 0,412 -48,57 -18,91 55,101 z" transform="translate(-1394.25,-4087.0001)" id="path6105" style="fill:#dedfe0"></path><path d="m 25863,5126 -177,0 -21,168 c 13,-2 25,-3 43,-3 64,0 90,20 90,53 0,34 -33,49 -64,49 -29,0 -58,-9 -72,-16 l -14,56 c 18,9 50,18 89,18 86,0 138,-53 138,-113 0,-38 -15,-64 -39,-81 -22,-16 -54,-23 -84,-23 -8,0 -14,0 -21,1 l 7,-49 124,0 0,-62 z m 265,-4 c -7,0 -16,-1 -30,1 -50,2 -92,18 -123,47 -35,33 -57,83 -57,143 0,77 42,140 128,140 69,0 118,-52 118,-116 0,-67 -45,-105 -99,-105 -30,0 -52,9 -68,25 l -1,0 c 8,-37 38,-71 105,-77 12,-1 21,-1 29,-1 l 0,-58 z m -84,276 c -35,0 -51,-31 -52,-65 0,-9 1,-15 3,-19 7,-16 24,-28 44,-28 32,0 48,26 48,55 0,33 -17,57 -43,57 z" transform="translate(-1394.25,-4087.0001)" id="n56" style="fill:#fefefe;fill-rule:nonzero" number="56" type="number"></path><path d="m 25870,4488 -177,0 -21,168 c 13,-2 25,-3 43,-3 64,0 90,20 90,53 0,34 -33,49 -64,49 -29,0 -58,-9 -72,-16 l -14,56 c 18,9 50,18 89,18 86,0 138,-53 138,-113 0,-38 -15,-64 -39,-81 -22,-16 -54,-23 -84,-23 -8,0 -14,0 -21,1 l 7,-49 124,0 0,-62 z m 274,0 -177,0 -21,168 c 13,-2 25,-3 43,-3 64,0 90,20 90,53 0,34 -33,49 -64,49 -29,0 -58,-9 -72,-16 l -14,56 c 18,9 50,18 89,18 86,0 138,-53 138,-113 0,-38 -15,-64 -39,-81 -22,-16 -54,-23 -84,-23 -8,0 -14,0 -21,1 l 7,-49 124,0 0,-62 z" transform="translate(-1394.25,-4087.0001)" id="n55" style="fill:#fefefe;fill-rule:nonzero" number="55" type="number"></path><path d="m 8531,4525 0,628 -311,0 0,-628 311,0 z m -390,0 0,628 -361,0 c -165,0 -300,-135 -300,-300 l 0,-28 c 0,-165 135,-300 300,-300 l 361,0 z m -154,154 -207,0 c -80,0 -146,66 -146,146 l 0,28 c 0,80 66,146 146,146 l 207,0 0,-320 z" transform="translate(-1394.25,-4087.0001)" id="path6111" style="fill:#c2c7cc"></path><path d="m 8531,7371 0,628 -311,0 0,-628 311,0 z m -390,0 0,628 -361,0 c -165,0 -300,-135 -300,-300 l 0,-28 c 0,-165 135,-300 300,-300 l 361,0 z m -154,154 -207,0 c -80,0 -146,66 -146,146 l 0,28 c 0,80 66,146 146,146 l 207,0 0,-320 z" transform="translate(-1394.25,-4087.0001)" id="path6113" style="fill:#c2c7cc"></path><path d="m 10782,7096 c -168,60 -146,553 0,602 50,-3 91,-49 55,-88 -132,-144 -117,-273 0,-412 48,-57 18,-91 -55,-101 z" transform="translate(-1394.25,-4087.0001)" id="path6115" style="fill:#dedfe0"></path><path d="m 12770,7096 c 168,60 146,553 0,602 -50,-3 -91,-49 -55,-88 132,-144 117,-273 0,-412 -48,-57 -18,-91 55,-101 z" transform="translate(-1394.25,-4087.0001)" id="path6117" style="fill:#dedfe0"></path><path d="m 13970,7096 c 168,60 146,553 0,602 -50,-3 -91,-49 -55,-88 132,-144 117,-273 0,-412 -48,-57 -18,-91 55,-101 z" transform="translate(-1394.25,-4087.0001)" id="path6119" style="fill:#dedfe0"></path><path d="m 15174,7096 c 168,60 146,553 0,602 -50,-3 -91,-49 -55,-88 132,-144 117,-273 0,-412 -48,-57 -18,-91 55,-101 z" transform="translate(-1394.25,-4087.0001)" id="path6121" style="fill:#dedfe0"></path><path d="m 16374,7096 c 168,60 146,553 0,602 -50,-3 -91,-49 -55,-88 132,-144 117,-273 0,-412 -48,-57 -18,-91 55,-101 z" transform="translate(-1394.25,-4087.0001)" id="path6123" style="fill:#dedfe0"></path><path d="m 17563,7096 c 168,60 146,553 0,602 -50,-3 -91,-49 -55,-88 132,-144 117,-273 0,-412 -48,-57 -18,-91 55,-101 z" transform="translate(-1394.25,-4087.0001)" id="path6125" style="fill:#dedfe0"></path><path d="m 18766,7096 c 168,60 146,553 0,602 -50,-3 -91,-49 -55,-88 132,-144 117,-273 0,-412 -48,-57 -18,-91 55,-101 z" transform="translate(-1394.25,-4087.0001)" id="path6127" style="fill:#dedfe0"></path><path d="m 19966,7096 c 168,60 146,553 0,602 -50,-3 -91,-49 -55,-88 132,-144 117,-273 0,-412 -48,-57 -18,-91 55,-101 z" transform="translate(-1394.25,-4087.0001)" id="path6129" style="fill:#dedfe0"></path><path d="m 21155,7096 c 168,60 146,553 0,602 -50,-3 -91,-49 -55,-88 132,-144 117,-273 0,-412 -48,-57 -18,-91 55,-101 z" transform="translate(-1394.25,-4087.0001)" id="path6131" style="fill:#dedfe0"></path><path d="m 22347,7096 c 168,60 146,553 0,602 -50,-3 -91,-49 -55,-88 132,-144 117,-273 0,-412 -48,-57 -18,-91 55,-101 z" transform="translate(-1394.25,-4087.0001)" id="path6133" style="fill:#dedfe0"></path><path d="m 23547,7096 c 168,60 146,553 0,602 -50,-3 -91,-49 -55,-88 132,-144 117,-273 0,-412 -48,-57 -18,-91 55,-101 z" transform="translate(-1394.25,-4087.0001)" id="path6135" style="fill:#dedfe0"></path><path d="m 24736,7096 c 168,60 146,553 0,602 -50,-3 -91,-49 -55,-88 132,-144 117,-273 0,-412 -48,-57 -18,-91 55,-101 z" transform="translate(-1394.25,-4087.0001)" id="path6137" style="fill:#dedfe0"></path><path d="m 26379,4349 c 168,60 146,553 0,602 -50,-3 -91,-49 -55,-88 132,-144 117,-273 0,-412 -48,-57 -18,-91 55,-101 z" transform="translate(-1394.25,-4087.0001)" id="path6139" style="fill:#dedfe0"></path><path d="m 11024,4972 21,349 c 12,59 60,94 120,94 l 370,0 c 46,81 93,162 140,243 15,26 28,54 74,54 35,0 64,-29 64,-71 0,-22 -15,-42 -24,-58 l -152,-262 c -22,-36 -37,-83 -84,-83 l -289,0 -2,-86 196,0 c 84,0 89,-108 -2,-108 l -201,0 -6,-71 c -22,-205 -230,-152 -225,-2 z m 573,672 c -67,154 -221,262 -400,262 -241,0 -436,-195 -436,-436 0,-159 85,-298 212,-374 l 10,112 c -76,62 -125,156 -125,262 0,187 151,338 338,338 167,0 305,-121 333,-280 l 67,116 z m -469,-1050 c 63,0 113,51 113,113 0,63 -51,113 -113,113 -63,0 -113,-51 -113,-113 0,-63 51,-113 113,-113 z" transform="translate(-1394.25,-4087.0001)" id="path6141" style="fill:#9d9e9e"></path><path d="m 12358,4972 21,349 c 12,59 60,94 120,94 l 370,0 c 46,81 93,162 140,243 15,26 28,54 74,54 35,0 64,-29 64,-71 0,-22 -15,-42 -24,-58 l -152,-262 c -22,-36 -37,-83 -84,-83 l -289,0 -2,-86 196,0 c 84,0 89,-108 -2,-108 l -201,0 -6,-71 c -22,-205 -230,-152 -225,-2 z m 573,672 c -67,154 -221,262 -400,262 -241,0 -436,-195 -436,-436 0,-159 85,-298 212,-374 l 10,112 c -76,62 -125,156 -125,262 0,187 151,338 338,338 167,0 305,-121 333,-280 l 67,116 z m -469,-1050 c 63,0 113,51 113,113 0,63 -51,113 -113,113 -63,0 -113,-51 -113,-113 0,-63 51,-113 113,-113 z" transform="translate(-1394.25,-4087.0001)" id="path6143" style="fill:#9d9e9e"></path><path d="m 6264,7354 21,349 c 12,59 60,94 120,94 l 370,0 c 46,81 93,162 140,243 15,26 28,54 74,54 35,0 64,-29 64,-71 0,-22 -15,-42 -24,-58 l -152,-262 c -22,-36 -37,-83 -84,-83 l -289,0 -2,-86 196,0 c 84,0 89,-108 -2,-108 l -201,0 -6,-71 c -22,-205 -230,-152 -225,-2 z m 573,672 c -67,154 -221,262 -400,262 -241,0 -436,-195 -436,-436 0,-159 85,-298 212,-374 l 10,112 c -76,62 -125,156 -125,262 0,187 151,338 338,338 167,0 305,-121 333,-280 l 67,116 z M 6368,6976 c 63,0 113,51 113,113 0,63 -51,113 -113,113 -63,0 -113,-51 -113,-113 0,-63 51,-113 113,-113 z" transform="translate(-1394.25,-4087.0001)" id="path6145" style="fill:#9d9e9e"></path><path d="m 25853,7360 143,0 c 82,0 148,67 148,148 l 0,37 c -24,0 -48,0 -73,0 -1,0 -3,0 -4,0 l 0,-41 c 0,-41 -33,-74 -74,-74 l -140,0 c -41,0 -74,33 -74,74 l 0,37 c -25,-1 -49,-2 -74,-3 l 0,-31 c 0,-82 67,-148 148,-148 z m -285,213 713,0 c 61,0 112,50 112,112 l 0,34 -181,0 0,-12 c 0,-11 -9,-21 -21,-21 l -66,0 c -11,0 -21,9 -21,21 l 0,12 -362,0 0,-12 c 0,-11 -9,-21 -21,-21 l -66,0 c -11,0 -21,9 -21,21 l 0,12 -180,0 0,-34 c 0,-61 50,-112 112,-112 z m 825,182 0,286 c 0,61 -50,112 -112,112 l -713,0 c -61,0 -112,-50 -112,-112 l 0,-286 180,0 0,53 c 0,11 9,21 21,21 l 66,0 c 11,0 21,-9 21,-21 l 0,-53 362,0 0,53 c 0,11 9,21 21,21 l 66,0 c 11,0 21,-9 21,-21 l 0,-53 181,0 z" transform="translate(-1394.25,-4087.0001)" id="path6147" style="fill:#9d9e9e"></path>
</svg>