<svg xmlns:dc="http://purl.org/dc/elements/1.1/" xmlns:cc="http://creativecommons.org/ns#" xmlns:rdf="http://www.w3.org/1999/02/22-rdf-syntax-ns#" xmlns:svg="http://www.w3.org/2000/svg" xmlns="http://www.w3.org/2000/svg" version="1.1" width="1057.0393" height="160.29921" viewBox="0 0 29831.999 4524" id="svg8082" xml:space="preserve" style="fill-rule:evenodd"><metadata id="metadata8668"><rdf:rdf><cc:work rdf:about=""><dc:format>image/svg+xml</dc:format><dc:type rdf:resource="http://purl.org/dc/dcmitype/StillImage"></dc:type><dc:title></dc:title></cc:work></rdf:rdf></metadata><defs id="defs8666">
 </defs>
 <path d="m 23008,6561 659,0 0,-57 c 168,-60 146,-553 0,-602 l 0,-36 c 146,-49 168,-542 0,-602 l 0,-57 -659,0 0,82 412,0 c 106,185 94,370 0,556 l -412,0 c 0,27 0,54 0,80 l 412,0 c 94,185 106,370 0,556 l -412,0 0,82 z" transform="translate(104,-4992.0001)" id="path8086" style="fill:#9d9e9e"></path><path d="m 4152,6553 -659,0 0,-57 c -168,-60 -146,-553 0,-602 l 0,-36 c -146,-49 -168,-542 0,-602 l 0,-57 659,0 0,82 -412,0 c -106,185 -94,370 0,556 l 412,0 c 0,27 0,54 0,80 l -412,0 c -94,185 -106,370 0,556 l 412,0 0,82 z" transform="translate(104,-4992.0001)" id="path8088" style="fill:#9d9e9e"></path><path d="m 8592,9307 659,0 0,-57 c 168,-60 146,-553 0,-602 l 0,-36 c 146,-49 168,-542 0,-602 l 0,-57 -659,0 0,82 412,0 c 106,185 94,370 0,556 l -412,0 c 0,27 0,54 0,80 l 412,0 c 94,185 106,370 0,556 l -412,0 0,82 z" transform="translate(104,-4992.0001)" id="path8090" style="fill:#9d9e9e"></path><path d="m 12183,9307 659,0 0,-57 c 168,-60 146,-553 0,-602 l 0,-36 c 146,-49 168,-542 0,-602 l 0,-57 -659,0 0,82 412,0 c 106,185 94,370 0,556 l -412,0 c 0,27 0,54 0,80 l 412,0 c 94,185 106,370 0,556 l -412,0 0,82 z" transform="translate(104,-4992.0001)" id="path8092" style="fill:#9d9e9e"></path><path d="m 6188,9307 659,0 0,-57 c 168,-60 146,-553 0,-602 l 0,-36 c 146,-49 168,-542 0,-602 l 0,-57 -659,0 0,82 412,0 c 106,185 94,370 0,556 l -412,0 c 0,27 0,54 0,80 l 412,0 c 94,185 106,370 0,556 l -412,0 0,82 z" transform="translate(104,-4992.0001)" id="path8094" style="fill:#9d9e9e"></path><path d="m 5438,9307 -659,0 0,-57 c -168,-60 -146,-553 0,-602 l 0,-36 c -146,-49 -168,-542 0,-602 l 0,-57 659,0 0,82 -412,0 c -106,185 -94,370 0,556 l 412,0 c 0,27 0,54 0,80 l -412,0 c -94,185 -106,370 0,556 l 412,0 0,82 z" transform="translate(104,-4992.0001)" id="path8096" style="fill:#9d9e9e"></path><path d="m 9791,9307 659,0 0,-57 c 168,-60 146,-553 0,-602 l 0,-36 c 146,-49 168,-542 0,-602 l 0,-57 -659,0 0,82 412,0 c 106,185 94,370 0,556 l -412,0 c 0,27 0,54 0,80 l 412,0 c 94,185 106,370 0,556 l -412,0 0,82 z" transform="translate(104,-4992.0001)" id="path8098" style="fill:#9d9e9e"></path><path d="m 13383,9307 659,0 0,-57 c 168,-60 146,-553 0,-602 l 0,-36 c 146,-49 168,-542 0,-602 l 0,-57 -659,0 0,82 412,0 c 106,185 94,370 0,556 l -412,0 c 0,27 0,54 0,80 l 412,0 c 94,185 106,370 0,556 l -412,0 0,82 z" transform="translate(104,-4992.0001)" id="path8100" style="fill:#9d9e9e"></path><path d="m 7388,9307 659,0 0,-57 c 168,-60 146,-553 0,-602 l 0,-36 c 146,-49 168,-542 0,-602 l 0,-57 -659,0 0,82 412,0 c 106,185 94,370 0,556 l -412,0 c 0,27 0,54 0,80 l 412,0 c 94,185 106,370 0,556 l -412,0 0,82 z" transform="translate(104,-4992.0001)" id="path8102" style="fill:#9d9e9e"></path><path d="m 10981,9307 659,0 0,-57 c 168,-60 146,-553 0,-602 l 0,-36 c 146,-49 168,-542 0,-602 l 0,-57 -659,0 0,82 412,0 c 106,185 94,370 0,556 l -412,0 c 0,27 0,54 0,80 l 412,0 c 94,185 106,370 0,556 l -412,0 0,82 z" transform="translate(104,-4992.0001)" id="path8104" style="fill:#9d9e9e"></path><path d="m 14573,9307 659,0 0,-57 c 168,-60 146,-553 0,-602 l 0,-36 c 146,-49 168,-542 0,-602 l 0,-57 -659,0 0,82 412,0 c 106,185 94,370 0,556 l -412,0 c 0,27 0,54 0,80 l 412,0 c 94,185 106,370 0,556 l -412,0 0,82 z" transform="translate(104,-4992.0001)" id="path8106" style="fill:#9d9e9e"></path><path d="m 15815,9307 659,0 0,-57 c 168,-60 146,-553 0,-602 l 0,-36 c 146,-49 168,-542 0,-602 l 0,-57 -659,0 0,82 412,0 c 106,185 94,370 0,556 l -412,0 c 0,27 0,54 0,80 l 412,0 c 94,185 106,370 0,556 l -412,0 0,82 z" transform="translate(104,-4992.0001)" id="path8108" style="fill:#9d9e9e"></path><path d="m 19406,9307 659,0 0,-57 c 168,-60 146,-553 0,-602 l 0,-36 c 146,-49 168,-542 0,-602 l 0,-57 -659,0 0,82 412,0 c 106,185 94,370 0,556 l -412,0 c 0,27 0,54 0,80 l 412,0 c 94,185 106,370 0,556 l -412,0 0,82 z" transform="translate(104,-4992.0001)" id="path8110" style="fill:#9d9e9e"></path><path d="m 17015,9307 659,0 0,-57 c 168,-60 146,-553 0,-602 l 0,-36 c 146,-49 168,-542 0,-602 l 0,-57 -659,0 0,82 412,0 c 106,185 94,370 0,556 l -412,0 c 0,27 0,54 0,80 l 412,0 c 94,185 106,370 0,556 l -412,0 0,82 z" transform="translate(104,-4992.0001)" id="path8112" style="fill:#9d9e9e"></path><path d="m 20606,9307 659,0 0,-57 c 168,-60 146,-553 0,-602 l 0,-36 c 146,-49 168,-542 0,-602 l 0,-57 -659,0 0,82 412,0 c 106,185 94,370 0,556 l -412,0 c 0,27 0,54 0,80 l 412,0 c 94,185 106,370 0,556 l -412,0 0,82 z" transform="translate(104,-4992.0001)" id="path8114" style="fill:#9d9e9e"></path><path d="m 18204,9307 659,0 0,-57 c 168,-60 146,-553 0,-602 l 0,-36 c 146,-49 168,-542 0,-602 l 0,-57 -659,0 0,82 412,0 c 106,185 94,370 0,556 l -412,0 c 0,27 0,54 0,80 l 412,0 c 94,185 106,370 0,556 l -412,0 0,82 z" transform="translate(104,-4992.0001)" id="path8116" style="fill:#9d9e9e"></path><path d="m 21796,9307 659,0 0,-57 c 168,-60 146,-553 0,-602 l 0,-36 c 146,-49 168,-542 0,-602 l 0,-57 -659,0 0,82 412,0 c 106,185 94,370 0,556 l -412,0 c 0,27 0,54 0,80 l 412,0 c 94,185 106,370 0,556 l -412,0 0,82 z" transform="translate(104,-4992.0001)" id="path8118" style="fill:#9d9e9e"></path><path d="m 1072,5196 27479,0 c 44,0 79,36 79,79 l 0,3958 c 0,44 -36,79 -79,79 l -27479,0 c -44,0 -79,-36 -79,-79 l 0,-3958 c 0,-44 36,-79 79,-79 z m 0,-204 27479,0 c 156,0 283,128 283,283 l 0,3958 c 0,156 -128,283 -283,283 l -27479,0 c -156,0 -283,-128 -283,-283 l 0,-3958 c 0,-156 128,-283 283,-283 z" transform="translate(104,-4992.0001)" id="path8120" style="fill:#0275d8"></path><path d="m 2951,7929 93,0 0,1382 -93,0 0,-1382 z m 0,-2734 93,0 0,1382 -93,0 0,-1382 z" transform="translate(104,-4992.0001)" id="path8122" style="fill:#0275d8"></path><path d="m 26432,6354 -2118,0 0,-1158 2118,0 z" transform="translate(104,-4992.0001)" id="polygon8124" style="fill:#f2f4f5"></path><path d="m 28835,5713 379,0 0,73 159,0 0,-282 95,0 0,772 -95,0 0,-282 -159,0 0,73 -379,0 0,-353 z m 102,681 53,-30 53,30 53,-30 53,30 53,-30 53,30 53,-30 53,30 0,27 70,0 0,271 -68,0 70,143 295,0 0,878 -295,0 -51,104 49,0 0,271 -70,0 0,26 -53,30 -53,-30 -53,30 -53,-30 -53,30 -28,-16 -50,0 -28,16 -28,-16 -127,0 0,-40 0,-66 0,-49 0,-156 0,-1124 0,-117 0,-40 0,-106 0,-8 102,0 0,-27 z m -102,2015 379,0 0,73 159,0 0,-282 95,0 0,772 -95,0 0,-282 -159,0 0,73 -379,0 0,-353 z" transform="translate(104,-4992.0001)" id="path8126" style="fill:#9d9e9e"></path><path d="m 24222,7929 93,0 0,1382 -93,0 0,-1382 z m 0,-2734 93,0 0,1382 -93,0 0,-1382 z" transform="translate(104,-4992.0001)" id="path8128" style="fill:#0275d8"></path><path d="m 789,5713 -379,0 0,73 -159,0 0,-282 -95,0 0,772 95,0 0,-282 159,0 0,73 379,0 0,-353 z m -102,681 -53,-30 -53,30 -53,-30 -53,30 -53,-30 -53,30 -53,-30 -53,30 0,27 -70,0 0,271 68,0 -70,143 -295,0 0,878 295,0 51,104 -49,0 0,271 70,0 0,26 53,30 53,-30 53,30 53,-30 53,30 28,-16 50,0 28,16 28,-16 127,0 0,-40 0,-66 0,-49 0,-156 0,-1124 0,-117 0,-40 0,-106 0,-8 -102,0 0,-27 z m 102,2015 -379,0 0,73 -159,0 0,-282 -95,0 0,772 95,0 0,-282 159,0 0,73 379,0 0,-353 z" transform="translate(104,-4992.0001)" id="path8130" style="fill:#9d9e9e"></path><path d="m 26432,8206 93,0 0,1105 -93,0 0,-1105 z m 0,-3011 93,0 0,1159 -93,0 0,-1159 z" transform="translate(104,-4992.0001)" id="path8132" style="fill:#0275d8"></path><path d="m 5425,6556 c -144,0 -288,0 -432,0 -106,185 -94,370 0,556 168,0 265,0 432,0 121,-180 131,-364 0,-556 z" transform="translate(104,-4992.0001)" id="s5" style="fill:#dedfe0" number="5" type="seat"></path><path d="m 6647,6556 c -144,0 -288,0 -432,0 -106,185 -94,370 0,556 168,0 265,0 432,0 121,-180 131,-364 0,-556 z" transform="translate(104,-4992.0001)" id="s10" style="fill:#dedfe0" number="10" type="seat"></path><path d="m 7838,6556 c -144,0 -288,0 -432,0 -106,185 -94,370 0,556 168,0 265,0 432,0 121,-180 131,-364 0,-556 z" transform="translate(104,-4992.0001)" id="s15" style="fill:#dedfe0" number="15" type="seat"></path><path d="m 9028,6556 c -144,0 -288,0 -432,0 -106,185 -94,370 0,556 168,0 265,0 432,0 121,-180 131,-364 0,-556 z" transform="translate(104,-4992.0001)" id="s20" style="fill:#dedfe0" number="20" type="seat"></path><path d="m 10202,6556 c -144,0 -288,0 -432,0 -106,185 -94,370 0,556 168,0 265,0 432,0 121,-180 131,-364 0,-556 z" transform="translate(104,-4992.0001)" id="s25" style="fill:#dedfe0" number="25" type="seat"></path><path d="m 11419,6556 c -144,0 -288,0 -432,0 -106,185 -94,370 0,556 168,0 265,0 432,0 121,-180 131,-364 0,-556 z" transform="translate(104,-4992.0001)" id="s30" style="fill:#dedfe0" number="30" type="seat"></path><path d="m 12627,6556 c -144,0 -288,0 -432,0 -106,185 -94,370 0,556 168,0 265,0 432,0 121,-180 131,-364 0,-556 z" transform="translate(104,-4992.0001)" id="s35" style="fill:#dedfe0" number="35" type="seat"></path><path d="m 13835,6556 c -144,0 -288,0 -432,0 -106,185 -94,370 0,556 168,0 265,0 432,0 121,-180 131,-364 0,-556 z" transform="translate(104,-4992.0001)" id="s40" style="fill:#dedfe0" number="40" type="seat"></path><path d="m 15027,6556 c -144,0 -288,0 -432,0 -106,185 -94,370 0,556 168,0 265,0 432,0 121,-180 131,-364 0,-556 z" transform="translate(104,-4992.0001)" id="s45" style="fill:#dedfe0" number="45" type="seat"></path><path d="m 5425,5912 c -144,0 -288,0 -432,0 -106,185 -94,370 0,556 168,0 265,0 432,0 121,-180 131,-364 0,-556 z" transform="translate(104,-4992.0001)" id="s6" style="fill:#dedfe0" number="6" type="seat"></path><path d="m 6647,5912 c -144,0 -288,0 -432,0 -106,185 -94,370 0,556 168,0 265,0 432,0 121,-180 131,-364 0,-556 z" transform="translate(104,-4992.0001)" id="s11" style="fill:#dedfe0" number="11" type="seat"></path><path d="m 7838,5912 c -144,0 -288,0 -432,0 -106,185 -94,370 0,556 168,0 265,0 432,0 121,-180 131,-364 0,-556 z" transform="translate(104,-4992.0001)" id="s16" style="fill:#dedfe0" number="16" type="seat" hover="hoveredSeat"></path><path d="m 9028,5912 c -144,0 -288,0 -432,0 -106,185 -94,370 0,556 168,0 265,0 432,0 121,-180 131,-364 0,-556 z" transform="translate(104,-4992.0001)" id="s21" style="fill:#dedfe0" number="21" type="seat"></path><path d="m 10202,5912 c -144,0 -288,0 -432,0 -106,185 -94,370 0,556 168,0 265,0 432,0 121,-180 131,-364 0,-556 z" transform="translate(104,-4992.0001)" id="s26" style="fill:#dedfe0" number="26" type="seat"></path><path d="m 11419,5912 c -144,0 -288,0 -432,0 -106,185 -94,370 0,556 168,0 265,0 432,0 121,-180 131,-364 0,-556 z" transform="translate(104,-4992.0001)" id="s31" style="fill:#dedfe0" number="31" type="seat"></path><path d="m 12627,5912 c -144,0 -288,0 -432,0 -106,185 -94,370 0,556 168,0 265,0 432,0 121,-180 131,-364 0,-556 z" transform="translate(104,-4992.0001)" id="s36" style="fill:#dedfe0" number="36" type="seat"></path><path d="m 13835,5912 c -144,0 -288,0 -432,0 -106,185 -94,370 0,556 168,0 265,0 432,0 121,-180 131,-364 0,-556 z" transform="translate(104,-4992.0001)" id="s41" style="fill:#dedfe0" number="41" type="seat"></path><path d="m 15027,5912 c -144,0 -288,0 -432,0 -106,185 -94,370 0,556 168,0 265,0 432,0 121,-180 131,-364 0,-556 z" transform="translate(104,-4992.0001)" id="s46" style="fill:#dedfe0" number="46" type="seat"></path><path d="m 5425,5267 c -144,0 -288,0 -432,0 -106,185 -94,370 0,556 168,0 265,0 432,0 121,-180 131,-364 0,-556 z" transform="translate(104,-4992.0001)" id="s7" style="fill:#dedfe0" number="7" type="seat"></path><path d="m 6647,5267 c -144,0 -288,0 -432,0 -106,185 -94,370 0,556 168,0 265,0 432,0 121,-180 131,-364 0,-556 z" transform="translate(104,-4992.0001)" id="s12" style="fill:#dedfe0" number="12" type="seat"></path><path d="m 7838,5267 c -144,0 -288,0 -432,0 -106,185 -94,370 0,556 168,0 265,0 432,0 121,-180 131,-364 0,-556 z" transform="translate(104,-4992.0001)" id="s17" style="fill:#dedfe0" number="17" type="seat"></path><path d="m 9028,5267 c -144,0 -288,0 -432,0 -106,185 -94,370 0,556 168,0 265,0 432,0 121,-180 131,-364 0,-556 z" transform="translate(104,-4992.0001)" id="s22" style="fill:#dedfe0" number="22" type="seat"></path><path d="m 10202,5267 c -144,0 -288,0 -432,0 -106,185 -94,370 0,556 168,0 265,0 432,0 121,-180 131,-364 0,-556 z" transform="translate(104,-4992.0001)" id="s27" style="fill:#dedfe0" number="27" type="seat"></path><path d="m 11419,5267 c -144,0 -288,0 -432,0 -106,185 -94,370 0,556 168,0 265,0 432,0 121,-180 131,-364 0,-556 z" transform="translate(104,-4992.0001)" id="s32" style="fill:#dedfe0" number="32" type="seat"></path><path d="m 12627,5267 c -144,0 -288,0 -432,0 -106,185 -94,370 0,556 168,0 265,0 432,0 121,-180 131,-364 0,-556 z" transform="translate(104,-4992.0001)" id="s37" style="fill:#dedfe0" number="37" type="seat"></path><path d="m 13835,5267 c -144,0 -288,0 -432,0 -106,185 -94,370 0,556 168,0 265,0 432,0 121,-180 131,-364 0,-556 z" transform="translate(104,-4992.0001)" id="s42" style="fill:#dedfe0" number="42" type="seat"></path><path d="m 15027,5267 c -144,0 -288,0 -432,0 -106,185 -94,370 0,556 168,0 265,0 432,0 121,-180 131,-364 0,-556 z" transform="translate(104,-4992.0001)" id="s47" style="fill:#dedfe0" number="47" type="seat"></path><path d="m 4745,6495 0,30 0,7 c -168,60 -146,553 0,602 l 0,35 659,0 0,-57 -412,0 c -94,-185 -106,-370 0,-556 l 412,0 0,-32 0,-30 0,-27 -412,0 c -94,-185 -106,-370 0,-556 l 412,0 0,-32 0,-30 0,-27 -412,0 c -94,-185 -106,-370 0,-556 l 412,0 0,-62 -659,0 0,37 c -168,60 -146,553 0,602 l 0,5 0,30 0,7 c -168,60 -146,553 0,602 l 0,5 z" transform="translate(104,-4992.0001)" id="path8188" style="fill:#9d9e9e"></path><path d="m 5968,6495 0,30 0,7 c -168,60 -146,553 0,602 l 0,35 659,0 0,-57 -412,0 c -94,-185 -106,-370 0,-556 l 412,0 0,-32 0,-30 0,-27 -412,0 c -94,-185 -106,-370 0,-556 l 412,0 0,-32 0,-30 0,-27 -412,0 c -94,-185 -106,-370 0,-556 l 412,0 0,-62 -659,0 0,37 c -168,60 -146,553 0,602 l 0,5 0,30 0,7 c -168,60 -146,553 0,602 l 0,5 z" transform="translate(104,-4992.0001)" id="path8190" style="fill:#9d9e9e"></path><path d="m 7159,6495 0,30 0,7 c -168,60 -146,553 0,602 l 0,35 659,0 0,-57 -412,0 c -94,-185 -106,-370 0,-556 l 412,0 0,-32 0,-30 0,-27 -412,0 c -94,-185 -106,-370 0,-556 l 412,0 0,-32 0,-30 0,-27 -412,0 c -94,-185 -106,-370 0,-556 l 412,0 0,-62 -659,0 0,37 c -168,60 -146,553 0,602 l 0,5 0,30 0,7 c -168,60 -146,553 0,602 l 0,5 z" transform="translate(104,-4992.0001)" id="path8192" style="fill:#9d9e9e"></path><path d="m 8349,6495 0,30 0,7 c -168,60 -146,553 0,602 l 0,35 659,0 0,-57 -412,0 c -94,-185 -106,-370 0,-556 l 412,0 0,-32 0,-30 0,-27 -412,0 c -94,-185 -106,-370 0,-556 l 412,0 0,-32 0,-30 0,-27 -412,0 c -94,-185 -106,-370 0,-556 l 412,0 0,-62 -659,0 0,37 c -168,60 -146,553 0,602 l 0,5 0,30 0,7 c -168,60 -146,553 0,602 l 0,5 z" transform="translate(104,-4992.0001)" id="path8194" style="fill:#9d9e9e"></path><path d="m 9523,6495 0,30 0,7 c -168,60 -146,553 0,602 l 0,35 659,0 0,-57 -412,0 c -94,-185 -106,-370 0,-556 l 412,0 0,-32 0,-30 0,-27 -412,0 c -94,-185 -106,-370 0,-556 l 412,0 0,-32 0,-30 0,-27 -412,0 c -94,-185 -106,-370 0,-556 l 412,0 0,-62 -659,0 0,37 c -168,60 -146,553 0,602 l 0,5 0,30 0,7 c -168,60 -146,553 0,602 l 0,5 z" transform="translate(104,-4992.0001)" id="path8196" style="fill:#9d9e9e"></path><path d="m 10739,6495 0,30 0,7 c -168,60 -146,553 0,602 l 0,35 659,0 0,-57 -412,0 c -94,-185 -106,-370 0,-556 l 412,0 0,-32 0,-30 0,-27 -412,0 c -94,-185 -106,-370 0,-556 l 412,0 0,-32 0,-30 0,-27 -412,0 c -94,-185 -106,-370 0,-556 l 412,0 0,-62 -659,0 0,37 c -168,60 -146,553 0,602 l 0,5 0,30 0,7 c -168,60 -146,553 0,602 l 0,5 z" transform="translate(104,-4992.0001)" id="path8198" style="fill:#9d9e9e"></path><path d="m 11948,6495 0,30 0,7 c -168,60 -146,553 0,602 l 0,35 659,0 0,-57 -412,0 c -94,-185 -106,-370 0,-556 l 412,0 0,-32 0,-30 0,-27 -412,0 c -94,-185 -106,-370 0,-556 l 412,0 0,-32 0,-30 0,-27 -412,0 c -94,-185 -106,-370 0,-556 l 412,0 0,-62 -659,0 0,37 c -168,60 -146,553 0,602 l 0,5 0,30 0,7 c -168,60 -146,553 0,602 l 0,5 z" transform="translate(104,-4992.0001)" id="path8200" style="fill:#9d9e9e"></path><path d="m 13156,6495 0,30 0,7 c -168,60 -146,553 0,602 l 0,35 659,0 0,-57 -412,0 c -94,-185 -106,-370 0,-556 l 412,0 0,-32 0,-30 0,-27 -412,0 c -94,-185 -106,-370 0,-556 l 412,0 0,-32 0,-30 0,-27 -412,0 c -94,-185 -106,-370 0,-556 l 412,0 0,-62 -659,0 0,37 c -168,60 -146,553 0,602 l 0,5 0,30 0,7 c -168,60 -146,553 0,602 l 0,5 z" transform="translate(104,-4992.0001)" id="path8202" style="fill:#9d9e9e"></path><path d="m 14348,6495 0,30 0,7 c -168,60 -146,553 0,602 l 0,35 659,0 0,-57 -412,0 c -94,-185 -106,-370 0,-556 l 412,0 0,-32 0,-30 0,-27 -412,0 c -94,-185 -106,-370 0,-556 l 412,0 0,-32 0,-30 0,-27 -412,0 c -94,-185 -106,-370 0,-556 l 412,0 0,-62 -659,0 0,37 c -168,60 -146,553 0,602 l 0,5 0,30 0,7 c -168,60 -146,553 0,602 l 0,5 z" transform="translate(104,-4992.0001)" id="path8204" style="fill:#9d9e9e"></path><path d="m 4745,6532 c -168,60 -146,553 0,602 50,-3 91,-49 55,-88 -132,-144 -117,-273 0,-412 48,-57 18,-91 -55,-101 z" transform="translate(104,-4992.0001)" id="path8206" style="fill:#dedfe0"></path><path d="m 5968,6532 c -168,60 -146,553 0,602 50,-3 91,-49 55,-88 -132,-144 -117,-273 0,-412 48,-57 18,-91 -55,-101 z" transform="translate(104,-4992.0001)" id="path8208" style="fill:#dedfe0"></path><path d="m 7159,6532 c -168,60 -146,553 0,602 50,-3 91,-49 55,-88 -132,-144 -117,-273 0,-412 48,-57 18,-91 -55,-101 z" transform="translate(104,-4992.0001)" id="path8210" style="fill:#dedfe0"></path><path d="m 8349,6532 c -168,60 -146,553 0,602 50,-3 91,-49 55,-88 -132,-144 -117,-273 0,-412 48,-57 18,-91 -55,-101 z" transform="translate(104,-4992.0001)" id="path8212" style="fill:#dedfe0"></path><path d="m 9523,6532 c -168,60 -146,553 0,602 50,-3 91,-49 55,-88 -132,-144 -117,-273 0,-412 48,-57 18,-91 -55,-101 z" transform="translate(104,-4992.0001)" id="path8214" style="fill:#dedfe0"></path><path d="m 10739,6532 c -168,60 -146,553 0,602 50,-3 91,-49 55,-88 -132,-144 -117,-273 0,-412 48,-57 18,-91 -55,-101 z" transform="translate(104,-4992.0001)" id="path8216" style="fill:#dedfe0"></path><path d="m 11948,6532 c -168,60 -146,553 0,602 50,-3 91,-49 55,-88 -132,-144 -117,-273 0,-412 48,-57 18,-91 -55,-101 z" transform="translate(104,-4992.0001)" id="path8218" style="fill:#dedfe0"></path><path d="m 13156,6532 c -168,60 -146,553 0,602 50,-3 91,-49 55,-88 -132,-144 -117,-273 0,-412 48,-57 18,-91 -55,-101 z" transform="translate(104,-4992.0001)" id="path8220" style="fill:#dedfe0"></path><path d="m 14348,6532 c -168,60 -146,553 0,602 50,-3 91,-49 55,-88 -132,-144 -117,-273 0,-412 48,-57 18,-91 -55,-101 z" transform="translate(104,-4992.0001)" id="path8222" style="fill:#dedfe0"></path><path d="m 4745,5887 c -168,60 -146,553 0,602 50,-3 91,-49 55,-88 -132,-144 -117,-273 0,-412 48,-57 18,-91 -55,-101 z" transform="translate(104,-4992.0001)" id="path8224" style="fill:#dedfe0"></path><path d="m 5968,5887 c -168,60 -146,553 0,602 50,-3 91,-49 55,-88 -132,-144 -117,-273 0,-412 48,-57 18,-91 -55,-101 z" transform="translate(104,-4992.0001)" id="path8226" style="fill:#dedfe0"></path><path d="m 7159,5887 c -168,60 -146,553 0,602 50,-3 91,-49 55,-88 -132,-144 -117,-273 0,-412 48,-57 18,-91 -55,-101 z" transform="translate(104,-4992.0001)" id="path8228" style="fill:#dedfe0"></path><path d="m 8349,5887 c -168,60 -146,553 0,602 50,-3 91,-49 55,-88 -132,-144 -117,-273 0,-412 48,-57 18,-91 -55,-101 z" transform="translate(104,-4992.0001)" id="path8230" style="fill:#dedfe0"></path><path d="m 9523,5887 c -168,60 -146,553 0,602 50,-3 91,-49 55,-88 -132,-144 -117,-273 0,-412 48,-57 18,-91 -55,-101 z" transform="translate(104,-4992.0001)" id="path8232" style="fill:#dedfe0"></path><path d="m 10739,5887 c -168,60 -146,553 0,602 50,-3 91,-49 55,-88 -132,-144 -117,-273 0,-412 48,-57 18,-91 -55,-101 z" transform="translate(104,-4992.0001)" id="path8234" style="fill:#dedfe0"></path><path d="m 11948,5887 c -168,60 -146,553 0,602 50,-3 91,-49 55,-88 -132,-144 -117,-273 0,-412 48,-57 18,-91 -55,-101 z" transform="translate(104,-4992.0001)" id="path8236" style="fill:#dedfe0"></path><path d="m 13156,5887 c -168,60 -146,553 0,602 50,-3 91,-49 55,-88 -132,-144 -117,-273 0,-412 48,-57 18,-91 -55,-101 z" transform="translate(104,-4992.0001)" id="path8238" style="fill:#dedfe0"></path><path d="m 14348,5887 c -168,60 -146,553 0,602 50,-3 91,-49 55,-88 -132,-144 -117,-273 0,-412 48,-57 18,-91 -55,-101 z" transform="translate(104,-4992.0001)" id="path8240" style="fill:#dedfe0"></path><path d="m 4745,5243 c -168,60 -146,553 0,602 50,-3 91,-49 55,-88 -132,-144 -117,-273 0,-412 48,-57 18,-91 -55,-101 z" transform="translate(104,-4992.0001)" id="path8242" style="fill:#dedfe0"></path><path d="m 5968,5243 c -168,60 -146,553 0,602 50,-3 91,-49 55,-88 -132,-144 -117,-273 0,-412 48,-57 18,-91 -55,-101 z" transform="translate(104,-4992.0001)" id="path8244" style="fill:#dedfe0"></path><path d="m 7159,5243 c -168,60 -146,553 0,602 50,-3 91,-49 55,-88 -132,-144 -117,-273 0,-412 48,-57 18,-91 -55,-101 z" transform="translate(104,-4992.0001)" id="path8246" style="fill:#dedfe0"></path><path d="m 8349,5243 c -168,60 -146,553 0,602 50,-3 91,-49 55,-88 -132,-144 -117,-273 0,-412 48,-57 18,-91 -55,-101 z" transform="translate(104,-4992.0001)" id="path8248" style="fill:#dedfe0"></path><path d="m 9523,5243 c -168,60 -146,553 0,602 50,-3 91,-49 55,-88 -132,-144 -117,-273 0,-412 48,-57 18,-91 -55,-101 z" transform="translate(104,-4992.0001)" id="path8250" style="fill:#dedfe0"></path><path d="m 10739,5243 c -168,60 -146,553 0,602 50,-3 91,-49 55,-88 -132,-144 -117,-273 0,-412 48,-57 18,-91 -55,-101 z" transform="translate(104,-4992.0001)" id="path8252" style="fill:#dedfe0"></path><path d="m 11948,5243 c -168,60 -146,553 0,602 50,-3 91,-49 55,-88 -132,-144 -117,-273 0,-412 48,-57 18,-91 -55,-101 z" transform="translate(104,-4992.0001)" id="path8254" style="fill:#dedfe0"></path><path d="m 13156,5243 c -168,60 -146,553 0,602 50,-3 91,-49 55,-88 -132,-144 -117,-273 0,-412 48,-57 18,-91 -55,-101 z" transform="translate(104,-4992.0001)" id="path8256" style="fill:#dedfe0"></path><path d="m 14348,5243 c -168,60 -146,553 0,602 50,-3 91,-49 55,-88 -132,-144 -117,-273 0,-412 48,-57 18,-91 -55,-101 z" transform="translate(104,-4992.0001)" id="path8258" style="fill:#dedfe0"></path><path d="m 5316,6674 -177,0 -21,168 c 13,-2 25,-3 43,-3 64,0 90,20 90,53 0,34 -33,49 -64,49 -29,0 -58,-9 -72,-16 l -14,56 c 18,9 50,18 89,18 86,0 138,-53 138,-113 0,-38 -15,-64 -39,-81 -22,-16 -54,-23 -84,-23 -8,0 -14,0 -21,1 l 7,-49 124,0 0,-62 z" transform="translate(104,-4992.0001)" id="n5" style="fill:#fefefe;fill-rule:nonzero" number="5" type="number"></path><path d="m 5307,6025 c -7,0 -16,-1 -30,1 -50,2 -92,18 -123,47 -35,33 -57,83 -57,143 0,77 42,140 128,140 69,0 118,-52 118,-116 0,-67 -45,-105 -99,-105 -30,0 -52,9 -68,25 l -1,0 c 8,-37 38,-71 105,-77 12,-1 21,-1 29,-1 l 0,-58 z m -84,276 c -35,0 -51,-31 -52,-65 0,-9 1,-15 3,-19 7,-16 24,-28 44,-28 32,0 48,26 48,55 0,33 -17,57 -43,57 z" transform="translate(104,-4992.0001)" id="n6" style="fill:#fefefe;fill-rule:nonzero" number="6" type="number"></path><path d="m 5254,5446 0,1 -133,259 80,0 132,-274 0,-48 -226,0 0,62 z" transform="translate(104,-4992.0001)" id="n7" style="fill:#fefefe;fill-rule:nonzero" number="7" type="number"></path><path d="m 6275,6997 73,0 0,-321 -62,0 -85,40 12,56 61,-29 1,0 0,254 z m 296,-326 c -83,0 -122,73 -122,166 0,91 37,165 120,165 81,0 122,-69 122,-167 0,-88 -34,-164 -120,-164 z m -1,57 c 30,0 45,38 45,109 0,73 -16,110 -45,110 -29,0 -46,-35 -46,-109 0,-75 19,-110 46,-110 z" transform="translate(104,-4992.0001)" id="n10" style="fill:#fefefe;fill-rule:nonzero" number="10" type="number"></path><path d="m 6277,6350 73,0 0,-321 -62,0 -85,40 12,56 61,-29 1,0 0,254 z m 274,0 73,0 0,-321 -62,0 -85,40 12,56 61,-29 1,0 0,254 z" transform="translate(104,-4992.0001)" id="n11" style="fill:#fefefe;fill-rule:nonzero" number="11" type="number"></path><path d="m 6268,5706 73,0 0,-321 -62,0 -85,40 12,56 61,-29 1,0 0,254 z m 406,0 0,-62 -121,0 0,-1 30,-25 c 47,-41 85,-84 85,-139 0,-58 -40,-100 -113,-100 -43,0 -81,15 -105,33 l 21,53 c 17,-12 41,-26 69,-26 37,0 52,21 52,47 -1,38 -35,74 -105,137 l -41,37 0,45 228,0 z" transform="translate(104,-4992.0001)" id="n12" style="fill:#fefefe;fill-rule:nonzero" number="12" type="number"></path><path d="m 7465,6997 73,0 0,-321 -62,0 -85,40 12,56 61,-29 1,0 0,254 z m 393,-321 -177,0 -21,168 c 13,-2 25,-3 43,-3 64,0 90,20 90,53 0,34 -33,49 -64,49 -29,0 -58,-9 -72,-16 l -14,56 c 18,9 50,18 89,18 86,0 138,-53 138,-113 0,-38 -15,-64 -39,-81 -22,-16 -54,-23 -84,-23 -8,0 -14,0 -21,1 l 7,-49 124,0 0,-62 z" transform="translate(104,-4992.0001)" id="n15" style="fill:#fefefe;fill-rule:nonzero" number="15" type="number"></path><path d="m 7461,6350 73,0 0,-321 -62,0 -85,40 12,56 61,-29 1,0 0,254 z m 383,-325 c -7,0 -16,-1 -30,1 -50,2 -92,18 -123,47 -35,33 -57,83 -57,143 0,77 42,140 128,140 69,0 118,-52 118,-116 0,-67 -45,-105 -99,-105 -30,0 -52,9 -68,25 l -1,0 c 8,-37 38,-71 105,-77 12,-1 21,-1 29,-1 l 0,-58 z m -84,276 c -35,0 -51,-31 -52,-65 0,-9 1,-15 3,-19 7,-16 24,-28 44,-28 32,0 48,26 48,55 0,33 -17,57 -43,57 z" transform="translate(104,-4992.0001)" id="n16" style="fill:#fefefe;fill-rule:nonzero" number="16" type="number" hover="hoveredNumber"></path><path d="m 7462,5706 73,0 0,-321 -62,0 -85,40 12,56 61,-29 1,0 0,254 z m 182,-321 0,62 147,0 0,1 -132,258 80,0 132,-274 0,-47 -227,0 z" transform="translate(104,-4992.0001)" id="n17" style="fill:#fefefe;fill-rule:nonzero" number="17" type="number"></path><path d="m 8799,6997 0,-62 -122,0 0,-1 30,-25 c 47,-41 85,-84 85,-139 0,-58 -40,-100 -113,-100 -43,0 -81,15 -105,33 l 21,53 c 17,-12 41,-26 69,-26 37,0 52,21 52,47 -1,38 -35,74 -105,137 l -41,37 0,45 228,0 z m 163,-326 c -83,0 -122,73 -122,166 0,91 37,165 120,165 81,0 122,-69 122,-167 0,-88 -34,-164 -120,-164 z m -1,57 c 30,0 45,38 45,109 0,73 -16,110 -45,110 -29,0 -46,-35 -46,-109 0,-75 19,-110 46,-110 z" transform="translate(104,-4992.0001)" id="n20" style="fill:#fefefe;fill-rule:nonzero" number="20" type="number"></path><path d="m 8801,6350 0,-62 -122,0 0,-1 30,-25 c 47,-41 85,-84 85,-139 0,-58 -40,-100 -113,-100 -43,0 -81,15 -105,33 l 21,53 c 17,-12 41,-26 69,-26 37,0 52,21 52,47 -1,38 -35,74 -105,137 l -41,37 0,45 228,0 z m 142,0 73,0 0,-321 -62,0 -85,40 12,56 61,-29 1,0 0,254 z" transform="translate(104,-4992.0001)" id="n21" style="fill:#fefefe;fill-rule:nonzero" number="21" type="number"></path><path d="m 8792,5706 0,-62 -122,0 0,-1 30,-25 c 47,-41 85,-84 85,-139 0,-58 -40,-100 -113,-100 -43,0 -81,15 -105,33 l 21,53 c 17,-12 41,-26 69,-26 37,0 52,21 52,47 -1,38 -35,74 -105,137 l -41,37 0,45 228,0 z m 274,0 0,-62 -122,0 0,-1 30,-25 c 47,-41 85,-84 85,-139 0,-58 -40,-100 -113,-100 -43,0 -81,15 -105,33 l 21,53 c 17,-12 41,-26 69,-26 37,0 52,21 52,47 -1,38 -35,74 -105,137 l -41,37 0,45 228,0 z" transform="translate(104,-4992.0001)" id="n22" style="fill:#fefefe;fill-rule:nonzero" number="22" type="number"></path><path d="m 9972,6997 0,-62 -122,0 0,-1 30,-25 c 47,-41 85,-84 85,-139 0,-58 -40,-100 -113,-100 -43,0 -81,15 -105,33 l 21,53 c 17,-12 41,-26 69,-26 37,0 52,21 52,47 -1,38 -35,74 -105,137 l -41,37 0,45 228,0 z m 260,-321 -177,0 -21,168 c 13,-2 25,-3 43,-3 64,0 90,20 90,53 0,34 -33,49 -64,49 -29,0 -58,-9 -72,-16 l -14,56 c 18,9 50,18 89,18 86,0 138,-53 138,-113 0,-38 -15,-64 -39,-81 -22,-16 -54,-23 -84,-23 -8,0 -14,0 -21,1 l 7,-49 124,0 0,-62 z" transform="translate(104,-4992.0001)" id="n25" style="fill:#fefefe;fill-rule:nonzero" number="25" type="number"></path><path d="m 9968,6350 0,-62 -122,0 0,-1 30,-25 c 47,-41 85,-84 85,-139 0,-58 -40,-100 -113,-100 -43,0 -81,15 -105,33 l 21,53 c 17,-12 41,-26 69,-26 37,0 52,21 52,47 -1,38 -35,74 -105,137 l -41,37 0,45 228,0 z m 251,-325 c -7,0 -16,-1 -30,1 -50,2 -92,18 -123,47 -35,33 -57,83 -57,143 0,77 42,140 128,140 69,0 118,-52 118,-116 0,-67 -45,-105 -99,-105 -30,0 -52,9 -68,25 l -1,0 c 8,-37 38,-71 105,-77 12,-1 21,-1 29,-1 l 0,-58 z m -84,276 c -35,0 -51,-31 -52,-65 0,-9 1,-15 3,-19 7,-16 24,-28 44,-28 32,0 48,26 48,55 0,33 -17,57 -43,57 z" transform="translate(104,-4992.0001)" id="n26" style="fill:#fefefe;fill-rule:nonzero" number="26" type="number"></path><path d="m 9969,5706 0,-62 -122,0 0,-1 30,-25 c 47,-41 85,-84 85,-139 0,-58 -40,-100 -113,-100 -43,0 -81,15 -105,33 l 21,53 c 17,-12 41,-26 69,-26 37,0 52,21 52,47 -1,38 -35,74 -105,137 l -41,37 0,45 228,0 z m 49,-321 0,62 147,0 0,1 -132,258 80,0 132,-274 0,-47 -227,0 z" transform="translate(104,-4992.0001)" id="n27" style="fill:#fefefe;fill-rule:nonzero" number="27" type="number"></path><path d="m 10960,6980 c 19,11 54,22 95,22 81,0 131,-41 131,-98 0,-42 -31,-72 -70,-79 l 0,-1 c 40,-13 59,-41 59,-75 0,-44 -38,-80 -106,-80 -42,0 -80,12 -99,24 l 15,54 c 13,-8 41,-19 67,-19 32,0 47,14 47,34 0,27 -32,37 -57,37 l -30,0 0,54 31,0 c 33,0 65,14 65,46 0,24 -20,42 -59,42 -31,0 -61,-12 -75,-20 l -15,57 z m 394,-310 c -83,0 -122,73 -122,166 0,91 37,165 120,165 81,0 122,-69 122,-167 0,-88 -34,-164 -120,-164 z m -1,57 c 30,0 45,38 45,109 0,73 -16,110 -45,110 -29,0 -46,-35 -46,-109 0,-75 19,-110 46,-110 z" transform="translate(104,-4992.0001)" id="n30" style="fill:#fefefe;fill-rule:nonzero" number="30" type="number"></path><path d="m 10962,6333 c 19,11 54,22 95,22 81,0 131,-41 131,-98 0,-42 -31,-72 -70,-79 l 0,-1 c 40,-13 59,-41 59,-75 0,-44 -38,-80 -106,-80 -42,0 -80,12 -99,24 l 15,54 c 13,-8 41,-19 67,-19 32,0 47,14 47,34 0,27 -32,37 -57,37 l -30,0 0,54 31,0 c 33,0 65,14 65,46 0,24 -20,42 -59,42 -31,0 -61,-12 -75,-20 l -15,57 z m 372,17 73,0 0,-321 -62,0 -85,40 12,56 61,-29 1,0 0,254 z" transform="translate(104,-4992.0001)" id="n31" style="fill:#fefefe;fill-rule:nonzero" number="31" type="number"></path><path d="m 10953,5689 c 19,11 54,22 95,22 81,0 131,-41 131,-98 0,-42 -31,-72 -70,-79 l 0,-1 c 40,-13 59,-41 59,-75 0,-44 -38,-80 -106,-80 -42,0 -80,12 -99,24 l 15,54 c 13,-8 41,-19 67,-19 32,0 47,14 47,34 0,27 -32,37 -57,37 l -30,0 0,54 31,0 c 33,0 65,14 65,46 0,24 -20,42 -59,42 -31,0 -61,-12 -75,-20 l -15,57 z m 504,17 0,-62 -122,0 0,-1 30,-25 c 47,-41 85,-84 85,-139 0,-58 -40,-100 -113,-100 -43,0 -81,15 -105,33 l 21,53 c 17,-12 41,-26 69,-26 37,0 52,21 52,47 -1,38 -35,74 -105,137 l -41,37 0,45 228,0 z" transform="translate(104,-4992.0001)" id="n32" style="fill:#fefefe;fill-rule:nonzero" number="32" type="number"></path><path d="m 12167,6980 c 19,11 54,22 95,22 81,0 131,-41 131,-98 0,-42 -31,-72 -70,-79 l 0,-1 c 40,-13 59,-41 59,-75 0,-44 -38,-80 -106,-80 -42,0 -80,12 -99,24 l 15,54 c 13,-8 41,-19 67,-19 32,0 47,14 47,34 0,27 -32,37 -57,37 l -30,0 0,54 31,0 c 33,0 65,14 65,46 0,24 -20,42 -59,42 -31,0 -61,-12 -75,-20 l -15,57 z m 490,-304 -177,0 -21,168 c 13,-2 25,-3 43,-3 64,0 90,20 90,53 0,34 -33,49 -64,49 -29,0 -58,-9 -72,-16 l -14,56 c 18,9 50,18 89,18 86,0 138,-53 138,-113 0,-38 -15,-64 -39,-81 -22,-16 -54,-23 -84,-23 -8,0 -14,0 -21,1 l 7,-49 124,0 0,-62 z" transform="translate(104,-4992.0001)" id="n35" style="fill:#fefefe;fill-rule:nonzero" number="35" type="number"></path><path d="m 12164,6333 c 19,11 54,22 95,22 81,0 131,-41 131,-98 0,-42 -31,-72 -70,-79 l 0,-1 c 40,-13 59,-41 59,-75 0,-44 -38,-80 -106,-80 -42,0 -80,12 -99,24 l 15,54 c 13,-8 41,-19 67,-19 32,0 47,14 47,34 0,27 -32,37 -57,37 l -30,0 0,54 31,0 c 33,0 65,14 65,46 0,24 -20,42 -59,42 -31,0 -61,-12 -75,-20 l -15,57 z m 481,-309 c -7,0 -16,-1 -30,1 -50,2 -92,18 -123,47 -35,33 -57,83 -57,143 0,77 42,140 128,140 69,0 118,-52 118,-116 0,-67 -45,-105 -99,-105 -30,0 -52,9 -68,25 l -1,0 c 8,-37 38,-71 105,-77 12,-1 21,-1 29,-1 l 0,-58 z m -84,276 c -35,0 -51,-31 -52,-65 0,-9 1,-15 3,-19 7,-16 24,-28 44,-28 32,0 48,26 48,55 0,33 -17,57 -43,57 z" transform="translate(104,-4992.0001)" id="n36" style="fill:#fefefe;fill-rule:nonzero" number="36" type="number"></path><path d="m 12164,5689 c 19,11 54,22 95,22 81,0 131,-41 131,-98 0,-42 -31,-72 -70,-79 l 0,-1 c 40,-13 59,-41 59,-75 0,-44 -38,-80 -106,-80 -42,0 -80,12 -99,24 l 15,54 c 13,-8 41,-19 67,-19 32,0 47,14 47,34 0,27 -32,37 -57,37 l -30,0 0,54 31,0 c 33,0 65,14 65,46 0,24 -20,42 -59,42 -31,0 -61,-12 -75,-20 l -15,57 z m 280,-304 0,62 147,0 0,1 -132,258 80,0 132,-274 0,-47 -227,0 z" transform="translate(104,-4992.0001)" id="n37" style="fill:#fefefe;fill-rule:nonzero" number="37" type="number"></path><path d="m 13582,6997 0,-77 38,0 0,-56 -38,0 0,-188 -92,0 -121,196 0,49 142,0 0,77 71,0 z m -144,-133 0,-1 42,-70 c 11,-20 20,-39 30,-60 l 1,0 c -1,21 -2,41 -2,60 l 0,71 -73,0 z m 331,-194 c -83,0 -122,73 -122,166 0,91 37,165 120,165 81,0 122,-69 122,-167 0,-88 -34,-164 -120,-164 z m -1,57 c 30,0 45,38 45,109 0,73 -16,110 -45,110 -29,0 -46,-35 -46,-109 0,-75 19,-110 46,-110 z" transform="translate(104,-4992.0001)" id="n40" style="fill:#fefefe;fill-rule:nonzero" number="40" type="number"></path><path d="m 13616,6350 0,-77 38,0 0,-56 -38,0 0,-188 -92,0 -121,196 0,49 142,0 0,77 71,0 z m -144,-133 0,-1 42,-70 c 11,-20 20,-39 30,-60 l 1,0 c -1,21 -2,41 -2,60 l 0,71 -73,0 z m 310,133 73,0 0,-321 -62,0 -85,40 12,56 61,-29 1,0 0,254 z" transform="translate(104,-4992.0001)" id="n41" style="fill:#fefefe;fill-rule:nonzero" number="41" type="number"></path><path d="m 13586,5706 0,-77 38,0 0,-56 -38,0 0,-188 -92,0 -121,196 0,49 142,0 0,77 71,0 z m -144,-133 0,-1 42,-70 c 11,-20 20,-39 30,-60 l 1,0 c -1,21 -2,41 -2,60 l 0,71 -73,0 z m 442,133 0,-62 -122,0 0,-1 30,-25 c 47,-41 85,-84 85,-139 0,-58 -40,-100 -113,-100 -43,0 -81,15 -105,33 l 21,53 c 17,-12 41,-26 69,-26 37,0 52,21 52,47 -1,38 -35,74 -105,137 l -41,37 0,45 228,0 z" transform="translate(104,-4992.0001)" id="n42" style="fill:#fefefe;fill-rule:nonzero" number="42" type="number"></path><path d="m 14777,6997 0,-77 38,0 0,-56 -38,0 0,-188 -92,0 -121,196 0,49 142,0 0,77 71,0 z m -144,-133 0,-1 42,-70 c 11,-20 20,-39 30,-60 l 1,0 c -1,21 -2,41 -2,60 l 0,71 -73,0 z m 428,-188 -177,0 -21,168 c 13,-2 25,-3 43,-3 64,0 90,20 90,53 0,34 -33,49 -64,49 -29,0 -58,-9 -72,-16 l -14,56 c 18,9 50,18 89,18 86,0 138,-53 138,-113 0,-38 -15,-64 -39,-81 -22,-16 -54,-23 -84,-23 -8,0 -14,0 -21,1 l 7,-49 124,0 0,-62 z" transform="translate(104,-4992.0001)" id="n45" style="fill:#fefefe;fill-rule:nonzero" number="45" type="number"></path><path d="m 14773,6350 0,-77 38,0 0,-56 -38,0 0,-188 -92,0 -121,196 0,49 142,0 0,77 71,0 z m -144,-133 0,-1 42,-70 c 11,-20 20,-39 30,-60 l 1,0 c -1,21 -2,41 -2,60 l 0,71 -73,0 z m 419,-193 c -7,0 -16,-1 -30,1 -50,2 -92,18 -123,47 -35,33 -57,83 -57,143 0,77 42,140 128,140 69,0 118,-52 118,-116 0,-67 -45,-105 -99,-105 -30,0 -52,9 -68,25 l -1,0 c 8,-37 38,-71 105,-77 12,-1 21,-1 29,-1 l 0,-58 z m -84,276 c -35,0 -51,-31 -52,-65 0,-9 1,-15 3,-19 7,-16 24,-28 44,-28 32,0 48,26 48,55 0,33 -17,57 -43,57 z" transform="translate(104,-4992.0001)" id="n46" style="fill:#fefefe;fill-rule:nonzero" number="46" type="number"></path><path d="m 14774,5706 0,-77 38,0 0,-56 -38,0 0,-188 -92,0 -121,196 0,49 142,0 0,77 71,0 z m -144,-133 0,-1 42,-70 c 11,-20 20,-39 30,-60 l 1,0 c -1,21 -2,41 -2,60 l 0,71 -73,0 z m 217,-188 0,62 147,0 0,1 -132,258 80,0 132,-274 0,-47 -227,0 z" transform="translate(104,-4992.0001)" id="n47" style="fill:#fefefe;fill-rule:nonzero" number="47" type="number"></path><path d="m 4172,5280 c -144,0 -288,0 -432,0 -106,185 -94,370 0,556 168,0 265,0 432,0 121,-180 131,-364 0,-556 z" transform="translate(104,-4992.0001)" id="s2" style="fill:#dedfe0" number="2" type="seat"></path><path d="m 3493,5256 c -168,60 -146,553 0,602 50,-3 91,-49 55,-88 -132,-144 -117,-273 0,-412 48,-57 18,-91 -55,-101 z" transform="translate(104,-4992.0001)" id="path8316" style="fill:#dedfe0"></path><path d="m 4172,6472 c -144,0 -288,0 -432,0 -106,-185 -94,-370 0,-556 168,0 265,0 432,0 121,180 131,364 0,556 z" transform="translate(104,-4992.0001)" id="s1" style="fill:#dedfe0"></path><path d="m 3493,6496 c -168,-60 -146,-553 0,-602 50,3 91,49 55,88 -132,144 -117,273 0,412 48,57 18,91 -55,101 z" transform="translate(104,-4992.0001)" id="path8320" style="fill:#dedfe0"></path><path d="m 4039,6033 -62,0 -85,40 12,56 62,-29 1,0 0,254 72,0 z" transform="translate(104,-4992.0001)" id="n1" style="fill:#fefefe;fill-rule:nonzero"></path><path d="m 4079,5716 0,-62 -122,0 0,-1 30,-25 c 47,-41 85,-84 85,-139 0,-58 -40,-100 -113,-100 -43,0 -81,15 -105,33 l 21,53 c 17,-12 41,-26 69,-26 37,0 52,21 52,47 -1,38 -35,74 -105,137 l -41,37 0,45 228,0 z" transform="translate(104,-4992.0001)" id="n2" style="fill:#fefefe;fill-rule:nonzero" number="2" type="number"></path><path d="m 4393,9312 -1349,0 0,-1192 1349,0 z" transform="translate(104,-4992.0001)" id="polygon8326" style="fill:#f2f4f5"></path><path d="m 26439,9312 -2125,0 0,-1106 2125,0 z" transform="translate(104,-4992.0001)" id="polygon8328" style="fill:#f2f4f5"></path><path d="m 26295,8465 0,628 -311,0 0,-628 311,0 z m -390,0 0,628 -361,0 c -165,0 -300,-135 -300,-300 l 0,-28 c 0,-165 135,-300 300,-300 l 361,0 z m -154,154 -207,0 c -80,0 -146,66 -146,146 l 0,28 c 0,80 66,146 146,146 l 207,0 0,-320 z" transform="translate(104,-4992.0001)" id="path8330" style="fill:#c2c7cc"></path><path d="m 8572,8034 c 144,0 288,0 432,0 106,185 94,370 0,556 -168,0 -265,0 -432,0 -121,-180 -131,-364 0,-556 z" transform="translate(104,-4992.0001)" id="s19" style="fill:#dedfe0"></path><path d="m 12163,8034 c 144,0 288,0 432,0 106,185 94,370 0,556 -168,0 -265,0 -432,0 -121,-180 -131,-364 0,-556 z" transform="translate(104,-4992.0001)" id="s34" style="fill:#dedfe0" number="34" type="seat"></path><path d="m 6168,8034 c 144,0 288,0 432,0 106,185 94,370 0,556 -168,0 -265,0 -432,0 -121,-180 -131,-364 0,-556 z" transform="translate(104,-4992.0001)" id="s9" style="fill:#dedfe0" number="9" type="seat"></path><path d="m 5458,8034 c -144,0 -288,0 -432,0 -106,185 -94,370 0,556 168,0 265,0 432,0 121,-180 131,-364 0,-556 z" transform="translate(104,-4992.0001)" id="s4" style="fill:#dedfe0" number="4" type="seat"></path><path d="m 9772,8034 c 144,0 288,0 432,0 106,185 94,370 0,556 -168,0 -265,0 -432,0 -121,-180 -131,-364 0,-556 z" transform="translate(104,-4992.0001)" id="s24" style="fill:#dedfe0" number="24" type="seat"></path><path d="m 13363,8034 c 144,0 288,0 432,0 106,185 94,370 0,556 -168,0 -265,0 -432,0 -121,-180 -131,-364 0,-556 z" transform="translate(104,-4992.0001)" id="s39" style="fill:#dedfe0" number="39" type="seat"></path><path d="m 7368,8034 c 144,0 288,0 432,0 106,185 94,370 0,556 -168,0 -265,0 -432,0 -121,-180 -131,-364 0,-556 z" transform="translate(104,-4992.0001)" id="s14" style="fill:#dedfe0" number="14" type="seat"></path><path d="m 10961,8034 c 144,0 288,0 432,0 106,185 94,370 0,556 -168,0 -265,0 -432,0 -121,-180 -131,-364 0,-556 z" transform="translate(104,-4992.0001)" id="s29" style="fill:#dedfe0" number="29" type="seat"></path><path d="m 14553,8034 c 144,0 288,0 432,0 106,185 94,370 0,556 -168,0 -265,0 -432,0 -121,-180 -131,-364 0,-556 z" transform="translate(104,-4992.0001)" id="s44" style="fill:#dedfe0" number="44" type="seat"></path><path d="m 9251,8010 c 168,60 146,553 0,602 -50,-3 -91,-49 -55,-88 132,-144 117,-273 0,-412 -48,-57 -18,-91 55,-101 z" transform="translate(104,-4992.0001)" id="path8350" style="fill:#dedfe0"></path><path d="m 12843,8010 c 168,60 146,553 0,602 -50,-3 -91,-49 -55,-88 132,-144 117,-273 0,-412 -48,-57 -18,-91 55,-101 z" transform="translate(104,-4992.0001)" id="path8352" style="fill:#dedfe0"></path><path d="m 6847,8010 c 168,60 146,553 0,602 -50,-3 -91,-49 -55,-88 132,-144 117,-273 0,-412 -48,-57 -18,-91 55,-101 z" transform="translate(104,-4992.0001)" id="path8354" style="fill:#dedfe0"></path><path d="m 4779,8010 c -168,60 -146,553 0,602 50,-3 91,-49 55,-88 -132,-144 -117,-273 0,-412 48,-57 18,-91 -55,-101 z" transform="translate(104,-4992.0001)" id="path8356" style="fill:#dedfe0"></path><path d="m 10451,8010 c 168,60 146,553 0,602 -50,-3 -91,-49 -55,-88 132,-144 117,-273 0,-412 -48,-57 -18,-91 55,-101 z" transform="translate(104,-4992.0001)" id="path8358" style="fill:#dedfe0"></path><path d="m 14042,8010 c 168,60 146,553 0,602 -50,-3 -91,-49 -55,-88 132,-144 117,-273 0,-412 -48,-57 -18,-91 55,-101 z" transform="translate(104,-4992.0001)" id="path8360" style="fill:#dedfe0"></path><path d="m 8047,8010 c 168,60 146,553 0,602 -50,-3 -91,-49 -55,-88 132,-144 117,-273 0,-412 -48,-57 -18,-91 55,-101 z" transform="translate(104,-4992.0001)" id="path8362" style="fill:#dedfe0"></path><path d="m 11640,8010 c 168,60 146,553 0,602 -50,-3 -91,-49 -55,-88 132,-144 117,-273 0,-412 -48,-57 -18,-91 55,-101 z" transform="translate(104,-4992.0001)" id="path8364" style="fill:#dedfe0"></path><path d="m 15232,8010 c 168,60 146,553 0,602 -50,-3 -91,-49 -55,-88 132,-144 117,-273 0,-412 -48,-57 -18,-91 55,-101 z" transform="translate(104,-4992.0001)" id="path8366" style="fill:#dedfe0"></path><path d="m 8572,9226 c 144,0 288,0 432,0 106,-185 94,-370 0,-556 -168,0 -265,0 -432,0 -121,180 -131,364 0,556 z" transform="translate(104,-4992.0001)" id="s18" style="fill:#dedfe0"></path><path d="m 12163,9226 c 144,0 288,0 432,0 106,-185 94,-370 0,-556 -168,0 -265,0 -432,0 -121,180 -131,364 0,556 z" transform="translate(104,-4992.0001)" id="s33" style="fill:#dedfe0" number="33" type="seat"></path><path d="m 6168,9226 c 144,0 288,0 432,0 106,-185 94,-370 0,-556 -168,0 -265,0 -432,0 -121,180 -131,364 0,556 z" transform="translate(104,-4992.0001)" id="s8" style="fill:#dedfe0" number="8" type="seat"></path><path d="m 5458,9226 c -144,0 -288,0 -432,0 -106,-185 -94,-370 0,-556 168,0 265,0 432,0 121,180 131,364 0,556 z" transform="translate(104,-4992.0001)" id="s3" style="fill:#dedfe0" number="3" type="seat"></path><path d="m 9772,9226 c 144,0 288,0 432,0 106,-185 94,-370 0,-556 -168,0 -265,0 -432,0 -121,180 -131,364 0,556 z" transform="translate(104,-4992.0001)" id="s23" style="fill:#dedfe0" number="23" type="seat"></path><path d="m 13363,9226 c 144,0 288,0 432,0 106,-185 94,-370 0,-556 -168,0 -265,0 -432,0 -121,180 -131,364 0,556 z" transform="translate(104,-4992.0001)" id="s38" style="fill:#dedfe0" number="38" type="seat"></path><path d="m 7368,9226 c 144,0 288,0 432,0 106,-185 94,-370 0,-556 -168,0 -265,0 -432,0 -121,180 -131,364 0,556 z" transform="translate(104,-4992.0001)" id="s13" style="fill:#dedfe0" number="13" type="seat"></path><path d="m 10961,9226 c 144,0 288,0 432,0 106,-185 94,-370 0,-556 -168,0 -265,0 -432,0 -121,180 -131,364 0,556 z" transform="translate(104,-4992.0001)" id="s28" style="fill:#dedfe0" number="28" type="seat"></path><path d="m 14553,9226 c 144,0 288,0 432,0 106,-185 94,-370 0,-556 -168,0 -265,0 -432,0 -121,180 -131,364 0,556 z" transform="translate(104,-4992.0001)" id="s43" style="fill:#dedfe0" number="43" type="seat"></path><path d="m 9251,9250 c 168,-60 146,-553 0,-602 -50,3 -91,49 -55,88 132,144 117,273 0,412 -48,57 -18,91 55,101 z" transform="translate(104,-4992.0001)" id="path8386" style="fill:#dedfe0"></path><path d="m 12843,9250 c 168,-60 146,-553 0,-602 -50,3 -91,49 -55,88 132,144 117,273 0,412 -48,57 -18,91 55,101 z" transform="translate(104,-4992.0001)" id="path8388" style="fill:#dedfe0"></path><path d="m 6847,9250 c 168,-60 146,-553 0,-602 -50,3 -91,49 -55,88 132,144 117,273 0,412 -48,57 -18,91 55,101 z" transform="translate(104,-4992.0001)" id="path8390" style="fill:#dedfe0"></path><path d="m 4779,9250 c -168,-60 -146,-553 0,-602 50,3 91,49 55,88 -132,144 -117,273 0,412 48,57 18,91 -55,101 z" transform="translate(104,-4992.0001)" id="path8392" style="fill:#dedfe0"></path><path d="m 10451,9250 c 168,-60 146,-553 0,-602 -50,3 -91,49 -55,88 132,144 117,273 0,412 -48,57 -18,91 55,101 z" transform="translate(104,-4992.0001)" id="path8394" style="fill:#dedfe0"></path><path d="m 14042,9250 c 168,-60 146,-553 0,-602 -50,3 -91,49 -55,88 132,144 117,273 0,412 -48,57 -18,91 55,101 z" transform="translate(104,-4992.0001)" id="path8396" style="fill:#dedfe0"></path><path d="m 8047,9250 c 168,-60 146,-553 0,-602 -50,3 -91,49 -55,88 132,144 117,273 0,412 -48,57 -18,91 55,101 z" transform="translate(104,-4992.0001)" id="path8398" style="fill:#dedfe0"></path><path d="m 11640,9250 c 168,-60 146,-553 0,-602 -50,3 -91,49 -55,88 132,144 117,273 0,412 -48,57 -18,91 55,101 z" transform="translate(104,-4992.0001)" id="path8400" style="fill:#dedfe0"></path><path d="m 15232,9250 c 168,-60 146,-553 0,-602 -50,3 -91,49 -55,88 132,144 117,273 0,412 -48,57 -18,91 55,101 z" transform="translate(104,-4992.0001)" id="path8402" style="fill:#dedfe0"></path><path d="m 5139,9091 c 19,11 54,22 95,22 81,0 131,-41 131,-98 0,-42 -31,-72 -70,-79 l 0,-1 c 40,-13 59,-41 59,-75 0,-44 -38,-80 -106,-80 -42,0 -80,12 -99,24 l 15,54 c 13,-8 41,-19 67,-19 32,0 47,14 47,34 0,27 -32,37 -57,37 l -30,0 0,54 31,0 c 33,0 65,14 65,46 0,24 -20,42 -59,42 -31,0 -61,-12 -75,-20 l -15,57 z" transform="translate(104,-4992.0001)" id="n3" style="fill:#fefefe;fill-rule:nonzero" number="3" type="number"></path><path d="m 5340,8475 0,-77 38,0 0,-56 -38,0 0,-188 -92,0 -121,196 0,49 142,0 0,77 71,0 z m -144,-133 0,-1 42,-70 c 11,-20 20,-39 30,-60 l 1,0 c -1,21 -2,41 -2,60 l 0,71 -73,0 z" transform="translate(104,-4992.0001)" id="n4" style="fill:#fefefe;fill-rule:nonzero" number="4" type="number"></path><path d="m 5952,9322 -335,0 0,-1383 335,0 z" transform="translate(104,-4992.0001)" id="polygon8408" style="fill:#9d9e9e"></path><path d="m 6310,8944 c -35,15 -57,42 -57,81 0,43 38,89 119,89 75,0 123,-40 123,-98 0,-41 -28,-68 -59,-80 l 0,-1 c 32,-16 47,-43 47,-71 0,-39 -31,-82 -106,-82 -64,0 -113,36 -113,90 0,28 15,54 46,71 l 0,1 z m 65,118 c -28,0 -46,-22 -45,-45 0,-23 14,-41 39,-48 29,8 50,25 50,53 0,23 -18,40 -44,40 z m -1,-229 c 28,0 39,20 39,40 0,20 -15,36 -33,41 -26,-8 -45,-22 -45,-43 0,-20 13,-37 39,-37 z" transform="translate(104,-4992.0001)" id="n8" style="fill:#fefefe;fill-rule:nonzero" number="8" type="number"></path><path d="m 6282,8477 c 8,1 22,1 34,0 50,-2 92,-17 123,-44 35,-33 56,-81 56,-148 0,-75 -39,-138 -121,-138 -71,0 -121,53 -121,116 0,63 45,100 100,100 29,0 50,-8 65,-23 l 1,0 c -5,24 -19,45 -41,60 -17,12 -40,18 -63,20 -15,0 -23,1 -33,0 l 0,58 z m 89,-276 c 35,0 48,34 47,68 0,9 -1,14 -3,19 -7,11 -21,21 -42,21 -30,0 -45,-24 -45,-51 0,-34 18,-56 43,-56 z" transform="translate(104,-4992.0001)" id="n9" style="fill:#fefefe;fill-rule:nonzero" number="9" type="number"></path><path d="m 7410,9106 73,0 0,-321 -62,0 -85,40 12,56 61,-29 1,0 0,254 z m 176,-17 c 19,11 54,22 95,22 81,0 131,-41 131,-98 0,-42 -31,-72 -70,-79 l 0,-1 c 40,-13 59,-41 59,-75 0,-44 -38,-80 -106,-80 -42,0 -80,12 -99,24 l 15,54 c 13,-8 41,-19 67,-19 32,0 47,14 47,34 0,27 -32,37 -57,37 l -30,0 0,54 31,0 c 33,0 65,14 65,46 0,24 -20,42 -59,42 -31,0 -61,-12 -75,-20 l -15,57 z" transform="translate(104,-4992.0001)" id="n13" style="fill:#fefefe;fill-rule:nonzero" number="13" type="number"></path><path d="m 7401,8472 73,0 0,-321 -62,0 -85,40 12,56 61,-29 1,0 0,254 z m 382,0 0,-77 38,0 0,-56 -38,0 0,-188 -92,0 -121,196 0,49 142,0 0,77 71,0 z m -144,-133 0,-1 42,-70 c 11,-20 20,-39 30,-60 l 1,0 c -1,21 -2,41 -2,60 l 0,71 -73,0 z" transform="translate(104,-4992.0001)" id="n14" style="fill:#fefefe;fill-rule:nonzero" number="14" type="number"></path><path d="m 8607,9108 73,0 0,-321 -62,0 -85,40 12,56 61,-29 1,0 0,254 z m 231,-164 c -35,15 -57,42 -57,81 0,43 38,89 119,89 75,0 123,-40 123,-98 0,-41 -28,-68 -59,-80 l 0,-1 c 32,-16 47,-43 47,-71 0,-39 -31,-82 -106,-82 -64,0 -113,36 -113,90 0,28 15,54 46,71 l 0,1 z m 65,118 c -28,0 -46,-22 -45,-45 0,-23 14,-41 39,-48 29,8 50,25 50,53 0,23 -18,40 -44,40 z m -1,-229 c 28,0 39,20 39,40 0,20 -15,36 -33,41 -26,-8 -45,-22 -45,-43 0,-20 13,-37 39,-37 z" transform="translate(104,-4992.0001)" id="n18" style="fill:#fefefe;fill-rule:nonzero"></path><path d="m 8608,8472 73,0 0,-321 -62,0 -85,40 12,56 61,-29 1,0 0,254 z m 202,4 c 8,1 22,1 34,0 50,-2 92,-17 123,-44 35,-33 56,-81 56,-148 0,-75 -39,-138 -121,-138 -71,0 -121,53 -121,116 0,63 45,100 100,100 29,0 50,-8 65,-23 l 1,0 c -5,24 -19,45 -41,60 -17,12 -40,18 -63,20 -15,0 -23,1 -33,0 l 0,58 z m 89,-276 c 35,0 48,34 47,68 0,9 -1,14 -3,19 -7,11 -21,21 -42,21 -30,0 -45,-24 -45,-51 0,-34 18,-56 43,-56 z" transform="translate(104,-4992.0001)" id="n19" style="fill:#fefefe;fill-rule:nonzero"></path><path d="m 9956,9106 0,-62 -122,0 0,-1 30,-25 c 47,-41 85,-84 85,-139 0,-58 -40,-100 -113,-100 -43,0 -81,15 -105,33 l 21,53 c 17,-12 41,-26 69,-26 37,0 52,21 52,47 -1,38 -35,74 -105,137 l -41,37 0,45 228,0 z m 44,-17 c 19,11 54,22 95,22 81,0 131,-41 131,-98 0,-42 -31,-72 -70,-79 l 0,-1 c 40,-13 59,-41 59,-75 0,-44 -38,-80 -106,-80 -42,0 -80,12 -99,24 l 15,54 c 13,-8 41,-19 67,-19 32,0 47,14 47,34 0,27 -32,37 -57,37 l -30,0 0,54 31,0 c 33,0 65,14 65,46 0,24 -20,42 -59,42 -31,0 -61,-12 -75,-20 l -15,57 z" transform="translate(104,-4992.0001)" id="n23" style="fill:#fefefe;fill-rule:nonzero" number="23" type="number"></path><path d="m 9948,8472 0,-62 -122,0 0,-1 30,-25 c 47,-41 85,-84 85,-139 0,-58 -40,-100 -113,-100 -43,0 -81,15 -105,33 l 21,53 c 17,-12 41,-26 69,-26 37,0 52,21 52,47 -1,38 -35,74 -105,137 l -41,37 0,45 228,0 z m 250,0 0,-77 38,0 0,-56 -38,0 0,-188 -92,0 -121,196 0,49 142,0 0,77 71,0 z m -144,-133 0,-1 42,-70 c 11,-20 20,-39 30,-60 l 1,0 c -1,21 -2,41 -2,60 l 0,71 -73,0 z" transform="translate(104,-4992.0001)" id="n24" style="fill:#fefefe;fill-rule:nonzero" number="24" type="number"></path><path d="m 11139,9108 0,-62 -122,0 0,-1 30,-25 c 47,-41 85,-84 85,-139 0,-58 -40,-100 -113,-100 -43,0 -81,15 -105,33 l 21,53 c 17,-12 41,-26 69,-26 37,0 52,21 52,47 -1,38 -35,74 -105,137 l -41,37 0,45 228,0 z m 98,-164 c -35,15 -57,42 -57,81 0,43 38,89 119,89 75,0 123,-40 123,-98 0,-41 -28,-68 -59,-80 l 0,-1 c 32,-16 47,-43 47,-71 0,-39 -31,-82 -106,-82 -64,0 -113,36 -113,90 0,28 15,54 46,71 l 0,1 z m 65,118 c -28,0 -46,-22 -45,-45 0,-23 14,-41 39,-48 29,8 50,25 50,53 0,23 -18,40 -44,40 z m -1,-229 c 28,0 39,20 39,40 0,20 -15,36 -33,41 -26,-8 -45,-22 -45,-43 0,-20 13,-37 39,-37 z" transform="translate(104,-4992.0001)" id="n28" style="fill:#fefefe;fill-rule:nonzero" number="28" type="number"></path><path d="m 11140,8475 0,-62 -122,0 0,-1 30,-25 c 47,-41 85,-84 85,-139 0,-58 -40,-100 -113,-100 -43,0 -81,15 -105,33 l 21,53 c 17,-12 41,-26 69,-26 37,0 52,21 52,47 -1,38 -35,74 -105,137 l -41,37 0,45 228,0 z m 69,4 c 8,1 22,1 34,0 50,-2 92,-17 123,-44 35,-33 56,-81 56,-148 0,-75 -39,-138 -121,-138 -71,0 -121,53 -121,116 0,63 45,100 100,100 29,0 50,-8 65,-23 l 1,0 c -5,24 -19,45 -41,60 -17,12 -40,18 -63,20 -15,0 -23,1 -33,0 l 0,58 z m 89,-276 c 35,0 48,34 47,68 0,9 -1,14 -3,19 -7,11 -21,21 -42,21 -30,0 -45,-24 -45,-51 0,-34 18,-56 43,-56 z" transform="translate(104,-4992.0001)" id="n29" style="fill:#fefefe;fill-rule:nonzero" number="29" type="number"></path><path d="m 12119,9091 c 19,11 54,22 95,22 81,0 131,-41 131,-98 0,-42 -31,-72 -70,-79 l 0,-1 c 40,-13 59,-41 59,-75 0,-44 -38,-80 -106,-80 -42,0 -80,12 -99,24 l 15,54 c 13,-8 41,-19 67,-19 32,0 47,14 47,34 0,27 -32,37 -57,37 l -30,0 0,54 31,0 c 33,0 65,14 65,46 0,24 -20,42 -59,42 -31,0 -61,-12 -75,-20 l -15,57 z m 274,0 c 19,11 54,22 95,22 81,0 131,-41 131,-98 0,-42 -31,-72 -70,-79 l 0,-1 c 40,-13 59,-41 59,-75 0,-44 -38,-80 -106,-80 -42,0 -80,12 -99,24 l 15,54 c 13,-8 41,-19 67,-19 32,0 47,14 47,34 0,27 -32,37 -57,37 l -30,0 0,54 31,0 c 33,0 65,14 65,46 0,24 -20,42 -59,42 -31,0 -61,-12 -75,-20 l -15,57 z" transform="translate(104,-4992.0001)" id="n33" style="fill:#fefefe;fill-rule:nonzero" number="33" type="number"></path><path d="m 12111,8456 c 19,11 54,22 95,22 81,0 131,-41 131,-98 0,-42 -31,-72 -70,-79 l 0,-1 c 40,-13 59,-41 59,-75 0,-44 -38,-80 -106,-80 -42,0 -80,12 -99,24 l 15,54 c 13,-8 41,-19 67,-19 32,0 47,14 47,34 0,27 -32,37 -57,37 l -30,0 0,54 31,0 c 33,0 65,14 65,46 0,24 -20,42 -59,42 -31,0 -61,-12 -75,-20 l -15,57 z m 480,17 0,-77 38,0 0,-56 -38,0 0,-188 -92,0 -121,196 0,49 142,0 0,77 71,0 z m -144,-133 0,-1 42,-70 c 11,-20 20,-39 30,-60 l 1,0 c -1,21 -2,41 -2,60 l 0,71 -73,0 z" transform="translate(104,-4992.0001)" id="n34" style="fill:#fefefe;fill-rule:nonzero" number="34" type="number"></path><path d="m 13313,9091 c 19,11 54,22 95,22 81,0 131,-41 131,-98 0,-42 -31,-72 -70,-79 l 0,-1 c 40,-13 59,-41 59,-75 0,-44 -38,-80 -106,-80 -42,0 -80,12 -99,24 l 15,54 c 13,-8 41,-19 67,-19 32,0 47,14 47,34 0,27 -32,37 -57,37 l -30,0 0,54 31,0 c 33,0 65,14 65,46 0,24 -20,42 -59,42 -31,0 -61,-12 -75,-20 l -15,57 z m 328,-148 c -35,15 -57,42 -57,81 0,43 38,89 119,89 75,0 123,-40 123,-98 0,-41 -28,-68 -59,-80 l 0,-1 c 32,-16 47,-43 47,-71 0,-39 -31,-82 -106,-82 -64,0 -113,36 -113,90 0,28 15,54 46,71 l 0,1 z m 65,118 c -28,0 -46,-22 -45,-45 0,-23 14,-41 39,-48 29,8 50,25 50,53 0,23 -18,40 -44,40 z m -1,-229 c 28,0 39,20 39,40 0,20 -15,36 -33,41 -26,-8 -45,-22 -45,-43 0,-20 13,-37 39,-37 z" transform="translate(104,-4992.0001)" id="n38" style="fill:#fefefe;fill-rule:nonzero" number="38" type="number"></path><path d="m 13313,8456 c 19,11 54,22 95,22 81,0 131,-41 131,-98 0,-42 -31,-72 -70,-79 l 0,-1 c 40,-13 59,-41 59,-75 0,-44 -38,-80 -106,-80 -42,0 -80,12 -99,24 l 15,54 c 13,-8 41,-19 67,-19 32,0 47,14 47,34 0,27 -32,37 -57,37 l -30,0 0,54 31,0 c 33,0 65,14 65,46 0,24 -20,42 -59,42 -31,0 -61,-12 -75,-20 l -15,57 z m 299,21 c 8,1 22,1 34,0 50,-2 92,-17 123,-44 35,-33 56,-81 56,-148 0,-75 -39,-138 -121,-138 -71,0 -121,53 -121,116 0,63 45,100 100,100 29,0 50,-8 65,-23 l 1,0 c -5,24 -19,45 -41,60 -17,12 -40,18 -63,20 -15,0 -23,1 -33,0 l 0,58 z m 89,-276 c 35,0 48,34 47,68 0,9 -1,14 -3,19 -7,11 -21,21 -42,21 -30,0 -45,-24 -45,-51 0,-34 18,-56 43,-56 z" transform="translate(104,-4992.0001)" id="n39" style="fill:#fefefe;fill-rule:nonzero" number="39" type="number"></path><path d="m 14713,9108 0,-77 38,0 0,-56 -38,0 0,-188 -92,0 -121,196 0,49 142,0 0,77 71,0 z m -144,-133 0,-1 42,-70 c 11,-20 20,-39 30,-60 l 1,0 c -1,21 -2,41 -2,60 l 0,71 -73,0 z m 212,116 c 19,11 54,22 95,22 81,0 131,-41 131,-98 0,-42 -31,-72 -70,-79 l 0,-1 c 40,-13 59,-41 59,-75 0,-44 -38,-80 -106,-80 -42,0 -80,12 -99,24 l 15,54 c 13,-8 41,-19 67,-19 32,0 47,14 47,34 0,27 -32,37 -57,37 l -30,0 0,54 31,0 c 33,0 65,14 65,46 0,24 -20,42 -59,42 -31,0 -61,-12 -75,-20 l -15,57 z" transform="translate(104,-4992.0001)" id="n43" style="fill:#fefefe;fill-rule:nonzero" number="43" type="number"></path><path d="m 14707,8472 0,-77 38,0 0,-56 -38,0 0,-188 -92,0 -121,196 0,49 142,0 0,77 71,0 z m -144,-133 0,-1 42,-70 c 11,-20 20,-39 30,-60 l 1,0 c -1,21 -2,41 -2,60 l 0,71 -73,0 z m 418,133 0,-77 38,0 0,-56 -38,0 0,-188 -92,0 -121,196 0,49 142,0 0,77 71,0 z m -144,-133 0,-1 42,-70 c 11,-20 20,-39 30,-60 l 1,0 c -1,21 -2,41 -2,60 l 0,71 -73,0 z" transform="translate(104,-4992.0001)" id="n44" style="fill:#fefefe;fill-rule:nonzero" number="44" type="number"></path><path d="m 26295,5440 0,628 -311,0 0,-628 311,0 z m -390,0 0,628 -361,0 c -165,0 -300,-135 -300,-300 l 0,-28 c 0,-165 135,-300 300,-300 l 361,0 z m -154,154 -207,0 c -80,0 -146,66 -146,146 l 0,28 c 0,80 66,146 146,146 l 207,0 0,-320 z" transform="translate(104,-4992.0001)" id="path8442" style="fill:#c2c7cc"></path><path d="m 16271,6556 c -144,0 -288,0 -432,0 -106,185 -94,370 0,556 168,0 265,0 432,0 121,-180 131,-364 0,-556 z" transform="translate(104,-4992.0001)" id="s50" style="fill:#dedfe0" number="50" type="seat"></path><path d="m 17445,6556 c -144,0 -288,0 -432,0 -106,185 -94,370 0,556 168,0 265,0 432,0 121,-180 131,-364 0,-556 z" transform="translate(104,-4992.0001)" id="s55" style="fill:#dedfe0" number="55" type="seat"></path><path d="m 18661,6556 c -144,0 -288,0 -432,0 -106,185 -94,370 0,556 168,0 265,0 432,0 121,-180 131,-364 0,-556 z" transform="translate(104,-4992.0001)" id="s60" style="fill:#dedfe0" number="60" type="seat"></path><path d="m 19869,6556 c -144,0 -288,0 -432,0 -106,185 -94,370 0,556 168,0 265,0 432,0 121,-180 131,-364 0,-556 z" transform="translate(104,-4992.0001)" id="s65" style="fill:#dedfe0" number="65" type="seat"></path><path d="m 21078,6556 c -144,0 -288,0 -432,0 -106,185 -94,370 0,556 168,0 265,0 432,0 121,-180 131,-364 0,-556 z" transform="translate(104,-4992.0001)" id="s70" style="fill:#dedfe0" number="70" type="seat"></path><path d="m 22269,6556 c -144,0 -288,0 -432,0 -106,185 -94,370 0,556 168,0 265,0 432,0 121,-180 131,-364 0,-556 z" transform="translate(104,-4992.0001)" id="s75" style="fill:#dedfe0" number="75" type="seat"></path><path d="m 16271,5912 c -144,0 -288,0 -432,0 -106,185 -94,370 0,556 168,0 265,0 432,0 121,-180 131,-364 0,-556 z" transform="translate(104,-4992.0001)" id="s51" style="fill:#dedfe0" number="51" type="seat"></path><path d="m 17445,5912 c -144,0 -288,0 -432,0 -106,185 -94,370 0,556 168,0 265,0 432,0 121,-180 131,-364 0,-556 z" transform="translate(104,-4992.0001)" id="s56" style="fill:#dedfe0" number="56" type="seat"></path><path d="m 18661,5912 c -144,0 -288,0 -432,0 -106,185 -94,370 0,556 168,0 265,0 432,0 121,-180 131,-364 0,-556 z" transform="translate(104,-4992.0001)" id="s61" style="fill:#dedfe0" number="61" type="seat"></path><path d="m 19869,5912 c -144,0 -288,0 -432,0 -106,185 -94,370 0,556 168,0 265,0 432,0 121,-180 131,-364 0,-556 z" transform="translate(104,-4992.0001)" id="s66" style="fill:#dedfe0" number="66" type="seat"></path><path d="m 21078,5912 c -144,0 -288,0 -432,0 -106,185 -94,370 0,556 168,0 265,0 432,0 121,-180 131,-364 0,-556 z" transform="translate(104,-4992.0001)" id="s71" style="fill:#dedfe0" number="71" type="seat"></path><path d="m 22269,5912 c -144,0 -288,0 -432,0 -106,185 -94,370 0,556 168,0 265,0 432,0 121,-180 131,-364 0,-556 z" transform="translate(104,-4992.0001)" id="s76" style="fill:#dedfe0" number="76" type="seat"></path><path d="m 16271,5267 c -144,0 -288,0 -432,0 -106,185 -94,370 0,556 168,0 265,0 432,0 121,-180 131,-364 0,-556 z" transform="translate(104,-4992.0001)" id="s52" style="fill:#dedfe0" number="52" type="seat"></path><path d="m 17445,5267 c -144,0 -288,0 -432,0 -106,185 -94,370 0,556 168,0 265,0 432,0 121,-180 131,-364 0,-556 z" transform="translate(104,-4992.0001)" id="s57" style="fill:#dedfe0" number="57" type="seat"></path><path d="m 18661,5267 c -144,0 -288,0 -432,0 -106,185 -94,370 0,556 168,0 265,0 432,0 121,-180 131,-364 0,-556 z" transform="translate(104,-4992.0001)" id="s62" style="fill:#dedfe0" number="62" type="seat"></path><path d="m 19869,5267 c -144,0 -288,0 -432,0 -106,185 -94,370 0,556 168,0 265,0 432,0 121,-180 131,-364 0,-556 z" transform="translate(104,-4992.0001)" id="s67" style="fill:#dedfe0" number="67" type="seat"></path><path d="m 21078,5267 c -144,0 -288,0 -432,0 -106,185 -94,370 0,556 168,0 265,0 432,0 121,-180 131,-364 0,-556 z" transform="translate(104,-4992.0001)" id="s72" style="fill:#dedfe0" number="72" type="seat"></path><path d="m 22269,5267 c -144,0 -288,0 -432,0 -106,185 -94,370 0,556 168,0 265,0 432,0 121,-180 131,-364 0,-556 z" transform="translate(104,-4992.0001)" id="s77" style="fill:#dedfe0" number="77" type="seat"></path><path d="m 15592,6495 0,30 0,7 c -168,60 -146,553 0,602 l 0,35 659,0 0,-57 -412,0 c -94,-185 -106,-370 0,-556 l 412,0 0,-32 0,-30 0,-27 -412,0 c -94,-185 -106,-370 0,-556 l 412,0 0,-32 0,-30 0,-27 -412,0 c -94,-185 -106,-370 0,-556 l 412,0 0,-62 -659,0 0,37 c -168,60 -146,553 0,602 l 0,5 0,30 0,7 c -168,60 -146,553 0,602 l 0,5 z" transform="translate(104,-4992.0001)" id="path8480" style="fill:#9d9e9e"></path><path d="m 16766,6495 0,30 0,7 c -168,60 -146,553 0,602 l 0,35 659,0 0,-57 -412,0 c -94,-185 -106,-370 0,-556 l 412,0 0,-32 0,-30 0,-27 -412,0 c -94,-185 -106,-370 0,-556 l 412,0 0,-32 0,-30 0,-27 -412,0 c -94,-185 -106,-370 0,-556 l 412,0 0,-62 -659,0 0,37 c -168,60 -146,553 0,602 l 0,5 0,30 0,7 c -168,60 -146,553 0,602 l 0,5 z" transform="translate(104,-4992.0001)" id="path8482" style="fill:#9d9e9e"></path><path d="m 17982,6495 0,30 0,7 c -168,60 -146,553 0,602 l 0,35 659,0 0,-57 -412,0 c -94,-185 -106,-370 0,-556 l 412,0 0,-32 0,-30 0,-27 -412,0 c -94,-185 -106,-370 0,-556 l 412,0 0,-32 0,-30 0,-27 -412,0 c -94,-185 -106,-370 0,-556 l 412,0 0,-62 -659,0 0,37 c -168,60 -146,553 0,602 l 0,5 0,30 0,7 c -168,60 -146,553 0,602 l 0,5 z" transform="translate(104,-4992.0001)" id="path8484" style="fill:#9d9e9e"></path><path d="m 19190,6495 0,30 0,7 c -168,60 -146,553 0,602 l 0,35 659,0 0,-57 -412,0 c -94,-185 -106,-370 0,-556 l 412,0 0,-32 0,-30 0,-27 -412,0 c -94,-185 -106,-370 0,-556 l 412,0 0,-32 0,-30 0,-27 -412,0 c -94,-185 -106,-370 0,-556 l 412,0 0,-62 -659,0 0,37 c -168,60 -146,553 0,602 l 0,5 0,30 0,7 c -168,60 -146,553 0,602 l 0,5 z" transform="translate(104,-4992.0001)" id="path8486" style="fill:#9d9e9e"></path><path d="m 20399,6495 0,30 0,7 c -168,60 -146,553 0,602 l 0,35 659,0 0,-57 -412,0 c -94,-185 -106,-370 0,-556 l 412,0 0,-32 0,-30 0,-27 -412,0 c -94,-185 -106,-370 0,-556 l 412,0 0,-32 0,-30 0,-27 -412,0 c -94,-185 -106,-370 0,-556 l 412,0 0,-62 -659,0 0,37 c -168,60 -146,553 0,602 l 0,5 0,30 0,7 c -168,60 -146,553 0,602 l 0,5 z" transform="translate(104,-4992.0001)" id="path8488" style="fill:#9d9e9e"></path><path d="m 21590,6495 0,30 0,7 c -168,60 -146,553 0,602 l 0,35 659,0 0,-57 -412,0 c -94,-185 -106,-370 0,-556 l 412,0 0,-32 0,-30 0,-27 -412,0 c -94,-185 -106,-370 0,-556 l 412,0 0,-32 0,-30 0,-27 -412,0 c -94,-185 -106,-370 0,-556 l 412,0 0,-62 -659,0 0,37 c -168,60 -146,553 0,602 l 0,5 0,30 0,7 c -168,60 -146,553 0,602 l 0,5 z" transform="translate(104,-4992.0001)" id="path8490" style="fill:#9d9e9e"></path><path d="m 15592,6532 c -168,60 -146,553 0,602 50,-3 91,-49 55,-88 -132,-144 -117,-273 0,-412 48,-57 18,-91 -55,-101 z" transform="translate(104,-4992.0001)" id="path8492" style="fill:#dedfe0"></path><path d="m 16766,6532 c -168,60 -146,553 0,602 50,-3 91,-49 55,-88 -132,-144 -117,-273 0,-412 48,-57 18,-91 -55,-101 z" transform="translate(104,-4992.0001)" id="path8494" style="fill:#dedfe0"></path><path d="m 17982,6532 c -168,60 -146,553 0,602 50,-3 91,-49 55,-88 -132,-144 -117,-273 0,-412 48,-57 18,-91 -55,-101 z" transform="translate(104,-4992.0001)" id="path8496" style="fill:#dedfe0"></path><path d="m 19190,6532 c -168,60 -146,553 0,602 50,-3 91,-49 55,-88 -132,-144 -117,-273 0,-412 48,-57 18,-91 -55,-101 z" transform="translate(104,-4992.0001)" id="path8498" style="fill:#dedfe0"></path><path d="m 20399,6532 c -168,60 -146,553 0,602 50,-3 91,-49 55,-88 -132,-144 -117,-273 0,-412 48,-57 18,-91 -55,-101 z" transform="translate(104,-4992.0001)" id="path8500" style="fill:#dedfe0"></path><path d="m 21590,6532 c -168,60 -146,553 0,602 50,-3 91,-49 55,-88 -132,-144 -117,-273 0,-412 48,-57 18,-91 -55,-101 z" transform="translate(104,-4992.0001)" id="path8502" style="fill:#dedfe0"></path><path d="m 15592,5887 c -168,60 -146,553 0,602 50,-3 91,-49 55,-88 -132,-144 -117,-273 0,-412 48,-57 18,-91 -55,-101 z" transform="translate(104,-4992.0001)" id="path8504" style="fill:#dedfe0"></path><path d="m 16766,5887 c -168,60 -146,553 0,602 50,-3 91,-49 55,-88 -132,-144 -117,-273 0,-412 48,-57 18,-91 -55,-101 z" transform="translate(104,-4992.0001)" id="path8506" style="fill:#dedfe0"></path><path d="m 17982,5887 c -168,60 -146,553 0,602 50,-3 91,-49 55,-88 -132,-144 -117,-273 0,-412 48,-57 18,-91 -55,-101 z" transform="translate(104,-4992.0001)" id="path8508" style="fill:#dedfe0"></path><path d="m 19190,5887 c -168,60 -146,553 0,602 50,-3 91,-49 55,-88 -132,-144 -117,-273 0,-412 48,-57 18,-91 -55,-101 z" transform="translate(104,-4992.0001)" id="path8510" style="fill:#dedfe0"></path><path d="m 20399,5887 c -168,60 -146,553 0,602 50,-3 91,-49 55,-88 -132,-144 -117,-273 0,-412 48,-57 18,-91 -55,-101 z" transform="translate(104,-4992.0001)" id="path8512" style="fill:#dedfe0"></path><path d="m 21590,5887 c -168,60 -146,553 0,602 50,-3 91,-49 55,-88 -132,-144 -117,-273 0,-412 48,-57 18,-91 -55,-101 z" transform="translate(104,-4992.0001)" id="path8514" style="fill:#dedfe0"></path><path d="m 15592,5243 c -168,60 -146,553 0,602 50,-3 91,-49 55,-88 -132,-144 -117,-273 0,-412 48,-57 18,-91 -55,-101 z" transform="translate(104,-4992.0001)" id="path8516" style="fill:#dedfe0"></path><path d="m 16766,5243 c -168,60 -146,553 0,602 50,-3 91,-49 55,-88 -132,-144 -117,-273 0,-412 48,-57 18,-91 -55,-101 z" transform="translate(104,-4992.0001)" id="path8518" style="fill:#dedfe0"></path><path d="m 17982,5243 c -168,60 -146,553 0,602 50,-3 91,-49 55,-88 -132,-144 -117,-273 0,-412 48,-57 18,-91 -55,-101 z" transform="translate(104,-4992.0001)" id="path8520" style="fill:#dedfe0"></path><path d="m 19190,5243 c -168,60 -146,553 0,602 50,-3 91,-49 55,-88 -132,-144 -117,-273 0,-412 48,-57 18,-91 -55,-101 z" transform="translate(104,-4992.0001)" id="path8522" style="fill:#dedfe0"></path><path d="m 20399,5243 c -168,60 -146,553 0,602 50,-3 91,-49 55,-88 -132,-144 -117,-273 0,-412 48,-57 18,-91 -55,-101 z" transform="translate(104,-4992.0001)" id="path8524" style="fill:#dedfe0"></path><path d="m 21590,5243 c -168,60 -146,553 0,602 50,-3 91,-49 55,-88 -132,-144 -117,-273 0,-412 48,-57 18,-91 -55,-101 z" transform="translate(104,-4992.0001)" id="path8526" style="fill:#dedfe0"></path><path d="m 16024,6676 -177,0 -21,168 c 13,-2 25,-3 43,-3 64,0 90,20 90,53 0,34 -33,49 -64,49 -29,0 -58,-9 -72,-16 l -14,56 c 18,9 50,18 89,18 86,0 138,-53 138,-113 0,-38 -15,-64 -39,-81 -22,-16 -54,-23 -84,-23 -8,0 -14,0 -21,1 l 7,-49 124,0 0,-62 z m 177,-5 c -83,0 -122,73 -122,166 0,91 37,165 120,165 81,0 122,-69 122,-167 0,-88 -34,-164 -120,-164 z m -1,57 c 30,0 45,38 45,109 0,73 -16,110 -45,110 -29,0 -46,-35 -46,-109 0,-75 19,-110 46,-110 z" transform="translate(104,-4992.0001)" id="n50" style="fill:#fefefe;fill-rule:nonzero" number="50" type="number"></path><path d="m 16058,6029 -177,0 -21,168 c 13,-2 25,-3 43,-3 64,0 90,20 90,53 0,34 -33,49 -64,49 -29,0 -58,-9 -72,-16 l -14,56 c 18,9 50,18 89,18 86,0 138,-53 138,-113 0,-38 -15,-64 -39,-81 -22,-16 -54,-23 -84,-23 -8,0 -14,0 -21,1 l 7,-49 124,0 0,-62 z m 156,321 73,0 0,-321 -62,0 -85,40 12,56 61,-29 1,0 0,254 z" transform="translate(104,-4992.0001)" id="n51" style="fill:#fefefe;fill-rule:nonzero" number="51" type="number"></path><path d="m 16028,5384 -177,0 -21,168 c 13,-2 25,-3 43,-3 64,0 90,20 90,53 0,34 -33,49 -64,49 -29,0 -58,-9 -72,-16 l -14,56 c 18,9 50,18 89,18 86,0 138,-53 138,-113 0,-38 -15,-64 -39,-81 -22,-16 -54,-23 -84,-23 -8,0 -14,0 -21,1 l 7,-49 124,0 0,-62 z m 288,321 0,-62 -122,0 0,-1 30,-25 c 47,-41 85,-84 85,-139 0,-58 -40,-100 -113,-100 -43,0 -81,15 -105,33 l 21,53 c 17,-12 41,-26 69,-26 37,0 52,21 52,47 -1,38 -35,74 -105,137 l -41,37 0,45 228,0 z" transform="translate(104,-4992.0001)" id="n52" style="fill:#fefefe;fill-rule:nonzero" number="52" type="number"></path><path d="m 17203,6676 -177,0 -21,168 c 13,-2 25,-3 43,-3 64,0 90,20 90,53 0,34 -33,49 -64,49 -29,0 -58,-9 -72,-16 l -14,56 c 18,9 50,18 89,18 86,0 138,-53 138,-113 0,-38 -15,-64 -39,-81 -22,-16 -54,-23 -84,-23 -8,0 -14,0 -21,1 l 7,-49 124,0 0,-62 z m 274,0 -177,0 -21,168 c 13,-2 25,-3 43,-3 64,0 90,20 90,53 0,34 -33,49 -64,49 -29,0 -58,-9 -72,-16 l -14,56 c 18,9 50,18 89,18 86,0 138,-53 138,-113 0,-38 -15,-64 -39,-81 -22,-16 -54,-23 -84,-23 -8,0 -14,0 -21,1 l 7,-49 124,0 0,-62 z" transform="translate(104,-4992.0001)" id="n55" style="fill:#fefefe;fill-rule:nonzero" number="55" type="number"></path><path d="m 17196,6029 -177,0 -21,168 c 13,-2 25,-3 43,-3 64,0 90,20 90,53 0,34 -33,49 -64,49 -29,0 -58,-9 -72,-16 l -14,56 c 18,9 50,18 89,18 86,0 138,-53 138,-113 0,-38 -15,-64 -39,-81 -22,-16 -54,-23 -84,-23 -8,0 -14,0 -21,1 l 7,-49 124,0 0,-62 z m 265,-4 c -7,0 -16,-1 -30,1 -50,2 -92,18 -123,47 -35,33 -57,83 -57,143 0,77 42,140 128,140 69,0 118,-52 118,-116 0,-67 -45,-105 -99,-105 -30,0 -52,9 -68,25 l -1,0 c 8,-37 38,-71 105,-77 12,-1 21,-1 29,-1 l 0,-58 z m -84,276 c -35,0 -51,-31 -52,-65 0,-9 1,-15 3,-19 7,-16 24,-28 44,-28 32,0 48,26 48,55 0,33 -17,57 -43,57 z" transform="translate(104,-4992.0001)" id="n56" style="fill:#fefefe;fill-rule:nonzero" number="56" type="number"></path><path d="m 17201,5384 -177,0 -21,168 c 13,-2 25,-3 43,-3 64,0 90,20 90,53 0,34 -33,49 -64,49 -29,0 -58,-9 -72,-16 l -14,56 c 18,9 50,18 89,18 86,0 138,-53 138,-113 0,-38 -15,-64 -39,-81 -22,-16 -54,-23 -84,-23 -8,0 -14,0 -21,1 l 7,-49 124,0 0,-62 z m 63,0 0,62 147,0 0,1 -132,258 80,0 132,-274 0,-47 -227,0 z" transform="translate(104,-4992.0001)" id="n57" style="fill:#fefefe;fill-rule:nonzero" number="57" type="number"></path><path d="m 18407,6672 c -7,0 -16,-1 -30,1 -50,2 -92,18 -123,47 -35,33 -57,83 -57,143 0,77 42,140 128,140 69,0 118,-52 118,-116 0,-67 -45,-105 -99,-105 -30,0 -52,9 -68,25 l -1,0 c 8,-37 38,-71 105,-77 12,-1 21,-1 29,-1 l 0,-58 z m -84,276 c -35,0 -51,-31 -52,-65 0,-9 1,-15 3,-19 7,-16 24,-28 44,-28 32,0 48,26 48,55 0,33 -17,57 -43,57 z m 271,-277 c -83,0 -122,73 -122,166 0,91 37,165 120,165 81,0 122,-69 122,-167 0,-88 -34,-164 -120,-164 z m -1,57 c 30,0 45,38 45,109 0,73 -16,110 -45,110 -29,0 -46,-35 -46,-109 0,-75 19,-110 46,-110 z" transform="translate(104,-4992.0001)" id="n60" style="fill:#fefefe;fill-rule:nonzero" number="60" type="number"></path><path d="m 18442,6025 c -7,0 -16,-1 -30,1 -50,2 -92,18 -123,47 -35,33 -57,83 -57,143 0,77 42,140 128,140 69,0 118,-52 118,-116 0,-67 -45,-105 -99,-105 -30,0 -52,9 -68,25 l -1,0 c 8,-37 38,-71 105,-77 12,-1 21,-1 29,-1 l 0,-58 z m -84,276 c -35,0 -51,-31 -52,-65 0,-9 1,-15 3,-19 7,-16 24,-28 44,-28 32,0 48,26 48,55 0,33 -17,57 -43,57 z m 249,50 73,0 0,-321 -62,0 -85,40 12,56 61,-29 1,0 0,254 z" transform="translate(104,-4992.0001)" id="n61" style="fill:#fefefe;fill-rule:nonzero" number="61" type="number"></path><path d="m 18412,5380 c -7,0 -16,-1 -30,1 -50,2 -92,18 -123,47 -35,33 -57,83 -57,143 0,77 42,140 128,140 69,0 118,-52 118,-116 0,-67 -45,-105 -99,-105 -30,0 -52,9 -68,25 l -1,0 c 8,-37 38,-71 105,-77 12,-1 21,-1 29,-1 l 0,-58 z m -84,276 c -35,0 -51,-31 -52,-65 0,-9 1,-15 3,-19 7,-16 24,-28 44,-28 32,0 48,26 48,55 0,33 -17,57 -43,57 z m 381,50 0,-62 -122,0 0,-1 30,-25 c 47,-41 85,-84 85,-139 0,-58 -40,-100 -113,-100 -43,0 -81,15 -105,33 l 21,53 c 17,-12 41,-26 69,-26 37,0 52,21 52,47 -1,38 -35,74 -105,137 l -41,37 0,45 228,0 z" transform="translate(104,-4992.0001)" id="n62" style="fill:#fefefe;fill-rule:nonzero" number="62" type="number"></path><path d="m 19621,6672 c -7,0 -16,-1 -30,1 -50,2 -92,18 -123,47 -35,33 -57,83 -57,143 0,77 42,140 128,140 69,0 118,-52 118,-116 0,-67 -45,-105 -99,-105 -30,0 -52,9 -68,25 l -1,0 c 8,-37 38,-71 105,-77 12,-1 21,-1 29,-1 l 0,-58 z m -84,276 c -35,0 -51,-31 -52,-65 0,-9 1,-15 3,-19 7,-16 24,-28 44,-28 32,0 48,26 48,55 0,33 -17,57 -43,57 z m 367,-271 -177,0 -21,168 c 13,-2 25,-3 43,-3 64,0 90,20 90,53 0,34 -33,49 -64,49 -29,0 -58,-9 -72,-16 l -14,56 c 18,9 50,18 89,18 86,0 138,-53 138,-113 0,-38 -15,-64 -39,-81 -22,-16 -54,-23 -84,-23 -8,0 -14,0 -21,1 l 7,-49 124,0 0,-62 z" transform="translate(104,-4992.0001)" id="n65" style="fill:#fefefe;fill-rule:nonzero" number="65" type="number"></path><path d="m 19614,6025 c -7,0 -16,-1 -30,1 -50,2 -92,18 -123,47 -35,33 -57,83 -57,143 0,77 42,140 128,140 69,0 118,-52 118,-116 0,-67 -45,-105 -99,-105 -30,0 -52,9 -68,25 l -1,0 c 8,-37 38,-71 105,-77 12,-1 21,-1 29,-1 l 0,-58 z m -84,276 c -35,0 -51,-31 -52,-65 0,-9 1,-15 3,-19 7,-16 24,-28 44,-28 32,0 48,26 48,55 0,33 -17,57 -43,57 z m 358,-276 c -7,0 -16,-1 -30,1 -50,2 -92,18 -123,47 -35,33 -57,83 -57,143 0,77 42,140 128,140 69,0 118,-52 118,-116 0,-67 -45,-105 -99,-105 -30,0 -52,9 -68,25 l -1,0 c 8,-37 38,-71 105,-77 12,-1 21,-1 29,-1 l 0,-58 z m -84,276 c -35,0 -51,-31 -52,-65 0,-9 1,-15 3,-19 7,-16 24,-28 44,-28 32,0 48,26 48,55 0,33 -17,57 -43,57 z" transform="translate(104,-4992.0001)" id="n66" style="fill:#fefefe;fill-rule:nonzero" number="66" type="number"></path><path d="m 19619,5380 c -7,0 -16,-1 -30,1 -50,2 -92,18 -123,47 -35,33 -57,83 -57,143 0,77 42,140 128,140 69,0 118,-52 118,-116 0,-67 -45,-105 -99,-105 -30,0 -52,9 -68,25 l -1,0 c 8,-37 38,-71 105,-77 12,-1 21,-1 29,-1 l 0,-58 z m -84,276 c -35,0 -51,-31 -52,-65 0,-9 1,-15 3,-19 7,-16 24,-28 44,-28 32,0 48,26 48,55 0,33 -17,57 -43,57 z m 157,-271 0,62 147,0 0,1 -132,258 80,0 132,-274 0,-47 -227,0 z" transform="translate(104,-4992.0001)" id="n67" style="fill:#fefefe;fill-rule:nonzero" number="67" type="number"></path><path d="m 20618,6676 0,62 147,0 0,1 -132,258 80,0 132,-274 0,-47 -227,0 z m 388,-5 c -83,0 -122,73 -122,166 0,91 37,165 120,165 81,0 122,-69 122,-167 0,-88 -34,-164 -120,-164 z m -1,57 c 30,0 45,38 45,109 0,73 -16,110 -45,110 -29,0 -46,-35 -46,-109 0,-75 19,-110 46,-110 z" transform="translate(104,-4992.0001)" id="n70" style="fill:#fefefe;fill-rule:nonzero" number="70" type="number"></path><path d="m 20622,5384 0,62 147,0 0,1 -132,258 80,0 132,-274 0,-47 -227,0 z m 499,321 0,-62 -122,0 0,-1 30,-25 c 47,-41 85,-84 85,-139 0,-58 -40,-100 -113,-100 -43,0 -81,15 -105,33 l 21,53 c 17,-12 41,-26 69,-26 37,0 52,21 52,47 -1,38 -35,74 -105,137 l -41,37 0,45 228,0 z" transform="translate(104,-4992.0001)" id="n72" style="fill:#fefefe;fill-rule:nonzero" number="72" type="number"></path><path d="m 21814,6676 0,62 147,0 0,1 -132,258 80,0 132,-274 0,-47 -227,0 z m 485,0 -177,0 -21,168 c 13,-2 25,-3 43,-3 64,0 90,20 90,53 0,34 -33,49 -64,49 -29,0 -58,-9 -72,-16 l -14,56 c 18,9 50,18 89,18 86,0 138,-53 138,-113 0,-38 -15,-64 -39,-81 -22,-16 -54,-23 -84,-23 -8,0 -14,0 -21,1 l 7,-49 124,0 0,-62 z" transform="translate(104,-4992.0001)" id="n75" style="fill:#fefefe;fill-rule:nonzero" number="75" type="number"></path><path d="m 21808,6029 0,62 147,0 0,1 -132,258 80,0 132,-274 0,-47 -227,0 z m 476,-4 c -7,0 -16,-1 -30,1 -50,2 -92,18 -123,47 -35,33 -57,83 -57,143 0,77 42,140 128,140 69,0 118,-52 118,-116 0,-67 -45,-105 -99,-105 -30,0 -52,9 -68,25 l -1,0 c 8,-37 38,-71 105,-77 12,-1 21,-1 29,-1 l 0,-58 z m -84,276 c -35,0 -51,-31 -52,-65 0,-9 1,-15 3,-19 7,-16 24,-28 44,-28 32,0 48,26 48,55 0,33 -17,57 -43,57 z" transform="translate(104,-4992.0001)" id="n76" style="fill:#fefefe;fill-rule:nonzero" number="76" type="number"></path><path d="m 21813,5384 0,62 147,0 0,1 -132,258 80,0 132,-274 0,-47 -227,0 z m 274,0 0,62 147,0 0,1 -132,258 80,0 132,-274 0,-47 -227,0 z" transform="translate(104,-4992.0001)" id="n77" style="fill:#fefefe;fill-rule:nonzero" number="77" type="number"></path><path d="m 15795,8034 c 144,0 288,0 432,0 106,185 94,370 0,556 -168,0 -265,0 -432,0 -121,-180 -131,-364 0,-556 z" transform="translate(104,-4992.0001)" id="s49" style="fill:#dedfe0" number="49" type="seat"></path><path d="m 19387,8034 c 144,0 288,0 432,0 106,185 94,370 0,556 -168,0 -265,0 -432,0 -121,-180 -131,-364 0,-556 z" transform="translate(104,-4992.0001)" id="s64" style="fill:#dedfe0" number="64" type="seat"></path><path d="m 16995,8034 c 144,0 288,0 432,0 106,185 94,370 0,556 -168,0 -265,0 -432,0 -121,-180 -131,-364 0,-556 z" transform="translate(104,-4992.0001)" id="s54" style="fill:#dedfe0" number="54" type="seat"></path><path d="m 20586,8034 c 144,0 288,0 432,0 106,185 94,370 0,556 -168,0 -265,0 -432,0 -121,-180 -131,-364 0,-556 z" transform="translate(104,-4992.0001)" id="s69" style="fill:#dedfe0" number="69" type="seat"></path><path d="m 18184,8034 c 144,0 288,0 432,0 106,185 94,370 0,556 -168,0 -265,0 -432,0 -121,-180 -131,-364 0,-556 z" transform="translate(104,-4992.0001)" id="s59" style="fill:#dedfe0" number="59" type="seat"></path><path d="m 21776,8034 c 144,0 288,0 432,0 106,185 94,370 0,556 -168,0 -265,0 -432,0 -121,-180 -131,-364 0,-556 z" transform="translate(104,-4992.0001)" id="s74" style="fill:#dedfe0" number="74" type="seat"></path><path d="m 16474,8010 c 168,60 146,553 0,602 -50,-3 -91,-49 -55,-88 132,-144 117,-273 0,-412 -48,-57 -18,-91 55,-101 z" transform="translate(104,-4992.0001)" id="path8576" style="fill:#dedfe0"></path><path d="m 20066,8010 c 168,60 146,553 0,602 -50,-3 -91,-49 -55,-88 132,-144 117,-273 0,-412 -48,-57 -18,-91 55,-101 z" transform="translate(104,-4992.0001)" id="path8578" style="fill:#dedfe0"></path><path d="m 17674,8010 c 168,60 146,553 0,602 -50,-3 -91,-49 -55,-88 132,-144 117,-273 0,-412 -48,-57 -18,-91 55,-101 z" transform="translate(104,-4992.0001)" id="path8580" style="fill:#dedfe0"></path><path d="m 21265,8010 c 168,60 146,553 0,602 -50,-3 -91,-49 -55,-88 132,-144 117,-273 0,-412 -48,-57 -18,-91 55,-101 z" transform="translate(104,-4992.0001)" id="path8582" style="fill:#dedfe0"></path><path d="m 18863,8010 c 168,60 146,553 0,602 -50,-3 -91,-49 -55,-88 132,-144 117,-273 0,-412 -48,-57 -18,-91 55,-101 z" transform="translate(104,-4992.0001)" id="path8584" style="fill:#dedfe0"></path><path d="m 22455,8010 c 168,60 146,553 0,602 -50,-3 -91,-49 -55,-88 132,-144 117,-273 0,-412 -48,-57 -18,-91 55,-101 z" transform="translate(104,-4992.0001)" id="path8586" style="fill:#dedfe0"></path><path d="m 15795,9226 c 144,0 288,0 432,0 106,-185 94,-370 0,-556 -168,0 -265,0 -432,0 -121,180 -131,364 0,556 z" transform="translate(104,-4992.0001)" id="s48" style="fill:#dedfe0" number="48" type="seat"></path><path d="m 19387,9226 c 144,0 288,0 432,0 106,-185 94,-370 0,-556 -168,0 -265,0 -432,0 -121,180 -131,364 0,556 z" transform="translate(104,-4992.0001)" id="s63" style="fill:#dedfe0" number="63" type="seat"></path><path d="m 16995,9226 c 144,0 288,0 432,0 106,-185 94,-370 0,-556 -168,0 -265,0 -432,0 -121,180 -131,364 0,556 z" transform="translate(104,-4992.0001)" id="s53" style="fill:#dedfe0" number="53" type="seat"></path><path d="m 20586,9226 c 144,0 288,0 432,0 106,-185 94,-370 0,-556 -168,0 -265,0 -432,0 -121,180 -131,364 0,556 z" transform="translate(104,-4992.0001)" id="s68" style="fill:#dedfe0" number="68" type="seat"></path><path d="m 18184,9226 c 144,0 288,0 432,0 106,-185 94,-370 0,-556 -168,0 -265,0 -432,0 -121,180 -131,364 0,556 z" transform="translate(104,-4992.0001)" id="s58" style="fill:#dedfe0" number="58" type="seat"></path><path d="m 21776,9226 c 144,0 288,0 432,0 106,-185 94,-370 0,-556 -168,0 -265,0 -432,0 -121,180 -131,364 0,556 z" transform="translate(104,-4992.0001)" id="s73" style="fill:#dedfe0" number="73" type="seat"></path><path d="m 16474,9250 c 168,-60 146,-553 0,-602 -50,3 -91,49 -55,88 132,144 117,273 0,412 -48,57 -18,91 55,101 z" transform="translate(104,-4992.0001)" id="path8600" style="fill:#dedfe0"></path><path d="m 20066,9250 c 168,-60 146,-553 0,-602 -50,3 -91,49 -55,88 132,144 117,273 0,412 -48,57 -18,91 55,101 z" transform="translate(104,-4992.0001)" id="path8602" style="fill:#dedfe0"></path><path d="m 17674,9250 c 168,-60 146,-553 0,-602 -50,3 -91,49 -55,88 132,144 117,273 0,412 -48,57 -18,91 55,101 z" transform="translate(104,-4992.0001)" id="path8604" style="fill:#dedfe0"></path><path d="m 21265,9250 c 168,-60 146,-553 0,-602 -50,3 -91,49 -55,88 132,144 117,273 0,412 -48,57 -18,91 55,101 z" transform="translate(104,-4992.0001)" id="path8606" style="fill:#dedfe0"></path><path d="m 18863,9250 c 168,-60 146,-553 0,-602 -50,3 -91,49 -55,88 132,144 117,273 0,412 -48,57 -18,91 55,101 z" transform="translate(104,-4992.0001)" id="path8608" style="fill:#dedfe0"></path><path d="m 22455,9250 c 168,-60 146,-553 0,-602 -50,3 -91,49 -55,88 132,144 117,273 0,412 -48,57 -18,91 55,101 z" transform="translate(104,-4992.0001)" id="path8610" style="fill:#dedfe0"></path><path d="m 15954,9108 0,-77 38,0 0,-56 -38,0 0,-188 -92,0 -121,196 0,49 142,0 0,77 71,0 z m -144,-133 0,-1 42,-70 c 11,-20 20,-39 30,-60 l 1,0 c -1,21 -2,41 -2,60 l 0,71 -73,0 z m 266,-32 c -35,15 -57,42 -57,81 0,43 38,89 119,89 75,0 123,-40 123,-98 0,-41 -28,-68 -59,-80 l 0,-1 c 32,-16 47,-43 47,-71 0,-39 -31,-82 -106,-82 -64,0 -113,36 -113,90 0,28 15,54 46,71 l 0,1 z m 65,118 c -28,0 -46,-22 -45,-45 0,-23 14,-41 39,-48 29,8 50,25 50,53 0,23 -18,40 -44,40 z m -1,-229 c 28,0 39,20 39,40 0,20 -15,36 -33,41 -26,-8 -45,-22 -45,-43 0,-20 13,-37 39,-37 z" transform="translate(104,-4992.0001)" id="n48" style="fill:#fefefe;fill-rule:nonzero" number="48" type="number"></path><path d="m 15954,8472 0,-77 38,0 0,-56 -38,0 0,-188 -92,0 -121,196 0,49 142,0 0,77 71,0 z m -144,-133 0,-1 42,-70 c 11,-20 20,-39 30,-60 l 1,0 c -1,21 -2,41 -2,60 l 0,71 -73,0 z m 237,137 c 8,1 22,1 34,0 50,-2 92,-17 123,-44 35,-33 56,-81 56,-148 0,-75 -39,-138 -121,-138 -71,0 -121,53 -121,116 0,63 45,100 100,100 29,0 50,-8 65,-23 l 1,0 c -5,24 -19,45 -41,60 -17,12 -40,18 -63,20 -15,0 -23,1 -33,0 l 0,58 z m 89,-276 c 35,0 48,34 47,68 0,9 -1,14 -3,19 -7,11 -21,21 -42,21 -30,0 -45,-24 -45,-51 0,-34 18,-56 43,-56 z" transform="translate(104,-4992.0001)" id="n49" style="fill:#fefefe;fill-rule:nonzero" number="49" type="number"></path><path d="m 17166,8785 -177,0 -21,168 c 13,-2 25,-3 43,-3 64,0 90,20 90,53 0,34 -33,49 -64,49 -29,0 -58,-9 -72,-16 l -14,56 c 18,9 50,18 89,18 86,0 138,-53 138,-113 0,-38 -15,-64 -39,-81 -22,-16 -54,-23 -84,-23 -8,0 -14,0 -21,1 l 7,-49 124,0 0,-62 z m 58,304 c 19,11 54,22 95,22 81,0 131,-41 131,-98 0,-42 -31,-72 -70,-79 l 0,-1 c 40,-13 59,-41 59,-75 0,-44 -38,-80 -106,-80 -42,0 -80,12 -99,24 l 15,54 c 13,-8 41,-19 67,-19 32,0 47,14 47,34 0,27 -32,37 -57,37 l -30,0 0,54 31,0 c 33,0 65,14 65,46 0,24 -20,42 -59,42 -31,0 -61,-12 -75,-20 l -15,57 z" transform="translate(104,-4992.0001)" id="n53" style="fill:#fefefe;fill-rule:nonzero" number="53" type="number"></path><path d="m 17157,8151 -177,0 -21,168 c 13,-2 25,-3 43,-3 64,0 90,20 90,53 0,34 -33,49 -64,49 -29,0 -58,-9 -72,-16 l -14,56 c 18,9 50,18 89,18 86,0 138,-53 138,-113 0,-38 -15,-64 -39,-81 -22,-16 -54,-23 -84,-23 -8,0 -14,0 -21,1 l 7,-49 124,0 0,-62 z m 264,321 0,-77 38,0 0,-56 -38,0 0,-188 -92,0 -121,196 0,49 142,0 0,77 71,0 z m -144,-133 0,-1 42,-70 c 11,-20 20,-39 30,-60 l 1,0 c -1,21 -2,41 -2,60 l 0,71 -73,0 z" transform="translate(104,-4992.0001)" id="n54" style="fill:#fefefe;fill-rule:nonzero" number="54" type="number"></path><path d="m 18349,8787 -177,0 -21,168 c 13,-2 25,-3 43,-3 64,0 90,20 90,53 0,34 -33,49 -64,49 -29,0 -58,-9 -72,-16 l -14,56 c 18,9 50,18 89,18 86,0 138,-53 138,-113 0,-38 -15,-64 -39,-81 -22,-16 -54,-23 -84,-23 -8,0 -14,0 -21,1 l 7,-49 124,0 0,-62 z m 112,157 c -35,15 -57,42 -57,81 0,43 38,89 119,89 75,0 123,-40 123,-98 0,-41 -28,-68 -59,-80 l 0,-1 c 32,-16 47,-43 47,-71 0,-39 -31,-82 -106,-82 -64,0 -113,36 -113,90 0,28 15,54 46,71 l 0,1 z m 65,118 c -28,0 -46,-22 -45,-45 0,-23 14,-41 39,-48 29,8 50,25 50,53 0,23 -18,40 -44,40 z m -1,-229 c 28,0 39,20 39,40 0,20 -15,36 -33,41 -26,-8 -45,-22 -45,-43 0,-20 13,-37 39,-37 z" transform="translate(104,-4992.0001)" id="n58" style="fill:#fefefe;fill-rule:nonzero" number="58" type="number"></path><path d="m 18349,8154 -177,0 -21,168 c 13,-2 25,-3 43,-3 64,0 90,20 90,53 0,34 -33,49 -64,49 -29,0 -58,-9 -72,-16 l -14,56 c 18,9 50,18 89,18 86,0 138,-53 138,-113 0,-38 -15,-64 -39,-81 -22,-16 -54,-23 -84,-23 -8,0 -14,0 -21,1 l 7,-49 124,0 0,-62 z m 83,325 c 8,1 22,1 34,0 50,-2 92,-17 123,-44 35,-33 56,-81 56,-148 0,-75 -39,-138 -121,-138 -71,0 -121,53 -121,116 0,63 45,100 100,100 29,0 50,-8 65,-23 l 1,0 c -5,24 -19,45 -41,60 -17,12 -40,18 -63,20 -15,0 -23,1 -33,0 l 0,58 z m 89,-276 c 35,0 48,34 47,68 0,9 -1,14 -3,19 -7,11 -21,21 -42,21 -30,0 -45,-24 -45,-51 0,-34 18,-56 43,-56 z" transform="translate(104,-4992.0001)" id="n59" style="fill:#fefefe;fill-rule:nonzero" number="59" type="number"></path><path d="m 19551,8783 c -7,0 -16,-1 -30,1 -50,2 -92,18 -123,47 -35,33 -57,83 -57,143 0,77 42,140 128,140 69,0 118,-52 118,-116 0,-67 -45,-105 -99,-105 -30,0 -52,9 -68,25 l -1,0 c 8,-37 38,-71 105,-77 12,-1 21,-1 29,-1 l 0,-58 z m -84,276 c -35,0 -51,-31 -52,-65 0,-9 1,-15 3,-19 7,-16 24,-28 44,-28 32,0 48,26 48,55 0,33 -17,57 -43,57 z m 151,33 c 19,11 54,22 95,22 81,0 131,-41 131,-98 0,-42 -31,-72 -70,-79 l 0,-1 c 40,-13 59,-41 59,-75 0,-44 -38,-80 -106,-80 -42,0 -80,12 -99,24 l 15,54 c 13,-8 41,-19 67,-19 32,0 47,14 47,34 0,27 -32,37 -57,37 l -30,0 0,54 31,0 c 33,0 65,14 65,46 0,24 -20,42 -59,42 -31,0 -61,-12 -75,-20 l -15,57 z" transform="translate(104,-4992.0001)" id="n63" style="fill:#fefefe;fill-rule:nonzero" number="63" type="number"></path><path d="m 19543,8147 c -7,0 -16,-1 -30,1 -50,2 -92,18 -123,47 -35,33 -57,83 -57,143 0,77 42,140 128,140 69,0 118,-52 118,-116 0,-67 -45,-105 -99,-105 -30,0 -52,9 -68,25 l -1,0 c 8,-37 38,-71 105,-77 12,-1 21,-1 29,-1 l 0,-58 z m -84,276 c -35,0 -51,-31 -52,-65 0,-9 1,-15 3,-19 7,-16 24,-28 44,-28 32,0 48,26 48,55 0,33 -17,57 -43,57 z m 357,50 0,-77 38,0 0,-56 -38,0 0,-188 -92,0 -121,196 0,49 142,0 0,77 71,0 z m -144,-133 0,-1 42,-70 c 11,-20 20,-39 30,-60 l 1,0 c -1,21 -2,41 -2,60 l 0,71 -73,0 z" transform="translate(104,-4992.0001)" id="n64" style="fill:#fefefe;fill-rule:nonzero" number="64" type="number"></path><path d="m 20745,8783 c -7,0 -16,-1 -30,1 -50,2 -92,18 -123,47 -35,33 -57,83 -57,143 0,77 42,140 128,140 69,0 118,-52 118,-116 0,-67 -45,-105 -99,-105 -30,0 -52,9 -68,25 l -1,0 c 8,-37 38,-71 105,-77 12,-1 21,-1 29,-1 l 0,-58 z m -84,276 c -35,0 -51,-31 -52,-65 0,-9 1,-15 3,-19 7,-16 24,-28 44,-28 32,0 48,26 48,55 0,33 -17,57 -43,57 z m 205,-115 c -35,15 -57,42 -57,81 0,43 38,89 119,89 75,0 123,-40 123,-98 0,-41 -28,-68 -59,-80 l 0,-1 c 32,-16 47,-43 47,-71 0,-39 -31,-82 -106,-82 -64,0 -113,36 -113,90 0,28 15,54 46,71 l 0,1 z m 65,118 c -28,0 -46,-22 -45,-45 0,-23 14,-41 39,-48 29,8 50,25 50,53 0,23 -18,40 -44,40 z m -1,-229 c 28,0 39,20 39,40 0,20 -15,36 -33,41 -26,-8 -45,-22 -45,-43 0,-20 13,-37 39,-37 z" transform="translate(104,-4992.0001)" id="n68" style="fill:#fefefe;fill-rule:nonzero" number="68" type="number"></path><path d="m 20745,8147 c -7,0 -16,-1 -30,1 -50,2 -92,18 -123,47 -35,33 -57,83 -57,143 0,77 42,140 128,140 69,0 118,-52 118,-116 0,-67 -45,-105 -99,-105 -30,0 -52,9 -68,25 l -1,0 c 8,-37 38,-71 105,-77 12,-1 21,-1 29,-1 l 0,-58 z m -84,276 c -35,0 -51,-31 -52,-65 0,-9 1,-15 3,-19 7,-16 24,-28 44,-28 32,0 48,26 48,55 0,33 -17,57 -43,57 z m 176,54 c 8,1 22,1 34,0 50,-2 92,-17 123,-44 35,-33 56,-81 56,-148 0,-75 -39,-138 -121,-138 -71,0 -121,53 -121,116 0,63 45,100 100,100 29,0 50,-8 65,-23 l 1,0 c -5,24 -19,45 -41,60 -17,12 -40,18 -63,20 -15,0 -23,1 -33,0 l 0,58 z m 89,-276 c 35,0 48,34 47,68 0,9 -1,14 -3,19 -7,11 -21,21 -42,21 -30,0 -45,-24 -45,-51 0,-34 18,-56 43,-56 z" transform="translate(104,-4992.0001)" id="n69" style="fill:#fefefe;fill-rule:nonzero" number="69" type="number"></path><path d="m 21734,8787 0,62 147,0 0,1 -132,258 80,0 132,-274 0,-47 -227,0 z m 269,304 c 19,11 54,22 95,22 81,0 131,-41 131,-98 0,-42 -31,-72 -70,-79 l 0,-1 c 40,-13 59,-41 59,-75 0,-44 -38,-80 -106,-80 -42,0 -80,12 -99,24 l 15,54 c 13,-8 41,-19 67,-19 32,0 47,14 47,34 0,27 -32,37 -57,37 l -30,0 0,54 31,0 c 33,0 65,14 65,46 0,24 -20,42 -59,42 -31,0 -61,-12 -75,-20 l -15,57 z" transform="translate(104,-4992.0001)" id="n73" style="fill:#fefefe;fill-rule:nonzero" number="73" type="number"></path><path d="m 21726,8151 0,62 147,0 0,1 -132,258 80,0 132,-274 0,-47 -227,0 z m 475,321 0,-77 38,0 0,-56 -38,0 0,-188 -92,0 -121,196 0,49 142,0 0,77 71,0 z m -144,-133 0,-1 42,-70 c 11,-20 20,-39 30,-60 l 1,0 c -1,21 -2,41 -2,60 l 0,71 -73,0 z" transform="translate(104,-4992.0001)" id="n74" style="fill:#fefefe;fill-rule:nonzero" number="74" type="number"></path><path d="m 23028,8034 c 144,0 288,0 432,0 106,185 94,370 0,556 -168,0 -265,0 -432,0 -121,-180 -131,-364 0,-556 z" transform="translate(104,-4992.0001)" id="s79" style="fill:#dedfe0" number="79" type="seat"></path><path d="m 23028,9226 c 144,0 288,0 432,0 106,-185 94,-370 0,-556 -168,0 -265,0 -432,0 -121,180 -131,364 0,556 z" transform="translate(104,-4992.0001)" id="s78" style="fill:#dedfe0" number="78" type="seat"></path><path d="m 23048,9307 659,0 0,-57 c 168,-60 146,-553 0,-602 l 0,-36 c 146,-49 168,-542 0,-602 l 0,-57 -659,0 0,82 412,0 c 106,185 94,370 0,556 l -412,0 c 0,27 0,54 0,80 l 412,0 c 94,185 106,370 0,556 l -412,0 0,82 z" transform="translate(104,-4992.0001)" id="path8640" style="fill:#9d9e9e"></path><path d="m 22980,8787 0,62 147,0 0,1 -132,258 80,0 132,-274 0,-47 -227,0 z m 323,157 c -35,15 -57,42 -57,81 0,43 38,89 119,89 75,0 123,-40 123,-98 0,-41 -28,-68 -59,-80 l 0,-1 c 32,-16 47,-43 47,-71 0,-39 -31,-82 -106,-82 -64,0 -113,36 -113,90 0,28 15,54 46,71 l 0,1 z m 65,118 c -28,0 -46,-22 -45,-45 0,-23 14,-41 39,-48 29,8 50,25 50,53 0,23 -18,40 -44,40 z m -1,-229 c 28,0 39,20 39,40 0,20 -15,36 -33,41 -26,-8 -45,-22 -45,-43 0,-20 13,-37 39,-37 z" transform="translate(104,-4992.0001)" id="n78" style="fill:#fefefe;fill-rule:nonzero" number="78" type="number"></path><path d="m 22981,8151 0,62 147,0 0,1 -132,258 80,0 132,-274 0,-47 -227,0 z m 294,325 c 8,1 22,1 34,0 50,-2 92,-17 123,-44 35,-33 56,-81 56,-148 0,-75 -39,-138 -121,-138 -71,0 -121,53 -121,116 0,63 45,100 100,100 29,0 50,-8 65,-23 l 1,0 c -5,24 -19,45 -41,60 -17,12 -40,18 -63,20 -15,0 -23,1 -33,0 l 0,58 z m 89,-276 c 35,0 48,34 47,68 0,9 -1,14 -3,19 -7,11 -21,21 -42,21 -30,0 -45,-24 -45,-51 0,-34 18,-56 43,-56 z" transform="translate(104,-4992.0001)" id="n79" style="fill:#fefefe;fill-rule:nonzero" number="79" type="number"></path><path d="m 22790,7138 -335,0 0,-1942 335,0 z" transform="translate(104,-4992.0001)" id="polygon8646" style="fill:#9d9e9e"></path><path d="m 22988,5288 c 144,0 288,0 432,0 106,185 94,370 0,556 -168,0 -265,0 -432,0 -121,-180 -131,-364 0,-556 z" transform="translate(104,-4992.0001)" id="s81" style="fill:#dedfe0" number="81" type="seat"></path><path d="m 23667,5263 c 168,60 146,553 0,602 -50,-3 -91,-49 -55,-88 132,-144 117,-273 0,-412 -48,-57 -18,-91 55,-101 z" transform="translate(104,-4992.0001)" id="path8650" style="fill:#dedfe0"></path><path d="m 22988,6479 c 144,0 288,0 432,0 106,-185 94,-370 0,-556 -168,0 -265,0 -432,0 -121,180 -131,364 0,556 z" transform="translate(104,-4992.0001)" id="s80" style="fill:#dedfe0" number="80" type="seat"></path><path d="m 23667,6503 c 168,-60 146,-553 0,-602 -50,3 -91,49 -55,88 132,144 117,273 0,412 -48,57 -18,91 55,101 z" transform="translate(104,-4992.0001)" id="path8654" style="fill:#dedfe0"></path><path d="m 22994,6197 c -35,15 -57,42 -57,81 0,43 38,89 119,89 75,0 123,-40 123,-98 0,-41 -28,-68 -59,-80 l 0,-1 c 32,-16 47,-43 47,-71 0,-39 -31,-82 -106,-82 -64,0 -113,36 -113,90 0,28 15,54 46,71 l 0,1 z m 65,118 c -28,0 -46,-22 -45,-45 0,-23 14,-41 39,-48 29,8 50,25 50,53 0,23 -18,40 -44,40 z m -1,-229 c 28,0 39,20 39,40 0,20 -15,36 -33,41 -26,-8 -45,-22 -45,-43 0,-20 13,-37 39,-37 z m 276,-51 c -83,0 -122,73 -122,166 0,91 37,165 120,165 81,0 122,-69 122,-167 0,-88 -34,-164 -120,-164 z m -1,57 c 30,0 45,38 45,109 0,73 -16,110 -45,110 -29,0 -46,-35 -46,-109 0,-75 19,-110 46,-110 z" transform="translate(104,-4992.0001)" id="n80" style="fill:#fefefe;fill-rule:nonzero" number="80" type="number"></path><path d="m 23028,5561 c -35,15 -57,42 -57,81 0,43 38,89 119,89 75,0 123,-40 123,-98 0,-41 -28,-68 -59,-80 l 0,-1 c 32,-16 47,-43 47,-71 0,-39 -31,-82 -106,-82 -64,0 -113,36 -113,90 0,28 15,54 46,71 l 0,1 z m 65,118 c -28,0 -46,-22 -45,-45 0,-23 14,-41 39,-48 29,8 50,25 50,53 0,23 -18,40 -44,40 z m -1,-229 c 28,0 39,20 39,40 0,20 -15,36 -33,41 -26,-8 -45,-22 -45,-43 0,-20 13,-37 39,-37 z m 254,276 73,0 0,-321 -62,0 -85,40 12,56 61,-29 1,0 0,254 z" transform="translate(104,-4992.0001)" id="n81" style="fill:#fefefe;fill-rule:nonzero" number="81" type="number"></path><path d="m 23707,8010 c 168,60 146,553 0,602 -50,-3 -91,-49 -55,-88 132,-144 117,-273 0,-412 -48,-57 -18,-91 55,-101 z" transform="translate(104,-4992.0001)" id="path8660" style="fill:#dedfe0"></path><path d="m 23707,9250 c 168,-60 146,-553 0,-602 -50,3 -91,49 -55,88 132,144 117,273 0,412 -48,57 -18,91 55,101 z" transform="translate(104,-4992.0001)" id="path8662" style="fill:#dedfe0"></path>
<path d="m 21689.502,1333.487 73,0 0,-321 -62,0 -85,40 12,56 61,-29 1,0 0,254 z m -378.63,-324.2429 0,62 147,0 0,1 -132,258 80,0 132,-274 0,-47 -227,0 z" transform="translate(-582.87182,27.755801)" id="n71" style="fill:#fefefe;fill-rule:nonzero" number="71" type="number"></path>
   </svg>