<svg xmlns:dc="http://purl.org/dc/elements/1.1/" xmlns:cc="http://creativecommons.org/ns#" xmlns:rdf="http://www.w3.org/1999/02/22-rdf-syntax-ns#" xmlns:svg="http://www.w3.org/2000/svg" xmlns="http://www.w3.org/2000/svg" version="1.1" width="1007.0699" height="160.29921" viewBox="0 0 28421.751 4524" id="svg13922" xml:space="preserve" style="fill-rule:evenodd"><metadata id="metadata14372"><rdf:rdf><cc:work rdf:about=""><dc:format>image/svg+xml</dc:format><dc:type rdf:resource="http://purl.org/dc/dcmitype/StillImage"></dc:type><dc:title></dc:title></cc:work></rdf:rdf></metadata><defs id="defs14370">
 </defs>
 <path d="m 19311,15775 659,0 0,-57 c 168,-60 146,-553 0,-602 l 0,-36 c 146,-49 168,-542 0,-602 l 0,-57 -659,0 0,82 412,0 c 106,185 94,370 0,556 l -412,0 c 0,27 0,54 0,80 l 412,0 c 94,185 106,370 0,556 l -412,0 0,82 z" transform="translate(-1016,-11465)" id="path13926" style="fill:#9d9e9e"></path><path d="m 5336,15772 -659,0 0,-57 c -168,-60 -146,-553 0,-602 l 0,-36 c -146,-49 -168,-542 0,-602 l 0,-57 659,0 0,82 -412,0 c -106,185 -94,370 0,556 l 412,0 c 0,27 0,54 0,80 l -412,0 c -94,185 -106,370 0,556 l 412,0 0,82 z" transform="translate(-1016,-11465)" id="path13928" style="fill:#9d9e9e"></path><path d="m 13928,13036 -659,0 0,-57 c -168,-60 -146,-553 0,-602 l 0,-36 c -146,-49 -168,-542 0,-602 l 0,-57 659,0 0,82 -412,0 c -106,185 -94,370 0,556 l 412,0 c 0,27 0,54 0,80 l -412,0 c -94,185 -106,370 0,556 l 412,0 0,82 z" transform="translate(-1016,-11465)" id="path13930" style="fill:#9d9e9e"></path><path d="m 12726,13036 -659,0 0,-57 c -168,-60 -146,-553 0,-602 l 0,-36 c -146,-49 -168,-542 0,-602 l 0,-57 659,0 0,82 -412,0 c -106,185 -94,370 0,556 l 412,0 c 0,27 0,54 0,80 l -412,0 c -94,185 -106,370 0,556 l 412,0 0,82 z" transform="translate(-1016,-11465)" id="path13932" style="fill:#9d9e9e"></path><path d="m 9145,13036 -659,0 0,-57 c -168,-60 -146,-553 0,-602 l 0,-36 c -146,-49 -168,-542 0,-602 l 0,-57 659,0 0,82 -412,0 c -106,185 -94,370 0,556 l 412,0 c 0,27 0,54 0,80 l -412,0 c -94,185 -106,370 0,556 l 412,0 0,82 z" transform="translate(-1016,-11465)" id="path13934" style="fill:#9d9e9e"></path><path d="m 11526,13036 -659,0 0,-57 c -168,-60 -146,-553 0,-602 l 0,-36 c -146,-49 -168,-542 0,-602 l 0,-57 659,0 0,82 -412,0 c -106,185 -94,370 0,556 l 412,0 c 0,27 0,54 0,80 l -412,0 c -94,185 -106,370 0,556 l 412,0 0,82 z" transform="translate(-1016,-11465)" id="path13936" style="fill:#9d9e9e"></path><path d="m 7945,13036 -659,0 0,-57 c -168,-60 -146,-553 0,-602 l 0,-36 c -146,-49 -168,-542 0,-602 l 0,-57 659,0 0,82 -412,0 c -106,185 -94,370 0,556 l 412,0 c 0,27 0,54 0,80 l -412,0 c -94,185 -106,370 0,556 l 412,0 0,82 z" transform="translate(-1016,-11465)" id="path13938" style="fill:#9d9e9e"></path><path d="m 10337,13036 -659,0 0,-57 c -168,-60 -146,-553 0,-602 l 0,-36 c -146,-49 -168,-542 0,-602 l 0,-57 659,0 0,82 -412,0 c -106,185 -94,370 0,556 l 412,0 c 0,27 0,54 0,80 l -412,0 c -94,185 -106,370 0,556 l 412,0 0,82 z" transform="translate(-1016,-11465)" id="path13940" style="fill:#9d9e9e"></path><path d="m 6756,13036 -659,0 0,-57 c -168,-60 -146,-553 0,-602 l 0,-36 c -146,-49 -168,-542 0,-602 l 0,-57 659,0 0,82 -412,0 c -106,185 -94,370 0,556 l 412,0 c 0,27 0,54 0,80 l -412,0 c -94,185 -106,370 0,556 l 412,0 0,82 z" transform="translate(-1016,-11465)" id="path13942" style="fill:#9d9e9e"></path><path d="m 16318,13036 -659,0 0,-57 c -168,-60 -146,-553 0,-602 l 0,-36 c -146,-49 -168,-542 0,-602 l 0,-57 659,0 0,82 -412,0 c -106,185 -94,370 0,556 l 412,0 c 0,27 0,54 0,80 l -412,0 c -94,185 -106,370 0,556 l 412,0 0,82 z" transform="translate(-1016,-11465)" id="path13944" style="fill:#9d9e9e"></path><path d="m 18722,13036 -659,0 0,-57 c -168,-60 -146,-553 0,-602 l 0,-36 c -146,-49 -168,-542 0,-602 l 0,-57 659,0 0,82 -412,0 c -106,185 -94,370 0,556 l 412,0 c 0,27 0,54 0,80 l -412,0 c -94,185 -106,370 0,556 l 412,0 0,82 z" transform="translate(-1016,-11465)" id="path13946" style="fill:#9d9e9e"></path><path d="m 19391,13036 659,0 0,-57 c 168,-60 146,-553 0,-602 l 0,-36 c 146,-49 168,-542 0,-602 l 0,-57 -659,0 0,82 412,0 c 106,185 94,370 0,556 l -412,0 c 0,27 0,54 0,80 l 412,0 c 94,185 106,370 0,556 l -412,0 0,82 z" transform="translate(-1016,-11465)" id="path13948" style="fill:#9d9e9e"></path><path d="m 15118,13036 -659,0 0,-57 c -168,-60 -146,-553 0,-602 l 0,-36 c -146,-49 -168,-542 0,-602 l 0,-57 659,0 0,82 -412,0 c -106,185 -94,370 0,556 l 412,0 c 0,27 0,54 0,80 l -412,0 c -94,185 -106,370 0,556 l 412,0 0,82 z" transform="translate(-1016,-11465)" id="path13950" style="fill:#9d9e9e"></path><path d="m 17522,13036 -659,0 0,-57 c -168,-60 -146,-553 0,-602 l 0,-36 c -146,-49 -168,-542 0,-602 l 0,-57 659,0 0,82 -412,0 c -106,185 -94,370 0,556 l 412,0 c 0,27 0,54 0,80 l -412,0 c -94,185 -106,370 0,556 l 412,0 0,82 z" transform="translate(-1016,-11465)" id="path13952" style="fill:#9d9e9e"></path><path d="m 25577,15874 -3388,0 0,-1597 3388,0 z" transform="translate(-1016,-11465)" id="polygon13954" style="fill:#f2f4f5"></path><path d="m 24082,13051 -1939,0 0,-1382 1939,0 z" transform="translate(-1016,-11465)" id="polygon13956" style="fill:#f2f4f5"></path><path d="m 16338,11763 c -144,0 -288,0 -432,0 -106,185 -94,370 0,556 168,0 265,0 432,0 121,-180 131,-364 0,-556 z" transform="translate(-1016,-11465)" id="s15" style="fill:#dedfe0" number="15" type="seat"></path><path d="m 12746,11763 c -144,0 -288,0 -432,0 -106,185 -94,370 0,556 168,0 265,0 432,0 121,-180 131,-364 0,-556 z" transform="translate(-1016,-11465)" id="s30" style="fill:#dedfe0" number="30" type="seat"></path><path d="m 9165,11763 c -144,0 -288,0 -432,0 -106,185 -94,370 0,556 168,0 265,0 432,0 121,-180 131,-364 0,-556 z" transform="translate(-1016,-11465)" id="s45" style="fill:#dedfe0" number="45" type="seat"></path><path d="m 18742,11763 c -144,0 -288,0 -432,0 -106,185 -94,370 0,556 168,0 265,0 432,0 121,-180 131,-364 0,-556 z" transform="translate(-1016,-11465)" id="s5" style="fill:#dedfe0" number="5" type="seat"></path><path d="m 19371,11763 c 144,0 288,0 432,0 106,185 94,370 0,556 -168,0 -265,0 -432,0 -121,-180 -131,-364 0,-556 z" transform="translate(-1016,-11465)" id="s1" style="fill:#dedfe0" number="1" type="seat"></path><path d="m 15138,11763 c -144,0 -288,0 -432,0 -106,185 -94,370 0,556 168,0 265,0 432,0 121,-180 131,-364 0,-556 z" transform="translate(-1016,-11465)" id="s20" style="fill:#dedfe0" number="20" type="seat"></path><path d="m 11546,11763 c -144,0 -288,0 -432,0 -106,185 -94,370 0,556 168,0 265,0 432,0 121,-180 131,-364 0,-556 z" transform="translate(-1016,-11465)" id="s35" style="fill:#dedfe0" number="35" type="seat"></path><path d="m 7965,11763 c -144,0 -288,0 -432,0 -106,185 -94,370 0,556 168,0 265,0 432,0 121,-180 131,-364 0,-556 z" transform="translate(-1016,-11465)" id="s50" style="fill:#dedfe0" number="50" type="seat"></path><path d="m 17542,11763 c -144,0 -288,0 -432,0 -106,185 -94,370 0,556 168,0 265,0 432,0 121,-180 131,-364 0,-556 z" transform="translate(-1016,-11465)" id="s10" style="fill:#dedfe0" number="10" type="seat"></path><path d="m 13948,11763 c -144,0 -288,0 -432,0 -106,185 -94,370 0,556 168,0 265,0 432,0 121,-180 131,-364 0,-556 z" transform="translate(-1016,-11465)" id="s25" style="fill:#dedfe0" number="25" type="seat"></path><path d="m 10357,11763 c -144,0 -288,0 -432,0 -106,185 -94,370 0,556 168,0 265,0 432,0 121,-180 131,-364 0,-556 z" transform="translate(-1016,-11465)" id="s40" style="fill:#dedfe0" number="40" type="seat" hover=""></path><path d="m 6775,11763 c -144,0 -288,0 -432,0 -106,185 -94,370 0,556 168,0 265,0 432,0 121,-180 131,-364 0,-556 z" transform="translate(-1016,-11465)" id="s56" style="fill:#dedfe0" number="56" type="seat"></path><path d="m 15659,11739 c -168,60 -146,553 0,602 50,-3 91,-49 55,-88 -132,-144 -117,-273 0,-412 48,-57 18,-91 -55,-101 z" transform="translate(-1016,-11465)" id="path13982" style="fill:#dedfe0"></path><path d="m 12067,11739 c -168,60 -146,553 0,602 50,-3 91,-49 55,-88 -132,-144 -117,-273 0,-412 48,-57 18,-91 -55,-101 z" transform="translate(-1016,-11465)" id="path13984" style="fill:#dedfe0"></path><path d="m 8486,11739 c -168,60 -146,553 0,602 50,-3 91,-49 55,-88 -132,-144 -117,-273 0,-412 48,-57 18,-91 -55,-101 z" transform="translate(-1016,-11465)" id="path13986" style="fill:#dedfe0"></path><path d="m 18062,11739 c -168,60 -146,553 0,602 50,-3 91,-49 55,-88 -132,-144 -117,-273 0,-412 48,-57 18,-91 -55,-101 z" transform="translate(-1016,-11465)" id="path13988" style="fill:#dedfe0"></path><path d="m 20050,11739 c 168,60 146,553 0,602 -50,-3 -91,-49 -55,-88 132,-144 117,-273 0,-412 -48,-57 -18,-91 55,-101 z" transform="translate(-1016,-11465)" id="path13990" style="fill:#dedfe0"></path><path d="m 14459,11739 c -168,60 -146,553 0,602 50,-3 91,-49 55,-88 -132,-144 -117,-273 0,-412 48,-57 18,-91 -55,-101 z" transform="translate(-1016,-11465)" id="path13992" style="fill:#dedfe0"></path><path d="m 10867,11739 c -168,60 -146,553 0,602 50,-3 91,-49 55,-88 -132,-144 -117,-273 0,-412 48,-57 18,-91 -55,-101 z" transform="translate(-1016,-11465)" id="path13994" style="fill:#dedfe0"></path><path d="m 7286,11739 c -168,60 -146,553 0,602 50,-3 91,-49 55,-88 -132,-144 -117,-273 0,-412 48,-57 18,-91 -55,-101 z" transform="translate(-1016,-11465)" id="path13996" style="fill:#dedfe0"></path><path d="m 16863,11739 c -168,60 -146,553 0,602 50,-3 91,-49 55,-88 -132,-144 -117,-273 0,-412 48,-57 18,-91 -55,-101 z" transform="translate(-1016,-11465)" id="path13998" style="fill:#dedfe0"></path><path d="m 13269,11739 c -168,60 -146,553 0,602 50,-3 91,-49 55,-88 -132,-144 -117,-273 0,-412 48,-57 18,-91 -55,-101 z" transform="translate(-1016,-11465)" id="path14000" style="fill:#dedfe0"></path><path d="m 9678,11739 c -168,60 -146,553 0,602 50,-3 91,-49 55,-88 -132,-144 -117,-273 0,-412 48,-57 18,-91 -55,-101 z" transform="translate(-1016,-11465)" id="path14002" style="fill:#dedfe0"></path><path d="m 6096,11739 c -168,60 -146,553 0,602 50,-3 91,-49 55,-88 -132,-144 -117,-273 0,-412 48,-57 18,-91 -55,-101 z" transform="translate(-1016,-11465)" id="path14004" style="fill:#dedfe0"></path><path d="m 16338,12955 c -144,0 -288,0 -432,0 -106,-185 -94,-370 0,-556 168,0 265,0 432,0 121,180 131,364 0,556 z" transform="translate(-1016,-11465)" id="s16" style="fill:#dedfe0" number="16" type="seat"></path><path d="m 12746,12955 c -144,0 -288,0 -432,0 -106,-185 -94,-370 0,-556 168,0 265,0 432,0 121,180 131,364 0,556 z" transform="translate(-1016,-11465)" id="s31" style="fill:#dedfe0" number="31" type="seat"></path><path d="m 9165,12955 c -144,0 -288,0 -432,0 -106,-185 -94,-370 0,-556 168,0 265,0 432,0 121,180 131,364 0,556 z" transform="translate(-1016,-11465)" id="s46" style="fill:#dedfe0" number="46" type="seat"></path><path d="m 18742,12955 c -144,0 -288,0 -432,0 -106,-185 -94,-370 0,-556 168,0 265,0 432,0 121,180 131,364 0,556 z" transform="translate(-1016,-11465)" id="s6" style="fill:#dedfe0" number="6" type="seat"></path><path d="m 19371,12955 c 144,0 288,0 432,0 106,-185 94,-370 0,-556 -168,0 -265,0 -432,0 -121,180 -131,364 0,556 z" transform="translate(-1016,-11465)" id="s2" style="fill:#dedfe0" number="2" type="seat"></path><path d="m 15138,12955 c -144,0 -288,0 -432,0 -106,-185 -94,-370 0,-556 168,0 265,0 432,0 121,180 131,364 0,556 z" transform="translate(-1016,-11465)" id="s21" style="fill:#dedfe0" number="21" type="seat"></path><path d="m 11546,12955 c -144,0 -288,0 -432,0 -106,-185 -94,-370 0,-556 168,0 265,0 432,0 121,180 131,364 0,556 z" transform="translate(-1016,-11465)" id="s36" style="fill:#dedfe0" number="36" type="seat" hover=""></path><path d="m 7965,12955 c -144,0 -288,0 -432,0 -106,-185 -94,-370 0,-556 168,0 265,0 432,0 121,180 131,364 0,556 z" transform="translate(-1016,-11465)" id="s51" style="fill:#dedfe0" number="51" type="seat"></path><path d="m 17542,12955 c -144,0 -288,0 -432,0 -106,-185 -94,-370 0,-556 168,0 265,0 432,0 121,180 131,364 0,556 z" transform="translate(-1016,-11465)" id="s11" style="fill:#dedfe0" number="11" type="seat"></path><path d="m 13948,12955 c -144,0 -288,0 -432,0 -106,-185 -94,-370 0,-556 168,0 265,0 432,0 121,180 131,364 0,556 z" transform="translate(-1016,-11465)" id="s26" style="fill:#dedfe0" number="26" type="seat"></path><path d="m 10357,12955 c -144,0 -288,0 -432,0 -106,-185 -94,-370 0,-556 168,0 265,0 432,0 121,180 131,364 0,556 z" transform="translate(-1016,-11465)" id="s41" style="fill:#dedfe0" number="41" type="seat" hover=""></path><path d="m 6775,12955 c -144,0 -288,0 -432,0 -106,-185 -94,-370 0,-556 168,0 265,0 432,0 121,180 131,364 0,556 z" transform="translate(-1016,-11465)" id="s55" style="fill:#dedfe0" number="55" type="seat"></path><path d="m 15659,12979 c -168,-60 -146,-553 0,-602 50,3 91,49 55,88 -132,144 -117,273 0,412 48,57 18,91 -55,101 z" transform="translate(-1016,-11465)" id="path14030" style="fill:#dedfe0"></path><path d="m 12067,12979 c -168,-60 -146,-553 0,-602 50,3 91,49 55,88 -132,144 -117,273 0,412 48,57 18,91 -55,101 z" transform="translate(-1016,-11465)" id="path14032" style="fill:#dedfe0"></path><path d="m 8486,12979 c -168,-60 -146,-553 0,-602 50,3 91,49 55,88 -132,144 -117,273 0,412 48,57 18,91 -55,101 z" transform="translate(-1016,-11465)" id="path14034" style="fill:#dedfe0"></path><path d="m 18062,12979 c -168,-60 -146,-553 0,-602 50,3 91,49 55,88 -132,144 -117,273 0,412 48,57 18,91 -55,101 z" transform="translate(-1016,-11465)" id="path14036" style="fill:#dedfe0"></path><path d="m 20050,12979 c 168,-60 146,-553 0,-602 -50,3 -91,49 -55,88 132,144 117,273 0,412 -48,57 -18,91 55,101 z" transform="translate(-1016,-11465)" id="path14038" style="fill:#dedfe0"></path><path d="m 14459,12979 c -168,-60 -146,-553 0,-602 50,3 91,49 55,88 -132,144 -117,273 0,412 48,57 18,91 -55,101 z" transform="translate(-1016,-11465)" id="path14040" style="fill:#dedfe0"></path><path d="m 10867,12979 c -168,-60 -146,-553 0,-602 50,3 91,49 55,88 -132,144 -117,273 0,412 48,57 18,91 -55,101 z" transform="translate(-1016,-11465)" id="path14042" style="fill:#dedfe0"></path><path d="m 7286,12979 c -168,-60 -146,-553 0,-602 50,3 91,49 55,88 -132,144 -117,273 0,412 48,57 18,91 -55,101 z" transform="translate(-1016,-11465)" id="path14044" style="fill:#dedfe0"></path><path d="m 16863,12979 c -168,-60 -146,-553 0,-602 50,3 91,49 55,88 -132,144 -117,273 0,412 48,57 18,91 -55,101 z" transform="translate(-1016,-11465)" id="path14046" style="fill:#dedfe0"></path><path d="m 13269,12979 c -168,-60 -146,-553 0,-602 50,3 91,49 55,88 -132,144 -117,273 0,412 48,57 18,91 -55,101 z" transform="translate(-1016,-11465)" id="path14048" style="fill:#dedfe0"></path><path d="m 9678,12979 c -168,-60 -146,-553 0,-602 50,3 91,49 55,88 -132,144 -117,273 0,412 48,57 18,91 -55,101 z" transform="translate(-1016,-11465)" id="path14050" style="fill:#dedfe0"></path><path d="m 6096,12979 c -168,-60 -146,-553 0,-602 50,3 91,49 55,88 -132,144 -117,273 0,412 48,57 18,91 -55,101 z" transform="translate(-1016,-11465)" id="path14052" style="fill:#dedfe0"></path><path d="m 18117,15160 c 144,0 288,0 432,0 106,185 94,370 0,556 -168,0 -265,0 -432,0 -121,-180 -131,-364 0,-556 z" transform="translate(-1016,-11465)" id="s9" style="fill:#dedfe0" number="9" type="seat"></path><path d="m 16895,15160 c 144,0 288,0 432,0 106,185 94,370 0,556 -168,0 -265,0 -432,0 -121,-180 -131,-364 0,-556 z" transform="translate(-1016,-11465)" id="s14" style="fill:#dedfe0" number="14" type="seat"></path><path d="m 15704,15160 c 144,0 288,0 432,0 106,185 94,370 0,556 -168,0 -265,0 -432,0 -121,-180 -131,-364 0,-556 z" transform="translate(-1016,-11465)" id="s19" style="fill:#dedfe0" number="19" type="seat"></path><path d="m 14513,15160 c 144,0 288,0 432,0 106,185 94,370 0,556 -168,0 -265,0 -432,0 -121,-180 -131,-364 0,-556 z" transform="translate(-1016,-11465)" id="s24" style="fill:#dedfe0" number="24" type="seat"></path><path d="m 13339,15160 c 144,0 288,0 432,0 106,185 94,370 0,556 -168,0 -265,0 -432,0 -121,-180 -131,-364 0,-556 z" transform="translate(-1016,-11465)" id="s29" style="fill:#dedfe0" number="29" type="seat"></path><path d="m 12123,15160 c 144,0 288,0 432,0 106,185 94,370 0,556 -168,0 -265,0 -432,0 -121,-180 -131,-364 0,-556 z" transform="translate(-1016,-11465)" id="s34" style="fill:#dedfe0" number="34" type="seat"></path><path d="m 10915,15160 c 144,0 288,0 432,0 106,185 94,370 0,556 -168,0 -265,0 -432,0 -121,-180 -131,-364 0,-556 z" transform="translate(-1016,-11465)" id="s39" style="fill:#dedfe0" number="39" type="seat"></path><path d="m 9707,15160 c 144,0 288,0 432,0 106,185 94,370 0,556 -168,0 -265,0 -432,0 -121,-180 -131,-364 0,-556 z" transform="translate(-1016,-11465)" id="s44" style="fill:#dedfe0" number="44" type="seat"></path><path d="m 8515,15160 c 144,0 288,0 432,0 106,185 94,370 0,556 -168,0 -265,0 -432,0 -121,-180 -131,-364 0,-556 z" transform="translate(-1016,-11465)" id="s49" style="fill:#dedfe0" number="49" type="seat"></path><path d="m 7317,15160 c 144,0 288,0 432,0 106,185 94,370 0,556 -168,0 -265,0 -432,0 -121,-180 -131,-364 0,-556 z" transform="translate(-1016,-11465)" id="s54" style="fill:#dedfe0" number="54" type="seat"></path><path d="m 18117,14516 c 144,0 288,0 432,0 106,185 94,370 0,556 -168,0 -265,0 -432,0 -121,-180 -131,-364 0,-556 z" transform="translate(-1016,-11465)" id="s8" style="fill:#dedfe0" number="8" type="seat"></path><path d="m 16895,14516 c 144,0 288,0 432,0 106,185 94,370 0,556 -168,0 -265,0 -432,0 -121,-180 -131,-364 0,-556 z" transform="translate(-1016,-11465)" id="s13" style="fill:#dedfe0" number="13" type="seat"></path><path d="m 15704,14516 c 144,0 288,0 432,0 106,185 94,370 0,556 -168,0 -265,0 -432,0 -121,-180 -131,-364 0,-556 z" transform="translate(-1016,-11465)" id="s18" style="fill:#dedfe0" number="18" type="seat"></path><path d="m 14513,14516 c 144,0 288,0 432,0 106,185 94,370 0,556 -168,0 -265,0 -432,0 -121,-180 -131,-364 0,-556 z" transform="translate(-1016,-11465)" id="s23" style="fill:#dedfe0" number="23" type="seat"></path><path d="m 13339,14516 c 144,0 288,0 432,0 106,185 94,370 0,556 -168,0 -265,0 -432,0 -121,-180 -131,-364 0,-556 z" transform="translate(-1016,-11465)" id="s28" style="fill:#dedfe0" number="28" type="seat"></path><path d="m 12123,14516 c 144,0 288,0 432,0 106,185 94,370 0,556 -168,0 -265,0 -432,0 -121,-180 -131,-364 0,-556 z" transform="translate(-1016,-11465)" id="s33" style="fill:#dedfe0" number="33" type="seat"></path><path d="m 10915,14516 c 144,0 288,0 432,0 106,185 94,370 0,556 -168,0 -265,0 -432,0 -121,-180 -131,-364 0,-556 z" transform="translate(-1016,-11465)" id="s38" style="fill:#dedfe0" number="38" type="seat"></path><path d="m 9707,14516 c 144,0 288,0 432,0 106,185 94,370 0,556 -168,0 -265,0 -432,0 -121,-180 -131,-364 0,-556 z" transform="translate(-1016,-11465)" id="s43" style="fill:#dedfe0" number="43" type="seat"></path><path d="m 8515,14516 c 144,0 288,0 432,0 106,185 94,370 0,556 -168,0 -265,0 -432,0 -121,-180 -131,-364 0,-556 z" transform="translate(-1016,-11465)" id="s48" style="fill:#dedfe0" number="48" type="seat"></path><path d="m 7317,14516 c 144,0 288,0 432,0 106,185 94,370 0,556 -168,0 -265,0 -432,0 -121,-180 -131,-364 0,-556 z" transform="translate(-1016,-11465)" id="s53" style="fill:#dedfe0" number="53" type="seat"></path><path d="m 18117,13871 c 144,0 288,0 432,0 106,185 94,370 0,556 -168,0 -265,0 -432,0 -121,-180 -131,-364 0,-556 z" transform="translate(-1016,-11465)" id="s7" style="fill:#dedfe0" number="7" type="seat"></path><path d="m 16895,13871 c 144,0 288,0 432,0 106,185 94,370 0,556 -168,0 -265,0 -432,0 -121,-180 -131,-364 0,-556 z" transform="translate(-1016,-11465)" id="s12" style="fill:#dedfe0" number="12" type="seat"></path><path d="m 15704,13871 c 144,0 288,0 432,0 106,185 94,370 0,556 -168,0 -265,0 -432,0 -121,-180 -131,-364 0,-556 z" transform="translate(-1016,-11465)" id="s17" style="fill:#dedfe0" number="17" type="seat"></path><path d="m 14513,13871 c 144,0 288,0 432,0 106,185 94,370 0,556 -168,0 -265,0 -432,0 -121,-180 -131,-364 0,-556 z" transform="translate(-1016,-11465)" id="s22" style="fill:#dedfe0" number="22" type="seat"></path><path d="m 13339,13871 c 144,0 288,0 432,0 106,185 94,370 0,556 -168,0 -265,0 -432,0 -121,-180 -131,-364 0,-556 z" transform="translate(-1016,-11465)" id="s27" style="fill:#dedfe0" number="27" type="seat"></path><path d="m 12123,13871 c 144,0 288,0 432,0 106,185 94,370 0,556 -168,0 -265,0 -432,0 -121,-180 -131,-364 0,-556 z" transform="translate(-1016,-11465)" id="s32" style="fill:#dedfe0" number="32" type="seat"></path><path d="m 10915,13871 c 144,0 288,0 432,0 106,185 94,370 0,556 -168,0 -265,0 -432,0 -121,-180 -131,-364 0,-556 z" transform="translate(-1016,-11465)" id="s37" style="fill:#dedfe0" number="37" type="seat"></path><path d="m 9707,13871 c 144,0 288,0 432,0 106,185 94,370 0,556 -168,0 -265,0 -432,0 -121,-180 -131,-364 0,-556 z" transform="translate(-1016,-11465)" id="s42" style="fill:#dedfe0" number="42" type="seat"></path><path d="m 8515,13871 c 144,0 288,0 432,0 106,185 94,370 0,556 -168,0 -265,0 -432,0 -121,-180 -131,-364 0,-556 z" transform="translate(-1016,-11465)" id="s47" style="fill:#dedfe0" number="47" type="seat" hover=""></path><path d="m 7317,13871 c 144,0 288,0 432,0 106,185 94,370 0,556 -168,0 -265,0 -432,0 -121,-180 -131,-364 0,-556 z" transform="translate(-1016,-11465)" id="s52" style="fill:#dedfe0" number="52" type="seat"></path><path d="m 18796,15099 0,30 0,7 c 168,60 146,553 0,602 l 0,35 -659,0 0,-57 412,0 c 94,-185 106,-370 0,-556 l -412,0 0,-32 0,-30 0,-27 412,0 c 94,-185 106,-370 0,-556 l -412,0 0,-32 0,-30 0,-27 412,0 c 94,-185 106,-370 0,-556 l -412,0 0,-62 659,0 0,37 c 168,60 146,553 0,602 l 0,5 0,30 0,7 c 168,60 146,553 0,602 l 0,5 z" transform="translate(-1016,-11465)" id="path14114" style="fill:#9d9e9e"></path><path d="m 17574,15099 0,30 0,7 c 168,60 146,553 0,602 l 0,35 -659,0 0,-57 412,0 c 94,-185 106,-370 0,-556 l -412,0 0,-32 0,-30 0,-27 412,0 c 94,-185 106,-370 0,-556 l -412,0 0,-32 0,-30 0,-27 412,0 c 94,-185 106,-370 0,-556 l -412,0 0,-62 659,0 0,37 c 168,60 146,553 0,602 l 0,5 0,30 0,7 c 168,60 146,553 0,602 l 0,5 z" transform="translate(-1016,-11465)" id="path14116" style="fill:#9d9e9e"></path><path d="m 16383,15099 0,30 0,7 c 168,60 146,553 0,602 l 0,35 -659,0 0,-57 412,0 c 94,-185 106,-370 0,-556 l -412,0 0,-32 0,-30 0,-27 412,0 c 94,-185 106,-370 0,-556 l -412,0 0,-32 0,-30 0,-27 412,0 c 94,-185 106,-370 0,-556 l -412,0 0,-62 659,0 0,37 c 168,60 146,553 0,602 l 0,5 0,30 0,7 c 168,60 146,553 0,602 l 0,5 z" transform="translate(-1016,-11465)" id="path14118" style="fill:#9d9e9e"></path><path d="m 15193,15099 0,30 0,7 c 168,60 146,553 0,602 l 0,35 -659,0 0,-57 412,0 c 94,-185 106,-370 0,-556 l -412,0 0,-32 0,-30 0,-27 412,0 c 94,-185 106,-370 0,-556 l -412,0 0,-32 0,-30 0,-27 412,0 c 94,-185 106,-370 0,-556 l -412,0 0,-62 659,0 0,37 c 168,60 146,553 0,602 l 0,5 0,30 0,7 c 168,60 146,553 0,602 l 0,5 z" transform="translate(-1016,-11465)" id="path14120" style="fill:#9d9e9e"></path><path d="m 14019,15099 0,30 0,7 c 168,60 146,553 0,602 l 0,35 -659,0 0,-57 412,0 c 94,-185 106,-370 0,-556 l -412,0 0,-32 0,-30 0,-27 412,0 c 94,-185 106,-370 0,-556 l -412,0 0,-32 0,-30 0,-27 412,0 c 94,-185 106,-370 0,-556 l -412,0 0,-62 659,0 0,37 c 168,60 146,553 0,602 l 0,5 0,30 0,7 c 168,60 146,553 0,602 l 0,5 z" transform="translate(-1016,-11465)" id="path14122" style="fill:#9d9e9e"></path><path d="m 12802,15099 0,30 0,7 c 168,60 146,553 0,602 l 0,35 -659,0 0,-57 412,0 c 94,-185 106,-370 0,-556 l -412,0 0,-32 0,-30 0,-27 412,0 c 94,-185 106,-370 0,-556 l -412,0 0,-32 0,-30 0,-27 412,0 c 94,-185 106,-370 0,-556 l -412,0 0,-62 659,0 0,37 c 168,60 146,553 0,602 l 0,5 0,30 0,7 c 168,60 146,553 0,602 l 0,5 z" transform="translate(-1016,-11465)" id="path14124" style="fill:#9d9e9e"></path><path d="m 11594,15099 0,30 0,7 c 168,60 146,553 0,602 l 0,35 -659,0 0,-57 412,0 c 94,-185 106,-370 0,-556 l -412,0 0,-32 0,-30 0,-27 412,0 c 94,-185 106,-370 0,-556 l -412,0 0,-32 0,-30 0,-27 412,0 c 94,-185 106,-370 0,-556 l -412,0 0,-62 659,0 0,37 c 168,60 146,553 0,602 l 0,5 0,30 0,7 c 168,60 146,553 0,602 l 0,5 z" transform="translate(-1016,-11465)" id="path14126" style="fill:#9d9e9e"></path><path d="m 10386,15099 0,30 0,7 c 168,60 146,553 0,602 l 0,35 -659,0 0,-57 412,0 c 94,-185 106,-370 0,-556 l -412,0 0,-32 0,-30 0,-27 412,0 c 94,-185 106,-370 0,-556 l -412,0 0,-32 0,-30 0,-27 412,0 c 94,-185 106,-370 0,-556 l -412,0 0,-62 659,0 0,37 c 168,60 146,553 0,602 l 0,5 0,30 0,7 c 168,60 146,553 0,602 l 0,5 z" transform="translate(-1016,-11465)" id="path14128" style="fill:#9d9e9e"></path><path d="m 9194,15099 0,30 0,7 c 168,60 146,553 0,602 l 0,35 -659,0 0,-57 412,0 c 94,-185 106,-370 0,-556 l -412,0 0,-32 0,-30 0,-27 412,0 c 94,-185 106,-370 0,-556 l -412,0 0,-32 0,-30 0,-27 412,0 c 94,-185 106,-370 0,-556 l -412,0 0,-62 659,0 0,37 c 168,60 146,553 0,602 l 0,5 0,30 0,7 c 168,60 146,553 0,602 l 0,5 z" transform="translate(-1016,-11465)" id="path14130" style="fill:#9d9e9e"></path><path d="m 7996,15099 0,30 0,7 c 168,60 146,553 0,602 l 0,35 -659,0 0,-57 412,0 c 94,-185 106,-370 0,-556 l -412,0 0,-32 0,-30 0,-27 412,0 c 94,-185 106,-370 0,-556 l -412,0 0,-32 0,-30 0,-27 412,0 c 94,-185 106,-370 0,-556 l -412,0 0,-62 659,0 0,37 c 168,60 146,553 0,602 l 0,5 0,30 0,7 c 168,60 146,553 0,602 l 0,5 z" transform="translate(-1016,-11465)" id="path14132" style="fill:#9d9e9e"></path><path d="m 18796,15136 c 168,60 146,553 0,602 -50,-3 -91,-49 -55,-88 132,-144 117,-273 0,-412 -48,-57 -18,-91 55,-101 z" transform="translate(-1016,-11465)" id="path14134" style="fill:#dedfe0"></path><path d="m 17574,15136 c 168,60 146,553 0,602 -50,-3 -91,-49 -55,-88 132,-144 117,-273 0,-412 -48,-57 -18,-91 55,-101 z" transform="translate(-1016,-11465)" id="path14136" style="fill:#dedfe0"></path><path d="m 16383,15136 c 168,60 146,553 0,602 -50,-3 -91,-49 -55,-88 132,-144 117,-273 0,-412 -48,-57 -18,-91 55,-101 z" transform="translate(-1016,-11465)" id="path14138" style="fill:#dedfe0"></path><path d="m 15193,15136 c 168,60 146,553 0,602 -50,-3 -91,-49 -55,-88 132,-144 117,-273 0,-412 -48,-57 -18,-91 55,-101 z" transform="translate(-1016,-11465)" id="path14140" style="fill:#dedfe0"></path><path d="m 14019,15136 c 168,60 146,553 0,602 -50,-3 -91,-49 -55,-88 132,-144 117,-273 0,-412 -48,-57 -18,-91 55,-101 z" transform="translate(-1016,-11465)" id="path14142" style="fill:#dedfe0"></path><path d="m 12802,15136 c 168,60 146,553 0,602 -50,-3 -91,-49 -55,-88 132,-144 117,-273 0,-412 -48,-57 -18,-91 55,-101 z" transform="translate(-1016,-11465)" id="path14144" style="fill:#dedfe0"></path><path d="m 11594,15136 c 168,60 146,553 0,602 -50,-3 -91,-49 -55,-88 132,-144 117,-273 0,-412 -48,-57 -18,-91 55,-101 z" transform="translate(-1016,-11465)" id="path14146" style="fill:#dedfe0"></path><path d="m 10386,15136 c 168,60 146,553 0,602 -50,-3 -91,-49 -55,-88 132,-144 117,-273 0,-412 -48,-57 -18,-91 55,-101 z" transform="translate(-1016,-11465)" id="path14148" style="fill:#dedfe0"></path><path d="m 9194,15136 c 168,60 146,553 0,602 -50,-3 -91,-49 -55,-88 132,-144 117,-273 0,-412 -48,-57 -18,-91 55,-101 z" transform="translate(-1016,-11465)" id="path14150" style="fill:#dedfe0"></path><path d="m 7996,15136 c 168,60 146,553 0,602 -50,-3 -91,-49 -55,-88 132,-144 117,-273 0,-412 -48,-57 -18,-91 55,-101 z" transform="translate(-1016,-11465)" id="path14152" style="fill:#dedfe0"></path><path d="m 18796,14491 c 168,60 146,553 0,602 -50,-3 -91,-49 -55,-88 132,-144 117,-273 0,-412 -48,-57 -18,-91 55,-101 z" transform="translate(-1016,-11465)" id="path14154" style="fill:#dedfe0"></path><path d="m 17574,14491 c 168,60 146,553 0,602 -50,-3 -91,-49 -55,-88 132,-144 117,-273 0,-412 -48,-57 -18,-91 55,-101 z" transform="translate(-1016,-11465)" id="path14156" style="fill:#dedfe0"></path><path d="m 16383,14491 c 168,60 146,553 0,602 -50,-3 -91,-49 -55,-88 132,-144 117,-273 0,-412 -48,-57 -18,-91 55,-101 z" transform="translate(-1016,-11465)" id="path14158" style="fill:#dedfe0"></path><path d="m 15193,14491 c 168,60 146,553 0,602 -50,-3 -91,-49 -55,-88 132,-144 117,-273 0,-412 -48,-57 -18,-91 55,-101 z" transform="translate(-1016,-11465)" id="path14160" style="fill:#dedfe0"></path><path d="m 14019,14491 c 168,60 146,553 0,602 -50,-3 -91,-49 -55,-88 132,-144 117,-273 0,-412 -48,-57 -18,-91 55,-101 z" transform="translate(-1016,-11465)" id="path14162" style="fill:#dedfe0"></path><path d="m 12802,14491 c 168,60 146,553 0,602 -50,-3 -91,-49 -55,-88 132,-144 117,-273 0,-412 -48,-57 -18,-91 55,-101 z" transform="translate(-1016,-11465)" id="path14164" style="fill:#dedfe0"></path><path d="m 11594,14491 c 168,60 146,553 0,602 -50,-3 -91,-49 -55,-88 132,-144 117,-273 0,-412 -48,-57 -18,-91 55,-101 z" transform="translate(-1016,-11465)" id="path14166" style="fill:#dedfe0"></path><path d="m 10386,14491 c 168,60 146,553 0,602 -50,-3 -91,-49 -55,-88 132,-144 117,-273 0,-412 -48,-57 -18,-91 55,-101 z" transform="translate(-1016,-11465)" id="path14168" style="fill:#dedfe0"></path><path d="m 9194,14491 c 168,60 146,553 0,602 -50,-3 -91,-49 -55,-88 132,-144 117,-273 0,-412 -48,-57 -18,-91 55,-101 z" transform="translate(-1016,-11465)" id="path14170" style="fill:#dedfe0"></path><path d="m 7996,14491 c 168,60 146,553 0,602 -50,-3 -91,-49 -55,-88 132,-144 117,-273 0,-412 -48,-57 -18,-91 55,-101 z" transform="translate(-1016,-11465)" id="path14172" style="fill:#dedfe0"></path><path d="m 18796,13847 c 168,60 146,553 0,602 -50,-3 -91,-49 -55,-88 132,-144 117,-273 0,-412 -48,-57 -18,-91 55,-101 z" transform="translate(-1016,-11465)" id="path14174" style="fill:#dedfe0"></path><path d="m 17574,13847 c 168,60 146,553 0,602 -50,-3 -91,-49 -55,-88 132,-144 117,-273 0,-412 -48,-57 -18,-91 55,-101 z" transform="translate(-1016,-11465)" id="path14176" style="fill:#dedfe0"></path><path d="m 16383,13847 c 168,60 146,553 0,602 -50,-3 -91,-49 -55,-88 132,-144 117,-273 0,-412 -48,-57 -18,-91 55,-101 z" transform="translate(-1016,-11465)" id="path14178" style="fill:#dedfe0"></path><path d="m 15193,13847 c 168,60 146,553 0,602 -50,-3 -91,-49 -55,-88 132,-144 117,-273 0,-412 -48,-57 -18,-91 55,-101 z" transform="translate(-1016,-11465)" id="path14180" style="fill:#dedfe0"></path><path d="m 14019,13847 c 168,60 146,553 0,602 -50,-3 -91,-49 -55,-88 132,-144 117,-273 0,-412 -48,-57 -18,-91 55,-101 z" transform="translate(-1016,-11465)" id="path14182" style="fill:#dedfe0"></path><path d="m 12802,13847 c 168,60 146,553 0,602 -50,-3 -91,-49 -55,-88 132,-144 117,-273 0,-412 -48,-57 -18,-91 55,-101 z" transform="translate(-1016,-11465)" id="path14184" style="fill:#dedfe0"></path><path d="m 11594,13847 c 168,60 146,553 0,602 -50,-3 -91,-49 -55,-88 132,-144 117,-273 0,-412 -48,-57 -18,-91 55,-101 z" transform="translate(-1016,-11465)" id="path14186" style="fill:#dedfe0"></path><path d="m 10386,13847 c 168,60 146,553 0,602 -50,-3 -91,-49 -55,-88 132,-144 117,-273 0,-412 -48,-57 -18,-91 55,-101 z" transform="translate(-1016,-11465)" id="path14188" style="fill:#dedfe0"></path><path d="m 9194,13847 c 168,60 146,553 0,602 -50,-3 -91,-49 -55,-88 132,-144 117,-273 0,-412 -48,-57 -18,-91 55,-101 z" transform="translate(-1016,-11465)" id="path14190" style="fill:#dedfe0"></path><path d="m 7996,13847 c 168,60 146,553 0,602 -50,-3 -91,-49 -55,-88 132,-144 117,-273 0,-412 -48,-57 -18,-91 55,-101 z" transform="translate(-1016,-11465)" id="path14192" style="fill:#dedfe0"></path><path d="m 24699,11669 -22507,0 c -44,0 -79,36 -79,79 l 0,3958 c 0,44 36,79 79,79 l 22507,0 0,0 c 1226,0 3623,-132 4059,-401 696,-430 696,-2884 0,-3314 -436,-269 -2833,-401 -4059,-401 z m 0,4320 -22507,0 c -156,0 -283,-128 -283,-283 l 0,-3958 c 0,-156 128,-283 283,-283 l 22507,0 c 959,0 3546,122 4114,488 833,537 833,3011 0,3548 -568,366 -3155,488 -4114,488 l 0,0 z" transform="translate(-1016,-11465)" id="path14194" style="fill:#0275d8"></path><path d="m 19691,12837 0,-62 -122,0 0,-1 30,-25 c 47,-41 85,-84 85,-139 0,-58 -40,-100 -113,-100 -43,0 -81,15 -105,33 l 21,53 c 17,-12 41,-26 69,-26 37,0 52,21 52,47 -1,38 -35,74 -105,137 l -41,37 0,45 228,0 z" transform="translate(-1016,-11465)" id="n2" style="fill:#fefefe;fill-rule:nonzero" number="2" type="number"></path><path d="m 19651,11883 -62,0 -85,40 12,56 61,-29 1,0 0,254 73,0 z" transform="translate(-1016,-11465)" id="n1" style="fill:#fefefe;fill-rule:nonzero" number="1" type="number"></path><path d="m 20460,14403 -93,0 0,1382 93,0 0,-1382 z m 0,-2734 -93,0 0,1382 93,0 0,-1382 z" transform="translate(-1016,-11465)" id="path14200" style="fill:#0275d8"></path><path d="m 22189,14226 -93,0 0,1559 93,0 0,-1559 z m 0,-2558 -93,0 0,1382 93,0 0,-1382 z" transform="translate(-1016,-11465)" id="path14202" style="fill:#0275d8"></path><path d="m 24082,13051 93,0 0,-1382 -93,0 z" transform="translate(-1016,-11465)" id="polygon14204" style="fill:#0275d8"></path><path d="m 25549,15768 93,0 0,-4099 -93,0 z" transform="translate(-1016,-11465)" id="polygon14206" style="fill:#0275d8"></path><path d="m 4219,14403 -93,0 0,1382 93,0 0,-1382 z m 0,-2734 -93,0 0,1382 93,0 0,-1382 z" transform="translate(-1016,-11465)" id="path14208" style="fill:#0275d8"></path><path d="m 1909,12202 -379,0 0,73 -159,0 0,-282 -95,0 0,772 95,0 0,-282 159,0 0,73 379,0 0,-353 z m -102,681 -53,-30 -53,30 -53,-30 -53,30 -53,-30 -53,30 -53,-30 -53,30 0,27 -70,0 0,271 68,0 -70,143 -295,0 0,878 295,0 51,104 -49,0 0,271 70,0 0,26 53,30 53,-30 53,30 53,-30 53,30 28,-16 50,0 28,16 28,-16 127,0 0,-40 0,-66 0,-49 0,-156 0,-1124 0,-117 0,-40 0,-106 0,-8 -102,0 0,-27 z m 102,2015 -379,0 0,73 -159,0 0,-282 -95,0 0,772 95,0 0,-282 159,0 0,73 379,0 0,-353 z" transform="translate(-1016,-11465)" id="path14210" style="fill:#9d9e9e"></path><path d="m 5615,15770 335,0 0,-1946 -335,0 z" transform="translate(-1016,-11465)" id="polygon14212" style="fill:#9d9e9e"></path><path d="m 18877,13051 335,0 0,-1383 -335,0 z" transform="translate(-1016,-11465)" id="polygon14214" style="fill:#9d9e9e"></path><path d="m 18623,12512 c -7,0 -16,-1 -30,1 -50,2 -92,18 -123,47 -35,33 -57,83 -57,143 0,77 42,140 128,140 69,0 118,-52 118,-116 0,-67 -45,-105 -99,-105 -30,0 -52,9 -68,25 l -1,0 c 8,-37 38,-71 105,-77 12,-1 21,-1 29,-1 l 0,-58 z m -84,276 c -35,0 -51,-31 -52,-65 0,-9 1,-15 3,-19 7,-16 24,-28 44,-28 32,0 48,26 48,55 0,33 -17,57 -43,57 z" transform="translate(-1016,-11465)" id="n6" style="fill:#fefefe;fill-rule:nonzero" number="6" type="number"></path><path d="m 18636,11880 -177,0 -21,168 c 13,-2 25,-3 43,-3 64,0 90,20 90,53 0,34 -33,49 -64,49 -29,0 -58,-9 -72,-16 l -14,56 c 18,9 50,18 89,18 86,0 138,-53 138,-113 0,-38 -15,-64 -39,-81 -22,-16 -54,-23 -84,-23 -8,0 -14,0 -21,1 l 7,-49 124,0 0,-62 z" transform="translate(-1016,-11465)" id="n5" style="fill:#fefefe;fill-rule:nonzero" number="5" type="number"></path><path d="m 17200,12835 73,0 0,-321 -62,0 -85,40 12,56 61,-29 1,0 0,254 z m 274,0 73,0 0,-321 -62,0 -85,40 12,56 61,-29 1,0 0,254 z" transform="translate(-1016,-11465)" id="n11" style="fill:#fefefe;fill-rule:nonzero" number="11" type="number"></path><path d="m 17165,12201 73,0 0,-321 -62,0 -85,40 12,56 61,-29 1,0 0,254 z m 296,-326 c -83,0 -122,73 -122,166 0,91 37,165 120,165 81,0 122,-69 122,-167 0,-88 -34,-164 -120,-164 z m -1,57 c 30,0 45,38 45,109 0,73 -16,110 -45,110 -29,0 -46,-35 -46,-109 0,-75 19,-110 46,-110 z" transform="translate(-1016,-11465)" id="n10" style="fill:#fefefe;fill-rule:nonzero" number="10" type="number"></path><path d="m 15960,12837 73,0 0,-321 -62,0 -85,40 12,56 61,-29 1,0 0,254 z m 383,-325 c -7,0 -16,-1 -30,1 -50,2 -92,18 -123,47 -35,33 -57,83 -57,143 0,77 42,140 128,140 69,0 118,-52 118,-116 0,-67 -45,-105 -99,-105 -30,0 -52,9 -68,25 l -1,0 c 8,-37 38,-71 105,-77 12,-1 21,-1 29,-1 l 0,-58 z m -84,276 c -35,0 -51,-31 -52,-65 0,-9 1,-15 3,-19 7,-16 24,-28 44,-28 32,0 48,26 48,55 0,33 -17,57 -43,57 z" transform="translate(-1016,-11465)" id="n16" style="fill:#fefefe;fill-rule:nonzero" number="16" type="number"></path><path d="m 15966,12201 73,0 0,-321 -62,0 -85,40 12,56 61,-29 1,0 0,254 z m 393,-321 -177,0 -21,168 c 13,-2 25,-3 43,-3 64,0 90,20 90,53 0,34 -33,49 -64,49 -29,0 -58,-9 -72,-16 l -14,56 c 18,9 50,18 89,18 86,0 138,-53 138,-113 0,-38 -15,-64 -39,-81 -22,-16 -54,-23 -84,-23 -8,0 -14,0 -21,1 l 7,-49 124,0 0,-62 z" transform="translate(-1016,-11465)" id="n15" style="fill:#fefefe;fill-rule:nonzero" number="15" type="number"></path><path d="m 18231,15603 c 8,1 22,1 34,0 50,-2 92,-17 123,-44 35,-33 56,-81 56,-148 0,-75 -39,-138 -121,-138 -71,0 -121,53 -121,116 0,63 45,100 100,100 29,0 50,-8 65,-23 l 1,0 c -5,24 -19,45 -41,60 -17,12 -40,18 -63,20 -15,0 -23,1 -33,0 l 0,58 z m 89,-276 c 35,0 48,34 47,68 0,9 -1,14 -3,19 -7,11 -21,21 -42,21 -30,0 -45,-24 -45,-51 0,-34 18,-56 43,-56 z" transform="translate(-1016,-11465)" id="n9" style="fill:#fefefe;fill-rule:nonzero" number="9" type="number"></path><path d="m 18259,14789 c -35,15 -57,42 -57,81 0,43 38,89 119,89 75,0 123,-40 123,-98 0,-41 -28,-68 -59,-80 l 0,-1 c 32,-16 47,-43 47,-71 0,-39 -31,-82 -106,-82 -64,0 -113,36 -113,90 0,28 15,54 46,71 l 0,1 z m 65,118 c -28,0 -46,-22 -45,-45 0,-23 14,-41 39,-48 29,8 50,25 50,53 0,23 -18,40 -44,40 z m -1,-229 c 28,0 39,20 39,40 0,20 -15,36 -33,41 -26,-8 -45,-22 -45,-43 0,-20 13,-37 39,-37 z" transform="translate(-1016,-11465)" id="n8" style="fill:#fefefe;fill-rule:nonzero" number="8" type="number"></path><path d="m 18357,14050 0,1 -132,258 79,0 133,-273 0,-48 -227,0 0,62 z" transform="translate(-1016,-11465)" id="n7" style="fill:#fefefe;fill-rule:nonzero" number="7" type="number"></path><path d="m 16928,15601 73,0 0,-321 -62,0 -85,40 12,56 61,-29 1,0 0,254 z m 382,0 0,-77 38,0 0,-56 -38,0 0,-188 -92,0 -121,196 0,49 142,0 0,77 71,0 z m -144,-133 0,-1 42,-70 c 11,-20 20,-39 30,-60 l 1,0 c -1,21 -2,41 -2,60 l 0,71 -73,0 z" transform="translate(-1016,-11465)" id="n14" style="fill:#fefefe;fill-rule:nonzero" number="14" type="number"></path><path d="m 16937,14954 73,0 0,-321 -62,0 -85,40 12,56 61,-29 1,0 0,254 z m 176,-17 c 19,11 54,22 95,22 81,0 131,-41 131,-98 0,-42 -31,-72 -70,-79 l 0,-1 c 40,-13 59,-41 59,-75 0,-44 -38,-80 -106,-80 -42,0 -80,12 -99,24 l 15,54 c 13,-8 41,-19 67,-19 32,0 47,14 47,34 0,27 -32,37 -57,37 l -30,0 0,54 31,0 c 33,0 65,14 65,46 0,24 -20,42 -59,42 -31,0 -61,-12 -75,-20 l -15,57 z" transform="translate(-1016,-11465)" id="n13" style="fill:#fefefe;fill-rule:nonzero" number="13" type="number"></path><path d="m 16935,14309 73,0 0,-321 -62,0 -85,40 12,56 61,-29 1,0 0,254 z m 406,0 0,-62 -122,0 0,-1 30,-25 c 47,-41 85,-84 85,-139 0,-58 -40,-100 -113,-100 -43,0 -81,15 -105,33 l 21,53 c 17,-12 41,-26 69,-26 37,0 52,21 52,47 -1,38 -35,74 -105,137 l -41,37 0,45 228,0 z" transform="translate(-1016,-11465)" id="n12" style="fill:#fefefe;fill-rule:nonzero" number="12" type="number"></path><path d="m 14938,12835 0,-62 -122,0 0,-1 30,-25 c 47,-41 85,-84 85,-139 0,-58 -40,-100 -113,-100 -43,0 -81,15 -105,33 l 21,53 c 17,-12 41,-26 69,-26 37,0 52,21 52,47 -1,38 -35,74 -105,137 l -41,37 0,45 228,0 z m 142,0 73,0 0,-321 -62,0 -85,40 12,56 61,-29 1,0 0,254 z" transform="translate(-1016,-11465)" id="n21" style="fill:#fefefe;fill-rule:nonzero" number="21" type="number"></path><path d="m 14904,12201 0,-62 -122,0 0,-1 30,-25 c 47,-41 85,-84 85,-139 0,-58 -40,-100 -113,-100 -43,0 -81,15 -105,33 l 21,53 c 17,-12 41,-26 69,-26 37,0 52,21 52,47 -1,38 -35,74 -105,137 l -41,37 0,45 228,0 z m 163,-326 c -83,0 -122,73 -122,166 0,91 37,165 120,165 81,0 122,-69 122,-167 0,-88 -34,-164 -120,-164 z m -1,57 c 30,0 45,38 45,109 0,73 -16,110 -45,110 -29,0 -46,-35 -46,-109 0,-75 19,-110 46,-110 z" transform="translate(-1016,-11465)" id="n20" style="fill:#fefefe;fill-rule:nonzero" number="20" type="number"></path><path d="m 13713,12837 0,-62 -122,0 0,-1 30,-25 c 47,-41 85,-84 85,-139 0,-58 -40,-100 -113,-100 -43,0 -81,15 -105,33 l 21,53 c 17,-12 41,-26 69,-26 37,0 52,21 52,47 -1,38 -35,74 -105,137 l -41,37 0,45 228,0 z m 251,-325 c -7,0 -16,-1 -30,1 -50,2 -92,18 -123,47 -35,33 -57,83 -57,143 0,77 42,140 128,140 69,0 118,-52 118,-116 0,-67 -45,-105 -99,-105 -30,0 -52,9 -68,25 l -1,0 c 8,-37 38,-71 105,-77 12,-1 21,-1 29,-1 l 0,-58 z m -84,276 c -35,0 -51,-31 -52,-65 0,-9 1,-15 3,-19 7,-16 24,-28 44,-28 32,0 48,26 48,55 0,33 -17,57 -43,57 z" transform="translate(-1016,-11465)" id="n26" style="fill:#fefefe;fill-rule:nonzero" number="26" type="number"></path><path d="m 13719,12204 0,-62 -122,0 0,-1 30,-25 c 47,-41 85,-84 85,-139 0,-58 -40,-100 -113,-100 -43,0 -81,15 -105,33 l 21,53 c 17,-12 41,-26 69,-26 37,0 52,21 52,47 -1,38 -35,74 -105,137 l -41,37 0,45 228,0 z m 260,-321 -177,0 -21,168 c 13,-2 25,-3 43,-3 64,0 90,20 90,53 0,34 -33,49 -64,49 -29,0 -58,-9 -72,-16 l -14,56 c 18,9 50,18 89,18 86,0 138,-53 138,-113 0,-38 -15,-64 -39,-81 -22,-16 -54,-23 -84,-23 -8,0 -14,0 -21,1 l 7,-49 124,0 0,-62 z" transform="translate(-1016,-11465)" id="n25" style="fill:#fefefe;fill-rule:nonzero" number="25" type="number"></path><path d="m 12318,12821 c 19,11 54,22 95,22 81,0 131,-41 131,-98 0,-42 -31,-72 -70,-79 l 0,-1 c 40,-13 59,-41 59,-75 0,-44 -38,-80 -106,-80 -42,0 -80,12 -99,24 l 15,54 c 13,-8 41,-19 67,-19 32,0 47,14 47,34 0,27 -32,37 -57,37 l -30,0 0,54 31,0 c 33,0 65,14 65,46 0,24 -20,42 -59,42 -31,0 -61,-12 -75,-20 l -15,57 z m 372,17 73,0 0,-321 -62,0 -85,40 12,56 61,-29 1,0 0,254 z" transform="translate(-1016,-11465)" id="n31" style="fill:#fefefe;fill-rule:nonzero" number="31" type="number"></path><path d="m 12283,12185 c 19,11 54,22 95,22 81,0 131,-41 131,-98 0,-42 -31,-72 -70,-79 l 0,-1 c 40,-13 59,-41 59,-75 0,-44 -38,-80 -106,-80 -42,0 -80,12 -99,24 l 15,54 c 13,-8 41,-19 67,-19 32,0 47,14 47,34 0,27 -32,37 -57,37 l -30,0 0,54 31,0 c 33,0 65,14 65,46 0,24 -20,42 -59,42 -31,0 -61,-12 -75,-20 l -15,57 z m 394,-310 c -83,0 -122,73 -122,166 0,91 37,165 120,165 81,0 122,-69 122,-167 0,-88 -34,-164 -120,-164 z m -1,57 c 30,0 45,38 45,109 0,73 -16,110 -45,110 -29,0 -46,-35 -46,-109 0,-75 19,-110 46,-110 z" transform="translate(-1016,-11465)" id="n30" style="fill:#fefefe;fill-rule:nonzero" number="30" type="number"></path><path d="m 11082,12821 c 19,11 54,22 95,22 81,0 131,-41 131,-98 0,-42 -31,-72 -70,-79 l 0,-1 c 40,-13 59,-41 59,-75 0,-44 -38,-80 -106,-80 -42,0 -80,12 -99,24 l 15,54 c 13,-8 41,-19 67,-19 32,0 47,14 47,34 0,27 -32,37 -57,37 l -30,0 0,54 31,0 c 33,0 65,14 65,46 0,24 -20,42 -59,42 -31,0 -61,-12 -75,-20 l -15,57 z m 481,-309 c -7,0 -16,-1 -30,1 -50,2 -92,18 -123,47 -35,33 -57,83 -57,143 0,77 42,140 128,140 69,0 118,-52 118,-116 0,-67 -45,-105 -99,-105 -30,0 -52,9 -68,25 l -1,0 c 8,-37 38,-71 105,-77 12,-1 21,-1 29,-1 l 0,-58 z m -84,276 c -35,0 -51,-31 -52,-65 0,-9 1,-15 3,-19 7,-16 24,-28 44,-28 32,0 48,26 48,55 0,33 -17,57 -43,57 z" transform="translate(-1016,-11465)" id="n36" style="fill:#fefefe;fill-rule:nonzero" number="36" type="number" hover=""></path><path d="m 11088,12185 c 19,11 54,22 95,22 81,0 131,-41 131,-98 0,-42 -31,-72 -70,-79 l 0,-1 c 40,-13 59,-41 59,-75 0,-44 -38,-80 -106,-80 -42,0 -80,12 -99,24 l 15,54 c 13,-8 41,-19 67,-19 32,0 47,14 47,34 0,27 -32,37 -57,37 l -30,0 0,54 31,0 c 33,0 65,14 65,46 0,24 -20,42 -59,42 -31,0 -61,-12 -75,-20 l -15,57 z m 490,-304 -177,0 -21,168 c 13,-2 25,-3 43,-3 64,0 90,20 90,53 0,34 -33,49 -64,49 -29,0 -58,-9 -72,-16 l -14,56 c 18,9 50,18 89,18 86,0 138,-53 138,-113 0,-38 -15,-64 -39,-81 -22,-16 -54,-23 -84,-23 -8,0 -14,0 -21,1 l 7,-49 124,0 0,-62 z" transform="translate(-1016,-11465)" id="n35" style="fill:#fefefe;fill-rule:nonzero" number="35" type="number"></path><path d="m 10138,12837 0,-77 38,0 0,-56 -38,0 0,-188 -92,0 -121,196 0,49 142,0 0,77 71,0 z m -144,-133 0,-1 42,-70 c 11,-20 20,-39 30,-60 l 1,0 c -1,21 -2,41 -2,60 l 0,71 -73,0 z m 310,133 73,0 0,-321 -62,0 -85,40 12,56 61,-29 1,0 0,254 z" transform="translate(-1016,-11465)" id="n41" style="fill:#fefefe;fill-rule:nonzero" number="41" type="number" hover=""></path><path d="m 10104,12201 0,-77 38,0 0,-56 -38,0 0,-188 -92,0 -121,196 0,49 142,0 0,77 71,0 z m -144,-133 0,-1 42,-70 c 11,-20 20,-39 30,-60 l 1,0 c -1,21 -2,41 -2,60 l 0,71 -73,0 z m 331,-194 c -83,0 -122,73 -122,166 0,91 37,165 120,165 81,0 122,-69 122,-167 0,-88 -34,-164 -120,-164 z m -1,57 c 30,0 45,38 45,109 0,73 -16,110 -45,110 -29,0 -46,-35 -46,-109 0,-75 19,-110 46,-110 z" transform="translate(-1016,-11465)" id="n40" style="fill:#fefefe;fill-rule:nonzero" number="40" type="number" hover=""></path><path d="m 8910,12837 0,-77 38,0 0,-56 -38,0 0,-188 -92,0 -121,196 0,49 142,0 0,77 71,0 z m -144,-133 0,-1 42,-70 c 11,-20 20,-39 30,-60 l 1,0 c -1,21 -2,41 -2,60 l 0,71 -73,0 z m 419,-193 c -7,0 -16,-1 -30,1 -50,2 -92,18 -123,47 -35,33 -57,83 -57,143 0,77 42,140 128,140 69,0 118,-52 118,-116 0,-67 -45,-105 -99,-105 -30,0 -52,9 -68,25 l -1,0 c 8,-37 38,-71 105,-77 12,-1 21,-1 29,-1 l 0,-58 z m -84,276 c -35,0 -51,-31 -52,-65 0,-9 1,-15 3,-19 7,-16 24,-28 44,-28 32,0 48,26 48,55 0,33 -17,57 -43,57 z" transform="translate(-1016,-11465)" id="n46" style="fill:#fefefe;fill-rule:nonzero" number="46" type="number"></path><path d="m 8917,12201 0,-77 38,0 0,-56 -38,0 0,-188 -92,0 -121,196 0,49 142,0 0,77 71,0 z m -144,-133 0,-1 42,-70 c 11,-20 20,-39 30,-60 l 1,0 c -1,21 -2,41 -2,60 l 0,71 -73,0 z m 428,-188 -177,0 -21,168 c 13,-2 25,-3 43,-3 64,0 90,20 90,53 0,34 -33,49 -64,49 -29,0 -58,-9 -72,-16 l -14,56 c 18,9 50,18 89,18 86,0 138,-53 138,-113 0,-38 -15,-64 -39,-81 -22,-16 -54,-23 -84,-23 -8,0 -14,0 -21,1 l 7,-49 124,0 0,-62 z" transform="translate(-1016,-11465)" id="n45" style="fill:#fefefe;fill-rule:nonzero" number="45" type="number"></path><path d="m 7752,12514 -177,0 -21,168 c 13,-2 25,-3 43,-3 64,0 90,20 90,53 0,34 -33,49 -64,49 -29,0 -58,-9 -72,-16 l -14,56 c 18,9 50,18 89,18 86,0 138,-53 138,-113 0,-38 -15,-64 -39,-81 -22,-16 -54,-23 -84,-23 -8,0 -14,0 -21,1 l 7,-49 124,0 0,-62 z m 156,321 73,0 0,-321 -62,0 -85,40 12,56 61,-29 1,0 0,254 z" transform="translate(-1016,-11465)" id="n51" style="fill:#fefefe;fill-rule:nonzero" number="51" type="number"></path><path d="m 7718,11880 -177,0 -21,168 c 13,-2 25,-3 43,-3 64,0 90,20 90,53 0,34 -33,49 -64,49 -29,0 -58,-9 -72,-16 l -14,56 c 18,9 50,18 89,18 86,0 138,-53 138,-113 0,-38 -15,-64 -39,-81 -22,-16 -54,-23 -84,-23 -8,0 -14,0 -21,1 l 7,-49 124,0 0,-62 z m 177,-5 c -83,0 -122,73 -122,166 0,91 37,165 120,165 81,0 122,-69 122,-167 0,-88 -34,-164 -120,-164 z m -1,57 c 30,0 45,38 45,109 0,73 -16,110 -45,110 -29,0 -46,-35 -46,-109 0,-75 19,-110 46,-110 z" transform="translate(-1016,-11465)" id="n50" style="fill:#fefefe;fill-rule:nonzero" number="50" type="number"></path><path d="m 6533,12516 -177,0 -21,168 c 13,-2 25,-3 43,-3 64,0 90,20 90,53 0,34 -33,49 -64,49 -29,0 -58,-9 -72,-16 l -14,56 c 18,9 50,18 89,18 86,0 138,-53 138,-113 0,-38 -15,-64 -39,-81 -22,-16 -54,-23 -84,-23 -8,0 -14,0 -21,1 l 7,-49 124,0 0,-62 z m 274,0 -177,0 -21,168 c 13,-2 25,-3 43,-3 64,0 90,20 90,53 0,34 -33,49 -64,49 -29,0 -58,-9 -72,-16 l -14,56 c 18,9 50,18 89,18 86,0 138,-53 138,-113 0,-38 -15,-64 -39,-81 -22,-16 -54,-23 -84,-23 -8,0 -14,0 -21,1 l 7,-49 124,0 0,-62 z" transform="translate(-1016,-11465)" id="n55" style="fill:#fefefe;fill-rule:nonzero" number="55" type="number"></path><path d="m 6527,11878 -177,0 -21,168 c 13,-2 25,-3 43,-3 64,0 90,20 90,53 0,34 -33,49 -64,49 -29,0 -58,-9 -72,-16 l -14,56 c 18,9 50,18 89,18 86,0 138,-53 138,-113 0,-38 -15,-64 -39,-81 -22,-16 -54,-23 -84,-23 -8,0 -14,0 -21,1 l 7,-49 124,0 0,-62 z m 265,-4 c -7,0 -16,-1 -30,1 -50,2 -92,18 -123,47 -35,33 -57,83 -57,143 0,77 42,140 128,140 69,0 118,-52 118,-116 0,-67 -45,-105 -99,-105 -30,0 -52,9 -68,25 l -1,0 c 8,-37 38,-71 105,-77 12,-1 21,-1 29,-1 l 0,-58 z m -84,276 c -35,0 -51,-31 -52,-65 0,-9 1,-15 3,-19 7,-16 24,-28 44,-28 32,0 48,26 48,55 0,33 -17,57 -43,57 z" transform="translate(-1016,-11465)" id="n56" style="fill:#fefefe;fill-rule:nonzero" number="56" type="number"></path><path d="m 15740,15601 73,0 0,-321 -62,0 -85,40 12,56 61,-29 1,0 0,254 z m 202,4 c 8,1 22,1 34,0 50,-2 92,-17 123,-44 35,-33 56,-81 56,-148 0,-75 -39,-138 -121,-138 -71,0 -121,53 -121,116 0,63 45,100 100,100 29,0 50,-8 65,-23 l 1,0 c -5,24 -19,45 -41,60 -17,12 -40,18 -63,20 -15,0 -23,1 -33,0 l 0,58 z m 89,-276 c 35,0 48,34 47,68 0,9 -1,14 -3,19 -7,11 -21,21 -42,21 -30,0 -45,-24 -45,-51 0,-34 18,-56 43,-56 z" transform="translate(-1016,-11465)" id="n19" style="fill:#fefefe;fill-rule:nonzero" number="19" type="number"></path><path d="m 15740,14954 73,0 0,-321 -62,0 -85,40 12,56 61,-29 1,0 0,254 z m 231,-164 c -35,15 -57,42 -57,81 0,43 38,89 119,89 75,0 123,-40 123,-98 0,-41 -28,-68 -59,-80 l 0,-1 c 32,-16 47,-43 47,-71 0,-39 -31,-82 -106,-82 -64,0 -113,36 -113,90 0,28 15,54 46,71 l 0,1 z m 65,118 c -28,0 -46,-22 -45,-45 0,-23 14,-41 39,-48 29,8 50,25 50,53 0,23 -18,40 -44,40 z m -1,-229 c 28,0 39,20 39,40 0,20 -15,36 -33,41 -26,-8 -45,-22 -45,-43 0,-20 13,-37 39,-37 z" transform="translate(-1016,-11465)" id="n18" style="fill:#fefefe;fill-rule:nonzero" number="18" type="number"></path><path d="m 15743,14309 73,0 0,-321 -62,0 -85,40 12,56 61,-29 1,0 0,254 z m 182,-321 0,62 147,0 0,1 -132,258 80,0 132,-274 0,-47 -227,0 z" transform="translate(-1016,-11465)" id="n17" style="fill:#fefefe;fill-rule:nonzero" number="17" type="number"></path><path d="m 14689,15601 0,-62 -122,0 0,-1 30,-25 c 47,-41 85,-84 85,-139 0,-58 -40,-100 -113,-100 -43,0 -81,15 -105,33 l 21,53 c 17,-12 41,-26 69,-26 37,0 52,21 52,47 -1,38 -35,74 -105,137 l -41,37 0,45 228,0 z m 250,0 0,-77 38,0 0,-56 -38,0 0,-188 -92,0 -121,196 0,49 142,0 0,77 71,0 z m -144,-133 0,-1 42,-70 c 11,-20 20,-39 30,-60 l 1,0 c -1,21 -2,41 -2,60 l 0,71 -73,0 z" transform="translate(-1016,-11465)" id="n24" style="fill:#fefefe;fill-rule:nonzero" number="24" type="number"></path><path d="m 14698,14954 0,-62 -122,0 0,-1 30,-25 c 47,-41 85,-84 85,-139 0,-58 -40,-100 -113,-100 -43,0 -81,15 -105,33 l 21,53 c 17,-12 41,-26 69,-26 37,0 52,21 52,47 -1,38 -35,74 -105,137 l -41,37 0,45 228,0 z m 44,-17 c 19,11 54,22 95,22 81,0 131,-41 131,-98 0,-42 -31,-72 -70,-79 l 0,-1 c 40,-13 59,-41 59,-75 0,-44 -38,-80 -106,-80 -42,0 -80,12 -99,24 l 15,54 c 13,-8 41,-19 67,-19 32,0 47,14 47,34 0,27 -32,37 -57,37 l -30,0 0,54 31,0 c 33,0 65,14 65,46 0,24 -20,42 -59,42 -31,0 -61,-12 -75,-20 l -15,57 z" transform="translate(-1016,-11465)" id="n23" style="fill:#fefefe;fill-rule:nonzero" number="23" type="number"></path><path d="m 14696,14309 0,-62 -122,0 0,-1 30,-25 c 47,-41 85,-84 85,-139 0,-58 -40,-100 -113,-100 -43,0 -81,15 -105,33 l 21,53 c 17,-12 41,-26 69,-26 37,0 52,21 52,47 -1,38 -35,74 -105,137 l -41,37 0,45 228,0 z m 274,0 0,-62 -122,0 0,-1 30,-25 c 47,-41 85,-84 85,-139 0,-58 -40,-100 -113,-100 -43,0 -81,15 -105,33 l 21,53 c 17,-12 41,-26 69,-26 37,0 52,21 52,47 -1,38 -35,74 -105,137 l -41,37 0,45 228,0 z" transform="translate(-1016,-11465)" id="n22" style="fill:#fefefe;fill-rule:nonzero" number="22" type="number"></path><path d="m 13518,15601 0,-62 -122,0 0,-1 30,-25 c 47,-41 85,-84 85,-139 0,-58 -40,-100 -113,-100 -43,0 -81,15 -105,33 l 21,53 c 17,-12 41,-26 69,-26 37,0 52,21 52,47 -1,38 -35,74 -105,137 l -41,37 0,45 228,0 z m 69,4 c 8,1 22,1 34,0 50,-2 92,-17 123,-44 35,-33 56,-81 56,-148 0,-75 -39,-138 -121,-138 -71,0 -121,53 -121,116 0,63 45,100 100,100 29,0 50,-8 65,-23 l 1,0 c -5,24 -19,45 -41,60 -17,12 -40,18 -63,20 -15,0 -23,1 -33,0 l 0,58 z m 89,-276 c 35,0 48,34 47,68 0,9 -1,14 -3,19 -7,11 -21,21 -42,21 -30,0 -45,-24 -45,-51 0,-34 18,-56 43,-56 z" transform="translate(-1016,-11465)" id="n29" style="fill:#fefefe;fill-rule:nonzero" number="29" type="number"></path><path d="m 13518,14954 0,-62 -122,0 0,-1 30,-25 c 47,-41 85,-84 85,-139 0,-58 -40,-100 -113,-100 -43,0 -81,15 -105,33 l 21,53 c 17,-12 41,-26 69,-26 37,0 52,21 52,47 -1,38 -35,74 -105,137 l -41,37 0,45 228,0 z m 98,-164 c -35,15 -57,42 -57,81 0,43 38,89 119,89 75,0 123,-40 123,-98 0,-41 -28,-68 -59,-80 l 0,-1 c 32,-16 47,-43 47,-71 0,-39 -31,-82 -106,-82 -64,0 -113,36 -113,90 0,28 15,54 46,71 l 0,1 z m 65,118 c -28,0 -46,-22 -45,-45 0,-23 14,-41 39,-48 29,8 50,25 50,53 0,23 -18,40 -44,40 z m -1,-229 c 28,0 39,20 39,40 0,20 -15,36 -33,41 -26,-8 -45,-22 -45,-43 0,-20 13,-37 39,-37 z" transform="translate(-1016,-11465)" id="n28" style="fill:#fefefe;fill-rule:nonzero" number="28" type="number"></path><path d="m 13521,14309 0,-62 -122,0 0,-1 30,-25 c 47,-41 85,-84 85,-139 0,-58 -40,-100 -113,-100 -43,0 -81,15 -105,33 l 21,53 c 17,-12 41,-26 69,-26 37,0 52,21 52,47 -1,38 -35,74 -105,137 l -41,37 0,45 228,0 z m 49,-321 0,62 147,0 0,1 -132,258 80,0 132,-274 0,-47 -227,0 z" transform="translate(-1016,-11465)" id="n27" style="fill:#fefefe;fill-rule:nonzero" number="27" type="number"></path><path d="m 12070,15584 c 19,11 54,22 95,22 81,0 131,-41 131,-98 0,-42 -31,-72 -70,-79 l 0,-1 c 40,-13 59,-41 59,-75 0,-44 -38,-80 -106,-80 -42,0 -80,12 -99,24 l 15,54 c 13,-8 41,-19 67,-19 32,0 47,14 47,34 0,27 -32,37 -57,37 l -30,0 0,54 31,0 c 33,0 65,14 65,46 0,24 -20,42 -59,42 -31,0 -61,-12 -75,-20 l -15,57 z m 480,17 0,-77 38,0 0,-56 -38,0 0,-188 -92,0 -121,196 0,49 142,0 0,77 71,0 z m -144,-133 0,-1 42,-70 c 11,-20 20,-39 30,-60 l 1,0 c -1,21 -2,41 -2,60 l 0,71 -73,0 z" transform="translate(-1016,-11465)" id="n34" style="fill:#fefefe;fill-rule:nonzero" number="34" type="number"></path><path d="m 12079,14937 c 19,11 54,22 95,22 81,0 131,-41 131,-98 0,-42 -31,-72 -70,-79 l 0,-1 c 40,-13 59,-41 59,-75 0,-44 -38,-80 -106,-80 -42,0 -80,12 -99,24 l 15,54 c 13,-8 41,-19 67,-19 32,0 47,14 47,34 0,27 -32,37 -57,37 l -30,0 0,54 31,0 c 33,0 65,14 65,46 0,24 -20,42 -59,42 -31,0 -61,-12 -75,-20 l -15,57 z m 274,0 c 19,11 54,22 95,22 81,0 131,-41 131,-98 0,-42 -31,-72 -70,-79 l 0,-1 c 40,-13 59,-41 59,-75 0,-44 -38,-80 -106,-80 -42,0 -80,12 -99,24 l 15,54 c 13,-8 41,-19 67,-19 32,0 47,14 47,34 0,27 -32,37 -57,37 l -30,0 0,54 31,0 c 33,0 65,14 65,46 0,24 -20,42 -59,42 -31,0 -61,-12 -75,-20 l -15,57 z" transform="translate(-1016,-11465)" id="n33" style="fill:#fefefe;fill-rule:nonzero" number="33" type="number"></path><path d="m 12077,14293 c 19,11 54,22 95,22 81,0 131,-41 131,-98 0,-42 -31,-72 -70,-79 l 0,-1 c 40,-13 59,-41 59,-75 0,-44 -38,-80 -106,-80 -42,0 -80,12 -99,24 l 15,54 c 13,-8 41,-19 67,-19 32,0 47,14 47,34 0,27 -32,37 -57,37 l -30,0 0,54 31,0 c 33,0 65,14 65,46 0,24 -20,42 -59,42 -31,0 -61,-12 -75,-20 l -15,57 z m 504,17 0,-62 -122,0 0,-1 30,-25 c 47,-41 85,-84 85,-139 0,-58 -40,-100 -113,-100 -43,0 -81,15 -105,33 l 21,53 c 17,-12 41,-26 69,-26 37,0 52,21 52,47 -1,38 -35,74 -105,137 l -41,37 0,45 228,0 z" transform="translate(-1016,-11465)" id="n32" style="fill:#fefefe;fill-rule:nonzero" number="32" type="number"></path><path d="m 10865,15584 c 19,11 54,22 95,22 81,0 131,-41 131,-98 0,-42 -31,-72 -70,-79 l 0,-1 c 40,-13 59,-41 59,-75 0,-44 -38,-80 -106,-80 -42,0 -80,12 -99,24 l 15,54 c 13,-8 41,-19 67,-19 32,0 47,14 47,34 0,27 -32,37 -57,37 l -30,0 0,54 31,0 c 33,0 65,14 65,46 0,24 -20,42 -59,42 -31,0 -61,-12 -75,-20 l -15,57 z m 299,21 c 8,1 22,1 34,0 50,-2 92,-17 123,-44 35,-33 56,-81 56,-148 0,-75 -39,-138 -121,-138 -71,0 -121,53 -121,116 0,63 45,100 100,100 29,0 50,-8 65,-23 l 1,0 c -5,24 -19,45 -41,60 -17,12 -40,18 -63,20 -15,0 -23,1 -33,0 l 0,58 z m 89,-276 c 35,0 48,34 47,68 0,9 -1,14 -3,19 -7,11 -21,21 -42,21 -30,0 -45,-24 -45,-51 0,-34 18,-56 43,-56 z" transform="translate(-1016,-11465)" id="n39" style="fill:#fefefe;fill-rule:nonzero" number="39" type="number"></path><path d="m 10864,14937 c 19,11 54,22 95,22 81,0 131,-41 131,-98 0,-42 -31,-72 -70,-79 l 0,-1 c 40,-13 59,-41 59,-75 0,-44 -38,-80 -106,-80 -42,0 -80,12 -99,24 l 15,54 c 13,-8 41,-19 67,-19 32,0 47,14 47,34 0,27 -32,37 -57,37 l -30,0 0,54 31,0 c 33,0 65,14 65,46 0,24 -20,42 -59,42 -31,0 -61,-12 -75,-20 l -15,57 z m 328,-148 c -35,15 -57,42 -57,81 0,43 38,89 119,89 75,0 123,-40 123,-98 0,-41 -28,-68 -59,-80 l 0,-1 c 32,-16 47,-43 47,-71 0,-39 -31,-82 -106,-82 -64,0 -113,36 -113,90 0,28 15,54 46,71 l 0,1 z m 65,118 c -28,0 -46,-22 -45,-45 0,-23 14,-41 39,-48 29,8 50,25 50,53 0,23 -18,40 -44,40 z m -1,-229 c 28,0 39,20 39,40 0,20 -15,36 -33,41 -26,-8 -45,-22 -45,-43 0,-20 13,-37 39,-37 z" transform="translate(-1016,-11465)" id="n38" style="fill:#fefefe;fill-rule:nonzero" number="38" type="number"></path><path d="m 10868,14293 c 19,11 54,22 95,22 81,0 131,-41 131,-98 0,-42 -31,-72 -70,-79 l 0,-1 c 40,-13 59,-41 59,-75 0,-44 -38,-80 -106,-80 -42,0 -80,12 -99,24 l 15,54 c 13,-8 41,-19 67,-19 32,0 47,14 47,34 0,27 -32,37 -57,37 l -30,0 0,54 31,0 c 33,0 65,14 65,46 0,24 -20,42 -59,42 -31,0 -61,-12 -75,-20 l -15,57 z m 280,-304 0,62 147,0 0,1 -132,258 80,0 132,-274 0,-47 -227,0 z" transform="translate(-1016,-11465)" id="n37" style="fill:#fefefe;fill-rule:nonzero" number="37" type="number"></path><path d="m 9864,15601 0,-77 38,0 0,-56 -38,0 0,-188 -92,0 -121,196 0,49 142,0 0,77 71,0 z m -144,-133 0,-1 42,-70 c 11,-20 20,-39 30,-60 l 1,0 c -1,21 -2,41 -2,60 l 0,71 -73,0 z m 418,133 0,-77 38,0 0,-56 -38,0 0,-188 -92,0 -121,196 0,49 142,0 0,77 71,0 z m -144,-133 0,-1 42,-70 c 11,-20 20,-39 30,-60 l 1,0 c -1,21 -2,41 -2,60 l 0,71 -73,0 z" transform="translate(-1016,-11465)" id="n44" style="fill:#fefefe;fill-rule:nonzero" number="44" type="number"></path><path d="m 9872,14954 0,-77 38,0 0,-56 -38,0 0,-188 -92,0 -121,196 0,49 142,0 0,77 71,0 z m -144,-133 0,-1 42,-70 c 11,-20 20,-39 30,-60 l 1,0 c -1,21 -2,41 -2,60 l 0,71 -73,0 z m 212,116 c 19,11 54,22 95,22 81,0 131,-41 131,-98 0,-42 -31,-72 -70,-79 l 0,-1 c 40,-13 59,-41 59,-75 0,-44 -38,-80 -106,-80 -42,0 -80,12 -99,24 l 15,54 c 13,-8 41,-19 67,-19 32,0 47,14 47,34 0,27 -32,37 -57,37 l -30,0 0,54 31,0 c 33,0 65,14 65,46 0,24 -20,42 -59,42 -31,0 -61,-12 -75,-20 l -15,57 z" transform="translate(-1016,-11465)" id="n43" style="fill:#fefefe;fill-rule:nonzero" number="43" type="number"></path><path d="m 9871,14309 0,-77 38,0 0,-56 -38,0 0,-188 -92,0 -121,196 0,49 142,0 0,77 71,0 z m -144,-133 0,-1 42,-70 c 11,-20 20,-39 30,-60 l 1,0 c -1,21 -2,41 -2,60 l 0,71 -73,0 z m 442,133 0,-62 -122,0 0,-1 30,-25 c 47,-41 85,-84 85,-139 0,-58 -40,-100 -113,-100 -43,0 -81,15 -105,33 l 21,53 c 17,-12 41,-26 69,-26 37,0 52,21 52,47 -1,38 -35,74 -105,137 l -41,37 0,45 228,0 z" transform="translate(-1016,-11465)" id="n42" style="fill:#fefefe;fill-rule:nonzero" number="42" type="number"></path><path d="m 8675,15601 0,-77 38,0 0,-56 -38,0 0,-188 -92,0 -121,196 0,49 142,0 0,77 71,0 z m -144,-133 0,-1 42,-70 c 11,-20 20,-39 30,-60 l 1,0 c -1,21 -2,41 -2,60 l 0,71 -73,0 z m 237,137 c 8,1 22,1 34,0 50,-2 92,-17 123,-44 35,-33 56,-81 56,-148 0,-75 -39,-138 -121,-138 -71,0 -121,53 -121,116 0,63 45,100 100,100 29,0 50,-8 65,-23 l 1,0 c -5,24 -19,45 -41,60 -17,12 -40,18 -63,20 -15,0 -23,1 -33,0 l 0,58 z m 89,-276 c 35,0 48,34 47,68 0,9 -1,14 -3,19 -7,11 -21,21 -42,21 -30,0 -45,-24 -45,-51 0,-34 18,-56 43,-56 z" transform="translate(-1016,-11465)" id="n49" style="fill:#fefefe;fill-rule:nonzero" number="49" type="number"></path><path d="m 8674,14954 0,-77 38,0 0,-56 -38,0 0,-188 -92,0 -121,196 0,49 142,0 0,77 71,0 z m -144,-133 0,-1 42,-70 c 11,-20 20,-39 30,-60 l 1,0 c -1,21 -2,41 -2,60 l 0,71 -73,0 z m 266,-32 c -35,15 -57,42 -57,81 0,43 38,89 119,89 75,0 123,-40 123,-98 0,-41 -28,-68 -59,-80 l 0,-1 c 32,-16 47,-43 47,-71 0,-39 -31,-82 -106,-82 -64,0 -113,36 -113,90 0,28 15,54 46,71 l 0,1 z m 65,118 c -28,0 -46,-22 -45,-45 0,-23 14,-41 39,-48 29,8 50,25 50,53 0,23 -18,40 -44,40 z m -1,-229 c 28,0 39,20 39,40 0,20 -15,36 -33,41 -26,-8 -45,-22 -45,-43 0,-20 13,-37 39,-37 z" transform="translate(-1016,-11465)" id="n48" style="fill:#fefefe;fill-rule:nonzero" number="48" type="number"></path><path d="m 8678,14309 0,-77 38,0 0,-56 -38,0 0,-188 -92,0 -121,196 0,49 142,0 0,77 71,0 z m -144,-133 0,-1 42,-70 c 11,-20 20,-39 30,-60 l 1,0 c -1,21 -2,41 -2,60 l 0,71 -73,0 z m 217,-188 0,62 147,0 0,1 -132,258 80,0 132,-274 0,-47 -227,0 z" transform="translate(-1016,-11465)" id="n47" style="fill:#fefefe;fill-rule:nonzero" number="47" type="number" hover=""></path><path d="m 7479,15280 -177,0 -21,168 c 13,-2 25,-3 43,-3 64,0 90,20 90,53 0,34 -33,49 -64,49 -29,0 -58,-9 -72,-16 l -14,56 c 18,9 50,18 89,18 86,0 138,-53 138,-113 0,-38 -15,-64 -39,-81 -22,-16 -54,-23 -84,-23 -8,0 -14,0 -21,1 l 7,-49 124,0 0,-62 z m 264,321 0,-77 38,0 0,-56 -38,0 0,-188 -92,0 -121,196 0,49 142,0 0,77 71,0 z m -144,-133 0,-1 42,-70 c 11,-20 20,-39 30,-60 l 1,0 c -1,21 -2,41 -2,60 l 0,71 -73,0 z" transform="translate(-1016,-11465)" id="n54" style="fill:#fefefe;fill-rule:nonzero" number="54" type="number"></path><path d="m 7488,14633 -177,0 -21,168 c 13,-2 25,-3 43,-3 64,0 90,20 90,53 0,34 -33,49 -64,49 -29,0 -58,-9 -72,-16 l -14,56 c 18,9 50,18 89,18 86,0 138,-53 138,-113 0,-38 -15,-64 -39,-81 -22,-16 -54,-23 -84,-23 -8,0 -14,0 -21,1 l 7,-49 124,0 0,-62 z m 58,304 c 19,11 54,22 95,22 81,0 131,-41 131,-98 0,-42 -31,-72 -70,-79 l 0,-1 c 40,-13 59,-41 59,-75 0,-44 -38,-80 -106,-80 -42,0 -80,12 -99,24 l 15,54 c 13,-8 41,-19 67,-19 32,0 47,14 47,34 0,27 -32,37 -57,37 l -30,0 0,54 31,0 c 33,0 65,14 65,46 0,24 -20,42 -59,42 -31,0 -61,-12 -75,-20 l -15,57 z" transform="translate(-1016,-11465)" id="n53" style="fill:#fefefe;fill-rule:nonzero" number="53" type="number"></path><path d="m 7486,13988 -177,0 -21,168 c 13,-2 25,-3 43,-3 64,0 90,20 90,53 0,34 -33,49 -64,49 -29,0 -58,-9 -72,-16 l -14,56 c 18,9 50,18 89,18 86,0 138,-53 138,-113 0,-38 -15,-64 -39,-81 -22,-16 -54,-23 -84,-23 -8,0 -14,0 -21,1 l 7,-49 124,0 0,-62 z m 288,321 0,-62 -122,0 0,-1 30,-25 c 47,-41 85,-84 85,-139 0,-58 -40,-100 -113,-100 -43,0 -81,15 -105,33 l 21,53 c 17,-12 41,-26 69,-26 37,0 52,21 52,47 -1,38 -35,74 -105,137 l -41,37 0,45 228,0 z" transform="translate(-1016,-11465)" id="n52" style="fill:#fefefe;fill-rule:nonzero" number="52" type="number"></path><path d="m 5356,14499 c -144,0 -288,0 -432,0 -106,185 -94,370 0,556 168,0 265,0 432,0 121,-180 131,-364 0,-556 z" transform="translate(-1016,-11465)" id="s60" style="fill:#dedfe0" number="60" type="seat"></path><path d="m 4677,14475 c -168,60 -146,553 0,602 50,-3 91,-49 55,-88 -132,-144 -117,-273 0,-412 48,-57 18,-91 -55,-101 z" transform="translate(-1016,-11465)" id="path14322" style="fill:#dedfe0"></path><path d="m 5356,15691 c -144,0 -288,0 -432,0 -106,-185 -94,-370 0,-556 168,0 265,0 432,0 121,180 131,364 0,556 z" transform="translate(-1016,-11465)" id="s61" style="fill:#dedfe0" number="61" type="seat"></path><path d="m 4677,15715 c -168,-60 -146,-553 0,-602 50,3 91,49 55,88 -132,144 -117,273 0,412 48,57 18,91 -55,101 z" transform="translate(-1016,-11465)" id="path14326" style="fill:#dedfe0"></path><path d="m 5136,15248 c -7,0 -16,-1 -30,1 -50,2 -92,18 -123,47 -35,33 -57,83 -57,143 0,77 42,140 128,140 69,0 118,-52 118,-116 0,-67 -45,-105 -99,-105 -30,0 -52,9 -68,25 l -1,0 c 8,-37 38,-71 105,-77 12,-1 21,-1 29,-1 l 0,-58 z m -84,276 c -35,0 -51,-31 -52,-65 0,-9 1,-15 3,-19 7,-16 24,-28 44,-28 32,0 48,26 48,55 0,33 -17,57 -43,57 z m 249,50 73,0 0,-321 -62,0 -85,40 12,56 61,-29 1,0 0,254 z" transform="translate(-1016,-11465)" id="n61" style="fill:#fefefe;fill-rule:nonzero" number="61" type="number"></path><path d="m 5102,14609 c -7,0 -16,-1 -30,1 -50,2 -92,18 -123,47 -35,33 -57,83 -57,143 0,77 42,140 128,140 69,0 118,-52 118,-116 0,-67 -45,-105 -99,-105 -30,0 -52,9 -68,25 l -1,0 c 8,-37 38,-71 105,-77 12,-1 21,-1 29,-1 l 0,-58 z m -84,276 c -35,0 -51,-31 -52,-65 0,-9 1,-15 3,-19 7,-16 24,-28 44,-28 32,0 48,26 48,55 0,33 -17,57 -43,57 z m 271,-277 c -83,0 -122,73 -122,166 0,91 37,165 120,165 81,0 122,-69 122,-167 0,-88 -34,-164 -120,-164 z m -1,57 c 30,0 45,38 45,109 0,73 -16,110 -45,110 -29,0 -46,-35 -46,-109 0,-75 19,-110 46,-110 z" transform="translate(-1016,-11465)" id="n60" style="fill:#fefefe;fill-rule:nonzero" number="60" type="number"></path><path d="m 22302,11902 0,628 311,0 0,-628 -311,0 z m 390,0 0,628 361,0 c 165,0 300,-135 300,-300 l 0,-28 c 0,-165 -135,-300 -300,-300 l -361,0 z m 154,154 207,0 c 80,0 146,66 146,146 l 0,28 c 0,80 -66,146 -146,146 l -207,0 0,-320 z" transform="translate(-1016,-11465)" id="path14332" style="fill:#c2c7cc"></path><path d="m 22302,14749 0,628 311,0 0,-628 -311,0 z m 390,0 0,628 361,0 c 165,0 300,-135 300,-300 l 0,-28 c 0,-165 -135,-300 -300,-300 l -361,0 z m 154,154 207,0 c 80,0 146,66 146,146 l 0,28 c 0,80 -66,146 -146,146 l -207,0 0,-320 z" transform="translate(-1016,-11465)" id="path14334" style="fill:#c2c7cc"></path><path d="m 6144,15160 c 144,0 288,0 432,0 106,185 94,370 0,556 -168,0 -265,0 -432,0 -121,-180 -131,-364 0,-556 z" transform="translate(-1016,-11465)" id="s59" style="fill:#dedfe0" number="59" type="seat"></path><path d="m 6144,14516 c 144,0 288,0 432,0 106,185 94,370 0,556 -168,0 -265,0 -432,0 -121,-180 -131,-364 0,-556 z" transform="translate(-1016,-11465)" id="s58" style="fill:#dedfe0" number="58" type="seat"></path><path d="m 6144,13871 c 144,0 288,0 432,0 106,185 94,370 0,556 -168,0 -265,0 -432,0 -121,-180 -131,-364 0,-556 z" transform="translate(-1016,-11465)" id="s57" style="fill:#dedfe0" number="57" type="seat"></path><path d="m 6823,15099 0,30 0,7 c 168,60 146,553 0,602 l 0,35 -659,0 0,-57 412,0 c 94,-185 106,-370 0,-556 l -412,0 0,-32 0,-30 0,-27 412,0 c 94,-185 106,-370 0,-556 l -412,0 0,-32 0,-30 0,-27 412,0 c 94,-185 106,-370 0,-556 l -412,0 0,-62 659,0 0,37 c 168,60 146,553 0,602 l 0,5 0,30 0,7 c 168,60 146,553 0,602 l 0,5 z" transform="translate(-1016,-11465)" id="path14342" style="fill:#9d9e9e"></path><path d="m 6823,15136 c 168,60 146,553 0,602 -50,-3 -91,-49 -55,-88 132,-144 117,-273 0,-412 -48,-57 -18,-91 55,-101 z" transform="translate(-1016,-11465)" id="path14344" style="fill:#dedfe0"></path><path d="m 6823,14491 c 168,60 146,553 0,602 -50,-3 -91,-49 -55,-88 132,-144 117,-273 0,-412 -48,-57 -18,-91 55,-101 z" transform="translate(-1016,-11465)" id="path14346" style="fill:#dedfe0"></path><path d="m 6823,13847 c 168,60 146,553 0,602 -50,-3 -91,-49 -55,-88 132,-144 117,-273 0,-412 -48,-57 -18,-91 55,-101 z" transform="translate(-1016,-11465)" id="path14348" style="fill:#dedfe0"></path><path d="m 6309,15280 -177,0 -21,168 c 13,-2 25,-3 43,-3 64,0 90,20 90,53 0,34 -33,49 -64,49 -29,0 -58,-9 -72,-16 l -14,56 c 18,9 50,18 89,18 86,0 138,-53 138,-113 0,-38 -15,-64 -39,-81 -22,-16 -54,-23 -84,-23 -8,0 -14,0 -21,1 l 7,-49 124,0 0,-62 z m 83,325 c 8,1 22,1 34,0 50,-2 92,-17 123,-44 35,-33 56,-81 56,-148 0,-75 -39,-138 -121,-138 -71,0 -121,53 -121,116 0,63 45,100 100,100 29,0 50,-8 65,-23 l 1,0 c -5,24 -19,45 -41,60 -17,12 -40,18 -63,20 -15,0 -23,1 -33,0 l 0,58 z m 89,-276 c 35,0 48,34 47,68 0,9 -1,14 -3,19 -7,11 -21,21 -42,21 -30,0 -45,-24 -45,-51 0,-34 18,-56 43,-56 z" transform="translate(-1016,-11465)" id="n59" style="fill:#fefefe;fill-rule:nonzero" number="59" type="number"></path><path d="m 6308,14633 -177,0 -21,168 c 13,-2 25,-3 43,-3 64,0 90,20 90,53 0,34 -33,49 -64,49 -29,0 -58,-9 -72,-16 l -14,56 c 18,9 50,18 89,18 86,0 138,-53 138,-113 0,-38 -15,-64 -39,-81 -22,-16 -54,-23 -84,-23 -8,0 -14,0 -21,1 l 7,-49 124,0 0,-62 z m 112,157 c -35,15 -57,42 -57,81 0,43 38,89 119,89 75,0 123,-40 123,-98 0,-41 -28,-68 -59,-80 l 0,-1 c 32,-16 47,-43 47,-71 0,-39 -31,-82 -106,-82 -64,0 -113,36 -113,90 0,28 15,54 46,71 l 0,1 z m 65,118 c -28,0 -46,-22 -45,-45 0,-23 14,-41 39,-48 29,8 50,25 50,53 0,23 -18,40 -44,40 z m -1,-229 c 28,0 39,20 39,40 0,20 -15,36 -33,41 -26,-8 -45,-22 -45,-43 0,-20 13,-37 39,-37 z" transform="translate(-1016,-11465)" id="n58" style="fill:#fefefe;fill-rule:nonzero" number="58" type="number"></path><path d="m 6312,13988 -177,0 -21,168 c 13,-2 25,-3 43,-3 64,0 90,20 90,53 0,34 -33,49 -64,49 -29,0 -58,-9 -72,-16 l -14,56 c 18,9 50,18 89,18 86,0 138,-53 138,-113 0,-38 -15,-64 -39,-81 -22,-16 -54,-23 -84,-23 -8,0 -14,0 -21,1 l 7,-49 124,0 0,-62 z m 63,0 0,62 147,0 0,1 -132,258 80,0 132,-274 0,-47 -227,0 z" transform="translate(-1016,-11465)" id="n57" style="fill:#fefefe;fill-rule:nonzero" number="57" type="number"></path><path d="m 19291,14502 c 144,0 288,0 432,0 106,185 94,370 0,556 -168,0 -265,0 -432,0 -121,-180 -131,-364 0,-556 z" transform="translate(-1016,-11465)" id="s3" style="fill:#dedfe0" number="3" type="seat"></path><path d="m 19970,14478 c 168,60 146,553 0,602 -50,-3 -91,-49 -55,-88 132,-144 117,-273 0,-412 -48,-57 -18,-91 55,-101 z" transform="translate(-1016,-11465)" id="path14358" style="fill:#dedfe0"></path><path d="m 19291,15694 c 144,0 288,0 432,0 106,-185 94,-370 0,-556 -168,0 -265,0 -432,0 -121,180 -131,364 0,556 z" transform="translate(-1016,-11465)" id="s4" style="fill:#dedfe0" number="4" type="seat"></path><path d="m 19970,15718 c 168,-60 146,-553 0,-602 -50,3 -91,49 -55,88 132,144 117,273 0,412 -48,57 -18,91 55,101 z" transform="translate(-1016,-11465)" id="path14362" style="fill:#dedfe0"></path><path d="m 19585,15576 0,-77 38,0 0,-56 -38,0 0,-188 -92,0 -121,196 0,49 142,0 0,77 71,0 z m -144,-133 0,-1 42,-70 c 11,-20 20,-39 30,-60 l 1,0 c -1,21 -2,41 -2,60 l 0,71 -73,0 z" transform="translate(-1016,-11465)" id="n4" style="fill:#fefefe;fill-rule:nonzero" number="4" type="number"></path><path d="m 19384,14926 c 19,11 54,22 95,22 81,0 131,-41 131,-98 0,-42 -31,-72 -70,-79 l 0,-1 c 40,-13 59,-41 59,-75 0,-44 -38,-80 -106,-80 -42,0 -80,12 -99,24 l 15,54 c 13,-8 41,-19 67,-19 32,0 47,14 47,34 0,27 -32,37 -57,37 l -30,0 0,54 31,0 c 33,0 65,14 65,46 0,24 -20,42 -59,42 -31,0 -61,-12 -75,-20 l -15,57 z" transform="translate(-1016,-11465)" id="n3" style="fill:#fefefe;fill-rule:nonzero" number="3" type="number"></path>
</svg>